<?xml version="1.0" encoding="utf-8"?>
<!-- Generator: Adobe Illustrator 19.2.1, SVG Export Plug-In . SVG Version: 6.00 Build 0)  -->
<svg version="1.1" id="Layer_1" xmlns="http://www.w3.org/2000/svg" xmlns:xlink="http://www.w3.org/1999/xlink" x="0px" y="0px"
	 viewBox="0 0 76.1 64.5" style="enable-background:new 0 0 76.1 64.5;" xml:space="preserve">
<style type="text/css">
	.st0{fill:url(#SVGID_1_);}
	.st1{clip-path:url(#SVGID_4_);fill:url(#SVGID_5_);}
	.st2{clip-path:url(#SVGID_4_);fill:url(#SVGID_6_);}
	.st3{clip-path:url(#SVGID_4_);fill:url(#SVGID_7_);}
	.st4{clip-path:url(#SVGID_4_);fill:url(#SVGID_8_);}
	.st5{clip-path:url(#SVGID_4_);fill:url(#SVGID_9_);}
	.st6{clip-path:url(#SVGID_4_);fill:url(#SVGID_10_);}
	.st7{clip-path:url(#SVGID_4_);fill:url(#SVGID_11_);}
	.st8{clip-path:url(#SVGID_4_);fill:url(#SVGID_12_);}
	.st9{clip-path:url(#SVGID_4_);fill:url(#SVGID_13_);}
	.st10{clip-path:url(#SVGID_4_);fill:url(#SVGID_14_);}
	.st11{clip-path:url(#SVGID_4_);fill:url(#SVGID_15_);}
	.st12{clip-path:url(#SVGID_4_);fill:url(#SVGID_16_);}
	.st13{clip-path:url(#SVGID_4_);fill:url(#SVGID_17_);}
	.st14{clip-path:url(#SVGID_4_);fill:url(#SVGID_18_);}
	.st15{clip-path:url(#SVGID_4_);fill:url(#SVGID_19_);}
	.st16{clip-path:url(#SVGID_4_);fill:url(#SVGID_20_);}
	.st17{clip-path:url(#SVGID_4_);fill:url(#SVGID_21_);}
	.st18{clip-path:url(#SVGID_24_);fill:url(#SVGID_25_);}
	.st19{clip-path:url(#SVGID_24_);fill:url(#SVGID_26_);}
	.st20{clip-path:url(#SVGID_24_);fill:url(#SVGID_27_);}
	.st21{clip-path:url(#SVGID_24_);fill:url(#SVGID_28_);}
	.st22{clip-path:url(#SVGID_24_);fill:url(#SVGID_29_);}
	.st23{clip-path:url(#SVGID_24_);fill:url(#SVGID_30_);}
	.st24{clip-path:url(#SVGID_24_);fill:url(#SVGID_31_);}
	.st25{clip-path:url(#SVGID_24_);fill:url(#SVGID_32_);}
	.st26{clip-path:url(#SVGID_24_);fill:url(#SVGID_33_);}
	.st27{clip-path:url(#SVGID_24_);fill:url(#SVGID_34_);}
	.st28{clip-path:url(#SVGID_24_);fill:url(#SVGID_35_);}
	.st29{clip-path:url(#SVGID_24_);fill:url(#SVGID_36_);}
	.st30{clip-path:url(#SVGID_24_);fill:url(#SVGID_37_);}
	.st31{clip-path:url(#SVGID_24_);fill:url(#SVGID_38_);}
</style>
<g>
	<g>
		<linearGradient id="SVGID_1_" gradientUnits="userSpaceOnUse" x1="38.0341" y1="66.6916" x2="38.0341" y2="0.8531">
			<stop  offset="0.1071" style="stop-color:#2670B8"/>
			<stop  offset="0.49" style="stop-color:#32B3A7"/>
		</linearGradient>
		<path class="st0" d="M74.3,55.6c-1.2-1.9-8.5-14.2-15.6-26.1C51.4,17.4,44,5,42.9,3.3c-0.9-1.5-2-2.5-3.1-3V0l-1.4,0
			c-0.1,0-0.2,0-0.2,0L38,0c-0.1,0-0.2,0-0.3,0l-1.4,0v0.3c-1.1,0.5-2.2,1.5-3.1,3C32.1,5,24.7,17.4,17.4,29.5l-0.2,0.4
			C10.2,41.6,3,53.7,1.8,55.6c-1.2,2-2.5,4.6-1.3,6.6c0.8,1.5,2.6,2.2,5.4,2.2l32.2,0.1c13.8,0,27.1-0.1,32.2-0.1
			c2.8,0,4.6-0.7,5.4-2.2C76.8,60.1,75.5,57.6,74.3,55.6z M38,61.1C24.3,61.1,11,61,5.9,61h0c-1.7,0-2.3-0.3-2.4-0.4l16.8-29.1
			C27.2,19.9,35,6.7,36.1,5.1c0.8-1.2,1.3-1.5,1.6-1.6l0.4,0l0.4,0c0.3,0.1,0.8,0.4,1.6,1.6c1,1.7,8.5,14.1,15.6,26.1l0.3,0.5
			c7,11.7,14.2,23.8,15.4,25.7c1.6,2.6,1.3,3.2,1.3,3.2c-0.1,0.1-0.7,0.4-2.4,0.4C65.1,61,51.8,61.1,38,61.1z"/>
	</g>
</g>
<g>
	<g>
		<g>
			<defs>
				<path id="SVGID_2_" d="M36,37.7c0.9,1.6,1.6,2.4,2.1,2.4c0.5,0,1.1-0.6,1.8-1.9c0.7-1.1,1.3-2.3,1.7-3.7
					c0.4-1.4,0.6-2.7,0.6-3.9c0-1.8-0.5-3.3-1.5-4.3c-0.7-0.8-1.6-1.1-2.7-1.1c-1.4,0-2.5,0.6-3.2,1.7c-0.6,0.9-0.9,2.1-0.9,3.4
					c0,1.1,0.2,2.3,0.6,3.7C34.8,35.3,35.3,36.5,36,37.7z"/>
			</defs>
			<linearGradient id="SVGID_3_" gradientUnits="userSpaceOnUse" x1="38.041" y1="48.47" x2="38.041" y2="27.9294">
				<stop  offset="0.1071" style="stop-color:#2670B8"/>
				<stop  offset="0.49" style="stop-color:#32B3A7"/>
			</linearGradient>
			<use xlink:href="#SVGID_2_"  style="overflow:visible;fill:url(#SVGID_3_);"/>
			<clipPath id="SVGID_4_">
				<use xlink:href="#SVGID_2_"  style="overflow:visible;"/>
			</clipPath>
			<linearGradient id="SVGID_5_" gradientUnits="userSpaceOnUse" x1="38.487" y1="46.1773" x2="38.487" y2="30.3841">
				<stop  offset="0.1071" style="stop-color:#2670B8"/>
				<stop  offset="0.49" style="stop-color:#32B3A7"/>
			</linearGradient>
			<rect x="34.5" y="38.5" class="st1" width="8" height="1"/>
			<linearGradient id="SVGID_6_" gradientUnits="userSpaceOnUse" x1="38.487" y1="46.1773" x2="38.487" y2="30.3841">
				<stop  offset="0.1071" style="stop-color:#2670B8"/>
				<stop  offset="0.49" style="stop-color:#32B3A7"/>
			</linearGradient>
			<rect x="34.5" y="37.5" class="st2" width="8" height="1"/>
			<linearGradient id="SVGID_7_" gradientUnits="userSpaceOnUse" x1="38.487" y1="54.8439" x2="38.487" y2="23.2576">
				<stop  offset="0.1071" style="stop-color:#2670B8"/>
				<stop  offset="0.49" style="stop-color:#32B3A7"/>
			</linearGradient>
			<rect x="34.5" y="35.5" class="st3" width="8" height="2"/>
			<linearGradient id="SVGID_8_" gradientUnits="userSpaceOnUse" x1="38.487" y1="45.1773" x2="38.487" y2="29.3841">
				<stop  offset="0.1071" style="stop-color:#2670B8"/>
				<stop  offset="0.49" style="stop-color:#32B3A7"/>
			</linearGradient>
			<rect x="34.5" y="34.5" class="st4" width="8" height="1"/>
			<linearGradient id="SVGID_9_" gradientUnits="userSpaceOnUse" x1="38.487" y1="55.8439" x2="38.487" y2="24.2576">
				<stop  offset="0.1071" style="stop-color:#2670B8"/>
				<stop  offset="0.49" style="stop-color:#32B3A7"/>
			</linearGradient>
			<rect x="34.5" y="32.5" class="st5" width="8" height="2"/>
			<linearGradient id="SVGID_10_" gradientUnits="userSpaceOnUse" x1="38.487" y1="44.1773" x2="38.487" y2="28.3841">
				<stop  offset="0.1071" style="stop-color:#2670B8"/>
				<stop  offset="0.49" style="stop-color:#32B3A7"/>
			</linearGradient>
			<rect x="34.5" y="31.5" class="st6" width="8" height="1"/>
			<linearGradient id="SVGID_11_" gradientUnits="userSpaceOnUse" x1="38.487" y1="58.8439" x2="38.487" y2="27.2576">
				<stop  offset="0.1071" style="stop-color:#2670B8"/>
				<stop  offset="0.49" style="stop-color:#32B3A7"/>
			</linearGradient>
			<rect x="34.5" y="29.5" class="st7" width="8" height="2"/>
			<linearGradient id="SVGID_12_" gradientUnits="userSpaceOnUse" x1="38.487" y1="44.1773" x2="38.487" y2="28.3841">
				<stop  offset="0.1071" style="stop-color:#2670B8"/>
				<stop  offset="0.49" style="stop-color:#32B3A7"/>
			</linearGradient>
			<rect x="34.5" y="28.5" class="st8" width="8" height="1"/>
			<linearGradient id="SVGID_13_" gradientUnits="userSpaceOnUse" x1="38.487" y1="59.8439" x2="38.487" y2="28.2576">
				<stop  offset="0.1071" style="stop-color:#2670B8"/>
				<stop  offset="0.49" style="stop-color:#32B3A7"/>
			</linearGradient>
			<rect x="34.5" y="26.5" class="st9" width="8" height="2"/>
			<linearGradient id="SVGID_14_" gradientUnits="userSpaceOnUse" x1="38.487" y1="43.1773" x2="38.487" y2="27.3841">
				<stop  offset="0.1071" style="stop-color:#2670B8"/>
				<stop  offset="0.49" style="stop-color:#32B3A7"/>
			</linearGradient>
			<rect x="34.5" y="25.5" class="st10" width="8" height="1"/>
		</g>
	</g>
	<g>
		<g>
			<defs>
				<path id="SVGID_22_" d="M38,42c-1.1,0-2,0.4-2.8,1.2c-0.7,0.7-1,1.6-1,2.6c0,1.1,0.4,2.1,1.2,2.8c0.7,0.7,1.6,1.1,2.6,1.1
					c1,0,1.9-0.4,2.7-1.2c0.8-0.8,1.1-1.7,1.1-2.7c0-1-0.4-1.9-1.1-2.7C40,42.3,39,42,38,42z"/>
			</defs>
			<linearGradient id="SVGID_15_" gradientUnits="userSpaceOnUse" x1="38.0325" y1="48.47" x2="38.0325" y2="27.9294">
				<stop  offset="0.1071" style="stop-color:#2670B8"/>
				<stop  offset="0.49" style="stop-color:#32B3A7"/>
			</linearGradient>
			<use xlink:href="#SVGID_22_"  style="overflow:visible;fill:url(#SVGID_15_);"/>
			<clipPath id="SVGID_16_">
				<use xlink:href="#SVGID_22_"  style="overflow:visible;"/>
			</clipPath>
			<linearGradient id="SVGID_17_" gradientUnits="userSpaceOnUse" x1="38.487" y1="47.8439" x2="38.487" y2="16.2576">
				<stop  offset="0.1071" style="stop-color:#2670B8"/>
				<stop  offset="0.49" style="stop-color:#32B3A7"/>
			</linearGradient>
			<rect x="34.5" y="48.5" style="clip-path:url(#SVGID_16_);fill:url(#SVGID_17_);" width="8" height="2"/>
			<linearGradient id="SVGID_18_" gradientUnits="userSpaceOnUse" x1="38.487" y1="48.1773" x2="38.487" y2="32.3841">
				<stop  offset="0.1071" style="stop-color:#2670B8"/>
				<stop  offset="0.49" style="stop-color:#32B3A7"/>
			</linearGradient>
			<rect x="34.5" y="47.5" style="clip-path:url(#SVGID_16_);fill:url(#SVGID_18_);" width="8" height="1"/>
			<linearGradient id="SVGID_19_" gradientUnits="userSpaceOnUse" x1="38.487" y1="48.8439" x2="38.487" y2="17.2576">
				<stop  offset="0.1071" style="stop-color:#2670B8"/>
				<stop  offset="0.49" style="stop-color:#32B3A7"/>
			</linearGradient>
			<rect x="34.5" y="45.5" style="clip-path:url(#SVGID_16_);fill:url(#SVGID_19_);" width="8" height="2"/>
			<linearGradient id="SVGID_20_" gradientUnits="userSpaceOnUse" x1="38.487" y1="47.1773" x2="38.487" y2="31.3841">
				<stop  offset="0.1071" style="stop-color:#2670B8"/>
				<stop  offset="0.49" style="stop-color:#32B3A7"/>
			</linearGradient>
			<rect x="34.5" y="44.5" style="clip-path:url(#SVGID_16_);fill:url(#SVGID_20_);" width="8" height="1"/>
			<linearGradient id="SVGID_21_" gradientUnits="userSpaceOnUse" x1="41.487" y1="61.8439" x2="41.487" y2="30.2576">
				<stop  offset="0.1071" style="stop-color:#2670B8"/>
				<stop  offset="0.49" style="stop-color:#32B3A7"/>
			</linearGradient>
			<rect x="37.5" y="52.5" style="clip-path:url(#SVGID_16_);fill:url(#SVGID_21_);" width="8" height="2"/>
		</g>
	</g>
</g>
</svg>
