<?xml version="1.0" encoding="utf-8"?>
<!-- Generator: Adobe Illustrator 16.0.0, SVG Export Plug-In . SVG Version: 6.00 Build 0)  -->
<!DOCTYPE svg PUBLIC "-//W3C//DTD SVG 1.1//EN" "http://www.w3.org/Graphics/SVG/1.1/DTD/svg11.dtd">
<svg version="1.1" id="Isolation_Mode" xmlns="http://www.w3.org/2000/svg" xmlns:xlink="http://www.w3.org/1999/xlink" x="0px"
	 y="0px" width="4.672px" height="19.834px" viewBox="265.995 539.387 4.672 19.834"
	 enable-background="new 265.995 539.387 4.672 19.834" xml:space="preserve">
<path fill="#E1A900" d="M269.849,558.576c-0.426,0.43-0.935,0.645-1.527,0.645c-0.579,0-1.075-0.196-1.487-0.59
	c-0.446-0.425-0.669-0.951-0.669-1.577c0-0.579,0.197-1.067,0.59-1.468c0.438-0.458,0.914-0.679,1.559-0.679
	c0.58,0,1.142,0.207,1.555,0.64c0.412,0.426,0.618,0.926,0.618,1.498C270.487,557.637,270.275,558.147,269.849,558.576z"/>
<path fill="#E1A900" d="M270.655,550.604v-7.88c0.008-0.094,0.012-0.2,0.012-0.322c0-1.025-0.276-1.817-0.829-2.376
	c-0.413-0.426-0.915-0.639-1.507-0.639c-0.798,0-1.408,0.318-1.826,0.958c-0.34,0.513-0.51,1.147-0.51,1.907
	c0,0.088,0.003,0.167,0.007,0.237v8.032c-0.004,0.085-0.007,0.173-0.007,0.265c0,0.087,0.003,0.171,0.007,0.256v0.319h0.025
	c0.086,0.751,0.352,1.351,0.796,1.801c0.413,0.426,0.915,0.64,1.507,0.64c0.798,0,1.408-0.319,1.826-0.958
	c0.274-0.414,0.438-0.909,0.491-1.482h0.008v-0.097c0.007-0.107,0.012-0.216,0.012-0.328
	C270.667,550.818,270.663,550.708,270.655,550.604z"/>
</svg>
