<?xml version="1.0" encoding="utf-8"?>
<!-- Generator: Adobe Illustrator 19.2.1, SVG Export Plug-In . SVG Version: 6.00 Build 0)  -->
<svg version="1.1" id="Layer_1" xmlns="http://www.w3.org/2000/svg" xmlns:xlink="http://www.w3.org/1999/xlink" x="0px" y="0px"
	 viewBox="0 0 36.6 31.4" style="enable-background:new 0 0 36.6 31.4;" xml:space="preserve">
<style type="text/css">
	.st0{fill:url(#SVGID_1_);}
	.st1{fill:url(#SVGID_2_);}
	.st2{fill:url(#SVGID_3_);}
	.st3{fill:url(#SVGID_4_);}
</style>
<g>
	<linearGradient id="SVGID_1_" gradientUnits="userSpaceOnUse" x1="31.3667" y1="31.981" x2="31.3667" y2="-0.9413">
		<stop  offset="0" style="stop-color:#2170B8"/>
		<stop  offset="1" style="stop-color:#30B3A8"/>
	</linearGradient>
	<path class="st0" d="M31.4,19.3c0.1,0,0.1,0,0.2,0c0.5,0,1.1-0.3,1.5-0.7c0.4-0.4,0.5-1,0.5-1.5c0-0.6-0.3-1.1-0.7-1.5
		c-0.4-0.4-1-0.6-1.6-0.5c-0.6,0-1.1,0.3-1.4,0.7c-0.4,0.4-0.6,1-0.5,1.6c0,0.6,0.3,1.1,0.7,1.4C30.3,19.1,30.8,19.3,31.4,19.3z
		 M31.7,16.8c0.1,0.1,0.2,0.2,0.2,0.4c0,0.2,0,0.3-0.1,0.4c-0.1,0.1-0.2,0.2-0.4,0.2c-0.1,0-0.3,0-0.4-0.1c-0.2-0.2-0.3-0.6-0.1-0.8
		c0.1-0.1,0.2-0.2,0.4-0.2C31.5,16.6,31.6,16.7,31.7,16.8z"/>
	<linearGradient id="SVGID_2_" gradientUnits="userSpaceOnUse" x1="27.6045" y1="31.981" x2="27.6045" y2="-0.9413">
		<stop  offset="0" style="stop-color:#2170B8"/>
		<stop  offset="1" style="stop-color:#30B3A8"/>
	</linearGradient>
	<path class="st1" d="M36.6,17.3L36.6,17.3c-0.2-1.7-1.1-3.2-2.6-4.2c-2.3-1.6-5.4-1.3-7.5,0.6c-1.8,1.7-2.4,4.3-1.5,6.5l-6,7.1
		c-0.2,0.3-0.4,0.7-0.3,1l0.1,1.5c0,0.4,0.2,0.7,0.5,1c0.3,0.2,0.6,0.4,1,0.4c0,0,0.1,0,0.1,0l1.8-0.1c0.3,0,0.7-0.2,0.9-0.4
		l0.7-0.6c0.3-0.3,0.5-0.7,0.5-1.2l0-0.3c0.4,0,0.7-0.2,0.9-0.5c0.2-0.3,0.4-0.6,0.4-1c0.4,0,0.7-0.2,0.9-0.5c0.2-0.3,0.4-0.6,0.4-1
		l0.3,0c0.4,0,0.8-0.2,1-0.5l1-1.3c2.2,0.6,4.6-0.1,6.1-1.9C36.2,20.7,36.8,19,36.6,17.3z M22.5,28.7l0,0.3L22,29.5l-1.7,0.1
		l-0.1-1.4l6-7.1c0.3-0.4,0.4-1,0.3-1.5c-0.7-1.7-0.2-3.6,1.1-4.9c0.7-0.7,1.7-1.1,2.7-1.2c1-0.1,2,0.2,2.8,0.7
		c1.1,0.7,1.8,1.8,1.9,3.1c0.2,1.3-0.2,2.5-1,3.5c-1.1,1.3-2.9,1.9-4.6,1.4c-0.6-0.2-1.2,0-1.6,0.5l-1,1.3l-0.4,0
		c-0.4,0-0.7,0.2-1,0.5c-0.2,0.3-0.4,0.6-0.4,1c-0.4,0-0.7,0.2-0.9,0.5c-0.2,0.3-0.4,0.6-0.4,1c-0.4,0-0.7,0.2-0.9,0.5
		C22.6,27.9,22.5,28.3,22.5,28.7z"/>
</g>
<g>
	<linearGradient id="SVGID_3_" gradientUnits="userSpaceOnUse" x1="12.0578" y1="31.981" x2="12.0578" y2="-0.9413">
		<stop  offset="0" style="stop-color:#2170B8"/>
		<stop  offset="1" style="stop-color:#30B3A8"/>
	</linearGradient>
	<path class="st2" d="M21,14.9c1.7-1.7,2.6-3.9,2.6-6.2c0-4.8-3.9-8.7-8.7-8.7S6.2,3.9,6.2,8.7c0,2.3,0.9,4.6,2.6,6.2
		c-5.4,2.6-8.8,8-8.8,14v1.6c0,0.6,0.4,0.9,0.9,0.9s0.9-0.4,0.9-0.9v-1.6c0-5.5,3.5-10.6,8.6-12.6c1.3,0.8,2.8,1.2,4.4,1.2
		c1.5,0,3-0.4,4.4-1.2c1,0.4,2,1,3,1.6l0.3,0.2l1.6-1.2l-0.5-0.3C22.8,15.9,21.9,15.4,21,14.9z M21.7,8.7c0,3.8-3.1,6.8-6.8,6.8
		s-6.8-3.1-6.8-6.8s3.1-6.8,6.8-6.8S21.7,5,21.7,8.7z"/>
	<linearGradient id="SVGID_4_" gradientUnits="userSpaceOnUse" x1="28.8511" y1="31.981" x2="28.8511" y2="-0.9413">
		<stop  offset="0" style="stop-color:#2170B8"/>
		<stop  offset="1" style="stop-color:#30B3A8"/>
	</linearGradient>
	<path class="st3" d="M29.7,27.2l-0.1-0.7l-1.8,1.3l0,0.2c0,0.4,0,0.6,0,0.9v1.6c0,0.6,0.4,0.9,0.9,0.9c0.6,0,0.9-0.4,0.9-0.9v-1.6
		C29.8,28.4,29.8,27.8,29.7,27.2z"/>
</g>
</svg>
