<?xml version="1.0" encoding="utf-8"?>
<!-- Generator: Adobe Illustrator 19.2.1, SVG Export Plug-In . SVG Version: 6.00 Build 0)  -->
<svg version="1.1" id="Layer_1" xmlns="http://www.w3.org/2000/svg" xmlns:xlink="http://www.w3.org/1999/xlink" x="0px" y="0px"
	 viewBox="0 0 56.3 54.9" style="enable-background:new 0 0 56.3 54.9;" xml:space="preserve">
<style type="text/css">
	.st0{fill:url(#SVGID_1_);}
	.st1{fill:url(#SVGID_2_);}
	.st2{fill:url(#SVGID_3_);}
	.st3{fill:url(#SVGID_4_);}
	.st4{fill:url(#SVGID_5_);}
	.st5{fill:url(#SVGID_6_);}
	.st6{fill:url(#SVGID_7_);}
	.st7{fill:url(#SVGID_8_);}
	.st8{fill:url(#SVGID_9_);}
	.st9{fill:url(#SVGID_10_);}
</style>
<g>
	<linearGradient id="SVGID_1_" gradientUnits="userSpaceOnUse" x1="28.125" y1="57.9861" x2="28.125" y2="-0.2997">
		<stop  offset="0" style="stop-color:#2170B8"/>
		<stop  offset="1" style="stop-color:#30B3A8"/>
	</linearGradient>
	<path class="st0" d="M0,46.2c0,2.5,2,4.5,4.5,4.5h2.4v3.1c0,0.6,0.5,1,1,1s1-0.5,1-1v-3.1h38.2v3.1c0,0.6,0.5,1,1,1s1-0.5,1-1v-3.1
		h2.4c2.5,0,4.5-2,4.5-4.5V31.9H0V46.2z M51.7,48.6H4.5c-1.3,0-2.4-1.1-2.4-2.4V34h52.1v12.2C54.2,47.5,53.1,48.6,51.7,48.6z"/>
	<linearGradient id="SVGID_2_" gradientUnits="userSpaceOnUse" x1="26.0417" y1="57.9861" x2="26.0417" y2="-0.2997">
		<stop  offset="0" style="stop-color:#2170B8"/>
		<stop  offset="1" style="stop-color:#30B3A8"/>
	</linearGradient>
	<path class="st1" d="M26,36.8c-0.6,0-1,0.5-1,1v6.9c0,0.6,0.5,1,1,1c0.6,0,1-0.5,1-1v-6.9C27.1,37.3,26.6,36.8,26,36.8z"/>
	<linearGradient id="SVGID_3_" gradientUnits="userSpaceOnUse" x1="19.0972" y1="57.9861" x2="19.0972" y2="-0.2997">
		<stop  offset="0" style="stop-color:#2170B8"/>
		<stop  offset="1" style="stop-color:#30B3A8"/>
	</linearGradient>
	<path class="st2" d="M19.1,36.8c-0.6,0-1,0.5-1,1v6.9c0,0.6,0.5,1,1,1c0.6,0,1-0.5,1-1v-6.9C20.1,37.3,19.7,36.8,19.1,36.8z"/>
	<linearGradient id="SVGID_4_" gradientUnits="userSpaceOnUse" x1="12.1528" y1="57.9861" x2="12.1528" y2="-0.2997">
		<stop  offset="0" style="stop-color:#2170B8"/>
		<stop  offset="1" style="stop-color:#30B3A8"/>
	</linearGradient>
	<path class="st3" d="M12.2,36.8c-0.6,0-1,0.5-1,1v6.9c0,0.6,0.5,1,1,1s1-0.5,1-1v-6.9C13.2,37.3,12.7,36.8,12.2,36.8z"/>
	<linearGradient id="SVGID_5_" gradientUnits="userSpaceOnUse" x1="40.625" y1="57.9861" x2="40.625" y2="-0.2997">
		<stop  offset="0" style="stop-color:#2170B8"/>
		<stop  offset="1" style="stop-color:#30B3A8"/>
	</linearGradient>
	<path class="st4" d="M40.6,36.8c-2.5,0-4.5,2-4.5,4.5c0,2.5,2,4.5,4.5,4.5s4.5-2,4.5-4.5C45.1,38.8,43.1,36.8,40.6,36.8z
		 M40.6,43.8c-1.3,0-2.4-1.1-2.4-2.4c0-1.3,1.1-2.4,2.4-2.4s2.4,1.1,2.4,2.4C43.1,42.7,42,43.8,40.6,43.8z"/>
	<linearGradient id="SVGID_6_" gradientUnits="userSpaceOnUse" x1="28.125" y1="57.9861" x2="28.125" y2="-0.2997">
		<stop  offset="0" style="stop-color:#2170B8"/>
		<stop  offset="1" style="stop-color:#30B3A8"/>
	</linearGradient>
	<path class="st5" d="M1,28.5h54.2c0.6,0,1-0.5,1-1l0-17.9c0-0.1,0-0.2-0.1-0.3l-0.1-0.1c0-0.1-0.1-0.1-0.1-0.2L47.6,2
		c-1.5-1.3-3.5-2-5.5-2H14.7C12.8,0,11,0.6,9.5,1.7L0.4,8.5L0.2,8.8v0c0,0,0,0.1-0.1,0.1l0,0.1C0.1,9.1,0,9.2,0,9.3l0,18.1
		C0,28,0.5,28.5,1,28.5z M4.2,8.3l6.6-4.9c1.1-0.8,2.5-1.3,4-1.3h27.4c0,0,0,0,0,0c1.5,0,3,0.5,4.2,1.5l6,4.9L4.2,8.3z M2.1,26.4
		v-16l52.1,0.2v15.8H2.1z"/>
	<linearGradient id="SVGID_7_" gradientUnits="userSpaceOnUse" x1="26.0417" y1="57.9861" x2="26.0417" y2="-0.2997">
		<stop  offset="0" style="stop-color:#2170B8"/>
		<stop  offset="1" style="stop-color:#30B3A8"/>
	</linearGradient>
	<path class="st6" d="M26,14.6c-0.6,0-1,0.5-1,1v6.9c0,0.6,0.5,1,1,1c0.6,0,1-0.5,1-1v-6.9C27.1,15.1,26.6,14.6,26,14.6z"/>
	<linearGradient id="SVGID_8_" gradientUnits="userSpaceOnUse" x1="19.0972" y1="57.9861" x2="19.0972" y2="-0.2997">
		<stop  offset="0" style="stop-color:#2170B8"/>
		<stop  offset="1" style="stop-color:#30B3A8"/>
	</linearGradient>
	<path class="st7" d="M19.1,14.6c-0.6,0-1,0.5-1,1v6.9c0,0.6,0.5,1,1,1c0.6,0,1-0.5,1-1v-6.9C20.1,15.1,19.7,14.6,19.1,14.6z"/>
	<linearGradient id="SVGID_9_" gradientUnits="userSpaceOnUse" x1="12.1528" y1="57.9861" x2="12.1528" y2="-0.2997">
		<stop  offset="0" style="stop-color:#2170B8"/>
		<stop  offset="1" style="stop-color:#30B3A8"/>
	</linearGradient>
	<path class="st8" d="M12.2,14.6c-0.6,0-1,0.5-1,1v6.9c0,0.6,0.5,1,1,1s1-0.5,1-1v-6.9C13.2,15.1,12.7,14.6,12.2,14.6z"/>
	<linearGradient id="SVGID_10_" gradientUnits="userSpaceOnUse" x1="40.625" y1="57.9861" x2="40.625" y2="-0.2997">
		<stop  offset="0" style="stop-color:#2170B8"/>
		<stop  offset="1" style="stop-color:#30B3A8"/>
	</linearGradient>
	<path class="st9" d="M40.6,14.6c-2.5,0-4.5,2-4.5,4.5s2,4.5,4.5,4.5s4.5-2,4.5-4.5S43.1,14.6,40.6,14.6z M40.6,21.5
		c-1.3,0-2.4-1.1-2.4-2.4c0-1.3,1.1-2.4,2.4-2.4s2.4,1.1,2.4,2.4C43.1,20.4,42,21.5,40.6,21.5z"/>
</g>
</svg>
