<?xml version="1.0" encoding="utf-8"?>
<!-- Generator: Adobe Illustrator 19.2.1, SVG Export Plug-In . SVG Version: 6.00 Build 0)  -->
<svg version="1.1" id="Layer_1" xmlns="http://www.w3.org/2000/svg" xmlns:xlink="http://www.w3.org/1999/xlink" x="0px" y="0px"
	 viewBox="0 0 33.8 32.9" style="enable-background:new 0 0 33.8 32.9;" xml:space="preserve">
<style type="text/css">
	.st0{clip-path:url(#SVGID_2_);fill:url(#SVGID_3_);}
	.st1{clip-path:url(#SVGID_5_);fill:url(#SVGID_6_);}
	.st2{clip-path:url(#SVGID_8_);fill:url(#SVGID_9_);}
	.st3{clip-path:url(#SVGID_11_);fill:url(#SVGID_12_);}
	.st4{clip-path:url(#SVGID_14_);fill:url(#SVGID_15_);}
	.st5{clip-path:url(#SVGID_17_);fill:url(#SVGID_18_);}
	.st6{clip-path:url(#SVGID_20_);fill:url(#SVGID_21_);}
	.st7{clip-path:url(#SVGID_23_);fill:url(#SVGID_24_);}
	.st8{clip-path:url(#SVGID_26_);fill:url(#SVGID_27_);}
	.st9{clip-path:url(#SVGID_29_);fill:url(#SVGID_30_);}
</style>
<g>
	<defs>
		<path id="SVGID_1_" d="M1.6,27.6v-7h30.5v7c0,0.7-0.6,1.2-1.2,1.2h-28C2.2,28.8,1.6,28.3,1.6,27.6 M0,18.9v8.6
			c0,1.6,1.3,2.9,2.9,2.9h1.2v1.6c0,0.5,0.4,0.8,0.8,0.8c0.5,0,0.8-0.4,0.8-0.8v-1.6H28v1.6c0,0.5,0.4,0.8,0.8,0.8
			c0.5,0,0.8-0.4,0.8-0.8v-1.6h1.2c1.6,0,2.9-1.3,2.9-2.9v-8.6H0z"/>
	</defs>
	<clipPath id="SVGID_2_">
		<use xlink:href="#SVGID_1_"  style="overflow:visible;"/>
	</clipPath>
	
		<linearGradient id="SVGID_3_" gradientUnits="userSpaceOnUse" x1="-4.451926e-002" y1="33.259" x2="0.3672" y2="33.259" gradientTransform="matrix(0 -75.9745 -75.9745 0 2543.7151 27.1915)">
		<stop  offset="0" style="stop-color:#2170B8"/>
		<stop  offset="1" style="stop-color:#30B3A8"/>
	</linearGradient>
	<rect y="18.9" class="st0" width="33.8" height="14"/>
</g>
<g>
	<defs>
		<path id="SVGID_4_" d="M14.8,22.6v4.1c0,0.5,0.4,0.8,0.8,0.8s0.8-0.4,0.8-0.8v-4.1c0-0.5-0.4-0.8-0.8-0.8S14.8,22.2,14.8,22.6"/>
	</defs>
	<clipPath id="SVGID_5_">
		<use xlink:href="#SVGID_4_"  style="overflow:visible;"/>
	</clipPath>
	
		<linearGradient id="SVGID_6_" gradientUnits="userSpaceOnUse" x1="-4.451926e-002" y1="33.2357" x2="0.3672" y2="33.2357" gradientTransform="matrix(0 -75.9745 -75.9745 0 2540.7151 27.1915)">
		<stop  offset="0" style="stop-color:#2170B8"/>
		<stop  offset="1" style="stop-color:#30B3A8"/>
	</linearGradient>
	<rect x="14.8" y="21.8" class="st1" width="1.6" height="5.8"/>
</g>
<g>
	<defs>
		<path id="SVGID_7_" d="M10.7,22.6v4.1c0,0.5,0.4,0.8,0.8,0.8c0.5,0,0.8-0.4,0.8-0.8v-4.1c0-0.5-0.4-0.8-0.8-0.8
			C11.1,21.8,10.7,22.2,10.7,22.6"/>
	</defs>
	<clipPath id="SVGID_8_">
		<use xlink:href="#SVGID_7_"  style="overflow:visible;"/>
	</clipPath>
	
		<linearGradient id="SVGID_9_" gradientUnits="userSpaceOnUse" x1="-4.451926e-002" y1="33.1583" x2="0.3672" y2="33.1583" gradientTransform="matrix(0 -75.9745 -75.9745 0 2530.7151 27.1915)">
		<stop  offset="0" style="stop-color:#2170B8"/>
		<stop  offset="1" style="stop-color:#30B3A8"/>
	</linearGradient>
	<rect x="10.7" y="21.8" class="st2" width="1.6" height="5.8"/>
</g>
<g>
	<defs>
		<path id="SVGID_10_" d="M6.6,22.6v4.1c0,0.5,0.4,0.8,0.8,0.8c0.5,0,0.8-0.4,0.8-0.8v-4.1c0-0.5-0.4-0.8-0.8-0.8
			C7,21.8,6.6,22.2,6.6,22.6"/>
	</defs>
	<clipPath id="SVGID_11_">
		<use xlink:href="#SVGID_10_"  style="overflow:visible;"/>
	</clipPath>
	
		<linearGradient id="SVGID_12_" gradientUnits="userSpaceOnUse" x1="-4.451926e-002" y1="33.0809" x2="0.3672" y2="33.0809" gradientTransform="matrix(0 -75.9745 -75.9745 0 2520.7151 27.1915)">
		<stop  offset="0" style="stop-color:#2170B8"/>
		<stop  offset="1" style="stop-color:#30B3A8"/>
	</linearGradient>
	<rect x="6.6" y="21.8" class="st3" width="1.6" height="5.8"/>
</g>
<g>
	<defs>
		<path id="SVGID_13_" d="M23.1,24.7c0-0.7,0.6-1.2,1.2-1.2s1.2,0.6,1.2,1.2c0,0.7-0.6,1.2-1.2,1.2S23.1,25.4,23.1,24.7 M21.4,24.7
			c0,1.6,1.3,2.9,2.9,2.9s2.9-1.3,2.9-2.9c0-1.6-1.3-2.9-2.9-2.9S21.4,23.1,21.4,24.7"/>
	</defs>
	<clipPath id="SVGID_14_">
		<use xlink:href="#SVGID_13_"  style="overflow:visible;"/>
	</clipPath>
	
		<linearGradient id="SVGID_15_" gradientUnits="userSpaceOnUse" x1="-4.451926e-002" y1="33.3983" x2="0.3672" y2="33.3983" gradientTransform="matrix(0 -75.9745 -75.9745 0 2561.7151 27.1915)">
		<stop  offset="0" style="stop-color:#2170B8"/>
		<stop  offset="1" style="stop-color:#30B3A8"/>
	</linearGradient>
	<rect x="21.4" y="21.8" class="st4" width="5.8" height="5.8"/>
</g>
<g>
	<defs>
		<path id="SVGID_16_" d="M1.6,6.6l30.5,0v9H1.6V6.6z M3.3,4.9l3.4-2.6c0.6-0.5,1.4-0.7,2.2-0.7h16.2c0.9,0,1.7,0.3,2.3,0.8L30.6,5
			L3.3,4.9z M8.9,0C7.8,0,6.6,0.4,5.7,1.1l-5.4,4L0.2,5.3L0.1,5.3v0c0,0,0,0,0,0.1l0,0C0.1,5.5,0,5.6,0,5.7l0,10.8
			c0,0.5,0.4,0.8,0.8,0.8h32.1c0.5,0,0.8-0.4,0.8-0.8l0-10.7c0-0.1,0-0.2-0.1-0.2l0-0.1c0-0.1-0.1-0.1-0.1-0.2l-5-4.1
			c-1-0.8-2.2-1.2-3.4-1.2H8.9z"/>
	</defs>
	<clipPath id="SVGID_17_">
		<use xlink:href="#SVGID_16_"  style="overflow:visible;"/>
	</clipPath>
	
		<linearGradient id="SVGID_18_" gradientUnits="userSpaceOnUse" x1="-4.451926e-002" y1="33.259" x2="0.3672" y2="33.259" gradientTransform="matrix(0 -75.9745 -75.9745 0 2543.7151 27.1915)">
		<stop  offset="0" style="stop-color:#2170B8"/>
		<stop  offset="1" style="stop-color:#30B3A8"/>
	</linearGradient>
	<rect y="0" class="st5" width="33.8" height="17.3"/>
</g>
<g>
	<defs>
		<path id="SVGID_19_" d="M14.8,9.5v4.1c0,0.5,0.4,0.8,0.8,0.8s0.8-0.4,0.8-0.8V9.5c0-0.5-0.4-0.8-0.8-0.8S14.8,9,14.8,9.5"/>
	</defs>
	<clipPath id="SVGID_20_">
		<use xlink:href="#SVGID_19_"  style="overflow:visible;"/>
	</clipPath>
	
		<linearGradient id="SVGID_21_" gradientUnits="userSpaceOnUse" x1="-4.451926e-002" y1="33.2357" x2="0.3672" y2="33.2357" gradientTransform="matrix(0 -75.9745 -75.9745 0 2540.7151 27.1915)">
		<stop  offset="0" style="stop-color:#2170B8"/>
		<stop  offset="1" style="stop-color:#30B3A8"/>
	</linearGradient>
	<rect x="14.8" y="8.6" class="st6" width="1.6" height="5.8"/>
</g>
<g>
	<defs>
		<path id="SVGID_22_" d="M10.7,9.5v4.1c0,0.5,0.4,0.8,0.8,0.8c0.5,0,0.8-0.4,0.8-0.8V9.5c0-0.5-0.4-0.8-0.8-0.8
			C11.1,8.6,10.7,9,10.7,9.5"/>
	</defs>
	<clipPath id="SVGID_23_">
		<use xlink:href="#SVGID_22_"  style="overflow:visible;"/>
	</clipPath>
	
		<linearGradient id="SVGID_24_" gradientUnits="userSpaceOnUse" x1="-4.451926e-002" y1="33.1583" x2="0.3672" y2="33.1583" gradientTransform="matrix(0 -75.9745 -75.9745 0 2530.7151 27.1915)">
		<stop  offset="0" style="stop-color:#2170B8"/>
		<stop  offset="1" style="stop-color:#30B3A8"/>
	</linearGradient>
	<rect x="10.7" y="8.6" class="st7" width="1.6" height="5.8"/>
</g>
<g>
	<defs>
		<path id="SVGID_25_" d="M6.6,9.5v4.1c0,0.5,0.4,0.8,0.8,0.8c0.5,0,0.8-0.4,0.8-0.8V9.5c0-0.5-0.4-0.8-0.8-0.8C7,8.6,6.6,9,6.6,9.5
			"/>
	</defs>
	<clipPath id="SVGID_26_">
		<use xlink:href="#SVGID_25_"  style="overflow:visible;"/>
	</clipPath>
	
		<linearGradient id="SVGID_27_" gradientUnits="userSpaceOnUse" x1="-4.451926e-002" y1="33.0809" x2="0.3672" y2="33.0809" gradientTransform="matrix(0 -75.9745 -75.9745 0 2520.7151 27.1915)">
		<stop  offset="0" style="stop-color:#2170B8"/>
		<stop  offset="1" style="stop-color:#30B3A8"/>
	</linearGradient>
	<rect x="6.6" y="8.6" class="st8" width="1.6" height="5.8"/>
</g>
<g>
	<defs>
		<path id="SVGID_28_" d="M23.1,11.5c0-0.7,0.6-1.2,1.2-1.2s1.2,0.6,1.2,1.2c0,0.7-0.6,1.2-1.2,1.2S23.1,12.2,23.1,11.5 M21.4,11.5
			c0,1.6,1.3,2.9,2.9,2.9s2.9-1.3,2.9-2.9s-1.3-2.9-2.9-2.9S21.4,9.9,21.4,11.5"/>
	</defs>
	<clipPath id="SVGID_29_">
		<use xlink:href="#SVGID_28_"  style="overflow:visible;"/>
	</clipPath>
	
		<linearGradient id="SVGID_30_" gradientUnits="userSpaceOnUse" x1="-4.451926e-002" y1="33.3983" x2="0.3672" y2="33.3983" gradientTransform="matrix(0 -75.9745 -75.9745 0 2561.7151 27.1915)">
		<stop  offset="0" style="stop-color:#2170B8"/>
		<stop  offset="1" style="stop-color:#30B3A8"/>
	</linearGradient>
	<rect x="21.4" y="8.6" class="st9" width="5.8" height="5.8"/>
</g>
</svg>
