<?xml version="1.0" encoding="utf-8"?>
<!-- Generator: Adobe Illustrator 19.2.1, SVG Export Plug-In . SVG Version: 6.00 Build 0)  -->
<svg version="1.1" id="Layer_1" xmlns="http://www.w3.org/2000/svg" xmlns:xlink="http://www.w3.org/1999/xlink" x="0px" y="0px"
	 viewBox="0 0 177.6 23.1" style="enable-background:new 0 0 177.6 23.1;" xml:space="preserve">
<style type="text/css">
	.st0{fill-rule:evenodd;clip-rule:evenodd;fill:#FFFFFF;}
	.st1{fill:none;}
</style>
<g>
	<g>
		<rect x="85.2" y="2.3" class="st0" width="15.4" height="3.1"/>
		<path class="st0" d="M91.3,6.5c0.7-0.3,1.7-0.7,3.1-1v15.3h-3.1V6.5z"/>
		<polygon class="st0" points="50.1,2.3 50.1,10 59.4,10 59.4,2.3 62.5,2.3 62.5,20.8 59.4,20.8 59.4,13.1 50.1,13.1 50.1,20.8 
			47.1,20.8 47.1,2.3 		"/>
		<rect x="26.6" y="2.3" class="st0" width="15.4" height="3.1"/>
		<polygon class="st0" points="70.9,10.1 80.1,10.1 80.1,13.1 70.9,13.1 70.9,17.7 80.1,17.7 80.1,20.8 67.8,20.8 67.8,2.3 
			80.1,2.3 80.1,5.4 70.9,5.4 		"/>
		<polygon class="st0" points="116.7,20.8 110.9,9.2 105.1,20.8 101.7,20.8 110.9,2.3 120.2,20.8 		"/>
		<path class="st0" d="M35.4,5.6c0.1,0,0.3-0.1,0.4-0.1v15.3h-3.1V6.5c0.5-0.2,1-0.4,1.7-0.6c0.2-0.1,0.4-0.1,0.6-0.2
			C35.2,5.7,35.3,5.6,35.4,5.6"/>
		<polygon class="st0" points="163.3,2.3 168.6,9.1 173.8,2.3 177.6,2.3 177.6,2.6 170.2,12 170.2,20.8 167.1,20.8 167.1,12.2 
			159.4,2.3 		"/>
		<polygon class="st0" points="156.7,20.8 150.9,9.2 145.1,20.8 141.6,20.8 150.9,2.3 160.1,20.8 		"/>
		<path class="st0" d="M138,12c0.7-1.1,1.1-2.2,1.1-3.5c0-1.7-0.6-3.2-1.8-4.4c-1.2-1.2-2.7-1.8-4.3-1.8h-9.2v18.5h3v-6.2h5.3
			l3.5,6.2h3.5l-3.8-6.6C136.4,13.7,137.3,13,138,12 M132.9,11.6l-6.2-0.1V5.4h6.2c0.8,0,1.5,0.3,2.2,0.9c0.6,0.6,0.9,1.3,0.9,2.2
			c0,0.8-0.3,1.5-0.9,2.2C134.5,11.3,133.8,11.6,132.9,11.6"/>
		<path class="st0" d="M19,8.7c-0.1-0.9-0.2-1.7-0.5-2.4c-0.1-0.3-0.2-0.7-0.4-1c-0.5-0.9-1.1-1.7-1.8-2.5h0
			c-0.6-0.6-1.2-1.1-1.9-1.5C12.9,0.4,11.3,0,9.5,0C8.1,0,6.8,0.3,5.6,0.8C5,1.1,4.4,1.5,3.8,1.9l0,0c-0.4,0.3-0.7,0.6-1,0.9
			L2.7,2.9l0,0C0.9,4.8,0,7,0,9.5v0.2c0,1.3,0.2,2.4,0.7,3.5C1,14,1.5,14.8,2.2,15.6c0.2,0.2,0.4,0.5,0.6,0.7l0,0l6.8,6.8l6.4-6.6
			l0.1-0.1l0.2-0.2c0.1-0.1,0.1-0.1,0.2-0.2c1.6-1.7,2.5-3.8,2.5-6.1l0-0.5C19.1,9.5,19,9.2,19,8.7 M14.1,14.3l0.5-1.4l0.1-0.5
			l0-0.1v-0.1l0-0.1c0.1-0.5,0.1-1,0.1-1.6v-0.3c0-1-0.1-2-0.3-3c-0.2-1-0.6-1.8-1.1-2.5c-0.9-1.3-2.3-2-4-2c-1.6,0-2.9,0.6-3.8,1.8
			C5,5.4,4.6,6.4,4.4,7.5C4.3,8.2,4.2,9,4.2,10v0.6c0,0.6,0.1,1.1,0.2,1.5v0l0,0v0.1l0,0.1v0.1l0.1,0.5l0.6,1.6l0,0l0.4,0.7
			c0.2,0.3,0.4,0.5,0.6,0.7c0.8,0.8,1.9,1.3,3.2,1.3h0.6c1.5-0.1,2.7-0.7,3.5-1.8"/>
		<path class="st0" d="M12.7,7.3v5.5h-0.5v-0.1c0-0.6-0.1-1-0.4-1.3C11.5,11.1,11,11,10.2,11h-1c-0.7,0-1.2,0.1-1.5,0.4
			c-0.3,0.3-0.4,0.7-0.4,1.3v0.1H6.7V7.3h0.5l0,0.7c0.1,0.3,0.2,0.5,0.4,0.7C7.8,8.9,7.9,9,8.2,9c0.3,0.1,0.6,0.1,1.1,0.1h1
			c0.4,0,0.6,0,0.8-0.1c0.3-0.1,0.5-0.2,0.7-0.3C11.9,8.6,12,8.3,12.1,8l0-0.7H12.7z"/>
		<rect class="st1" width="177.6" height="23.1"/>
	</g>
</g>
</svg>
