<?xml version="1.0" encoding="utf-8"?>
<!-- Generator: Adobe Illustrator 19.2.1, SVG Export Plug-In . SVG Version: 6.00 Build 0)  -->
<svg version="1.1" id="Layer_1" xmlns="http://www.w3.org/2000/svg" xmlns:xlink="http://www.w3.org/1999/xlink" x="0px" y="0px"
	 viewBox="0 0 62.5 53.4" style="enable-background:new 0 0 62.5 53.4;" xml:space="preserve">
<style type="text/css">
	.st0{fill:url(#SVGID_1_);}
	.st1{fill:url(#SVGID_2_);}
	.st2{fill:url(#SVGID_3_);}
	.st3{fill:url(#SVGID_4_);}
	.st4{fill:url(#SVGID_5_);}
	.st5{fill:url(#SVGID_6_);}
</style>
<g>
	<g>
		<linearGradient id="SVGID_1_" gradientUnits="userSpaceOnUse" x1="47.3834" y1="52.8268" x2="47.3834" y2="-2.6669">
			<stop  offset="0" style="stop-color:#2170B8"/>
			<stop  offset="1" style="stop-color:#30B3A8"/>
		</linearGradient>
		<path class="st0" d="M53.9,32.5c0.1,0,0.2,0,0.2,0c0.8-0.1,1.6-0.4,2.2-1.1c0.6-0.6,0.8-1.5,0.8-2.3c-0.1-0.9-0.4-1.6-1.1-2.2
			c-0.6-0.6-1.5-0.8-2.3-0.8c-0.8,0.1-1.6,0.5-2.1,1.1c-0.6,0.7-0.8,1.5-0.8,2.3c0.1,0.8,0.5,1.6,1.1,2.1
			C52.4,32.2,53.1,32.5,53.9,32.5z M52.7,28.3c0.3-0.3,0.6-0.5,1-0.5c0,0,0.1,0,0.1,0c0.4,0,0.7,0.1,1,0.4c0.3,0.3,0.5,0.6,0.5,1
			c0,0.4-0.1,0.8-0.3,1.1c-0.5,0.6-1.5,0.7-2.1,0.2C52.3,29.9,52.2,29,52.7,28.3z"/>
		<linearGradient id="SVGID_2_" gradientUnits="userSpaceOnUse" x1="47.3834" y1="52.8268" x2="47.3834" y2="-2.6669">
			<stop  offset="0" style="stop-color:#2170B8"/>
			<stop  offset="1" style="stop-color:#30B3A8"/>
		</linearGradient>
		<path class="st1" d="M62.4,29.6c-0.4-2.8-1.9-5.3-4.3-6.9c-3.8-2.6-9-2.2-12.3,0.9c-3,2.8-4,7.1-2.5,10.9c0.1,0.1,0,0.3-0.1,0.4
			L32.8,47.2c-0.3,0.5-0.5,1-0.5,1.4l0.2,2.7c0,0.5,0.3,1,0.7,1.4c0.4,0.3,0.8,0.5,1.3,0.5c0.1,0,0.1,0,0.2,0l3.1-0.2
			c0.5,0,0.9-0.2,1.2-0.5l1.2-1c0.5-0.4,0.7-1,0.6-1.6l0-0.6c0-0.2,0.1-0.4,0.3-0.4c1.1-0.1,2-1.1,1.9-2.2c0-0.1,0-0.2,0.1-0.3
			c0.1-0.1,0.1-0.1,0.2-0.1c1.1-0.1,2-1.1,1.9-2.2c0-0.2,0.1-0.4,0.3-0.4l0.7,0c0.5,0,1.1-0.3,1.4-0.7l1.9-2.3
			c0.1-0.1,0.2-0.1,0.4-0.1c3.7,1,7.7-0.2,10.2-3.1C61.9,35.3,62.7,32.4,62.4,29.6z M39.1,49.8c0,0.1,0,0.2-0.1,0.3l-1.2,1
			c-0.1,0.1-0.1,0.1-0.2,0.1l-3.1,0.2c-0.1,0-0.2,0-0.3-0.1c-0.1-0.1-0.1-0.1-0.1-0.2L34,48.5c0-0.1,0-0.2,0.1-0.2l10.5-12.3
			c0.5-0.5,0.6-1.4,0.4-2.1c-1.2-3.2-0.4-6.7,2.1-9.1c1.3-1.2,3.1-2,5-2.2c0.2,0,0.4,0,0.6,0c1.6,0,3.3,0.5,4.6,1.4
			c2,1.4,3.2,3.4,3.5,5.7c0.3,2.3-0.4,4.7-1.9,6.4c-2.1,2.4-5.4,3.4-8.5,2.6c-0.8-0.3-1.6,0-2.2,0.7l-1.8,2.3
			c-0.1,0.1-0.2,0.1-0.3,0.1l-0.6,0c-1.1,0.1-2,1.1-1.9,2.2c0,0.1,0,0.2-0.1,0.3c-0.1,0.1-0.1,0.1-0.2,0.1c-1.1,0.1-2,1.1-1.9,2.2
			c0,0.1,0,0.2-0.1,0.3C41.2,46.9,41.1,47,41,47c-1.1,0.1-2,1.1-1.9,2.2L39.1,49.8z"/>
	</g>
	<g>
		<linearGradient id="SVGID_3_" gradientUnits="userSpaceOnUse" x1="50.7373" y1="29.2799" x2="57.0803" y2="29.2799">
			<stop  offset="0" style="stop-color:#2170B8"/>
			<stop  offset="1" style="stop-color:#30B3A8"/>
		</linearGradient>
		<path class="st2" d="M53.9,32.5c0.1,0,0.2,0,0.2,0c0.8-0.1,1.6-0.4,2.2-1.1c0.6-0.6,0.8-1.5,0.8-2.3c-0.1-0.9-0.4-1.6-1.1-2.2
			c-0.6-0.6-1.5-0.8-2.3-0.8c-0.8,0.1-1.6,0.5-2.1,1.1c-0.6,0.7-0.8,1.5-0.8,2.3c0.1,0.8,0.5,1.6,1.1,2.1
			C52.4,32.2,53.1,32.5,53.9,32.5z M52.7,28.3c0.3-0.3,0.6-0.5,1-0.5c0,0,0.1,0,0.1,0c0.4,0,0.7,0.1,1,0.4c0.3,0.3,0.5,0.6,0.5,1
			c0,0.4-0.1,0.8-0.3,1.1c-0.5,0.6-1.5,0.7-2.1,0.2C52.3,29.9,52.2,29,52.7,28.3z"/>
		<linearGradient id="SVGID_4_" gradientUnits="userSpaceOnUse" x1="32.2905" y1="37.0768" x2="62.4763" y2="37.0768">
			<stop  offset="0" style="stop-color:#2170B8"/>
			<stop  offset="1" style="stop-color:#30B3A8"/>
		</linearGradient>
		<path class="st3" d="M62.4,29.6c-0.4-2.8-1.9-5.3-4.3-6.9c-3.8-2.6-9-2.2-12.3,0.9c-3,2.8-4,7.1-2.5,10.9c0.1,0.1,0,0.3-0.1,0.4
			L32.8,47.2c-0.3,0.5-0.5,1-0.5,1.4l0.2,2.7c0,0.5,0.3,1,0.7,1.4c0.4,0.3,0.8,0.5,1.3,0.5c0.1,0,0.1,0,0.2,0l3.1-0.2
			c0.5,0,0.9-0.2,1.2-0.5l1.2-1c0.5-0.4,0.7-1,0.6-1.6l0-0.6c0-0.2,0.1-0.4,0.3-0.4c1.1-0.1,2-1.1,1.9-2.2c0-0.1,0-0.2,0.1-0.3
			c0.1-0.1,0.1-0.1,0.2-0.1c1.1-0.1,2-1.1,1.9-2.2c0-0.2,0.1-0.4,0.3-0.4l0.7,0c0.5,0,1.1-0.3,1.4-0.7l1.9-2.3
			c0.1-0.1,0.2-0.1,0.4-0.1c3.7,1,7.7-0.2,10.2-3.1C61.9,35.3,62.7,32.4,62.4,29.6z M39.1,49.8c0,0.1,0,0.2-0.1,0.3l-1.2,1
			c-0.1,0.1-0.1,0.1-0.2,0.1l-3.1,0.2c-0.1,0-0.2,0-0.3-0.1c-0.1-0.1-0.1-0.1-0.1-0.2L34,48.5c0-0.1,0-0.2,0.1-0.2l10.5-12.3
			c0.5-0.5,0.6-1.4,0.4-2.1c-1.2-3.2-0.4-6.7,2.1-9.1c1.3-1.2,3.1-2,5-2.2c0.2,0,0.4,0,0.6,0c1.6,0,3.3,0.5,4.6,1.4
			c2,1.4,3.2,3.4,3.5,5.7c0.3,2.3-0.4,4.7-1.9,6.4c-2.1,2.4-5.4,3.4-8.5,2.6c-0.8-0.3-1.6,0-2.2,0.7l-1.8,2.3
			c-0.1,0.1-0.2,0.1-0.3,0.1l-0.6,0c-1.1,0.1-2,1.1-1.9,2.2c0,0.1,0,0.2-0.1,0.3c-0.1,0.1-0.1,0.1-0.2,0.1c-1.1,0.1-2,1.1-1.9,2.2
			c0,0.1,0,0.2-0.1,0.3C41.2,46.9,41.1,47,41,47c-1.1,0.1-2,1.1-1.9,2.2L39.1,49.8z"/>
	</g>
</g>
<g>
	<linearGradient id="SVGID_5_" gradientUnits="userSpaceOnUse" x1="20.2493" y1="51.8913" x2="20.2493" y2="-8.815">
		<stop  offset="0" style="stop-color:#2170B8"/>
		<stop  offset="1" style="stop-color:#30B3A8"/>
	</linearGradient>
	<path class="st4" d="M35.1,25.6c3.1-2.8,4.9-6.8,4.9-11C40,6.6,33.4,0,25.4,0S10.8,6.6,10.8,14.6c0,4.2,1.8,8.1,4.9,10.9
		C6.1,29.8,0,39.2,0,49.6v2.7c0,0.7,0.5,1.1,1.1,1.1s1.1-0.5,1.1-1.1v-2.7c0-9.9,6.2-18.9,15.5-22.4c2.3,1.4,4.9,2.1,7.6,2.1
		c2.6,0,5.2-0.7,7.6-2.1c1.9,0.7,3.8,1.7,5.5,3l0.1,0.1l1.9-1.4l-0.3-0.2C38.6,27.4,36.9,26.4,35.1,25.6z M37.7,14.6
		c0,6.8-5.5,12.3-12.3,12.3c-6.8,0-12.3-5.5-12.3-12.3S18.6,2.3,25.4,2.3C32.2,2.3,37.7,7.8,37.7,14.6z"/>
	<linearGradient id="SVGID_6_" gradientUnits="userSpaceOnUse" x1="49.5537" y1="51.8913" x2="49.5537" y2="-8.815">
		<stop  offset="0" style="stop-color:#2170B8"/>
		<stop  offset="1" style="stop-color:#30B3A8"/>
	</linearGradient>
	<path class="st5" d="M50.6,46.7l0-0.4l-2.1,1.6l0,0.1c0,0.6,0.1,1.1,0.1,1.6v2.7c0,0.7,0.5,1.1,1.1,1.1c0.7,0,1.1-0.5,1.1-1.1v-2.7
		C50.7,48.7,50.7,47.8,50.6,46.7z"/>
</g>
</svg>
