<?xml version="1.0" encoding="utf-8"?>
<!-- Generator: Adobe Illustrator 16.0.0, SVG Export Plug-In . SVG Version: 6.00 Build 0)  -->
<!DOCTYPE svg PUBLIC "-//W3C//DTD SVG 1.1//EN" "http://www.w3.org/Graphics/SVG/1.1/DTD/svg11.dtd">
<svg version="1.1" id="Layer_1" xmlns="http://www.w3.org/2000/svg" xmlns:xlink="http://www.w3.org/1999/xlink" x="0px" y="0px"
	 width="12.46px" height="14.15px" viewBox="0 0 12.46 14.15" enable-background="new 0 0 12.46 14.15" xml:space="preserve">
<g>
	<defs>
		<rect id="SVGID_1_" width="12.46" height="14.15"/>
	</defs>
	<clipPath id="SVGID_2_">
		<use xlink:href="#SVGID_1_"  overflow="visible"/>
	</clipPath>
	<g clip-path="url(#SVGID_2_)">
		<path d="M11.359,13.868H1.08c-0.226,0-0.43-0.092-0.588-0.25c-0.159-0.159-0.228-0.385-0.205-0.61
			c0.159-2.174,1.02-4.189,2.332-5.502c0.34-0.342,0.815-0.544,1.291-0.544h4.642c0.475,0,0.95,0.202,1.291,0.544
			c1.313,1.334,2.15,3.328,2.332,5.502c0.022,0.226-0.068,0.429-0.204,0.61C11.789,13.776,11.584,13.868,11.359,13.868 M3.91,7.415
			c-0.363,0-0.725,0.136-0.974,0.406c-1.245,1.247-2.037,3.148-2.196,5.231c0,0.091,0.022,0.181,0.091,0.248
			c0.068,0.068,0.157,0.113,0.249,0.113h10.279c0.09,0,0.181-0.045,0.248-0.113c0.069-0.067,0.092-0.157,0.092-0.248
			c-0.159-2.062-0.951-3.984-2.197-5.231C9.253,7.574,8.891,7.415,8.528,7.415H3.91z M6.219,6.554c-1.72,0-3.147-1.402-3.147-3.146
			c0-1.743,1.427-3.125,3.147-3.125c1.721,0,3.147,1.403,3.147,3.148C9.366,5.173,7.94,6.554,6.219,6.554 M6.219,0.735
			c-1.471,0-2.694,1.2-2.694,2.695c0,1.471,1.2,2.692,2.694,2.692s2.694-1.199,2.694-2.692C8.914,1.936,7.691,0.735,6.219,0.735"/>
		<path fill="#FFFFFF" d="M11.359,14.15H1.08c-0.294,0-0.575-0.118-0.79-0.333c-0.213-0.213-0.317-0.519-0.286-0.838
			c0.163-2.232,1.043-4.304,2.414-5.675C2.817,6.907,3.36,6.679,3.91,6.679h1.276c-1.388-0.44-2.397-1.74-2.397-3.271
			C2.789,1.529,4.328,0,6.219,0s3.43,1.539,3.43,3.431c0,1.521-1.007,2.81-2.394,3.248h1.296c0.549,0,1.093,0.229,1.491,0.626
			c1.347,1.371,2.227,3.44,2.414,5.679c0.027,0.268-0.06,0.54-0.259,0.805l-0.041,0.044C11.914,14.043,11.646,14.15,11.359,14.15z
			 M3.91,7.697c-0.302,0-0.581,0.115-0.766,0.315c-1.197,1.201-1.967,3.041-2.122,5.062c0.03,0.047,0.051,0.057,0.058,0.057h10.279
			c0.005,0,0.027-0.01,0.048-0.03c-0.147-2.048-0.918-3.891-2.105-5.079C9.099,7.819,8.809,7.697,8.528,7.697H3.91z M6.219,1.018
			c-1.33,0-2.411,1.083-2.411,2.413c0,1.329,1.082,2.41,2.411,2.41c1.329,0,2.412-1.081,2.412-2.41
			C8.631,2.101,7.548,1.018,6.219,1.018z"/>
	</g>
	<g clip-path="url(#SVGID_2_)">
		<path fill="#FFFFFF" d="M11.359,13.697H1.08c-0.161,0-0.323-0.07-0.448-0.195c-0.115-0.114-0.175-0.269-0.175-0.449
			c0.165-2.174,0.995-4.146,2.279-5.431c0.283-0.309,0.714-0.49,1.174-0.49h4.618c0.428,0,0.866,0.184,1.174,0.489
			c1.282,1.282,2.112,3.254,2.278,5.409c0.001,0.203-0.059,0.357-0.172,0.472C11.683,13.627,11.519,13.697,11.359,13.697z
			 M3.91,7.697c-0.302,0-0.581,0.115-0.766,0.315c-1.197,1.201-1.967,3.041-2.122,5.062c0.03,0.047,0.051,0.057,0.058,0.057h10.278
			c0.006,0,0.028-0.01,0.049-0.03c-0.147-2.048-0.918-3.891-2.105-5.079C9.099,7.819,8.809,7.697,8.528,7.697H3.91z M6.219,6.408
			c-1.642,0-2.978-1.337-2.978-2.978c0-1.644,1.336-2.979,2.978-2.979s2.978,1.335,2.978,2.979C9.197,5.071,7.861,6.408,6.219,6.408
			z M6.219,1.018c-1.33,0-2.411,1.083-2.411,2.413c0,1.329,1.082,2.41,2.411,2.41c1.329,0,2.412-1.081,2.412-2.41
			C8.631,2.101,7.548,1.018,6.219,1.018z"/>
	</g>
</g>
</svg>
