<?xml version="1.0" encoding="utf-8"?>
<!-- Generator: Adobe Illustrator 21.1.0, SVG Export Plug-In . SVG Version: 6.00 Build 0)  -->
<svg version="1.1" id="Layer_1" xmlns="http://www.w3.org/2000/svg" xmlns:xlink="http://www.w3.org/1999/xlink" x="0px" y="0px"
	 viewBox="0 0 14.2 15.8" style="enable-background:new 0 0 14.2 15.8;" xml:space="preserve">
<style type="text/css">
	.st0{fill:#FFFFFF;}
</style>
<g>
	<path class="st0" d="M13.6,8C13.2,8,13,8.3,13,8.6c0,3.3-2.7,6-6,6c-2.1,0-4-1.1-5.1-2.8h2.2c0.3,0,0.6-0.3,0.6-0.6
		s-0.3-0.6-0.6-0.6h-4v4c0,0.3,0.3,0.6,0.6,0.6s0.6-0.3,0.6-0.6V13c1.3,1.8,3.4,2.8,5.7,2.8c3.9,0,7.2-3.2,7.2-7.2
		C14.2,8.3,13.9,8,13.6,8z"/>
	<path class="st0" d="M0.6,7.8c0.3,0,0.6-0.3,0.6-0.6c0-3.3,2.7-6,6-6c2.1,0,4,1.1,5.1,2.8H10C9.7,4,9.4,4.3,9.4,4.6S9.7,5.2,10,5.2
		h4v-4c0-0.3-0.3-0.6-0.6-0.6s-0.6,0.3-0.6,0.6v1.6C11.5,1.1,9.4,0,7.2,0C3.2,0,0,3.2,0,7.2C0,7.5,0.3,7.8,0.6,7.8z"/>
</g>
</svg>
