<?xml version="1.0" encoding="utf-8"?>
<!-- Generator: Adobe Illustrator 19.2.1, SVG Export Plug-In . SVG Version: 6.00 Build 0)  -->
<svg version="1.1" id="Layer_1" xmlns="http://www.w3.org/2000/svg" xmlns:xlink="http://www.w3.org/1999/xlink" x="0px" y="0px"
	 viewBox="0 0 54.3 54.3" style="enable-background:new 0 0 54.3 54.3;" xml:space="preserve">
<style type="text/css">
	.st0{fill:url(#SVGID_1_);}
	.st1{fill:url(#SVGID_2_);}
</style>
<g>
	<linearGradient id="SVGID_1_" gradientUnits="userSpaceOnUse" x1="27.1538" y1="70.9645" x2="27.1538" y2="3.8452">
		<stop  offset="0" style="stop-color:#2170B8"/>
		<stop  offset="1" style="stop-color:#30B3A8"/>
	</linearGradient>
	<path class="st0" d="M27.2,32.1c6.5,0,11.7-5.3,11.7-11.7c0-6.5-5.3-11.7-11.7-11.7c-6.5,0-11.7,5.3-11.7,11.7
		C15.4,26.8,20.7,32.1,27.2,32.1z M27.2,10.7c5.3,0,9.6,4.3,9.6,9.6c0,5.3-4.3,9.6-9.6,9.6c-5.3,0-9.6-4.3-9.6-9.6
		C17.6,15,21.9,10.7,27.2,10.7z"/>
	<linearGradient id="SVGID_2_" gradientUnits="userSpaceOnUse" x1="27.1538" y1="70.9645" x2="27.1538" y2="3.8452">
		<stop  offset="0" style="stop-color:#2170B8"/>
		<stop  offset="1" style="stop-color:#30B3A8"/>
	</linearGradient>
	<path class="st1" d="M27.2,0C12.2,0,0,12.2,0,27.2s12.2,27.2,27.2,27.2s27.2-12.2,27.2-27.2S42.1,0,27.2,0z M27.2,2.1
		c13.8,0,25,11.2,25,25c0,6.4-2.4,12.3-6.5,16.8c-4.4-5.8-11.2-9.3-18.6-9.3c-7.3,0-14.2,3.5-18.6,9.3c-4-4.4-6.5-10.3-6.5-16.8
		C2.1,13.4,13.4,2.1,27.2,2.1z M27.2,36.7c6.8,0,13.1,3.3,17,8.8c-4.5,4.2-10.5,6.7-17,6.7c-6.6,0-12.6-2.6-17-6.7
		C14.1,39.9,20.4,36.7,27.2,36.7z"/>
</g>
</svg>
