<?xml version="1.0" encoding="utf-8"?>
<!-- Generator: Adobe Illustrator 19.2.1, SVG Export Plug-In . SVG Version: 6.00 Build 0)  -->
<svg version="1.1" id="Layer_1" xmlns="http://www.w3.org/2000/svg" xmlns:xlink="http://www.w3.org/1999/xlink" x="0px" y="0px"
	 viewBox="0 0 14.9 14.9" style="enable-background:new 0 0 14.9 14.9;" xml:space="preserve">
<style type="text/css">
	.st0{fill:#E1A900;}
</style>
<g>
	<g transform="translate(-1846.000000, -18.000000)">
		<path class="st0" d="M1852.2,26.4c0,0.7,0.6,1.2,1.3,1.2s1.2-0.5,1.3-1.2l0.3-5c0-0.7-0.6-1.2-1.5-1.2s-1.6,0.5-1.5,1.2
			 M1846,25.5c0-4.1,3.3-7.5,7.5-7.5c4.1,0,7.5,3.3,7.5,7.5c0,4.1-3.3,7.5-7.5,7.5C1849.3,32.9,1846,29.6,1846,25.5z M1853.5,30.9
			c0.7,0,1.2-0.5,1.2-1.2c0-0.7-0.5-1.2-1.2-1.2s-1.2,0.5-1.2,1.2C1852.3,30.3,1852.9,30.9,1853.5,30.9z"/>
	</g>
</g>
</svg>
