<?xml version="1.0" encoding="UTF-8"?>
<svg width="193px" height="84px" viewBox="0 0 193 84" version="1.1" xmlns="http://www.w3.org/2000/svg" xmlns:xlink="http://www.w3.org/1999/xlink">
    <!-- Generator: Sketch 53.2 (72643) - https://sketchapp.com -->
    <title>Alert Definition empty</title>
    <desc>Created with Sketch.</desc>
    <defs>
        <path d="M0,6.7455 C0,4.9485 0.624,3.3985 1.871,2.1015 L1.888,2.0785 L1.998,1.9655 C2.222,1.7445 2.46,1.5355 2.713,1.3415 L2.717,1.3305 C3.117,1.0295 3.534,0.7835 3.973,0.5865 C4.82,0.1985 5.751,0.0045 6.754,0.0005 C8.014,0.0005 9.156,0.3025 10.173,0.9055 C10.656,1.1955 11.116,1.5545 11.543,1.9815 L11.554,1.9815 C12.099,2.5305 12.534,3.1275 12.859,3.7715 C12.988,4.0415 13.085,4.2855 13.157,4.5035 C13.34,5.0275 13.458,5.5955 13.51,6.2005 C13.52,6.5585 13.524,6.7395 13.524,6.7455 L13.514,7.0705 C13.452,8.7225 12.851,10.1615 11.709,11.3875 C11.655,11.4395 11.605,11.4885 11.554,11.5415 L11.425,11.6635 L11.369,11.7095 L6.81,16.4215 L2.013,11.5675 L1.988,11.5475 C1.824,11.3815 1.672,11.2185 1.53,11.0525 C1.08,10.5145 0.734,9.9425 0.489,9.3345 C0.174,8.5885 0.013,7.7665 0,6.8745" id="path-1"></path>
        <linearGradient x1="50.0004658%" y1="100%" x2="50.0004658%" y2="-0.00321478594%" id="linearGradient-3">
            <stop stop-color="#4D8CCA" offset="0%"></stop>
            <stop stop-color="#2FAFA5" offset="100%"></stop>
        </linearGradient>
        <linearGradient x1="67.8588867%" y1="113.320313%" x2="50%" y2="23.5351562%" id="linearGradient-4">
            <stop stop-color="#2170B8" offset="0%"></stop>
            <stop stop-color="#30B3A8" offset="100%"></stop>
        </linearGradient>
        <linearGradient x1="67.1446748%" y1="113.320313%" x2="50%" y2="23.5351562%" id="linearGradient-5">
            <stop stop-color="#2170B8" offset="0%"></stop>
            <stop stop-color="#30B3A8" offset="100%"></stop>
        </linearGradient>
        <linearGradient x1="67.1446748%" y1="113.320313%" x2="50%" y2="23.5351562%" id="linearGradient-6">
            <stop stop-color="#2170B8" offset="0%"></stop>
            <stop stop-color="#30B3A8" offset="100%"></stop>
        </linearGradient>
        <linearGradient x1="67.8588867%" y1="88.6476517%" x2="50%" y2="33.8471413%" id="linearGradient-7">
            <stop stop-color="#2170B8" offset="0%"></stop>
            <stop stop-color="#30B3A8" offset="100%"></stop>
        </linearGradient>
        <linearGradient x1="67.8588867%" y1="87.0395409%" x2="50%" y2="34.5192542%" id="linearGradient-8">
            <stop stop-color="#2170B8" offset="0%"></stop>
            <stop stop-color="#30B3A8" offset="100%"></stop>
        </linearGradient>
    </defs>
    <g id="Page-2" stroke="none" stroke-width="1" fill="none" fill-rule="evenodd">
        <g id="Alert-Definition/1" transform="translate(-893.000000, -387.000000)">
            <g id="Alert-Definition-empty" transform="translate(893.000000, 387.000000)">
                <g id="Group-3" transform="translate(179.000000, 19.000000)">
                    <mask id="mask-2" fill="white">
                        <use xlink:href="#path-1"></use>
                    </mask>
                    <g id="Clip-2"></g>
                    <path d="M13.51,6.2005 C13.458,5.5955 13.34,5.0275 13.157,4.5035 C13.085,4.2855 12.988,4.0415 12.859,3.7715 C12.534,3.1275 12.099,2.5305 11.554,1.9815 L11.543,1.9815 C11.116,1.5545 10.656,1.1955 10.173,0.9055 C9.156,0.3025 8.014,0.0005 6.754,0.0005 C5.751,0.0045 4.82,0.1985 3.973,0.5865 C3.534,0.7835 3.117,1.0295 2.717,1.3305 L2.713,1.3415 C2.46,1.5355 2.222,1.7445 1.998,1.9655 L1.888,2.0785 L1.871,2.1015 C0.624,3.3985 0,4.9485 0,6.7455 L0,6.8745 C0.013,7.7665 0.174,8.5885 0.489,9.3345 C0.734,9.9425 1.08,10.5145 1.53,11.0525 C1.672,11.2185 1.824,11.3815 1.988,11.5475 L2.013,11.5675 L6.81,16.4215 L11.369,11.7095 L11.425,11.6635 L11.554,11.5415 C11.605,11.4885 11.655,11.4395 11.709,11.3875 C12.851,10.1615 13.452,8.7225 13.514,7.0705 L13.524,6.7455 C13.524,6.7395 13.52,6.5585 13.51,6.2005" id="Fill-1" fill="url(#linearGradient-3)" mask="url(#mask-2)"></path>
                </g>
                <g id="Group-3" transform="translate(0.000000, 30.000000)" fill="url(#linearGradient-4)">
                    <path d="M4.99981304,10 C2.2428299,10 0,7.7571701 0,5.00018696 C0,2.24320383 2.2428299,0 4.99981304,0 C7.75679617,0 10,2.24320383 10,5.00018696 C10,7.7571701 7.75679617,10 4.99981304,10 Z M4.99981087,1.83333333 C3.25372793,1.83333333 1.83333333,3.25372793 1.83333333,5.00018913 C1.83333333,6.74589381 3.25372793,8.16666667 4.99981087,8.16666667 C6.74589381,8.16666667 8.16666667,6.74589381 8.16666667,5.00018913 C8.16666667,3.25372793 6.74589381,1.83333333 4.99981087,1.83333333 Z" id="Fill-1"></path>
                </g>
                <g id="Group-6" transform="translate(156.000000, 55.000000)" fill="url(#linearGradient-5)">
                    <g id="Group-3">
                        <path d="M10,9.50093333 L10,15.264952 C10,16.2233925 9.3286,17 8.5,17 C7.6714,17 7,16.2233925 7,15.264952 L7,9.50093333 L1.700068,9.50093333 C0.760988,9.50093333 6.79999994e-05,8.75493333 6.79999994e-05,7.83426667 C6.79999994e-05,6.9136 0.760988,6.1676 1.700068,6.1676 L7,6.1676 L7,1.73504797 C7,0.776607471 7.6714,0 8.5,0 C9.3286,0 10,0.776607471 10,1.73504797 L10,6.1676 L14.956668,6.1676 C15.895748,6.1676 16.656668,6.9136 16.656668,7.83426667 C16.656668,8.75493333 15.895748,9.50093333 14.956668,9.50093333 L10,9.50093333 Z" id="Combined-Shape"></path>
                    </g>
                </g>
                <g id="Group-6-Copy" transform="translate(21.000000, 0.000000)" fill="url(#linearGradient-6)">
                    <g id="Group-3">
                        <path d="M7.64705882,7.26541961 L7.64705882,11.6731986 C7.64705882,12.4061237 7.13363529,13 6.5,13 C5.86636471,13 5.35294118,12.4061237 5.35294118,11.6731986 L5.35294118,7.26541961 L1.300052,7.26541961 C0.581932,7.26541961 5.19999994e-05,6.69494902 5.19999994e-05,5.9909098 C5.19999994e-05,5.28687059 0.581932,4.7164 1.300052,4.7164 L5.35294118,4.7164 L5.35294118,1.32680139 C5.35294118,0.593876301 5.86636471,0 6.5,0 C7.13363529,0 7.64705882,0.593876301 7.64705882,1.32680139 L7.64705882,4.7164 L11.437452,4.7164 C12.155572,4.7164 12.737452,5.28687059 12.737452,5.9909098 C12.737452,6.69494902 12.155572,7.26541961 11.437452,7.26541961 L7.64705882,7.26541961 Z" id="Combined-Shape"></path>
                    </g>
                </g>
                <g id="Group-8" transform="translate(47.000000, 9.000000)" fill="url(#linearGradient-8)">
                    <g id="Group-3" transform="translate(0.000000, 0.423000)">
                        <path d="M94,68.1737 L94,27.4317 C94,26.5467 93.28,25.8267 92.396,25.8267 L86.299,25.8267 L86.299,68.1737 C86.299,69.9447 87.514,71.4247 89.15,71.8617 L89.15,43.9337 L91.15,43.9337 L91.15,71.8617 C92.785,71.4247 94,69.9447 94,68.1737 Z M2,68.9027 C2,70.6107 3.389,71.9997 5.097,71.9997 L85.741,71.9997 C84.846,70.9747 84.299,69.6387 84.299,68.1737 L84.299,61.5207 L75.349,61.5207 L75.349,59.5207 L84.299,59.5207 L84.299,23.8267 L84.3,23.8267 L84.3,12.6347 C84.3,11.4237 83.314,10.4397 82.104,10.4397 L35.033,10.4397 L29.577,3.9847 C28.821,3.0907 27.715,2.5767 26.544,2.5767 L4.195,2.5767 C2.985,2.5767 2,3.5617 2,4.7727 L2,59.5207 L69.986,59.5207 L69.986,61.5207 L2,61.5207 L2,68.9027 Z M92.396,23.8267 C94.383,23.8267 96,25.4437 96,27.4317 L96,68.1737 C96,71.0547 93.898,73.4467 91.15,73.9147 C91.32,73.8997 90.221,74.0027 90.043,73.9997 L5.097,73.9997 C2.287,73.9997 0,71.7127 0,68.9027 L0,4.7727 C0,2.4587 1.882,0.5767 4.195,0.5767 L26.544,0.5767 C28.305,0.5767 29.967,1.3487 31.104,2.6937 L35.961,8.4397 L82.104,8.4397 C84.418,8.4397 86.3,10.3207 86.3,12.6347 L86.3,23.8267 L92.396,23.8267 Z M61.0615,38.3085 L61.0615,33.9055 L57.2995,33.1145 L57.1435,32.5145 C56.8285,31.2935 56.3385,30.1115 55.6895,28.9995 L55.3775,28.4665 L57.4765,25.2495 L54.3655,22.1355 L51.1435,24.2395 L50.6095,23.9245 C49.5175,23.2835 48.3355,22.7925 47.0945,22.4665 L46.4965,22.3095 L45.7065,18.5505 L41.3045,18.5505 L40.5165,22.3115 L39.9155,22.4675 C38.6915,22.7855 37.5085,23.2755 36.3985,23.9255 L35.8645,24.2385 L32.6465,22.1355 L29.5365,25.2495 L31.6355,28.4675 L31.3225,29.0015 C30.6785,30.0975 30.1885,31.2805 29.8645,32.5165 L29.7075,33.1155 L25.9475,33.9055 L25.9475,38.3085 L29.7075,39.0995 L29.8645,39.6975 C30.1885,40.9345 30.6795,42.1175 31.3225,43.2115 L31.6355,43.7455 L29.5365,46.9645 L32.6465,50.0785 L35.8645,47.9755 L36.3985,48.2885 C37.5085,48.9395 38.6925,49.4295 39.9155,49.7465 L40.5165,49.9025 L41.3045,53.6635 L45.7065,53.6635 L46.4965,49.9045 L47.0945,49.7465 C48.3365,49.4205 49.5185,48.9305 50.6095,48.2895 L51.1435,47.9755 L54.3655,50.0795 L57.4765,46.9645 L55.3775,43.7525 L55.6885,43.2185 C56.3385,42.1035 56.8285,40.9185 57.1435,39.6995 L57.2995,39.0995 L61.0615,38.3085 Z M57.7205,28.5365 C58.2135,29.4585 58.6115,30.4215 58.9115,31.4095 L63.0615,32.2825 L63.0615,39.9315 L58.9115,40.8045 C58.6125,41.7925 58.2125,42.7565 57.7205,43.6815 L60.0395,47.2315 L54.6315,52.6415 L51.0775,50.3205 C50.1645,50.8085 49.2025,51.2065 48.2025,51.5115 L47.3295,55.6635 L39.6795,55.6635 L38.8105,51.5125 C37.8195,51.2125 36.8565,50.8135 35.9335,50.3205 L32.3815,52.6415 L26.9745,47.2305 L29.2915,43.6795 C28.8015,42.7645 28.4025,41.8015 28.0995,40.8045 L23.9475,39.9315 L23.9475,32.2825 L28.0995,31.4095 C28.4025,30.4125 28.8015,29.4495 29.2915,28.5345 L26.9745,24.9835 L32.3815,19.5725 L35.9335,21.8945 C36.8555,21.4005 37.8195,21.0015 38.8105,20.7015 L39.6795,16.5505 L47.3295,16.5505 L48.2025,20.7025 C49.2015,21.0065 50.1645,21.4055 51.0765,21.8945 L54.6315,19.5725 L60.0395,24.9835 L57.7205,28.5365 Z M44.0005196,45.577 C48.9627042,45.577 53,41.5397042 53,36.5775196 C53,31.6142958 48.9627042,27.577 44.0005196,27.577 C39.038335,27.577 35,31.6142958 35,36.5775196 C35,41.5397042 39.038335,45.577 44.0005196,45.577 Z M44.0005159,25.577 C50.0657099,25.577 55,30.5112901 55,36.5775159 C55,42.6427099 50.0657099,47.577 44.0005159,47.577 C37.935322,47.577 33,42.6427099 33,36.5775159 C33,30.5112901 37.935322,25.577 44.0005159,25.577 Z" id="Combined-Shape"></path>
                    </g>
                </g>
            </g>
        </g>
    </g>
</svg>