<?xml version="1.0" encoding="UTF-8"?>
<svg width="194px" height="77px" viewBox="0 0 194 77" version="1.1" xmlns="http://www.w3.org/2000/svg" xmlns:xlink="http://www.w3.org/1999/xlink">
    <!-- Generator: Sketch 53.2 (72643) - https://sketchapp.com -->
    <title>Group</title>
    <desc>Created with Sketch.</desc>
    <defs>
        <path d="M0,6.7455 C0,4.9485 0.624,3.3985 1.871,2.1015 L1.888,2.0785 L1.998,1.9655 C2.222,1.7445 2.46,1.5355 2.713,1.3415 L2.717,1.3305 C3.117,1.0295 3.534,0.7835 3.973,0.5865 C4.82,0.1985 5.751,0.0045 6.754,0.0005 C8.014,0.0005 9.156,0.3025 10.173,0.9055 C10.656,1.1955 11.116,1.5545 11.543,1.9815 L11.554,1.9815 C12.099,2.5305 12.534,3.1275 12.859,3.7715 C12.988,4.0415 13.085,4.2855 13.157,4.5035 C13.34,5.0275 13.458,5.5955 13.51,6.2005 C13.52,6.5585 13.524,6.7395 13.524,6.7455 L13.514,7.0705 C13.452,8.7225 12.851,10.1615 11.709,11.3875 C11.655,11.4395 11.605,11.4885 11.554,11.5415 L11.425,11.6635 L11.369,11.7095 L6.81,16.4215 L2.013,11.5675 L1.988,11.5475 C1.824,11.3815 1.672,11.2185 1.53,11.0525 C1.08,10.5145 0.734,9.9425 0.489,9.3345 C0.174,8.5885 0.013,7.7665 0,6.8745" id="path-1"></path>
        <linearGradient x1="50.0004658%" y1="100%" x2="50.0004658%" y2="-0.00321478594%" id="linearGradient-3">
            <stop stop-color="#4D8CCA" offset="0%"></stop>
            <stop stop-color="#2FAFA5" offset="100%"></stop>
        </linearGradient>
        <linearGradient x1="67.8572994%" y1="113.320313%" x2="50%" y2="23.5351562%" id="linearGradient-4">
            <stop stop-color="#2170B8" offset="0%"></stop>
            <stop stop-color="#30B3A8" offset="100%"></stop>
        </linearGradient>
        <linearGradient x1="67.8588867%" y1="113.320313%" x2="50%" y2="23.5351562%" id="linearGradient-5">
            <stop stop-color="#2170B8" offset="0%"></stop>
            <stop stop-color="#30B3A8" offset="100%"></stop>
        </linearGradient>
        <linearGradient x1="67.1446748%" y1="113.320313%" x2="50%" y2="23.5351562%" id="linearGradient-6">
            <stop stop-color="#2170B8" offset="0%"></stop>
            <stop stop-color="#30B3A8" offset="100%"></stop>
        </linearGradient>
        <linearGradient x1="67.1446748%" y1="113.320313%" x2="50%" y2="23.5351562%" id="linearGradient-7">
            <stop stop-color="#2170B8" offset="0%"></stop>
            <stop stop-color="#30B3A8" offset="100%"></stop>
        </linearGradient>
        <linearGradient x1="67.8588867%" y1="93.4068832%" x2="50%" y2="31.8580115%" id="linearGradient-8">
            <stop stop-color="#2170B8" offset="0%"></stop>
            <stop stop-color="#30B3A8" offset="100%"></stop>
        </linearGradient>
    </defs>
    <g id="Page-2" stroke="none" stroke-width="1" fill="none" fill-rule="evenodd">
        <g id="Alert_tab/1" transform="translate(-887.000000, -377.000000)">
            <g id="Group" transform="translate(887.000000, 377.000000)">
                <g id="Group-2" transform="translate(0.000000, 3.000000)">
                    <g id="Group-3" transform="translate(0.000000, 4.000000)">
                        <mask id="mask-2" fill="white">
                            <use xlink:href="#path-1"></use>
                        </mask>
                        <g id="Clip-2"></g>
                        <path d="M13.51,6.2005 C13.458,5.5955 13.34,5.0275 13.157,4.5035 C13.085,4.2855 12.988,4.0415 12.859,3.7715 C12.534,3.1275 12.099,2.5305 11.554,1.9815 L11.543,1.9815 C11.116,1.5545 10.656,1.1955 10.173,0.9055 C9.156,0.3025 8.014,0.0005 6.754,0.0005 C5.751,0.0045 4.82,0.1985 3.973,0.5865 C3.534,0.7835 3.117,1.0295 2.717,1.3305 L2.713,1.3415 C2.46,1.5355 2.222,1.7445 1.998,1.9655 L1.888,2.0785 L1.871,2.1015 C0.624,3.3985 0,4.9485 0,6.7455 L0,6.8745 C0.013,7.7665 0.174,8.5885 0.489,9.3345 C0.734,9.9425 1.08,10.5145 1.53,11.0525 C1.672,11.2185 1.824,11.3815 1.988,11.5475 L2.013,11.5675 L6.81,16.4215 L11.369,11.7095 L11.425,11.6635 L11.554,11.5415 C11.605,11.4885 11.655,11.4395 11.709,11.3875 C12.851,10.1615 13.452,8.7225 13.514,7.0705 L13.524,6.7455 C13.524,6.7395 13.52,6.5585 13.51,6.2005" id="Fill-1" fill="url(#linearGradient-3)" mask="url(#mask-2)"></path>
                    </g>
                    <path d="M76.0894,16.0899 L76.0894,12 L76.0894,16.0899 L72,16.0899 L76.0894,16.0899 Z M76.0894,16.0899 L76.0894,20.179 L76.0894,16.0899 L80.178,16.0899 L76.0894,16.0899 Z" id="Combined-Shape" fill="url(#linearGradient-4)"></path>
                    <g id="Group-3" transform="translate(167.000000, 35.000000)" fill="url(#linearGradient-5)">
                        <path d="M4.99981304,10 C2.2428299,10 0,7.7571701 0,5.00018696 C0,2.24320383 2.2428299,0 4.99981304,0 C7.75679617,0 10,2.24320383 10,5.00018696 C10,7.7571701 7.75679617,10 4.99981304,10 Z M4.99981087,1.83333333 C3.25372793,1.83333333 1.83333333,3.25372793 1.83333333,5.00018913 C1.83333333,6.74589381 3.25372793,8.16666667 4.99981087,8.16666667 C6.74589381,8.16666667 8.16666667,6.74589381 8.16666667,5.00018913 C8.16666667,3.25372793 6.74589381,1.83333333 4.99981087,1.83333333 Z" id="Fill-1"></path>
                    </g>
                    <g id="Group-6" transform="translate(177.000000, 0.000000)" fill="url(#linearGradient-6)">
                        <g id="Group-3">
                            <path d="M10,9.50093333 L10,15.264952 C10,16.2233925 9.3286,17 8.5,17 C7.6714,17 7,16.2233925 7,15.264952 L7,9.50093333 L1.700068,9.50093333 C0.760988,9.50093333 6.79999994e-05,8.75493333 6.79999994e-05,7.83426667 C6.79999994e-05,6.9136 0.760988,6.1676 1.700068,6.1676 L7,6.1676 L7,1.73504797 C7,0.776607471 7.6714,0 8.5,0 C9.3286,0 10,0.776607471 10,1.73504797 L10,6.1676 L14.956668,6.1676 C15.895748,6.1676 16.656668,6.9136 16.656668,7.83426667 C16.656668,8.75493333 15.895748,9.50093333 14.956668,9.50093333 L10,9.50093333 Z" id="Combined-Shape"></path>
                        </g>
                    </g>
                    <g id="Group-6-Copy" transform="translate(31.000000, 29.000000)" fill="url(#linearGradient-7)">
                        <g id="Group-3">
                            <path d="M7.64705882,7.26541961 L7.64705882,11.6731986 C7.64705882,12.4061237 7.13363529,13 6.5,13 C5.86636471,13 5.35294118,12.4061237 5.35294118,11.6731986 L5.35294118,7.26541961 L1.300052,7.26541961 C0.581932,7.26541961 5.19999994e-05,6.69494902 5.19999994e-05,5.9909098 C5.19999994e-05,5.28687059 0.581932,4.7164 1.300052,4.7164 L5.35294118,4.7164 L5.35294118,1.32680139 C5.35294118,0.593876301 5.86636471,0 6.5,0 C7.13363529,0 7.64705882,0.593876301 7.64705882,1.32680139 L7.64705882,4.7164 L11.437452,4.7164 C12.155572,4.7164 12.737452,5.28687059 12.737452,5.9909098 C12.737452,6.69494902 12.155572,7.26541961 11.437452,7.26541961 L7.64705882,7.26541961 Z" id="Combined-Shape"></path>
                        </g>
                    </g>
                </g>
                <g id="Group-10" transform="translate(55.000000, 0.000000)" fill="url(#linearGradient-8)">
                    <path d="M56.2020517,75.4338983 L56.2236744,75.4338983 L56.2236744,63.1661017 L56.2020517,63.1661017 L56.2020517,75.4338983 Z M32.2617625,63.6196721 L32.2617625,74.9803279 L55.673933,74.9803279 L55.673933,63.6196721 L32.2617625,63.6196721 Z M31.4803958,77 L30.8523539,77 C30.269839,77 29.7961165,76.5470885 29.7961165,75.9901639 L29.7961165,62.6098361 C29.7961165,62.0529115 30.269839,61.6 30.8523539,61.6 L31.4803958,61.6 L57.0050411,61.6 C57.4366159,61.6 57.7864078,61.9505458 57.7864078,62.3830508 L57.7864078,76.2169492 C57.7864078,76.6494542 57.4366159,77 57.0050411,77 L31.4803958,77 Z M30.7459212,76.4847845 C30.7155792,76.4012267 30.6990291,76.3110269 30.6990291,76.2169492 L30.6990291,62.3830508 C30.6990291,62.2889731 30.7155792,62.1987733 30.7459212,62.1152155 C30.5055231,62.1624109 30.3242352,62.3662212 30.3242352,62.6098361 L30.3242352,75.9901639 C30.3242352,76.2337788 30.5055231,76.4375891 30.7459212,76.4847845 Z M1.58435611,75.4338983 L1.58435611,63.1661017 L1.56273338,63.1661017 L1.56273338,75.4338983 L1.58435611,75.4338983 Z M25.5246453,74.9803279 L25.5246453,63.6196721 L2.11247481,63.6196721 L2.11247481,74.9803279 L25.5246453,74.9803279 Z M26.3060119,61.6 L26.9340539,61.6 C27.5165688,61.6 27.9902913,62.0529115 27.9902913,62.6098361 L27.9902913,75.9901639 C27.9902913,76.5470885 27.5165688,77 26.9340539,77 L26.3060119,77 L0.781366692,77 C0.349791822,77 0,76.6494542 0,76.2169492 L0,62.3830508 C0,61.9505458 0.349791822,61.6 0.781366692,61.6 L26.3060119,61.6 Z M27.0404866,62.1152155 C27.0708285,62.1987733 27.0873786,62.2889731 27.0873786,62.3830508 L27.0873786,76.2169492 C27.0873786,76.3110269 27.0708285,76.4012267 27.0404866,76.4847845 C27.2808847,76.4375891 27.4621726,76.2337788 27.4621726,75.9901639 L27.4621726,62.6098361 C27.4621726,62.3662212 27.2808847,62.1624109 27.0404866,62.1152155 Z M2.47722181,1.58219178 L2.47722181,56.9589041 L60.9890466,56.9589041 C61.4238183,56.9589041 61.7762011,57.3130514 61.7762011,57.75 L61.7762011,75.4178082 L91.4256908,75.4178082 L91.4256908,1.58219178 L2.47722181,1.58219178 Z M1.69006721,58.5410959 C1.25529549,58.5410959 0.902912621,58.1869486 0.902912621,57.75 L0.902912621,0.79109589 C0.902912621,0.35414726 1.25529549,0 1.69006721,0 L92.2128454,0 C92.6476171,0 93,0.35414726 93,0.79109589 L93,76.2089041 C93,76.6458527 92.6476171,77 92.2128454,77 L60.9890466,77 C60.5542748,77 60.201892,76.6458527 60.201892,76.2089041 L60.201892,58.5410959 L1.69006721,58.5410959 Z" id="Combined-Shape"></path>
                </g>
            </g>
        </g>
    </g>
</svg>