<?xml version="1.0" encoding="utf-8"?>
<!-- Generator: Adobe Illustrator 22.1.0, SVG Export Plug-In . SVG Version: 6.00 Build 0)  -->
<svg version="1.1" id="Layer_1" xmlns="http://www.w3.org/2000/svg" xmlns:xlink="http://www.w3.org/1999/xlink" x="0px" y="0px"
	 viewBox="0 0 66 76.6" style="enable-background:new 0 0 66 76.6;" xml:space="preserve">
<style type="text/css">
	.st0{opacity:0.3;}
	.st1{fill:#FFFFFF;}
</style>
<title>Combined Shape</title>
<desc>Created with Sketch.</desc>
<g id="Page-2" class="st0">
	<g id="_x2D_-Additional-Settings_x2F_Auto-text-templates-1" transform="translate(-397.000000, -373.000000)">
		<path id="Combined-Shape" class="st1" d="M454.6,398.6h2v23.1c0,4.3-3.5,7.9-7.9,7.9h-43.9c-4.3,0-7.9-3.5-7.9-7.9v-37.9
			c0-4.3,3.5-7.9,7.9-7.9H437v2h-32.1c-3.3,0-5.9,2.6-5.9,5.9v37.9c0,3.3,2.6,5.9,5.9,5.9h43.9c3.3,0,5.9-2.6,5.9-5.9V398.6z
			 M444.1,398.6h2v1c0,0.5-0.4,1-1,1h-37c-0.5,0-1-0.4-1-1v-13c0-0.5,0.4-1,1-1h29v2h-28v11L444.1,398.6L444.1,398.6z M450,438.6
			c0,0.5-0.5,1-1,1h-44c-0.5,0-0.9-0.5-1-1c0-0.6,0.4-1,1-1h44C449.6,437.6,450,438.1,450,438.6z M415,447.6h24c0.5,0,1,0.4,1,1
			c0,0.5-0.5,1-1,1h-24c-0.5,0-0.9-0.5-1-1C414,448.1,414.4,447.6,415,447.6z M445,408.6c0.1,0,0.1,0,0.2,0c0.5,0.1,0.8,0.5,0.8,1
			c0,0.6-0.4,1-1,1h-37c-0.5,0-1-0.4-1-1c0-0.1,0-0.1,0-0.2c0.1-0.5,0.5-0.8,1-0.8H445z M445,418.6c0.1,0,0.1,0,0.2,0
			c0.5,0.1,0.8,0.5,0.8,1c0,0.6-0.4,1-1,1h-37c-0.5,0-1-0.4-1-1c0-0.1,0-0.1,0-0.2c0.1-0.5,0.5-0.8,1-0.8H445z"/>
	</g>
</g>
<g id="Page-2_1_" class="st0">
	<g id="_x2D_-Additional-Settings_x2F_Auto-text-templates-1_1_" transform="translate(-447.000000, -371.000000)">
		<polygon id="Fill-1" class="st1" points="497,371 497,375.6 499.3,375.6 499.3,373.3 503.3,373.3 503.3,384.7 501,384.7 501,387 
			509,387 509,384.7 506.7,384.7 506.7,373.3 510.1,373.3 509.6,373.3 510.7,373.3 510.7,375.6 513,375.6 513,371 		"/>
	</g>
</g>
</svg>
