<?xml version="1.0" encoding="UTF-8"?>
<svg width="202px" height="93px" viewBox="0 0 202 93" version="1.1" xmlns="http://www.w3.org/2000/svg" xmlns:xlink="http://www.w3.org/1999/xlink">
    <!-- Generator: Sketch 53.2 (72643) - https://sketchapp.com -->
    <title>Data Containers empty</title>
    <desc>Created with Sketch.</desc>
    <defs>
        <path d="M0,6.7455 C0,4.9485 0.624,3.3985 1.871,2.1015 L1.888,2.0785 L1.998,1.9655 C2.222,1.7445 2.46,1.5355 2.713,1.3415 L2.717,1.3305 C3.117,1.0295 3.534,0.7835 3.973,0.5865 C4.82,0.1985 5.751,0.0045 6.754,0.0005 C8.014,0.0005 9.156,0.3025 10.173,0.9055 C10.656,1.1955 11.116,1.5545 11.543,1.9815 L11.554,1.9815 C12.099,2.5305 12.534,3.1275 12.859,3.7715 C12.988,4.0415 13.085,4.2855 13.157,4.5035 C13.34,5.0275 13.458,5.5955 13.51,6.2005 C13.52,6.5585 13.524,6.7395 13.524,6.7455 L13.514,7.0705 C13.452,8.7225 12.851,10.1615 11.709,11.3875 C11.655,11.4395 11.605,11.4885 11.554,11.5415 L11.425,11.6635 L11.369,11.7095 L6.81,16.4215 L2.013,11.5675 L1.988,11.5475 C1.824,11.3815 1.672,11.2185 1.53,11.0525 C1.08,10.5145 0.734,9.9425 0.489,9.3345 C0.174,8.5885 0.013,7.7665 0,6.8745" id="path-1"></path>
        <linearGradient x1="50.0004658%" y1="100%" x2="50.0004658%" y2="-0.00321478594%" id="linearGradient-3">
            <stop stop-color="#4D8CCA" offset="0%"></stop>
            <stop stop-color="#2FAFA5" offset="100%"></stop>
        </linearGradient>
        <linearGradient x1="67.8588867%" y1="113.320313%" x2="50%" y2="23.5351562%" id="linearGradient-4">
            <stop stop-color="#2170B8" offset="0%"></stop>
            <stop stop-color="#30B3A8" offset="100%"></stop>
        </linearGradient>
        <linearGradient x1="67.1446748%" y1="113.320313%" x2="50%" y2="23.5351562%" id="linearGradient-5">
            <stop stop-color="#2170B8" offset="0%"></stop>
            <stop stop-color="#30B3A8" offset="100%"></stop>
        </linearGradient>
        <linearGradient x1="67.1446748%" y1="113.320313%" x2="50%" y2="23.5351562%" id="linearGradient-6">
            <stop stop-color="#2170B8" offset="0%"></stop>
            <stop stop-color="#30B3A8" offset="100%"></stop>
        </linearGradient>
    </defs>
    <g id="Page-2" stroke="none" stroke-width="1" fill="none" fill-rule="evenodd">
        <g id="Data-Container-8-Copy-3" transform="translate(-891.000000, -383.000000)">
            <g id="Data-Containers-empty" transform="translate(891.000000, 383.000000)">
                <g id="Group-3" transform="translate(188.000000, 8.000000)">
                    <mask id="mask-2" fill="white">
                        <use xlink:href="#path-1"></use>
                    </mask>
                    <g id="Clip-2"></g>
                    <path d="M13.51,6.2005 C13.458,5.5955 13.34,5.0275 13.157,4.5035 C13.085,4.2855 12.988,4.0415 12.859,3.7715 C12.534,3.1275 12.099,2.5305 11.554,1.9815 L11.543,1.9815 C11.116,1.5545 10.656,1.1955 10.173,0.9055 C9.156,0.3025 8.014,0.0005 6.754,0.0005 C5.751,0.0045 4.82,0.1985 3.973,0.5865 C3.534,0.7835 3.117,1.0295 2.717,1.3305 L2.713,1.3415 C2.46,1.5355 2.222,1.7445 1.998,1.9655 L1.888,2.0785 L1.871,2.1015 C0.624,3.3985 0,4.9485 0,6.7455 L0,6.8745 C0.013,7.7665 0.174,8.5885 0.489,9.3345 C0.734,9.9425 1.08,10.5145 1.53,11.0525 C1.672,11.2185 1.824,11.3815 1.988,11.5475 L2.013,11.5675 L6.81,16.4215 L11.369,11.7095 L11.425,11.6635 L11.554,11.5415 C11.605,11.4885 11.655,11.4395 11.709,11.3875 C12.851,10.1615 13.452,8.7225 13.514,7.0705 L13.524,6.7455 C13.524,6.7395 13.52,6.5585 13.51,6.2005" id="Fill-1" fill="url(#linearGradient-3)" mask="url(#mask-2)"></path>
                </g>
                <g id="Group-3" transform="translate(0.000000, 51.000000)" fill="url(#linearGradient-4)">
                    <path d="M4.99981304,10 C2.2428299,10 0,7.7571701 0,5.00018696 C0,2.24320383 2.2428299,0 4.99981304,0 C7.75679617,0 10,2.24320383 10,5.00018696 C10,7.7571701 7.75679617,10 4.99981304,10 Z M4.99981087,1.83333333 C3.25372793,1.83333333 1.83333333,3.25372793 1.83333333,5.00018913 C1.83333333,6.74589381 3.25372793,8.16666667 4.99981087,8.16666667 C6.74589381,8.16666667 8.16666667,6.74589381 8.16666667,5.00018913 C8.16666667,3.25372793 6.74589381,1.83333333 4.99981087,1.83333333 Z" id="Fill-1"></path>
                </g>
                <g id="Group-6" transform="translate(170.000000, 34.000000)" fill="url(#linearGradient-5)">
                    <g id="Group-3">
                        <path d="M10,9.50093333 L10,15.264952 C10,16.2233925 9.3286,17 8.5,17 C7.6714,17 7,16.2233925 7,15.264952 L7,9.50093333 L1.700068,9.50093333 C0.760988,9.50093333 6.79999994e-05,8.75493333 6.79999994e-05,7.83426667 C6.79999994e-05,6.9136 0.760988,6.1676 1.700068,6.1676 L7,6.1676 L7,1.73504797 C7,0.776607471 7.6714,0 8.5,0 C9.3286,0 10,0.776607471 10,1.73504797 L10,6.1676 L14.956668,6.1676 C15.895748,6.1676 16.656668,6.9136 16.656668,7.83426667 C16.656668,8.75493333 15.895748,9.50093333 14.956668,9.50093333 L10,9.50093333 Z" id="Combined-Shape"></path>
                    </g>
                </g>
                <g id="Group-6-Copy" transform="translate(28.000000, 32.000000)" fill="url(#linearGradient-6)">
                    <g id="Group-3">
                        <path d="M7.64705882,7.26541961 L7.64705882,11.6731986 C7.64705882,12.4061237 7.13363529,13 6.5,13 C5.86636471,13 5.35294118,12.4061237 5.35294118,11.6731986 L5.35294118,7.26541961 L1.300052,7.26541961 C0.581932,7.26541961 5.19999994e-05,6.69494902 5.19999994e-05,5.9909098 C5.19999994e-05,5.28687059 0.581932,4.7164 1.300052,4.7164 L5.35294118,4.7164 L5.35294118,1.32680139 C5.35294118,0.593876301 5.86636471,0 6.5,0 C7.13363529,0 7.64705882,0.593876301 7.64705882,1.32680139 L7.64705882,4.7164 L11.437452,4.7164 C12.155572,4.7164 12.737452,5.28687059 12.737452,5.9909098 C12.737452,6.69494902 12.155572,7.26541961 11.437452,7.26541961 L7.64705882,7.26541961 Z" id="Combined-Shape"></path>
                    </g>
                </g>
                <g id="Group-31" transform="translate(51.000000, 0.000000)" fill="url(#linearGradient-4)">
                    <path d="M23.1848739,38.6283677 L70.6694678,38.6283677 L70.6694678,27.2220165 L23.1848739,27.2220165 L23.1848739,38.6283677 Z M71.6890756,25 C72.4173669,25 72.8543417,25.5940191 73,26.1865568 L73,39.8134432 C73,40.5541154 72.4173669,41 71.8347339,41 L22.1652661,41 C21.4369748,41 21,40.4074623 21,39.8134432 L21,26.1865568 C21,25.4458846 21.5826331,25 22.1652661,25 L71.6890756,25 Z M54,34 L54,32 L56,32 L56,34 L54,34 Z M59,34 L59,32 L61,32 L61,34 L59,34 Z M50,34 L50,32 L52,32 L52,34 L50,34 Z M64,34 L64,32 L66,32 L66,34 L64,34 Z M29,34 L29,32 L43,32 L43,34 L29,34 Z M23.1848739,58.4771005 L70.6694678,58.4771005 L70.6694678,47.1961271 L23.1848739,47.1961271 L23.1848739,58.4771005 Z M71.6890756,45 C72.4173669,45 72.8543417,45.4380534 73,46.024078 L73,59.5041085 C73,60.2366393 72.4173669,60.6746927 71.8347339,60.6746927 L65.7170868,60.6746927 L65.7170868,65.8024078 L68.6302521,65.8024078 L68.6302521,68 L60.6190476,68 L60.6190476,65.8024078 L63.5322129,65.8024078 L63.5322129,60.6746927 L30.4677871,60.6746927 L30.4677871,65.8024078 L33.3809524,65.8024078 L33.3809524,68 L25.3697479,68 L25.3697479,65.8024078 L28.2829132,65.8024078 L28.2829132,60.6746927 L22.1652661,60.6746927 C21.4369748,60.6746927 21,60.0886681 21,59.5041085 L21,46.024078 C21,45.4380534 21.5826331,45 22.1652661,45 L71.6890756,45 Z M59,54 L59,52 L61,52 L61,54 L59,54 Z M50,54 L50,52 L52,52 L52,54 L50,54 Z M54,54 L54,52 L56,52 L56,54 L54,54 Z M64,54 L64,52 L66,52 L66,54 L64,54 Z M29,54 L29,52 L43,52 L43,54 L29,54 Z M37,68 L37,66 L57,66 L57,68 L37,68 Z M16.8873239,14.3380282 L16.8873239,8 L19,8 L19,18 L9,18 L9,15.8873239 L15.3380282,15.8873239 L9.42253521,9.97183099 L10.8309859,8.42253521 L16.8873239,14.3380282 Z M1.5,0 L3,1.5 L1.5,3 L0,1.5 L1.5,0 Z M9,7.5 L7.5,9 L6,7.5 L7.5,6 L9,7.5 Z M6,4.5 L4.5,6 L3,4.5 L4.5,3 L6,4.5 Z M85,15.8873239 L85,18 L75,18 L75,8 L77.1123785,8 L77.1123785,14.3380282 L83.1678637,8.42253521 L84.576116,9.97183099 L78.6628644,15.8873239 L85,15.8873239 Z M91.5,0 L93,1.5 L91.5,3 L90,1.5 L91.5,0 Z M85.5,6 L87,7.50070721 L85.5,9 L84,7.50070721 L85.5,6 Z M88.5,3 L90,4.5 L88.4985862,6 L87,4.49858624 L88.5,3 Z M9,77.1123785 L9,75 L19,75 L19,85 L16.8873239,85 L16.8873239,78.6628644 L10.8309859,84.5775243 L9.42253521,83.0270384 L15.3380282,77.1123785 L9,77.1123785 Z M7.5,87 L6,85.4985862 L7.5,84 L9,85.4985862 L7.5,87 Z M1.5,93 L0,91.4992928 L1.5,90 L3,91.4992928 L1.5,93 Z M4.5,90 L3,88.4992928 L4.5,87 L6,88.4992928 L4.5,90 Z M84.576116,83.028169 L83.1678637,84.5788732 L77.1123785,78.6619718 L77.1123785,85 L75,85 L75,75 L85,75 L85,77.1126761 L78.6628644,77.1126761 L84.576116,83.028169 Z M91.5,93 L90,91.4992928 L91.5,90 L93,91.4992928 L91.5,93 Z M84,86.5 L85.5007072,85 L87,86.5 L85.5007072,88 L84,86.5 Z M87,88.5014138 L88.4992928,87 L90,88.4985862 L88.5007072,90 L87,88.5014138 Z" id="Combined-Shape"></path>
                </g>
            </g>
        </g>
    </g>
</svg>