<?xml version="1.0" encoding="UTF-8"?>
<svg width="58px" height="84px" viewBox="0 0 58 84" version="1.1" xmlns="http://www.w3.org/2000/svg" xmlns:xlink="http://www.w3.org/1999/xlink">
    <!-- Generator: Sketch 53.2 (72643) - https://sketchapp.com -->
    <title>Group 18</title>
    <desc>Created with Sketch.</desc>
    <defs>
        <polygon id="path-1" points="0 9.13043478e-05 57.8171067 9.13043478e-05 57.8171067 84 0 84"></polygon>
    </defs>
    <g id="Page-2" stroke="none" stroke-width="1" fill="none" fill-rule="evenodd" opacity="0.3">
        <g id="--Additional-Settings/1-Copy-2" transform="translate(-398.000000, -363.000000)">
            <g id="Group-18" transform="translate(398.000000, 363.000000)">
                <g id="Group-3">
                    <mask id="mask-2" fill="white">
                        <use xlink:href="#path-1"></use>
                    </mask>
                    <g id="Clip-2"></g>
                    <path d="M1.80444444,10.4635696 L5.52430667,10.4635696 L5.52430667,16.6284391 C5.52430667,20.0779174 8.19668889,22.9658739 11.4807778,23.0663087 C11.5448356,23.0681348 11.6088933,23.0690478 11.6711467,23.0690478 C13.2780044,23.0690478 14.7901289,22.4500043 15.94768,21.3132652 C17.1503422,20.131787 17.8125733,18.5467435 17.8125733,16.8503087 L17.8125733,10.4635696 L50.6236889,10.4635696 L50.6236889,77.6170043 C50.6236889,77.6215696 50.6209822,77.6252217 50.6209822,77.629787 C50.6209822,77.6361783 50.6236889,77.6389174 50.6236889,77.6443957 L50.6236889,82.1740043 L1.80444444,82.1740043 L1.80444444,10.4635696 Z M56.0126622,5.00813478 L56.0126622,76.7167435 L52.4281333,76.7167435 L52.4281333,9.55052609 C52.4281333,9.04652609 52.02484,8.63748261 51.5259111,8.63748261 L17.8125733,8.63748261 L17.8125733,5.00813478 L56.0126622,5.00813478 Z M0.902222222,84.0000913 L51.5259111,84.0000913 C52.02484,84.0000913 52.4281333,83.5910478 52.4281333,83.0870478 L52.4281333,78.5428304 L56.9148844,78.5428304 C57.4138133,78.5428304 57.8171067,78.1347 57.8171067,77.629787 L57.8171067,4.0950913 C57.8171067,3.5910913 57.4138133,3.18204783 56.9148844,3.18204783 L17.8125733,3.18204783 L17.8125733,0.913134783 C17.8125733,0.409134783 17.40928,9.13043478e-05 16.9103511,9.13043478e-05 C16.4114222,9.13043478e-05 16.0081289,0.409134783 16.0081289,0.913134783 L16.0081289,4.0823087 C16.0081289,4.08687391 16.0054222,4.09052609 16.0054222,4.09600435 C16.0054222,4.10148261 16.0081289,4.10422174 16.0081289,4.1097 L16.0081289,9.53865652 C16.0081289,9.54322174 16.0054222,9.54687391 16.0054222,9.55235217 C16.0054222,9.55783043 16.0081289,9.56056957 16.0081289,9.56604783 L16.0081289,16.8539609 C16.0081289,18.0518739 15.5398756,19.1721783 14.6899822,20.0067 C13.8409911,20.8412217 12.7168222,21.286787 11.5349111,21.2438739 C9.2162,21.1726565 7.32875111,19.1037 7.32875111,16.6311783 L7.32875111,3.6413087 C7.32875111,2.64061304 8.13353333,1.82617826 9.12236889,1.82617826 L11.5177689,1.82617826 C12.5075067,1.82617826 13.3113867,2.64061304 13.3113867,3.6413087 L13.3113867,4.0950913 L13.3113867,16.7498739 C13.3113867,17.3543087 13.0181644,17.9048739 12.57788,18.2235261 C12.5408889,18.2490913 12.5038978,18.2755696 12.4651022,18.2974826 C12.4281111,18.3193957 12.3902178,18.3385696 12.3523244,18.3577435 C12.2702222,18.3960913 12.1863156,18.4289609 12.0997022,18.4527 C12.0834622,18.4572652 12.0681244,18.4636565 12.0509822,18.4673087 C11.9779022,18.4846565 11.9012133,18.4901348 11.8254267,18.4974391 C11.7749022,18.5020043 11.7243778,18.5102217 11.6738533,18.5111348 C11.6061867,18.5111348 11.53852,18.5010913 11.4699511,18.493787 C11.4104044,18.4864826 11.3508578,18.4837435 11.2931156,18.4700478 C11.2669511,18.4645696 11.2425911,18.4545261 11.2173289,18.4472217 C11.1388356,18.4243957 11.0621467,18.3951783 10.9872622,18.3604826 C10.9466622,18.3403957 10.9060622,18.3203087 10.8672667,18.2965696 C10.8293733,18.2746565 10.7932844,18.2481783 10.7562933,18.2235261 C10.3160089,17.9048739 10.0227867,17.3552217 10.0227867,16.750787 L10.0227867,13.7450478 C10.0227867,13.2410478 9.61949333,12.8320043 9.12056444,12.8320043 C8.62163556,12.8320043 8.21834222,13.2410478 8.21834222,13.7450478 L8.21834222,16.750787 C8.21834222,16.7745261 8.22375556,16.7973522 8.22465778,16.8220043 C8.22465778,16.8320478 8.21834222,16.8411783 8.21834222,16.8521348 C8.21834222,16.9644391 8.24360444,17.0712652 8.25443111,17.1817435 C8.26345333,17.2620913 8.26616,17.3433522 8.28059556,17.4218739 C8.31127111,17.6099609 8.36089333,17.7898304 8.42044,17.968787 C8.42404889,17.9797435 8.42765778,17.9907 8.43126667,18.0007435 C8.60629778,18.5056565 8.89230222,18.9621783 9.27935556,19.3420043 C9.32717333,19.3894826 9.36957778,19.4433522 9.42010222,19.4880913 C9.43995111,19.5054391 9.45438667,19.5282652 9.47513778,19.545613 C9.55543556,19.6122652 9.64385333,19.6633957 9.72866222,19.7218304 C9.79452444,19.7683957 9.85768,19.8177 9.92624889,19.8597 C9.99662222,19.9017 10.0706044,19.9336565 10.1427822,19.9701783 C10.2528533,20.0258739 10.3629244,20.0824826 10.4793111,20.1263087 C10.53976,20.1482217 10.6020133,20.1619174 10.6642667,20.1810913 C10.7716311,20.2139609 10.8753867,20.2541348 10.9872622,20.2760478 C11.0062089,20.2797 11.0251556,20.2778739 11.0441022,20.2815261 C11.2227422,20.3143957 11.4040889,20.3299174 11.5881422,20.3344826 C11.6125022,20.3353957 11.6377644,20.341787 11.6621244,20.341787 L11.6666356,20.341787 L11.6711467,20.341787 C11.6973111,20.341787 11.7234756,20.3344826 11.74964,20.3344826 C11.9300844,20.3299174 12.1096267,20.3153087 12.28556,20.2824391 C12.3054089,20.278787 12.3252578,20.280613 12.3451067,20.2769609 C12.4614933,20.2541348 12.56976,20.2130478 12.6807333,20.1783522 C12.7375733,20.1610043 12.7953156,20.1491348 12.8512533,20.1281348 C12.9703467,20.0843087 13.08132,20.026787 13.1931956,19.9701783 C13.2644711,19.9345696 13.3366489,19.902613 13.40612,19.8615261 C13.4755911,19.8195261 13.5396489,19.7693087 13.6055111,19.7227435 C13.6894178,19.6643087 13.7778356,19.6131783 13.8572311,19.5474391 C13.8779822,19.5300913 13.8915156,19.5081783 13.9113644,19.4908304 C13.9627911,19.4451783 14.0060978,19.3903957 14.0548178,19.3410913 C14.4409689,18.9612652 14.7251689,18.5065696 14.9002,18.0025696 C14.9038089,17.991613 14.9074178,17.9806565 14.9110267,17.9697 C14.9714756,17.7907435 15.0201956,17.6108739 15.0508711,17.422787 C15.0653067,17.3442652 15.0680133,17.2630043 15.0770356,17.1826565 C15.0878622,17.0721783 15.1131244,16.9653522 15.1131244,16.8530478 L15.1131244,16.752613 L15.1131244,4.0950913 L15.1131244,3.6413087 C15.1167333,1.63352609 13.5026578,9.13043478e-05 11.5186711,9.13043478e-05 L9.12327111,9.13043478e-05 C7.13928444,9.13043478e-05 5.52520889,1.63352609 5.52520889,3.6413087 L5.52520889,8.63748261 L0.902222222,8.63748261 C0.403293333,8.63748261 0,9.04652609 0,9.55052609 L0,83.0870478 C0,83.5910478 0.403293333,84.0000913 0.902222222,84.0000913 L0.902222222,84.0000913 Z" id="Fill-1" fill="#FFFFFF" mask="url(#mask-2)"></path>
                </g>
                <path d="M5.91396967,31 L43.0860303,31 C43.5914556,31 44,30.552 44,30 C44,29.448 43.5914556,29 43.0860303,29 L5.91396967,29 C5.40854444,29 5,29.448 5,30 C5,30.552 5.40854444,31 5.91396967,31" id="Fill-4" fill="#FFFFFF"></path>
                <path d="M5.90207211,36 L38.0979279,36 C38.5967738,36 39,35.552 39,35 C39,34.448 38.5967738,34 38.0979279,34 L5.90207211,34 C5.40322623,34 5,34.448 5,35 C5,35.552 5.40322623,36 5.90207211,36" id="Fill-6" fill="#FFFFFF"></path>
                <path d="M6.91526567,40 L24.0847343,40 C24.5908762,40 25,39.552 25,39 C25,38.448 24.5908762,38 24.0847343,38 L6.91526567,38 C6.40912375,38 6,38.448 6,39 C6,39.552 6.40912375,40 6.91526567,40" id="Fill-8" fill="#FFFFFF"></path>
                <path d="M33.0856062,43 L5.91439382,43 C5.40873404,43 5,43.448 5,44 C5,44.553 5.40873404,45 5.91439382,45 L33.0856062,45 C33.591266,45 34,44.553 34,44 C34,43.448 33.591266,43 33.0856062,43" id="Fill-10" fill="#FFFFFF"></path>
                <path d="M17.061767,48 L6.93823299,48 C6.41939015,48 6,48.448 6,49 C6,49.552 6.41939015,50 6.93823299,50 L17.061767,50 C17.5806099,50 18,49.552 18,49 C18,48.448 17.5806099,48 17.061767,48" id="Fill-12" fill="#FFFFFF"></path>
                <path d="M46.0618404,77 L35.9381596,77 C35.4184192,77 35,77.448 35,78 C35,78.552 35.4184192,79 35.9381596,79 L46.0618404,79 C46.5806426,79 47,78.552 47,78 C47,77.448 46.5806426,77 46.0618404,77" id="Fill-14" fill="#FFFFFF"></path>
                <path d="M22.1513437,48 L20.8486563,48 C20.3793494,48 20,48.448 20,49 C20,49.552 20.3793494,50 20.8486563,50 L22.1513437,50 C22.6206506,50 23,49.552 23,49 C23,48.448 22.619802,48 22.1513437,48" id="Fill-16" fill="#FFFFFF"></path>
            </g>
        </g>
    </g>
</svg>