<?xml version="1.0" encoding="UTF-8"?>
<svg width="67px" height="75px" viewBox="0 0 67 75" version="1.1" xmlns="http://www.w3.org/2000/svg">
    <!-- Generator: Sketch 53.2 (72643) - https://sketchapp.com -->
    <title>Group 11</title>
    <desc>Created with Sketch.</desc>
    <defs>
        <linearGradient x1="64.3502049%" y1="113.320313%" x2="50%" y2="23.5351562%" id="linearGradient-1">
            <stop stop-color="#2170B8" offset="0%"></stop>
            <stop stop-color="#30B3A8" offset="100%"></stop>
        </linearGradient>
    </defs>
    <g id="Page-2" stroke="none" stroke-width="1" fill="none" fill-rule="evenodd">
        <g id="--Additional-Settings/Auto-text-templates_no-alerts" transform="translate(-799.000000, -381.000000)" fill="url(#linearGradient-1)">
            <g id="Group-11" transform="translate(799.000000, 381.000000)">
                <g id="Group-3">
                    <path d="M12.55245,63.4656081 L14.3214134,73.1981757 L65.1049622,64.104527 L55.9423037,13.7106081 L54.72895,13.9279054 L54.72895,63.4656081 L12.55245,63.4656081 Z M1.56281585,61.9149324 L53.1662976,61.9149324 L53.1662976,10.7061486 L33.8151451,10.7061486 L33.8151451,15.2466892 C33.8151451,18.7761486 30.921889,21.6480405 27.364761,21.6480405 C25.142322,21.6480405 23.1057671,20.5360135 21.9148829,18.6739865 L23.2340476,17.8433108 C24.1369134,19.2553378 25.6811817,20.0981757 27.364761,20.0981757 C30.0598768,20.0981757 32.2524927,17.9223649 32.2524927,15.2475 L32.2524927,10.7069595 L1.56281585,10.7069595 L1.56281585,61.9149324 Z M22.4766207,6.74614865 L22.4766207,9.15547297 L32.2524927,9.15547297 L32.2524927,6.74614865 C32.2524927,4.07128378 30.0598768,1.89547297 27.364761,1.89547297 C24.6692366,1.89547297 22.4766207,4.07128378 22.4766207,6.74614865 Z M57.202639,11.9093919 L66.9204988,65.3552027 L13.061078,74.9997973 L10.9648768,63.4656081 L-0.000245121954,63.4656081 L-0.000245121954,9.15547297 L20.9139683,9.15547297 L20.9139683,6.74614865 C20.9139683,3.21668919 23.8080415,0.344797297 27.364761,0.344797297 C30.921889,0.344797297 33.8151451,3.21668919 33.8151451,6.74614865 L33.8151451,9.15547297 L54.72895,9.15547297 L54.72895,12.3512838 L57.202639,11.9093919 Z M18,30 L18,29 L46.8472222,29 L46.8472222,30 L18,30 Z M7.444444,30 L7.444444,29 L10.444444,29 L10.444444,30 L7.444444,30 Z M18,38.962963 L18,37.962963 L46.8472222,37.962963 L46.8472222,38.962963 L18,38.962963 Z M7.44444444,38.962963 L7.44444444,37.962963 L10.4444444,37.962963 L10.4444444,38.962963 L7.44444444,38.962963 Z M18,48 L18,47 L46.8472222,47 L46.8472222,48 L18,48 Z M7.44444444,48 L7.44444444,47 L10.4444444,47 L10.4444444,48 L7.44444444,48 Z" id="Combined-Shape"></path>
                </g>
            </g>
        </g>
    </g>
</svg>
