<?xml version="1.0" encoding="utf-8"?>
<!-- Generator: Adobe Illustrator 19.2.1, SVG Export Plug-In . SVG Version: 6.00 Build 0)  -->
<svg version="1.1" id="Layer_1" xmlns="http://www.w3.org/2000/svg" xmlns:xlink="http://www.w3.org/1999/xlink" x="0px" y="0px"
	 viewBox="0 0 34.1 25.3" style="enable-background:new 0 0 34.1 25.3;" xml:space="preserve">
<path d="M29.7,0c-2.2,0-4,1.6-4.4,3.7h-3.8c-0.2,0-0.5,0-0.7,0h-12C8.5,1.6,6.7,0,4.4,0C1.9,0,0,2,0,4.5s2,4.5,4.5,4.5
	c2.2,0,4-1.6,4.4-3.7h8.4c-1.5,1.2-2.4,3.1-2.4,5.2v4.5c0,2.9-2.3,5.2-5.2,5.2H8.8c-0.4-2.1-2.2-3.7-4.4-3.7c-2.5,0-4.4,2-4.4,4.5
	s2,4.5,4.5,4.5c2.2,0,4-1.6,4.4-3.7h0.8c3.7,0,6.7-3,6.7-6.7v-4.4c0-2.9,2.3-5.2,5.2-5.2l3.8,0c0.3,2.1,2.2,3.7,4.4,3.7
	c2.5,0,4.5-2,4.5-4.5S32.2,0,29.7,0z M4.5,7.4c-1.6,0-3-1.3-3-3s1.3-3,3-3s3,1.3,3,3S6.1,7.4,4.5,7.4z M4.5,23.8c-1.6,0-3-1.3-3-3
	s1.3-3,3-3s3,1.3,3,3S6.1,23.8,4.5,23.8z M29.7,7.4c-1.6,0-3-1.3-3-3s1.3-3,3-3s3,1.3,3,3S31.3,7.4,29.7,7.4z"/>
</svg>
