<?xml version="1.0" encoding="utf-8"?>
<!-- Generator: Adobe Illustrator 19.2.1, SVG Export Plug-In . SVG Version: 6.00 Build 0)  -->
<svg version="1.1" id="_1.svg" xmlns="http://www.w3.org/2000/svg" xmlns:xlink="http://www.w3.org/1999/xlink" x="0px" y="0px"
	 viewBox="0 0 42 42" style="enable-background:new 0 0 42 42;" xml:space="preserve">
<style type="text/css">
	.st0{fill:#CA4FFD;}
	.st1{fill:#FFFFFF;}
	.st2{fill:#FFFFFF;stroke:#FFFFFF;stroke-width:0.75;stroke-miterlimit:10;}
</style>
<circle class="st0" cx="21" cy="21" r="21"/>
<g>
	<path class="st1" d="M21.1,8.7c-6.8,0-12.3,5.5-12.3,12.2c0,6.7,5.5,12.3,12.3,12.3c6.8,0,12.3-5.5,12.3-12.3S27.9,8.7,21.1,8.7
		 M21.1,32.5c-6.4,0-11.6-5.2-11.6-11.6S14.7,9.4,21.1,9.4c6.4,0,11.5,5.2,11.5,11.5S27.5,32.5,21.1,32.5"/>
	<path class="st2" d="M21.1,33.3c-6.8,0-12.4-5.5-12.4-12.4c0-6.8,5.6-12.4,12.4-12.4s12.4,5.5,12.4,12.4
		C33.5,27.8,27.9,33.3,21.1,33.3 M21.1,9.5c-6.3,0-11.4,5.1-11.4,11.4c0,6.3,5.1,11.4,11.4,11.4s11.4-5.1,11.4-11.4
		C32.5,14.6,27.4,9.5,21.1,9.5"/>
	<path class="st1" d="M25.7,18.5V24h-0.5c-0.1-0.4-0.2-0.7-0.4-1c-0.3-0.3-0.7-0.5-1.1-0.5h-4.9c-0.4,0-0.9,0.2-1.1,0.5
		c-0.2,0.3-0.4,0.6-0.4,1h-0.5v-5.4h0.5c0.1,0.4,0.2,0.7,0.4,1c0.3,0.3,0.7,0.5,1.1,0.5h4.9c0.4,0,0.9-0.2,1.1-0.5
		c0.2-0.3,0.4-0.6,0.4-1H25.7z"/>
</g>
</svg>
