<?xml version="1.0" encoding="utf-8"?>
<!-- Generator: Adobe Illustrator 19.2.1, SVG Export Plug-In . SVG Version: 6.00 Build 0)  -->
<svg version="1.1" id="_1.svg" xmlns="http://www.w3.org/2000/svg" xmlns:xlink="http://www.w3.org/1999/xlink" x="0px" y="0px"
	 viewBox="0 0 42 42" style="enable-background:new 0 0 42 42;" xml:space="preserve">
<style type="text/css">
	.st0{fill:#2170B8;}
	.st1{fill:none;enable-background:new    ;}
	.st2{fill:#FFFFFF;}
</style>
<circle class="st0" cx="21" cy="21" r="21"/>
<path class="st1" d="z"/>
<g>
	<path class="st2" d="M11.3,13.3V29c0,2.5,4.9,3.7,9.7,3.7s9.7-1.3,9.7-3.7V13.3c0-2.5-4.9-3.7-9.7-3.7S11.3,10.8,11.3,13.3z
		 M12.8,20.6c1.8,1.1,5,1.7,8.2,1.7s6.4-0.6,8.2-1.7v3.2c0,0.8-2.9,2.2-8.2,2.2s-8.2-1.5-8.2-2.2V20.6z M12.8,15.4
		c1.8,1.1,5,1.7,8.2,1.7s6.4-0.6,8.2-1.7v3.2c0,0.8-2.9,2.2-8.2,2.2s-8.2-1.5-8.2-2.2V15.4z M29.2,13.3c0,0.8-2.9,2.2-8.2,2.2
		s-8.2-1.5-8.2-2.2c0-0.8,2.9-2.2,8.2-2.2S29.2,12.5,29.2,13.3z M12.8,29v-3.2c1.8,1.1,5,1.7,8.2,1.7s6.4-0.6,8.2-1.7V29
		c0,0.8-2.9,2.2-8.2,2.2S12.8,29.7,12.8,29z"/>
	<circle class="st2" cx="27.7" cy="17.8" r="0.7"/>
	<circle class="st2" cx="27.7" cy="23" r="0.7"/>
	<circle class="st2" cx="27.7" cy="28.2" r="0.7"/>
</g>
</svg>
