<?xml version="1.0" encoding="utf-8"?>
<!-- Generator: Adobe Illustrator 19.2.1, SVG Export Plug-In . SVG Version: 6.00 Build 0)  -->
<svg version="1.1" id="_1.svg" xmlns="http://www.w3.org/2000/svg" xmlns:xlink="http://www.w3.org/1999/xlink" x="0px" y="0px"
	 viewBox="0 0 42 42" style="enable-background:new 0 0 42 42;" xml:space="preserve">
<style type="text/css">
	.st0{fill:#30B3A8;}
	.st1{fill:none;enable-background:new    ;}
	.st2{fill:#FFFFFF;}
	.st3{enable-background:new    ;}
	.st4{clip-path:url(#SVGID_2_);}
	.st5{font-family:'OpenSans-Semibold';}
	.st6{font-size:6.0919px;}
	.st7{fill:none;stroke:#FFFFFF;stroke-width:0.5;stroke-miterlimit:10;}
</style>
<circle class="st0" cx="21" cy="21" r="21"/>
<path class="st1" d="z"/>
<g>
	<polyline class="st2" points="14.5,23.2 27.3,23.2 27.3,24.1 14.5,24.1 	"/>
	<polyline class="st2" points="14.5,28.4 27.3,28.4 27.3,29.3 14.5,29.3 	"/>
	<polyline class="st2" points="14.5,25.8 27.3,25.8 27.3,26.7 14.5,26.7 	"/>
	<polyline class="st2" points="15.4,23.6 15.4,29.3 14.5,29.3 14.5,23.6 	"/>
	<polyline class="st2" points="19.4,23.6 19.4,29.3 18.5,29.3 18.5,23.6 	"/>
	<polyline class="st2" points="23.3,23.6 23.3,29.3 22.4,29.3 22.4,23.6 	"/>
	<polyline class="st2" points="27.3,23.6 27.3,29.3 26.4,29.3 26.4,23.6 	"/>
	<g>
		<g class="st3">
			<g>
				<defs>
					<rect id="SVGID_1_" x="14.5" y="14.6" width="16.4" height="6.9"/>
				</defs>
				<clipPath id="SVGID_2_">
					<use xlink:href="#SVGID_1_"  style="overflow:visible;"/>
				</clipPath>
				<g class="st4">
					<text transform="matrix(1 0 0 1 14.5059 19.8145)" class="st2 st5 st6">A012</text>
				</g>
			</g>
		</g>
		<path class="st2" d="M27.7,32.3H14.1c-0.7,0-1.3-0.2-1.8-0.7c-0.5-0.5-0.7-1.1-0.7-1.8V12.2c0-0.7,0.2-1.3,0.7-1.8
			c0.5-0.5,1.1-0.7,1.8-0.7h13.6c0.7,0,1.3,0.2,1.8,0.7c0.5,0.5,0.7,1.1,0.7,1.8V13h-0.8v-0.8c0-0.4-0.2-0.9-0.5-1.2
			c-0.3-0.3-0.8-0.5-1.3-0.5H14.1c-0.5,0-0.9,0.2-1.3,0.5c-0.3,0.3-0.5,0.7-0.5,1.2v17.5c0,0.4,0.2,0.9,0.5,1.2
			c0.3,0.3,0.8,0.5,1.3,0.5h13.6c0.5,0,0.9-0.2,1.3-0.5c0.3-0.3,0.5-0.7,0.5-1.2v-7.4h0.8v7.4c0,0.7-0.2,1.3-0.7,1.8
			C29.1,32,28.4,32.3,27.7,32.3"/>
		<path class="st7" d="M27.7,32.3H14.1c-0.7,0-1.3-0.2-1.8-0.7c-0.5-0.5-0.7-1.1-0.7-1.8V12.2c0-0.7,0.2-1.3,0.7-1.8
			c0.5-0.5,1.1-0.7,1.8-0.7h13.6c0.7,0,1.3,0.2,1.8,0.7c0.5,0.5,0.7,1.1,0.7,1.8V13h-0.8v-0.8c0-0.4-0.2-0.9-0.5-1.2
			c-0.3-0.3-0.8-0.5-1.3-0.5H14.1c-0.5,0-0.9,0.2-1.3,0.5c-0.3,0.3-0.5,0.7-0.5,1.2v17.5c0,0.4,0.2,0.9,0.5,1.2
			c0.3,0.3,0.8,0.5,1.3,0.5h13.6c0.5,0,0.9-0.2,1.3-0.5c0.3-0.3,0.5-0.7,0.5-1.2v-7.4h0.8v7.4c0,0.7-0.2,1.3-0.7,1.8
			C29.1,32,28.4,32.3,27.7,32.3z"/>
	</g>
</g>
</svg>
