<?xml version="1.0" encoding="utf-8"?>
<!-- Generator: Adobe Illustrator 22.0.1, SVG Export Plug-In . SVG Version: 6.00 Build 0)  -->
<svg version="1.1" id="Layer_1" xmlns="http://www.w3.org/2000/svg" xmlns:xlink="http://www.w3.org/1999/xlink" x="0px" y="0px"
	 viewBox="0 0 18 18" style="enable-background:new 0 0 18 18;" xml:space="preserve">
<style type="text/css">
	.st0{fill-rule:evenodd;clip-rule:evenodd;fill:#2170B8;}
	.st1{fill:#2170B8;}
	.st2{fill-rule:evenodd;clip-rule:evenodd;fill:#FFFFFF;}
</style>
<g>
	<path class="st0" d="M3.6,17.5c-1.7,0-3.1-1.4-3.1-3.1V3.6c0-1.7,1.4-3.1,3.1-3.1h10.8c1.7,0,3.1,1.4,3.1,3.1v10.8
		c0,1.7-1.4,3.1-3.1,3.1H3.6z"/>
	<path class="st1" d="M14.4,1C15.8,1,17,2.2,17,3.6v10.8c0,1.4-1.2,2.6-2.6,2.6H3.6C2.2,17,1,15.8,1,14.4V3.6C1,2.2,2.2,1,3.6,1
		H14.4 M14.4,0H3.6C1.6,0,0,1.6,0,3.6v10.8c0,2,1.6,3.6,3.6,3.6h10.8c2,0,3.6-1.6,3.6-3.6V3.6C18,1.6,16.4,0,14.4,0L14.4,0z"/>
</g>
<g>
	<g>
		<path class="st2" d="M13.6,4.6c-0.5-0.3-1.1-0.1-1.4,0.4l-3.8,6.2L5.6,9C5.2,8.6,4.6,8.6,4.2,9c-0.4,0.4-0.4,1,0,1.3L7.6,13
			c0.1,0.1,0.2,0.2,0.4,0.2c0.1,0,0.1,0.1,0.2,0.1c0.5,0.3,1.1,0.1,1.4-0.4L14,5.9C14.3,5.4,14.1,4.9,13.6,4.6z"/>
	</g>
</g>
</svg>
