<?xml version="1.0" encoding="utf-8"?>
<!-- Generator: Adobe Illustrator 22.0.1, SVG Export Plug-In . SVG Version: 6.00 Build 0)  -->
<svg version="1.1" id="Layer_1" xmlns="http://www.w3.org/2000/svg" xmlns:xlink="http://www.w3.org/1999/xlink" x="0px" y="0px"
	 viewBox="0 0 18 18" style="enable-background:new 0 0 18 18;" xml:space="preserve">
<style type="text/css">
	.st0{fill-rule:evenodd;clip-rule:evenodd;fill:#DEE0E2;}
	.st1{fill:#2170B8;}
</style>
<g>
	<path class="st0" d="M3.6,17.5c-1.7,0-3.1-1.4-3.1-3.1V3.6c0-1.7,1.4-3.1,3.1-3.1h10.8c1.7,0,3.1,1.4,3.1,3.1v10.8
		c0,1.7-1.4,3.1-3.1,3.1H3.6z"/>
	<path class="st1" d="M14.4,1C15.8,1,17,2.2,17,3.6v10.8c0,1.4-1.2,2.6-2.6,2.6H3.6C2.2,17,1,15.8,1,14.4V3.6C1,2.2,2.2,1,3.6,1
		H14.4 M14.4,0H3.6C1.6,0,0,1.6,0,3.6v10.8c0,2,1.6,3.6,3.6,3.6h10.8c2,0,3.6-1.6,3.6-3.6V3.6C18,1.6,16.4,0,14.4,0L14.4,0z"/>
</g>
</svg>
