<?xml version="1.0" encoding="utf-8"?>
<!-- Generator: Adobe Illustrator 22.0.1, SVG Export Plug-In . SVG Version: 6.00 Build 0)  -->
<svg version="1.1" id="Layer_1" xmlns="http://www.w3.org/2000/svg" xmlns:xlink="http://www.w3.org/1999/xlink" x="0px" y="0px"
	 viewBox="348.6 749.3 14.3 18.4" style="enable-background:new 348.6 749.3 14.3 18.4;" xml:space="preserve">
<style type="text/css">
	.st0{fill:#FFFFFF;}
</style>
<path class="st0" d="M362.7,753.5l-4.1-4.1c-0.1-0.1-0.2-0.1-0.4-0.1h-9.2c-0.3,0-0.5,0.2-0.5,0.5v17.4c0,0.3,0.2,0.5,0.5,0.5h13.3
	c0.3,0,0.5-0.2,0.5-0.5v-13.3C362.9,753.8,362.8,753.6,362.7,753.5z M358.8,751l2.3,2.3h-2.3V751z M349.6,766.7v-16.3h8.2v3.6
	c0,0.3,0.2,0.5,0.5,0.5h3.6v12.3H349.6z"/>
<g>
	<path class="st0" d="M355.3,763.5C355.4,763.5,355.4,763.6,355.3,763.5C355.4,763.6,355.4,763.6,355.3,763.5
		c0.2,0.1,0.3,0.2,0.4,0.2c0.1,0,0.1,0,0.2,0s0.1-0.1,0.2-0.1l2.6-2.6c0.1-0.1,0.2-0.2,0.2-0.4c0-0.1-0.1-0.3-0.2-0.3
		c-0.1-0.1-0.2-0.2-0.4-0.2c-0.2,0-0.3,0.1-0.4,0.2l-1.7,1.7v-5.4c0-0.3-0.2-0.5-0.5-0.5c-0.3,0-0.5,0.2-0.5,0.5v5.3l-1.7-1.7
		c-0.1-0.1-0.2-0.2-0.4-0.2c-0.2,0-0.3,0.1-0.4,0.2c-0.1,0.1-0.2,0.2-0.2,0.4s0.1,0.3,0.2,0.3L355.3,763.5z"/>
</g>
</svg>
