<?xml version="1.0" encoding="utf-8"?>
<!-- Generator: Adobe Illustrator 22.0.1, SVG Export Plug-In . SVG Version: 6.00 Build 0)  -->
<svg version="1.1" id="Layer_1" xmlns="http://www.w3.org/2000/svg" xmlns:xlink="http://www.w3.org/1999/xlink" x="0px" y="0px"
	 viewBox="0 0 12.8 13.6" style="enable-background:new 0 0 12.8 13.6;" xml:space="preserve">
<style type="text/css">
	.st0{fill:#FFFFFF;}
</style>
<g>
	<path class="st0" d="M0.2,1.3l4.5,6v4.3c0,0.2,0.1,0.4,0.3,0.5l2.3,1.5c0.1,0.1,0.2,0.1,0.3,0.1c0.1,0,0.2,0,0.3-0.1
		C8,13.4,8.1,13.2,8.1,13V7.3l4.5-6c0,0,0,0,0,0c0.2-0.2,0.2-0.5,0-0.8C12.6,0.2,12.3,0,12,0H0.8C0.5,0,0.2,0.2,0.1,0.4
		C0,0.7,0,1,0.2,1.3C0.1,1.2,0.1,1.2,0.2,1.3z"/>
</g>
</svg>
