<?xml version="1.0" encoding="utf-8"?>
<!-- Generator: Adobe Illustrator 22.0.1, SVG Export Plug-In . SVG Version: 6.00 Build 0)  -->
<svg version="1.1" id="Layer_1" xmlns="http://www.w3.org/2000/svg" xmlns:xlink="http://www.w3.org/1999/xlink" x="0px" y="0px"
	 viewBox="0 0 15.5 14.4" style="enable-background:new 0 0 15.5 14.4;" xml:space="preserve">
<style type="text/css">
	.st0{fill:#FFFFFF;}
</style>
<g>
	<g transform="translate(-217.000000, -103.000000)">
		<path class="st0" d="M222.8,107h3.9l0-2.4h-3.9L222.8,107z M222.8,108.6l0,7.2h3.9l0-7.2H222.8z M231.2,107v-2.4H228l0,2.4H231.2z
			 M231.2,108.6H228l0,7.2h3.2V108.6z M218.3,107h3.2l0-2.4h-3.2V107z M218.3,108.6v7.2h3.2l0-7.2H218.3z M218.3,103h12.9
			c0.7,0,1.3,0.7,1.3,1.6v11.2c0,0.9-0.6,1.6-1.3,1.6h-12.9c-0.7,0-1.3-0.7-1.3-1.6v-11.2C217,103.7,217.6,103,218.3,103z"/>
	</g>
</g>
</svg>
