<?xml version="1.0" encoding="utf-8"?>
<!-- Generator: Adobe Illustrator 22.0.1, SVG Export Plug-In . SVG Version: 6.00 Build 0)  -->
<svg version="1.1" id="Layer_1" xmlns="http://www.w3.org/2000/svg" xmlns:xlink="http://www.w3.org/1999/xlink" x="0px" y="0px"
	 viewBox="0 0 16.2 14.6" style="enable-background:new 0 0 16.2 14.6;" xml:space="preserve">
<style type="text/css">
	.st0{fill:#FFFFFF;}
</style>
<g>
	<g>
		<polygon class="st0" points="16.2,10.9 16.2,14.6 12.2,14.6 12.2,10.9 13.9,10.9 13.9,7.6 8.5,7.6 8.5,10.9 10.2,10.9 10.2,14.6 
			6.1,14.6 6.1,10.9 7.8,10.9 7.8,7.6 2.4,7.6 2.4,10.9 4.1,10.9 4.1,14.6 0,14.6 0,10.9 1.7,10.9 1.7,7 7.8,7 7.8,3.6 6.1,3.6 
			6.1,0 10.2,0 10.2,3.6 8.5,3.6 8.5,7 14.6,7 14.6,10.9 		"/>
	</g>
</g>
</svg>
