<?xml version="1.0" encoding="utf-8"?>
<!-- Generator: Adobe Illustrator 22.0.1, SVG Export Plug-In . SVG Version: 6.00 Build 0)  -->
<svg version="1.1" id="Layer_1" xmlns="http://www.w3.org/2000/svg" xmlns:xlink="http://www.w3.org/1999/xlink" x="0px" y="0px"
	 viewBox="1 1 19 19" style="enable-background:new 1 1 19 19;" xml:space="preserve">
<style type="text/css">
	.st0{fill:#FFFFFF;}
</style>
<g>
	<path class="st0" d="M10.5,13.5c-1.6,0-3-1.3-3-3c0-1.6,1.3-3,3-3c1.6,0,3,1.3,3,3C13.5,12.1,12.1,13.5,10.5,13.5z M10.5,8.4
		c-1.2,0-2.1,1-2.1,2.1c0,1.2,1,2.1,2.1,2.1c1.2,0,2.1-1,2.1-2.1C12.6,9.3,11.7,8.4,10.5,8.4z M12.2,20H8.8c-0.2,0-0.4-0.2-0.4-0.4
		v-1.8c-0.5-0.1-1.1-0.4-1.6-0.7l-1.2,1.2c-0.2,0.2-0.4,0.2-0.6,0L2.6,16c-0.2-0.2-0.2-0.4,0-0.6l1.2-1.2c-0.3-0.5-0.5-1-0.7-1.6
		H1.4c-0.2,0-0.4-0.2-0.4-0.4V8.8c0-0.2,0.2-0.4,0.4-0.4h1.8c0.1-0.5,0.4-1.1,0.7-1.6L2.6,5.6C2.4,5.4,2.4,5.2,2.6,5L5,2.6
		c0.2-0.2,0.4-0.2,0.6,0l1.2,1.2c0.5-0.3,1-0.5,1.6-0.7V1.4C8.4,1.2,8.6,1,8.8,1h3.4c0.2,0,0.4,0.2,0.4,0.4v1.8
		c0.5,0.1,1.1,0.4,1.6,0.7l1.2-1.2c0.2-0.2,0.4-0.2,0.6,0L18.4,5c0.1,0.1,0.1,0.2,0.1,0.3c0,0.1,0,0.2-0.1,0.3l-1.2,1.2
		c0.3,0.5,0.5,1,0.7,1.6h1.8c0.2,0,0.4,0.2,0.4,0.4v3.4c0,0.2-0.2,0.4-0.4,0.4h-1.8c-0.1,0.5-0.4,1.1-0.7,1.6l1.2,1.2
		c0.2,0.2,0.2,0.4,0,0.6L16,18.4c-0.2,0.2-0.4,0.2-0.6,0l-1.2-1.2c-0.5,0.3-1,0.5-1.6,0.7v1.8C12.6,19.8,12.4,20,12.2,20z M9.2,19.2
		h2.5v-1.7c0-0.2,0.1-0.4,0.3-0.4c0.7-0.2,1.3-0.4,1.9-0.8c0.2-0.1,0.4-0.1,0.5,0.1l1.2,1.2l1.8-1.8l-1.2-1.2
		c-0.1-0.1-0.2-0.4-0.1-0.5c0.4-0.6,0.6-1.2,0.8-1.9c0-0.2,0.2-0.3,0.4-0.3h1.7V9.2h-1.7c-0.2,0-0.4-0.1-0.4-0.3
		c-0.2-0.7-0.4-1.3-0.8-1.9c-0.1-0.2-0.1-0.4,0.1-0.5l1.2-1.2l-1.8-1.8l-1.2,1.2c-0.1,0.1-0.4,0.2-0.5,0.1c-0.6-0.4-1.2-0.6-1.9-0.8
		c-0.2,0-0.3-0.2-0.3-0.4V1.8H9.2v1.7c0,0.2-0.1,0.4-0.3,0.4C8.2,4.1,7.6,4.4,7,4.7C6.8,4.8,6.6,4.8,6.5,4.7L5.3,3.5L3.5,5.3
		l1.2,1.2C4.8,6.6,4.8,6.8,4.7,7C4.4,7.6,4.1,8.2,3.9,8.9c0,0.2-0.2,0.3-0.4,0.3H1.8v2.5h1.7c0.2,0,0.4,0.1,0.4,0.3
		c0.2,0.7,0.4,1.3,0.8,1.9c0.1,0.2,0.1,0.4-0.1,0.5l-1.2,1.2l1.8,1.8l1.2-1.2c0.1-0.1,0.4-0.2,0.5-0.1c0.6,0.4,1.2,0.6,1.9,0.8
		c0.2,0,0.3,0.2,0.3,0.4V19.2z"/>
</g>
</svg>
