<?xml version="1.0" encoding="UTF-8"?>
<svg width="99px" height="99px" viewBox="0 0 93 80" version="1.1" xmlns="http://www.w3.org/2000/svg"
     xmlns:xlink="http://www.w3.org/1999/xlink">
  <!-- Generator: Sketch 58 (84663) - https://sketch.com -->
  <title>Group 12</title>
  <desc>Created with Sketch.</desc>
  <defs>
    <circle id="path-1" cx="53" cy="38" r="17"></circle>
    <filter x="-26.5%" y="-26.5%" width="152.9%" height="152.9%" filterUnits="objectBoundingBox" id="filter-2">
      <feOffset dx="0" dy="0" in="SourceAlpha" result="shadowOffsetOuter1"></feOffset>
      <feGaussianBlur stdDeviation="3" in="shadowOffsetOuter1" result="shadowBlurOuter1"></feGaussianBlur>
      <feColorMatrix values="0 0 0 0 0.323397871   0 0 0 0 0.314246845   0 0 0 0 0.314246845  0 0 0 0.5 0" type="matrix"
                     in="shadowBlurOuter1"></feColorMatrix>
    </filter>
  </defs>
  <g id="Page-1" stroke="none" stroke-width="1" fill="none" fill-rule="evenodd">
    <g id="2" transform="translate(-1281.000000, -341.000000)">
      <g id="Group-12" transform="translate(1287.000000, 347.000000)">
        <g id="Group-9" transform="translate(17.000000, 18.000000)">

          <g id="Oval">
            <use fill="black" fill-opacity="1" filter="url(#filter-2)" xlink:href="#path-1"></use>
            <use fill="#3A5F8E" fill-rule="evenodd" xlink:href="#path-1"></use>
          </g>
          <g id="Group-3" transform="translate(44.000000, 27.000000)" fill="#FFFFFF">
            <path
              d="M17.8443749,16.4524713 C17.8467772,16.5090345 17.8242826,16.5686552 17.7854083,16.6081839 L17.7174876,16.6774138 C17.6449805,16.7514483 17.5115414,16.7523218 17.4383791,16.6776322 L13.7071059,12.8747931 L14.0462728,12.5290805 L17.8070294,16.3603103 C17.8293056,16.3793103 17.8426277,16.4118506 17.8443749,16.4524713 M8.33743566,7.06406897 C8.92710132,6.46305747 9.62552753,6.1584023 10.4130588,6.1584023 C11.2077971,6.1584023 11.9455343,6.48074713 12.4943602,7.07018391 C13.0624048,7.61965517 13.3810426,8.36502299 13.3915256,9.16913793 C13.4022269,9.99137931 13.0934168,10.7649195 12.5220963,11.3473678 C11.9599484,11.9202069 11.2169696,12.2357816 10.4298752,12.2357816 C9.64256232,12.2357816 8.89958359,11.9202069 8.33743566,11.3473678 C7.17928862,10.1665287 7.17928862,8.24490805 8.33743566,7.06406897 M3.24949458,4.77402299 L9.52987066,4.73973563 C9.84697975,4.73973563 10.0952945,4.4888046 10.0952945,4.16777011 L10.0902714,3.28547126 L11.5454352,3.28547126 L11.5454352,5.19464368 C11.3543399,5.13808046 11.1654285,5.09789655 10.9701836,5.07168966 C10.6827762,5.04591954 10.5012902,5.04570115 10.3979896,5.05006897 L10.0854667,5.07256322 L10.0854667,5.07627586 C9.12802443,5.17913793 8.24789383,5.59691954 7.59816963,6.25908046 C6.01327937,7.87408046 6.01327937,10.5021954 7.59816963,12.1174138 C7.88033557,12.4052529 9.37240809,13.7813333 11.5454352,13.1458161 L11.5454352,17.8602184 L1.09655973,17.8602184 L1.09655973,3.32041379 L2.68276036,3.32041379 L2.68276036,4.2038046 C2.68276036,4.52352874 2.93129352,4.77402299 3.24949458,4.77402299 M5.61296191,1.88493103 C5.61296191,1.44334483 5.97593388,1.07055172 6.40595303,1.07055172 C6.83575377,1.07055172 7.19872575,1.44334483 7.19872575,1.88493103 C7.19872575,2.20443678 7.4472589,2.45493103 7.7641496,2.45493103 L8.61283136,2.45493103 C8.88036485,2.45493103 9.06665552,2.62898851 9.06665552,2.78513793 L9.06665552,3.6338046 L3.74525053,3.6338046 L3.74525053,2.78513793 C3.74525053,2.62898851 3.9315412,2.45493103 4.1988563,2.45493103 L5.04753806,2.45493103 C5.36442875,2.45493103 5.61296191,2.20443678 5.61296191,1.88493103 M18.6360556,15.545931 L14.6874796,11.5893448 C14.5164766,11.415069 14.2823575,11.3143908 14.0390658,11.3093678 L13.9488688,11.2174253 C14.8506205,9.61836782 14.5878917,7.57728736 13.2954319,6.22435632 C13.1296703,6.05575862 12.9082181,5.84413793 12.641995,5.67597701 L12.641995,2.74997701 C12.641995,2.43047126 12.3936802,2.18041379 12.0767895,2.18041379 L9.92472826,2.18041379 C9.67008005,1.65212644 9.12343814,1.31493103 8.51127783,1.31493103 L8.13804131,1.31493103 C7.92729043,0.547942529 7.21248461,0 6.40595303,0 C5.59155923,0 4.85163802,0.562574713 4.61467978,1.34943678 L4.23248908,1.34943678 C3.62011037,1.34943678 3.07325007,1.68663218 2.81903865,2.21491954 L0.564987061,2.21491954 C0.237613422,2.21491954 0,2.43986207 0,2.74997701 L0,18.43 C0,18.7495057 0.248314762,19 0.564987061,19 L12.0767895,19 C12.3936802,19 12.641995,18.7495057 12.641995,18.43 L12.641995,13.3375632 C12.6830532,13.4085402 12.7337208,13.4753678 12.7935609,13.5362989 L16.6646068,17.4828391 C16.9124847,17.7352989 17.2752383,17.8921034 17.6115661,17.8921034 C17.9736645,17.8921034 18.2923024,17.7542989 18.5587439,17.4828391 L18.6266647,17.4133908 C19.1208918,16.9091264 19.1248229,16.0886322 18.6360556,15.545931"
              id="Fill-1"></path>
          </g>
        </g>
      </g>
    </g>
  </g>
</svg>
