<?xml version="1.0" encoding="UTF-8"?>
<svg width="99px" height="99px" viewBox="0 0 93 80" version="1.1" xmlns="http://www.w3.org/2000/svg"
     xmlns:xlink="http://www.w3.org/1999/xlink">
  <!-- Generator: Sketch 58 (84663) - https://sketch.com -->
  <title>Group 12</title>
  <desc>Created with Sketch.</desc>
  <defs>
    <circle id="path-1" cx="53" cy="38" r="17"></circle>
    <filter x="-26.5%" y="-26.5%" width="152.9%" height="152.9%" filterUnits="objectBoundingBox" id="filter-2">
      <feOffset dx="0" dy="0" in="SourceAlpha" result="shadowOffsetOuter1"></feOffset>
      <feGaussianBlur stdDeviation="3" in="shadowOffsetOuter1" result="shadowBlurOuter1"></feGaussianBlur>
      <feColorMatrix values="0 0 0 0 0.323397871   0 0 0 0 0.314246845   0 0 0 0 0.314246845  0 0 0 0.5 0" type="matrix"
                     in="shadowBlurOuter1"></feColorMatrix>
    </filter>
  </defs>
  <g id="Page-1" stroke="none" stroke-width="1" fill="none" fill-rule="evenodd">
    <g id="2" transform="translate(-1281.000000, -341.000000)">
      <g id="Group-12" transform="translate(1287.000000, 347.000000)">
        <g id="Group-9" transform="translate(17.000000, 18.000000)">

          <g id="Oval">
            <use fill="black" fill-opacity="1" filter="url(#filter-2)" xlink:href="#path-1"></use>
            <use fill="#3A5F8E" fill-rule="evenodd" xlink:href="#path-1"></use>
          </g>
          <g id="Group-5" transform="translate(44.000000, 30.000000)" fill="#FFFFFF">
            <path d="M14.3487747,0.983292358 L11.6727866,0.983292358 L11.6460104,0.982679985 C11.6192342,0.980434618 11.5926623,0.977168629 11.5662949,0.9710449 C11.5051797,0.957572696 11.4467216,0.93124066 11.395622,0.894906533 C11.262354,0.800805228 11.1852957,0.640771771 11.1942892,0.478084698 C11.1969464,0.433381474 11.20594,0.3890865 11.2204523,0.347036892 C11.2384393,0.29620994 11.2646024,0.248444852 11.2981238,0.206599369 C11.3375727,0.157609535 11.3860152,0.116376425 11.4407941,0.0859619034 C11.4882146,0.0602422407 11.5397231,0.0420751774 11.5926623,0.0330937078 C11.6163726,0.0294194703 11.6220958,0.0294194703 11.6460104,0.0269699786 C12.9359707,-0.00895589946 14.2277707,-0.00895589946 15.517731,0.0267658543 L15.5232498,0.0267658543 L15.5271334,0.0269699786 L15.5320389,0.0269699786 C15.5367401,0.0277864759 15.5410325,0.0279906002 15.5455292,0.0283988488 L15.5590196,0.0294194703 C15.5902926,0.0341143294 15.5984685,0.034522578 15.6293327,0.0426875503 C15.6393483,0.0455452906 15.6493638,0.0484030309 15.6591749,0.0516690198 L15.6634673,0.0533020143 L15.6726652,0.0567721275 L15.6810456,0.0596298678 L15.6886083,0.0628958567 L15.6933095,0.0649370998 C15.716611,0.0749391908 15.7388904,0.086370152 15.7601479,0.0998423563 C15.8008232,0.125357895 15.8370018,0.156588914 15.8684792,0.19292304 C15.8834003,0.210477731 15.897095,0.229053043 15.9097678,0.248444852 L15.9105854,0.250077847 C15.9248933,0.272735645 15.9373616,0.296618189 15.9479903,0.321725478 C15.9604586,0.35214 15.9690434,0.382758646 15.9751754,0.41419379 L15.975993,0.419092773 C15.9774237,0.426645372 15.9786501,0.433993847 15.9796721,0.441342322 C15.9811029,0.453589781 15.9823293,0.465633115 15.9837601,0.478084698 C16.0199387,1.76202659 15.9843733,3.04739735 15.9843733,4.33215574 C15.9837601,4.35603829 15.9839645,4.36216202 15.9815117,4.38563631 C15.9753798,4.43911688 15.9600499,4.4913727 15.9369528,4.53975016 C15.9097678,4.5962926 15.8713408,4.64732367 15.8247379,4.68876091 C15.7912165,4.71876718 15.7534027,4.74387447 15.7133406,4.76306216 C15.5575888,4.83797578 15.3689287,4.82205408 15.228098,4.7222373 C15.1843567,4.69141452 15.1455209,4.65283503 15.1146567,4.6089483 C15.0731638,4.55077288 15.0449568,4.48300361 15.0331016,4.41217247 C15.0284005,4.38563631 15.0267653,4.35930428 15.0261521,4.33215574 L15.0261521,1.65976031 L8.81794967,7.85983202 C8.79464822,7.8814692 8.78912945,7.88779705 8.76357961,7.90657649 C8.72494825,7.93494977 8.68243332,7.95719932 8.6372612,7.97312101 C8.58105155,7.9931252 8.52095833,8.00190254 8.4612739,7.99965717 C8.30450008,7.99394169 8.1569242,7.90882186 8.07352952,7.77614106 C8.04797968,7.73552032 8.0287662,7.69163359 8.01629788,7.6455015 C8.00382956,7.59936941 7.99851519,7.55140019 8.00035478,7.50363511 C8.00362516,7.42014826 8.0287662,7.33788617 8.07352952,7.26705503 C8.092743,7.23643639 8.11563566,7.2096961 8.1401635,7.18315994 L14.3487747,0.983292358 Z" id="Fill-1"></path>
            <path d="M7.55468093,1.00270763 C7.60268031,1.00959978 7.61548014,1.00959978 7.66224877,1.02338408 C7.76809355,1.05415262 7.86384616,1.11568968 7.9359683,1.19888779 C7.9719063,1.24048684 8.00193668,1.28700886 8.02482869,1.33697696 C8.0477207,1.38694505 8.0632282,1.44035922 8.07135117,1.49475798 C8.09473548,1.65893887 8.04501305,1.82878116 7.93621445,1.95456292 C7.88821507,2.00994627 7.82963122,2.05622214 7.76489359,2.08969831 C7.69966367,2.12317447 7.62827998,2.14434322 7.55517323,2.15123537 C7.53695808,2.15295841 7.51874293,2.15295841 7.50052778,2.153943 C7.09585609,2.153943 6.69118441,2.15418915 6.28675887,2.15591218 C5.63322886,2.15960441 4.9794527,2.16452737 4.32666115,2.20046502 C3.96408122,2.21991073 3.601009,2.24871008 3.24187518,2.30458573 C3.14439952,2.31960077 3.04717001,2.33683115 2.9504328,2.35676916 C2.88471057,2.37079961 2.81948064,2.38581465 2.75449687,2.40255273 C2.45370076,2.48033558 2.14945854,2.59504066 1.91340006,2.80352823 C1.86860064,2.8426658 1.82700117,2.88524945 1.78835552,2.93078688 C1.6706955,3.0681376 1.58355817,3.22911856 1.51709749,3.39649937 C1.43685238,3.59809478 1.38294538,3.81002843 1.34208437,4.02270052 C1.28399281,4.32300138 1.25027017,4.62773292 1.22639356,4.93172601 C1.1852864,5.44765274 1.17125581,5.96505636 1.16337899,6.48221384 C1.15624062,6.94571099 1.15476372,7.4094543 1.15451757,7.87344375 C1.15402527,8.29091118 1.15402527,8.70887091 1.15451757,9.12633834 C1.15476372,9.71340192 1.15722522,10.3004655 1.17174811,10.8875291 C1.1847941,11.4012405 1.2057169,11.9166749 1.26405461,12.4279248 C1.27931595,12.5625679 1.2980234,12.6962264 1.32017696,12.8298849 C1.36177642,13.0743101 1.41666802,13.3189815 1.50429766,13.5515916 C1.57666595,13.7435872 1.67315701,13.9289369 1.81026293,14.0832718 C2.0793056,14.3870188 2.47683892,14.5307693 2.86206471,14.6203673 C2.94206367,14.6388284 3.02280109,14.6555665 3.10353851,14.6700892 C3.20593718,14.6885504 3.30907431,14.7043038 3.41196529,14.717842 C3.93798925,14.7877481 4.46967468,14.810886 4.99939091,14.8259011 C5.62436744,14.8433776 6.25008242,14.8451006 6.87555125,14.8453468 C7.29179202,14.8458391 7.70827894,14.8458391 8.12476586,14.8453468 C8.62937472,14.8451006 9.13349127,14.8433776 9.63810013,14.8335317 C10.1436936,14.8239319 10.649287,14.8081784 11.1531575,14.7633794 C11.4492767,14.7375339 11.7456421,14.7015962 12.0370845,14.6403053 C12.2832351,14.588368 12.5288935,14.5192004 12.7543675,14.405726 C12.8877812,14.3390198 13.0130719,14.2550833 13.1206397,14.1509626 C13.3889439,13.8915223 13.523096,13.5279614 13.6092488,13.1722771 C13.6254947,13.105571 13.6400176,13.0378802 13.6533097,12.9701894 C13.6730018,12.8709917 13.68974,12.7710555 13.7042629,12.6703809 C13.7244473,12.5298302 13.7409394,12.388295 13.7544777,12.2467597 C13.7985386,11.7940931 13.8167538,11.3384727 13.8283228,10.8838369 C13.8485072,10.0895164 13.8457995,9.2944576 13.8462918,8.49939875 L13.8487534,8.44475384 C13.851461,8.42678502 13.8531841,8.4083239 13.8566302,8.39035507 C13.8704146,8.31847979 13.8982296,8.24931213 13.938106,8.18752892 C13.9678903,8.14149919 14.0038283,8.09940784 14.0454277,8.06371635 C14.1712107,7.95491882 14.3410547,7.90519687 14.5052372,7.9288271 C14.5601288,7.93670385 14.6130512,7.95196504 14.6630197,7.97510298 C14.7294804,8.00562536 14.7905258,8.0487013 14.8409867,8.10186932 C14.9168011,8.18186751 14.9687389,8.28278829 14.9896617,8.39109352 C14.9987692,8.43909243 14.9975385,8.45139984 15,8.50013719 C14.9995077,8.90554336 14.9995077,9.31094953 14.9975385,9.7163557 C14.9955693,10.115362 14.991877,10.5141222 14.982031,10.9128823 C14.9751388,11.1851223 14.9652928,11.4576084 14.9500314,11.7293561 C14.9384623,11.9395667 14.9236933,12.1490389 14.9032628,12.3582649 C14.8909553,12.4870004 14.8761862,12.6154898 14.8589557,12.7439792 C14.8466481,12.835054 14.8331099,12.9261289 14.8178485,13.0172037 C14.7211113,13.5862985 14.5569288,14.1605624 14.2184716,14.6358746 C14.1672723,14.7082422 14.1123807,14.7774099 14.0537969,14.8433776 C13.9622288,14.947006 13.8615532,15.04325 13.7539853,15.1298942 C13.594972,15.257399 13.4206974,15.3652119 13.2378074,15.4543176 C12.8262435,15.6546822 12.374557,15.7627413 11.9243475,15.8331397 C11.5994286,15.8838463 11.2713098,15.9151071 10.9431909,15.9370143 C10.5995646,15.9606445 10.2551998,15.9729519 9.91083506,15.9818133 C9.41607223,15.9941207 8.92057095,15.9973206 8.42556197,15.9990436 C7.90815328,16.0005205 7.39123689,16 6.8738282,15.9992898 C6.27937435,15.9990436 5.6844282,15.9970745 5.0897282,15.9823056 C4.54253528,15.9690136 3.9941116,15.9466141 3.44987249,15.885077 C3.3250741,15.8708004 3.20052187,15.8548008 3.07670809,15.8356012 C2.47782353,15.742311 1.86860064,15.5805916 1.36793019,15.2253997 C1.2960542,15.1746932 1.22639356,15.1198021 1.16017903,15.061465 C1.06565718,14.9780207 0.977781391,14.8876843 0.897043974,14.790948 C0.840675472,14.7230111 0.787999231,14.6518743 0.738769098,14.5785221 C0.428373114,14.1152711 0.274775101,13.5666066 0.182468602,13.0223729 C0.162038097,12.9000372 0.1445614,12.7779476 0.129053909,12.6548735 C0.113054116,12.5244149 0.0995158292,12.3932179 0.0879467481,12.2625132 C0.0687469965,12.0493488 0.0547164087,11.8364306 0.0443780809,11.62302 C0.0283782879,11.3037658 0.0190245627,10.9845115 0.0128707962,10.6652572 C0.00524012567,10.2524666 0.00253246839,9.84016827 0.00130171508,9.4276238 C-0.000421339552,8.90898944 -0.00017518889,8.39060122 0.000563263096,7.87221301 C0.00105556442,7.317641 0.00277861905,6.76306899 0.0143477002,6.20825083 C0.020993768,5.89465796 0.0310859452,5.58032665 0.0478241902,5.26697992 C0.0591471206,5.05676932 0.0736700097,4.84729716 0.0936082133,4.63807114 C0.108623404,4.47807478 0.127084703,4.31832457 0.149730564,4.15955894 C0.162530399,4.06946868 0.176807137,3.97987072 0.19280693,3.89027276 C0.289790291,3.35194653 0.452249728,2.81066653 0.771753287,2.35972294 C0.822952625,2.2876015 0.877598072,2.21843384 0.935935779,2.15221996 C1.02750382,2.04859155 1.12793329,1.95259373 1.23599344,1.8657034 C1.40436049,1.73007571 1.59069654,1.61733981 1.78638632,1.52503422 C2.16127377,1.34879207 2.56791467,1.2468867 2.97529401,1.17894978 C3.26107493,1.13119702 3.54907121,1.09969004 3.83731363,1.07655211 C4.13097137,1.05316802 4.42512141,1.03864528 4.71976375,1.0280609 C5.14585055,1.01304586 5.57242965,1.00689215 5.99900874,1.00393837 C6.49943304,0.999753852 6.99985734,1.0004923 7.49978933,1 C7.51825063,1.00073844 7.53621963,1.00172304 7.55468093,1.00270763" id="Fill-3"></path>
          </g>
        </g>
      </g>
    </g>
  </g>
</svg>
