<?xml version="1.0" encoding="utf-8"?>
<!-- Generator: Adobe Illustrator 22.0.1, SVG Export Plug-In . SVG Version: 6.00 Build 0)  -->
<svg version="1.1" id="Layer_1" xmlns="http://www.w3.org/2000/svg" xmlns:xlink="http://www.w3.org/1999/xlink" x="0px" y="0px"
	 viewBox="0 0 18.7 18.7" style="enable-background:new 0 0 18.7 18.7;" xml:space="preserve">
<style type="text/css">
	.st0{fill-rule:evenodd;clip-rule:evenodd;fill:#F15528;}
	.st1{fill:#FFFFFF;}
</style>
<path class="st0" d="M9.3,0c5.2,0,9.3,4.2,9.3,9.3c0,5.2-4.2,9.3-9.3,9.3S0,14.5,0,9.3C0,4.2,4.2,0,9.3,0z"/>
<path class="st1" d="M15.1,9.4c-0.4-0.4-1.1-0.5-1.7-0.2l-0.9,0.4V5.4c0-0.7-0.6-1.3-1.3-1.3c-0.2,0-0.4,0-0.5,0.1
	c-0.1-0.6-0.6-1.2-1.3-1.2c-0.6,0-1.1,0.4-1.2,1C8.1,4,7.9,4,7.7,4C7,4,6.4,4.5,6.4,5.2v0.1C6.3,5.3,6.1,5.2,5.9,5.2
	c-0.7,0-1.3,0.6-1.3,1.3v4.4c0,2.5,2.1,4.6,4.6,4.6c1.2,0,2.4-0.5,3.2-1.3c0,0,2.7-2.9,2.7-2.9C15.6,10.7,15.6,9.9,15.1,9.4z
	 M14.6,10.7l-2.7,2.9c-0.7,0.7-1.7,1.1-2.7,1.1c-2.1,0-3.8-1.7-3.8-3.8V6.5C5.4,6.2,5.6,6,5.9,6c0.3,0,0.5,0.2,0.5,0.5v3.2
	c0,0.2,0.2,0.4,0.4,0.4C7,10,7.2,9.9,7.2,9.7V5.2c0-0.3,0.2-0.5,0.5-0.5s0.5,0.2,0.5,0.5v4.4c0,0.2,0.2,0.4,0.4,0.4S9,9.9,9,9.7V4.4
	c0-0.3,0.2-0.5,0.5-0.5S10,4.1,10,4.4v5.3c0,0.2,0.2,0.4,0.4,0.4s0.4-0.2,0.4-0.4V5.4c0-0.3,0.2-0.5,0.5-0.5c0.3,0,0.5,0.2,0.5,0.5
	v4.9c0,0,0,0,0,0v0.7c0,0.2,0.2,0.4,0.4,0.4s0.4-0.2,0.4-0.4v-0.5l1.2-0.6c0.2-0.1,0.6-0.2,0.8,0.1C14.8,10.2,14.8,10.5,14.6,10.7z"
	/>
</svg>
