<?xml version="1.0" encoding="utf-8"?>
<!-- Generator: Adobe Illustrator 22.0.1, SVG Export Plug-In . SVG Version: 6.00 Build 0)  -->
<svg version="1.1" id="Layer_1" xmlns="http://www.w3.org/2000/svg" xmlns:xlink="http://www.w3.org/1999/xlink" x="0px" y="0px"
	 viewBox="0 5.7 15.3 15.3" style="enable-background:new 0 5.7 15.3 15.3;" xml:space="preserve">
<style type="text/css">
	.st0{fill:#2170B8;}
</style>
<g>
	<g>
		<path class="st0" d="M15.3,13.3c0-4.2-3.4-7.7-7.7-7.7S0,9.1,0,13.3S3.4,21,7.7,21S15.3,17.6,15.3,13.3 M11.8,13.6
			c0,0.5-0.4,0.9-0.9,0.9H8.7v2.2c0,0.5-0.4,0.9-0.9,0.9H7.4c-0.5,0-0.9-0.4-0.9-0.9v-2.2H4.4c-0.5,0-0.9-0.4-0.9-0.9v-0.5
			c0-0.5,0.4-0.9,0.9-0.9h2.2v-2.2c0-0.5,0.4-0.9,0.9-0.9h0.5c0.5,0,0.9,0.4,0.9,0.9v2.2h2.2c0.5,0,0.9,0.4,0.9,0.9V13.6L11.8,13.6z
			"/>
	</g>
</g>
</svg>
