<?xml version="1.0" encoding="utf-8"?>
<!-- Generator: Adobe Illustrator 19.2.1, SVG Export Plug-In . SVG Version: 6.00 Build 0)  -->
<svg version="1.1" id="Layer_1" xmlns="http://www.w3.org/2000/svg" xmlns:xlink="http://www.w3.org/1999/xlink" x="0px" y="0px"
	 viewBox="-47.6 623.1 19.5 19.5" style="enable-background:new -47.6 623.1 19.5 19.5;" xml:space="preserve">
<style type="text/css">
	.st0{fill:#FFFFFF;}
</style>
<g>
	<polygon class="st0" points="-37.3,628.3 -38.4,628.3 -38.4,632.3 -42.5,632.3 -42.5,633.4 -38.4,633.4 -38.4,637.5 -37.3,637.5 
		-37.3,633.4 -33.3,633.4 -33.3,632.3 -37.3,632.3 	"/>
	<path class="st0" d="M-37.9,623.1c-5.4,0-9.7,4.4-9.7,9.7s4.4,9.7,9.7,9.7s9.7-4.4,9.7-9.7S-32.5,623.1-37.9,623.1z M-37.9,641.5
		c-4.8,0-8.6-3.9-8.6-8.6s3.9-8.6,8.6-8.6s8.6,3.9,8.6,8.6S-33.1,641.5-37.9,641.5z"/>
</g>
</svg>
