<?xml version="1.0" encoding="utf-8"?>
<!-- Generator: Adobe Illustrator 19.2.1, SVG Export Plug-In . SVG Version: 6.00 Build 0)  -->
<svg version="1.1" id="Layer_1" xmlns="http://www.w3.org/2000/svg" xmlns:xlink="http://www.w3.org/1999/xlink" x="0px" y="0px"
	 viewBox="0 0 12.1 12.1" style="enable-background:new 0 0 12.1 12.1;" xml:space="preserve">
<style type="text/css">
	.st0{fill:#E1A900;}
</style>
<g>
	<g transform="translate(-1846.000000, -18.000000)">
		<path class="st0" d="M1851.1,24.8c0,0.5,0.5,1,1,1c0.5,0,1-0.4,1-1l0.2-4.1c0-0.5-0.5-1-1.2-1c-0.7,0-1.3,0.4-1.2,1 M1846,24.1
			c0-3.4,2.7-6.1,6.1-6.1c3.4,0,6.1,2.7,6.1,6.1c0,3.4-2.7,6.1-6.1,6.1C1848.7,30.1,1846,27.4,1846,24.1z M1852.1,28.4
			c0.5,0,1-0.4,1-1s-0.4-1-1-1s-1,0.4-1,1S1851.6,28.4,1852.1,28.4z"/>
	</g>
</g>
</svg>
