<?xml version="1.0" encoding="UTF-8"?>
<svg width="20px" height="17px" viewBox="0 0 20 17" version="1.1" xmlns="http://www.w3.org/2000/svg" xmlns:xlink="http://www.w3.org/1999/xlink">
    <!-- Generator: Sketch 53.2 (72643) - https://sketchapp.com -->
    <title>Group 11 Copy 2</title>
    <desc>Created with Sketch.</desc>
    <g id="Page-2" stroke="none" stroke-width="1" fill="none" fill-rule="evenodd">
        <g id="Alert-Definition/1" transform="translate(-361.000000, -685.000000)" fill="#FFFFFF">
            <g id="Group-11-Copy-2" transform="translate(361.000000, 685.000000)">
                <path d="M0,17 L0,11.147541 L20,11.147541 L20,17 L0,17 Z M1.17647059,15.8295082 L18.8234824,15.8295082 L18.8234824,12.317986 L1.17647059,12.317986 L1.17647059,15.8295082 Z M0,2.16757741 L0,1.1147541 L1.31147541,1.1147541 L1.31147541,2.16757741 L0,2.16757741 Z M0,4.27322404 L0,3.22040073 L1.31147541,3.22040073 L1.31147541,4.27322404 L0,4.27322404 Z M0,6.37887067 L0,5.32608947 L1.31147541,5.32608947 L1.31147541,6.37887067 L0,6.37887067 Z M0,8.48447519 L0,7.43169399 L1.31147541,7.43169399 L1.31147541,8.48447519 L0,8.48447519 Z M0,10.5901639 L0,9.53734062 L1.31147541,9.53734062 L1.31147541,10.5901639 L0,10.5901639 Z M17.4022699,1.1147541 L17.4022699,0 L18.6885246,0 L18.6885246,1.1147541 L17.4022699,1.1147541 Z M14.8297604,1.1147541 L14.8297604,0 L16.1160151,0 L16.1160151,1.1147541 L14.8297604,1.1147541 Z M12.2572509,1.1147541 L12.2572509,0 L13.5435057,0 L13.5435057,1.1147541 L12.2572509,1.1147541 Z M9.68474149,1.1147541 L9.68474149,0 L10.9709962,0 L10.9709962,1.1147541 L9.68474149,1.1147541 Z M7.11223203,1.1147541 L7.11223203,0 L8.39843531,0 L8.39843531,1.1147541 L7.11223203,1.1147541 Z M4.53972257,1.1147541 L4.53972257,0 L5.8259773,0 L5.8259773,1.1147541 L4.53972257,1.1147541 Z M1.96721311,1.1147541 L1.96721311,0 L3.25341639,0 L3.25341639,1.1147541 L1.96721311,1.1147541 Z M18.6885246,2.16757741 L18.6885246,1.1147541 L20,1.1147541 L20,2.16757741 L18.6885246,2.16757741 Z M18.6885246,4.27322404 L18.6885246,3.22040073 L20,3.22040073 L20,4.27322404 L18.6885246,4.27322404 Z M18.6885246,6.37887067 L18.6885246,5.32608947 L20,5.32608947 L20,6.37887067 L18.6885246,6.37887067 Z M18.6885246,8.48447519 L18.6885246,7.43169399 L20,7.43169399 L20,8.48447519 L18.6885246,8.48447519 Z M18.6885246,10.5901639 L18.6885246,9.53734062 L20,9.53734062 L20,10.5901639 L18.6885246,10.5901639 Z M2.62295082,14.7704918 L2.62295082,13.6557377 L5.90163934,13.6557377 L5.90163934,14.7704918 L2.62295082,14.7704918 Z M6.55737705,14.7704918 L6.55737705,13.6557377 L9.83606557,13.6557377 L9.83606557,14.7704918 L6.55737705,14.7704918 Z M10.4918033,14.7704918 L10.4918033,13.6557377 L13.7704918,13.6557377 L13.7704918,14.7704918 L10.4918033,14.7704918 Z" id="Combined-Shape"></path>
            </g>
        </g>
    </g>
</svg>