<?xml version="1.0" encoding="utf-8"?>
<!-- Generator: Adobe Illustrator 19.2.1, SVG Export Plug-In . SVG Version: 6.00 Build 0)  -->
<svg version="1.1" id="Layer_1" xmlns="http://www.w3.org/2000/svg" xmlns:xlink="http://www.w3.org/1999/xlink" x="0px" y="0px"
	 viewBox="0 0 17.7 17.7" style="enable-background:new 0 0 17.7 17.7;" xml:space="preserve">
<style type="text/css">
	.st0{fill:#FF0000;}
</style>
<g>
	<g transform="translate(-1846.000000, -18.000000)">
		<path class="st0" d="M1853.4,28c0,0.8,0.7,1.4,1.5,1.4c0.8,0,1.5-0.6,1.5-1.4l0.3-5.9c0-0.8-0.8-1.4-1.8-1.4c-1,0-1.8,0.6-1.8,1.4
			 M1846,26.8c0-4.9,4-8.8,8.8-8.8c4.9,0,8.8,4,8.8,8.8c0,4.9-4,8.8-8.8,8.8C1850,35.7,1846,31.7,1846,26.8z M1854.9,33.2
			c0.8,0,1.4-0.6,1.4-1.4s-0.6-1.4-1.4-1.4c-0.8,0-1.4,0.6-1.4,1.4S1854.1,33.2,1854.9,33.2z"/>
	</g>
</g>
</svg>
