<?xml version="1.0" encoding="utf-8"?>
<!-- Generator: Adobe Illustrator 19.2.1, SVG Export Plug-In . SVG Version: 6.00 Build 0)  -->
<svg version="1.1" id="Layer_1" xmlns="http://www.w3.org/2000/svg" xmlns:xlink="http://www.w3.org/1999/xlink" x="0px" y="0px"
	 viewBox="0 0 50 50" style="enable-background:new 0 0 50 50;" xml:space="preserve">
<style type="text/css">
</style>
<g>
	<g>
		<path class="st0" d="M24.8,2.7C12.3,2.7,2.2,12.8,2.2,25.2s10.1,22.6,22.6,22.6s22.6-10.1,22.6-22.6S37.2,2.7,24.8,2.7z
			 M24.8,46.5C13,46.5,3.5,36.9,3.5,25.2S13,4,24.8,4C36.5,4,46,13.5,46,25.2S36.5,46.5,24.8,46.5z"/>
		<path class="st0" d="M24.8,48C12.2,48,1.9,37.8,1.9,25.2S12.2,2.4,24.8,2.4c12.6,0,22.8,10.2,22.8,22.8S37.3,48,24.8,48z
			 M24.8,4.2c-11.6,0-21,9.4-21,21s9.4,21,21,21c11.6,0,21-9.4,21-21S36.3,4.2,24.8,4.2z"/>
	</g>
</g>
<path id="logo_vector_copy" class="st0" d="M33.1,20.8v10h-0.9c-0.1-0.7-0.4-1.3-0.8-1.8c-0.5-0.6-1.3-1-2.1-1h-9.1
	c-0.8,0-1.6,0.4-2.1,1c-0.4,0.5-0.7,1.1-0.8,1.8h-0.9v-10h0.9c0.1,0.7,0.4,1.3,0.8,1.8c0.5,0.6,1.3,1,2.1,1h9.1c0.8,0,1.6-0.4,2.1-1
	c0.4-0.5,0.7-1.1,0.8-1.8H33.1L33.1,20.8z"/>
</svg>
