<?xml version="1.0" encoding="utf-8"?>
<!-- Generator: Adobe Illustrator 19.2.1, SVG Export Plug-In . SVG Version: 6.00 Build 0)  -->
<svg version="1.1" id="Layer_1" xmlns="http://www.w3.org/2000/svg" xmlns:xlink="http://www.w3.org/1999/xlink" x="0px" y="0px"
	 viewBox="0 0 33.8 33.8" style="enable-background:new 0 0 33.8 33.8;" xml:space="preserve">
<style type="text/css">
	.st0{clip-path:url(#SVGID_2_);fill:#2170B8;}
	.st1{clip-path:url(#SVGID_2_);fill:#2171B8;}
	.st2{clip-path:url(#SVGID_2_);fill:#2172B8;}
	.st3{clip-path:url(#SVGID_2_);fill:#2273B7;}
	.st4{clip-path:url(#SVGID_2_);fill:#2274B7;}
	.st5{clip-path:url(#SVGID_2_);fill:#2275B7;}
	.st6{clip-path:url(#SVGID_2_);fill:#2276B7;}
	.st7{clip-path:url(#SVGID_2_);fill:#2377B6;}
	.st8{clip-path:url(#SVGID_2_);fill:#2378B6;}
	.st9{clip-path:url(#SVGID_2_);fill:#2379B6;}
	.st10{clip-path:url(#SVGID_2_);fill:#237AB6;}
	.st11{clip-path:url(#SVGID_2_);fill:#247BB5;}
	.st12{clip-path:url(#SVGID_2_);fill:#247CB5;}
	.st13{clip-path:url(#SVGID_2_);fill:#247DB5;}
	.st14{clip-path:url(#SVGID_2_);fill:#247EB5;}
	.st15{clip-path:url(#SVGID_2_);fill:#247FB4;}
	.st16{clip-path:url(#SVGID_2_);fill:#2580B4;}
	.st17{clip-path:url(#SVGID_2_);fill:#2581B4;}
	.st18{clip-path:url(#SVGID_2_);fill:#2582B4;}
	.st19{clip-path:url(#SVGID_2_);fill:#2583B3;}
	.st20{clip-path:url(#SVGID_2_);fill:#2684B3;}
	.st21{clip-path:url(#SVGID_2_);fill:#2685B3;}
	.st22{clip-path:url(#SVGID_2_);fill:#2686B3;}
	.st23{clip-path:url(#SVGID_2_);fill:#2687B2;}
	.st24{clip-path:url(#SVGID_2_);fill:#2688B2;}
	.st25{clip-path:url(#SVGID_2_);fill:#2789B2;}
	.st26{clip-path:url(#SVGID_2_);fill:#278AB2;}
	.st27{clip-path:url(#SVGID_2_);fill:#278BB1;}
	.st28{clip-path:url(#SVGID_2_);fill:#278CB1;}
	.st29{clip-path:url(#SVGID_2_);fill:#288DB1;}
	.st30{clip-path:url(#SVGID_2_);fill:#288EB1;}
	.st31{clip-path:url(#SVGID_2_);fill:#288FB0;}
	.st32{clip-path:url(#SVGID_2_);fill:#2890B0;}
	.st33{clip-path:url(#SVGID_2_);fill:#2992B0;}
	.st34{clip-path:url(#SVGID_2_);fill:#2993B0;}
	.st35{clip-path:url(#SVGID_2_);fill:#2994B0;}
	.st36{clip-path:url(#SVGID_2_);fill:#2995AF;}
	.st37{clip-path:url(#SVGID_2_);fill:#2996AF;}
	.st38{clip-path:url(#SVGID_2_);fill:#2A97AF;}
	.st39{clip-path:url(#SVGID_2_);fill:#2A98AF;}
	.st40{clip-path:url(#SVGID_2_);fill:#2A99AE;}
	.st41{clip-path:url(#SVGID_2_);fill:#2A9AAE;}
	.st42{clip-path:url(#SVGID_2_);fill:#2B9BAE;}
	.st43{clip-path:url(#SVGID_2_);fill:#2B9CAE;}
	.st44{clip-path:url(#SVGID_2_);fill:#2B9DAD;}
	.st45{clip-path:url(#SVGID_2_);fill:#2B9EAD;}
	.st46{clip-path:url(#SVGID_2_);fill:#2B9FAD;}
	.st47{clip-path:url(#SVGID_2_);fill:#2CA0AD;}
	.st48{clip-path:url(#SVGID_2_);fill:#2CA1AC;}
	.st49{clip-path:url(#SVGID_2_);fill:#2CA2AC;}
	.st50{clip-path:url(#SVGID_2_);fill:#2CA3AC;}
	.st51{clip-path:url(#SVGID_2_);fill:#2DA4AC;}
	.st52{clip-path:url(#SVGID_2_);fill:#2DA5AB;}
	.st53{clip-path:url(#SVGID_2_);fill:#2DA6AB;}
	.st54{clip-path:url(#SVGID_2_);fill:#2DA7AB;}
	.st55{clip-path:url(#SVGID_2_);fill:#2EA8AB;}
	.st56{clip-path:url(#SVGID_2_);fill:#2EA9AA;}
	.st57{clip-path:url(#SVGID_2_);fill:#2EAAAA;}
	.st58{clip-path:url(#SVGID_2_);fill:#2EABAA;}
	.st59{clip-path:url(#SVGID_2_);fill:#2EACAA;}
	.st60{clip-path:url(#SVGID_2_);fill:#2FADA9;}
	.st61{clip-path:url(#SVGID_2_);fill:#2FAEA9;}
	.st62{clip-path:url(#SVGID_2_);fill:#2FAFA9;}
	.st63{clip-path:url(#SVGID_2_);fill:#2FB0A9;}
	.st64{clip-path:url(#SVGID_2_);fill:#30B1A8;}
	.st65{clip-path:url(#SVGID_2_);fill:#30B2A8;}
	.st66{clip-path:url(#SVGID_2_);fill:#30B3A8;}
	.st67{clip-path:url(#SVGID_4_);fill-rule:evenodd;clip-rule:evenodd;fill:#2B9FAD;}
	.st68{clip-path:url(#SVGID_4_);fill-rule:evenodd;clip-rule:evenodd;fill:#2CA0AD;}
	.st69{clip-path:url(#SVGID_4_);fill-rule:evenodd;clip-rule:evenodd;fill:#2CA1AC;}
	.st70{clip-path:url(#SVGID_4_);fill-rule:evenodd;clip-rule:evenodd;fill:#2CA2AC;}
	.st71{clip-path:url(#SVGID_4_);fill-rule:evenodd;clip-rule:evenodd;fill:#2CA3AC;}
	.st72{clip-path:url(#SVGID_4_);fill-rule:evenodd;clip-rule:evenodd;fill:#2DA4AC;}
	.st73{clip-path:url(#SVGID_4_);fill-rule:evenodd;clip-rule:evenodd;fill:#2DA5AB;}
	.st74{clip-path:url(#SVGID_4_);fill-rule:evenodd;clip-rule:evenodd;fill:#2DA6AB;}
	.st75{clip-path:url(#SVGID_4_);fill-rule:evenodd;clip-rule:evenodd;fill:#2DA7AB;}
	.st76{clip-path:url(#SVGID_4_);fill-rule:evenodd;clip-rule:evenodd;fill:#2EA8AB;}
	.st77{clip-path:url(#SVGID_4_);fill-rule:evenodd;clip-rule:evenodd;fill:#2EA9AA;}
	.st78{clip-path:url(#SVGID_4_);fill-rule:evenodd;clip-rule:evenodd;fill:#2EAAAA;}
	.st79{clip-path:url(#SVGID_4_);fill-rule:evenodd;clip-rule:evenodd;fill:#2EABAA;}
	.st80{clip-path:url(#SVGID_4_);fill-rule:evenodd;clip-rule:evenodd;fill:#2EACAA;}
	.st81{clip-path:url(#SVGID_4_);fill-rule:evenodd;clip-rule:evenodd;fill:#2FADA9;}
	.st82{clip-path:url(#SVGID_4_);fill-rule:evenodd;clip-rule:evenodd;fill:#2FAEA9;}
	.st83{clip-path:url(#SVGID_4_);fill-rule:evenodd;clip-rule:evenodd;fill:#2FAFA9;}
	.st84{clip-path:url(#SVGID_4_);fill-rule:evenodd;clip-rule:evenodd;fill:#2FB0A9;}
	.st85{clip-path:url(#SVGID_4_);fill-rule:evenodd;clip-rule:evenodd;fill:#30B1A8;}
	.st86{clip-path:url(#SVGID_4_);fill-rule:evenodd;clip-rule:evenodd;fill:#30B2A8;}
	.st87{clip-path:url(#SVGID_4_);fill-rule:evenodd;clip-rule:evenodd;fill:#30B3A8;}
</style>
<g>
	<g>
		<defs>
			<path id="SVGID_1_" d="M16.9,0C7.6,0,0,7.6,0,16.9c0,9.3,7.6,16.9,16.9,16.9s16.9-7.6,16.9-16.9C33.8,7.6,26.2,0,16.9,0z
				 M16.9,31.8C8.7,31.8,2,25.1,2,16.9S8.7,2,16.9,2s14.9,6.7,14.9,14.9S25.1,31.8,16.9,31.8z"/>
		</defs>
		<clipPath id="SVGID_2_">
			<use xlink:href="#SVGID_1_"  style="overflow:visible;"/>
		</clipPath>
		<rect x="2" y="31.8" class="st0" width="29.9" height="0.1"/>
		<rect x="2" y="31.4" class="st1" width="29.9" height="0.4"/>
		<rect x="2" y="31.1" class="st2" width="29.9" height="0.4"/>
		<rect x="2" y="30.7" class="st3" width="29.9" height="0.4"/>
		<rect x="2" y="30.3" class="st4" width="29.9" height="0.4"/>
		<rect x="2" y="30" class="st5" width="29.9" height="0.4"/>
		<rect x="2" y="29.6" class="st6" width="29.9" height="0.4"/>
		<rect x="2" y="29.3" class="st7" width="29.9" height="0.4"/>
		<rect x="2" y="28.9" class="st8" width="29.9" height="0.4"/>
		<rect x="2" y="28.5" class="st9" width="29.9" height="0.4"/>
		<rect x="2" y="28.2" class="st10" width="29.9" height="0.4"/>
		<rect x="2" y="27.8" class="st11" width="29.9" height="0.4"/>
		<rect x="2" y="27.5" class="st12" width="29.9" height="0.4"/>
		<rect x="2" y="27.1" class="st13" width="29.9" height="0.4"/>
		<rect x="2" y="26.7" class="st14" width="29.9" height="0.4"/>
		<rect x="2" y="26.4" class="st15" width="29.9" height="0.4"/>
		<rect x="2" y="26" class="st16" width="29.9" height="0.4"/>
		<rect x="2" y="25.7" class="st17" width="29.9" height="0.4"/>
		<rect x="2" y="25.3" class="st18" width="29.9" height="0.4"/>
		<rect x="2" y="24.9" class="st19" width="29.9" height="0.4"/>
		<rect x="2" y="24.6" class="st20" width="29.9" height="0.4"/>
		<rect x="2" y="24.2" class="st21" width="29.9" height="0.4"/>
		<rect x="2" y="23.9" class="st22" width="29.9" height="0.4"/>
		<rect x="2" y="23.5" class="st23" width="29.9" height="0.4"/>
		<rect x="2" y="23.2" class="st24" width="29.9" height="0.4"/>
		<rect x="2" y="22.8" class="st25" width="29.9" height="0.4"/>
		<rect x="2" y="22.4" class="st26" width="29.9" height="0.4"/>
		<rect x="2" y="22.1" class="st27" width="29.9" height="0.4"/>
		<rect x="2" y="21.7" class="st28" width="29.9" height="0.4"/>
		<rect x="2" y="21.4" class="st29" width="29.9" height="0.4"/>
		<rect x="2" y="21" class="st30" width="29.9" height="0.4"/>
		<rect x="2" y="20.6" class="st31" width="29.9" height="0.4"/>
		<rect x="2" y="20.3" class="st32" width="29.9" height="0.4"/>
		<rect x="2" y="19.9" class="st33" width="29.9" height="0.4"/>
		<rect x="2" y="19.6" class="st34" width="29.9" height="0.4"/>
		<rect x="2" y="19.2" class="st35" width="29.9" height="0.4"/>
		<rect x="2" y="18.8" class="st36" width="29.9" height="0.4"/>
		<rect x="2" y="18.5" class="st37" width="29.9" height="0.4"/>
		<rect x="2" y="18.1" class="st38" width="29.9" height="0.4"/>
		<rect x="2" y="17.8" class="st39" width="29.9" height="0.4"/>
		<rect x="2" y="17.4" class="st40" width="29.9" height="0.4"/>
		<rect x="2" y="17" class="st41" width="29.9" height="0.4"/>
		<rect x="2" y="16.7" class="st42" width="29.9" height="0.4"/>
		<rect x="2" y="16.3" class="st43" width="29.9" height="0.4"/>
		<rect x="2" y="16" class="st44" width="29.9" height="0.4"/>
		<rect x="2" y="15.6" class="st45" width="29.9" height="0.4"/>
		<rect x="2" y="15.2" class="st46" width="29.9" height="0.4"/>
		<rect x="2" y="14.9" class="st47" width="29.9" height="0.4"/>
		<rect x="2" y="14.5" class="st48" width="29.9" height="0.4"/>
		<rect x="2" y="14.2" class="st49" width="29.9" height="0.4"/>
		<rect x="2" y="13.8" class="st50" width="29.9" height="0.4"/>
		<rect x="2" y="13.5" class="st51" width="29.9" height="0.4"/>
		<rect x="2" y="13.1" class="st52" width="29.9" height="0.4"/>
		<rect x="2" y="12.7" class="st53" width="29.9" height="0.4"/>
		<rect x="2" y="12.4" class="st54" width="29.9" height="0.4"/>
		<rect x="2" y="12" class="st55" width="29.9" height="0.4"/>
		<rect x="2" y="11.7" class="st56" width="29.9" height="0.4"/>
		<rect x="2" y="11.3" class="st57" width="29.9" height="0.4"/>
		<rect x="2" y="10.9" class="st58" width="29.9" height="0.4"/>
		<rect x="2" y="10.6" class="st59" width="29.9" height="0.4"/>
		<rect x="2" y="10.2" class="st60" width="29.9" height="0.4"/>
		<rect x="2" y="9.9" class="st61" width="29.9" height="0.4"/>
		<rect x="2" y="9.5" class="st62" width="29.9" height="0.4"/>
		<rect x="2" y="9.1" class="st63" width="29.9" height="0.4"/>
		<rect x="2" y="8.8" class="st64" width="29.9" height="0.4"/>
		<rect x="2" y="8.4" class="st65" width="29.9" height="0.4"/>
		<rect x="2" y="8.1" class="st66" width="29.9" height="0.4"/>
		<rect x="2" y="2" class="st66" width="29.9" height="6.1"/>
		<rect y="32.1" class="st0" width="33.8" height="1.6"/>
		<rect y="31.8" class="st0" width="33.8" height="0.4"/>
		<rect y="31.4" class="st1" width="33.8" height="0.4"/>
		<rect y="31.1" class="st2" width="33.8" height="0.4"/>
		<rect y="30.7" class="st3" width="33.8" height="0.4"/>
		<rect y="30.3" class="st4" width="33.8" height="0.4"/>
		<rect y="30" class="st5" width="33.8" height="0.4"/>
		<rect y="29.6" class="st6" width="33.8" height="0.4"/>
		<rect y="29.3" class="st7" width="33.8" height="0.4"/>
		<rect y="28.9" class="st8" width="33.8" height="0.4"/>
		<rect y="28.5" class="st9" width="33.8" height="0.4"/>
		<rect y="28.2" class="st10" width="33.8" height="0.4"/>
		<rect y="27.8" class="st11" width="33.8" height="0.4"/>
		<rect y="27.5" class="st12" width="33.8" height="0.4"/>
		<rect y="27.1" class="st13" width="33.8" height="0.4"/>
		<rect y="26.7" class="st14" width="33.8" height="0.4"/>
		<rect y="26.4" class="st15" width="33.8" height="0.4"/>
		<rect y="26" class="st16" width="33.8" height="0.4"/>
		<rect y="25.7" class="st17" width="33.8" height="0.4"/>
		<rect y="25.3" class="st18" width="33.8" height="0.4"/>
		<rect y="24.9" class="st19" width="33.8" height="0.4"/>
		<rect y="24.6" class="st20" width="33.8" height="0.4"/>
		<rect y="24.2" class="st21" width="33.8" height="0.4"/>
		<rect y="23.9" class="st22" width="33.8" height="0.4"/>
		<rect y="23.5" class="st23" width="33.8" height="0.4"/>
		<rect y="23.2" class="st24" width="33.8" height="0.4"/>
		<rect y="22.8" class="st25" width="33.8" height="0.4"/>
		<rect y="22.4" class="st26" width="33.8" height="0.4"/>
		<rect y="22.1" class="st27" width="33.8" height="0.4"/>
		<rect y="21.7" class="st28" width="33.8" height="0.4"/>
		<rect y="21.4" class="st29" width="33.8" height="0.4"/>
		<rect y="21" class="st30" width="33.8" height="0.4"/>
		<rect y="20.6" class="st31" width="33.8" height="0.4"/>
		<rect y="20.3" class="st32" width="33.8" height="0.4"/>
		<rect y="19.9" class="st33" width="33.8" height="0.4"/>
		<rect y="19.6" class="st34" width="33.8" height="0.4"/>
		<rect y="19.2" class="st35" width="33.8" height="0.4"/>
		<rect y="18.8" class="st36" width="33.8" height="0.4"/>
		<rect y="18.5" class="st37" width="33.8" height="0.4"/>
		<rect y="18.1" class="st38" width="33.8" height="0.4"/>
		<rect y="17.8" class="st39" width="33.8" height="0.4"/>
		<rect y="17.4" class="st40" width="33.8" height="0.4"/>
		<rect y="17" class="st41" width="33.8" height="0.4"/>
		<rect y="16.7" class="st42" width="33.8" height="0.4"/>
		<rect y="16.3" class="st43" width="33.8" height="0.4"/>
		<rect y="16" class="st44" width="33.8" height="0.4"/>
		<rect y="15.6" class="st45" width="33.8" height="0.4"/>
		<rect y="15.2" class="st46" width="33.8" height="0.4"/>
		<rect y="14.9" class="st47" width="33.8" height="0.4"/>
		<rect y="14.5" class="st48" width="33.8" height="0.4"/>
		<rect y="14.2" class="st49" width="33.8" height="0.4"/>
		<rect y="13.8" class="st50" width="33.8" height="0.4"/>
		<rect y="13.5" class="st51" width="33.8" height="0.4"/>
		<rect y="13.1" class="st52" width="33.8" height="0.4"/>
		<rect y="12.7" class="st53" width="33.8" height="0.4"/>
		<rect y="12.4" class="st54" width="33.8" height="0.4"/>
		<rect y="12" class="st55" width="33.8" height="0.4"/>
		<rect y="11.7" class="st56" width="33.8" height="0.4"/>
		<rect y="11.3" class="st57" width="33.8" height="0.4"/>
		<rect y="10.9" class="st58" width="33.8" height="0.4"/>
		<rect y="10.6" class="st59" width="33.8" height="0.4"/>
		<rect y="10.2" class="st60" width="33.8" height="0.4"/>
		<rect y="9.9" class="st61" width="33.8" height="0.4"/>
		<rect y="9.5" class="st62" width="33.8" height="0.4"/>
		<rect y="9.1" class="st63" width="33.8" height="0.4"/>
		<rect y="8.8" class="st64" width="33.8" height="0.4"/>
		<rect y="8.4" class="st65" width="33.8" height="0.4"/>
		<rect y="8.1" class="st66" width="33.8" height="0.4"/>
		<rect class="st66" width="33.8" height="8.1"/>
	</g>
</g>
<g>
	<g>
		<defs>
			<path id="SVGID_3_" d="M24.2,12.5v8.7h-0.8c-0.1-0.6-0.3-1.1-0.7-1.6c-0.5-0.6-1.1-0.9-1.8-0.9h-6.8c-0.7,0-2.4,0.3-2.9,0.9
				c-0.4,0.5-0.6,1-0.7,1.6H9.6v-8.7h0.8c0.1,0.6,0.3,1.1,0.7,1.5c0.5,0.6,2.2,0.9,2.9,0.9h6.8c0.7,0,1.3-0.3,1.8-0.9
				c0.4-0.4,0.6-1,0.7-1.5H24.2z"/>
		</defs>
		<clipPath id="SVGID_4_">
			<use xlink:href="#SVGID_3_"  style="overflow:visible;"/>
		</clipPath>
		<rect x="9.6" y="21" class="st67" width="14.5" height="0.2"/>
		<rect x="9.6" y="20.7" class="st68" width="14.5" height="0.3"/>
		<rect x="9.6" y="20.5" class="st69" width="14.5" height="0.3"/>
		<rect x="9.6" y="20.2" class="st70" width="14.5" height="0.3"/>
		<rect x="9.6" y="19.9" class="st71" width="14.5" height="0.3"/>
		<rect x="9.6" y="19.6" class="st72" width="14.5" height="0.3"/>
		<rect x="9.6" y="19.3" class="st73" width="14.5" height="0.3"/>
		<rect x="9.6" y="19" class="st74" width="14.5" height="0.3"/>
		<rect x="9.6" y="18.8" class="st75" width="14.5" height="0.3"/>
		<rect x="9.6" y="18.5" class="st76" width="14.5" height="0.3"/>
		<rect x="9.6" y="18.2" class="st77" width="14.5" height="0.3"/>
		<rect x="9.6" y="17.9" class="st78" width="14.5" height="0.3"/>
		<rect x="9.6" y="17.6" class="st79" width="14.5" height="0.3"/>
		<rect x="9.6" y="17.3" class="st80" width="14.5" height="0.3"/>
		<rect x="9.6" y="17" class="st81" width="14.5" height="0.3"/>
		<rect x="9.6" y="16.8" class="st82" width="14.5" height="0.3"/>
		<rect x="9.6" y="16.5" class="st83" width="14.5" height="0.3"/>
		<rect x="9.6" y="16.2" class="st84" width="14.5" height="0.3"/>
		<rect x="9.6" y="15.9" class="st85" width="14.5" height="0.3"/>
		<rect x="9.6" y="15.6" class="st86" width="14.5" height="0.3"/>
		<rect x="9.6" y="15.3" class="st87" width="14.5" height="0.3"/>
		<rect x="9.6" y="12.5" class="st87" width="14.5" height="2.8"/>
	</g>
</g>
</svg>
