<?xml version="1.0" encoding="utf-8"?>
<!-- Generator: Adobe Illustrator 21.1.0, SVG Export Plug-In . SVG Version: 6.00 Build 0)  -->
<svg version="1.1" id="Layer_1" xmlns="http://www.w3.org/2000/svg" xmlns:xlink="http://www.w3.org/1999/xlink" x="0px" y="0px"
	 viewBox="0 0 85.3 65.5" style="enable-background:new 0 0 85.3 65.5;" xml:space="preserve">
<style type="text/css">
	.st0{fill:url(#SVGID_1_);}
	.st1{fill:url(#SVGID_2_);}
</style>
<g>
	<g>
		<linearGradient id="SVGID_1_" gradientUnits="userSpaceOnUse" x1="48.4078" y1="53.4603" x2="48.4078" y2="16.3844">
			<stop  offset="0" style="stop-color:#2170B8"/>
			<stop  offset="1" style="stop-color:#30B3A8"/>
		</linearGradient>
		<path class="st0" d="M51.5,42.1h-9.1c-7,0-12.7-5.7-12.7-12.7c0-7,5.7-12.7,12.7-12.7h12c7,0,12.7,5.7,12.7,12.6
			c0,5.7-3.6,10.6-9,12.2l-0.4-1.4c4.8-1.4,8-5.8,8-10.8c0-6.1-5-11.1-11.2-11.1h-12c-6.2,0-11.2,5-11.2,11.2s5,11.2,11.2,11.2h9.1
			V42.1z"/>
	</g>
	<g>
		<linearGradient id="SVGID_2_" gradientUnits="userSpaceOnUse" x1="36.8422" y1="53.4603" x2="36.8422" y2="16.3844">
			<stop  offset="0" style="stop-color:#2170B8"/>
			<stop  offset="1" style="stop-color:#30B3A8"/>
		</linearGradient>
		<path class="st1" d="M42.8,52.6h-12c-7,0-12.7-5.7-12.7-12.7c0-5.5,3.7-10.5,9-12.1l0.4,1.4c-4.7,1.4-8,5.8-8,10.7
			c0,6.2,5,11.2,11.2,11.2h12c6.2,0,11.2-5,11.2-11.2c0-6.2-5-11.2-11.2-11.2h-9.1v-1.5h9.1c7,0,12.7,5.7,12.7,12.7
			C55.5,46.9,49.8,52.6,42.8,52.6z"/>
	</g>
</g>
</svg>
