<?xml version="1.0" encoding="utf-8"?>
<!-- Generator: Adobe Illustrator 21.1.0, SVG Export Plug-In . SVG Version: 6.00 Build 0)  -->
<svg version="1.1" id="Layer_1" xmlns="http://www.w3.org/2000/svg" xmlns:xlink="http://www.w3.org/1999/xlink" x="0px" y="0px"
	 viewBox="0 0 23.3 17.3" style="enable-background:new 0 0 23.3 17.3;" xml:space="preserve">
<style type="text/css">
	.st0{fill:none;stroke:#FFFFFF;stroke-width:1.5;stroke-miterlimit:10;}
</style>
<g>
	<path class="st0" d="M18.6,11.5c2.3-0.7,3.9-2.8,3.9-5.3l0,0c0-3-2.4-5.4-5.5-5.4h-5.5c-3,0-5.5,2.4-5.5,5.5l0,0
		c0,3,2.4,5.5,5.5,5.5h4.2"/>
	<path class="st0" d="M4.7,5.8C2.4,6.5,0.8,8.6,0.8,11l0,0c0,3,2.4,5.5,5.5,5.5h5.5c3,0,5.5-2.4,5.5-5.5l0,0c0-3-2.4-5.5-5.5-5.5
		H7.6"/>
</g>
</svg>
