<?xml version="1.0" encoding="utf-8"?>
<!-- Generator: Adobe Illustrator 22.0.1, SVG Export Plug-In . SVG Version: 6.00 Build 0)  -->
<svg version="1.1" id="Layer_1" xmlns="http://www.w3.org/2000/svg" xmlns:xlink="http://www.w3.org/1999/xlink" x="0px" y="0px"
	 viewBox="0 0 52.3 47.7" style="enable-background:new 0 0 52.3 47.7;" xml:space="preserve">
<style type="text/css">
	.st0{fill:url(#SVGID_1_);}
</style>
<g>
	<g>
		
			<linearGradient id="SVGID_1_" gradientUnits="userSpaceOnUse" x1="-32.675" y1="46.6084" x2="-32.675" y2="1.6059" gradientTransform="matrix(1 0 0 1 57 0)">
			<stop  offset="0" style="stop-color:#2170B8"/>
			<stop  offset="0.1307" style="stop-color:#247DB5"/>
			<stop  offset="0.4815" style="stop-color:#2B9AAE"/>
			<stop  offset="0.7835" style="stop-color:#2FADAA"/>
			<stop  offset="1" style="stop-color:#30B3A8"/>
		</linearGradient>
		<path class="st0" d="M41.2,1.6H7.5c-3.1,0-5.6,2.5-5.6,5.6V41c0,3.1,2.5,5.6,5.6,5.6h33.7c3.1,0,5.6-2.5,5.6-5.6V7.2
			C46.8,4.1,44.3,1.6,41.2,1.6z M3.4,8.8c0-3.1,2.5-5.6,5.6-5.6h30.5c3.1,0,5.6,2.5,5.6,5.6v16.9H33l-3-10.7
			c-0.1-0.3-0.4-0.6-0.8-0.6c-0.4,0-0.7,0.2-0.8,0.6l-2.7,9.5l-1.5-2.4c-0.2-0.3-0.5-0.4-0.8-0.4c-0.3,0-0.6,0.2-0.7,0.5l-1.7,5.1
			L17.8,19c-0.1-0.3-0.4-0.5-0.8-0.5c-0.3,0-0.6,0.2-0.7,0.5l-2.2,6.7H3.4V8.8z M45.2,39.4c0,3.1-2.5,5.6-5.6,5.6H9.1
			c-3.1,0-5.6-2.5-5.6-5.6V27.3h11.2c0.3,0,0.7-0.2,0.8-0.5l1.7-5.1l3.2,8.4c0.1,0.3,0.4,0.5,0.8,0.5h0c0.3,0,0.6-0.2,0.7-0.5
			l1.9-5.6l1.5,2.5c0.2,0.3,0.5,0.4,0.8,0.4c0.3,0,0.6-0.3,0.7-0.6l2.4-8.6l2.4,8.5c0.1,0.3,0.4,0.6,0.8,0.6h12.9V39.4z"/>
	</g>
</g>
</svg>
