<?xml version="1.0" encoding="UTF-8"?>
<svg width="13px" height="9px" viewBox="0 0 13 9" version="1.1" xmlns="http://www.w3.org/2000/svg" xmlns:xlink="http://www.w3.org/1999/xlink">
    <!-- Generator: Sketch 53.2 (72643) - https://sketchapp.com -->
    <title>icons/ui elements/arrows/dropdown4</title>
    <desc>Created with Sketch.</desc>
    <g id="Page-2" stroke="none" stroke-width="1" fill="none" fill-rule="evenodd">
        <g id="--Additional-Settings/Auto-text-templates-6" transform="translate(-370.000000, -338.000000)" fill="#0F76C7">
            <g id="Group-2" transform="translate(353.000000, 322.000000)">
                <g id="icons/ui-elements/arrows/dropdown" transform="translate(17.000000, 16.000000)">
                    <path d="M12.2668005,0.00133585739 C12.6412005,-0.0218069998 12.9636005,0.258478715 12.9870005,0.630050143 C12.9974005,0.775335857 12.9584005,0.920621572 12.8765005,1.04276443 C12.6295005,1.45805014 7.54650048,7.952193 7.11750048,8.66062157 C6.90690048,9.00133586 6.45580048,9.10805014 6.11130048,8.89976443 C6.01250048,8.84062157 5.93060048,8.75833586 5.86950048,8.66062157 C5.54450048,8.14633586 0.44850048,1.625193 0.0975004803,1.022193 C-0.0961995197,0.703335857 0.0078004803,0.289335857 0.32890048,0.0977644288 C0.44330048,0.0296215717 0.57590048,-0.00380699975 0.70850048,0.00133585739 L12.2668005,0.00133585739 Z" id="Fill-1"></path>
                </g>
            </g>
        </g>
    </g>
</svg>