<?xml version="1.0" encoding="utf-8"?>
<!-- Generator: Adobe Illustrator 19.2.1, SVG Export Plug-In . SVG Version: 6.00 Build 0)  -->
<svg version="1.1" id="Layer_1" xmlns="http://www.w3.org/2000/svg" xmlns:xlink="http://www.w3.org/1999/xlink" x="0px" y="0px"
	 viewBox="0 0 15 11" style="enable-background:new 0 0 15 11;" xml:space="preserve">
<style type="text/css">
	.st0{fill:#FFFFFF;}
</style>
<path class="st0" d="M13,3c-0.3-0.3-0.8-0.3-1.1,0L7.5,7.4L3.1,3C2.9,2.9,2.7,2.8,2.5,2.8l0,0C2.3,2.8,2.1,2.9,2,3S1.8,3.3,1.8,3.6
	S1.8,4,2,4.1l5,5c0.1,0.1,0.3,0.2,0.6,0.2c0.2,0,0.4-0.1,0.6-0.2l5-5c0.1-0.1,0.2-0.3,0.2-0.6S13.2,3.1,13,3z"/>
</svg>
