<?xml version="1.0" encoding="utf-8"?>
<!-- Generator: Adobe Illustrator 19.2.1, SVG Export Plug-In . SVG Version: 6.00 Build 0)  -->
<svg version="1.1" id="Layer_1" xmlns="http://www.w3.org/2000/svg" xmlns:xlink="http://www.w3.org/1999/xlink" x="0px" y="0px"
	 viewBox="0 0 15.4 17.2" style="enable-background:new 0 0 15.4 17.2;" xml:space="preserve">
<style type="text/css">
	.st0{fill:#FFFFFF;}
</style>
<g>
	<path class="st0" d="M15,2.7l-4.8-2.3c0,0-0.1,0-0.1,0L5.2,2.7c0,0,0,0,0,0.1v4.7L0.4,9.7c0,0,0,0,0,0.1v4.7c0,0,0,0,0,0.1l4.8,2.3
		c0,0,0.1,0,0.1,0l4.8-2.3l0,0l4.8-2.3c0,0,0,0,0-0.1L15,2.7C15,2.7,15,2.7,15,2.7z M14.9,7.4l-4.7,2.3V5.1l4.7-2.3V7.4z M10,5.1
		v4.5L5.3,7.4V2.9L10,5.1z M5.3,7.5L10,9.8l-4.7,2.3L0.6,9.8L5.3,7.5z M5.3,12.2L10,9.9v4.5l-4.7,2.3V12.2z M10.1,0.5l4.7,2.3
		L10.1,5L5.4,2.7L10.1,0.5z M0.5,9.9l4.7,2.3v4.5l-4.7-2.3V9.9z M10.2,14.4V9.8l4.7-2.3v4.5L10.2,14.4z"/>
	<path class="st0" d="M5.4,17.2c-0.1,0-0.2,0-0.3,0L5,17.2l-4.8-2.3C0.1,14.8,0,14.6,0,14.5V9.9l0-0.2c0-0.1,0.1-0.1,0.1-0.2
		l0.1-0.1l4.6-2.2V2.9l0-0.2c0-0.1,0.1-0.1,0.1-0.2l0.1-0.1L9.9,0C10,0,10.2,0,10.3,0l4.8,2.3l0.1,0.1c0.1,0.1,0.1,0.1,0.1,0.2
		l0,0.2v9.3c0,0.2-0.1,0.3-0.2,0.4l-9.6,4.7L5.4,17.2z M5.7,12.4v3.8l4-1.9v-3.8L5.7,12.4z M0.8,14.2l4,1.9v-3.8l-4-1.9V14.2z
		 M10.5,10v3.8l4-1.9V8.1L10.5,10z M1.4,9.8l3.9,1.9l3.9-1.9L5.3,7.9L1.4,9.8z M5.7,7.2l4,1.9V5.3l-4-1.9V7.2z M10.5,5.3v3.8l4-1.9
		V3.4L10.5,5.3z M6.2,2.7l3.9,1.9L14,2.7l-3.9-1.9L6.2,2.7z"/>
</g>
</svg>
