<?xml version="1.0" encoding="utf-8"?>
<!-- Generator: Adobe Illustrator 22.1.0, SVG Export Plug-In . SVG Version: 6.00 Build 0)  -->
<svg version="1.1" id="Isolation_Mode" xmlns="http://www.w3.org/2000/svg" x="0px"
     y="0px" viewBox="0 0 140 50.4" style="enable-background:new 0 0 140 50.4;" xml:space="preserve">
<style type="text/css">
	.st0{opacity:0.6;}
	.st1{fill:none;stroke:url(#SVGID_1_);stroke-linecap:round;stroke-linejoin:round;}
	.st2{fill:none;stroke:url(#SVGID_2_);stroke-linecap:round;stroke-linejoin:round;stroke-dasharray:1.3333,1.3333;}
	.st3{fill:none;stroke:url(#SVGID_3_);stroke-linecap:round;stroke-linejoin:round;}
	.st4{fill:none;stroke:url(#SVGID_4_);stroke-linecap:round;stroke-linejoin:round;stroke-dasharray:1.9551,1.9551;}
	.st5{fill:none;stroke:url(#SVGID_5_);stroke-linecap:round;stroke-linejoin:round;}
	.st6{fill:none;stroke:url(#SVGID_6_);stroke-linecap:round;stroke-linejoin:round;stroke-dasharray:1.3333,1.3333;}
	.st7{fill:none;stroke:url(#SVGID_7_);stroke-linecap:round;stroke-linejoin:round;}
	.st8{fill:none;stroke:url(#SVGID_8_);stroke-linecap:round;stroke-linejoin:round;stroke-dasharray:1.9729,1.9729;}
	.st9{fill:none;stroke:url(#SVGID_9_);stroke-linecap:round;stroke-linejoin:round;}
	.st10{fill:none;stroke:url(#SVGID_10_);stroke-linecap:round;stroke-linejoin:round;stroke-dasharray:1.3333,1.3333;}
	.st11{fill:none;stroke:url(#SVGID_11_);stroke-linecap:round;stroke-linejoin:round;}
	.st12{fill:none;stroke:url(#SVGID_12_);stroke-linecap:round;stroke-linejoin:round;stroke-dasharray:2.0425,2.0425;}
	.st13{fill:none;stroke:url(#SVGID_13_);stroke-linecap:round;stroke-linejoin:round;}
	.st14{fill:none;stroke:url(#SVGID_14_);stroke-linecap:round;stroke-linejoin:round;stroke-dasharray:1.3333,1.3333;}
	.st15{fill:none;stroke:url(#SVGID_15_);stroke-linecap:round;stroke-linejoin:round;}
	.st16{fill:none;stroke:url(#SVGID_16_);stroke-linecap:round;stroke-linejoin:round;stroke-dasharray:2.0594,2.0594;}
	.st17{fill:none;stroke:url(#SVGID_17_);stroke-linecap:round;stroke-linejoin:round;}
	.st18{fill:none;stroke:url(#SVGID_18_);stroke-linecap:round;stroke-linejoin:round;stroke-dasharray:1.3333,1.3333;}
	.st19{fill:none;stroke:url(#SVGID_19_);stroke-linecap:round;stroke-linejoin:round;}
	.st20{fill:none;stroke:url(#SVGID_20_);stroke-linecap:round;stroke-linejoin:round;stroke-dasharray:1.9551,1.9551;}
	.st21{fill:none;stroke:url(#SVGID_21_);stroke-linecap:round;stroke-linejoin:round;}
	.st22{fill:none;stroke:url(#SVGID_22_);stroke-linecap:round;stroke-linejoin:round;stroke-dasharray:1.3333,1.3333;}
	.st23{fill:none;stroke:url(#SVGID_23_);stroke-linecap:round;stroke-linejoin:round;}
	.st24{fill:none;stroke:url(#SVGID_24_);stroke-linecap:round;stroke-linejoin:round;stroke-dasharray:1.9273,1.9273;}
	.st25{fill:none;stroke:url(#SVGID_25_);stroke-linecap:round;stroke-linejoin:round;}
	.st26{fill:none;stroke:url(#SVGID_26_);stroke-linecap:round;stroke-linejoin:round;stroke-dasharray:1.3333,1.3333;}
	.st27{fill:none;stroke:url(#SVGID_27_);stroke-linecap:round;stroke-linejoin:round;}
	.st28{fill:none;stroke:url(#SVGID_28_);stroke-linecap:round;stroke-linejoin:round;stroke-dasharray:1.9919,1.9919;}
	.st29{fill:none;stroke:url(#SVGID_29_);stroke-linecap:round;stroke-linejoin:round;}
	.st30{fill:none;stroke:url(#SVGID_30_);stroke-linecap:round;stroke-linejoin:round;stroke-dasharray:1.3334,1.3334;}
	.st31{fill:none;stroke:url(#SVGID_31_);stroke-linecap:round;stroke-linejoin:round;}
	.st32{fill:none;stroke:url(#SVGID_32_);stroke-linecap:round;stroke-linejoin:round;stroke-dasharray:2.0594,2.0594;}
	.st33{fill:none;stroke:url(#SVGID_33_);stroke-linecap:round;stroke-linejoin:round;}
	.st34{fill:none;stroke:url(#SVGID_34_);stroke-linecap:round;stroke-linejoin:round;stroke-dasharray:1.3334,1.3334;}
	.st35{fill:none;stroke:url(#SVGID_35_);stroke-linecap:round;stroke-linejoin:round;}
	.st36{fill:none;stroke:url(#SVGID_36_);stroke-linecap:round;stroke-linejoin:round;stroke-dasharray:1.9551,1.9551;}
	.st37{fill:none;stroke:url(#SVGID_37_);stroke-linecap:round;stroke-linejoin:round;stroke-dasharray:1.9551,1.9551;}
	.st38{fill:none;stroke:url(#SVGID_38_);stroke-linecap:round;stroke-linejoin:round;}
	.st39{fill:none;stroke:url(#SVGID_39_);stroke-linecap:round;stroke-linejoin:round;stroke-dasharray:1.3334,1.3334;}
	.st40{fill:none;stroke:url(#SVGID_40_);stroke-linecap:round;stroke-linejoin:round;}
	.st41{fill:none;stroke:url(#SVGID_41_);stroke-linecap:round;stroke-linejoin:round;stroke-dasharray:2.0646,2.0646;}
	.st42{fill:none;stroke:url(#SVGID_42_);stroke-linecap:round;stroke-linejoin:round;}
	.st43{fill:none;stroke:url(#SVGID_43_);stroke-linecap:round;stroke-linejoin:round;stroke-dasharray:1.3333,1.3333;}
	.st44{fill:none;stroke:url(#SVGID_44_);stroke-linecap:round;stroke-linejoin:round;}
	.st45{fill:none;stroke:url(#SVGID_45_);stroke-linecap:round;stroke-linejoin:round;stroke-dasharray:2.0963,2.0963;}
	.st46{fill:none;stroke:url(#SVGID_46_);stroke-linecap:round;stroke-linejoin:round;}
	.st47{fill:none;stroke:url(#SVGID_47_);stroke-linecap:round;stroke-linejoin:round;stroke-dasharray:1.3333,1.3333;}
	.st48{fill:none;stroke:url(#SVGID_48_);stroke-linecap:round;stroke-linejoin:round;}
	.st49{fill:none;stroke:url(#SVGID_49_);stroke-linecap:round;stroke-linejoin:round;stroke-dasharray:2.0594,2.0594;}
	.st50{fill:none;stroke:url(#SVGID_50_);stroke-linecap:round;stroke-linejoin:round;}
	.st51{fill:none;stroke:url(#SVGID_51_);stroke-linecap:round;stroke-linejoin:round;stroke-dasharray:1.3333,1.3333;}
	.st52{fill:none;stroke:url(#SVGID_52_);stroke-linecap:round;stroke-linejoin:round;}
	.st53{fill:none;stroke:url(#SVGID_53_);stroke-linecap:round;stroke-linejoin:round;stroke-dasharray:1.9551,1.9551;}
	.st54{fill:none;stroke:url(#SVGID_54_);stroke-linecap:round;stroke-linejoin:round;}
	.st55{fill:none;stroke:url(#SVGID_55_);stroke-linecap:round;stroke-linejoin:round;stroke-dasharray:1.3333,1.3333;}
	.st56{fill:none;stroke:url(#SVGID_56_);stroke-linecap:round;stroke-linejoin:round;}
	.st57{fill:none;stroke:url(#SVGID_57_);stroke-linecap:round;stroke-linejoin:round;stroke-dasharray:1.9729,1.9729;}
	.st58{fill:none;stroke:url(#SVGID_58_);stroke-linecap:round;stroke-linejoin:round;}
	.st59{fill:none;stroke:url(#SVGID_59_);stroke-linecap:round;stroke-linejoin:round;stroke-dasharray:1.3333,1.3333;}
	.st60{fill:none;stroke:url(#SVGID_60_);stroke-linecap:round;stroke-linejoin:round;}
	.st61{fill:none;stroke:url(#SVGID_61_);stroke-linecap:round;stroke-linejoin:round;stroke-dasharray:2.1003,2.1003;}
	.st62{fill:url(#SVGID_62_);}
	.st63{fill:url(#SVGID_63_);}
	.st64{fill:url(#SVGID_64_);}
	.st65{fill:url(#SVGID_65_);}
	.st66{fill:url(#SVGID_66_);}
	.st67{fill:url(#SVGID_67_);}
	.st68{fill:url(#SVGID_68_);}
	.st69{fill:url(#SVGID_69_);}
	.st70{fill:url(#SVGID_70_);}
	.st71{fill:url(#SVGID_71_);}
	.st72{fill:url(#SVGID_72_);}
	.st73{fill:url(#SVGID_73_);}
	.st74{fill:url(#SVGID_74_);}
	.st75{fill:url(#SVGID_75_);}
	.st76{fill:url(#SVGID_76_);}
	.st77{fill:url(#SVGID_77_);}
	.st78{fill:url(#SVGID_78_);}
	.st79{fill:url(#SVGID_79_);}
	.st80{fill:url(#SVGID_80_);}
	.st81{fill:url(#SVGID_81_);}
	.st82{fill:url(#SVGID_82_);}
	.st83{fill:url(#SVGID_83_);}
</style>
<g class="st0">
	<g>
		<linearGradient id="SVGID_1_" gradientUnits="userSpaceOnUse" x1="1" y1="50.4232" x2="1" y2="31.69">
			<stop  offset="0" style="stop-color:#2471B9"/>
			<stop  offset="1" style="stop-color:#2FB3A8"/>
		</linearGradient>
		<polyline class="st1" points="0.5,48.9 0.5,49.9 1.5,49.9 		"/>
		<linearGradient id="SVGID_2_" gradientUnits="userSpaceOnUse" x1="3.8333" y1="50.4232" x2="3.8333" y2="31.69">
			<stop  offset="0" style="stop-color:#2471B9"/>
			<stop  offset="1" style="stop-color:#2FB3A8"/>
		</linearGradient>
		<line class="st2" x1="2.8" y1="49.9" x2="4.8" y2="49.9"/>
		<linearGradient id="SVGID_3_" gradientUnits="userSpaceOnUse" x1="5.9999" y1="50.4232" x2="5.9999" y2="31.69">
			<stop  offset="0" style="stop-color:#2471B9"/>
			<stop  offset="1" style="stop-color:#2FB3A8"/>
		</linearGradient>
		<polyline class="st3" points="5.5,49.9 6.5,49.9 6.5,48.9 		"/>
		<linearGradient id="SVGID_4_" gradientUnits="userSpaceOnUse" x1="3.4999" y1="50.4232" x2="3.4999" y2="31.69">
			<stop  offset="0" style="stop-color:#2471B9"/>
			<stop  offset="1" style="stop-color:#2FB3A8"/>
		</linearGradient>
		<path class="st4" d="M6.5,47v-12c0-1.8-1.4-2.7-3.1-2.7c-1.7,0-2.9,0.9-2.9,2.7v13"/>
	</g>
	<g>
		<linearGradient id="SVGID_5_" gradientUnits="userSpaceOnUse" x1="11" y1="50.4232" x2="11" y2="31.4232">
			<stop  offset="0" style="stop-color:#2471B9"/>
			<stop  offset="1" style="stop-color:#2FB3A8"/>
		</linearGradient>
		<polyline class="st5" points="10.5,48.9 10.5,49.9 11.5,49.9 		"/>
		<linearGradient id="SVGID_6_" gradientUnits="userSpaceOnUse" x1="13.8333" y1="50.4232" x2="13.8333" y2="31.4232">
			<stop  offset="0" style="stop-color:#2471B9"/>
			<stop  offset="1" style="stop-color:#2FB3A8"/>
		</linearGradient>
		<line class="st6" x1="12.8" y1="49.9" x2="14.8" y2="49.9"/>
		<linearGradient id="SVGID_7_" gradientUnits="userSpaceOnUse" x1="15.9999" y1="50.4232" x2="15.9999" y2="31.4232">
			<stop  offset="0" style="stop-color:#2471B9"/>
			<stop  offset="1" style="stop-color:#2FB3A8"/>
		</linearGradient>
		<polyline class="st7" points="15.5,49.9 16.5,49.9 16.5,48.9 		"/>
		<linearGradient id="SVGID_8_" gradientUnits="userSpaceOnUse" x1="13.4999" y1="50.4232" x2="13.4999" y2="31.4232">
			<stop  offset="0" style="stop-color:#2471B9"/>
			<stop  offset="1" style="stop-color:#2FB3A8"/>
		</linearGradient>
		<path class="st8" d="M16.5,47v-12c0-1.8-1.3-3-3-3c-1.7,0-3,1.2-3,3v13"/>
	</g>
	<g>
		<linearGradient id="SVGID_9_" gradientUnits="userSpaceOnUse" x1="21" y1="50.4232" x2="21" y2="6.1682">
			<stop  offset="0" style="stop-color:#2471B9"/>
			<stop  offset="1" style="stop-color:#2FB3A8"/>
		</linearGradient>
		<polyline class="st9" points="20.5,48.9 20.5,49.9 21.5,49.9 		"/>
		<linearGradient id="SVGID_10_" gradientUnits="userSpaceOnUse" x1="23.8333" y1="50.4232" x2="23.8333" y2="6.1682">
			<stop  offset="0" style="stop-color:#2471B9"/>
			<stop  offset="1" style="stop-color:#2FB3A8"/>
		</linearGradient>
		<line class="st10" x1="22.8" y1="49.9" x2="24.8" y2="49.9"/>
		<linearGradient id="SVGID_11_" gradientUnits="userSpaceOnUse" x1="25.9999" y1="50.4232" x2="25.9999" y2="6.1682">
			<stop  offset="0" style="stop-color:#2471B9"/>
			<stop  offset="1" style="stop-color:#2FB3A8"/>
		</linearGradient>
		<polyline class="st11" points="25.5,49.9 26.5,49.9 26.5,48.9 		"/>
		<linearGradient id="SVGID_12_" gradientUnits="userSpaceOnUse" x1="23.4999" y1="50.4232" x2="23.4999" y2="6.1682">
			<stop  offset="0" style="stop-color:#2471B9"/>
			<stop  offset="1" style="stop-color:#2FB3A8"/>
		</linearGradient>
		<path class="st12" d="M26.5,46.9v-37c0-1.8-1.5-3.3-3.2-3.3s-2.8,1.4-2.8,3.3v38"/>
	</g>
	<g>
		<linearGradient id="SVGID_13_" gradientUnits="userSpaceOnUse" x1="31" y1="50.4232" x2="31" y2="24.4232">
			<stop  offset="0" style="stop-color:#2471B9"/>
			<stop  offset="1" style="stop-color:#2FB3A8"/>
		</linearGradient>
		<polyline class="st13" points="30.5,48.9 30.5,49.9 31.5,49.9 		"/>
		<linearGradient id="SVGID_14_" gradientUnits="userSpaceOnUse" x1="33.8333" y1="50.4232" x2="33.8333" y2="24.4232">
			<stop  offset="0" style="stop-color:#2471B9"/>
			<stop  offset="1" style="stop-color:#2FB3A8"/>
		</linearGradient>
		<line class="st14" x1="32.8" y1="49.9" x2="34.8" y2="49.9"/>
		<linearGradient id="SVGID_15_" gradientUnits="userSpaceOnUse" x1="36" y1="50.4232" x2="36" y2="24.4232">
			<stop  offset="0" style="stop-color:#2471B9"/>
			<stop  offset="1" style="stop-color:#2FB3A8"/>
		</linearGradient>
		<polyline class="st15" points="35.5,49.9 36.5,49.9 36.5,48.9 		"/>
		<linearGradient id="SVGID_16_" gradientUnits="userSpaceOnUse" x1="33.5" y1="50.4232" x2="33.5" y2="24.4232">
			<stop  offset="0" style="stop-color:#2471B9"/>
			<stop  offset="1" style="stop-color:#2FB3A8"/>
		</linearGradient>
		<path class="st16" d="M36.5,46.9V27.9c0-1.8-1.3-3-3-3s-3,1.2-3,3v20"/>
	</g>
	<g>
		<linearGradient id="SVGID_17_" gradientUnits="userSpaceOnUse" x1="41" y1="50.4232" x2="41" y2="31.69">
			<stop  offset="0" style="stop-color:#2471B9"/>
			<stop  offset="1" style="stop-color:#2FB3A8"/>
		</linearGradient>
		<polyline class="st17" points="40.5,48.9 40.5,49.9 41.5,49.9 		"/>
		<linearGradient id="SVGID_18_" gradientUnits="userSpaceOnUse" x1="43.8333" y1="50.4232" x2="43.8333" y2="31.69">
			<stop  offset="0" style="stop-color:#2471B9"/>
			<stop  offset="1" style="stop-color:#2FB3A8"/>
		</linearGradient>
		<line class="st18" x1="42.8" y1="49.9" x2="44.8" y2="49.9"/>
		<linearGradient id="SVGID_19_" gradientUnits="userSpaceOnUse" x1="46" y1="50.4232" x2="46" y2="31.69">
			<stop  offset="0" style="stop-color:#2471B9"/>
			<stop  offset="1" style="stop-color:#2FB3A8"/>
		</linearGradient>
		<polyline class="st19" points="45.5,49.9 46.5,49.9 46.5,48.9 		"/>
		<linearGradient id="SVGID_20_" gradientUnits="userSpaceOnUse" x1="43.5" y1="50.4232" x2="43.5" y2="31.69">
			<stop  offset="0" style="stop-color:#2471B9"/>
			<stop  offset="1" style="stop-color:#2FB3A8"/>
		</linearGradient>
		<path class="st20" d="M46.5,47v-12c0-1.8-1.4-2.7-3.1-2.7c-1.7,0-2.9,0.9-2.9,2.7v13"/>
	</g>
	<g>
		<linearGradient id="SVGID_21_" gradientUnits="userSpaceOnUse" x1="51" y1="50.4232" x2="51" y2="35.4232">
			<stop  offset="0" style="stop-color:#2471B9"/>
			<stop  offset="1" style="stop-color:#2FB3A8"/>
		</linearGradient>
		<polyline class="st21" points="50.5,48.9 50.5,49.9 51.5,49.9 		"/>
		<linearGradient id="SVGID_22_" gradientUnits="userSpaceOnUse" x1="53.8333" y1="50.4232" x2="53.8333" y2="35.4232">
			<stop  offset="0" style="stop-color:#2471B9"/>
			<stop  offset="1" style="stop-color:#2FB3A8"/>
		</linearGradient>
		<line class="st22" x1="52.8" y1="49.9" x2="54.8" y2="49.9"/>
		<linearGradient id="SVGID_23_" gradientUnits="userSpaceOnUse" x1="56" y1="50.4232" x2="56" y2="35.4232">
			<stop  offset="0" style="stop-color:#2471B9"/>
			<stop  offset="1" style="stop-color:#2FB3A8"/>
		</linearGradient>
		<polyline class="st23" points="55.5,49.9 56.5,49.9 56.5,48.9 		"/>
		<linearGradient id="SVGID_24_" gradientUnits="userSpaceOnUse" x1="53.5" y1="50.4232" x2="53.5" y2="35.4232">
			<stop  offset="0" style="stop-color:#2471B9"/>
			<stop  offset="1" style="stop-color:#2FB3A8"/>
		</linearGradient>
		<path class="st24" d="M56.5,47v-7.1c0-1.8-1.3-4-3-4c-1.7,0-3,2.2-3,4v8"/>
	</g>
	<g>
		<linearGradient id="SVGID_25_" gradientUnits="userSpaceOnUse" x1="61" y1="50.4232" x2="61" y2="29.1682">
			<stop  offset="0" style="stop-color:#2471B9"/>
			<stop  offset="1" style="stop-color:#2FB3A8"/>
		</linearGradient>
		<polyline class="st25" points="60.5,48.9 60.5,49.9 61.5,49.9 		"/>
		<linearGradient id="SVGID_26_" gradientUnits="userSpaceOnUse" x1="63.8333" y1="50.4232" x2="63.8333" y2="29.1682">
			<stop  offset="0" style="stop-color:#2471B9"/>
			<stop  offset="1" style="stop-color:#2FB3A8"/>
		</linearGradient>
		<line class="st26" x1="62.8" y1="49.9" x2="64.8" y2="49.9"/>
		<linearGradient id="SVGID_27_" gradientUnits="userSpaceOnUse" x1="66" y1="50.4232" x2="66" y2="29.1682">
			<stop  offset="0" style="stop-color:#2471B9"/>
			<stop  offset="1" style="stop-color:#2FB3A8"/>
		</linearGradient>
		<polyline class="st27" points="65.5,49.9 66.5,49.9 66.5,48.9 		"/>
		<linearGradient id="SVGID_28_" gradientUnits="userSpaceOnUse" x1="63.5" y1="50.7846" x2="63.5" y2="25.6816">
			<stop  offset="0" style="stop-color:#2471B9"/>
			<stop  offset="1" style="stop-color:#2FB3A8"/>
		</linearGradient>
		<path class="st28" d="M66.5,46.9V29.9c-1.2-0.5-1.7-0.8-3-1.8c-1.3-1-3-3-3-1.1v21"/>
	</g>
	<g>
		<linearGradient id="SVGID_29_" gradientUnits="userSpaceOnUse" x1="70.9999" y1="50.4232" x2="70.9999" y2="24.4232">
			<stop  offset="0" style="stop-color:#2471B9"/>
			<stop  offset="1" style="stop-color:#2FB3A8"/>
		</linearGradient>
		<polyline class="st29" points="70.5,48.9 70.5,49.9 71.5,49.9 		"/>
		<linearGradient id="SVGID_30_" gradientUnits="userSpaceOnUse" x1="73.8333" y1="50.4232" x2="73.8333" y2="24.4232">
			<stop  offset="0" style="stop-color:#2471B9"/>
			<stop  offset="1" style="stop-color:#2FB3A8"/>
		</linearGradient>
		<line class="st30" x1="72.8" y1="49.9" x2="74.8" y2="49.9"/>
		<linearGradient id="SVGID_31_" gradientUnits="userSpaceOnUse" x1="76" y1="50.4232" x2="76" y2="24.4232">
			<stop  offset="0" style="stop-color:#2471B9"/>
			<stop  offset="1" style="stop-color:#2FB3A8"/>
		</linearGradient>
		<polyline class="st31" points="75.5,49.9 76.5,49.9 76.5,48.9 		"/>
		<linearGradient id="SVGID_32_" gradientUnits="userSpaceOnUse" x1="73.4726" y1="49.969" x2="73.4726" y2="29.7874">
			<stop  offset="0" style="stop-color:#2471B9"/>
			<stop  offset="1" style="stop-color:#2FB3A8"/>
		</linearGradient>
		<path class="st32" d="M76.5,46.9V30.3c0.2-0.2-3,0.7-3,0.7s-3.6-0.5-3-0.3v17.2"/>
	</g>
	<g>
		<linearGradient id="SVGID_33_" gradientUnits="userSpaceOnUse" x1="79.9999" y1="50.4232" x2="79.9999" y2="31.69">
			<stop  offset="0" style="stop-color:#2471B9"/>
			<stop  offset="1" style="stop-color:#2FB3A8"/>
		</linearGradient>
		<polyline class="st33" points="79.5,48.9 79.5,49.9 80.5,49.9 		"/>
		<linearGradient id="SVGID_34_" gradientUnits="userSpaceOnUse" x1="82.8333" y1="50.4232" x2="82.8333" y2="31.69">
			<stop  offset="0" style="stop-color:#2471B9"/>
			<stop  offset="1" style="stop-color:#2FB3A8"/>
		</linearGradient>
		<line class="st34" x1="81.8" y1="49.9" x2="83.8" y2="49.9"/>
		<linearGradient id="SVGID_35_" gradientUnits="userSpaceOnUse" x1="85" y1="50.4232" x2="85" y2="31.69">
			<stop  offset="0" style="stop-color:#2471B9"/>
			<stop  offset="1" style="stop-color:#2FB3A8"/>
		</linearGradient>
		<polyline class="st35" points="84.5,49.9 85.5,49.9 85.5,48.9 		"/>
		<linearGradient id="SVGID_36_" gradientUnits="userSpaceOnUse" x1="79.4999" y1="50.7131" x2="79.4999" y2="29.234">
			<stop  offset="0" style="stop-color:#2471B9"/>
			<stop  offset="1" style="stop-color:#2FB3A8"/>
		</linearGradient>
		<line class="st36" x1="79.5" y1="29.7" x2="79.5" y2="47.9"/>
		<linearGradient id="SVGID_37_" gradientUnits="userSpaceOnUse" x1="85.5" y1="50.1267" x2="85.5" y2="24.9423">
			<stop  offset="0" style="stop-color:#2471B9"/>
			<stop  offset="1" style="stop-color:#2FB3A8"/>
		</linearGradient>
		<line class="st37" x1="85.5" y1="47" x2="85.5" y2="25.4"/>
	</g>
	<g>
		<linearGradient id="SVGID_38_" gradientUnits="userSpaceOnUse" x1="88.9999" y1="50.4232" x2="88.9999" y2="26.4232">
			<stop  offset="0" style="stop-color:#2471B9"/>
			<stop  offset="1" style="stop-color:#2FB3A8"/>
		</linearGradient>
		<polyline class="st38" points="88.5,48.9 88.5,49.9 89.5,49.9 		"/>
		<linearGradient id="SVGID_39_" gradientUnits="userSpaceOnUse" x1="91.8333" y1="50.4232" x2="91.8333" y2="26.4232">
			<stop  offset="0" style="stop-color:#2471B9"/>
			<stop  offset="1" style="stop-color:#2FB3A8"/>
		</linearGradient>
		<line class="st39" x1="90.8" y1="49.9" x2="92.8" y2="49.9"/>
		<linearGradient id="SVGID_40_" gradientUnits="userSpaceOnUse" x1="94" y1="50.4232" x2="94" y2="26.4232">
			<stop  offset="0" style="stop-color:#2471B9"/>
			<stop  offset="1" style="stop-color:#2FB3A8"/>
		</linearGradient>
		<polyline class="st40" points="93.5,49.9 94.5,49.9 94.5,48.9 		"/>
		<linearGradient id="SVGID_41_" gradientUnits="userSpaceOnUse" x1="91.4999" y1="50.4232" x2="91.4999" y2="26.4232">
			<stop  offset="0" style="stop-color:#2471B9"/>
			<stop  offset="1" style="stop-color:#2FB3A8"/>
		</linearGradient>
		<path class="st41" d="M94.5,46.9V29.9c0-1.8-1.3-3-3-3c-1.7,0-3,1.2-3,3v18"/>
	</g>
	<g>
		<linearGradient id="SVGID_42_" gradientUnits="userSpaceOnUse" x1="97.9999" y1="50.4232" x2="97.9999" y2="30.1682">
			<stop  offset="0" style="stop-color:#2471B9"/>
			<stop  offset="1" style="stop-color:#2FB3A8"/>
		</linearGradient>
		<polyline class="st42" points="97.5,48.9 97.5,49.9 98.5,49.9 		"/>
		<linearGradient id="SVGID_43_" gradientUnits="userSpaceOnUse" x1="100.8332" y1="50.4232" x2="100.8332" y2="30.1682">
			<stop  offset="0" style="stop-color:#2471B9"/>
			<stop  offset="1" style="stop-color:#2FB3A8"/>
		</linearGradient>
		<line class="st43" x1="99.8" y1="49.9" x2="101.8" y2="49.9"/>
		<linearGradient id="SVGID_44_" gradientUnits="userSpaceOnUse" x1="102.9999" y1="50.4232" x2="102.9999" y2="30.1682">
			<stop  offset="0" style="stop-color:#2471B9"/>
			<stop  offset="1" style="stop-color:#2FB3A8"/>
		</linearGradient>
		<polyline class="st44" points="102.5,49.9 103.5,49.9 103.5,48.9 		"/>
		<linearGradient id="SVGID_45_" gradientUnits="userSpaceOnUse" x1="100.4999" y1="50.4232" x2="100.4999" y2="30.1682">
			<stop  offset="0" style="stop-color:#2471B9"/>
			<stop  offset="1" style="stop-color:#2FB3A8"/>
		</linearGradient>
		<path class="st45" d="M103.5,46.8V33.9c0-1.8-1.5-3.3-3.2-3.3s-2.8,1.4-2.8,3.3v14"/>
	</g>
	<g>
		<linearGradient id="SVGID_46_" gradientUnits="userSpaceOnUse" x1="106.9999" y1="50.4232" x2="106.9999" y2="24.4232">
			<stop  offset="0" style="stop-color:#2471B9"/>
			<stop  offset="1" style="stop-color:#2FB3A8"/>
		</linearGradient>
		<polyline class="st46" points="106.5,48.9 106.5,49.9 107.5,49.9 		"/>
		<linearGradient id="SVGID_47_" gradientUnits="userSpaceOnUse" x1="109.8332" y1="50.4232" x2="109.8332" y2="24.4232">
			<stop  offset="0" style="stop-color:#2471B9"/>
			<stop  offset="1" style="stop-color:#2FB3A8"/>
		</linearGradient>
		<line class="st47" x1="108.8" y1="49.9" x2="110.8" y2="49.9"/>
		<linearGradient id="SVGID_48_" gradientUnits="userSpaceOnUse" x1="111.9999" y1="50.4232" x2="111.9999" y2="24.4232">
			<stop  offset="0" style="stop-color:#2471B9"/>
			<stop  offset="1" style="stop-color:#2FB3A8"/>
		</linearGradient>
		<polyline class="st48" points="111.5,49.9 112.5,49.9 112.5,48.9 		"/>
		<linearGradient id="SVGID_49_" gradientUnits="userSpaceOnUse" x1="109.4999" y1="50.4232" x2="109.4999" y2="24.4232">
			<stop  offset="0" style="stop-color:#2471B9"/>
			<stop  offset="1" style="stop-color:#2FB3A8"/>
		</linearGradient>
		<path class="st49" d="M112.5,46.9V27.9c0-1.8-1.3-3-3-3c-1.7,0-3,1.2-3,3v20"/>
	</g>
	<g>
		<linearGradient id="SVGID_50_" gradientUnits="userSpaceOnUse" x1="115.9999" y1="50.4232" x2="115.9999" y2="31.69">
			<stop  offset="0" style="stop-color:#2471B9"/>
			<stop  offset="1" style="stop-color:#2FB3A8"/>
		</linearGradient>
		<polyline class="st50" points="115.5,48.9 115.5,49.9 116.5,49.9 		"/>
		<linearGradient id="SVGID_51_" gradientUnits="userSpaceOnUse" x1="118.8332" y1="50.4232" x2="118.8332" y2="31.69">
			<stop  offset="0" style="stop-color:#2471B9"/>
			<stop  offset="1" style="stop-color:#2FB3A8"/>
		</linearGradient>
		<line class="st51" x1="117.8" y1="49.9" x2="119.8" y2="49.9"/>
		<linearGradient id="SVGID_52_" gradientUnits="userSpaceOnUse" x1="120.9999" y1="50.4232" x2="120.9999" y2="31.69">
			<stop  offset="0" style="stop-color:#2471B9"/>
			<stop  offset="1" style="stop-color:#2FB3A8"/>
		</linearGradient>
		<polyline class="st52" points="120.5,49.9 121.5,49.9 121.5,48.9 		"/>
		<linearGradient id="SVGID_53_" gradientUnits="userSpaceOnUse" x1="118.4999" y1="50.4232" x2="118.4999" y2="31.69">
			<stop  offset="0" style="stop-color:#2471B9"/>
			<stop  offset="1" style="stop-color:#2FB3A8"/>
		</linearGradient>
		<path class="st53" d="M121.5,47v-12c0-1.8-1.4-2.7-3.1-2.7c-1.7,0-2.9,0.9-2.9,2.7v13"/>
	</g>
	<g>
		<linearGradient id="SVGID_54_" gradientUnits="userSpaceOnUse" x1="124.9999" y1="50.4232" x2="124.9999" y2="31.4232">
			<stop  offset="0" style="stop-color:#2471B9"/>
			<stop  offset="1" style="stop-color:#2FB3A8"/>
		</linearGradient>
		<polyline class="st54" points="124.5,48.9 124.5,49.9 125.5,49.9 		"/>
		<linearGradient id="SVGID_55_" gradientUnits="userSpaceOnUse" x1="127.8332" y1="50.4232" x2="127.8332" y2="31.4232">
			<stop  offset="0" style="stop-color:#2471B9"/>
			<stop  offset="1" style="stop-color:#2FB3A8"/>
		</linearGradient>
		<line class="st55" x1="126.8" y1="49.9" x2="128.8" y2="49.9"/>
		<linearGradient id="SVGID_56_" gradientUnits="userSpaceOnUse" x1="129.9999" y1="50.4232" x2="129.9999" y2="31.4232">
			<stop  offset="0" style="stop-color:#2471B9"/>
			<stop  offset="1" style="stop-color:#2FB3A8"/>
		</linearGradient>
		<polyline class="st56" points="129.5,49.9 130.5,49.9 130.5,48.9 		"/>
		<linearGradient id="SVGID_57_" gradientUnits="userSpaceOnUse" x1="127.4999" y1="50.4232" x2="127.4999" y2="31.4232">
			<stop  offset="0" style="stop-color:#2471B9"/>
			<stop  offset="1" style="stop-color:#2FB3A8"/>
		</linearGradient>
		<path class="st57" d="M130.5,47v-12c0-1.8-1.3-3-3-3c-1.7,0-3,1.2-3,3v13"/>
	</g>
	<g>
		<linearGradient id="SVGID_58_" gradientUnits="userSpaceOnUse" x1="133.9999" y1="50.4232" x2="133.9999" y2="36.1682">
			<stop  offset="0" style="stop-color:#2471B9"/>
			<stop  offset="1" style="stop-color:#2FB3A8"/>
		</linearGradient>
		<polyline class="st58" points="133.5,48.9 133.5,49.9 134.5,49.9 		"/>
		<linearGradient id="SVGID_59_" gradientUnits="userSpaceOnUse" x1="136.8332" y1="50.4232" x2="136.8332" y2="36.1682">
			<stop  offset="0" style="stop-color:#2471B9"/>
			<stop  offset="1" style="stop-color:#2FB3A8"/>
		</linearGradient>
		<line class="st59" x1="135.8" y1="49.9" x2="137.8" y2="49.9"/>
		<linearGradient id="SVGID_60_" gradientUnits="userSpaceOnUse" x1="138.9999" y1="50.4232" x2="138.9999" y2="36.1682">
			<stop  offset="0" style="stop-color:#2471B9"/>
			<stop  offset="1" style="stop-color:#2FB3A8"/>
		</linearGradient>
		<polyline class="st60" points="138.5,49.9 139.5,49.9 139.5,48.9 		"/>
		<linearGradient id="SVGID_61_" gradientUnits="userSpaceOnUse" x1="136.4999" y1="50.4232" x2="136.4999" y2="36.1682">
			<stop  offset="0" style="stop-color:#2471B9"/>
			<stop  offset="1" style="stop-color:#2FB3A8"/>
		</linearGradient>
		<path class="st61" d="M139.5,46.8v-5.9c0-1.8-1.5-4.3-3.2-4.3s-2.8,2.4-2.8,4.3v6.9"/>
	</g>
	<g>
		<linearGradient id="SVGID_62_" gradientUnits="userSpaceOnUse" x1="68.8314" y1="29.9705" x2="68.8314" y2="-2.3278">
			<stop  offset="0" style="stop-color:#2471B9"/>
			<stop  offset="1" style="stop-color:#2FB3A8"/>
		</linearGradient>
		<path class="st62" d="M66.7,29.1c-3.5-1.6-6.3-4.4-7.6-8c-1.3-3.2-1.3-6.7-0.2-9.9l1,4.3l1.5-0.4l-1.9-7.9l-5.9,6l1.1,1.1l2.6-2.6
			c-0.9,3.3-0.7,6.7,0.5,9.9c1.5,4,4.5,7.1,8.4,8.9c2.1,0.9,4.3,1.3,6.4,1.3c4.3,0,8.5-1.7,11.6-4.9l-1.1-1
			C78.8,30.2,72.3,31.5,66.7,29.1z"/>
		<linearGradient id="SVGID_63_" gradientUnits="userSpaceOnUse" x1="70.5071" y1="29.9705" x2="70.5071" y2="-2.3278">
			<stop  offset="0" style="stop-color:#2471B9"/>
			<stop  offset="1" style="stop-color:#2FB3A8"/>
		</linearGradient>
		<path class="st63" d="M72,1.3l0-1.3C71,0,70,0.2,69,0.4l0.3,1.2C70.2,1.4,71.1,1.3,72,1.3z"/>
		<linearGradient id="SVGID_64_" gradientUnits="userSpaceOnUse" x1="82.5327" y1="29.9705" x2="82.5327" y2="-2.3278">
			<stop  offset="0" style="stop-color:#2471B9"/>
			<stop  offset="1" style="stop-color:#2FB3A8"/>
		</linearGradient>
		<path class="st64" d="M84,4.8c-0.7-0.7-1.4-1.3-2.2-1.9l-0.7,1c0.7,0.5,1.4,1.1,2,1.7L84,4.8z"/>
		<linearGradient id="SVGID_65_" gradientUnits="userSpaceOnUse" x1="78.9447" y1="29.9705" x2="78.9447" y2="-2.3278">
			<stop  offset="0" style="stop-color:#2471B9"/>
			<stop  offset="1" style="stop-color:#2FB3A8"/>
		</linearGradient>
		<path class="st65" d="M79.9,3.2l0.6-1.1c-0.5-0.3-1-0.5-1.5-0.7c-0.4-0.2-0.7-0.3-1.1-0.4l-0.4,1.2c0.4,0.1,0.7,0.3,1.1,0.4
			C78.9,2.7,79.4,3,79.9,3.2z"/>
		<linearGradient id="SVGID_66_" gradientUnits="userSpaceOnUse" x1="85.3124" y1="29.9705" x2="85.3124" y2="-2.3278">
			<stop  offset="0" style="stop-color:#2471B9"/>
			<stop  offset="1" style="stop-color:#2FB3A8"/>
		</linearGradient>
		<path class="st66" d="M86.6,8.4c-0.4-0.9-1-1.7-1.6-2.4l-1,0.8c0.6,0.7,1,1.5,1.5,2.2L86.6,8.4z"/>
		<linearGradient id="SVGID_67_" gradientUnits="userSpaceOnUse" x1="66.4263" y1="29.9705" x2="66.4263" y2="-2.3278">
			<stop  offset="0" style="stop-color:#2471B9"/>
			<stop  offset="1" style="stop-color:#2FB3A8"/>
		</linearGradient>
		<path class="st67" d="M67.7,2.1c0.1,0,0.2-0.1,0.3-0.1l-0.4-1.2c-0.1,0-0.2,0-0.3,0.1c-0.8,0.3-1.6,0.6-2.4,1.1l0.6,1.1
			C66.2,2.7,66.9,2.4,67.7,2.1z"/>
		<linearGradient id="SVGID_68_" gradientUnits="userSpaceOnUse" x1="87.205" y1="29.9705" x2="87.205" y2="-2.3278">
			<stop  offset="0" style="stop-color:#2471B9"/>
			<stop  offset="1" style="stop-color:#2FB3A8"/>
		</linearGradient>
		<path class="st68" d="M86.2,20.9l1.2,0.4c0.4-0.9,0.6-1.9,0.7-2.8l-1.2-0.2C86.8,19.2,86.6,20.1,86.2,20.9z"/>
		<linearGradient id="SVGID_69_" gradientUnits="userSpaceOnUse" x1="74.8639" y1="29.9705" x2="74.8639" y2="-2.3278">
			<stop  offset="0" style="stop-color:#2471B9"/>
			<stop  offset="1" style="stop-color:#2FB3A8"/>
		</linearGradient>
		<path class="st69" d="M76.3,0.4C75.4,0.2,74.4,0,73.5,0l-0.1,1.3c0.9,0,1.8,0.2,2.6,0.4L76.3,0.4z"/>
		<linearGradient id="SVGID_70_" gradientUnits="userSpaceOnUse" x1="85.549" y1="29.9705" x2="85.549" y2="-2.3278">
			<stop  offset="0" style="stop-color:#2471B9"/>
			<stop  offset="1" style="stop-color:#2FB3A8"/>
		</linearGradient>
		<path class="st70" d="M84.3,24.6l1,0.7c0.6-0.8,1.1-1.6,1.5-2.5l-1.1-0.6C85.3,23.1,84.8,23.9,84.3,24.6z"/>
		<linearGradient id="SVGID_71_" gradientUnits="userSpaceOnUse" x1="87.7766" y1="29.9705" x2="87.7766" y2="-2.3278">
			<stop  offset="0" style="stop-color:#2471B9"/>
			<stop  offset="1" style="stop-color:#2FB3A8"/>
		</linearGradient>
		<path class="st71" d="M88.4,14.2l-1.3,0.1c0,0.5,0.1,1.1,0.1,1.6c0,0.4,0,0.7,0,1.1l1.3,0.1c0-0.4,0-0.8,0-1.2
			C88.4,15.3,88.4,14.7,88.4,14.2z"/>
		<linearGradient id="SVGID_72_" gradientUnits="userSpaceOnUse" x1="87.1064" y1="29.9705" x2="87.1064" y2="-2.3278">
			<stop  offset="0" style="stop-color:#2471B9"/>
			<stop  offset="1" style="stop-color:#2FB3A8"/>
		</linearGradient>
		<path class="st72" d="M86.9,12.9l1.2-0.3c-0.2-0.9-0.5-1.9-0.8-2.8l-1.1,0.5C86.5,11.2,86.7,12,86.9,12.9z"/>
		<linearGradient id="SVGID_73_" gradientUnits="userSpaceOnUse" x1="78.086" y1="29.9705" x2="78.086" y2="-2.3278">
			<stop  offset="0" style="stop-color:#2471B9"/>
			<stop  offset="1" style="stop-color:#2FB3A8"/>
		</linearGradient>
		<path class="st73" d="M77.5,7.8c0.1,0.1,0.2,0.1,0.4,0.1c0.2,0,0.5-0.1,0.6-0.4l0.4-0.7c0.2-0.4,0.1-0.8-0.2-1
			c-0.4-0.2-0.8-0.1-1,0.2l-0.4,0.7C77.1,7.1,77.1,7.6,77.5,7.8z"/>
		<linearGradient id="SVGID_74_" gradientUnits="userSpaceOnUse" x1="72.8333" y1="29.9705" x2="72.8333" y2="-2.3278">
			<stop  offset="0" style="stop-color:#2471B9"/>
			<stop  offset="1" style="stop-color:#2FB3A8"/>
		</linearGradient>
		<path class="st74" d="M72.8,6.5c0.4,0,0.7-0.3,0.7-0.7V4.9c0-0.4-0.4-0.7-0.7-0.7c-0.4,0-0.7,0.3-0.7,0.7v0.8
			C72.1,6.2,72.4,6.5,72.8,6.5z"/>
		<linearGradient id="SVGID_75_" gradientUnits="userSpaceOnUse" x1="67.4908" y1="29.9705" x2="67.4908" y2="-2.3278">
			<stop  offset="0" style="stop-color:#2471B9"/>
			<stop  offset="1" style="stop-color:#2FB3A8"/>
		</linearGradient>
		<path class="st75" d="M66.9,5.6c-0.4,0.2-0.5,0.7-0.3,1L67,7.4c0.1,0.2,0.4,0.4,0.7,0.4c0.1,0,0.2,0,0.4-0.1
			c0.4-0.2,0.5-0.7,0.3-1L67.9,6C67.7,5.6,67.3,5.4,66.9,5.6z"/>
		<linearGradient id="SVGID_76_" gradientUnits="userSpaceOnUse" x1="63.3114" y1="29.9705" x2="63.3114" y2="-2.3278">
			<stop  offset="0" style="stop-color:#2471B9"/>
			<stop  offset="1" style="stop-color:#2FB3A8"/>
		</linearGradient>
		<path class="st76" d="M63,22c0.1,0,0.2,0,0.4-0.1l0.7-0.4c0.4-0.2,0.5-0.7,0.3-1c-0.2-0.4-0.6-0.5-1-0.3l-0.7,0.4
			c-0.4,0.2-0.5,0.7-0.3,1C62.4,21.8,62.7,22,63,22z"/>
		<linearGradient id="SVGID_77_" gradientUnits="userSpaceOnUse" x1="67.1075" y1="29.9705" x2="67.1075" y2="-2.3278">
			<stop  offset="0" style="stop-color:#2471B9"/>
			<stop  offset="1" style="stop-color:#2FB3A8"/>
		</linearGradient>
		<path class="st77" d="M66.7,24.3L66.3,25c-0.2,0.4-0.1,0.8,0.2,1c0.1,0.1,0.2,0.1,0.4,0.1c0.2,0,0.5-0.1,0.6-0.4l0.4-0.7
			c0.2-0.4,0.1-0.8-0.2-1C67.4,23.9,66.9,23.9,66.7,24.3z"/>
		<linearGradient id="SVGID_78_" gradientUnits="userSpaceOnUse" x1="72.3997" y1="29.9705" x2="72.3997" y2="-2.3278">
			<stop  offset="0" style="stop-color:#2471B9"/>
			<stop  offset="1" style="stop-color:#2FB3A8"/>
		</linearGradient>
		<path class="st78" d="M71.7,26.1v0.8c0,0.4,0.3,0.7,0.7,0.7c0.4,0,0.7-0.3,0.7-0.7v-0.8c0-0.4-0.3-0.7-0.7-0.7
			C72,25.4,71.7,25.7,71.7,26.1z"/>
		<linearGradient id="SVGID_79_" gradientUnits="userSpaceOnUse" x1="77.7027" y1="29.9705" x2="77.7027" y2="-2.3278">
			<stop  offset="0" style="stop-color:#2471B9"/>
			<stop  offset="1" style="stop-color:#2FB3A8"/>
		</linearGradient>
		<path class="st79" d="M77.1,24.2c-0.4,0.2-0.5,0.7-0.3,1l0.4,0.7c0.1,0.2,0.4,0.4,0.7,0.4c0.1,0,0.2,0,0.4-0.1
			c0.4-0.2,0.5-0.7,0.3-1l-0.4-0.7C78,24.1,77.5,24,77.1,24.2z"/>
		<linearGradient id="SVGID_80_" gradientUnits="userSpaceOnUse" x1="81.6456" y1="29.9705" x2="81.6456" y2="-2.3278">
			<stop  offset="0" style="stop-color:#2471B9"/>
			<stop  offset="1" style="stop-color:#2FB3A8"/>
		</linearGradient>
		<path class="st80" d="M80.9,21.8l0.7,0.4c0.1,0.1,0.2,0.1,0.4,0.1c0.2,0,0.5-0.1,0.6-0.4c0.2-0.4,0.1-0.8-0.2-1l-0.7-0.4
			c-0.4-0.2-0.8-0.1-1,0.2C80.5,21.2,80.6,21.6,80.9,21.8z"/>
		<linearGradient id="SVGID_81_" gradientUnits="userSpaceOnUse" x1="83.1635" y1="29.9705" x2="83.1635" y2="-2.3278">
			<stop  offset="0" style="stop-color:#2471B9"/>
			<stop  offset="1" style="stop-color:#2FB3A8"/>
		</linearGradient>
		<path class="st81" d="M82.8,15.4c-0.4,0-0.7,0.3-0.7,0.7s0.3,0.7,0.7,0.7h0.8c0.4,0,0.7-0.3,0.7-0.7s-0.3-0.7-0.7-0.7H82.8z"/>
		<linearGradient id="SVGID_82_" gradientUnits="userSpaceOnUse" x1="81.8909" y1="29.9705" x2="81.8909" y2="-2.3278">
			<stop  offset="0" style="stop-color:#2471B9"/>
			<stop  offset="1" style="stop-color:#2FB3A8"/>
		</linearGradient>
		<path class="st82" d="M81.5,11.7c0.1,0,0.2,0,0.4-0.1l0.7-0.4c0.4-0.2,0.5-0.7,0.3-1c-0.2-0.4-0.7-0.5-1-0.3l-0.7,0.4
			c-0.4,0.2-0.5,0.6-0.3,1C81,11.6,81.3,11.7,81.5,11.7z"/>
		<linearGradient id="SVGID_83_" gradientUnits="userSpaceOnUse" x1="70.1559" y1="30.8375" x2="70.1559" y2="-3.7583">
			<stop  offset="0" style="stop-color:#2471B9"/>
			<stop  offset="1" style="stop-color:#2FB3A8"/>
		</linearGradient>
		<path class="st83" d="M71.5,17.4c0.3,0.2,0.6,0.4,1,0.4c0,0,0,0,0.1,0c0.4,0,0.7-0.2,1-0.5s0.4-0.7,0.4-1.1c0-0.1,0-0.2-0.1-0.4
			l3.7-4.2l-1.1-1l-3.7,4.2c-0.1,0-0.2,0-0.4,0s-0.2,0-0.4,0.1L63.7,9l-1,1.1l8.3,5.9C71,16.5,71.1,17,71.5,17.4z"/>
	</g>
</g>
</svg>
