<?xml version="1.0" encoding="utf-8"?>
<!-- Generator: Adobe Illustrator 22.0.1, SVG Export Plug-In . SVG Version: 6.00 Build 0)  -->
<svg version="1.1" id="Layer_1" xmlns="http://www.w3.org/2000/svg" xmlns:xlink="http://www.w3.org/1999/xlink" x="0px" y="0px"
	 viewBox="0 0 16.4 11.7" style="enable-background:new 0 0 16.4 11.7;" xml:space="preserve">
<style type="text/css">
	.st0{fill:#2B8B46;}
</style>
<path class="st0" d="M16.1,0.3C15.9,0.1,15.7,0,15.4,0c-0.2,0-0.4,0.1-0.5,0.2L5.4,9.8l-4-3.1C1.2,6.5,1,6.5,0.8,6.5
	c-0.2,0-0.4,0.1-0.6,0.3C0.1,6.9,0,7.1,0,7.4c0,0.2,0.1,0.4,0.3,0.6c0,0,0.1,0,0.1,0.1L5,11.6c0.2,0.1,0.3,0.2,0.5,0.2
	c0.2,0,0.4-0.1,0.6-0.2l10-10C16.4,1.1,16.4,0.6,16.1,0.3z"/>
</svg>
