<?xml version="1.0" encoding="utf-8"?>
<!-- Generator: Adobe Illustrator 19.2.1, SVG Export Plug-In . SVG Version: 6.00 Build 0)  -->
<svg version="1.1" id="Layer_1" xmlns="http://www.w3.org/2000/svg" xmlns:xlink="http://www.w3.org/1999/xlink" x="0px" y="0px"
	 viewBox="0 0 25.9 23.3" style="enable-background:new 0 0 25.9 23.3;" xml:space="preserve">
<style type="text/css">
	.st0{clip-path:url(#SVGID_2_);fill:#EB92E6;}
	.st1{fill:none;stroke:#EB92E6;stroke-linecap:round;stroke-linejoin:round;stroke-miterlimit:10;}
	.st2{fill:#EB92E6;}
</style>
<g>
	<g>
		<defs>
			<path id="SVGID_1_" d="M0,2.2v21.1h22.4c0.2,0,0.4-0.2,0.4-0.4c0-0.2-0.2-0.4-0.4-0.4H0.9V2.2c0-0.2-0.2-0.4-0.4-0.4
				C0.2,1.7,0,1.9,0,2.2"/>
		</defs>
		<clipPath id="SVGID_2_">
			<use xlink:href="#SVGID_1_"  style="overflow:visible;"/>
		</clipPath>
		<rect y="1.7" class="st0" width="22.9" height="21.6"/>
	</g>
</g>
<line class="st1" x1="1.7" y1="21.3" x2="20.5" y2="5.8"/>
<path class="st2" d="M24.9,13v3h-3v-3H24.9 M25.9,12h-5v5h5V12L25.9,12z"/>
<path class="st2" d="M17.9,16v3h-3v-3H17.9 M18.9,15h-5v5h5V15L18.9,15z"/>
<path class="st2" d="M7.4,1.2c0.7,0,1.3,0.6,1.3,1.3S8.1,3.7,7.4,3.7S6.1,3.1,6.1,2.4S6.7,1.2,7.4,1.2 M7.4,0C6.1,0,5,1.1,5,2.4
	s1.1,2.4,2.4,2.4s2.4-1.1,2.4-2.4S8.7,0,7.4,0L7.4,0z"/>
<path class="st2" d="M7.4,7.7c0.7,0,1.3,0.6,1.3,1.3s-0.6,1.3-1.3,1.3S6.1,9.7,6.1,9S6.7,7.7,7.4,7.7 M7.4,6.6C6.1,6.6,5,7.7,5,9
	s1.1,2.4,2.4,2.4S9.8,10.3,9.8,9S8.7,6.6,7.4,6.6L7.4,6.6z"/>
<path class="st2" d="M13.4,3.5c0.7,0,1.3,0.6,1.3,1.3s-0.6,1.3-1.3,1.3s-1.3-0.6-1.3-1.3C12.1,4,12.7,3.5,13.4,3.5 M13.4,2.3
	c-1.3,0-2.4,1.1-2.4,2.4s1.1,2.4,2.4,2.4s2.4-1.1,2.4-2.4S14.7,2.3,13.4,2.3L13.4,2.3z"/>
</svg>
