<?xml version="1.0" encoding="utf-8"?>
<!-- Generator: Adobe Illustrator 22.0.1, SVG Export Plug-In . SVG Version: 6.00 Build 0)  -->
<svg version="1.1" id="Layer_1" xmlns="http://www.w3.org/2000/svg" xmlns:xlink="http://www.w3.org/1999/xlink" x="0px" y="0px"
	 viewBox="0 0 8 8" style="enable-background:new 0 0 8 8;" xml:space="preserve">
<style type="text/css">
	.st0{fill:#FFFFFF;}
</style>
<g>
	<g>
		<path class="st0" d="M4.6,4l3.3-3.3C8,0.5,8,0.3,7.9,0.1C7.7,0,7.5,0,7.3,0.1L4,3.4L0.7,0.1C0.5,0,0.3,0,0.1,0.1
			C0,0.3,0,0.5,0.1,0.7L3.4,4L0.1,7.3C0,7.5,0,7.7,0.1,7.9C0.2,8,0.3,8,0.4,8c0.1,0,0.2,0,0.3-0.1L4,4.6l3.3,3.3C7.4,8,7.5,8,7.6,8
			c0.1,0,0.2,0,0.3-0.1C8,7.7,8,7.5,7.9,7.3L4.6,4z"/>
	</g>
</g>
</svg>
