<?xml version="1.0" encoding="utf-8"?>
<!-- Generator: Adobe Illustrator 19.2.1, SVG Export Plug-In . SVG Version: 6.00 Build 0)  -->
<svg version="1.1" id="Layer_1" xmlns="http://www.w3.org/2000/svg" xmlns:xlink="http://www.w3.org/1999/xlink" x="0px" y="0px"
	 viewBox="0 0 26.2 28.1" style="enable-background:new 0 0 26.2 28.1;" xml:space="preserve">
<style type="text/css">
	.st0{fill:#FFFFFF;}
	.st1{clip-path:url(#SVGID_3_);fill:#FFA54D;}
</style>
<g>
	<g>
		<path id="SVGID_1_" class="st0" d="M18.8,24.8c-0.2-0.2-0.3-0.4-0.3-0.7c0-0.2,0.1-0.4,0.2-0.6c0.2-0.2,0.4-0.3,0.6-0.3h0.1
			c0.2,0,0.4,0.1,0.6,0.2c0.4,0.3,0.4,0.9,0.1,1.3c-0.2,0.2-0.4,0.3-0.7,0.3C19.2,25,19,24.9,18.8,24.8 M1.7,26.4
			c-0.6-0.6-0.9-1.3-0.9-2.1c0-0.8,0.3-1.5,0.9-2.1s1.3-0.9,2.1-0.9l0,0c0.7,0,1.4,0.2,1.9,0.7c0.7,0.6,1.1,1.4,1.1,2.3
			c0,1.6-1.3,3-3,3l0,0C3,27.2,2.3,26.9,1.7,26.4 M21.6,15.5L21.6,15.5c0-0.5,0.2-0.9,0.5-1.2s0.7-0.4,1.1-0.4c0,0,0,0,0.1,0
			c0.4,0,0.8,0.2,1.1,0.5c0.3,0.3,0.5,0.7,0.4,1.2c0,0.9-0.7,1.6-1.6,1.6h-0.1C22.3,17.1,21.6,16.4,21.6,15.5 M10.7,18.2
			c-0.7-0.1-1.3-0.4-1.9-0.7c-2.6-1.6-3.4-5-1.8-7.5c1-1.7,2.8-2.6,4.7-2.6c1,0,2,0.3,2.9,0.8c1.9,1.2,2.9,3.5,2.5,5.7l0,0
			c-0.5,2.6-2.8,4.5-5.4,4.5C11.4,18.3,11.1,18.3,10.7,18.2 M1.6,3.7C1.4,3.3,1.3,2.9,1.4,2.4c0.1-0.4,0.4-0.8,0.7-1
			C2.4,1.3,2.7,1.2,3,1.2c0.1,0,0.3,0,0.4,0c0.4,0.1,0.8,0.4,1,0.7c0.4,0.6,0.3,1.4-0.1,1.9C4.2,4,4,4.1,3.9,4.2
			C3.6,4.4,3.3,4.5,3,4.5C2.5,4.5,1.9,4.2,1.6,3.7 M19.8,5.6c-0.4-0.5-0.5-1.1-0.5-1.7l0,0c0-0.8,0.3-1.6,0.9-2.1
			c0.6-0.6,1.3-0.9,2.1-0.9l0,0c0.8,0,1.6,0.3,2.1,0.9c0.6,0.6,0.9,1.3,0.9,2.1S25,5.5,24.4,6c-0.6,0.6-1.3,0.9-2.1,0.9l0,0
			C21.3,6.9,20.3,6.4,19.8,5.6 M22.3,0c-1,0-2,0.4-2.7,1.1c-1.4,1.3-1.5,3.4-0.5,5l-2.8,2.4c-2.2-2.3-5.8-2.6-8.4-0.6l-3-3.4
			c0.8-1,0.7-2.5-0.3-3.4C4.2,0.6,3.5,0.3,2.9,0.4c-0.7,0-1.3,0.3-1.7,0.8c-0.9,1-0.8,2.6,0.2,3.5c0.8,0.7,2,0.8,2.9,0.3l3,3.4
			C6.1,9.5,5.4,11,5.4,12.7S6,16,7.1,17.2c0.2,0.2,0.4,0.4,0.6,0.6l-2.1,3.1c-1.8-1-4.1-0.3-5.1,1.5C0.2,22.9,0,23.6,0,24.2l0,0
			c0,0.3,0,0.7,0.1,1c0.3,1,0.9,1.8,1.8,2.3C2.5,27.8,3.1,28,3.8,28c0.3,0,0.7,0,1-0.1c1-0.3,1.8-0.9,2.3-1.8
			c0.9-1.6,0.6-3.6-0.8-4.8l2.1-3.1c2,1.2,4.5,1.2,6.5,0l3.2,4.6c-0.3,0.3-0.4,0.7-0.4,1.2s0.2,0.9,0.5,1.3c0.3,0.3,0.8,0.5,1.2,0.5
			c0.5,0,0.9-0.2,1.3-0.5c0.3-0.3,0.5-0.8,0.5-1.2c0-0.5-0.2-0.9-0.5-1.3c-0.5-0.5-1.2-0.7-1.9-0.4l-3.2-4.6c1-0.8,1.7-1.9,2.1-3.1
			l3,0.7v0.1c0,0.7,0.3,1.3,0.7,1.8c0.5,0.5,1.1,0.7,1.8,0.7l0,0c1.4,0,2.5-1.1,2.5-2.5S24.6,13,23.2,13l0,0c-1,0-1.9,0.6-2.3,1.6
			l-3-0.7c0.3-1.7-0.1-3.4-1.1-4.8l2.8-2.4c0.7,0.7,1.7,1.1,2.6,1.1l0,0c1,0,2-0.4,2.7-1.1S26.1,5,26.1,4S25.7,2,25,1.2
			C24.3,0.4,23.3,0,22.3,0L22.3,0z"/>
	</g>
	<g>
		<defs>
			<path id="SVGID_2_" d="M18.8,24.8c-0.2-0.2-0.3-0.4-0.3-0.7c0-0.2,0.1-0.4,0.2-0.6c0.2-0.2,0.4-0.3,0.6-0.3h0.1
				c0.2,0,0.4,0.1,0.6,0.2c0.4,0.3,0.4,0.9,0.1,1.3c-0.2,0.2-0.4,0.3-0.7,0.3C19.2,25,19,24.9,18.8,24.8 M1.7,26.4
				c-0.6-0.6-0.9-1.3-0.9-2.1c0-0.8,0.3-1.5,0.9-2.1s1.3-0.9,2.1-0.9l0,0c0.7,0,1.4,0.2,1.9,0.7c0.7,0.6,1.1,1.4,1.1,2.3
				c0,1.6-1.3,3-3,3l0,0C3,27.2,2.3,26.9,1.7,26.4 M21.6,15.5L21.6,15.5c0-0.5,0.2-0.9,0.5-1.2s0.7-0.4,1.1-0.4c0,0,0,0,0.1,0
				c0.4,0,0.8,0.2,1.1,0.5c0.3,0.3,0.5,0.7,0.4,1.2c0,0.9-0.7,1.6-1.6,1.6h-0.1C22.3,17.1,21.6,16.4,21.6,15.5 M10.7,18.2
				c-0.7-0.1-1.3-0.4-1.9-0.7c-2.6-1.6-3.4-5-1.8-7.5c1-1.7,2.8-2.6,4.7-2.6c1,0,2,0.3,2.9,0.8c1.9,1.2,2.9,3.5,2.5,5.7l0,0
				c-0.5,2.6-2.8,4.5-5.4,4.5C11.4,18.3,11.1,18.3,10.7,18.2 M1.6,3.7C1.4,3.3,1.3,2.9,1.4,2.4c0.1-0.4,0.4-0.8,0.7-1
				C2.4,1.3,2.7,1.2,3,1.2c0.1,0,0.3,0,0.4,0c0.4,0.1,0.8,0.4,1,0.7c0.4,0.6,0.3,1.4-0.1,1.9C4.2,4,4,4.1,3.9,4.2
				C3.6,4.4,3.3,4.5,3,4.5C2.5,4.5,1.9,4.2,1.6,3.7 M19.8,5.6c-0.4-0.5-0.5-1.1-0.5-1.7l0,0c0-0.8,0.3-1.6,0.9-2.1
				c0.6-0.6,1.3-0.9,2.1-0.9l0,0c0.8,0,1.6,0.3,2.1,0.9c0.6,0.6,0.9,1.3,0.9,2.1S25,5.5,24.4,6c-0.6,0.6-1.3,0.9-2.1,0.9l0,0
				C21.3,6.9,20.3,6.4,19.8,5.6 M22.3,0c-1,0-2,0.4-2.7,1.1c-1.4,1.3-1.5,3.4-0.5,5l-2.8,2.4c-2.2-2.3-5.8-2.6-8.4-0.6l-3-3.4
				c0.8-1,0.7-2.5-0.3-3.4C4.2,0.6,3.5,0.3,2.9,0.4c-0.7,0-1.3,0.3-1.7,0.8c-0.9,1-0.8,2.6,0.2,3.5c0.8,0.7,2,0.8,2.9,0.3l3,3.4
				C6.1,9.5,5.4,11,5.4,12.7S6,16,7.1,17.2c0.2,0.2,0.4,0.4,0.6,0.6l-2.1,3.1c-1.8-1-4.1-0.3-5.1,1.5C0.2,22.9,0,23.6,0,24.2l0,0
				c0,0.3,0,0.7,0.1,1c0.3,1,0.9,1.8,1.8,2.3C2.5,27.8,3.1,28,3.8,28c0.3,0,0.7,0,1-0.1c1-0.3,1.8-0.9,2.3-1.8
				c0.9-1.6,0.6-3.6-0.8-4.8l2.1-3.1c2,1.2,4.5,1.2,6.5,0l3.2,4.6c-0.3,0.3-0.4,0.7-0.4,1.2s0.2,0.9,0.5,1.3
				c0.3,0.3,0.8,0.5,1.2,0.5c0.5,0,0.9-0.2,1.3-0.5c0.3-0.3,0.5-0.8,0.5-1.2c0-0.5-0.2-0.9-0.5-1.3c-0.5-0.5-1.2-0.7-1.9-0.4
				l-3.2-4.6c1-0.8,1.7-1.9,2.1-3.1l3,0.7v0.1c0,0.7,0.3,1.3,0.7,1.8c0.5,0.5,1.1,0.7,1.8,0.7l0,0c1.4,0,2.5-1.1,2.5-2.5
				S24.6,13,23.2,13l0,0c-1,0-1.9,0.6-2.3,1.6l-3-0.7c0.3-1.7-0.1-3.4-1.1-4.8l2.8-2.4c0.7,0.7,1.7,1.1,2.6,1.1l0,0
				c1,0,2-0.4,2.7-1.1S26.1,5,26.1,4S25.7,2,25,1.2C24.3,0.4,23.3,0,22.3,0L22.3,0z"/>
		</defs>
		<clipPath id="SVGID_3_">
			<use xlink:href="#SVGID_2_"  style="overflow:visible;"/>
		</clipPath>
		<rect class="st1" width="26.2" height="28.1"/>
	</g>
</g>
</svg>
