<?xml version="1.0" encoding="utf-8"?>
<!-- Generator: Adobe Illustrator 19.2.1, SVG Export Plug-In . SVG Version: 6.00 Build 0)  -->
<svg version="1.1" id="Layer_1" xmlns="http://www.w3.org/2000/svg" xmlns:xlink="http://www.w3.org/1999/xlink" x="0px" y="0px"
	 viewBox="0 0 14.5 14.5" style="enable-background:new 0 0 14.5 14.5;" xml:space="preserve">
<style type="text/css">
	.st0{fill:#FFFFFF;}
</style>
<g>
	<path class="st0" d="M0.4,11.2h4.4v2.8c0,0.2,0.2,0.4,0.4,0.4h8.8c0.2,0,0.4-0.2,0.4-0.4V6c0-0.1,0-0.2-0.1-0.3l-2.4-2.4
		c-0.1-0.1-0.2-0.1-0.3-0.1h-2V2.8c0-0.1,0-0.2-0.1-0.3L7.1,0.1C7,0,6.9,0,6.8,0H0.4C0.2,0,0,0.2,0,0.4v10.4
		C0,11.1,0.2,11.2,0.4,11.2 M0.8,0.8h5.6v2c0,0.2,0.2,0.4,0.4,0.4h2v7.2h-8V0.8z M7.2,1.4l1,1h-1V1.4z M12,4.6l1,1h-1V4.6z
		 M11.6,6.4h2v7.2h-8v-2.4h3.6c0.2,0,0.4-0.2,0.4-0.4V4h1.6v2C11.2,6.2,11.4,6.4,11.6,6.4"/>
</g>
</svg>
