<?xml version="1.0" encoding="utf-8"?>
<!-- Generator: Adobe Illustrator 19.2.1, SVG Export Plug-In . SVG Version: 6.00 Build 0)  -->
<svg version="1.1" id="Layer_1" xmlns="http://www.w3.org/2000/svg" xmlns:xlink="http://www.w3.org/1999/xlink" x="0px" y="0px"
	 viewBox="0 0 32 32" style="enable-background:new 0 0 32 32;" xml:space="preserve">
<style type="text/css">
	.st0{fill:#ffffff;}
</style>
<g>
	<path class="st0" d="M16,0.8c-6.2,0-12.9,1.9-12.9,6v17.6c0,4.1,6.7,6,12.9,6c6.2,0,12.9-1.9,12.9-6V6.8C28.9,2.6,22.2,0.8,16,0.8z
		 M27.1,24.3c0,2.3-5,4.2-11.1,4.2c-6.1,0-11.1-1.9-11.1-4.2v-3.5c1.9,2,6.5,3,11.1,3s9.2-1,11.1-3V24.3z M27.1,18.8L27.1,18.8
		C27.1,18.8,27.1,18.8,27.1,18.8c0,2.3-5,4.2-11.1,4.2S4.9,21.1,4.9,18.8c0,0,0,0,0,0h0v-3.5c1.9,2,6.5,3,11.1,3s9.2-1,11.1-3V18.8z
		 M27.1,13.2L27.1,13.2C27.1,13.3,27.1,13.3,27.1,13.2c0,2.3-5,4.2-11.1,4.2S4.9,15.6,4.9,13.3c0,0,0,0,0,0h0v-3.2
		c2.4,1.8,6.9,2.7,11.1,2.7s8.7-0.9,11.1-2.7V13.2z M16,10.9c-6.1,0-11.1-1.9-11.1-4.2c0-2.3,5-4.2,11.1-4.2
		c6.1,0,11.1,1.9,11.1,4.2C27.1,9.1,22.1,10.9,16,10.9z"/>
	<circle class="st0" cx="24.3" cy="24.8" r="0.9"/>
	<circle class="st0" cx="24.3" cy="19.3" r="0.9"/>
	<circle class="st0" cx="24.3" cy="13.7" r="0.9"/>
</g>
</svg>
