<?xml version="1.0" encoding="utf-8"?>
<!-- Generator: Adobe Illustrator 16.0.0, SVG Export Plug-In . SVG Version: 6.00 Build 0)  -->
<!DOCTYPE svg PUBLIC "-//W3C//DTD SVG 1.1//EN" "http://www.w3.org/Graphics/SVG/1.1/DTD/svg11.dtd">
<svg version="1.1" id="Layer_1" xmlns="http://www.w3.org/2000/svg" xmlns:xlink="http://www.w3.org/1999/xlink" x="0px" y="0px"
	 width="29.14px" height="33.431px" viewBox="0 728.993 29.14 33.431" enable-background="new 0 728.993 29.14 33.431"
	 xml:space="preserve">
<g>
	<g>
		<defs>
			<rect id="SVGID_1_" x="0" y="728.993" width="29.14" height="33.431"/>
		</defs>
		<clipPath id="SVGID_2_">
			<use xlink:href="#SVGID_1_"  overflow="visible"/>
		</clipPath>
		
			<linearGradient id="SVGID_3_" gradientUnits="userSpaceOnUse" x1="1.1267" y1="812.9063" x2="1.1267" y2="814.3555" gradientTransform="matrix(23.0729 0 0 -23.0729 -11.4472 19518.5273)">
			<stop  offset="0" style="stop-color:#2170B8"/>
			<stop  offset="1" style="stop-color:#30B3A8"/>
		</linearGradient>
		<path clip-path="url(#SVGID_2_)" fill="url(#SVGID_3_)" d="M14.57,728.993C7.568,728.993,0,731.139,0,735.769v19.878
			c0,4.631,7.567,6.777,14.569,6.777c7.003,0,14.57-2.146,14.57-6.777v-19.878C29.14,731.026,21.573,728.993,14.57,728.993
			 M27.107,755.534c0,2.598-5.647,4.743-12.537,4.743c-6.889,0-12.536-2.146-12.536-4.743v-3.953
			c2.146,2.259,7.341,3.389,12.536,3.389c5.196,0,10.391-1.13,12.537-3.389V755.534z M27.107,749.322L27.107,749.322
			c0,2.597-5.647,4.744-12.537,4.744c-6.889,0-12.536-2.147-12.536-4.744v-3.953c2.146,2.26,7.341,3.39,12.536,3.39
			c5.196,0,10.391-1.13,12.537-3.39V749.322z M27.107,742.997L27.107,742.997C27.107,743.11,27.107,743.11,27.107,742.997
			c0,2.598-5.647,4.745-12.537,4.745c-6.889,0-12.536-2.034-12.536-4.632v-3.614c2.71,2.034,7.793,3.05,12.536,3.05
			c4.744,0,9.826-1.016,12.537-3.05V742.997z M14.57,740.4c-6.889,0-12.536-2.146-12.536-4.744s5.647-4.743,12.536-4.743
			c6.89,0,12.537,2.145,12.537,4.743C27.107,738.367,21.459,740.4,14.57,740.4"/>
	</g>
	<g>
		<defs>
			<rect id="SVGID_4_" x="0" y="728.993" width="29.14" height="33.431"/>
		</defs>
		<clipPath id="SVGID_5_">
			<use xlink:href="#SVGID_4_"  overflow="visible"/>
		</clipPath>
		
			<linearGradient id="SVGID_6_" gradientUnits="userSpaceOnUse" x1="1.5334" y1="813.1367" x2="1.5334" y2="813.2246" gradientTransform="matrix(23.0729 0 0 -23.0729 -11.4472 19518.5273)">
			<stop  offset="0" style="stop-color:#2170B8"/>
			<stop  offset="1" style="stop-color:#30B3A8"/>
		</linearGradient>
		<path clip-path="url(#SVGID_5_)" fill="url(#SVGID_6_)" d="M23.944,755.083c0.565,0,1.016,0.451,1.016,1.017
			s-0.451,1.017-1.016,1.017c-0.564,0-1.017-0.451-1.017-1.017S23.38,755.083,23.944,755.083"/>
	</g>
	<g>
		<defs>
			<rect id="SVGID_7_" x="0" y="728.993" width="29.14" height="33.431"/>
		</defs>
		<clipPath id="SVGID_8_">
			<use xlink:href="#SVGID_7_"  overflow="visible"/>
		</clipPath>
		
			<linearGradient id="SVGID_9_" gradientUnits="userSpaceOnUse" x1="1.5334" y1="813.4053" x2="1.5334" y2="813.4932" gradientTransform="matrix(23.0729 0 0 -23.0729 -11.4472 19518.5273)">
			<stop  offset="0" style="stop-color:#2170B8"/>
			<stop  offset="1" style="stop-color:#30B3A8"/>
		</linearGradient>
		<path clip-path="url(#SVGID_8_)" fill="url(#SVGID_9_)" d="M23.944,748.871c0.565,0,1.016,0.451,1.016,1.016
			c0,0.565-0.451,1.017-1.016,1.017c-0.564,0-1.017-0.451-1.017-1.017C22.927,749.322,23.38,748.871,23.944,748.871"/>
	</g>
	<g>
		<defs>
			<rect id="SVGID_10_" x="0" y="728.993" width="29.14" height="33.431"/>
		</defs>
		<clipPath id="SVGID_11_">
			<use xlink:href="#SVGID_10_"  overflow="visible"/>
		</clipPath>
		
			<linearGradient id="SVGID_12_" gradientUnits="userSpaceOnUse" x1="1.5334" y1="813.6797" x2="1.5334" y2="813.7676" gradientTransform="matrix(23.0729 0 0 -23.0729 -11.4472 19518.5273)">
			<stop  offset="0" style="stop-color:#2170B8"/>
			<stop  offset="1" style="stop-color:#30B3A8"/>
		</linearGradient>
		<path clip-path="url(#SVGID_11_)" fill="url(#SVGID_12_)" d="M23.944,742.546c0.565,0,1.016,0.451,1.016,1.017
			s-0.451,1.017-1.016,1.017c-0.564,0-1.017-0.451-1.017-1.017S23.38,742.546,23.944,742.546"/>
	</g>
</g>
</svg>
