<?xml version="1.0" encoding="utf-8"?>
<!-- Generator: Adobe Illustrator 19.2.1, SVG Export Plug-In . SVG Version: 6.00 Build 0)  -->
<svg version="1.1" id="Layer_1" xmlns="http://www.w3.org/2000/svg" xmlns:xlink="http://www.w3.org/1999/xlink" x="0px" y="0px"
	 viewBox="0 0 50 50" style="enable-background:new 0 0 50 50;" xml:space="preserve">
<style type="text/css">
	.data-frame-icon { fill: #ffffff;}
	.st1{font-family:'OpenSans-Semibold';}
	.st2{font-size:12.2899px;}
	.st3{letter-spacing:1;}
	.st4{fill:none;}
</style>
<g>
	<path class="data-frame-icon" d="M9,26v-1.8h25.8V26H9z"/>
	<path id="Shape_702_copy"	class="data-frame-icon" d="M9,29.6h25.8v1.8H9"/>
	<path id="Shape_702_copy_7" class="data-frame-icon" d="M9,40.2h25.8V42H9"/>
	<path id="Shape_702_copy_2" class="data-frame-icon" d="M9,34.9h25.8v1.8H9"/>
	<path id="Shape_702_copy_3" class="data-frame-icon" d="M10.8,24.2V42H9V24.2"/>
	<path id="Shape_702_copy_4" class="data-frame-icon" d="M18.8,24.2V42H17V24.2"/>
	<path id="Shape_702_copy_5" class="data-frame-icon" d="M26.8,24.2V42H25V24.2"/>
	<path id="Shape_702_copy_6" class="data-frame-icon" d="M34.8,24.2V42H33V24.2"/>
	<text id="A012" transform="matrix(1 0 0 1 29.008 20.8115)" class="data-frame-icon st1 st2 st3">A012</text>
	<g>
		<path class="data-frame-icon" d="M35.7,47.9H8.2c-1.4,0-2.7-0.5-3.7-1.5c-1-1-1.5-2.3-1.5-3.6V7.4C3,6,3.5,4.7,4.5,3.7c1-1,2.3-1.5,3.7-1.5
			h27.5c1.4,0,2.7,0.5,3.7,1.5c1,1,1.5,2.3,1.5,3.6V9h-1.6V7.4c0-0.9-0.4-1.8-1.1-2.5c-0.7-0.7-1.6-1-2.6-1H8.2c-1,0-1.9,0.4-2.6,1
			C5,5.5,4.6,6.4,4.6,7.4v35.4c0,0.9,0.4,1.8,1.1,2.5c0.7,0.7,1.6,1,2.6,1h27.5c1,0,1.9-0.4,2.6-1c0.7-0.7,1.1-1.5,1.1-2.5v-18h1.6
			v18c0,1.4-0.5,2.7-1.5,3.6C38.4,47.4,37.1,47.9,35.7,47.9z"/>
	</g>
	<rect id="_x3C_Slice_x3E_" x="39.4" y="23.2" class="st4" width="6.9" height="0.5"/>
</g>
</svg>
