<?xml version="1.0" encoding="utf-8"?>
<!-- Generator: Adobe Illustrator 22.0.1, SVG Export Plug-In . SVG Version: 6.00 Build 0)  -->
<svg version="1.1" id="Layer_1" xmlns="http://www.w3.org/2000/svg" xmlns:xlink="http://www.w3.org/1999/xlink" x="0px" y="0px"
	 viewBox="-257.5 310.4 19.4 15" style="enable-background:new -257.5 310.4 19.4 15;" xml:space="preserve">
<style type="text/css">
	.st0{clip-path:url(#SVGID_2_);fill:#2170B8;}
	.st1{clip-path:url(#SVGID_2_);fill:#2171B8;}
	.st2{clip-path:url(#SVGID_2_);fill:#2172B8;}
	.st3{clip-path:url(#SVGID_2_);fill:#2273B7;}
	.st4{clip-path:url(#SVGID_2_);fill:#2274B7;}
	.st5{clip-path:url(#SVGID_2_);fill:#2275B7;}
	.st6{clip-path:url(#SVGID_2_);fill:#2276B7;}
	.st7{clip-path:url(#SVGID_2_);fill:#2377B6;}
	.st8{clip-path:url(#SVGID_2_);fill:#2378B6;}
	.st9{clip-path:url(#SVGID_2_);fill:#2379B6;}
	.st10{clip-path:url(#SVGID_2_);fill:#237AB6;}
	.st11{clip-path:url(#SVGID_2_);fill:#237BB5;}
	.st12{clip-path:url(#SVGID_2_);fill:#247CB5;}
	.st13{clip-path:url(#SVGID_2_);fill:#247DB5;}
	.st14{clip-path:url(#SVGID_2_);fill:#247EB5;}
	.st15{clip-path:url(#SVGID_2_);fill:#247FB4;}
	.st16{clip-path:url(#SVGID_2_);fill:#2580B4;}
	.st17{clip-path:url(#SVGID_2_);fill:#2581B4;}
	.st18{clip-path:url(#SVGID_2_);fill:#2582B4;}
	.st19{clip-path:url(#SVGID_2_);fill:#2583B3;}
	.st20{clip-path:url(#SVGID_2_);fill:#2684B3;}
	.st21{clip-path:url(#SVGID_2_);fill:#2685B3;}
	.st22{clip-path:url(#SVGID_2_);fill:#2686B3;}
	.st23{clip-path:url(#SVGID_2_);fill:#2687B2;}
	.st24{clip-path:url(#SVGID_2_);fill:#2688B2;}
	.st25{clip-path:url(#SVGID_2_);fill:#2789B2;}
	.st26{clip-path:url(#SVGID_2_);fill:#278AB2;}
	.st27{clip-path:url(#SVGID_2_);fill:#278BB1;}
	.st28{clip-path:url(#SVGID_2_);fill:#278CB1;}
	.st29{clip-path:url(#SVGID_2_);fill:#288DB1;}
	.st30{clip-path:url(#SVGID_2_);fill:#288EB1;}
	.st31{clip-path:url(#SVGID_2_);fill:#288FB0;}
	.st32{clip-path:url(#SVGID_2_);fill:#2890B0;}
	.st33{clip-path:url(#SVGID_2_);fill:#2891B0;}
	.st34{clip-path:url(#SVGID_2_);fill:#2992B0;}
	.st35{clip-path:url(#SVGID_2_);fill:#2993B0;}
	.st36{clip-path:url(#SVGID_2_);fill:#2994AF;}
	.st37{clip-path:url(#SVGID_2_);fill:#2996AF;}
	.st38{clip-path:url(#SVGID_2_);fill:#2A97AF;}
	.st39{clip-path:url(#SVGID_2_);fill:#2A98AF;}
	.st40{clip-path:url(#SVGID_2_);fill:#2A99AE;}
	.st41{clip-path:url(#SVGID_2_);fill:#2A9AAE;}
	.st42{clip-path:url(#SVGID_2_);fill:#2B9BAE;}
	.st43{clip-path:url(#SVGID_2_);fill:#2B9CAE;}
	.st44{clip-path:url(#SVGID_2_);fill:#2B9DAD;}
	.st45{clip-path:url(#SVGID_2_);fill:#2B9EAD;}
	.st46{clip-path:url(#SVGID_2_);fill:#2B9FAD;}
	.st47{clip-path:url(#SVGID_2_);fill:#2CA0AD;}
	.st48{clip-path:url(#SVGID_2_);fill:#2CA1AC;}
	.st49{clip-path:url(#SVGID_2_);fill:#2CA2AC;}
	.st50{clip-path:url(#SVGID_2_);fill:#2CA3AC;}
	.st51{clip-path:url(#SVGID_2_);fill:#2DA4AC;}
	.st52{clip-path:url(#SVGID_2_);fill:#2DA5AB;}
	.st53{clip-path:url(#SVGID_2_);fill:#2DA6AB;}
	.st54{clip-path:url(#SVGID_2_);fill:#2DA7AB;}
	.st55{clip-path:url(#SVGID_2_);fill:#2DA8AB;}
	.st56{clip-path:url(#SVGID_2_);fill:#2EA9AA;}
	.st57{clip-path:url(#SVGID_2_);fill:#2EAAAA;}
	.st58{clip-path:url(#SVGID_2_);fill:#2EABAA;}
	.st59{clip-path:url(#SVGID_2_);fill:#2EACAA;}
	.st60{clip-path:url(#SVGID_2_);fill:#2FADA9;}
	.st61{clip-path:url(#SVGID_2_);fill:#2FAEA9;}
	.st62{clip-path:url(#SVGID_2_);fill:#2FAFA9;}
	.st63{clip-path:url(#SVGID_2_);fill:#2FB0A9;}
	.st64{clip-path:url(#SVGID_2_);fill:#30B1A8;}
	.st65{clip-path:url(#SVGID_2_);fill:#30B2A8;}
	.st66{clip-path:url(#SVGID_2_);fill:#30B3A8;}
	.st67{fill:#FFFFFF;}
	.st68{clip-path:url(#SVGID_4_);fill:#FFFFFF;}
	.st69{clip-path:url(#SVGID_6_);fill:#FFFFFF;}
	.st70{clip-path:url(#SVGID_8_);fill:#FFFFFF;}
	.st71{clip-path:url(#SVGID_10_);fill:#FFFFFF;}
</style>
<g>
	<g>
		<g>
			<defs>
				<path id="SVGID_1_" d="M-245.1,324.2h-0.5v-0.6c0,0.3-0.1,0.6-0.4,0.8c-0.2,0.2-0.5,0.3-0.8,0.3h-8.8c-0.3,0-0.6-0.1-0.8-0.3
					c-0.2-0.2-0.4-0.5-0.4-0.8v-11.4c0-0.3,0.1-0.6,0.3-0.8c0.2-0.2,0.5-0.3,0.8-0.3h8.8c0.3,0,0.6,0.1,0.8,0.3
					c0.2,0.2,0.4,0.5,0.4,0.8v0.5h0.5v-0.5c0-0.4-0.2-0.8-0.5-1.2s-0.7-0.5-1.2-0.5h-8.8c-0.4,0-0.9,0.2-1.2,0.5s-0.5,0.7-0.5,1.2
					v11.4c0,0.4,0.2,0.8,0.5,1.2c0.3,0.3,0.7,0.5,1.2,0.5h8.8c0.5,0,0.9-0.2,1.3-0.5c0.3-0.3,0.5-0.7,0.5-1.2"/>
			</defs>
			<clipPath id="SVGID_2_">
				<use xlink:href="#SVGID_1_"  style="overflow:visible;"/>
			</clipPath>
			<rect x="-257.3" y="325.2" class="st0" width="12.3" height="0.1"/>
			<rect x="-257.3" y="325" class="st0" width="12.3" height="0.2"/>
			<rect x="-257.3" y="324.8" class="st1" width="12.3" height="0.2"/>
			<rect x="-257.3" y="324.6" class="st2" width="12.3" height="0.2"/>
			<rect x="-257.3" y="324.4" class="st3" width="12.3" height="0.2"/>
			<rect x="-257.3" y="324.2" class="st4" width="12.3" height="0.2"/>
			<rect x="-257.3" y="323.9" class="st5" width="12.3" height="0.2"/>
			<rect x="-257.3" y="323.7" class="st6" width="12.3" height="0.2"/>
			<rect x="-257.3" y="323.5" class="st7" width="12.3" height="0.2"/>
			<rect x="-257.3" y="323.3" class="st8" width="12.3" height="0.2"/>
			<rect x="-257.3" y="323.1" class="st9" width="12.3" height="0.2"/>
			<rect x="-257.3" y="322.9" class="st10" width="12.3" height="0.2"/>
			<rect x="-257.3" y="322.6" class="st11" width="12.3" height="0.2"/>
			<rect x="-257.3" y="322.4" class="st12" width="12.3" height="0.2"/>
			<rect x="-257.3" y="322.2" class="st13" width="12.3" height="0.2"/>
			<rect x="-257.3" y="322" class="st14" width="12.3" height="0.2"/>
			<rect x="-257.3" y="321.8" class="st15" width="12.3" height="0.2"/>
			<rect x="-257.3" y="321.6" class="st16" width="12.3" height="0.2"/>
			<rect x="-257.3" y="321.3" class="st17" width="12.3" height="0.2"/>
			<rect x="-257.3" y="321.1" class="st18" width="12.3" height="0.2"/>
			<rect x="-257.3" y="320.9" class="st19" width="12.3" height="0.2"/>
			<rect x="-257.3" y="320.7" class="st20" width="12.3" height="0.2"/>
			<rect x="-257.3" y="320.5" class="st21" width="12.3" height="0.2"/>
			<rect x="-257.3" y="320.3" class="st22" width="12.3" height="0.2"/>
			<rect x="-257.3" y="320" class="st23" width="12.3" height="0.2"/>
			<rect x="-257.3" y="319.8" class="st24" width="12.3" height="0.2"/>
			<rect x="-257.3" y="319.6" class="st25" width="12.3" height="0.2"/>
			<rect x="-257.3" y="319.4" class="st26" width="12.3" height="0.2"/>
			<rect x="-257.3" y="319.2" class="st27" width="12.3" height="0.2"/>
			<rect x="-257.3" y="319" class="st28" width="12.3" height="0.2"/>
			<rect x="-257.3" y="318.7" class="st29" width="12.3" height="0.2"/>
			<rect x="-257.3" y="318.5" class="st30" width="12.3" height="0.2"/>
			<rect x="-257.3" y="318.3" class="st31" width="12.3" height="0.2"/>
			<rect x="-257.3" y="318.1" class="st32" width="12.3" height="0.2"/>
			<rect x="-257.3" y="317.9" class="st33" width="12.3" height="0.2"/>
			<rect x="-257.3" y="317.7" class="st34" width="12.3" height="0.2"/>
			<rect x="-257.3" y="317.4" class="st35" width="12.3" height="0.2"/>
			<rect x="-257.3" y="317.2" class="st36" width="12.3" height="0.2"/>
			<rect x="-257.3" y="317" class="st37" width="12.3" height="0.2"/>
			<rect x="-257.3" y="316.8" class="st38" width="12.3" height="0.2"/>
			<rect x="-257.3" y="316.6" class="st39" width="12.3" height="0.2"/>
			<rect x="-257.3" y="316.4" class="st40" width="12.3" height="0.2"/>
			<rect x="-257.3" y="316.1" class="st41" width="12.3" height="0.2"/>
			<rect x="-257.3" y="315.9" class="st42" width="12.3" height="0.2"/>
			<rect x="-257.3" y="315.7" class="st43" width="12.3" height="0.2"/>
			<rect x="-257.3" y="315.5" class="st44" width="12.3" height="0.2"/>
			<rect x="-257.3" y="315.3" class="st45" width="12.3" height="0.2"/>
			<rect x="-257.3" y="315.1" class="st46" width="12.3" height="0.2"/>
			<rect x="-257.3" y="314.8" class="st47" width="12.3" height="0.2"/>
			<rect x="-257.3" y="314.6" class="st48" width="12.3" height="0.2"/>
			<rect x="-257.3" y="314.4" class="st49" width="12.3" height="0.2"/>
			<rect x="-257.3" y="314.2" class="st50" width="12.3" height="0.2"/>
			<rect x="-257.3" y="314" class="st51" width="12.3" height="0.2"/>
			<rect x="-257.3" y="313.8" class="st52" width="12.3" height="0.2"/>
			<rect x="-257.3" y="313.5" class="st53" width="12.3" height="0.2"/>
			<rect x="-257.3" y="313.3" class="st54" width="12.3" height="0.2"/>
			<rect x="-257.3" y="313.1" class="st55" width="12.3" height="0.2"/>
			<rect x="-257.3" y="312.9" class="st56" width="12.3" height="0.2"/>
			<rect x="-257.3" y="312.7" class="st57" width="12.3" height="0.2"/>
			<rect x="-257.3" y="312.5" class="st58" width="12.3" height="0.2"/>
			<rect x="-257.3" y="312.2" class="st59" width="12.3" height="0.2"/>
			<rect x="-257.3" y="312" class="st60" width="12.3" height="0.2"/>
			<rect x="-257.3" y="311.8" class="st61" width="12.3" height="0.2"/>
			<rect x="-257.3" y="311.6" class="st62" width="12.3" height="0.2"/>
			<rect x="-257.3" y="311.4" class="st63" width="12.3" height="0.2"/>
			<rect x="-257.3" y="311.2" class="st64" width="12.3" height="0.2"/>
			<rect x="-257.3" y="310.9" class="st65" width="12.3" height="0.2"/>
			<rect x="-257.3" y="310.7" class="st66" width="12.3" height="0.2"/>
			<rect x="-257.3" y="310.6" class="st66" width="12.3" height="0.1"/>
		</g>
		<path class="st67" d="M-246.8,325.4h-8.8c-0.5,0-1-0.2-1.3-0.5c-0.3-0.3-0.5-0.8-0.5-1.3v-11.4c0-0.5,0.2-1,0.5-1.3
			c0.3-0.3,0.8-0.5,1.3-0.5h8.8c0.5,0,1,0.2,1.3,0.5c0.3,0.3,0.5,0.8,0.5,1.3v0.7h-0.8v-0.7c0-0.2-0.1-0.5-0.3-0.7
			c-0.2-0.2-0.4-0.3-0.7-0.3h-8.8c-0.3,0-0.6,0.2-0.7,0.3c-0.2,0.2-0.3,0.4-0.3,0.7v11.4c0,0.2,0.1,0.5,0.3,0.7
			c0.2,0.2,0.4,0.3,0.7,0.3h8.8c0.3,0,0.6-0.2,0.7-0.3c0.2-0.2,0.3-0.4,0.3-0.7v-2.1h0.8v2.1c0,0.5-0.2,1-0.5,1.3
			C-245.9,325.3-246.3,325.4-246.8,325.4z"/>
	</g>
</g>
<g>
	<g>
		<g>
			<defs>
				<path id="SVGID_3_" d="M-251.3,318l0.4,1.2h0.8l-1.7-4.5h-0.8l-1.7,4.5h0.8l0.4-1.2H-251.3z M-252.4,316.2
					c0.1-0.3,0.2-0.6,0.2-0.8c0,0.1,0.1,0.2,0.1,0.4c0.1,0.2,0.1,0.3,0.1,0.4l0.4,1.2h-1.3L-252.4,316.2z"/>
			</defs>
			<use xlink:href="#SVGID_3_"  style="overflow:visible;fill:#FFFFFF;"/>
			<clipPath id="SVGID_4_">
				<use xlink:href="#SVGID_3_"  style="overflow:visible;"/>
			</clipPath>
			<rect x="-252.8" y="317.3" class="st68" width="1.3" height="0.1"/>
			<rect x="-252.8" y="317.3" class="st68" width="1.3" height="0.1"/>
			<rect x="-252.8" y="317.2" class="st68" width="1.3" height="0.1"/>
			<rect x="-252.8" y="317.1" class="st68" width="1.3" height="0.1"/>
			<rect x="-252.8" y="317.1" class="st68" width="1.3" height="0.1"/>
			<rect x="-252.8" y="317" class="st68" width="1.3" height="0.1"/>
			<rect x="-252.8" y="316.9" class="st68" width="1.3" height="0.1"/>
			<rect x="-252.8" y="316.9" class="st68" width="1.3" height="0.1"/>
			<rect x="-252.8" y="316.8" class="st68" width="1.3" height="0.1"/>
			<rect x="-252.8" y="316.7" class="st68" width="1.3" height="0.1"/>
			<rect x="-252.8" y="316.7" class="st68" width="1.3" height="0.1"/>
			<rect x="-252.8" y="316.6" class="st68" width="1.3" height="0.1"/>
			<rect x="-252.8" y="316.5" class="st68" width="1.3" height="0.1"/>
			<rect x="-252.8" y="316.5" class="st68" width="1.3" height="0.1"/>
			<rect x="-252.8" y="316.4" class="st68" width="1.3" height="0.1"/>
			<rect x="-252.8" y="316.3" class="st68" width="1.3" height="0.1"/>
			<rect x="-252.8" y="316.3" class="st68" width="1.3" height="0.1"/>
			<rect x="-252.8" y="316.2" class="st68" width="1.3" height="0.1"/>
			<rect x="-252.8" y="316.1" class="st68" width="1.3" height="0.1"/>
			<rect x="-252.8" y="316.1" class="st68" width="1.3" height="0.1"/>
			<rect x="-252.8" y="316" class="st68" width="1.3" height="0.1"/>
			<rect x="-252.8" y="315.9" class="st68" width="1.3" height="0.1"/>
			<rect x="-252.8" y="315.9" class="st68" width="1.3" height="0.1"/>
			<rect x="-252.8" y="315.8" class="st68" width="1.3" height="0.1"/>
			<rect x="-252.8" y="315.7" class="st68" width="1.3" height="0.1"/>
			<rect x="-252.8" y="315.7" class="st68" width="1.3" height="0.1"/>
			<rect x="-252.8" y="315.6" class="st68" width="1.3" height="0.1"/>
			<rect x="-252.8" y="315.5" class="st68" width="1.3" height="0.1"/>
			<rect x="-252.8" y="315.5" class="st68" width="1.3" height="0.1"/>
			<rect x="-252.8" y="315.4" class="st68" width="1.3" height="0.1"/>
			<rect x="-252.8" y="315.4" class="st68" width="1.3" height="0"/>
			<rect x="-254.2" y="319.3" class="st68" width="4.1" height="0"/>
			<rect x="-254.2" y="319.2" class="st68" width="4.1" height="0.1"/>
			<rect x="-254.2" y="319.1" class="st68" width="4.1" height="0.1"/>
			<rect x="-254.2" y="319.1" class="st68" width="4.1" height="0.1"/>
			<rect x="-254.2" y="319" class="st68" width="4.1" height="0.1"/>
			<rect x="-254.2" y="318.9" class="st68" width="4.1" height="0.1"/>
			<rect x="-254.2" y="318.9" class="st68" width="4.1" height="0.1"/>
			<rect x="-254.2" y="318.8" class="st68" width="4.1" height="0.1"/>
			<rect x="-254.2" y="318.7" class="st68" width="4.1" height="0.1"/>
			<rect x="-254.2" y="318.7" class="st68" width="4.1" height="0.1"/>
			<rect x="-254.2" y="318.6" class="st68" width="4.1" height="0.1"/>
			<rect x="-254.2" y="318.5" class="st68" width="4.1" height="0.1"/>
			<rect x="-254.2" y="318.5" class="st68" width="4.1" height="0.1"/>
			<rect x="-254.2" y="318.4" class="st68" width="4.1" height="0.1"/>
			<rect x="-254.2" y="318.3" class="st68" width="4.1" height="0.1"/>
			<rect x="-254.2" y="318.3" class="st68" width="4.1" height="0.1"/>
			<rect x="-254.2" y="318.2" class="st68" width="4.1" height="0.1"/>
			<rect x="-254.2" y="318.1" class="st68" width="4.1" height="0.1"/>
			<rect x="-254.2" y="318.1" class="st68" width="4.1" height="0.1"/>
			<rect x="-254.2" y="318" class="st68" width="4.1" height="0.1"/>
			<rect x="-254.2" y="317.9" class="st68" width="4.1" height="0.1"/>
			<rect x="-254.2" y="317.9" class="st68" width="4.1" height="0.1"/>
			<rect x="-254.2" y="317.8" class="st68" width="4.1" height="0.1"/>
			<rect x="-254.2" y="317.7" class="st68" width="4.1" height="0.1"/>
			<rect x="-254.2" y="317.7" class="st68" width="4.1" height="0.1"/>
			<rect x="-254.2" y="317.6" class="st68" width="4.1" height="0.1"/>
			<rect x="-254.2" y="317.5" class="st68" width="4.1" height="0.1"/>
			<rect x="-254.2" y="317.5" class="st68" width="4.1" height="0.1"/>
			<rect x="-254.2" y="317.4" class="st68" width="4.1" height="0.1"/>
			<rect x="-254.2" y="317.3" class="st68" width="4.1" height="0.1"/>
			<rect x="-254.2" y="317.3" class="st68" width="4.1" height="0.1"/>
			<rect x="-254.2" y="317.2" class="st68" width="4.1" height="0.1"/>
			<rect x="-254.2" y="317.1" class="st68" width="4.1" height="0.1"/>
			<rect x="-254.2" y="317.1" class="st68" width="4.1" height="0.1"/>
			<rect x="-254.2" y="317" class="st68" width="4.1" height="0.1"/>
			<rect x="-254.2" y="316.9" class="st68" width="4.1" height="0.1"/>
			<rect x="-254.2" y="316.9" class="st68" width="4.1" height="0.1"/>
			<rect x="-254.2" y="316.8" class="st68" width="4.1" height="0.1"/>
			<rect x="-254.2" y="316.7" class="st68" width="4.1" height="0.1"/>
			<rect x="-254.2" y="316.7" class="st68" width="4.1" height="0.1"/>
			<rect x="-254.2" y="316.6" class="st68" width="4.1" height="0.1"/>
			<rect x="-254.2" y="316.5" class="st68" width="4.1" height="0.1"/>
			<rect x="-254.2" y="316.5" class="st68" width="4.1" height="0.1"/>
			<rect x="-254.2" y="316.4" class="st68" width="4.1" height="0.1"/>
			<rect x="-254.2" y="316.3" class="st68" width="4.1" height="0.1"/>
			<rect x="-254.2" y="316.3" class="st68" width="4.1" height="0.1"/>
			<rect x="-254.2" y="316.2" class="st68" width="4.1" height="0.1"/>
			<rect x="-254.2" y="316.1" class="st68" width="4.1" height="0.1"/>
			<rect x="-254.2" y="316.1" class="st68" width="4.1" height="0.1"/>
			<rect x="-254.2" y="316" class="st68" width="4.1" height="0.1"/>
			<rect x="-254.2" y="315.9" class="st68" width="4.1" height="0.1"/>
			<rect x="-254.2" y="315.9" class="st68" width="4.1" height="0.1"/>
			<rect x="-254.2" y="315.8" class="st68" width="4.1" height="0.1"/>
			<rect x="-254.2" y="315.7" class="st68" width="4.1" height="0.1"/>
			<rect x="-254.2" y="315.7" class="st68" width="4.1" height="0.1"/>
			<rect x="-254.2" y="315.6" class="st68" width="4.1" height="0.1"/>
			<rect x="-254.2" y="315.5" class="st68" width="4.1" height="0.1"/>
			<rect x="-254.2" y="315.5" class="st68" width="4.1" height="0.1"/>
			<rect x="-254.2" y="315.4" class="st68" width="4.1" height="0.1"/>
			<rect x="-254.2" y="315.3" class="st68" width="4.1" height="0.1"/>
			<rect x="-254.2" y="315.3" class="st68" width="4.1" height="0.1"/>
			<rect x="-254.2" y="315.2" class="st68" width="4.1" height="0.1"/>
			<polyline class="st68" points="-254.2,315.2 -254.2,315.2 -250,315.2 -250,315.2 			"/>
			<rect x="-254.2" y="315.1" class="st68" width="4.1" height="0.1"/>
			<rect x="-254.2" y="315" class="st68" width="4.1" height="0.1"/>
			<rect x="-254.2" y="315" class="st68" width="4.1" height="0.1"/>
			<rect x="-254.2" y="314.9" class="st68" width="4.1" height="0.1"/>
			<rect x="-254.2" y="314.8" class="st68" width="4.1" height="0.1"/>
			<rect x="-254.2" y="314.8" class="st68" width="4.1" height="0"/>
		</g>
	</g>
	<g>
		<g>
			<defs>
				<path id="SVGID_5_" d="M-247.8,319.3c0.5,0,0.9-0.2,1.1-0.6c0.3-0.4,0.4-1,0.4-1.7c0-0.8-0.1-1.3-0.4-1.7
					c-0.3-0.4-0.6-0.6-1.1-0.6c-0.5,0-0.9,0.2-1.1,0.6c-0.3,0.4-0.4,1-0.4,1.7c0,0.8,0.1,1.3,0.4,1.7
					C-248.6,319.1-248.2,319.3-247.8,319.3z M-248.4,315.7c0.1-0.3,0.3-0.4,0.6-0.4c0.3,0,0.5,0.1,0.6,0.4c0.1,0.3,0.2,0.7,0.2,1.3
					c0,0.6-0.1,1-0.2,1.3c-0.1,0.3-0.3,0.4-0.6,0.4c-0.3,0-0.5-0.1-0.6-0.4c-0.1-0.3-0.2-0.7-0.2-1.3S-248.5,316-248.4,315.7z"/>
			</defs>
			<use xlink:href="#SVGID_5_"  style="overflow:visible;fill:#FFFFFF;"/>
			<clipPath id="SVGID_6_">
				<use xlink:href="#SVGID_5_"  style="overflow:visible;"/>
			</clipPath>
			<rect x="-248.5" y="318.7" class="st69" width="1.6" height="0"/>
			<rect x="-248.5" y="318.6" class="st69" width="1.6" height="0.1"/>
			<rect x="-248.5" y="318.6" class="st69" width="1.6" height="0.1"/>
			<rect x="-248.5" y="318.5" class="st69" width="1.6" height="0.1"/>
			<rect x="-248.5" y="318.4" class="st69" width="1.6" height="0.1"/>
			<rect x="-248.5" y="318.4" class="st69" width="1.6" height="0.1"/>
			<rect x="-248.5" y="318.3" class="st69" width="1.6" height="0.1"/>
			<rect x="-248.5" y="318.2" class="st69" width="1.6" height="0.1"/>
			<rect x="-248.5" y="318.2" class="st69" width="1.6" height="0.1"/>
			<rect x="-248.5" y="318.1" class="st69" width="1.6" height="0.1"/>
			<rect x="-248.5" y="318" class="st69" width="1.6" height="0.1"/>
			<rect x="-248.5" y="318" class="st69" width="1.6" height="0.1"/>
			<rect x="-248.5" y="317.9" class="st69" width="1.6" height="0.1"/>
			<rect x="-248.5" y="317.8" class="st69" width="1.6" height="0.1"/>
			<rect x="-248.5" y="317.8" class="st69" width="1.6" height="0.1"/>
			<rect x="-248.5" y="317.7" class="st69" width="1.6" height="0.1"/>
			<rect x="-248.5" y="317.6" class="st69" width="1.6" height="0.1"/>
			<rect x="-248.5" y="317.6" class="st69" width="1.6" height="0.1"/>
			<rect x="-248.5" y="317.5" class="st69" width="1.6" height="0.1"/>
			<rect x="-248.5" y="317.4" class="st69" width="1.6" height="0.1"/>
			<rect x="-248.5" y="317.4" class="st69" width="1.6" height="0.1"/>
			<rect x="-248.5" y="317.3" class="st69" width="1.6" height="0.1"/>
			<rect x="-248.5" y="317.2" class="st69" width="1.6" height="0.1"/>
			<rect x="-248.5" y="317.1" class="st69" width="1.6" height="0.1"/>
			<rect x="-248.5" y="317.1" class="st69" width="1.6" height="0.1"/>
			<rect x="-248.5" y="317" class="st69" width="1.6" height="0.1"/>
			<rect x="-248.5" y="316.9" class="st69" width="1.6" height="0.1"/>
			<rect x="-248.5" y="316.9" class="st69" width="1.6" height="0.1"/>
			<rect x="-248.5" y="316.8" class="st69" width="1.6" height="0.1"/>
			<rect x="-248.5" y="316.7" class="st69" width="1.6" height="0.1"/>
			<rect x="-248.5" y="316.7" class="st69" width="1.6" height="0.1"/>
			<rect x="-248.5" y="316.6" class="st69" width="1.6" height="0.1"/>
			<rect x="-248.5" y="316.5" class="st69" width="1.6" height="0.1"/>
			<rect x="-248.5" y="316.5" class="st69" width="1.6" height="0.1"/>
			<rect x="-248.5" y="316.4" class="st69" width="1.6" height="0.1"/>
			<rect x="-248.5" y="316.3" class="st69" width="1.6" height="0.1"/>
			<rect x="-248.5" y="316.3" class="st69" width="1.6" height="0.1"/>
			<rect x="-248.5" y="316.2" class="st69" width="1.6" height="0.1"/>
			<rect x="-248.5" y="316.1" class="st69" width="1.6" height="0.1"/>
			<rect x="-248.5" y="316.1" class="st69" width="1.6" height="0.1"/>
			<rect x="-248.5" y="316" class="st69" width="1.6" height="0.1"/>
			<rect x="-248.5" y="315.9" class="st69" width="1.6" height="0.1"/>
			<rect x="-248.5" y="315.9" class="st69" width="1.6" height="0.1"/>
			<rect x="-248.5" y="315.8" class="st69" width="1.6" height="0.1"/>
			<rect x="-248.5" y="315.7" class="st69" width="1.6" height="0.1"/>
			<rect x="-248.5" y="315.7" class="st69" width="1.6" height="0.1"/>
			<rect x="-248.5" y="315.6" class="st69" width="1.6" height="0.1"/>
			<rect x="-248.5" y="315.5" class="st69" width="1.6" height="0.1"/>
			<rect x="-248.5" y="315.4" class="st69" width="1.6" height="0.1"/>
			<rect x="-248.5" y="315.4" class="st69" width="1.6" height="0.1"/>
			<rect x="-248.5" y="315.3" class="st69" width="1.6" height="0"/>
			<rect x="-249.3" y="319.3" class="st69" width="3" height="0"/>
			<rect x="-249.3" y="319.3" class="st69" width="3" height="0.1"/>
			<rect x="-249.3" y="319.2" class="st69" width="3" height="0.1"/>
			<rect x="-249.3" y="319.1" class="st69" width="3" height="0.1"/>
			<rect x="-249.3" y="319.1" class="st69" width="3" height="0.1"/>
			<rect x="-249.3" y="319" class="st69" width="3" height="0.1"/>
			<rect x="-249.3" y="318.9" class="st69" width="3" height="0.1"/>
			<rect x="-249.3" y="318.8" class="st69" width="3" height="0.1"/>
			<rect x="-249.3" y="318.8" class="st69" width="3" height="0.1"/>
			<rect x="-249.3" y="318.7" class="st69" width="3" height="0.1"/>
			<rect x="-249.3" y="318.6" class="st69" width="3" height="0.1"/>
			<rect x="-249.3" y="318.6" class="st69" width="3" height="0.1"/>
			<rect x="-249.3" y="318.5" class="st69" width="3" height="0.1"/>
			<rect x="-249.3" y="318.4" class="st69" width="3" height="0.1"/>
			<rect x="-249.3" y="318.4" class="st69" width="3" height="0.1"/>
			<rect x="-249.3" y="318.3" class="st69" width="3" height="0.1"/>
			<rect x="-249.3" y="318.2" class="st69" width="3" height="0.1"/>
			<rect x="-249.3" y="318.2" class="st69" width="3" height="0.1"/>
			<rect x="-249.3" y="318.1" class="st69" width="3" height="0.1"/>
			<rect x="-249.3" y="318" class="st69" width="3" height="0.1"/>
			<rect x="-249.3" y="318" class="st69" width="3" height="0.1"/>
			<rect x="-249.3" y="317.9" class="st69" width="3" height="0.1"/>
			<rect x="-249.3" y="317.8" class="st69" width="3" height="0.1"/>
			<rect x="-249.3" y="317.8" class="st69" width="3" height="0.1"/>
			<rect x="-249.3" y="317.7" class="st69" width="3" height="0.1"/>
			<rect x="-249.3" y="317.6" class="st69" width="3" height="0.1"/>
			<rect x="-249.3" y="317.6" class="st69" width="3" height="0.1"/>
			<rect x="-249.3" y="317.5" class="st69" width="3" height="0.1"/>
			<rect x="-249.3" y="317.4" class="st69" width="3" height="0.1"/>
			<rect x="-249.3" y="317.4" class="st69" width="3" height="0.1"/>
			<rect x="-249.3" y="317.3" class="st69" width="3" height="0.1"/>
			<rect x="-249.3" y="317.2" class="st69" width="3" height="0.1"/>
			<rect x="-249.3" y="317.1" class="st69" width="3" height="0.1"/>
			<rect x="-249.3" y="317.1" class="st69" width="3" height="0.1"/>
			<rect x="-249.3" y="317" class="st69" width="3" height="0.1"/>
			<rect x="-249.3" y="316.9" class="st69" width="3" height="0.1"/>
			<rect x="-249.3" y="316.9" class="st69" width="3" height="0.1"/>
			<rect x="-249.3" y="316.8" class="st69" width="3" height="0.1"/>
			<rect x="-249.3" y="316.7" class="st69" width="3" height="0.1"/>
			<rect x="-249.3" y="316.7" class="st69" width="3" height="0.1"/>
			<rect x="-249.3" y="316.6" class="st69" width="3" height="0.1"/>
			<rect x="-249.3" y="316.5" class="st69" width="3" height="0.1"/>
			<rect x="-249.3" y="316.5" class="st69" width="3" height="0.1"/>
			<rect x="-249.3" y="316.4" class="st69" width="3" height="0.1"/>
			<rect x="-249.3" y="316.3" class="st69" width="3" height="0.1"/>
			<rect x="-249.3" y="316.3" class="st69" width="3" height="0.1"/>
			<rect x="-249.3" y="316.2" class="st69" width="3" height="0.1"/>
			<rect x="-249.3" y="316.1" class="st69" width="3" height="0.1"/>
			<rect x="-249.3" y="316.1" class="st69" width="3" height="0.1"/>
			<rect x="-249.3" y="316" class="st69" width="3" height="0.1"/>
			<rect x="-249.3" y="315.9" class="st69" width="3" height="0.1"/>
			<rect x="-249.3" y="315.9" class="st69" width="3" height="0.1"/>
			<rect x="-249.3" y="315.8" class="st69" width="3" height="0.1"/>
			<rect x="-249.3" y="315.7" class="st69" width="3" height="0.1"/>
			<rect x="-249.3" y="315.7" class="st69" width="3" height="0.1"/>
			<rect x="-249.3" y="315.6" class="st69" width="3" height="0.1"/>
			<rect x="-249.3" y="315.5" class="st69" width="3" height="0.1"/>
			<rect x="-249.3" y="315.4" class="st69" width="3" height="0.1"/>
			<rect x="-249.3" y="315.4" class="st69" width="3" height="0.1"/>
			<rect x="-249.3" y="315.3" class="st69" width="3" height="0.1"/>
			<rect x="-249.3" y="315.2" class="st69" width="3" height="0.1"/>
			<rect x="-249.3" y="315.2" class="st69" width="3" height="0.1"/>
			<rect x="-249.3" y="315.1" class="st69" width="3" height="0.1"/>
			<rect x="-249.3" y="315" class="st69" width="3" height="0.1"/>
			<rect x="-249.3" y="315" class="st69" width="3" height="0.1"/>
			<rect x="-249.3" y="314.9" class="st69" width="3" height="0.1"/>
			<rect x="-249.3" y="314.8" class="st69" width="3" height="0.1"/>
			<rect x="-249.3" y="314.8" class="st69" width="3" height="0.1"/>
			<rect x="-249.3" y="314.7" class="st69" width="3" height="0"/>
		</g>
	</g>
	<g>
		<g>
			<defs>
				<path id="SVGID_7_" d="M-243.8,319.3h0.7v-4.5h-0.6l-1.3,1l0.4,0.5c0.4-0.3,0.6-0.5,0.7-0.6c0.1-0.1,0.1-0.1,0.2-0.2
					c0,0.2,0,0.5,0,0.8V319.3z"/>
			</defs>
			<use xlink:href="#SVGID_7_"  style="overflow:visible;fill:#FFFFFF;"/>
			<clipPath id="SVGID_8_">
				<use xlink:href="#SVGID_7_"  style="overflow:visible;"/>
			</clipPath>
			<rect x="-245" y="319.3" class="st70" width="1.9" height="0"/>
			<rect x="-245" y="319.2" class="st70" width="1.9" height="0.1"/>
			<rect x="-245" y="319.1" class="st70" width="1.9" height="0.1"/>
			<rect x="-245" y="319.1" class="st70" width="1.9" height="0.1"/>
			<rect x="-245" y="319" class="st70" width="1.9" height="0.1"/>
			<rect x="-245" y="318.9" class="st70" width="1.9" height="0.1"/>
			<rect x="-245" y="318.9" class="st70" width="1.9" height="0.1"/>
			<rect x="-245" y="318.8" class="st70" width="1.9" height="0.1"/>
			<rect x="-245" y="318.7" class="st70" width="1.9" height="0.1"/>
			<rect x="-245" y="318.7" class="st70" width="1.9" height="0.1"/>
			<rect x="-245" y="318.6" class="st70" width="1.9" height="0.1"/>
			<rect x="-245" y="318.5" class="st70" width="1.9" height="0.1"/>
			<rect x="-245" y="318.5" class="st70" width="1.9" height="0.1"/>
			<rect x="-245" y="318.4" class="st70" width="1.9" height="0.1"/>
			<rect x="-245" y="318.3" class="st70" width="1.9" height="0.1"/>
			<rect x="-245" y="318.3" class="st70" width="1.9" height="0.1"/>
			<rect x="-245" y="318.2" class="st70" width="1.9" height="0.1"/>
			<rect x="-245" y="318.1" class="st70" width="1.9" height="0.1"/>
			<rect x="-245" y="318.1" class="st70" width="1.9" height="0.1"/>
			<rect x="-245" y="318" class="st70" width="1.9" height="0.1"/>
			<rect x="-245" y="317.9" class="st70" width="1.9" height="0.1"/>
			<rect x="-245" y="317.9" class="st70" width="1.9" height="0.1"/>
			<rect x="-245" y="317.8" class="st70" width="1.9" height="0.1"/>
			<rect x="-245" y="317.7" class="st70" width="1.9" height="0.1"/>
			<rect x="-245" y="317.7" class="st70" width="1.9" height="0.1"/>
			<rect x="-245" y="317.6" class="st70" width="1.9" height="0.1"/>
			<rect x="-245" y="317.5" class="st70" width="1.9" height="0.1"/>
			<rect x="-245" y="317.5" class="st70" width="1.9" height="0.1"/>
			<rect x="-245" y="317.4" class="st70" width="1.9" height="0.1"/>
			<rect x="-245" y="317.3" class="st70" width="1.9" height="0.1"/>
			<rect x="-245" y="317.3" class="st70" width="1.9" height="0.1"/>
			<rect x="-245" y="317.2" class="st70" width="1.9" height="0.1"/>
			<rect x="-245" y="317.1" class="st70" width="1.9" height="0.1"/>
			<rect x="-245" y="317.1" class="st70" width="1.9" height="0.1"/>
			<rect x="-245" y="317" class="st70" width="1.9" height="0.1"/>
			<rect x="-245" y="317" class="st70" width="1.9" height="0.1"/>
			<rect x="-245" y="316.9" class="st70" width="1.9" height="0.1"/>
			<rect x="-245" y="316.8" class="st70" width="1.9" height="0.1"/>
			<rect x="-245" y="316.8" class="st70" width="1.9" height="0.1"/>
			<rect x="-245" y="316.7" class="st70" width="1.9" height="0.1"/>
			<rect x="-245" y="316.6" class="st70" width="1.9" height="0.1"/>
			<rect x="-245" y="316.6" class="st70" width="1.9" height="0.1"/>
			<rect x="-245" y="316.5" class="st70" width="1.9" height="0.1"/>
			<rect x="-245" y="316.4" class="st70" width="1.9" height="0.1"/>
			<rect x="-245" y="316.4" class="st70" width="1.9" height="0.1"/>
			<rect x="-245" y="316.3" class="st70" width="1.9" height="0.1"/>
			<rect x="-245" y="316.2" class="st70" width="1.9" height="0.1"/>
			<rect x="-245" y="316.2" class="st70" width="1.9" height="0.1"/>
			<rect x="-245" y="316.1" class="st70" width="1.9" height="0.1"/>
			<rect x="-245" y="316" class="st70" width="1.9" height="0.1"/>
			<rect x="-245" y="316" class="st70" width="1.9" height="0.1"/>
			<rect x="-245" y="315.9" class="st70" width="1.9" height="0.1"/>
			<rect x="-245" y="315.8" class="st70" width="1.9" height="0.1"/>
			<rect x="-245" y="315.8" class="st70" width="1.9" height="0.1"/>
			<rect x="-245" y="315.7" class="st70" width="1.9" height="0.1"/>
			<rect x="-245" y="315.6" class="st70" width="1.9" height="0.1"/>
			<rect x="-245" y="315.6" class="st70" width="1.9" height="0.1"/>
			<rect x="-245" y="315.5" class="st70" width="1.9" height="0.1"/>
			<rect x="-245" y="315.4" class="st70" width="1.9" height="0.1"/>
			<rect x="-245" y="315.4" class="st70" width="1.9" height="0.1"/>
			<rect x="-245" y="315.3" class="st70" width="1.9" height="0.1"/>
			<rect x="-245" y="315.2" class="st70" width="1.9" height="0.1"/>
			<rect x="-245" y="315.2" class="st70" width="1.9" height="0.1"/>
			<rect x="-245" y="315.1" class="st70" width="1.9" height="0.1"/>
			<rect x="-245" y="315" class="st70" width="1.9" height="0.1"/>
			<rect x="-245" y="315" class="st70" width="1.9" height="0.1"/>
			<rect x="-245" y="314.9" class="st70" width="1.9" height="0.1"/>
			<rect x="-245" y="314.8" class="st70" width="1.9" height="0.1"/>
			<rect x="-245" y="314.8" class="st70" width="1.9" height="0"/>
		</g>
	</g>
	<g>
		<g>
			<defs>
				<path id="SVGID_9_" d="M-238,318.6h-2.1v0l0.8-0.8c0.3-0.3,0.6-0.6,0.7-0.8c0.2-0.2,0.3-0.4,0.3-0.6c0.1-0.2,0.1-0.4,0.1-0.6
					c0-0.4-0.1-0.7-0.4-0.9c-0.3-0.2-0.6-0.3-1-0.3c-0.3,0-0.5,0-0.8,0.1c-0.2,0.1-0.5,0.2-0.7,0.4l0.4,0.5c0.2-0.2,0.4-0.3,0.6-0.3
					c0.2-0.1,0.3-0.1,0.5-0.1c0.2,0,0.4,0.1,0.5,0.2c0.1,0.1,0.2,0.3,0.2,0.5c0,0.1,0,0.3-0.1,0.4c-0.1,0.1-0.1,0.3-0.2,0.4
					c-0.1,0.1-0.3,0.4-0.7,0.7l-1.2,1.2v0.5h3V318.6z"/>
			</defs>
			<use xlink:href="#SVGID_9_"  style="overflow:visible;fill:#FFFFFF;"/>
			<clipPath id="SVGID_10_">
				<use xlink:href="#SVGID_9_"  style="overflow:visible;"/>
			</clipPath>
			<rect x="-241.1" y="319.3" class="st71" width="3" height="0"/>
			<rect x="-241.1" y="319.2" class="st71" width="3" height="0.1"/>
			<rect x="-241.1" y="319.1" class="st71" width="3" height="0.1"/>
			<rect x="-241.1" y="319.1" class="st71" width="3" height="0.1"/>
			<rect x="-241.1" y="319" class="st71" width="3" height="0.1"/>
			<rect x="-241.1" y="318.9" class="st71" width="3" height="0.1"/>
			<rect x="-241.1" y="318.9" class="st71" width="3" height="0.1"/>
			<rect x="-241.1" y="318.8" class="st71" width="3" height="0.1"/>
			<rect x="-241.1" y="318.7" class="st71" width="3" height="0.1"/>
			<rect x="-241.1" y="318.7" class="st71" width="3" height="0.1"/>
			<rect x="-241.1" y="318.6" class="st71" width="3" height="0.1"/>
			<rect x="-241.1" y="318.5" class="st71" width="3" height="0.1"/>
			<rect x="-241.1" y="318.5" class="st71" width="3" height="0.1"/>
			<rect x="-241.1" y="318.4" class="st71" width="3" height="0.1"/>
			<rect x="-241.1" y="318.3" class="st71" width="3" height="0.1"/>
			<rect x="-241.1" y="318.3" class="st71" width="3" height="0.1"/>
			<rect x="-241.1" y="318.2" class="st71" width="3" height="0.1"/>
			<rect x="-241.1" y="318.1" class="st71" width="3" height="0.1"/>
			<rect x="-241.1" y="318.1" class="st71" width="3" height="0.1"/>
			<rect x="-241.1" y="318" class="st71" width="3" height="0.1"/>
			<rect x="-241.1" y="317.9" class="st71" width="3" height="0.1"/>
			<rect x="-241.1" y="317.9" class="st71" width="3" height="0.1"/>
			<rect x="-241.1" y="317.8" class="st71" width="3" height="0.1"/>
			<rect x="-241.1" y="317.7" class="st71" width="3" height="0.1"/>
			<rect x="-241.1" y="317.7" class="st71" width="3" height="0.1"/>
			<rect x="-241.1" y="317.6" class="st71" width="3" height="0.1"/>
			<rect x="-241.1" y="317.5" class="st71" width="3" height="0.1"/>
			<rect x="-241.1" y="317.5" class="st71" width="3" height="0.1"/>
			<rect x="-241.1" y="317.4" class="st71" width="3" height="0.1"/>
			<rect x="-241.1" y="317.3" class="st71" width="3" height="0.1"/>
			<rect x="-241.1" y="317.3" class="st71" width="3" height="0.1"/>
			<rect x="-241.1" y="317.2" class="st71" width="3" height="0.1"/>
			<rect x="-241.1" y="317.1" class="st71" width="3" height="0.1"/>
			<rect x="-241.1" y="317.1" class="st71" width="3" height="0.1"/>
			<rect x="-241.1" y="317" class="st71" width="3" height="0.1"/>
			<rect x="-241.1" y="316.9" class="st71" width="3" height="0.1"/>
			<rect x="-241.1" y="316.8" class="st71" width="3" height="0.1"/>
			<rect x="-241.1" y="316.8" class="st71" width="3" height="0.1"/>
			<rect x="-241.1" y="316.7" class="st71" width="3" height="0.1"/>
			<rect x="-241.1" y="316.6" class="st71" width="3" height="0.1"/>
			<rect x="-241.1" y="316.6" class="st71" width="3" height="0.1"/>
			<rect x="-241.1" y="316.5" class="st71" width="3" height="0.1"/>
			<rect x="-241.1" y="316.4" class="st71" width="3" height="0.1"/>
			<rect x="-241.1" y="316.4" class="st71" width="3" height="0.1"/>
			<rect x="-241.1" y="316.3" class="st71" width="3" height="0.1"/>
			<rect x="-241.1" y="316.2" class="st71" width="3" height="0.1"/>
			<rect x="-241.1" y="316.2" class="st71" width="3" height="0.1"/>
			<rect x="-241.1" y="316.1" class="st71" width="3" height="0.1"/>
			<rect x="-241.1" y="316" class="st71" width="3" height="0.1"/>
			<rect x="-241.1" y="316" class="st71" width="3" height="0.1"/>
			<rect x="-241.1" y="315.9" class="st71" width="3" height="0.1"/>
			<rect x="-241.1" y="315.8" class="st71" width="3" height="0.1"/>
			<rect x="-241.1" y="315.8" class="st71" width="3" height="0.1"/>
			<rect x="-241.1" y="315.7" class="st71" width="3" height="0.1"/>
			<rect x="-241.1" y="315.6" class="st71" width="3" height="0.1"/>
			<rect x="-241.1" y="315.6" class="st71" width="3" height="0.1"/>
			<rect x="-241.1" y="315.5" class="st71" width="3" height="0.1"/>
			<rect x="-241.1" y="315.4" class="st71" width="3" height="0.1"/>
			<rect x="-241.1" y="315.4" class="st71" width="3" height="0.1"/>
			<rect x="-241.1" y="315.3" class="st71" width="3" height="0.1"/>
			<rect x="-241.1" y="315.2" class="st71" width="3" height="0.1"/>
			<rect x="-241.1" y="315.2" class="st71" width="3" height="0.1"/>
			<rect x="-241.1" y="315.1" class="st71" width="3" height="0.1"/>
			<rect x="-241.1" y="315" class="st71" width="3" height="0.1"/>
			<rect x="-241.1" y="315" class="st71" width="3" height="0.1"/>
			<rect x="-241.1" y="314.9" class="st71" width="3" height="0.1"/>
			<rect x="-241.1" y="314.8" class="st71" width="3" height="0.1"/>
			<rect x="-241.1" y="314.8" class="st71" width="3" height="0.1"/>
			<rect x="-241.1" y="314.7" class="st71" width="3" height="0"/>
		</g>
	</g>
</g>
</svg>
