<?xml version="1.0" encoding="utf-8"?>
<!-- Generator: Adobe Illustrator 19.2.1, SVG Export Plug-In . SVG Version: 6.00 Build 0)  -->
<svg version="1.1" id="Layer_1" xmlns="http://www.w3.org/2000/svg" xmlns:xlink="http://www.w3.org/1999/xlink" x="0px" y="0px"
	 viewBox="0 0 27.3 26.7" style="enable-background:new 0 0 27.3 26.7;" xml:space="preserve">
<style type="text/css">
	.st0{fill:#19DDC8;}
</style>
<g>
	<path class="st0" d="M21.1,9.3c0.3,0.2,0.6,0.2,0.9,0l0,0l1.3-1l1.3,1c0.3,0.2,0.6,0.2,0.9,0s0.3-0.6,0-0.8l-1.3-1l1.3-1
		c0.3-0.2,0.3-0.6,0-0.8c-0.3-0.2-0.6-0.2-0.9,0l-1.3,1l-1.3-1c-0.3-0.2-0.6-0.2-0.9,0s-0.3,0.6,0,0.8l1.3,1l-1.3,1
		C20.9,8.7,20.9,9.1,21.1,9.3L21.1,9.3z"/>
	<path class="st0" d="M21.5,9.6c-0.2,0-0.4-0.1-0.5-0.2l0,0c-0.3-0.3-0.3-0.7,0-1l1.1-1L21,6.5c-0.2-0.1-0.3-0.3-0.3-0.5
		s0.1-0.4,0.3-0.5c0.3-0.2,0.7-0.2,1.1,0l1.2,1l1.2-1c0.3-0.2,0.7-0.2,1.1,0c0.2,0.1,0.3,0.3,0.3,0.5s-0.1,0.4-0.3,0.5l-1.1,0.9
		l1.1,0.9c0.2,0.1,0.3,0.3,0.3,0.5s-0.1,0.4-0.3,0.5c-0.3,0.2-0.7,0.2-1.1,0l-1.2-1l-1.2,1C21.9,9.5,21.7,9.6,21.5,9.6z M23.3,8.1
		l1.3,1.1c0.2,0.2,0.5,0.2,0.7,0c0.1-0.1,0.2-0.2,0.2-0.3c0-0.1-0.1-0.2-0.2-0.3l-1.4-1.2l1.4-1.2c0.1-0.1,0.2-0.2,0.2-0.3
		c0-0.1-0.1-0.2-0.2-0.3c-0.2-0.2-0.5-0.2-0.7,0l-1.3,1.1L22,5.6c-0.2-0.2-0.5-0.2-0.7,0c-0.1,0.1-0.2,0.2-0.2,0.3
		c0,0.1,0.1,0.2,0.2,0.3l1.4,1.2l-1.4,1.2c-0.1,0.1-0.1,0.4,0,0.6c0.2,0.2,0.5,0.2,0.7,0L23.3,8.1z"/>
</g>
<g>
	<path class="st0" d="M4.5,13c-1,0-1.7,0.7-1.7,1.6s1.7,3.1,1.7,3.1s1.7-2.2,1.7-3.1C6.2,13.7,5.4,13,4.5,13z M4.5,15.6
		c-0.6,0-1.1-0.5-1.1-1s0.5-1,1.1-1s1.1,0.5,1.1,1C5.6,15.2,5.1,15.6,4.5,15.6L4.5,15.6L4.5,15.6L4.5,15.6z"/>
	<path class="st0" d="M4.5,18l-0.1-0.1c-0.1-0.1-1.8-2.3-1.8-3.2c0-1,0.8-1.8,1.9-1.8c1,0,1.9,0.8,1.9,1.8c0,0.9-1.7,3.1-1.8,3.2
		L4.5,18z M4.5,13.1c-0.9,0-1.6,0.7-1.6,1.5c0,0.6,1.1,2.2,1.6,2.9c0.5-0.7,1.6-2.3,1.6-2.9C6.1,13.8,5.3,13.1,4.5,13.1z M4.5,15.7
		c-0.7,0-1.3-0.5-1.3-1.2c0-0.6,0.6-1.2,1.3-1.2c0.7,0,1.3,0.5,1.3,1.2C5.7,15.2,5.2,15.7,4.5,15.7z M4.5,13.7c-0.6,0-1,0.4-1,0.9
		s0.5,0.9,1,0.9s1-0.3,1-0.9C5.5,14.1,5,13.7,4.5,13.7z"/>
</g>
<g>
	<path class="st0" d="M26.9,4.3l-8.8-4.1c-0.1,0-0.2,0-0.3,0L9.1,4.3L0.4,0.2C0.2,0.1,0.1,0.2,0,0.3c0,0,0,0,0,0.1V22
		c0,0.1,0,0.2,0.1,0.2l8.8,4.1c0.1,0,0.2,0,0.3,0l8.7-4.1l8.7,4.1h0.1c0.1,0,0.2,0,0.2-0.1v-0.1V4.5C27.1,4.5,27,4.4,26.9,4.3z
		 M18.3,9.9l0.6-0.2V9.6c0-0.1-0.1-0.2-0.1-0.3c0-0.1-0.1-0.1-0.1-0.2s-0.1-0.2-0.1-0.3c0-0.1-0.1-0.2-0.1-0.3V0.8l8.2,3.9v21.1
		l-8.2-3.9v-12H18.3z M9.4,24.1c0.4,0,0.7,0,1.1-0.1l0,0l-0.2-0.9l0,0c-0.3,0-0.6,0.1-0.9,0.1V4.7l8.2-3.9v7.4L17,8.4l0,0
		c0.1,0.2,0.3,0.6,0.4,0.9l0.1,0.2v12.2l-8.2,3.9L9.4,24.1L9.4,24.1z M8.8,23.1c-0.1,0-0.1,0-0.2,0H8.5L8.4,24l0,0
		c0.1,0,0.3,0,0.4,0v1.7l-8.2-3.9V0.6l8.2,3.9L8.8,23.1L8.8,23.1z"/>
	<path class="st0" d="M26.7,26.6C26.6,26.6,26.6,26.6,26.7,26.6L26.7,26.6L26.7,26.6L18,22.5l-8.6,4.1c-0.1,0.1-0.3,0.1-0.4,0
		l-8.8-4.1C0.1,22.4,0,22.3,0,22.1V0.4c0-0.1,0-0.2,0.1-0.2C0.2,0,0.4,0,0.7,0.1l8.6,4.1l8.6-4.1C18,0,18.2,0,18.3,0.1l8.8,4.1
		c0.2,0.1,0.2,0.2,0.2,0.4v21.6c0,0.1,0,0.1-0.1,0.2C27,26.5,26.9,26.6,26.7,26.6z M26.6,26.3C26.7,26.3,26.7,26.3,26.6,26.3
		c0.1,0,0.2,0,0.2,0l0,0c0,0,0,0,0-0.1V4.6l0,0c0,0,0,0,0-0.1L18,0.4c-0.1,0-0.1,0-0.2,0L9.1,4.5H9L0.3,0.4c-0.2-0.1-0.2,0-0.3,0
		l0,0V22c0,0,0,0.1,0.1,0.1l8.8,4.1c0.1,0,0.1,0,0.2,0l8.7-4.1h0.1L26.6,26.3z M8.9,26l-8.5-4V0.5l0.2,0.1l8.3,3.9V23H8.8v0.1H8.5
		l-0.1,0.7h0.1c0.1,0,0.1,0,0.2,0h0.1V26L8.9,26L8.9,26z M0.7,21.9l8,3.7v-1.4H8.6c-0.1,0-0.1,0-0.2,0H8.2L8.4,23h0.3V4.8L0.7,1
		C0.7,1,0.7,21.9,0.7,21.9z M26.6,26l-0.2-0.1L18.1,22V9.9l0.5-0.2l-0.1-0.2c0,0,0,0,0-0.1s-0.1-0.1-0.1-0.2l-0.1-0.3
		c0-0.1-0.1-0.1-0.1-0.2s0-0.1-0.1-0.2V8.4V0.5l0.2,0.1l8.3,3.9C26.6,4.5,26.6,26,26.6,26z M18.4,21.8l8,3.8V4.8l-8-3.8v7.4
		c0,0,0,0.1,0.1,0.1c0,0.1,0,0.1,0.1,0.2L18.8,9v0.1c0,0,0,0,0,0.1l0.3,0.5l-0.6,0.2L18.4,21.8L18.4,21.8z M9.4,25.9V24h0.1v-0.1
		c0.3,0,0.6,0,1-0.1l0,0l-0.2-0.7c-0.3,0-0.5,0.1-0.8,0.1H9.4V4.5h0.1l8.4-4v7.7l-0.5,0.2c0.1,0.2,0.3,0.5,0.4,0.8L18,9.5v12.3h-0.1
		L9.4,25.9z M9.6,24.2v1.3l8-3.8V9.6l-0.1-0.2c-0.2-0.4-0.3-0.7-0.4-0.9l0,0l-0.2-0.2l0.7-0.2V1l-8,3.8V23c0.2,0,0.5,0,0.7-0.1h0.2
		l0.3,1.2h-0.3C10.2,24.2,9.9,24.2,9.6,24.2z"/>
</g>
<g>
	<path class="st0" d="M13.3,7.6L12.7,7c-0.6,0.3-1.1,0.8-1.4,1.3l0.8,0.4C12.4,8.2,12.8,7.9,13.3,7.6z"/>
	<path class="st0" d="M12.1,8.8L11,8.2l0.1-0.1c0.4-0.5,0.9-1,1.5-1.3l0.1-0.1l0.8,0.8l-0.1,0.1C12.9,8,12.5,8.3,12.1,8.8L12.1,8.8z
		 M11.5,8.2l0.6,0.3c0.3-0.3,0.6-0.7,1-0.9l-0.4-0.4C12.2,7.4,11.8,7.7,11.5,8.2z"/>
</g>
<g>
	<path class="st0" d="M14.2,17.1l1-0.1c0-0.1,0-0.1,0-0.2c-0.1-0.5-0.2-1-0.4-1.4l-0.9,0.3c0.2,0.4,0.3,0.8,0.4,1.3
		C14.1,17,14.2,17.1,14.2,17.1z"/>
	<path class="st0" d="M14,17.3v-0.1c0,0,0,0,0-0.1V17c0-0.4-0.2-0.8-0.4-1.2l-0.1-0.1l1.2-0.4v0.1c0.2,0.5,0.3,1,0.4,1.4
		c0.1,0.1,0.1,0.2,0.1,0.3v0.1L14,17.3z M13.9,15.7c0.2,0.4,0.3,0.8,0.3,1.2c0,0,0,0,0,0.1l0.7-0.1l0,0l0,0
		c-0.1-0.4-0.2-0.9-0.4-1.3L13.9,15.7z"/>
</g>
<g>
	<path class="st0" d="M11.3,10.1V10l-1-0.1c0,0,0,0.1,0,0.2s0,0.3,0,0.5c0,0.4,0.1,0.8,0.3,1.2l0.9-0.3c-0.1-0.3-0.2-0.6-0.2-0.9
		C11.3,10.3,11.3,10.2,11.3,10.1z"/>
	<path class="st0" d="M10.5,11.8l-0.1-0.1c-0.2-0.4-0.3-0.8-0.3-1.2c0-0.2,0-0.3,0-0.5c0-0.1,0-0.1,0-0.2V9.6h0.2l1.2,0.2L11.3,10
		c0,0,0,0,0,0.1v0.4c0,0.3,0.1,0.6,0.2,0.8l0.1,0.1L10.5,11.8z M10.5,10L10.5,10L10.5,10c-0.1,0.2-0.1,0.3-0.1,0.5
		c0,0.3,0.1,0.7,0.2,1l0.7-0.2c-0.1-0.2-0.1-0.5-0.1-0.8v-0.4l0,0L10.5,10z"/>
</g>
<g>
	<path class="st0" d="M4.7,19.1c0.3,0.6,0.7,1.2,1.1,1.7l0.7-0.4c-0.4-0.4-0.7-0.9-1-1.4L4.7,19.1z"/>
	<path class="st0" d="M5.8,20.9L5.8,20.9c-0.5-0.6-0.9-1.1-1.2-1.8l-0.1-0.2l1.1-0.3v0.1c0.2,0.5,0.6,1,0.9,1.4l0.1,0.1L5.8,20.9z
		 M4.9,19.2c0.3,0.5,0.6,1,0.9,1.4l0.5-0.3c-0.3-0.4-0.6-0.8-0.8-1.2L4.9,19.2z"/>
</g>
<g>
	<path class="st0" d="M19.7,11.7c0.6,0,1.1-0.3,1.6-0.9l-0.8-0.5c-0.3,0.3-0.6,0.6-0.8,0.6l0,0h-0.1l-0.5,0.7
		C19.2,11.6,19.4,11.6,19.7,11.7L19.7,11.7z"/>
	<path class="st0" d="M19.7,11.8L19.7,11.8c-0.2,0-0.2,0-0.3,0c-0.1,0-0.3,0-0.4-0.1l-0.1-0.1l0.6-1l0.1,0.1c0,0,0,0,0.1,0
		s0.4-0.2,0.7-0.5l0.1-0.1l1.1,0.6l-0.1,0.1C20.9,11.5,20.3,11.8,19.7,11.8z M19.3,11.5c0.1,0,0.1,0,0.2,0s0.1,0,0.2,0h0.1
		c0.5,0,1-0.2,1.4-0.7l-0.6-0.3C20.4,10.8,20,11,19.8,11h-0.1L19.3,11.5z"/>
</g>
<g>
	<path class="st0" d="M7.3,23l0.6-0.7c-0.3-0.4-0.7-0.8-1.2-1.2l-0.6,0.8C6.6,22.3,7,22.7,7.3,23z"/>
	<path class="st0" d="M7.4,23.2l-0.1-0.1c-0.3-0.3-0.7-0.8-1.1-1.2l-0.1-0.1l0.8-1L7,20.9c0.5,0.5,0.9,0.9,1.2,1.2l0.1,0.1L7.4,23.2
		z M6.4,21.8c0.3,0.4,0.7,0.7,1,1l0.5-0.5c-0.3-0.3-0.6-0.6-1-1L6.4,21.8z"/>
</g>
<g>
	<path class="st0" d="M12.9,14.3l0.8-0.4c-0.3-0.3-0.6-0.7-0.9-1l-0.3-0.3l-0.8,0.5l0.3,0.3C12.3,13.7,12.6,14,12.9,14.3z"/>
	<path class="st0" d="M12.8,14.5L12.8,14.5c-0.2-0.2-0.4-0.4-0.5-0.6s-0.3-0.3-0.4-0.5L11.5,13l1-0.6l0.4,0.4
		c0.2,0.2,0.3,0.3,0.5,0.5s0.3,0.3,0.5,0.5l0.1,0.1L12.8,14.5z M11.9,13.1l0.2,0.2c0.2,0.2,0.3,0.3,0.4,0.5c0.1,0.1,0.2,0.3,0.4,0.4
		l0.6-0.3c-0.1-0.1-0.2-0.2-0.3-0.4c-0.2-0.2-0.3-0.3-0.5-0.5l-0.2-0.2L11.9,13.1z"/>
</g>
<g>
	<path class="st0" d="M14.6,6.2L14.8,7c0.2,0,0.4,0,0.7,0c0.3,0,0.5,0.1,0.7,0.3l0.7-0.6c-0.3-0.3-0.7-0.4-1.2-0.5
		C15.4,6.1,15,6.1,14.6,6.2z"/>
	<path class="st0" d="M16.2,7.5L16.2,7.5c-0.2-0.2-0.5-0.3-0.7-0.4c-0.2,0-0.4,0-0.6,0h-0.1l-0.3-1h0.1c0.3,0,0.7,0,1.1,0
		c0.6,0.1,0.9,0.3,1.3,0.6l0.1,0.1L16.2,7.5z M15.2,6.8c0.1,0,0.3,0,0.4,0c0.3,0,0.5,0.1,0.7,0.3l0.5-0.4c-0.3-0.2-0.6-0.3-1-0.4
		c-0.3,0-0.6,0-0.9,0L15,6.8C15,6.8,15.1,6.8,15.2,6.8z"/>
</g>
<g>
	<path class="st0" d="M13.8,20.1l1,0.2c0.2-0.5,0.3-1.1,0.4-1.6h-1C14.1,19.1,14,19.6,13.8,20.1z"/>
	<path class="st0" d="M14.9,20.5l-1.2-0.3l0.1-0.1c0.2-0.5,0.3-0.9,0.3-1.3l0.1-0.3l1.2,0.1v0.1C15.4,19.2,15.2,19.8,14.9,20.5
		L14.9,20.5z M14,20.1l0.7,0.2c0.2-0.5,0.3-0.9,0.3-1.4h-0.7l0,0C14.2,19.2,14.1,19.6,14,20.1z"/>
</g>
<g>
	<path class="st0" d="M11.9,22.6l0.6,0.7c0.6-0.3,1.1-0.8,1.4-1.3l-0.8-0.4C12.8,21.9,12.4,22.3,11.9,22.6z"/>
	<path class="st0" d="M12.4,23.4l-0.8-0.9l0.1-0.1c0.5-0.3,0.8-0.6,1.2-1l0.1-0.1l1.1,0.6L14,22C13.6,22.5,13.1,23,12.4,23.4
		L12.4,23.4z M12.1,22.6l0.4,0.5c0.5-0.3,0.9-0.7,1.2-1.1l-0.6-0.3C12.8,22,12.5,22.3,12.1,22.6z"/>
</g>
</svg>
