<?xml version="1.0" encoding="utf-8"?>
<!-- Generator: Adobe Illustrator 19.2.1, SVG Export Plug-In . SVG Version: 6.00 Build 0)  -->
<svg version="1.1" id="Layer_1" xmlns="http://www.w3.org/2000/svg" xmlns:xlink="http://www.w3.org/1999/xlink" x="0px" y="0px"
	 viewBox="0 0 16.1 15.5" style="enable-background:new 0 0 16.1 15.5;" xml:space="preserve">
<style type="text/css">
	.st0{fill:#FFFFFF;}
</style>
<g>
	<path class="st0" d="M7.7,12.8C7.7,12.8,7.7,12.8,7.7,12.8C7.8,12.8,7.8,12.9,7.7,12.8c0.1,0.1,0.1,0.1,0.1,0.1c0,0,0,0,0.1,0
		c0,0,0,0,0,0c0,0,0,0,0.1,0c0,0,0.1,0,0.1,0h0c0,0,0,0,0,0c0,0,0.1,0,0.1,0c0,0,0,0,0.1,0c0,0,0,0,0,0c0,0,0.1,0,0.1,0c0,0,0,0,0,0
		c0,0,0.1,0,0.1-0.1l4.4-4.4c0.2-0.2,0.2-0.5,0-0.7c-0.2-0.2-0.5-0.2-0.7,0l-3.6,3.6V0.5C8.5,0.2,8.3,0,8.1,0S7.6,0.2,7.6,0.5v10.9
		L4,7.7c-0.2-0.2-0.5-0.2-0.7,0c-0.2,0.2-0.2,0.5,0,0.7L7.7,12.8z M15.7,11.9c-0.3,0-0.5,0.2-0.5,0.5v0.8c0,0.8-0.6,1.4-1.4,1.4H2.4
		c-0.8,0-1.4-0.6-1.4-1.4v-0.8c0-0.3-0.2-0.5-0.5-0.5S0,12.1,0,12.3v0.8c0,1.3,1.1,2.4,2.4,2.4h11.4c1.3,0,2.4-1.1,2.4-2.4v-0.8
		C16.1,12.1,15.9,11.9,15.7,11.9"/>
</g>
</svg>
