<?xml version="1.0" encoding="utf-8"?>
<!-- Generator: Adobe Illustrator 19.2.1, SVG Export Plug-In . SVG Version: 6.00 Build 0)  -->
<svg version="1.1" id="Layer_1" xmlns="http://www.w3.org/2000/svg" xmlns:xlink="http://www.w3.org/1999/xlink" x="0px" y="0px"
	 viewBox="0 0 15.5 15.5" style="enable-background:new 0 0 15.5 15.5;" xml:space="preserve">
<style type="text/css">
	.st0{clip-path:url(#SVGID_2_);fill:#FFFFFF;}
</style>
<g>
	<defs>
		<rect id="SVGID_1_" width="15.5" height="15.5"/>
	</defs>
	<clipPath id="SVGID_2_">
		<use xlink:href="#SVGID_1_"  style="overflow:visible;"/>
	</clipPath>
	<path class="st0" d="M0.6,15.5c0.1,0,0.1,0,0.2,0l4.5-1.3c0.2-0.1,0.5-0.2,0.6-0.4l9.2-9.2c0.3-0.3,0.4-0.7,0.4-1.1
		c0-0.4-0.1-0.8-0.4-1L13,0.4c-0.6-0.6-1.5-0.6-2.1,0L1.7,9.6C1.5,9.8,1.4,10,1.3,10.2L0,14.7c-0.1,0.2,0,0.5,0.2,0.6
		C0.3,15.5,0.5,15.5,0.6,15.5 M9.4,3.8l2.4,2.4l-6.3,6.3L3,10.1L9.4,3.8z M11.8,1.3c0,0,0.1-0.1,0.1-0.1c0.1,0,0.1,0,0.1,0.1
		l2.1,2.1c0,0.1,0.1,0.1,0.1,0.1c0,0,0,0.1-0.1,0.2l-1.5,1.5l-2.4-2.4L11.8,1.3z M2.4,11.2l1.9,1.9l-2.7,0.8L2.4,11.2z"/>
</g>
</svg>
