<?xml version="1.0" encoding="utf-8"?>
<!-- Generator: Adobe Illustrator 22.0.1, SVG Export Plug-In . SVG Version: 6.00 Build 0)  -->
<svg version="1.1" id="Layer_1" xmlns="http://www.w3.org/2000/svg" xmlns:xlink="http://www.w3.org/1999/xlink" x="0px" y="0px"
	 viewBox="0 0 13.4 13.4" style="enable-background:new 0 0 13.4 13.4;" xml:space="preserve">
<style type="text/css">
	.st0{fill:#2170B8;}
</style>
<path class="st0" d="M13,2.2l-1.8-1.8c-0.3-0.3-0.6-0.4-1-0.4s-0.7,0.1-1,0.4L1.5,8.2C1.3,8.4,1.2,8.6,1.1,8.8L0,12.5
	C0,12.8,0,13,0.2,13.2c0.1,0.1,0.3,0.2,0.5,0.2c0.1,0,0.1,0,0.2,0l3.8-1.1c0.2-0.1,0.4-0.2,0.6-0.3L13,4.1c0.3-0.3,0.4-0.6,0.4-1
	C13.4,2.8,13.2,2.4,13,2.2z M2.1,9.8l1.4,1.4l-2,0.6L2.1,9.8z M12.1,3.2l-1.2,1.2L8.9,2.5l1.2-1.2c0,0,0.1,0,0.1,0c0,0,0,0,0.1,0
	l1.8,1.8C12.1,3.1,12.1,3.1,12.1,3.2C12.1,3.2,12.1,3.2,12.1,3.2z"/>
</svg>
