<?xml version="1.0" encoding="utf-8"?>
<!-- Generator: Adobe Illustrator 22.0.1, SVG Export Plug-In . SVG Version: 6.00 Build 0)  -->
<svg version="1.1" id="Layer_1" xmlns="http://www.w3.org/2000/svg" xmlns:xlink="http://www.w3.org/1999/xlink" x="0px" y="0px"
	 viewBox="0 0 45.3 40.9" style="enable-background:new 0 0 45.3 40.9;" xml:space="preserve">
<style type="text/css">
	.st0{fill:url(#SVGID_1_);}
</style>
<linearGradient id="SVGID_1_" gradientUnits="userSpaceOnUse" x1="22.6667" y1="40.8522" x2="22.6667" y2="-9.094947e-13">
	<stop  offset="0" style="stop-color:#2172B7"/>
	<stop  offset="0.6946" style="stop-color:#30B3A8"/>
</linearGradient>
<path class="st0" d="M42.3,17.4C42.3,17.4,42.3,17.4,42.3,17.4L35.5,5.2c0.6-0.5,1-1.3,1-2.2c0-1.7-1.3-3-3-3
	c-1.4,0-2.5,0.9-2.9,2.2H15.7C15.3,0.9,14.1,0,12.8,0c-1.7,0-3,1.3-3,3c0,0.9,0.4,1.7,1.1,2.3L4,17.6c-0.3-0.1-0.6-0.2-1-0.2
	c-1.7,0-3,1.3-3,3s1.3,3,3,3c0.3,0,0.7-0.1,1-0.2l7,12.2c-0.7,0.5-1.2,1.4-1.2,2.4c0,1.7,1.3,3,3,3c1.4,0,2.5-0.9,2.9-2.2h14.9
	c0.4,1.3,1.5,2.2,2.9,2.2c1.7,0,3-1.3,3-3c0-0.9-0.4-1.8-1.1-2.3l7-12.1c0,0,0,0,0.1,0c1.7,0,3-1.3,3-3S44,17.4,42.3,17.4z
	 M14.4,35.4l3.6-5.8l4.1,2.4l-7,4C14.9,35.7,14.7,35.5,14.4,35.4z M15.6,36.8l7.5-4.3l7.5,4.4c-0.1,0.3-0.1,0.5-0.2,0.8H15.8
	C15.7,37.4,15.7,37.1,15.6,36.8z M31.1,36l-7-4.1l4-2.3l3.6,5.8C31.5,35.6,31.3,35.8,31.1,36z M23.1,31.3l-4.6-2.6l3.4-5.6
	c0.3,0.1,0.7,0.2,1,0.2c0.4,0,0.8-0.1,1.1-0.2l3.5,5.7L23.1,31.3z M31.6,5.4l-3.3,5.5l-4.1-2.4l6.7-3.9C31.1,4.9,31.3,5.1,31.6,5.4z
	 M30.5,3.6l-7.4,4.3l-7.4-4.3c0-0.1,0-0.2,0-0.4h14.7C30.5,3.3,30.5,3.5,30.5,3.6z M15.4,4.5l6.8,3.9l-4.3,2.5l-3.3-5.5
	C14.8,5.2,15.1,4.9,15.4,4.5z M23.2,9l4.6,2.6l-3.6,5.9c-0.4-0.2-0.8-0.2-1.2-0.2c-0.4,0-0.8,0.1-1.1,0.2l-3.5-5.7L23.2,9z
	 M39.4,19.9H25.9c-0.1-0.7-0.4-1.4-0.9-1.8l3.6-5.9l11.3,6.5C39.6,19.1,39.5,19.5,39.4,19.9z M21,18c-0.5,0.5-0.9,1.1-1,1.9H6
	c0-0.3-0.1-0.6-0.3-0.8l11.8-6.8L21,18z M6,20.9H20c0.1,0.7,0.5,1.2,1,1.7l-3.4,5.6L5.8,21.4C5.9,21.2,5.9,21.1,6,20.9z M24.9,22.5
	c0.5-0.4,0.8-1,1-1.6h13.5c0.1,0.3,0.1,0.6,0.3,0.8l-11.2,6.5L24.9,22.5z M41.2,17.6c-0.2,0.1-0.4,0.2-0.6,0.3l-11.5-6.6l3.3-5.5
	c0.3,0.1,0.6,0.2,1,0.2c0.4,0,0.8-0.1,1.2-0.2L41.2,17.6z M11.7,5.8C12,5.9,12.4,6,12.8,6c0.3,0,0.6,0,0.8-0.1l3.4,5.6L5.1,18.3
	c-0.1-0.1-0.2-0.2-0.3-0.2L11.7,5.8z M4.8,22.8c0.2-0.2,0.4-0.3,0.5-0.5L17.1,29L13.5,35c-0.2-0.1-0.5-0.1-0.7-0.1
	c-0.3,0-0.6,0-0.9,0.1L4.8,22.8z M34.4,35c-0.3-0.1-0.6-0.2-1-0.2c-0.3,0-0.6,0-0.9,0.1L29,29.1l11.3-6.5c0.3,0.3,0.6,0.5,1,0.6
	L34.4,35z"/>
</svg>
