<?xml version="1.0" encoding="utf-8"?>
<!-- Generator: Adobe Illustrator 22.1.0, SVG Export Plug-In . SVG Version: 6.00 Build 0)  -->
<svg version="1.1" id="Layer_1" xmlns="http://www.w3.org/2000/svg" xmlns:xlink="http://www.w3.org/1999/xlink" x="0px" y="0px"
	 viewBox="0 0 43.3 45.8" style="enable-background:new 0 0 43.3 45.8;" xml:space="preserve">
<style type="text/css">
	
		.st0{fill:none;stroke:#818181;stroke-width:1.5;stroke-linecap:round;stroke-linejoin:round;stroke-miterlimit:10;stroke-dasharray:3,4;}
	.st1{fill:none;stroke:#818181;stroke-miterlimit:10;}
	.st2{fill:none;stroke:#818181;stroke-width:1.5;stroke-linecap:round;stroke-linejoin:round;stroke-dasharray:3,4;}
</style>
<path class="st0" d="M42.5,27.4v12.1c0,3.1-2.5,5.6-5.6,5.6H6.4c-3.1,0-5.6-2.5-5.6-5.6V27.4"/>
<path class="st1" d="M0.8,23.4H12c0.3,0,0.7-0.2,0.8-0.5l1.7-5.1l3.2,8.4c0.1,0.3,0.4,0.5,0.8,0.5h0c0.3,0,0.6-0.2,0.7-0.5l1.9-5.6
	l1.5,2.5c0.2,0.3,0.5,0.4,0.8,0.4c0.3,0,0.6-0.3,0.7-0.6l2.4-8.6l2.4,8.5c0.1,0.3,0.4,0.6,0.8,0.6h12.9"/>
<path class="st2" d="M0.8,23.3V6.4c0-3.1,2.5-5.6,5.6-5.6h30.5c3.1,0,5.6,2.5,5.6,5.6v16.9 M18.4,16.9"/>
</svg>
