<?xml version="1.0" encoding="utf-8"?>
<!-- Generator: Adobe Illustrator 19.2.1, SVG Export Plug-In . SVG Version: 6.00 Build 0)  -->
<svg version="1.1" id="Layer_1" xmlns="http://www.w3.org/2000/svg" xmlns:xlink="http://www.w3.org/1999/xlink" x="0px" y="0px"
	 viewBox="105.5 519.2 15.2 12.9" style="enable-background:new 105.5 519.2 15.2 12.9;" xml:space="preserve">
<style type="text/css">
	.st0{fill:#FF0000;}
</style>
<path class="st0" d="M120.3,530.8c-0.5-0.8-6.1-10.3-6.6-11c-0.2-0.4-0.5-0.5-0.7-0.5v0c0,0,0,0,0,0c0,0,0,0,0,0v0
	c-0.2,0-0.5,0.2-0.7,0.5c-0.4,0.7-6.1,10.2-6.6,11c-0.5,0.8-0.5,1.3,0.5,1.3c1.5,0,4.1,0,6.7,0c0,0,0,0,0,0c0,0,0,0,0,0
	c2.6,0,5.2,0,6.7,0C120.8,532.1,120.8,531.6,120.3,530.8z M113.8,530c-0.2,0.2-0.4,0.3-0.7,0.3c-0.3,0-0.5-0.1-0.7-0.3
	c-0.2-0.2-0.3-0.4-0.3-0.7c0-0.3,0.1-0.5,0.3-0.7c0.2-0.2,0.4-0.3,0.7-0.3c0.3,0,0.5,0.1,0.7,0.3c0.2,0.2,0.3,0.4,0.3,0.7
	C114.1,529.5,114,529.8,113.8,530z M114,526.4c-0.1,0.4-0.3,0.7-0.4,1c-0.2,0.3-0.4,0.5-0.5,0.5c-0.1,0-0.3-0.2-0.5-0.6
	c-0.2-0.3-0.3-0.6-0.4-1c-0.1-0.3-0.1-0.7-0.1-0.9c0-0.4,0.1-0.6,0.2-0.9c0.2-0.3,0.5-0.4,0.8-0.4c0.3,0,0.5,0.1,0.7,0.3
	c0.3,0.3,0.4,0.6,0.4,1.1C114.1,525.7,114.1,526,114,526.4z"/>
</svg>
