<?xml version="1.0" encoding="utf-8"?>
<!-- Generator: Adobe Illustrator 19.2.1, SVG Export Plug-In . SVG Version: 6.00 Build 0)  -->
<svg version="1.1" id="Layer_1" xmlns="http://www.w3.org/2000/svg" xmlns:xlink="http://www.w3.org/1999/xlink" x="0px" y="0px"
	 viewBox="0 0 15.8 15.9" style="enable-background:new 0 0 15.8 15.9;" xml:space="preserve">
<style type="text/css">
	.st0{fill:#FFFFFF;}
</style>
<g>
	<path class="st0" d="M15.2,13.5l-3.3-3.3c0,0,0,0,0,0c1.6-2.5,1.4-5.8-0.8-8c-2.5-2.5-6.5-2.5-9,0s-2.5,6.5,0,9
		C3.4,12.3,5,13,6.6,13c1.2,0,2.3-0.3,3.4-1l0,0l3.3,3.3c0.2,0.2,0.5,0.3,0.8,0.3s0.6-0.1,0.8-0.3l0.4-0.4
		C15.7,14.6,15.7,13.9,15.2,13.5z M2.5,10.8c-2.3-2.3-2.3-6,0-8.2c1.1-1.1,2.6-1.7,4.1-1.7s3,0.6,4.1,1.7c2.3,2.3,2.3,6,0,8.2
		S4.8,13,2.5,10.8z M14.9,14.6L14.5,15c-0.2,0.2-0.6,0.2-0.8,0l-3.3-3.3c0.2-0.2,0.5-0.4,0.7-0.6c0.2-0.2,0.3-0.4,0.5-0.6l3.2,3.2
		C15.1,14,15.1,14.4,14.9,14.6z M5.4,10.5c0,0.1-0.1,0.2-0.2,0.2c0,0-0.1,0-0.1,0c-0.6-0.2-1.1-0.5-1.5-1C2.3,8.4,2,6.4,2.8,4.8
		C2.8,4.7,3,4.6,3.1,4.7C3.2,4.7,3.3,4.9,3.2,5C2.5,6.5,2.8,8.2,4,9.3c0.4,0.4,0.8,0.7,1.3,0.9C5.4,10.2,5.5,10.3,5.4,10.5z"/>
	<path class="st0" d="M14.1,15.9c-0.4,0-0.7-0.1-1-0.4l-3.2-3.2c-1,0.6-2.2,0.9-3.3,0.9c-1.8,0-3.4-0.7-4.7-1.9
		C0.7,10.1,0,8.4,0,6.6c0-1.8,0.7-3.4,1.9-4.7C3.2,0.7,4.8,0,6.6,0c1.8,0,3.4,0.7,4.7,1.9c2.2,2.2,2.5,5.6,1,8.2l3.1,3.2
		c0.3,0.3,0.4,0.6,0.4,1c0,0.4-0.1,0.7-0.4,0.9l-0.4,0.4C14.8,15.8,14.5,15.9,14.1,15.9z M10.8,11.7l3,3c0.1,0.1,0.3,0.1,0.4,0
		l0.4-0.3c0.1-0.1,0.1-0.3,0-0.4l-3-3c-0.1,0.1-0.2,0.2-0.3,0.3C11.1,11.5,11,11.6,10.8,11.7z M6.6,1.1c-1.5,0-2.9,0.6-3.9,1.6
		c-1,1-1.6,2.4-1.6,3.9s0.6,2.9,1.6,3.9l0,0c1,1,2.4,1.6,3.9,1.6c1.5,0,2.9-0.6,3.9-1.6s1.6-2.4,1.6-3.9s-0.6-2.9-1.6-3.9
		C9.5,1.7,8.1,1.1,6.6,1.1z M5.2,10.9c-0.1,0-0.1,0-0.2,0c-0.6-0.2-1.1-0.6-1.6-1C2,8.5,1.7,6.4,2.5,4.7c0.1-0.3,0.4-0.4,0.7-0.3
		c0.1,0.1,0.2,0.2,0.3,0.3c0,0.1,0,0.3,0,0.4C2.8,6.5,3.1,8.1,4.2,9.1c0.4,0.4,0.8,0.6,1.2,0.8c0.1,0,0.3,0.1,0.3,0.3
		c0.1,0.1,0.1,0.3,0,0.4C5.6,10.8,5.4,10.9,5.2,10.9z M3,4.9C3,4.9,3,4.9,3,4.9C3,4.9,3,4.9,3,4.9z"/>
</g>
</svg>
