<?xml version="1.0" encoding="utf-8"?>
<!-- Generator: Adobe Illustrator 19.2.1, SVG Export Plug-In . SVG Version: 6.00 Build 0)  -->
<svg version="1.1" id="Layer_1" xmlns="http://www.w3.org/2000/svg" xmlns:xlink="http://www.w3.org/1999/xlink" x="0px" y="0px"
	 viewBox="0 0 41.6 47.8" style="enable-background:new 0 0 41.6 47.8;" xml:space="preserve">
<style type="text/css">
	.st0{clip-path:url(#SVGID_2_);fill:url(#SVGID_3_);}
</style>
<g>
	<defs>
		<path id="SVGID_1_" d="M14.8,42.9v-6.1l5.3,3.1v6.1L14.8,42.9z M21.5,39.8l5.3-3.1v6.1l-5.3,3.1V39.8z M8.1,39v-6.1l5.3,3.1v6.1
			L8.1,39z M1.4,35.1V29l5.3,3.1v6.1L1.4,35.1z M14.8,35.1V29l5.3,3.1v6.1L14.8,35.1z M34.9,32.1l5.3-3.1v6.1l-5.3,3.1V32.1z
			 M21.5,32.1l5.3-3.1v6.1l-5.3,3.1V32.1z M8.1,31.3v-6.1l5.3,3.1v6.1L8.1,31.3z M1.4,27.4v-6.1l5.3,3.1v6.1L1.4,27.4z M14.8,27.4
			v-6.1l5.3,3.1v6.1L14.8,27.4z M34.9,24.3l5.3-3.1v6.1l-5.3,3.1V24.3z M21.5,24.3l5.3-3.1v6.1l-5.3,3.1V24.3z M8.1,23.5v-6.1
			l5.3,3.1v6.1L8.1,23.5z M15.5,20.1l5.3-3.1l5.3,3.1l-5.3,3.1L15.5,20.1z M1.4,19.6v-6.1l5.3,3.1v6.1L1.4,19.6z M34.9,16.6l5.3-3.1
			v6.1l-5.3,3.1V16.6z M8.8,16.2l5.3-3.1l5.3,3.1l-5.3,3.1L8.8,16.2z M2.1,12.3l5.3-3.1l5.3,3.1l-5.3,3.1L2.1,12.3z M15.5,12.3
			l5.3-3.1l5.3,3.1l-5.3,3.1L15.5,12.3z M28.9,12.3l5.3-3.1l5.3,3.1l-5.3,3.1L28.9,12.3z M8.8,8.4l5.3-3.1l5.3,3.1l-5.3,3.1L8.8,8.4
			z M22.2,8.4l5.3-3.1l5.3,3.1l-5.3,3.1L22.2,8.4z M15.5,4.6l5.3-3.1l5.3,3.1l-5.3,3.1L15.5,4.6z M20.8,0c-0.1,0-0.2,0-0.3,0.1
			l-6.2,3.6l-13.8,8l-0.3,0.2C0.1,11.9,0.1,12,0,12.1l0,0.3v23.1c0,0.2,0.1,0.5,0.3,0.6L7.1,40l6.7,3.9l6.6,3.8l0.3,0.1
			c0.1,0,0.1,0,0.2,0h0c0.1,0,0.1,0,0.2,0l0.3-0.1L34.6,40l6.7-3.9c0.2-0.1,0.3-0.4,0.3-0.6V12.5l0-0.3c0-0.1-0.1-0.2-0.2-0.3
			l-0.3-0.2l-13.8-8v0l-6.2-3.6C21.1,0,20.9,0,20.8,0L20.8,0z"/>
	</defs>
	<clipPath id="SVGID_2_">
		<use xlink:href="#SVGID_1_"  style="overflow:visible;"/>
	</clipPath>
	
		<linearGradient id="SVGID_3_" gradientUnits="userSpaceOnUse" x1="0" y1="47.8459" x2="1" y2="47.8459" gradientTransform="matrix(0 -41.3202 -41.3202 0 1997.812 46.8422)">
		<stop  offset="0" style="stop-color:#2170B8"/>
		<stop  offset="1" style="stop-color:#30B3A8"/>
	</linearGradient>
	<rect x="0" y="0" class="st0" width="41.6" height="47.8"/>
</g>
</svg>
