<?xml version="1.0" encoding="utf-8"?>
<!-- Generator: Adobe Illustrator 19.2.1, SVG Export Plug-In . SVG Version: 6.00 Build 0)  -->
<svg version="1.1" id="Layer_1" xmlns="http://www.w3.org/2000/svg" xmlns:xlink="http://www.w3.org/1999/xlink" x="0px" y="0px"
	 viewBox="0 0 37.5 47.7" style="enable-background:new 0 0 37.5 47.7;" xml:space="preserve">
<style type="text/css">
	.st0{fill:none;}
	.st1{clip-path:url(#SVGID_2_);fill:#2171B8;}
	.st2{clip-path:url(#SVGID_2_);fill:#2172B8;}
	.st3{clip-path:url(#SVGID_2_);fill:#2273B7;}
	.st4{clip-path:url(#SVGID_2_);fill:#2274B7;}
	.st5{clip-path:url(#SVGID_2_);fill:#2275B7;}
	.st6{clip-path:url(#SVGID_2_);fill:#2276B7;}
	.st7{clip-path:url(#SVGID_2_);fill:#2377B6;}
	.st8{clip-path:url(#SVGID_2_);fill:#2378B6;}
	.st9{clip-path:url(#SVGID_2_);fill:#2379B6;}
	.st10{clip-path:url(#SVGID_2_);fill:#237AB6;}
	.st11{clip-path:url(#SVGID_2_);fill:#247BB5;}
	.st12{clip-path:url(#SVGID_2_);fill:#247CB5;}
	.st13{clip-path:url(#SVGID_2_);fill:#247DB5;}
	.st14{clip-path:url(#SVGID_2_);fill:#247EB5;}
	.st15{clip-path:url(#SVGID_2_);fill:#247FB4;}
	.st16{clip-path:url(#SVGID_2_);fill:#2580B4;}
	.st17{clip-path:url(#SVGID_2_);fill:#2581B4;}
	.st18{clip-path:url(#SVGID_2_);fill:#2582B4;}
	.st19{clip-path:url(#SVGID_2_);fill:#2583B3;}
	.st20{clip-path:url(#SVGID_2_);fill:#2684B3;}
	.st21{clip-path:url(#SVGID_2_);fill:#2685B3;}
	.st22{clip-path:url(#SVGID_2_);fill:#2686B3;}
	.st23{clip-path:url(#SVGID_2_);fill:#2687B2;}
	.st24{clip-path:url(#SVGID_2_);fill:#2688B2;}
	.st25{clip-path:url(#SVGID_2_);fill:#2789B2;}
	.st26{clip-path:url(#SVGID_2_);fill:#278AB2;}
	.st27{clip-path:url(#SVGID_2_);fill:#278BB1;}
	.st28{clip-path:url(#SVGID_2_);fill:#278CB1;}
	.st29{clip-path:url(#SVGID_2_);fill:#288DB1;}
	.st30{clip-path:url(#SVGID_2_);fill:#288EB1;}
	.st31{clip-path:url(#SVGID_2_);fill:#288FB0;}
	.st32{clip-path:url(#SVGID_2_);fill:#2890B0;}
	.st33{clip-path:url(#SVGID_2_);fill:#2992B0;}
	.st34{clip-path:url(#SVGID_2_);fill:#2993B0;}
	.st35{clip-path:url(#SVGID_2_);fill:#2994B0;}
	.st36{clip-path:url(#SVGID_2_);fill:#2995AF;}
	.st37{clip-path:url(#SVGID_2_);fill:#2996AF;}
	.st38{clip-path:url(#SVGID_2_);fill:#2A97AF;}
	.st39{clip-path:url(#SVGID_2_);fill:#2A98AF;}
	.st40{clip-path:url(#SVGID_2_);fill:#2A99AE;}
	.st41{clip-path:url(#SVGID_2_);fill:#2A9AAE;}
	.st42{clip-path:url(#SVGID_2_);fill:#2B9BAE;}
	.st43{clip-path:url(#SVGID_2_);fill:#2B9CAE;}
	.st44{clip-path:url(#SVGID_2_);fill:#2B9DAD;}
	.st45{clip-path:url(#SVGID_2_);fill:#2B9EAD;}
	.st46{clip-path:url(#SVGID_2_);fill:#2B9FAD;}
	.st47{clip-path:url(#SVGID_2_);fill:#2CA0AD;}
	.st48{clip-path:url(#SVGID_2_);fill:#2CA1AC;}
	.st49{clip-path:url(#SVGID_2_);fill:#2CA2AC;}
	.st50{clip-path:url(#SVGID_2_);fill:#2CA3AC;}
	.st51{clip-path:url(#SVGID_2_);fill:#2DA4AC;}
	.st52{clip-path:url(#SVGID_2_);fill:#2DA5AB;}
	.st53{clip-path:url(#SVGID_2_);fill:#2DA6AB;}
	.st54{clip-path:url(#SVGID_2_);fill:#2DA7AB;}
	.st55{clip-path:url(#SVGID_2_);fill:#2EA8AB;}
	.st56{clip-path:url(#SVGID_2_);fill:#2EA9AA;}
	.st57{clip-path:url(#SVGID_2_);fill:#2EAAAA;}
	.st58{clip-path:url(#SVGID_2_);fill:#2EABAA;}
	.st59{clip-path:url(#SVGID_2_);fill:#2EACAA;}
	.st60{clip-path:url(#SVGID_2_);fill:#2FADA9;}
	.st61{clip-path:url(#SVGID_2_);fill:#2FAEA9;}
	.st62{clip-path:url(#SVGID_2_);fill:#2FAFA9;}
	.st63{clip-path:url(#SVGID_2_);fill:#2FB0A9;}
	.st64{clip-path:url(#SVGID_2_);fill:#30B1A8;}
	.st65{clip-path:url(#SVGID_2_);fill:#30B2A8;}
	.st66{clip-path:url(#SVGID_2_);fill:#2170B8;}
	.st67{clip-path:url(#SVGID_2_);fill:#30B3A8;}
</style>
<g>
	<g>
		<path class="st0" d="M5.3,0H0v5.3C0,2.4,2.4,0,5.3,0z"/>
	</g>
	<g>
		<path class="st0" d="M0,42.4v5.3h5.3C2.4,47.7,0,45.3,0,42.4z"/>
	</g>
	<g>
		<g>
			<path class="st0" d="M23.1,13.4V1.2H5.3C3,1.2,1.2,3,1.2,5.3v37.1c0,2.3,1.8,4.1,4.1,4.1h26.9c2.3,0,4.1-1.8,4.1-4.1V15.2H24.8
				C23.8,15.2,23.1,14.4,23.1,13.4z"/>
		</g>
		<g>
			<path class="st0" d="M24.8,14H36L24.2,1.9l0,11.5C24.2,13.7,24.5,14,24.8,14z"/>
		</g>
		<g>
			<g>
				<defs>
					<path id="SVGID_1_" d="M37.3,13.6L24.2,0.2C24,0.1,23.9,0,23.7,0H5.3C2.4,0,0,2.4,0,5.3v37.1c0,2.9,2.4,5.3,5.3,5.3h26.9
						c2.9,0,5.3-2.4,5.3-5.3V14C37.5,13.9,37.4,13.7,37.3,13.6z M36,14H24.8c-0.3,0-0.6-0.3-0.6-0.6l0-11.5L36,14z M36.3,42.4
						c0,2.3-1.8,4.1-4.1,4.1H5.3c-2.3,0-4.1-1.8-4.1-4.1V5.3C1.2,3,3,1.2,5.3,1.2h17.8v12.2c0,1,0.8,1.8,1.8,1.8h11.5V42.4z"/>
				</defs>
				<clipPath id="SVGID_2_">
					<use xlink:href="#SVGID_1_"  style="overflow:visible;"/>
				</clipPath>
				<rect x="1.2" y="46.2" class="st1" width="35.1" height="0.2"/>
				<rect x="1.2" y="45.5" class="st2" width="35.1" height="0.7"/>
				<rect x="1.2" y="44.8" class="st3" width="35.1" height="0.7"/>
				<rect x="1.2" y="44.1" class="st4" width="35.1" height="0.7"/>
				<rect x="1.2" y="43.4" class="st5" width="35.1" height="0.7"/>
				<rect x="1.2" y="42.7" class="st6" width="35.1" height="0.7"/>
				<rect x="1.2" y="42" class="st7" width="35.1" height="0.7"/>
				<rect x="1.2" y="41.3" class="st8" width="35.1" height="0.7"/>
				<rect x="1.2" y="40.6" class="st9" width="35.1" height="0.7"/>
				<rect x="1.2" y="39.8" class="st10" width="35.1" height="0.7"/>
				<rect x="1.2" y="39.1" class="st11" width="35.1" height="0.7"/>
				<rect x="1.2" y="38.4" class="st12" width="35.1" height="0.7"/>
				<rect x="1.2" y="37.7" class="st13" width="35.1" height="0.7"/>
				<rect x="1.2" y="37" class="st14" width="35.1" height="0.7"/>
				<rect x="1.2" y="36.3" class="st15" width="35.1" height="0.7"/>
				<rect x="1.2" y="35.6" class="st16" width="35.1" height="0.7"/>
				<rect x="1.2" y="34.9" class="st17" width="35.1" height="0.7"/>
				<rect x="1.2" y="34.2" class="st18" width="35.1" height="0.7"/>
				<rect x="1.2" y="33.4" class="st19" width="35.1" height="0.7"/>
				<rect x="1.2" y="32.7" class="st20" width="35.1" height="0.7"/>
				<rect x="1.2" y="32" class="st21" width="35.1" height="0.7"/>
				<rect x="1.2" y="31.3" class="st22" width="35.1" height="0.7"/>
				<rect x="1.2" y="30.6" class="st23" width="35.1" height="0.7"/>
				<rect x="1.2" y="29.9" class="st24" width="35.1" height="0.7"/>
				<rect x="1.2" y="29.2" class="st25" width="35.1" height="0.7"/>
				<rect x="1.2" y="28.5" class="st26" width="35.1" height="0.7"/>
				<rect x="1.2" y="27.7" class="st27" width="35.1" height="0.7"/>
				<rect x="1.2" y="27" class="st28" width="35.1" height="0.7"/>
				<rect x="1.2" y="26.3" class="st29" width="35.1" height="0.7"/>
				<rect x="1.2" y="25.6" class="st30" width="35.1" height="0.7"/>
				<rect x="1.2" y="24.9" class="st31" width="35.1" height="0.7"/>
				<rect x="1.2" y="24.2" class="st32" width="35.1" height="0.7"/>
				<rect x="1.2" y="23.5" class="st33" width="35.1" height="0.7"/>
				<rect x="1.2" y="22.8" class="st34" width="35.1" height="0.7"/>
				<rect x="1.2" y="22.1" class="st35" width="35.1" height="0.7"/>
				<rect x="1.2" y="21.3" class="st36" width="35.1" height="0.7"/>
				<rect x="1.2" y="20.6" class="st37" width="35.1" height="0.7"/>
				<rect x="1.2" y="19.9" class="st38" width="35.1" height="0.7"/>
				<rect x="1.2" y="19.2" class="st39" width="35.1" height="0.7"/>
				<rect x="1.2" y="18.5" class="st40" width="35.1" height="0.7"/>
				<rect x="1.2" y="17.8" class="st41" width="35.1" height="0.7"/>
				<rect x="1.2" y="17.1" class="st42" width="35.1" height="0.7"/>
				<rect x="1.2" y="16.4" class="st43" width="35.1" height="0.7"/>
				<rect x="1.2" y="15.7" class="st44" width="35.1" height="0.7"/>
				<rect x="1.2" y="14.9" class="st45" width="35.1" height="0.7"/>
				<rect x="1.2" y="14.2" class="st46" width="35.1" height="0.7"/>
				<rect x="1.2" y="13.5" class="st47" width="35.1" height="0.7"/>
				<rect x="1.2" y="12.8" class="st48" width="35.1" height="0.7"/>
				<rect x="1.2" y="12.1" class="st49" width="35.1" height="0.7"/>
				<rect x="1.2" y="11.4" class="st50" width="35.1" height="0.7"/>
				<rect x="1.2" y="10.7" class="st51" width="35.1" height="0.7"/>
				<rect x="1.2" y="10" class="st52" width="35.1" height="0.7"/>
				<rect x="1.2" y="9.2" class="st53" width="35.1" height="0.7"/>
				<rect x="1.2" y="8.5" class="st54" width="35.1" height="0.7"/>
				<rect x="1.2" y="7.8" class="st55" width="35.1" height="0.7"/>
				<rect x="1.2" y="7.1" class="st56" width="35.1" height="0.7"/>
				<rect x="1.2" y="6.4" class="st57" width="35.1" height="0.7"/>
				<rect x="1.2" y="5.7" class="st58" width="35.1" height="0.7"/>
				<rect x="1.2" y="5" class="st59" width="35.1" height="0.7"/>
				<rect x="1.2" y="4.3" class="st60" width="35.1" height="0.7"/>
				<rect x="1.2" y="3.6" class="st61" width="35.1" height="0.7"/>
				<rect x="1.2" y="2.8" class="st62" width="35.1" height="0.7"/>
				<rect x="1.2" y="2.1" class="st63" width="35.1" height="0.7"/>
				<rect x="1.2" y="1.4" class="st64" width="35.1" height="0.7"/>
				<rect x="1.2" y="1.2" class="st65" width="35.1" height="0.2"/>
				<rect x="24.2" y="13.5" class="st47" width="11.8" height="0.5"/>
				<rect x="24.2" y="12.8" class="st48" width="11.8" height="0.7"/>
				<rect x="24.2" y="12.1" class="st49" width="11.8" height="0.7"/>
				<rect x="24.2" y="11.4" class="st50" width="11.8" height="0.7"/>
				<rect x="24.2" y="10.7" class="st51" width="11.8" height="0.7"/>
				<rect x="24.2" y="10" class="st52" width="11.8" height="0.7"/>
				<rect x="24.2" y="9.2" class="st53" width="11.8" height="0.7"/>
				<rect x="24.2" y="8.5" class="st54" width="11.8" height="0.7"/>
				<rect x="24.2" y="7.8" class="st55" width="11.8" height="0.7"/>
				<rect x="24.2" y="7.1" class="st56" width="11.8" height="0.7"/>
				<rect x="24.2" y="6.4" class="st57" width="11.8" height="0.7"/>
				<rect x="24.2" y="5.7" class="st58" width="11.8" height="0.7"/>
				<rect x="24.2" y="5" class="st59" width="11.8" height="0.7"/>
				<rect x="24.2" y="4.3" class="st60" width="11.8" height="0.7"/>
				<rect x="24.2" y="3.6" class="st61" width="11.8" height="0.7"/>
				<rect x="24.2" y="2.8" class="st62" width="11.8" height="0.7"/>
				<rect x="24.2" y="2.1" class="st63" width="11.8" height="0.7"/>
				<rect x="24.2" y="1.9" class="st64" width="11.8" height="0.2"/>
				<polygon class="st66" points="0,47.7 5.3,47.7 0,47.7 				"/>
				<polygon class="st66" points="0,47 37.5,47 37.5,47.7 5.3,47.7 0,47.7 				"/>
				<rect x="0" y="46.2" class="st1" width="37.5" height="0.7"/>
				<rect x="0" y="45.5" class="st2" width="37.5" height="0.7"/>
				<rect x="0" y="44.8" class="st3" width="37.5" height="0.7"/>
				<rect x="0" y="44.1" class="st4" width="37.5" height="0.7"/>
				<rect x="0" y="43.4" class="st5" width="37.5" height="0.7"/>
				<rect x="0" y="42.7" class="st6" width="37.5" height="0.7"/>
				<rect x="0" y="42" class="st7" width="37.5" height="0.7"/>
				<rect x="0" y="41.3" class="st8" width="37.5" height="0.7"/>
				<rect x="0" y="40.6" class="st9" width="37.5" height="0.7"/>
				<rect x="0" y="39.8" class="st10" width="37.5" height="0.7"/>
				<rect x="0" y="39.1" class="st11" width="37.5" height="0.7"/>
				<rect x="0" y="38.4" class="st12" width="37.5" height="0.7"/>
				<rect x="0" y="37.7" class="st13" width="37.5" height="0.7"/>
				<rect x="0" y="37" class="st14" width="37.5" height="0.7"/>
				<rect x="0" y="36.3" class="st15" width="37.5" height="0.7"/>
				<rect x="0" y="35.6" class="st16" width="37.5" height="0.7"/>
				<rect x="0" y="34.9" class="st17" width="37.5" height="0.7"/>
				<rect x="0" y="34.2" class="st18" width="37.5" height="0.7"/>
				<rect x="0" y="33.4" class="st19" width="37.5" height="0.7"/>
				<rect x="0" y="32.7" class="st20" width="37.5" height="0.7"/>
				<rect x="0" y="32" class="st21" width="37.5" height="0.7"/>
				<rect x="0" y="31.3" class="st22" width="37.5" height="0.7"/>
				<rect x="0" y="30.6" class="st23" width="37.5" height="0.7"/>
				<rect x="0" y="29.9" class="st24" width="37.5" height="0.7"/>
				<rect x="0" y="29.2" class="st25" width="37.5" height="0.7"/>
				<rect x="0" y="28.5" class="st26" width="37.5" height="0.7"/>
				<rect x="0" y="27.7" class="st27" width="37.5" height="0.7"/>
				<rect x="0" y="27" class="st28" width="37.5" height="0.7"/>
				<rect x="0" y="26.3" class="st29" width="37.5" height="0.7"/>
				<rect x="0" y="25.6" class="st30" width="37.5" height="0.7"/>
				<rect x="0" y="24.9" class="st31" width="37.5" height="0.7"/>
				<rect x="0" y="24.2" class="st32" width="37.5" height="0.7"/>
				<rect x="0" y="23.5" class="st33" width="37.5" height="0.7"/>
				<rect x="0" y="22.8" class="st34" width="37.5" height="0.7"/>
				<rect x="0" y="22.1" class="st35" width="37.5" height="0.7"/>
				<rect x="0" y="21.3" class="st36" width="37.5" height="0.7"/>
				<rect x="0" y="20.6" class="st37" width="37.5" height="0.7"/>
				<rect x="0" y="19.9" class="st38" width="37.5" height="0.7"/>
				<rect x="0" y="19.2" class="st39" width="37.5" height="0.7"/>
				<rect x="0" y="18.5" class="st40" width="37.5" height="0.7"/>
				<rect x="0" y="17.8" class="st41" width="37.5" height="0.7"/>
				<rect x="0" y="17.1" class="st42" width="37.5" height="0.7"/>
				<rect x="0" y="16.4" class="st43" width="37.5" height="0.7"/>
				<rect x="0" y="15.7" class="st44" width="37.5" height="0.7"/>
				<rect x="0" y="14.9" class="st45" width="37.5" height="0.7"/>
				<rect x="0" y="14.2" class="st46" width="37.5" height="0.7"/>
				<rect x="0" y="13.5" class="st47" width="37.5" height="0.7"/>
				<rect x="0" y="12.8" class="st48" width="37.5" height="0.7"/>
				<rect x="0" y="12.1" class="st49" width="37.5" height="0.7"/>
				<rect x="0" y="11.4" class="st50" width="37.5" height="0.7"/>
				<rect x="0" y="10.7" class="st51" width="37.5" height="0.7"/>
				<rect x="0" y="10" class="st52" width="37.5" height="0.7"/>
				<rect x="0" y="9.2" class="st53" width="37.5" height="0.7"/>
				<rect x="0" y="8.5" class="st54" width="37.5" height="0.7"/>
				<rect x="0" y="7.8" class="st55" width="37.5" height="0.7"/>
				<rect x="0" y="7.1" class="st56" width="37.5" height="0.7"/>
				<rect x="0" y="6.4" class="st57" width="37.5" height="0.7"/>
				<rect x="0" y="5.7" class="st58" width="37.5" height="0.7"/>
				<rect x="0" y="5" class="st59" width="37.5" height="0.7"/>
				<rect x="0" y="4.3" class="st60" width="37.5" height="0.7"/>
				<rect x="0" y="3.6" class="st61" width="37.5" height="0.7"/>
				<rect x="0" y="2.8" class="st62" width="37.5" height="0.7"/>
				<rect x="0" y="2.1" class="st63" width="37.5" height="0.7"/>
				<rect x="0" y="1.4" class="st64" width="37.5" height="0.7"/>
				<rect x="0" y="0.7" class="st65" width="37.5" height="0.7"/>
				<rect x="0" y="0" class="st67" width="37.5" height="0.7"/>
				<rect x="0" y="0" class="st67" width="37.5" height="0"/>
			</g>
		</g>
	</g>
</g>
</svg>
