<?xml version="1.0" encoding="utf-8"?>
<!-- Generator: Adobe Illustrator 22.0.1, SVG Export Plug-In . SVG Version: 6.00 Build 0)  -->
<svg version="1.1" id="Layer_1" xmlns="http://www.w3.org/2000/svg" xmlns:xlink="http://www.w3.org/1999/xlink" x="0px" y="0px"
	 viewBox="0 0 14.5 15.3" style="enable-background:new 0 0 14.5 15.3;" xml:space="preserve">
<style type="text/css">
	.st0{fill:#1586EF;stroke:#FFFFFF;stroke-miterlimit:10;}
</style>
<g>
	<path class="st0" d="M0.7,1.8l4.8,6.3v4.6c0,0.2,0.1,0.4,0.3,0.5l2.4,1.5c0.1,0.1,0.2,0.1,0.3,0.1s0.2,0,0.3-0.1
		c0.2-0.1,0.3-0.3,0.3-0.5V8.1l4.8-6.3l0,0c0.2-0.3,0.2-0.6,0-0.9c-0.1-0.3-0.4-0.4-0.7-0.4H1.3C1,0.5,0.7,0.7,0.6,0.9
		S0.5,1.5,0.7,1.8C0.6,1.7,0.6,1.8,0.7,1.8z"/>
</g>
</svg>
