<?xml version="1.0" encoding="utf-8"?>
<!-- Generator: Adobe Illustrator 19.2.1, SVG Export Plug-In . SVG Version: 6.00 Build 0)  -->
<svg version="1.1" id="Layer_1" xmlns="http://www.w3.org/2000/svg" xmlns:xlink="http://www.w3.org/1999/xlink" x="0px" y="0px"
	 viewBox="0 0 10.6 8.2" style="enable-background:new 0 0 10.6 8.2;" xml:space="preserve">
<style type="text/css">
	.st0{fill:#FFFFFF;}
</style>
<path class="st0" d="M1.5,8.2L1.2,8l8-8l0.3,0.3L1.5,8.2z M5.3,5c0,0-0.1,0-0.1,0L4.9,5.4C5,5.4,5.1,5.4,5.3,5.4
	c0.7,0,1.3-0.6,1.3-1.3c0-0.2,0-0.3-0.1-0.4L6.2,4c0,0,0,0.1,0,0.1C6.3,4.6,5.8,5,5.3,5z M5.3,3.2c0,0,0.1,0,0.1,0l0.3-0.3
	c-0.2,0-0.3-0.1-0.5-0.1C4.6,2.8,4,3.4,4,4.1c0,0.2,0,0.3,0.1,0.4l0.3-0.3c0,0,0-0.1,0-0.1C4.4,3.6,4.8,3.2,5.3,3.2z M8.3,1.9L8,2.2
	c1.2,0.7,1.9,1.6,2.1,1.9C9.9,4.5,8.9,5.7,7.3,6.4C7.9,5.8,8.3,5,8.3,4.1c0-0.6-0.2-1.2-0.5-1.7L7.5,2.7C7.8,3.1,8,3.6,8,4.1
	c0,1.5-1.2,2.6-2.6,2.6c-0.5,0-1-0.2-1.4-0.4L3.4,6.8C4,7,4.6,7.1,5.3,7.1c2.3,0,4.3-1.4,5.3-3C10.2,3.4,9.3,2.5,8.3,1.9z M2.6,6
	C1.4,5.4,0.7,4.4,0.5,4.1c0.2-0.4,1.2-1.6,2.9-2.3C2.7,2.4,2.3,3.2,2.3,4.1c0,0.6,0.2,1.2,0.5,1.7l0.3-0.3C2.8,5.1,2.7,4.6,2.7,4.1
	c0-1.5,1.2-2.6,2.6-2.6c0.5,0,1,0.2,1.4,0.4l0.5-0.5C6.7,1.2,6,1.1,5.3,1.1c-2.9,0-4.8,2.1-5.3,3c0.4,0.7,1.3,1.6,2.3,2.2L2.6,6z"/>
</svg>
