<?xml version="1.0" encoding="utf-8"?>
<!-- Generator: Adobe Illustrator 19.2.1, SVG Export Plug-In . SVG Version: 6.00 Build 0)  -->
<svg version="1.1" id="Layer_1" xmlns="http://www.w3.org/2000/svg" xmlns:xlink="http://www.w3.org/1999/xlink" x="0px" y="0px"
	 viewBox="-44 688.7 13.4 16.8" style="enable-background:new -44 688.7 13.4 16.8;" xml:space="preserve">
<style type="text/css">
	.st0{fill:#FFFFFF;}
</style>
<path class="st0" d="M-30.7,693.1l-4.3-4.3c-0.1-0.1-0.3-0.2-0.4-0.2h-6.2c-1.3,0-2.3,1-2.3,2.3v12.2c0,1.3,1,2.3,2.3,2.3h8.8
	c1.3,0,2.3-1,2.3-2.3v-9.5C-30.5,693.4-30.6,693.2-30.7,693.1z M-34.9,690.8l2.2,2.1h-2.2V690.8z M-31.8,703.1c0,0.6-0.5,1-1,1h-8.8
	c-0.6,0-1-0.5-1-1V691c0-0.6,0.5-1,1-1h5.5v3.7c0,0.4,0.3,0.6,0.6,0.6h3.7V703.1z"/>
<polygon class="st0" points="-36.5,697.6 -36.5,695.4 -37.8,695.4 -37.8,697.6 -39.9,697.6 -39.9,698.9 -37.8,698.9 -37.8,701 
	-36.5,701 -36.5,698.9 -34.4,698.9 -34.4,697.6 "/>
</svg>
