<?xml version="1.0" encoding="utf-8"?>
<!-- Generator: Adobe Illustrator 19.2.1, SVG Export Plug-In . SVG Version: 6.00 Build 0)  -->
<svg version="1.1" id="Layer_1" xmlns="http://www.w3.org/2000/svg" xmlns:xlink="http://www.w3.org/1999/xlink" x="0px" y="0px"
	 viewBox="12.7 697.8 10.7 13.9" style="enable-background:new 12.7 697.8 10.7 13.9;" xml:space="preserve">
<style type="text/css">
	.st0{fill:#FFFFFF;}
</style>
<g>
	<path class="st0" d="M14.2,711.6l-0.2,0c-0.7-0.2-1.3-0.8-1.3-1.6c0-1.8,0-3.6,0-5.3c0-0.9,0.7-1.6,1.6-1.6c0,0,0,0,0.1,0
		c2.5,0,4.9,0,7.4,0c0.8,0,1.5,0.6,1.6,1.4c0,0,0,0.1,0,0.1v5.7c0,0,0,0.1,0,0.1c-0.1,0.6-0.5,1.1-1.1,1.3c-0.1,0-0.2,0.1-0.3,0.1
		H14.2z M17.5,708.4c0,0.2,0,0.4,0,0.5c0,0.3,0.2,0.5,0.5,0.5c0.3,0,0.5-0.2,0.5-0.5c0-0.4,0-0.7,0-1.1c0-0.1,0-0.2,0.1-0.2
		c0.3-0.2,0.5-0.7,0.4-1.1c-0.1-0.6-0.7-1-1.3-0.8c-0.3,0.1-0.6,0.3-0.8,0.6c-0.2,0.4-0.2,0.9,0.2,1.2c0.2,0.1,0.3,0.4,0.2,0.6
		C17.5,708.2,17.5,708.3,17.5,708.4z"/>
	<path class="st0" d="M18.3,697.8c0.3,0.1,0.6,0.1,0.9,0.2c0.8,0.2,1.5,0.8,2,1.5c0.5,0.8,0.6,1.7,0.7,2.6c0,0.2,0,0.4,0,0.5h-1.6
		c0-0.1,0-0.1,0-0.2c0-0.5,0-1-0.1-1.5c-0.2-0.6-0.5-1.2-1.2-1.4c-0.8-0.2-1.6-0.2-2.2,0.4c-0.4,0.3-0.6,0.8-0.7,1.3
		c-0.1,0.3-0.1,0.7-0.1,1c0,0.1,0,0.3,0,0.4h-1.6c0-0.2,0-0.3,0-0.5c0-0.8,0.1-1.6,0.5-2.3c0.5-1.1,1.4-1.8,2.6-2l0.4-0.1H18.3z"/>
</g>
</svg>
