<?xml version="1.0" encoding="utf-8"?>
<!-- Generator: Adobe Illustrator 22.0.1, SVG Export Plug-In . SVG Version: 6.00 Build 0)  -->
<svg version="1.1" id="Layer_1" xmlns="http://www.w3.org/2000/svg" xmlns:xlink="http://www.w3.org/1999/xlink" x="0px" y="0px"
	 viewBox="0 0 24 24" style="enable-background:new 0 0 24 24;" xml:space="preserve">
<style type="text/css">
	.st0{fill:#2170B8;}
</style>
<path class="st0" d="M16.6,7.8H15v-6H4.2c1.4,0.8,2.5,1.5,3.7,2.1c0.7,0.4,1,0.9,1,1.7c0,3.7,0,7.4,0,11.1c0,0.5,0,0.9,0,1.4h6v-4.6
	h1.7c0,1.9,0,3.7,0,5.5c0,0.7-0.6,0.9-1.2,0.9c-1.7,0-3.5,0-5.2,0H8.9c0,1,0,2,0,2.9c0,1.1-0.6,1.4-1.5,0.9
	c-2.2-1.3-4.4-2.5-6.6-3.8C0.4,19.7,0,19.1,0,18.7C0,12.9,0,7,0,1.2C0,0.3,0.4,0,1.2,0c4.7,0,9.5,0,14.2,0c0.6,0,1.2,0.2,1.2,0.9
	C16.6,3.2,16.6,5.4,16.6,7.8z"/>
<path class="st0" d="M18.3,11.8c-1.4,0-2.7,0-4,0c-1.1,0-1.7-0.5-1.6-1.2c0.1-1,0.8-1.2,1.6-1.2c1.3,0,2.6,0,4.1,0
	c0-0.7,0-1.2,0-1.8c0-0.9,0.4-1.1,1-0.6c1.4,1,2.9,2.1,4.3,3.2c0.4,0.3,0.5,0.7,0,1c-1.5,1.1-2.9,2.2-4.4,3.2
	c-0.6,0.4-0.9,0.1-0.9-0.6C18.3,13.2,18.3,12.6,18.3,11.8z"/>
</svg>
