<?xml version="1.0" encoding="utf-8"?>
<!-- Generator: Adobe Illustrator 22.0.1, SVG Export Plug-In . SVG Version: 6.00 Build 0)  -->
<svg version="1.1" id="Layer_1" xmlns="http://www.w3.org/2000/svg" xmlns:xlink="http://www.w3.org/1999/xlink" x="0px" y="0px"
	 viewBox="0 0 14.7 20" style="enable-background:new 0 0 14.7 20;" xml:space="preserve">
<style type="text/css">
	.st0{fill:#FCE768;}
</style>
<g transform="translate(0,-952.36218)">
	<path class="st0" d="M10,952.4l-7.8,10.8l6.7,3.9l5.7-12L10,952.4z M10.3,955.8c0.2,0,0.5,0,0.7,0.2c0.6,0.3,0.7,1,0.4,1.6L8.7,962
		c-0.3,0.6-1,0.7-1.6,0.4s-0.7-1-0.4-1.6l2.6-4.5C9.5,956,9.9,955.8,10.3,955.8z M1.9,964.1l-0.2,3.6l3.5,2l3.1-1.9L1.9,964.1z
		 M2,969l-2,3.4h2.4l1.5-2.3L2,969z"/>
</g>
</svg>
