<?xml version="1.0" encoding="utf-8"?>
<!-- Generator: Adobe Illustrator 19.2.1, SVG Export Plug-In . SVG Version: 6.00 Build 0)  -->
<svg version="1.1" id="Layer_1" xmlns="http://www.w3.org/2000/svg" xmlns:xlink="http://www.w3.org/1999/xlink" x="0px" y="0px"
	 viewBox="0 0 39.7 39.1" style="enable-background:new 0 0 39.7 39.1;" xml:space="preserve">
<style type="text/css">
	.Graphic_x0020_Style_x0020_2{fill:url(#SVGID_1_);}
	.st0{fill:url(#SVGID_2_);}
	.st1{fill:url(#SVGID_3_);}
	.st2{fill:url(#SVGID_4_);}
	.st3{fill:url(#SVGID_5_);}
	.st4{fill:url(#SVGID_6_);}
	.st5{fill:url(#SVGID_7_);}
	.st6{fill:url(#SVGID_8_);}
	.st7{fill:url(#SVGID_9_);}
	.st8{fill:url(#SVGID_10_);}
</style>
<linearGradient id="SVGID_1_" gradientUnits="userSpaceOnUse" x1="57.6665" y1="52.3853" x2="57.6665" y2="51.3853">
	<stop  offset="0" style="stop-color:#2170B8"/>
	<stop  offset="1" style="stop-color:#30B3A8"/>
</linearGradient>
<g>
	<linearGradient id="SVGID_2_" gradientUnits="userSpaceOnUse" x1="5.9968" y1="11.994" x2="5.9968" y2="-2.692104e-010">
		<stop  offset="0" style="stop-color:#2170B8"/>
		<stop  offset="1" style="stop-color:#30B3A8"/>
	</linearGradient>
	<path class="st0" d="M0,12h12V0H0V12z M0.9,0.9h10.1v10.1H0.9V0.9z"/>
	<linearGradient id="SVGID_3_" gradientUnits="userSpaceOnUse" x1="19.8471" y1="11.994" x2="19.8471" y2="-2.692104e-010">
		<stop  offset="0" style="stop-color:#2170B8"/>
		<stop  offset="1" style="stop-color:#30B3A8"/>
	</linearGradient>
	<path class="st1" d="M13.9,12h12V0h-12V12z"/>
	<linearGradient id="SVGID_4_" gradientUnits="userSpaceOnUse" x1="33.6977" y1="11.994" x2="33.6977" y2="-2.692104e-010">
		<stop  offset="0" style="stop-color:#2170B8"/>
		<stop  offset="1" style="stop-color:#30B3A8"/>
	</linearGradient>
	<path class="st2" d="M27.7,0v12h12V0H27.7z M38.8,11.1H28.6V0.9h10.1V11.1z"/>
	<linearGradient id="SVGID_5_" gradientUnits="userSpaceOnUse" x1="5.9968" y1="25.5786" x2="5.9968" y2="13.5851">
		<stop  offset="0" style="stop-color:#2170B8"/>
		<stop  offset="1" style="stop-color:#30B3A8"/>
	</linearGradient>
	<path class="st3" d="M0,25.6h12v-12H0V25.6z M0.9,14.5h10.1v10.1H0.9V14.5z"/>
	<linearGradient id="SVGID_6_" gradientUnits="userSpaceOnUse" x1="19.8471" y1="25.5786" x2="19.8471" y2="13.5851">
		<stop  offset="0" style="stop-color:#2170B8"/>
		<stop  offset="1" style="stop-color:#30B3A8"/>
	</linearGradient>
	<path class="st4" d="M13.9,25.6h12v-12h-12V25.6z"/>
	<linearGradient id="SVGID_7_" gradientUnits="userSpaceOnUse" x1="33.6977" y1="25.5786" x2="33.6977" y2="13.5851">
		<stop  offset="0" style="stop-color:#2170B8"/>
		<stop  offset="1" style="stop-color:#30B3A8"/>
	</linearGradient>
	<path class="st5" d="M27.7,25.6h12v-12h-12V25.6z M28.6,14.5h10.1v10.1H28.6V14.5z"/>
	<linearGradient id="SVGID_8_" gradientUnits="userSpaceOnUse" x1="5.9968" y1="39.0522" x2="5.9968" y2="27.0582">
		<stop  offset="0" style="stop-color:#2170B8"/>
		<stop  offset="1" style="stop-color:#30B3A8"/>
	</linearGradient>
	<path class="st6" d="M0,39.1h12v-12H0V39.1z M0.9,28h10.1v10.1H0.9V28z"/>
	<linearGradient id="SVGID_9_" gradientUnits="userSpaceOnUse" x1="19.8471" y1="39.0522" x2="19.8471" y2="27.0582">
		<stop  offset="0" style="stop-color:#2170B8"/>
		<stop  offset="1" style="stop-color:#30B3A8"/>
	</linearGradient>
	<path class="st7" d="M13.9,39.1h12v-12h-12V39.1z"/>
	<linearGradient id="SVGID_10_" gradientUnits="userSpaceOnUse" x1="33.6977" y1="39.0522" x2="33.6977" y2="27.0582">
		<stop  offset="0" style="stop-color:#2170B8"/>
		<stop  offset="1" style="stop-color:#30B3A8"/>
	</linearGradient>
	<path class="st8" d="M27.7,39.1h12v-12h-12V39.1z M28.6,28h10.1v10.1H28.6V28z"/>
</g>
</svg>
