<?xml version="1.0" encoding="utf-8"?>
<!-- Generator: Adobe Illustrator 22.1.0, SVG Export Plug-In . SVG Version: 6.00 Build 0)  -->
<svg version="1.1" id="Isolation_Mode" xmlns="http://www.w3.org/2000/svg" xmlns:xlink="http://www.w3.org/1999/xlink" x="0px"
	 y="0px" viewBox="0 0 29 17" style="enable-background:new 0 0 29 17;" xml:space="preserve">
<style type="text/css">
	.st0{fill-rule:evenodd;clip-rule:evenodd;fill:#FFFFFF;}
</style>
<g>
	<g>
		<path class="st0" d="M26.6,7.6c-1.1,0-2,0.7-2.3,1.7h-4l-1.8-2.8c-0.1-0.2-0.4-0.3-0.6-0.3c-0.2,0-0.5,0.1-0.6,0.4l-1.6,2.7h-2.6
			c-0.3,0-0.6,0.3-0.7,0.6l-0.8,2.9L9.4,0.6C9.3,0.3,9,0,8.6,0C8.3,0,8,0.3,7.9,0.6L6.2,10L5.1,6.7l0,0C5,6.4,4.8,6.2,4.5,6.1l0,0
			c-0.3,0-0.5,0.2-0.7,0.4L2.4,9.3H0.7C0.3,9.3,0,9.6,0,10c0,0.4,0.3,0.7,0.7,0.7h2.1c0.3,0,0.5-0.1,0.6-0.4l0.9-1.5l1.4,4.4
			c0.1,0.3,0.4,0.5,0.7,0.5c0.3,0,0.6-0.3,0.7-0.6l1.6-8.4l2.1,11.5c0,0.3,0.3,0.7,0.7,0.7l0,0c0.3,0,0.6-0.3,0.7-0.7l0,0l1.4-5.6
			h2.4c0.3,0,0.5-0.1,0.6-0.4l1.2-2l1.4,2.1c0.1,0.2,0.3,0.3,0.6,0.3h4.4c0.3,0.9,1.2,1.6,2.3,1.6c1.3,0,2.4-1.1,2.4-2.4
			C29,8.6,27.9,7.6,26.6,7.6z"/>
	</g>
</g>
</svg>
