<?xml version="1.0" encoding="utf-8"?>
<!-- Generator: Adobe Illustrator 22.1.0, SVG Export Plug-In . SVG Version: 6.00 Build 0)  -->
<svg version="1.1" id="Layer_1" xmlns="http://www.w3.org/2000/svg" xmlns:xlink="http://www.w3.org/1999/xlink" x="0px" y="0px"
	 viewBox="0 0 81 85.9" style="enable-background:new 0 0 81 85.9;" xml:space="preserve">
<style type="text/css">
	
		.st0{fill:none;stroke:url(#SVGID_1_);stroke-width:2;stroke-linecap:round;stroke-linejoin:round;stroke-miterlimit:10;stroke-dasharray:3,4;}
	.st1{fill:none;stroke:url(#SVGID_2_);stroke-width:2;stroke-miterlimit:10;}
	.st2{fill:none;stroke:url(#SVGID_3_);stroke-width:2;stroke-linecap:round;stroke-linejoin:round;stroke-dasharray:3,4;}
</style>
<linearGradient id="SVGID_1_" gradientUnits="userSpaceOnUse" x1="40.5232" y1="85.895" x2="40.5232" y2="50.4423">
	<stop  offset="0.4429" style="stop-color:#2371B8"/>
	<stop  offset="1" style="stop-color:#1C8DB9"/>
</linearGradient>
<path class="st0" d="M80,51.4v22.8c0,5.9-4.8,10.6-10.6,10.6H11.6C5.8,84.9,1,80.1,1,74.3V51.4"/>
<linearGradient id="SVGID_2_" gradientUnits="userSpaceOnUse" x1="40.5232" y1="54.9562" x2="40.5232" y2="26.9611">
	<stop  offset="0" style="stop-color:#2371B8"/>
	<stop  offset="0.2531" style="stop-color:#1D92B8"/>
	<stop  offset="0.9821" style="stop-color:#30B3A8"/>
</linearGradient>
<path class="st1" d="M1,47.9h21.3c0.7,0,1.2-0.4,1.4-1l3.2-9.7L33,53c0.2,0.6,0.8,1,1.4,1h0c0.6,0,1.2-0.4,1.4-1l3.5-10.5l2.9,4.8
	c0.3,0.5,0.9,0.8,1.5,0.7c0.6-0.1,1.1-0.5,1.3-1.1l4.6-16.2l4.6,16.2c0.2,0.7,0.8,1.1,1.5,1.1H80"/>
<linearGradient id="SVGID_3_" gradientUnits="userSpaceOnUse" x1="40.5232" y1="44.5758" x2="40.5232" y2="0">
	<stop  offset="0" style="stop-color:#25A5B1"/>
	<stop  offset="0.7567" style="stop-color:#25A5B1"/>
	<stop  offset="0.9942" style="stop-color:#30B3A8"/>
</linearGradient>
<path class="st2" d="M1,43.6V11.6C1,5.8,5.8,1,11.6,1h57.8C75.3,1,80,5.8,80,11.6v31.9 M34.3,31.5"/>
</svg>
