<?xml version="1.0" encoding="utf-8"?>
<!-- Generator: Adobe Illustrator 19.2.1, SVG Export Plug-In . SVG Version: 6.00 Build 0)  -->
<svg version="1.1" id="Layer_1" xmlns="http://www.w3.org/2000/svg" xmlns:xlink="http://www.w3.org/1999/xlink" x="0px" y="0px"
	 viewBox="31.7 618.3 23 23" style="enable-background:new 31.7 618.3 23 23;" xml:space="preserve">
<style type="text/css">
	.problem0{fill-rule:evenodd;clip-rule:evenodd;fill:#FF0000;}
	.problem1{fill:#FFFFFF;}
</style>
<path class="problem0" d="M43.2,618.3c6.4,0,11.5,5.1,11.5,11.5c0,6.4-5.1,11.5-11.5,11.5s-11.5-5.1-11.5-11.5
	C31.7,623.4,36.8,618.3,43.2,618.3z"/>
<g>
	<path class="problem1" d="M50.3,633.3l-6-10.3c-0.2-0.4-0.6-0.6-1.1-0.6c-0.5,0-0.9,0.2-1.1,0.6l-6,10.3c-0.2,0.4-0.2,0.9,0,1.3
		c0.2,0.4,0.6,0.6,1.1,0.6h12c0.5,0,0.9-0.2,1.1-0.6C50.5,634.1,50.5,633.7,50.3,633.3z M49.3,634c0,0.1-0.1,0.1-0.2,0.1h-12
		c-0.1,0-0.1-0.1-0.1-0.1c0,0,0,0,0,0l0,0c0,0,0-0.1,0-0.2l6-10.3c0-0.1,0.1-0.1,0.1-0.1c0,0,0.1,0,0.2,0.1l6,10.3
		C49.4,633.9,49.3,634,49.3,634z"/>
	<rect x="42.6" y="626.8" class="problem1" width="1.3" height="4.3"/>
	<rect x="42.6" y="631.7" class="problem1" width="1.3" height="1.4"/>
</g>
</svg>
