<?xml version="1.0" encoding="utf-8"?>
<!-- Generator: Adobe Illustrator 19.2.1, SVG Export Plug-In . SVG Version: 6.00 Build 0)  -->
<svg version="1.1" id="Layer_1" xmlns="http://www.w3.org/2000/svg" xmlns:xlink="http://www.w3.org/1999/xlink" x="0px" y="0px"
	 viewBox="31.7 618.3 23 23" style="enable-background:new 31.7 618.3 23 23;" xml:space="preserve">
<style type="text/css">
	.st0{fill-rule:evenodd;clip-rule:evenodd;fill:#21C364;}
	.st1{fill:#FFFFFF;}
</style>
<path class="st0" d="M43.2,618.3c6.4,0,11.5,5.1,11.5,11.5c0,6.4-5.1,11.5-11.5,11.5s-11.5-5.1-11.5-11.5
	C31.7,623.4,36.8,618.3,43.2,618.3z"/>
<path class="st1" d="M48.8,624.4c-0.2-0.1-0.4-0.2-0.6-0.2h0c-0.2,0-0.4,0.1-0.5,0.3l-7.4,8.9l-2.3-2.5c-0.1-0.2-0.3-0.2-0.5-0.3
	c-0.2,0-0.4,0.1-0.5,0.2c-0.2,0.1-0.2,0.3-0.3,0.5c0,0.2,0.1,0.4,0.2,0.6l2.9,3.2c0.1,0.2,0.3,0.2,0.5,0.3c0,0,0,0,0,0
	c0.2,0,0.4-0.1,0.5-0.2c0,0,0.1-0.1,0.1-0.1l7.9-9.5C49.2,625.2,49.1,624.7,48.8,624.4z"/>
</svg>
