<?xml version="1.0" encoding="utf-8"?>
<!-- Generator: Adobe Illustrator 19.2.1, SVG Export Plug-In . SVG Version: 6.00 Build 0)  -->
<svg version="1.1" id="Layer_1" xmlns="http://www.w3.org/2000/svg" xmlns:xlink="http://www.w3.org/1999/xlink" x="0px" y="0px"
	 viewBox="32.5 618.5 23 23" style="enable-background:new 32.5 618.5 23 23;" xml:space="preserve">
<style type="text/css">
	.st0{fill-rule:evenodd;clip-rule:evenodd;fill:#E366F6;}
	.st1{fill:#FFFFFF;}
</style>
<path class="st0" d="M44,618.5c6.4,0,11.5,5.1,11.5,11.5c0,6.4-5.1,11.5-11.5,11.5s-11.5-5.1-11.5-11.5
	C32.5,623.6,37.6,618.5,44,618.5z"/>
<g>
	<path class="st1" d="M50,630.2c-0.3,0-0.5,0.2-0.5,0.5c0,3.1-2.5,5.6-5.6,5.6c-2,0-3.8-1.1-4.9-2.8h2.2c0.3,0,0.5-0.2,0.5-0.5
		c0-0.3-0.2-0.5-0.5-0.5h-3.6v3.6c0,0.3,0.2,0.5,0.5,0.5s0.5-0.2,0.5-0.5v-1.8c1.2,1.7,3.2,2.8,5.4,2.8c3.6,0,6.5-2.9,6.5-6.5
		C50.4,630.4,50.2,630.2,50,630.2z"/>
	<path class="st1" d="M38,629.7c0.3,0,0.5-0.2,0.5-0.5c0-3.1,2.5-5.6,5.6-5.6c2,0,3.8,1.1,4.9,2.8h-2.2c-0.3,0-0.5,0.2-0.5,0.5
		c0,0.3,0.2,0.5,0.5,0.5h3.6v-3.6c0-0.3-0.2-0.5-0.5-0.5c-0.3,0-0.5,0.2-0.5,0.5v1.8c-1.2-1.7-3.2-2.8-5.4-2.8
		c-3.6,0-6.5,2.9-6.5,6.5C37.5,629.5,37.7,629.7,38,629.7z"/>
</g>
</svg>
