<?xml version="1.0" encoding="UTF-8"?>
<svg width="13px" height="13px" viewBox="0 0 13 13" version="1.1" xmlns="http://www.w3.org/2000/svg" xmlns:xlink="http://www.w3.org/1999/xlink">
    <!-- Generator: Sketch 53.2 (72643) - https://sketchapp.com -->
    <title>Group 3</title>
    <desc>Created with Sketch.</desc>
    <g id="SG" stroke="none" stroke-width="1" fill="none" fill-rule="evenodd">
        <g id="SG-Alert-Definition/1" transform="translate(-441.000000, -469.000000)" fill="#FFFFFF">
            <g id="Group-4" transform="translate(434.000000, 462.000000)">
                <g id="Group-3" transform="translate(7.000000, 7.000000)">
                    <path d="M12.2972973,5.7972973 L7.2027027,5.7972973 L7.2027027,0.702702703 C7.2027027,0.314635135 6.88806757,0 6.5,0 C6.11193243,0 5.7972973,0.314635135 5.7972973,0.702702703 L5.7972973,5.7972973 L0.702702703,5.7972973 C0.314635135,5.7972973 0,6.11193243 0,6.5 C0,6.88806757 0.314635135,7.2027027 0.702702703,7.2027027 L5.7972973,7.2027027 L5.7972973,12.2972973 C5.7972973,12.6853649 6.11193243,13 6.5,13 C6.88806757,13 7.2027027,12.6853649 7.2027027,12.2972973 L7.2027027,7.2027027 L12.2972973,7.2027027 C12.6853649,7.2027027 13,6.88806757 13,6.5 C13,6.11193243 12.6853649,5.7972973 12.2972973,5.7972973" id="Fill-1"></path>
                </g>
            </g>
        </g>
    </g>
</svg>