<?xml version="1.0" encoding="UTF-8"?>
<svg width="42px" height="42px" viewBox="0 0 42 42" version="1.1" xmlns="http://www.w3.org/2000/svg">
    <!-- Generator: Sketch 58 (84663) - https://sketch.com -->
    <title>Group 19</title>
    <desc>Created with Sketch.</desc>
    <g id="Page-1" stroke="none" stroke-width="1" fill="none" fill-rule="evenodd">
        <g id="Group-19">
            <circle id="Oval-Copy-11" fill="#579DF6" cx="21" cy="21" r="21"></circle>
            <g id="Group-3-Copy-5" transform="translate(10.000000, 10.000000)" fill="#FFFFFF" stroke="#FFFFFF" stroke-width="0.3">
                <path d="M17.6848,10.64 C17.6848,10.33536 17.9312,10.08896 18.23808,10.08896 C18.54272,10.08896 18.79136,10.33536 18.79136,10.64 L18.79136,14.77952 C18.79136,16.66112 18.62112,17.53696 18.13504,18.44416 C17.69824,19.264 17.05536,19.90688 16.23776,20.34368 C15.32608,20.832 14.45248,21 12.57088,21 L6.22048,21 C4.34112,21 3.46304,20.832 2.5536,20.34368 C1.73824,19.90688 1.09312,19.264 0.65632,18.44416 C0.17024,17.53696 0,16.66112 0,14.77952 L0,8.43136 C0,6.54976 0.17024,5.67392 0.65632,4.76448 C1.09312,3.94688 1.73824,3.304 2.5536,2.86496 C3.46304,2.37888 4.34112,2.20864 6.22048,2.20864 L10.35776,2.20864 C10.66464,2.20864 10.91328,2.45728 10.91328,2.76192 C10.91328,3.06656 10.66464,3.3152 10.35776,3.3152 L6.22048,3.3152 C4.50688,3.3152 3.80352,3.45184 3.07776,3.8416 C2.45056,4.17312 1.96448,4.66144 1.63072,5.28416 C1.24096,6.0144 1.10656,6.71776 1.10656,8.43136 L1.10656,14.77952 C1.10656,16.49312 1.24096,17.19648 1.63072,17.92448 C1.96448,18.54944 2.45056,19.03552 3.07776,19.36928 C3.80352,19.7568 4.50688,19.89568 6.22048,19.89568 L12.57088,19.89568 C14.28224,19.89568 14.98784,19.7568 15.71584,19.36928 C16.33856,19.03552 16.82688,18.54944 17.16064,17.92448 C17.54816,17.19648 17.6848,16.49312 17.6848,14.77952 L17.6848,10.64 Z M19.11616,1.10432 L13.81632,1.10432 C13.51168,1.10432 13.26304,0.85792 13.26304,0.55104 C13.26304,0.2464 13.51168,0 13.81632,0 L20.44672,0 C20.7536,0 21,0.2464 21,0.55104 L21,7.18368 C21,7.49056 20.7536,7.73696 20.44672,7.73696 C20.14432,7.73696 19.89568,7.49056 19.89568,7.18368 L19.89568,1.88608 L9.23552,12.54848 C9.01824,12.76352 8.6688,12.76352 8.45152,12.54848 C8.23648,12.33344 8.23648,11.984 8.45152,11.76672 L19.11616,1.10432 Z" id="Fill-1"></path>
            </g>
        </g>
    </g>
</svg>
