<?xml version="1.0" encoding="UTF-8"?>
<svg width="34px" height="34px" viewBox="0 0 34 34" version="1.1" xmlns="http://www.w3.org/2000/svg" xmlns:xlink="http://www.w3.org/1999/xlink">
    <!-- Generator: Sketch 58 (84663) - https://sketch.com -->
    <title>Group 3 Copy 3</title>
    <desc>Created with Sketch.</desc>
    <defs>
        <polygon id="path-1" points="0 0 34 0 34 34 0 34"></polygon>
    </defs>
    <g id="Page-1" stroke="none" stroke-width="1" fill="none" fill-rule="evenodd">
        <g id="3" transform="translate(-1314.000000, -374.000000)">
            <g id="Group-9" transform="translate(1287.000000, 347.000000)">
                <g id="Group-3-Copy-3" transform="translate(27.000000, 27.000000)">
                    <mask id="mask-2" fill="white">
                        <use xlink:href="#path-1"></use>
                    </mask>
                    <g id="Clip-2"></g>
                    <path d="M28.6325333,17.2266667 C28.6325333,16.73344 29.0314667,16.3345067 29.52832,16.3345067 C30.0215467,16.3345067 30.4241067,16.73344 30.4241067,17.2266667 L30.4241067,23.9287467 C30.4241067,26.9751467 30.14848,28.3931733 29.3614933,29.8619733 C28.6542933,31.1893333 27.61344,32.2301867 26.2897067,32.9373867 C24.8136533,33.728 23.3992533,34 20.3528533,34 L10.0712533,34 C7.02848,34 5.60682667,33.728 4.1344,32.9373867 C2.81429333,32.2301867 1.76981333,31.1893333 1.06261333,29.8619733 C0.275626667,28.3931733 0,26.9751467 0,23.9287467 L0,13.6507733 C0,10.6043733 0.275626667,9.18634667 1.06261333,7.71392 C1.76981333,6.39018667 2.81429333,5.34933333 4.1344,4.63850667 C5.60682667,3.85152 7.02848,3.57589333 10.0712533,3.57589333 L16.7697067,3.57589333 C17.26656,3.57589333 17.66912,3.97845333 17.66912,4.47168 C17.66912,4.96490667 17.26656,5.36746667 16.7697067,5.36746667 L10.0712533,5.36746667 C7.29685333,5.36746667 6.15808,5.58869333 4.98304,6.21973333 C3.96757333,6.75648 3.18058667,7.54709333 2.64021333,8.55530667 C2.00917333,9.7376 1.79157333,10.8763733 1.79157333,13.6507733 L1.79157333,23.9287467 C1.79157333,26.7031467 2.00917333,27.84192 2.64021333,29.0205867 C3.18058667,30.0324267 3.96757333,30.8194133 4.98304,31.3597867 C6.15808,31.9872 7.29685333,32.2120533 10.0712533,32.2120533 L20.3528533,32.2120533 C23.1236267,32.2120533 24.2660267,31.9872 25.4446933,31.3597867 C26.4529067,30.8194133 27.24352,30.0324267 27.7838933,29.0205867 C28.4113067,27.84192 28.6325333,26.7031467 28.6325333,23.9287467 L28.6325333,17.2266667 Z M30.9499733,1.78794667 L22.36928,1.78794667 C21.8760533,1.78794667 21.4734933,1.38901333 21.4734933,0.89216 C21.4734933,0.398933333 21.8760533,0 22.36928,0 L33.1042133,0 C33.6010667,0 34,0.398933333 34,0.89216 L34,11.63072 C34,12.1275733 33.6010667,12.5265067 33.1042133,12.5265067 C32.6146133,12.5265067 32.2120533,12.1275733 32.2120533,11.63072 L32.2120533,3.05365333 L14.9527467,20.3165867 C14.60096,20.6647467 14.0352,20.6647467 13.6834133,20.3165867 C13.3352533,19.9684267 13.3352533,19.4026667 13.6834133,19.05088 L30.9499733,1.78794667 Z" id="Fill-1" fill="#FFFFFF" mask="url(#mask-2)"></path>
                </g>
            </g>
        </g>
    </g>
</svg>