<?xml version="1.0" encoding="utf-8"?>
<!-- Generator: Adobe Illustrator 22.0.1, SVG Export Plug-In . SVG Version: 6.00 Build 0)  -->
<svg version="1.1" id="Layer_1" xmlns="http://www.w3.org/2000/svg" xmlns:xlink="http://www.w3.org/1999/xlink" x="0px" y="0px"
	 viewBox="0 0 14.9 15.2" style="enable-background:new 0 0 14.9 15.2;" xml:space="preserve">
<style type="text/css">
	.st0{fill:#FFFFFF;}
</style>
<g>
	<path class="st0" d="M9.9,15.2h-5C2.2,15.2,0,13,0,10.3V4.8C0,2.2,2.2,0,4.9,0h5c2.7,0,4.9,2.2,4.9,4.8v5.5
		C14.9,13,12.7,15.2,9.9,15.2z M4.9,1C2.8,1,1,2.7,1,4.8v5.5c0,2.1,1.8,3.8,3.9,3.8h5c2.2,0,3.9-1.7,3.9-3.8V4.8
		c0-2.1-1.8-3.8-3.9-3.8H4.9z"/>
</g>
<g>
	<path class="st0" d="M6.7,6.2c0,0.5-0.2,0.9-0.5,1.2C5.9,7.7,5.4,7.8,4.7,7.8H4.1v2H3.6v-5h1.3C6.1,4.8,6.7,5.2,6.7,6.2z M4.1,7.3
		h0.5c0.5,0,0.9-0.1,1.1-0.2s0.3-0.4,0.3-0.8c0-0.3-0.1-0.6-0.3-0.7s-0.6-0.2-1-0.2H4.1V7.3z"/>
	<path class="st0" d="M11.3,4.8h0.6l-1.8,5H9.6l-1.8-5h0.6L9.5,8c0.1,0.4,0.2,0.7,0.3,1.1C9.9,8.7,10,8.3,10.2,8L11.3,4.8z"/>
</g>
</svg>
