<?xml version="1.0" encoding="utf-8"?>
<!-- Generator: Adobe Illustrator 22.1.0, SVG Export Plug-In . SVG Version: 6.00 Build 0)  -->
<svg version="1.1" id="Layer_1" xmlns="http://www.w3.org/2000/svg" xmlns:xlink="http://www.w3.org/1999/xlink" x="0px" y="0px"
	 viewBox="53.1 589.4 23.6 23.5" style="enable-background:new 53.1 589.4 23.6 23.5;" xml:space="preserve">
<style type="text/css">
	.st0{fill:#FFFFFF;}
</style>
<g>
	<g>
		<g>
			<path class="st0" d="M76,611.5C76,611.5,75.9,611.5,76,611.5c-0.3-0.1-0.4-0.3-0.4-0.5c0.3-1.4-0.8-2.6-0.8-2.6l-6.8-6.8
				l-4.6-1.4c-0.1,0-0.1-0.1-0.2-0.1L59,596h-3.1c-0.1,0-0.3-0.1-0.4-0.2l-2.3-3.9c-0.1-0.2-0.1-0.4,0.1-0.5l1.8-1.6
				c0.1-0.1,0.3-0.1,0.5,0l3.4,2.2c0.1,0.1,0.2,0.2,0.2,0.3v1.9c0,0.2-0.2,0.4-0.4,0.4c-0.2,0-0.4-0.2-0.4-0.4v-1.6l-3-1.9l-1.3,1.2
				l2,3.4h3c0.1,0,0.2,0,0.3,0.1l4.2,4.2l4.6,1.4c0.1,0,0.1,0.1,0.2,0.1l6.9,6.9c0.1,0.1,1.5,1.5,1,3.3
				C76.3,611.4,76.2,611.5,76,611.5L76,611.5z"/>
		</g>
		<g>
			<path class="st0" d="M74.2,612.7c-1.2,0-2.1-0.7-2.1-0.8c-0.1-0.1-6.5-6.4-7.3-7.1c-0.8-0.6-1.1-2.7-1.1-3.1
				c0-0.2,0.1-0.4,0.3-0.5c0.2,0,0.4,0.1,0.5,0.3c0.1,0.9,0.5,2.3,0.9,2.6c0.8,0.7,7,6.9,7.3,7.1c0,0,0.9,0.7,2,0.5
				c0.2,0,0.4,0.1,0.5,0.3c0,0.2-0.1,0.4-0.3,0.5C74.6,612.7,74.4,612.7,74.2,612.7L74.2,612.7z"/>
		</g>
		<g>
			<path class="st0" d="M73.8,610.6c-0.1,0-0.2,0-0.3-0.1l-7.6-7.6c-0.2-0.2-0.2-0.4,0-0.6c0.2-0.2,0.4-0.2,0.6,0l7.6,7.6
				c0.2,0.2,0.2,0.4,0,0.6C74,610.6,73.9,610.6,73.8,610.6L73.8,610.6z"/>
		</g>
		<g>
			<path class="st0" d="M53.8,611.5c-0.1,0-0.3-0.1-0.4-0.2c-0.7-1.3,0.3-2.5,0.3-2.6c0,0,0,0,0,0l7.9-7.9c0.2-0.2,0.4-0.2,0.6,0
				c0.2,0.2,0.2,0.4,0,0.6l-7.9,7.9c-0.1,0.1-0.6,0.9-0.2,1.6c0.1,0.2,0,0.4-0.2,0.6C53.9,611.5,53.8,611.5,53.8,611.5L53.8,611.5z"
				/>
		</g>
		<g>
			<path class="st0" d="M55.6,612.9c-0.3,0-0.6-0.1-0.9-0.2c-0.2-0.1-0.3-0.3-0.2-0.5c0.1-0.2,0.3-0.3,0.5-0.2
				c0.9,0.4,1.9-0.5,2-0.5l6.1-6.3c0.2-0.2,0.4-0.2,0.6,0c0.2,0.2,0.2,0.4,0,0.6l-6.2,6.3C57.5,612.1,56.6,612.9,55.6,612.9
				L55.6,612.9z"/>
		</g>
		<g>
			<path class="st0" d="M71.1,600.7c-0.8,0-1.6-0.2-2.3-0.7c-0.2-0.1-0.3-0.4-0.1-0.6c0.1-0.2,0.4-0.3,0.6-0.1
				c2.3,1.4,4.9-0.4,4.9-0.4c2.2-1.7,2-4,1.8-5.2c-0.8,0.9-1.6,1.7-1.7,1.9c-0.2,0.3-1,1.1-2,1.3c-0.7,0.1-1.4,0-1.9-0.5
				c-0.7-0.5-1-1.1-1.1-1.8c-0.1-1,0.5-1.8,0.6-1.8c0,0,0,0,0,0l2.5-2.5c-2.6-0.4-4.6,0.6-5.7,2.7c-1,2.1,0,3.5,0,3.6
				c0.1,0.2,0.1,0.4,0,0.5l-1.7,1.7c-0.2,0.2-0.4,0.2-0.6,0c-0.2-0.2-0.2-0.4,0-0.6l1.5-1.5c-0.3-0.6-0.9-2.1,0.1-4.1
				c1.3-2.7,4-3.8,7.3-3c0.1,0,0.3,0.1,0.3,0.3c0,0.1,0,0.3-0.1,0.4l-3,3.1c-0.1,0.1-0.4,0.6-0.4,1.2c0,0.4,0.3,0.9,0.8,1.2
				c0.4,0.3,0.8,0.4,1.3,0.3c0.8-0.2,1.3-0.8,1.4-0.9c0.2-0.4,1.8-2.1,2.3-2.6c0.1-0.1,0.2-0.1,0.4-0.1c0.1,0,0.2,0.1,0.3,0.3
				c0,0,1.5,4.2-1.9,6.8C74.4,599.7,72.9,600.7,71.1,600.7L71.1,600.7z"/>
		</g>
	</g>
</g>
</svg>
