<?xml version="1.0" encoding="utf-8"?>
<!-- Generator: Adobe Illustrator 19.2.1, SVG Export Plug-In . SVG Version: 6.00 Build 0)  -->
<svg version="1.1" id="Layer_1" xmlns="http://www.w3.org/2000/svg" xmlns:xlink="http://www.w3.org/1999/xlink" x="0px" y="0px"
	 viewBox="0 0 10.6 6" style="enable-background:new 0 0 10.6 6;" xml:space="preserve">
<style type="text/css">
	.st0{clip-path:url(#SVGID_2_);fill:#FFFFFF;}
	.st1{clip-path:url(#SVGID_2_);fill:none;stroke:#FFFFFF;stroke-width:0.5;stroke-miterlimit:10;}
</style>
<g>
	<defs>
		<rect id="SVGID_1_" y="0" width="10.6" height="6"/>
	</defs>
	<clipPath id="SVGID_2_">
		<use xlink:href="#SVGID_1_"  style="overflow:visible;"/>
	</clipPath>
	<path class="st0" d="M8.3,0.8L8,1.1C9.3,1.8,10,2.7,10.2,3C9.9,3.4,8.9,4.7,7.3,5.3C7.9,4.8,8.3,3.9,8.3,3c0-0.6-0.2-1.2-0.5-1.7
		L7.5,1.6C7.8,2,8,2.5,8,3c0,1.5-1.2,2.6-2.6,2.6c-0.5,0-1-0.2-1.4-0.4L3.4,5.7C4,5.9,4.6,6,5.3,6c2.3,0,4.3-1.4,5.3-3
		C10.2,2.3,9.3,1.4,8.3,0.8 M2.6,5C1.4,4.3,0.7,3.3,0.5,3c0.2-0.4,1.2-1.6,2.9-2.3C2.7,1.3,2.3,2.1,2.3,3c0,0.6,0.2,1.2,0.5,1.7
		l0.3-0.3C2.8,4.1,2.7,3.6,2.7,3c0-1.4,1.2-2.6,2.6-2.6c0.5,0,1,0.2,1.4,0.4l0.5-0.5C6.7,0.1,6,0,5.3,0C2.5,0,0.5,2.1,0,3
		c0.4,0.7,1.3,1.6,2.3,2.2L2.6,5z"/>
	<path class="st0" d="M0,3c1,1.7,3,3,5.3,3C6,6,6.7,5.9,7.2,5.7L6.7,5.2C6.3,5.5,5.8,5.7,5.3,5.7C3.9,5.7,2.7,4.5,2.7,3
		c0-0.5,0.2-1,0.4-1.4L2.8,1.3C2.5,1.8,2.3,2.4,2.3,3c0,0.9,0.4,1.7,1.1,2.3C1.7,4.7,0.7,3.4,0.5,3c0.2-0.3,0.9-1.2,2.1-1.9L2.3,0.8
		C1.3,1.4,0.4,2.3,0,3 M8.3,5.2c1-0.6,1.9-1.5,2.3-2.2c-0.5-1-2.5-3-5.3-3C4.6,0,4,0.1,3.4,0.3l0.5,0.5c0.4-0.3,0.9-0.4,1.4-0.4
		C6.8,0.4,8,1.6,8,3c0,0.5-0.2,1-0.4,1.4l0.3,0.3C8.1,4.2,8.3,3.7,8.3,3c0-0.9-0.4-1.7-1.1-2.3C8.9,1.4,9.9,2.7,10.2,3
		C10,3.3,9.3,4.3,8,5L8.3,5.2z"/>
	<circle class="st1" cx="5.3" cy="3" r="1.1"/>
</g>
</svg>
