<?xml version="1.0" encoding="utf-8"?>
<!-- Generator: Adobe Illustrator 19.2.1, SVG Export Plug-In . SVG Version: 6.00 Build 0)  -->
<svg version="1.1" id="Layer_1" xmlns="http://www.w3.org/2000/svg" xmlns:xlink="http://www.w3.org/1999/xlink" x="0px" y="0px"
	 viewBox="0 0 100 100" style="enable-background:new 0 0 100 100;" xml:space="preserve">
<style type="text/css">
	.st0{fill:#3C526C;}
</style>
<path class="st0" d="M19.7,57.5l0.2,0.3c0.2,0.3,0.5,0.7,0.7,1l26.1,37.4c1.3,1.8,3.8,2.3,5.7,1c0.4-0.3,0.7-0.6,1-1l26-37.4
	c0.3-0.3,0.5-0.7,0.7-1l0.2-0.2l0,0c10.8-16.7,6-39-10.7-49.8s-39-6-49.8,10.7C12.1,30.4,12.1,45.7,19.7,57.5L19.7,57.5z M50,23.1
	c8.3,0,15,6.7,15,15s-6.7,15-15,15s-15-6.7-15-15l0,0C35,29.8,41.7,23.1,50,23.1z"/>
</svg>
