<?xml version="1.0" encoding="utf-8"?>
<!-- Generator: Adobe Illustrator 22.0.1, SVG Export Plug-In . SVG Version: 6.00 Build 0)  -->
<svg version="1.1" id="Layer_1" xmlns="http://www.w3.org/2000/svg" xmlns:xlink="http://www.w3.org/1999/xlink" x="0px" y="0px"
	 viewBox="0 0 22.4 16.1" style="enable-background:new 0 0 22.4 16.1;" xml:space="preserve">
<style type="text/css">
	.st0{fill:#08D58F;}
</style>
<path class="st0" d="M22.1,0.4c-0.3-0.3-0.6-0.4-1-0.3c-0.3,0-0.5,0.2-0.7,0.3L7.4,13.4L1.9,9.1C1.7,9,1.4,8.9,1.1,8.9
	C0.8,8.9,0.5,9,0.3,9.2C0.1,9.5,0,9.8,0,10.1c0,0.3,0.1,0.6,0.4,0.8c0,0,0.1,0.1,0.1,0.1l6.3,4.9C7,16,7.2,16.1,7.5,16.1
	c0.3,0,0.6-0.1,0.8-0.3L22,2C22.5,1.5,22.5,0.8,22.1,0.4z"/>
</svg>
