<?xml version="1.0" encoding="UTF-8"?>
<svg width="16px" height="16px" viewBox="0 0 16 16" version="1.1" xmlns="http://www.w3.org/2000/svg" xmlns:xlink="http://www.w3.org/1999/xlink">
    <!-- Generator: Sketch 53.2 (72643) - https://sketchapp.com -->
    <title>icons/details copy 5</title>
    <desc>Created with Sketch.</desc>
    <g id="Page-2" stroke="none" stroke-width="1" fill="none" fill-rule="evenodd">
        <g id="Alert-Tab/4" transform="translate(-432.000000, -661.000000)">
            <g id="icons/details-copy-5" transform="translate(432.000000, 661.000000)">
                <circle id="Oval" fill="#0063C7" cx="8" cy="8" r="8"></circle>
                <path d="M9.41934349,4.55731068 C9.18060375,4.77285517 8.8927308,4.88053196 8.55659044,4.88053196 C8.21893495,4.88053196 7.93062911,4.77285517 7.68885913,4.55731068 C7.44795493,4.34272077 7.32717816,4.08173821 7.32717816,3.77608123 C7.32717816,3.47080608 7.44795493,3.20925076 7.68885913,2.99198802 C7.92997978,2.77472529 8.21893495,2.66666667 8.55659044,2.66666667 C8.8927308,2.66666667 9.18060375,2.77529804 9.41934349,2.99198802 C9.65851613,3.20925076 9.77777778,3.47080608 9.77777778,3.77608123 C9.77777778,4.08173821 9.65851613,4.34272077 9.41934349,4.55731068 M8.79771109,12.3249308 C8.58386261,12.4047339 8.33473347,12.4444444 8.05140588,12.4444444 C7.61634978,12.4444444 7.27761206,12.3300856 7.03627497,12.1028952 C6.79493787,11.8751321 6.67394466,11.585703 6.67394466,11.2351807 C6.67394466,11.0992483 6.68281894,10.9596885 6.70121683,10.8176467 C6.71939828,10.6752232 6.74840202,10.5144717 6.7884445,10.3352013 L7.23778603,8.62955514 C7.27761206,8.4661308 7.3118105,8.31129769 7.33886623,8.16467398 C7.3665713,8.01919577 7.37977449,7.88555436 7.37977449,7.76489527 C7.37977449,7.5472507 7.337784,7.3948995 7.25423591,7.30917808 C7.17025493,7.22345667 7.01073436,7.18011867 6.77350974,7.18011867 C6.65727833,7.18011867 6.53801668,7.2003558 6.41637413,7.23892089 C6.29408224,7.27748598 6.22222222,6.82386888 6.22222222,6.82386888 C6.5163721,6.69538221 6.79775167,6.58541443 7.06679383,6.49396553 C7.33605243,6.40251662 7.59015983,6.35631488 7.83063114,6.35631488 C8.26287345,6.35631488 8.59641647,6.46857366 8.83061085,6.69270938 C9.06458879,6.91684511 9.18190242,7.20761062 9.18190242,7.56615141 C9.18190242,7.64022693 9.17411037,7.77081367 9.15787694,7.95733889 C9.1416435,8.14462777 9.11155753,8.31587968 9.06761903,8.47185829 L8.62022551,10.1713951 C8.58386261,10.3079002 8.55052995,10.4636879 8.52195911,10.6393309 C8.49252247,10.8138284 8.47823705,10.9468971 8.47823705,11.0364368 C8.47823705,11.2622908 8.52498935,11.4159784 8.61935973,11.4978815 C8.71373011,11.5799755 8.87693026,11.6206407 9.10852729,11.6206407 C9.21739954,11.6206407 9.34120655,11.6000217 9.47864965,11.5591656 C9.61609275,11.5185004 9.65808324,11.9770814 9.65808324,11.9770814 C9.29878317,12.1294326 9.01134311,12.2451278 8.79771109,12.3249308" id="Fill-8" fill="#FFFFFF"></path>
            </g>
        </g>
    </g>
</svg>