<?xml version="1.0" encoding="utf-8"?>
<!-- Generator: Adobe Illustrator 22.0.1, SVG Export Plug-In . SVG Version: 6.00 Build 0)  -->
<svg version="1.1" id="Layer_1" xmlns="http://www.w3.org/2000/svg" xmlns:xlink="http://www.w3.org/1999/xlink" x="0px" y="0px"
	 viewBox="0 0 10.8 13.8" style="enable-background:new 0 0 10.8 13.8;" xml:space="preserve">
<style type="text/css">
	.st0{fill:#FFFFFF;}
</style>
<g>
	<g>
		<path class="st0" d="M9.3,3.8l-0.4,8.7c0,0.2-0.2,0.3-0.3,0.3H2.3c-0.2,0-0.3-0.1-0.3-0.3L1.6,3.8c0-0.3-0.2-0.5-0.5-0.5
			S0.6,3.6,0.6,3.9L1,12.5c0,0.7,0.6,1.3,1.3,1.3h6.3c0.7,0,1.3-0.6,1.3-1.3l0.4-8.7c0-0.3-0.2-0.5-0.5-0.5C9.5,3.3,9.3,3.5,9.3,3.8
			z"/>
		<path class="st0" d="M5,4.6v6.7c0,0.2,0.2,0.4,0.4,0.4s0.4-0.2,0.4-0.4V4.6c0-0.2-0.2-0.4-0.4-0.4S5,4.4,5,4.6z"/>
		<path class="st0" d="M2.9,4.6l0.2,6.7c0,0.2,0.2,0.4,0.4,0.4c0.2,0,0.4-0.2,0.4-0.4L3.6,4.6c0-0.2-0.2-0.4-0.4-0.4
			C3,4.2,2.8,4.4,2.9,4.6z"/>
		<path class="st0" d="M7.2,4.6L7,11.3c0,0.2,0.2,0.4,0.4,0.4c0.2,0,0.4-0.2,0.4-0.4L8,4.6c0-0.2-0.2-0.4-0.4-0.4
			C7.4,4.2,7.2,4.4,7.2,4.6z"/>
		<path class="st0" d="M0.5,2.7h9.8c0.3,0,0.5-0.2,0.5-0.5s-0.2-0.5-0.5-0.5H0.5C0.2,1.7,0,1.9,0,2.2S0.2,2.7,0.5,2.7z"/>
		<path class="st0" d="M3.9,2l0.2-0.7C4.2,1.1,4.4,1,4.5,1h1.8c0.2,0,0.4,0.2,0.4,0.3L6.9,2l0.9-0.3L7.7,1C7.5,0.4,6.9,0,6.3,0H4.5
			C3.9,0,3.3,0.4,3.2,1L3,1.7L3.9,2z"/>
	</g>
</g>
</svg>
