<?xml version="1.0" encoding="utf-8"?>
<!-- Generator: Adobe Illustrator 19.2.1, SVG Export Plug-In . SVG Version: 6.00 Build 0)  -->
<svg version="1.1" id="Layer_2" xmlns="http://www.w3.org/2000/svg" xmlns:xlink="http://www.w3.org/1999/xlink" x="0px" y="0px"
	 viewBox="0 0 33.7 33.3" style="enable-background:new 0 0 33.7 33.3;" xml:space="preserve">
<style type="text/css">
	.st0{fill:#FFD200;}
</style>
<g>
	<g>
		<g>
			<path class="st0" d="M13.1,33.3l-8.4-5.2l-0.1-3.8L0,21.6l0.1-9.7l4.5-2.5V5.2L12.7,0l4.5,2.3v28.3L13.1,33.3z M5.5,27.5l7.5,4.7
				l3.4-2.2V2.8L12.8,1L5.5,5.6v4.2l-4.6,2.5L0.8,21l4.5,2.7L5.5,27.5z"/>
		</g>
		<g>
			<polygon class="st0" points="11.4,25.9 10.7,25.3 11.3,24.7 11.3,21.2 8.6,19.8 8.6,14.5 11.3,12.3 11.3,7.6 12.2,7.6 12.2,12.7 
				9.5,14.9 9.5,19.2 12.2,20.7 12.2,25.1 			"/>
		</g>
		<g>
			<circle class="st0" cx="11.7" cy="7.2" r="1"/>
		</g>
		<g>
			<circle class="st0" cx="10.6" cy="25.7" r="1"/>
		</g>
		<g>
			<circle class="st0" cx="7.5" cy="22.6" r="1"/>
		</g>
		<g>
			<circle class="st0" cx="14" cy="16.8" r="1"/>
		</g>
		<g>
			<circle class="st0" cx="3.3" cy="16.8" r="1"/>
		</g>
		<g>
			<circle class="st0" cx="7.5" cy="10.7" r="1"/>
		</g>
		<g>
			<rect x="5.9" y="8.8" transform="matrix(0.4679 -0.8838 0.8838 0.4679 -5.6021 11.0743)" class="st0" width="0.9" height="2.7"/>
		</g>
		<g>
			<rect x="0.5" y="16.7" transform="matrix(0.9648 -0.2631 0.2631 0.9648 -4.4562 1.0517)" class="st0" width="2.4" height="0.9"/>
		</g>
		<g>
			<rect x="4.9" y="23" transform="matrix(0.9095 -0.4157 0.4157 0.9095 -9.1803 4.7168)" class="st0" width="2.7" height="0.9"/>
		</g>
		<g>
			<rect x="14.4" y="16.2" class="st0" width="2.4" height="0.9"/>
		</g>
	</g>
	<g>
		<g>
			<path class="st0" d="M20.8,33.3l-4.3-2.7V2.3L21,0l8.1,5.2v4.2l4.5,2.5l0.1,9.7l-4.6,2.7L29,28.1L20.8,33.3z M17.4,30l3.4,2.2
				l7.5-4.7l0.1-3.8l4.5-2.7l-0.1-8.7l-4.6-2.5V5.6L20.9,1l-3.6,1.8L17.4,30L17.4,30z"/>
		</g>
		<g>
			<polygon class="st0" points="22.5,25.9 21.7,25.1 21.7,20.7 24.3,19.2 24.3,14.9 21.7,12.7 21.7,7.6 22.6,7.6 22.6,12.3 
				25.2,14.5 25.2,19.8 22.6,21.2 22.6,24.7 23.1,25.3 			"/>
		</g>
		<g>
			<circle class="st0" cx="22.2" cy="7.2" r="1"/>
		</g>
		<g>
			<circle class="st0" cx="23.2" cy="25.7" r="1"/>
		</g>
		<g>
			<circle class="st0" cx="26.3" cy="22.6" r="1"/>
		</g>
		<g>
			<circle class="st0" cx="19.9" cy="16.8" r="1"/>
		</g>
		<g>
			<circle class="st0" cx="30.5" cy="16.8" r="1"/>
		</g>
		<g>
			<circle class="st0" cx="26.3" cy="10.7" r="1"/>
		</g>
		<g>
			<rect x="26.2" y="9.7" transform="matrix(0.8838 -0.4679 0.4679 0.8838 -1.5521 14.077)" class="st0" width="2.7" height="0.9"/>
		</g>
		<g>
			<rect x="31.8" y="16" transform="matrix(0.2631 -0.9648 0.9648 0.2631 7.2504 43.8044)" class="st0" width="0.9" height="2.4"/>
		</g>
		<g>
			
				<rect x="27.3" y="22.1" transform="matrix(0.4158 -0.9095 0.9095 0.4158 -5.153 38.9136)" class="st0" width="0.9" height="2.7"/>
		</g>
		<g>
			<rect x="17.1" y="16.2" class="st0" width="2.4" height="0.9"/>
		</g>
	</g>
</g>
</svg>
