<?xml version="1.0" encoding="utf-8"?>
<!-- Generator: Adobe Illustrator 19.2.1, SVG Export Plug-In . SVG Version: 6.00 Build 0)  -->
<svg version="1.1" id="Layer_1" xmlns="http://www.w3.org/2000/svg" xmlns:xlink="http://www.w3.org/1999/xlink" x="0px" y="0px"
	 viewBox="0 0 15.2 14.7" style="enable-background:new 0 0 15.2 14.7;" xml:space="preserve">
<style type="text/css">
	.st0{fill:#FFFFFF;}
</style>
<g>
	<path class="st0" d="M7.6,11C7.8,11,8,10.8,8,10.5V1.5l2.7,2.3c0.2,0.1,0.5,0.1,0.6-0.1c0.1-0.2,0.1-0.4,0-0.6l-3.4-3
		c-0.2-0.1-0.4-0.1-0.6,0L3.9,3.2c-0.2,0.2-0.2,0.5,0,0.6c0.2,0.1,0.4,0.2,0.6,0l2.7-2.3v9.1C7.2,10.8,7.3,11,7.6,11z"/>
	<path class="st0" d="M7.6,11.1c-0.3,0-0.5-0.2-0.5-0.5V1.7L4.5,3.9C4.3,4.1,4,4,3.8,3.9C3.7,3.8,3.7,3.6,3.7,3.5
		c0-0.1,0-0.3,0.2-0.4l3.4-3C7.4,0,7.7,0,7.9,0.1l3.4,3c0.2,0.2,0.2,0.5,0.1,0.7C11.3,3.9,11.2,4,11.1,4c-0.1,0-0.3,0-0.4-0.1
		L8.1,1.7v8.8C8.1,10.9,7.9,11.1,7.6,11.1z M7.3,1.3v9.3c0,0.2,0.1,0.3,0.3,0.3s0.3-0.1,0.3-0.3V1.3l2.9,2.5c0.1,0,0.2,0.1,0.2,0.1
		c0.1,0,0.2-0.1,0.2-0.1c0.1-0.1,0.1-0.3,0-0.4L7.8,0.3c-0.1-0.1-0.3-0.1-0.4,0L4,3.2C3.9,3.3,3.9,3.4,3.9,3.5c0,0.1,0,0.2,0.1,0.2
		c0.1,0.1,0.3,0.1,0.4,0L7.3,1.3z"/>
</g>
<g>
	<path class="st0" d="M0.1,8v5.1c0,0.8,0.7,1.5,1.5,1.5l0,0h11.9c0.8,0,1.5-0.7,1.5-1.5V8c0-0.8-0.7-1.5-1.5-1.5l0,0h-2.7
		c-0.2,0-0.4,0.2-0.4,0.4s0.2,0.4,0.4,0.4h2.7c0.4,0,0.7,0.3,0.7,0.7v5.1c0,0.4-0.3,0.7-0.7,0.7H1.6c-0.4,0-0.7-0.3-0.7-0.7V8
		c0-0.4,0.3-0.7,0.7-0.7h2.7c0.2,0,0.4-0.2,0.4-0.4S4.6,6.4,4.3,6.4H1.6C0.8,6.4,0.1,7.1,0.1,8L0.1,8z"/>
	<path class="st0" d="M13.5,14.7H1.6C0.7,14.7,0,14,0,13.1V8c0-0.9,0.7-1.6,1.6-1.6h2.7c0.3,0,0.5,0.2,0.5,0.5S4.6,7.4,4.3,7.4H1.6
		C1.3,7.4,1.1,7.7,1.1,8v5.1c0,0.3,0.2,0.5,0.5,0.5h11.9c0.3,0,0.5-0.2,0.5-0.5V8c0-0.3-0.2-0.5-0.5-0.5h-2.7
		c-0.3,0-0.5-0.2-0.5-0.5s0.2-0.5,0.5-0.5h2.7c0.9,0,1.6,0.7,1.6,1.6v5.1C15.2,14,14.4,14.7,13.5,14.7z M1.6,6.6
		C0.9,6.6,0.2,7.2,0.2,8v5.1c0,0.8,0.6,1.4,1.4,1.4h11.9c0.8,0,1.4-0.6,1.4-1.4V8c0-0.8-0.6-1.4-1.4-1.4h-2.7
		c-0.2,0-0.3,0.1-0.3,0.3s0.1,0.3,0.3,0.3h2.7c0.4,0,0.8,0.3,0.8,0.8v5.1c0,0.4-0.3,0.8-0.8,0.8H1.6c-0.4,0-0.8-0.3-0.8-0.8V8
		c0-0.4,0.3-0.8,0.8-0.8h2.7c0.2,0,0.3-0.1,0.3-0.3S4.5,6.6,4.3,6.6H1.6z"/>
</g>
</svg>
