<?xml version="1.0" encoding="utf-8"?>
<!-- Generator: Adobe Illustrator 19.2.1, SVG Export Plug-In . SVG Version: 6.00 Build 0)  -->
<svg version="1.1" id="Layer_1" xmlns="http://www.w3.org/2000/svg" xmlns:xlink="http://www.w3.org/1999/xlink" x="0px" y="0px"
	 viewBox="0 0 21.9 12.5" style="enable-background:new 0 0 21.9 12.5;" xml:space="preserve">
<style type="text/css">
	.st0{clip-path:url(#SVGID_2_);fill:#FFFFFF;}
	.st1{clip-path:url(#SVGID_2_);fill:none;stroke:#FFFFFF;stroke-width:0.5;stroke-miterlimit:10;}
</style>
<g>
	<defs>
		<rect id="SVGID_1_" width="21.9" height="12.5"/>
	</defs>
	<clipPath id="SVGID_2_">
		<use xlink:href="#SVGID_1_"  style="overflow:visible;"/>
	</clipPath>
	<path class="st0" d="M17.2,1.7l-0.6,0.6c2.5,1.4,4,3.3,4.4,4c-0.5,0.7-2.5,3.4-6,4.7c1.3-1.1,2.2-2.8,2.2-4.7
		c0-1.3-0.4-2.5-1.1-3.5l-0.5,0.5c0.5,0.9,0.9,1.9,0.9,2.9c0,3-2.4,5.4-5.4,5.4c-1.1,0-2.1-0.3-2.9-0.9l-1,1
		c1.2,0.4,2.5,0.7,3.9,0.7c4.7,0,8.9-2.8,10.9-6.2C21,4.8,19.2,2.9,17.2,1.7 M5.3,10.2c-2.5-1.4-4-3.3-4.4-4c0.5-0.7,2.5-3.4,6-4.7
		C5.6,2.7,4.7,4.4,4.7,6.3c0,1.3,0.4,2.5,1.1,3.5l0.5-0.5c-0.5-0.9-0.9-1.9-0.9-3c0-3,2.4-5.4,5.4-5.4c1.1,0,2.1,0.3,2.9,0.9l1-1
		C13.7,0.3,12.4,0,11,0C5.1,0,1,4.3,0,6.3c0.9,1.5,2.7,3.3,4.7,4.5L5.3,10.2z"/>
	<path class="st0" d="M0,6.3c2,3.4,6.3,6.2,11,6.2c1.4,0,2.8-0.3,3.9-0.7l-1-1C13,11.3,12,11.6,11,11.6c-3,0-5.4-2.4-5.4-5.4
		c0-1,0.3-2.1,0.9-2.9L5.8,2.8C5.1,3.8,4.7,5,4.7,6.3c0,1.9,0.9,3.6,2.2,4.7c-3.5-1.3-5.5-4-6-4.7c0.4-0.6,1.9-2.6,4.4-4L4.7,1.7
		C2.7,2.9,0.9,4.8,0,6.3 M17.2,10.8c2.1-1.2,3.9-3.1,4.7-4.5C20.9,4.3,16.8,0,11,0C9.5,0,8.2,0.3,7,0.7l1,1C8.9,1.1,9.9,0.8,11,0.8
		c3,0,5.4,2.4,5.4,5.4c0,1.1-0.3,2.1-0.9,3l0.5,0.5c0.7-1,1.1-2.2,1.1-3.5c0-1.9-0.9-3.6-2.2-4.7c3.5,1.3,5.5,4,6,4.7
		c-0.4,0.6-1.9,2.6-4.4,4L17.2,10.8z"/>
	<circle class="st1" cx="10.9" cy="6.2" r="2.2"/>
</g>
</svg>
