<?xml version="1.0" encoding="utf-8"?>
<!-- Generator: Adobe Illustrator 22.0.1, SVG Export Plug-In . SVG Version: 6.00 Build 0)  -->
<svg version="1.1" id="Layer_1" xmlns="http://www.w3.org/2000/svg" xmlns:xlink="http://www.w3.org/1999/xlink" x="0px" y="0px"
	 viewBox="117.2 148.5 213.7 181.3" style="enable-background:new 117.2 148.5 213.7 181.3;" xml:space="preserve">
<style type="text/css">
	.st0{fill:#EAA700;}
</style>
<path class="st0" d="M326.3,310.9c-7.1-11.5-86.1-145.2-92.2-155.1c-3.2-5.2-6.7-7.6-10-7.3v0c0,0,0,0-0.1,0c0,0,0,0-0.1,0v0
	c-3.3-0.2-6.7,2.1-10,7.3c-6.1,9.8-85.1,143.6-92.2,155.1c-7.1,11.5-6.9,18.5,7.7,18.5c21.3,0.1,58.1,0.3,94.5,0.4c0,0,0,0,0.1,0
	c0,0,0,0,0.1,0c36.4-0.1,73.2-0.3,94.5-0.4C333.1,329.5,333.4,322.5,326.3,310.9z M233.9,299.4c-2.8,2.8-6.1,4.2-9.9,4.2
	c-3.8,0-7-1.3-9.6-3.8c-2.9-2.8-4.3-6.2-4.3-10.2c0-3.8,1.3-6.9,3.8-9.5c2.8-3,5.9-4.4,10.1-4.4c3.8,0,7.4,1.3,10.1,4.1
	c2.7,2.8,4,6,4,9.7C238.1,293.3,236.7,296.6,233.9,299.4z M237,248.5c-1.5,5.1-3.6,9.6-6.1,13.6c-2.9,4.5-5,6.7-6.7,6.7
	c-1.7,0-4.4-2.9-7.6-8.6c-2.3-4.2-4.2-8.8-5.5-13.6c-1.4-4.8-2-9.3-2-13.3c0-4.9,1.1-9,3.3-12.4c2.7-4.1,6.7-6.2,11.8-6.2
	c3.8,0,7.1,1.4,9.8,4.1c3.6,3.6,5.4,8.8,5.4,15.4C239.3,238.7,238.5,243.4,237,248.5z"/>
</svg>
