<?xml version="1.0" encoding="utf-8"?>
<!-- Generator: Adobe Illustrator 22.0.1, SVG Export Plug-In . SVG Version: 6.00 Build 0)  -->
<svg version="1.1" id="Layer_1" xmlns="http://www.w3.org/2000/svg" xmlns:xlink="http://www.w3.org/1999/xlink" x="0px" y="0px"
	 viewBox="35.2 611.5 16.8 14.3" style="enable-background:new 35.2 611.5 16.8 14.3;" xml:space="preserve">
<style type="text/css">
	.st0{fill:#EC8E14;}
</style>
<path class="st0" d="M51.6,624.3c-0.6-0.9-6.8-11.4-7.3-12.2c-0.3-0.4-0.5-0.6-0.8-0.6v0c0,0,0,0,0,0c0,0,0,0,0,0v0
	c-0.3,0-0.5,0.2-0.8,0.6c-0.5,0.8-6.7,11.3-7.3,12.2c-0.6,0.9-0.5,1.5,0.6,1.5c1.7,0,4.6,0,7.4,0c0,0,0,0,0,0c0,0,0,0,0,0
	c2.9,0,5.8,0,7.4,0C52.2,625.8,52.2,625.2,51.6,624.3z M44.4,623.4c-0.2,0.2-0.5,0.3-0.8,0.3c-0.3,0-0.5-0.1-0.8-0.3
	c-0.2-0.2-0.3-0.5-0.3-0.8c0-0.3,0.1-0.5,0.3-0.7c0.2-0.2,0.5-0.3,0.8-0.3c0.3,0,0.6,0.1,0.8,0.3c0.2,0.2,0.3,0.5,0.3,0.8
	C44.7,622.9,44.6,623.2,44.4,623.4z M44.6,619.4c-0.1,0.4-0.3,0.8-0.5,1.1c-0.2,0.4-0.4,0.5-0.5,0.5c-0.1,0-0.3-0.2-0.6-0.7
	c-0.2-0.3-0.3-0.7-0.4-1.1c-0.1-0.4-0.2-0.7-0.2-1c0-0.4,0.1-0.7,0.3-1c0.2-0.3,0.5-0.5,0.9-0.5c0.3,0,0.6,0.1,0.8,0.3
	c0.3,0.3,0.4,0.7,0.4,1.2C44.8,618.6,44.7,619,44.6,619.4z"/>
</svg>
