<?xml version="1.0" encoding="utf-8"?>
<!-- Generator: Adobe Illustrator 22.1.0, SVG Export Plug-In . SVG Version: 6.00 Build 0)  -->
<svg version="1.1" id="Layer_1" xmlns="http://www.w3.org/2000/svg" xmlns:xlink="http://www.w3.org/1999/xlink" x="0px" y="0px"
	 viewBox="0 0 44 44" style="enable-background:new 0 0 44 44;" xml:space="preserve">
<style type="text/css">
	.st0{fill-rule:evenodd;clip-rule:evenodd;fill:#171D27;stroke:#9CA7B6;stroke-width:2;stroke-miterlimit:10;}
	.st1{fill:#9CA7B6;}
</style>
<path class="st0" d="M22,1c11.6,0,21,9.4,21,21s-9.4,21-21,21C10.4,43,1,33.6,1,22S10.4,1,22,1z"/>
<path class="st1" d="M22.8,15.3H16l3.3-3.3c0.2-0.2,0.2-0.4,0.2-0.6c0-0.2-0.1-0.4-0.2-0.6c-0.3-0.3-0.9-0.3-1.2,0l-4.7,4.7
	c-0.3,0.3-0.3,0.9,0,1.2l4.7,4.7c0.3,0.3,0.8,0.3,1.2,0c0.2-0.2,0.2-0.4,0.2-0.6c0-0.2-0.1-0.4-0.2-0.6L16,16.9h6.9
	c3.5,0,6.4,2.9,6.4,6.4c0,3.5-2.9,6.4-6.4,6.4h-5.3c-0.5,0-0.8,0.4-0.8,0.8s0.4,0.8,0.8,0.8h5.3c4.5,0,8.1-3.6,8.1-8.1
	S27.3,15.3,22.8,15.3z"/>
</svg>
