<?xml version="1.0" encoding="utf-8"?>
<!-- Generator: Adobe Illustrator 21.1.0, SVG Export Plug-In . SVG Version: 6.00 Build 0)  -->
<svg version="1.1" id="Layer_1" xmlns="http://www.w3.org/2000/svg" xmlns:xlink="http://www.w3.org/1999/xlink" x="0px" y="0px"
	 viewBox="0 0 43 43" style="enable-background:new 0 0 43 43;" xml:space="preserve">
<style type="text/css">
	.st0{fill:#181D27;stroke:#E366F6;stroke-miterlimit:10;}
	.st1{fill:#E366F6;}
</style>
<path class="st0" d="M21.5,0.5c11.6,0,21,9.4,21,21s-9.4,21-21,21s-21-9.4-21-21S9.9,0.5,21.5,0.5z"/>
<g>
	<path class="st1" d="M31.3,22.2c-0.3,0-0.6,0.3-0.6,0.6c0,4.9-4,8.9-8.9,8.9c-3.3,0-6.2-1.7-7.7-4.5h3.6c0.3,0,0.6-0.3,0.6-0.7
		s-0.3-0.7-0.6-0.7H12v5.7c0,0.3,0.3,0.7,0.7,0.7s0.6-0.3,0.6-0.7v-3c1.8,2.8,5.1,4.5,8.4,4.5C27.5,33,32,28.5,32,22.8
		C32,22.6,32,22.2,31.3,22.2z"/>
	<path class="st1" d="M13,20.7c0-4.9,4-8.9,8.9-8.9c3.3,0,6.2,1.7,7.7,4.5H26c-0.3,0-0.7,0.3-0.7,0.6s0.3,0.6,0.7,0.6h5.7V12
		c0-0.3-0.3-0.6-0.7-0.6s-0.7,0.3-0.7,0.6v3c-1.8-2.8-5.1-4.5-8.4-4.5c-5.7,0-10.3,4.6-10.3,10.3c0,0.3,0.3,0.6,0.6,0.6
		C13,21.4,13,20.9,13,20.7z"/>
</g>
</svg>
