<?xml version="1.0" encoding="utf-8"?>
<!-- Generator: Adobe Illustrator 21.1.0, SVG Export Plug-In . SVG Version: 6.00 Build 0)  -->
<svg version="1.1" id="Layer_1" xmlns="http://www.w3.org/2000/svg" xmlns:xlink="http://www.w3.org/1999/xlink" x="0px" y="0px"
	 viewBox="0 0 43 43" style="enable-background:new 0 0 43 43;" xml:space="preserve">
<style type="text/css">
	.st0{fill-rule:evenodd;clip-rule:evenodd;fill:#181D27;stroke:#FC7D29;stroke-miterlimit:10;}
	.st1{fill:#FC7D29;}
</style>
<path class="st0" d="M21.5,0.5c11.6,0,21,9.4,21,21s-9.4,21-21,21c-11.6,0-21-9.4-21-21S9.9,0.5,21.5,0.5z"/>
<path class="st1" d="M31.4,21.8c-0.7-0.7-1.7-0.8-2.8-0.3l-1.5,0.7v-7c0-1.1-0.9-2.1-2.1-2.1c-0.3,0-0.6,0.1-0.8,0.2
	c-0.1-1.1-1-1.9-2.1-1.9c-1,0-1.8,0.7-2,1.6c-0.3-0.1-0.6-0.2-0.9-0.2c-1.1,0-2.1,0.9-2.1,2.1V15c-0.3-0.1-0.5-0.2-0.8-0.2
	c-1.1,0-2.1,0.9-2.1,2.1v7.2c0,4.2,3.4,7.5,7.5,7.5c2,0,3.9-0.8,5.3-2.2c0,0,4.4-4.7,4.4-4.7C32.2,23.9,32.2,22.6,31.4,21.8z
	 M30.5,23.8l-4.4,4.7c-1.2,1.2-2.8,1.8-4.4,1.8c-3.5,0-6.3-2.8-6.3-6.3v-7.2c0-0.5,0.4-0.8,0.8-0.8c0.5,0,0.8,0.4,0.8,0.8v5.2
	c0,0.3,0.3,0.6,0.6,0.6s0.6-0.3,0.6-0.6v-7.3c0-0.5,0.4-0.8,0.8-0.8s0.8,0.4,0.8,0.8v7.3c0,0.3,0.3,0.6,0.6,0.6
	c0.3,0,0.6-0.3,0.6-0.6v-8.7c0-0.5,0.4-0.8,0.8-0.8c0.5,0,0.8,0.4,0.8,0.8v8.7c0,0.3,0.3,0.6,0.6,0.6s0.6-0.3,0.6-0.6v-6.9
	c0-0.5,0.4-0.8,0.8-0.8s0.8,0.4,0.8,0.8v8c0,0,0,0,0,0v1.2c0,0.3,0.3,0.6,0.6,0.6c0.3,0,0.6-0.3,0.6-0.6v-0.9l2-1
	c0.4-0.2,0.9-0.3,1.4,0.1C30.8,23,30.8,23.5,30.5,23.8z"/>
</svg>
