<?xml version="1.0" encoding="utf-8"?>
<!-- Generator: Adobe Illustrator 22.1.0, SVG Export Plug-In . SVG Version: 6.00 Build 0)  -->
<svg version="1.1" id="Layer_1" xmlns="http://www.w3.org/2000/svg" xmlns:xlink="http://www.w3.org/1999/xlink" x="0px" y="0px"
	 viewBox="0 0 23 23" style="enable-background:new 0 0 23 23;" xml:space="preserve">
<style type="text/css">
	.st0{fill-rule:evenodd;clip-rule:evenodd;fill:#7A8088;}
	.st1{fill:#FFFFFF;}
</style>
<path class="st0" d="M11.5,0C17.9,0,23,5.1,23,11.5C23,17.9,17.9,23,11.5,23S0,17.9,0,11.5C0,5.1,5.1,0,11.5,0z"/>
<g>
	<path class="st1" d="M12.5,8.2H8l2.3-2.3c0.1-0.1,0.1-0.3,0-0.4c-0.1-0.1-0.3-0.1-0.4,0L7.2,8.3c-0.1,0.1-0.1,0.3,0,0.4l2.7,2.7
		c0.1,0.1,0.1,0.1,0.2,0.1s0.1,0,0.2-0.1c0.1-0.1,0.1-0.3,0-0.4L8,8.8h4.5c2.2,0,3.9,1.8,3.9,3.9s-1.8,3.9-3.9,3.9H9.4
		c-0.2,0-0.3,0.1-0.3,0.3c0,0.2,0.1,0.3,0.3,0.3h3.1c2.5,0,4.5-2,4.5-4.5S15,8.2,12.5,8.2z"/>
	<path class="st1" d="M12.5,17.4H9.4c-0.3,0-0.5-0.2-0.5-0.5s0.2-0.5,0.5-0.5h3.1c2.1,0,3.7-1.7,3.7-3.7c0-2.1-1.7-3.7-3.7-3.7h-4
		l1.9,1.9c0.1,0.1,0.1,0.2,0.1,0.3c0,0.1-0.1,0.3-0.1,0.3c-0.2,0.2-0.5,0.2-0.7,0L7,8.8C6.8,8.6,6.8,8.3,7,8.1l2.7-2.7
		c0.2-0.2,0.5-0.2,0.7,0c0.1,0.1,0.1,0.2,0.1,0.3c0,0.1-0.1,0.3-0.1,0.3L8.5,8h4c2.6,0,4.7,2.1,4.7,4.7S15.1,17.4,12.5,17.4z
		 M9.4,16.9C9.4,16.9,9.4,16.9,9.4,16.9c-0.1,0.1,0,0.1,0,0.1h3.1c2.4,0,4.3-1.9,4.3-4.3s-1.9-4.3-4.3-4.3h-5l2.6-2.6c0,0,0,0,0,0
		c0,0,0,0,0,0c0,0-0.1,0-0.1,0L7.3,8.4c0,0,0,0.1,0,0.1l2.7,2.7c0,0,0.1,0,0.1,0c0,0,0,0,0,0c0,0,0,0,0,0L7.5,8.6h5
		c2.3,0,4.2,1.9,4.2,4.2c0,2.3-1.9,4.2-4.2,4.2H9.4z"/>
</g>
</svg>
