<?xml version="1.0" encoding="utf-8"?>
<!-- Generator: Adobe Illustrator 21.1.0, SVG Export Plug-In . SVG Version: 6.00 Build 0)  -->
<svg version="1.1" id="Layer_1" xmlns="http://www.w3.org/2000/svg" xmlns:xlink="http://www.w3.org/1999/xlink" x="0px" y="0px"
	 viewBox="0 0 43 43" style="enable-background:new 0 0 43 43;" xml:space="preserve">
<style type="text/css">
	.st0{fill-rule:evenodd;clip-rule:evenodd;fill:#181D27;stroke:#FFFFFF;stroke-miterlimit:10;}
	.st1{fill-rule:evenodd;clip-rule:evenodd;fill:#FFFFFF;}
	.st2{fill-rule:evenodd;clip-rule:evenodd;fill:none;stroke:#FFFFFF;stroke-miterlimit:10;}
</style>
<path class="st0" d="M21.5,0.5c11.6,0,21,9.4,21,21s-9.4,21-21,21c-11.6,0-21-9.4-21-21S9.9,0.5,21.5,0.5z"/>
<path class="st1" d="M22.3,22.3c-0.3-0.5-0.9-0.7-1.4-0.4L17,24.4c-0.5,0.3-0.7,1-0.4,1.5c0.3,0.5,0.9,0.7,1.4,0.4l3.8-2.5
	C22.4,23.5,22.6,22.8,22.3,22.3z"/>
<path class="st1" d="M21.5,15.3c-0.6,0-1,0.5-1,1.1v6.2c0,0.6,0.5,1.1,1,1.1s1-0.5,1-1.1v-6.2C22.5,15.8,22.1,15.3,21.5,15.3z"/>
<path class="st2" d="M21.5,8.5c7.2,0,13,5.8,13,13c0,7.2-5.8,13-13,13c-7.2,0-13-5.8-13-13C8.5,14.3,14.3,8.5,21.5,8.5z"/>
</svg>
