<?xml version="1.0" encoding="utf-8"?>
<!-- Generator: Adobe Illustrator 21.1.0, SVG Export Plug-In . SVG Version: 6.00 Build 0)  -->
<svg version="1.1" id="Layer_1" xmlns="http://www.w3.org/2000/svg" xmlns:xlink="http://www.w3.org/1999/xlink" x="0px" y="0px"
	 viewBox="0 0 43 43" style="enable-background:new 0 0 43 43;" xml:space="preserve">
<style type="text/css">
	.st0{fill:#181D27;stroke:#FF0000;stroke-miterlimit:10;}
	.st1{fill:#FF0000;}
</style>
<path class="st0" d="M21.5,0.5c11.6,0,21,9.4,21,21s-9.4,21-21,21s-21-9.4-21-21S9.9,0.5,21.5,0.5z"/>
<g>
	<path class="st1" d="M31.7,27.9c-0.7-1.3-8.2-14.6-8.8-15.6c-0.3-0.5-0.8-0.9-1.4-0.9c0,0,0,0,0,0c-0.6,0-1.1,0.3-1.4,0.8
		c-0.6,0.9-5.3,9.4-7.7,13.5c-0.6,1.1-1.1,1.9-1.2,2.1c-0.3,0.5-0.2,1.1,0.1,1.6c0.3,0.5,0.8,0.8,1.4,0.8h17.6
		c0.6,0,1.2-0.4,1.5-0.9C32.1,28.9,32,28.3,31.7,27.9z M30.9,29c-0.1,0.2-0.3,0.3-0.5,0.3H12.8c-0.2,0-0.4-0.1-0.5-0.3
		c-0.1-0.1-0.2-0.4,0-0.6c0.1-0.2,0.5-0.9,1.2-2.1c2.1-3.8,7.1-12.6,7.7-13.5c0.1-0.3,0.4-0.3,0.5-0.3s0.4,0,0.5,0.4
		c0.6,0.9,8.4,14.7,8.8,15.6l0.1,0.1C31.1,28.7,31,28.9,30.9,29z"/>
	<path class="st1" d="M21.6,24.8c-0.6,0-1,0.4-1,1c0,0.6,0.4,1,1,1c0.6,0,1-0.4,1-1C22.6,25.2,22.2,24.8,21.6,24.8z"/>
	<path class="st1" d="M21.6,15.8c-0.5,0-1,0.5-1,1.1v5.8c0,0.6,0.4,1.1,1,1.1c0.5,0,1-0.5,1-1.1v-5.8C22.6,16.3,22.1,15.8,21.6,15.8
		z"/>
</g>
</svg>
