<?xml version="1.0" encoding="utf-8"?>
<!-- Generator: Adobe Illustrator 22.1.0, SVG Export Plug-In . SVG Version: 6.00 Build 0)  -->
<svg version="1.1" id="forms" xmlns="http://www.w3.org/2000/svg" xmlns:xlink="http://www.w3.org/1999/xlink" x="0px" y="0px"
	 viewBox="0 0 126 133.2" style="enable-background:new 0 0 126 133.2;" xml:space="preserve">
<style type="text/css">
	.st0{clip-path:url(#SVGID_2_);}
	.st1{fill:#009444;}
	.st2{fill:#2575B6;}
	.st3{fill:none;}
	.st4{fill:url(#SVGID_3_);}
	.st5{fill:url(#SVGID_6_);}
	.st6{fill:url(#SVGID_7_);}
	.st7{fill:url(#SVGID_8_);}
	.st8{fill:url(#SVGID_9_);}
	.st9{fill:url(#SVGID_10_);}
	.st10{fill:url(#SVGID_11_);}
	.st11{fill:url(#SVGID_12_);}
	.st12{fill:url(#SVGID_13_);}
	.st13{fill:url(#SVGID_14_);}
	.st14{fill:url(#SVGID_15_);}
</style>
<g>
	<g>
		<defs>
			<circle id="SVGID_1_" cx="66.7" cy="74.3" r="27.8"/>
		</defs>
		<clipPath id="SVGID_2_">
			<use xlink:href="#SVGID_1_"  style="overflow:visible;"/>
		</clipPath>
		<g class="st0">
			<path class="st1" d="M109,17c-0.6-0.7-1.3-1-2.2-1.1c-0.2,0-0.3-0.1-0.5-0.1h-1.8c-0.8,0-1.5,0.2-2.1,0.7
				c-0.2,0.2-0.4,0.3-0.5,0.5c-0.7,0.7-1,1.5-1,2.5v6.1c0,1,0.3,1.9,1.1,2.6c0.7,0.7,1.6,1.1,2.6,1.1h2.1c0.1,0,0.2,0,0.2,0
				c0.7-0.1,1.3-0.4,1.9-0.8c0.1-0.1,0.1-0.1,0.2-0.2c0,0,0,0,0.1,0c0.8-0.7,1.2-1.7,1.2-2.7v-6.1C110.1,18.6,109.7,17.7,109,17z
				 M107.8,25.6c0,0.3-0.1,0.6-0.4,0.9c-0.1,0.1-0.2,0.1-0.3,0.2c-0.2,0.1-0.5,0.2-0.7,0.3h-2c-0.4,0-0.7-0.1-1-0.4s-0.4-0.6-0.4-1
				v-6.1c0-0.4,0.1-0.6,0.4-0.9l0.1-0.1c0-0.1,0.1-0.1,0.1-0.1c0.3-0.2,0.5-0.3,0.8-0.3h1.7c0.1,0,0.2,0.1,0.3,0.1
				c0.4,0,0.6,0.2,0.7,0.3c0,0.1,0.1,0.1,0.1,0.2c0.4,0.3,0.4,0.6,0.4,0.8v6.1H107.8z"/>
			<path class="st1" d="M77.6,121.9c0.6,0,1.2-0.5,1.2-1.2v-11.1c0-0.5-0.3-0.9-0.7-1.1c-0.4-0.2-0.9-0.1-1.3,0.2l-2.9,2.9
				c-0.5,0.5-0.5,1.2,0,1.6c0.5,0.5,1.2,0.5,1.6,0l0.9-0.9v8.4C76.5,121.4,77,121.9,77.6,121.9z"/>
			<path class="st1" d="M61.4,20.8l0.9-0.9v8.3c0,0.6,0.5,1.2,1.2,1.2c0.7,0,1.2-0.5,1.2-1.2V17.1c0-0.5-0.3-0.9-0.7-1.1
				c-0.4-0.2-0.9-0.1-1.3,0.3l-2.9,3c-0.4,0.5-0.4,1.2,0,1.6C60.3,21.3,61,21.3,61.4,20.8z"/>
			<path class="st1" d="M63.5,121.9c0.6,0,1.2-0.5,1.2-1.2v-11.1c0-0.5-0.3-0.9-0.7-1.1c-0.4-0.2-0.9-0.1-1.3,0.3l-2.9,2.9
				c-0.4,0.5-0.4,1.2,0,1.6c0.5,0.4,1.2,0.4,1.6,0l0.9-0.9v8.3C62.3,121.4,62.8,121.9,63.5,121.9z"/>
			<path class="st1" d="M49.3,47.8c0.6,0,1.2-0.5,1.2-1.2V35.5c0-0.5-0.3-0.9-0.7-1.1c-0.4-0.2-0.9-0.1-1.3,0.3l-2.9,3
				c-0.4,0.5-0.4,1.2,0,1.6c0.5,0.4,1.2,0.4,1.6,0l0.9-1v8.4C48.2,47.3,48.7,47.8,49.3,47.8z"/>
			<path class="st1" d="M107.1,91.1c0-0.5-0.3-0.9-0.7-1.1c-0.4-0.2-0.9-0.1-1.3,0.3l-2.9,2.9c-0.4,0.5-0.4,1.2,0,1.6
				c0.5,0.4,1.2,0.4,1.6,0l0.9-0.9v8.3c0,0.6,0.5,1.2,1.2,1.2s1.2-0.5,1.2-1.2L107.1,91.1z"/>
			<path class="st1" d="M89.8,20.8l0.9-0.9v8.3c0,0.6,0.5,1.2,1.2,1.2s1.2-0.5,1.2-1.2V17.1c0-0.5-0.3-0.9-0.7-1.1
				c-0.4-0.2-0.9-0.1-1.3,0.3l-2.9,3c-0.4,0.5-0.4,1.2,0,1.6C88.6,21.3,89.3,21.3,89.8,20.8z"/>
			<path class="st1" d="M106,121.9c0.6,0,1.2-0.5,1.2-1.2v-11.1c0-0.5-0.3-0.9-0.7-1.1c-0.4-0.2-0.9-0.1-1.3,0.3l-2.9,2.9
				c-0.4,0.5-0.4,1.2,0,1.6c0.5,0.4,1.2,0.4,1.6,0l0.9-0.9v8.3C104.8,121.4,105.4,121.9,106,121.9z"/>
			<g>
				<path class="st1" d="M80.7,17c-0.7-0.8-1.6-1.2-2.7-1.2h-1.8c-0.8,0-1.5,0.2-2.1,0.7c-0.2,0.2-0.4,0.4-0.5,0.6
					c-0.7,0.7-1,1.5-1,2.4v6.1c0,1,0.4,1.9,1.1,2.6c0.7,0.8,1.6,1.2,2.6,1.2h1.8c0.9,0,1.8-0.3,2.5-1l0.2-0.2c0.7-0.7,1-1.6,1-2.6
					v-6.1C81.7,18.6,81.3,17.7,80.7,17z M79.4,25.6c0,0.4-0.1,0.7-0.4,1l-0.1,0.1c-0.3,0.2-0.6,0.3-1,0.3h-1.8c-0.4,0-0.7-0.1-1-0.4
					s-0.4-0.6-0.4-1v-6.1c0-0.3,0.1-0.6,0.4-0.9c0.1-0.1,0.1-0.1,0.2-0.3c0.3-0.2,0.5-0.3,0.8-0.3h1.8c0.4,0,0.7,0.1,1.1,0.5
					c0.3,0.3,0.4,0.5,0.4,0.9V25.6z"/>
			</g>
			<path class="st1" d="M106,66.4c0.6,0,1.2-0.5,1.2-1.2V54c0-0.5-0.3-0.9-0.7-1.1c-0.4-0.2-0.9-0.1-1.3,0.3l-2.9,3
				c-0.4,0.5-0.4,1.2,0,1.6c0.5,0.4,1.2,0.4,1.6,0l0.9-0.9v8.4C104.8,65.9,105.4,66.4,106,66.4z"/>
			<g>
				<path class="st2" d="M93.6,99.6c0,0.4-0.1,0.7-0.3,0.8c-0.1,0.1-0.3,0.2-0.4,0.3c-0.1,0.1-0.3,0.3-0.8,0.3h-1.8
					c-0.4,0-0.7-0.1-0.9-0.4l-0.1-0.1c-0.3-0.2-0.4-0.5-0.4-0.9v-6.1c0-0.2,0-0.5,0.4-0.8c0.1-0.1,0.2-0.2,0.2-0.3
					c0.2-0.1,0.5-0.2,0.8-0.2h1.8c0.4,0,0.8,0.1,1.1,0.4c0.3,0.3,0.4,0.5,0.4,0.9L93.6,99.6z"/>
			</g>
			<path class="st1" d="M77.9,34.3h-1.8c-0.7,0-1.4,0.2-2.1,0.6c-0.3,0.2-0.5,0.4-0.7,0.7c-0.6,0.7-1,1.5-1,2.4v6
				c0,1.1,0.4,2,1.1,2.6c0.7,0.7,1.6,1.1,2.6,1.1h1.8c0.9,0,1.7-0.3,2.4-0.8c0.2-0.1,0.3-0.2,0.4-0.4c0.6-0.7,1-1.5,1-2.6v-6
				c0-1-0.4-1.8-1-2.5C80,34.8,79,34.3,77.9,34.3z M79.4,44.1c0,0.6-0.2,0.8-0.4,1l-0.1,0.1l0,0c-0.3,0.2-0.6,0.3-1,0.3h-1.8
				c-0.4,0-0.7-0.1-0.9-0.4L75.1,45c-0.2-0.2-0.4-0.4-0.4-1v-6c0-0.3,0.1-0.6,0.4-0.9c0.1-0.1,0.2-0.2,0.2-0.3
				c0.2-0.2,0.5-0.2,0.8-0.2h1.8c0.4,0,0.7,0.1,1.1,0.5c0.3,0.3,0.4,0.5,0.4,0.9V44.1z"/>
			<g>
				<path class="st1" d="M94.9,35.5c-0.7-0.8-1.7-1.2-2.7-1.2h-1.8c-0.8,0-1.5,0.2-2.1,0.6c-0.3,0.2-0.5,0.4-0.6,0.6
					c-0.7,0.7-1,1.5-1,2.4v6c0,1.1,0.4,2,1.2,2.7c0.7,0.7,1.6,1.1,2.6,1.1h1.8c1,0,1.8-0.3,2.4-0.9c0.1,0,0.2-0.1,0.3-0.2
					c0.7-0.7,1.1-1.6,1.1-2.7v-6C95.9,37.1,95.5,36.2,94.9,35.5z M93.6,44.1c0,0.5-0.1,0.7-0.3,0.9c-0.1,0.1-0.3,0.2-0.4,0.3
					s-0.3,0.3-0.8,0.3h-1.8c-0.4,0-0.7-0.1-0.9-0.4l-0.1-0.1c-0.3-0.2-0.4-0.5-0.4-0.9v-6c0-0.2,0-0.5,0.4-0.8
					c0.1-0.1,0.2-0.2,0.3-0.3c0.2-0.2,0.5-0.2,0.8-0.2h1.8c0.4,0,0.7,0.1,1.1,0.5c0.3,0.3,0.4,0.5,0.4,0.9L93.6,44.1L93.6,44.1z"/>
				<g>
					<path class="st3" d="M108,73.5h-1.8c-0.3,0-0.5,0.1-0.8,0.2c-0.1,0.1-0.2,0.2-0.3,0.3c-0.4,0.3-0.4,0.6-0.4,0.9v6
						c0,0.4,0.1,0.7,0.4,0.9l0.1,0.1c0.3,0.3,0.6,0.4,0.9,0.4h1.8c0.5,0,0.7-0.2,0.8-0.3c0.1-0.1,0.2-0.2,0.4-0.3
						c0.1-0.2,0.3-0.4,0.3-0.9v-6c0-0.4-0.1-0.6-0.4-0.9C108.8,73.6,108.4,73.5,108,73.5z"/>
					<path class="st1" d="M108,71.2h-1.8c-0.8,0-1.5,0.2-2.1,0.6c-0.3,0.2-0.5,0.4-0.6,0.6c-0.7,0.7-1,1.5-1,2.4v6
						c0,1.1,0.4,2,1.2,2.7c0.7,0.7,1.6,1.1,2.6,1.1h1.8c1,0,1.8-0.3,2.4-0.9c0.1,0,0.2-0.1,0.3-0.2c0.7-0.7,1.1-1.6,1.1-2.7v-6
						c0-1-0.4-1.8-1-2.5C110,71.6,109.1,71.2,108,71.2z M109.5,80.9c0,0.5-0.1,0.7-0.3,0.9c-0.1,0.1-0.3,0.2-0.4,0.3
						c-0.1,0.1-0.3,0.3-0.8,0.3h-1.8c-0.4,0-0.7-0.1-0.9-0.4l-0.1-0.1c-0.3-0.2-0.4-0.5-0.4-0.9v-6c0-0.2,0.1-0.5,0.4-0.9
						c0.1-0.1,0.2-0.2,0.3-0.3c0.2-0.2,0.5-0.2,0.8-0.2h1.8c0.4,0,0.7,0.1,1.1,0.5c0.3,0.3,0.4,0.6,0.4,0.9L109.5,80.9L109.5,80.9z"
						/>
				</g>
			</g>
			<g>
				<path class="st1" d="M24,91c-0.6-0.7-1.5-1.1-2.5-1.1h-2.1c-0.8,0-1.4,0.2-2,0.6c-0.3,0.2-0.6,0.4-0.7,0.7c-0.7,0.7-1,1.5-1,2.4
					v6.1c0,1.1,0.4,2,1.1,2.6c0.7,0.8,1.6,1.1,2.6,1.1h1.8h0.3c0.8,0,1.5-0.3,2-0.8c0.1,0,0.1-0.1,0.2-0.1c0.1,0,0.1-0.1,0.1-0.1
					c0.7-0.7,1.1-1.6,1.1-2.6v-6.1C25.1,92.6,24.7,91.7,24,91z M22.8,99.6c0,0.5-0.2,0.8-0.3,0.9s-0.2,0.2-0.3,0.3
					c-0.1,0.1-0.2,0.2-0.5,0.2h-2.1c-0.4,0-0.7-0.1-1-0.5c-0.3-0.2-0.4-0.5-0.4-0.9v-6.1c0-0.3,0.1-0.6,0.4-0.9
					c0.1-0.1,0.1-0.1,0.2-0.2c0,0,0,0,0.1,0c0.2-0.1,0.4-0.2,0.7-0.2h2c0.3,0,0.6,0.1,0.9,0.4c0.3,0.3,0.4,0.5,0.4,0.9v6.1H22.8z"/>
			</g>
			<path class="st1" d="M21,121.9c0.6,0,1.2-0.5,1.2-1.2v-11.1c0-0.5-0.3-0.9-0.7-1.1s-0.9-0.1-1.3,0.3l-2.9,2.9
				c-0.4,0.5-0.4,1.2,0,1.6c0.5,0.4,1.2,0.4,1.6,0l0.9-0.9v8.3C19.8,121.4,20.3,121.9,21,121.9z"/>
			<path class="st1" d="M4.7,20.8l0.9-1v8.3c0,0.6,0.5,1.2,1.2,1.2S8,28.8,8,28.1v-11c0-0.5-0.3-0.9-0.7-1.1
				c-0.4-0.2-0.9-0.1-1.3,0.3l-2.9,3c-0.4,0.5-0.4,1.2,0,1.6S4.3,21.3,4.7,20.8z"/>
			<path class="st1" d="M21,84.8c0.6,0,1.2-0.5,1.2-1.2v-11c0-0.5-0.3-0.9-0.7-1.1s-0.9-0.1-1.3,0.3l-2.9,2.9
				c-0.4,0.5-0.4,1.2,0,1.6c0.5,0.4,1.2,0.4,1.6,0l0.9-0.9v8.3C19.8,84.3,20.3,84.8,21,84.8z"/>
			<path class="st1" d="M22.1,54c0-0.5-0.3-0.9-0.7-1.1c-0.4-0.2-0.9-0.1-1.3,0.3l-2.9,3c-0.4,0.5-0.4,1.2,0,1.6
				c0.5,0.4,1.2,0.4,1.6,0l0.9-0.9v8.4c0,0.6,0.5,1.2,1.2,1.2c0.6,0,1.2-0.5,1.2-1.2L22.1,54z"/>
			<g>
				<path class="st1" d="M9.9,54c-0.7-0.8-1.6-1.2-2.7-1.2H5.4c-0.7,0-1.4,0.2-2.1,0.6c-0.3,0.2-0.5,0.4-0.7,0.7
					c-0.6,0.7-1,1.5-1,2.4v6.1c0,1,0.4,1.9,1.1,2.6c0.7,0.8,1.6,1.2,2.6,1.2h1.8c1,0,1.8-0.3,2.5-1l0.1-0.1c0.7-0.7,1.1-1.6,1.1-2.7
					v-6.1C10.9,55.5,10.5,54.7,9.9,54z M8.6,62.6c0,0.4-0.1,0.7-0.5,1v0.1c-0.3,0.3-0.6,0.4-0.9,0.4H5.4c-0.4,0-0.6-0.1-0.9-0.4
					l-0.1-0.1C4.1,63.3,4,63,4,62.6v-6.1c0-0.3,0.1-0.6,0.4-0.9c0.1-0.1,0.2-0.2,0.2-0.3c0.2-0.2,0.5-0.2,0.8-0.2h1.7
					c0.4,0,0.7,0.1,1.1,0.5c0.3,0.3,0.4,0.5,0.4,0.9V62.6z"/>
			</g>
			<g>
				<path class="st1" d="M9.5,109.5c-0.7-0.8-1.6-1.2-2.7-1.2H5c-0.7,0-1.4,0.2-2.1,0.6c-0.3,0.2-0.5,0.4-0.7,0.7
					c-0.6,0.7-1,1.5-1,2.4v6.1c0,1,0.4,1.9,1.1,2.6c0.7,0.8,1.6,1.2,2.6,1.2h1.8c1,0,1.8-0.3,2.5-1l0.1-0.1c0.7-0.7,1.1-1.6,1.1-2.7
					V112C10.5,111,10.1,110.1,9.5,109.5z M8.2,118.1c0,0.4-0.1,0.7-0.5,1l-0.1,0.1c-0.3,0.3-0.6,0.4-0.9,0.4H4.9
					c-0.4,0-0.6-0.1-0.9-0.4l-0.1-0.1c-0.3-0.3-0.4-0.6-0.4-1V112c0-0.3,0.1-0.6,0.4-0.9c0.1-0.1,0.2-0.2,0.2-0.3
					c0.2-0.2,0.5-0.2,0.8-0.2h1.8c0.4,0,0.7,0.1,1.1,0.5c0.3,0.3,0.4,0.5,0.4,0.9V118.1z"/>
			</g>
			<g>
				<path class="st2" d="M38.2,72.4c-0.7-0.8-1.6-1.2-2.7-1.2h-1.8c-0.7,0-1.4,0.2-2.1,0.6c-0.3,0.2-0.5,0.4-0.7,0.7
					c-0.6,0.7-1,1.5-1,2.4V81c0,1,0.4,1.9,1.1,2.6c0.7,0.8,1.6,1.2,2.6,1.2h1.8c1,0,1.8-0.3,2.5-1l0.1-0.1c0.7-0.7,1.1-1.6,1.1-2.7
					v-6.1C39.3,73.9,38.9,73,38.2,72.4z M37,80.9c0,0.4-0.1,0.7-0.5,1L36.4,82c-0.3,0.3-0.6,0.4-0.9,0.4h-1.8
					c-0.4,0-0.6-0.1-0.9-0.4l-0.1-0.1c-0.3-0.3-0.4-0.6-0.4-1v-6.1c0-0.3,0.1-0.6,0.4-0.9c0.1-0.1,0.2-0.2,0.2-0.3
					c0.2-0.2,0.5-0.2,0.8-0.2h1.8c0.4,0,0.7,0.1,1.1,0.5c0.3,0.3,0.4,0.5,0.4,0.9V80.9z"/>
			</g>
			<path class="st1" d="M8,72.6c0-0.5-0.3-0.9-0.7-1.1c-0.4-0.2-0.9-0.1-1.3,0.2l-2.9,3c-0.5,0.5-0.5,1.2,0,1.6
				c0.5,0.5,1.2,0.5,1.6,0l0.9-0.9v8.3c0,0.6,0.5,1.2,1.2,1.2S8,84.4,8,83.7L8,72.6z"/>
			<path class="st1" d="M6.8,103.3c0.6,0,1.2-0.5,1.2-1.2v-11c0-0.5-0.3-0.9-0.7-1.1c-0.4-0.2-0.9-0.1-1.3,0.2l-2.9,3
				c-0.5,0.5-0.5,1.2,0,1.6c0.5,0.5,1.2,0.5,1.6,0l0.9-0.9v8.3C5.7,102.8,6.2,103.3,6.8,103.3z"/>
			<g>
				<path class="st1" d="M24.1,35.6c-0.7-0.8-1.6-1.2-2.7-1.2h-1.8c-0.8,0-1.4,0.2-2,0.6c-0.3,0.2-0.5,0.4-0.7,0.7
					c-0.7,0.7-1,1.5-1,2.4v6c0,1.1,0.4,2,1.1,2.6c0.7,0.8,1.6,1.1,2.6,1.1h1.9c0.9,0,1.6-0.3,2.2-0.9c0.1,0,0.1-0.1,0.2-0.1
					c0.1,0,0.1-0.1,0.1-0.1c0.7-0.7,1.1-1.6,1.1-2.7v-6C25.1,37.1,24.7,36.2,24.1,35.6z M22.8,44.1c0,0.6-0.2,0.8-0.3,0.9
					c-0.1,0.1-0.2,0.2-0.3,0.3s-0.3,0.2-0.8,0.2h-1.8c-0.4,0-0.7-0.1-1-0.5c-0.2-0.2-0.4-0.4-0.4-1v-6c0-0.3,0.1-0.6,0.4-0.9
					c0.1-0.1,0.1-0.1,0.2-0.2l0.1-0.1c0.1-0.1,0.3-0.2,0.7-0.2h1.9c0.4,0,0.6,0.1,1,0.5c0.3,0.3,0.4,0.5,0.4,0.9v6.1H22.8z"/>
				<path class="st1" d="M7.5,34.3H5.4c-0.7,0-1.4,0.2-2.1,0.6c-0.3,0.2-0.5,0.4-0.7,0.7c-0.6,0.7-1,1.5-1,2.4v6
					c0,1.1,0.4,2,1.1,2.6c0.7,0.7,1.6,1.1,2.6,1.1h1.8h0.4c0.7-0.1,1.4-0.3,2-0.8c0.1-0.1,0.3-0.2,0.3-0.3c0.7-0.7,1.1-1.5,1.1-2.6
					v-6c0-0.9-0.4-1.8-1.1-2.5C9.2,34.8,8.4,34.4,7.5,34.3z M8.6,44.1c0,0.5-0.2,0.8-0.4,1l-0.1,0.1l0,0c-0.3,0.3-0.5,0.3-0.6,0.3
					H5.4c-0.4,0-0.7-0.1-0.9-0.4L4.4,45C4.2,44.8,4,44.6,4,44.1v-6c0-0.3,0.1-0.6,0.4-0.9c0.1-0.1,0.2-0.2,0.2-0.3
					c0.2-0.2,0.5-0.2,0.8-0.2h2.1c0.2,0,0.4,0.1,0.7,0.4l0.1,0.1c0.3,0.3,0.4,0.5,0.4,0.9v6H8.6z"/>
			</g>
			<path class="st1" d="M33.7,29.4h1.8c1,0,1.8-0.3,2.4-0.9l0.1-0.1c0,0,0,0,0.1,0c0.8-0.7,1.2-1.7,1.2-2.7v-6.1
				c0-1-0.4-1.8-1.2-2.5c-0.7-0.8-1.6-1.2-2.7-1.2h-1.8c-0.8,0-1.5,0.2-2.2,0.7c-0.2,0.2-0.4,0.4-0.5,0.6c-0.7,0.7-1,1.5-1,2.4v6.1
				c0,1,0.4,1.9,1.1,2.6C31.7,29,32.7,29.4,33.7,29.4z M32.3,19.5c0-0.3,0.1-0.6,0.4-0.9c0.1-0.1,0.1-0.1,0.2-0.3
				c0.3-0.2,0.5-0.3,0.9-0.3h1.8c0.4,0,0.7,0.1,0.9,0.4c0,0.1,0.1,0.1,0.1,0.1c0.4,0.3,0.4,0.6,0.4,0.8v6.1c0,0.3-0.1,0.6-0.4,0.9
				c-0.1,0.1-0.2,0.2-0.3,0.3c-0.2,0.2-0.5,0.2-0.8,0.2h-1.8c-0.4,0-0.7-0.1-1-0.4s-0.4-0.6-0.4-1L32.3,19.5z"/>
			<path class="st1" d="M48.7,29.4h1.8c1,0,1.8-0.3,2.4-0.9l0.1-0.1c0,0,0,0,0.1,0c0.8-0.7,1.2-1.7,1.2-2.7v-6.1
				c0-1-0.4-1.8-1.2-2.5c-0.7-0.8-1.6-1.2-2.7-1.2h-1.8c-0.8,0-1.5,0.2-2.2,0.7c-0.2,0.2-0.4,0.4-0.5,0.6c-0.7,0.7-1,1.5-1,2.4v6.1
				c0,1,0.4,1.9,1.1,2.6C46.7,29,47.6,29.4,48.7,29.4z M47.2,19.5c0-0.3,0.1-0.6,0.4-0.9c0.1-0.1,0.1-0.1,0.2-0.3
				c0.3-0.2,0.5-0.3,0.9-0.3h1.8c0.4,0,0.7,0.1,0.9,0.4c0,0.1,0.1,0.1,0.1,0.1c0.4,0.3,0.4,0.6,0.4,0.8v6.1c0,0.3-0.1,0.6-0.4,0.9
				c-0.1,0.1-0.2,0.2-0.3,0.3c-0.2,0.2-0.5,0.2-0.8,0.2h-1.8c-0.4,0-0.7-0.1-1-0.4s-0.4-0.6-0.4-1L47.2,19.5z"/>
			<g>
				<path class="st1" d="M109,35.5c-0.7-0.8-1.6-1.2-2.7-1.2h-1.8c-0.7,0-1.4,0.2-2.1,0.6c-0.3,0.1-0.5,0.4-0.7,0.6
					c-0.6,0.7-1,1.5-1,2.4v6c0,1.1,0.4,2,1.1,2.6c0.7,0.7,1.6,1.1,2.6,1.1h1.8c1,0,1.8-0.3,2.5-1l0.1-0.1c0.8-0.7,1.3-1.6,1.3-2.7
					v-6C110.1,37.1,109.7,36.2,109,35.5z M107.8,44.1c0,0.4-0.1,0.7-0.5,1l-0.1,0.1c-0.2,0.2-0.5,0.3-0.9,0.3h-1.8
					c-0.4,0-0.7-0.1-1-0.5c-0.2-0.1-0.4-0.4-0.4-1v-6c0-0.4,0.1-0.6,0.4-0.9c0.1-0.1,0-0.1,0.1-0.1l0.1-0.1c0.3-0.2,0.5-0.3,0.8-0.3
					h1.8c0.4,0,0.7,0.1,0.9,0.4c0,0.1,0.1,0.1,0.1,0.1c0.4,0.3,0.4,0.6,0.4,0.8L107.8,44.1L107.8,44.1z"/>
			</g>
			<path class="st1" d="M35.2,47.8c0.6,0,1.2-0.5,1.2-1.2V35.5c0-0.5-0.3-0.9-0.7-1.1c-0.4-0.2-0.9-0.1-1.3,0.3l-2.9,3
				c-0.4,0.5-0.4,1.2,0,1.6c0.5,0.4,1.2,0.4,1.6,0l0.9-0.9v8.3C34,47.3,34.5,47.8,35.2,47.8z"/>
			<g>
				<path class="st1" d="M52.4,109.5c-0.7-0.7-1.5-1.1-2.6-1.1h-1.9c-0.7,0-1.4,0.2-2.1,0.6c-0.3,0.2-0.6,0.4-0.7,0.7
					c-0.6,0.7-0.9,1.5-0.9,2.4v6c0,1,0.3,1.9,1,2.6c0.8,0.8,1.7,1.2,2.6,1.2h2c0.9-0.1,1.7-0.4,2.2-1c0.1,0,0.1-0.1,0.2-0.2
					c0.8-0.7,1.1-1.6,1.1-2.7v-6C53.4,111.1,53.1,110.2,52.4,109.5z M51.1,118.1c0,0.4-0.1,0.6-0.3,0.9c-0.2,0.1-0.3,0.2-0.4,0.3
					c-0.2,0.2-0.4,0.3-0.7,0.3h-1.9c-0.2,0-0.6-0.1-1-0.5c-0.3-0.3-0.4-0.6-0.4-1v-6c0-0.4,0.1-0.7,0.4-1c0.1-0.1,0.1-0.1,0.1-0.1
					c0.3-0.2,0.5-0.2,0.9-0.2h1.9c0.4,0,0.7,0.2,1,0.4c0.4,0.4,0.4,0.7,0.4,1L51.1,118.1z"/>
				<path class="st1" d="M36,108.4c-0.2,0-0.3-0.1-0.5-0.1h-1.8c-0.8,0-1.5,0.2-2.2,0.6c-0.2,0.2-0.4,0.4-0.5,0.6
					c-0.7,0.7-1,1.6-1,2.5v6c0,1,0.4,2,1.1,2.6c0.7,0.8,1.6,1.2,2.7,1.2h2c0.1,0,0.2,0,0.2,0c0.7-0.1,1.4-0.5,1.9-0.9
					c0.1,0,0.1-0.1,0.2-0.2l0,0c0.8-0.7,1.2-1.6,1.2-2.7v-6c0-1-0.4-1.9-1.1-2.5C37.6,108.9,36.9,108.5,36,108.4z M37,118.1
					c0,0.4-0.1,0.6-0.4,0.9c-0.1,0.1-0.2,0.2-0.3,0.3c-0.2,0.2-0.4,0.3-0.7,0.3h-1.9c-0.4,0-0.7-0.1-1-0.5c-0.3-0.3-0.4-0.6-0.4-1
					v-6c0-0.2,0-0.6,0.4-1c0.1-0.1,0-0.1,0.1-0.2c0.3-0.2,0.6-0.2,0.9-0.2h1.7c0.1,0,0.2,0,0.3,0.1c0.4,0,0.6,0.2,0.8,0.4
					c0.4,0.4,0.5,0.7,0.5,0.9L37,118.1z"/>
			</g>
			<g>
				<path class="st1" d="M93.5,108.4c-0.2,0-0.3-0.1-0.5-0.1h-1.8c-0.8,0-1.5,0.2-2.2,0.6c-0.2,0.2-0.4,0.4-0.5,0.6
					c-0.7,0.7-1,1.6-1,2.5v6c0,1,0.4,2,1.1,2.6c0.7,0.8,1.6,1.2,2.7,1.2h2c0.1,0,0.2,0,0.2,0c0.7-0.1,1.4-0.5,1.9-0.9
					c0.1,0,0.1-0.1,0.2-0.2l0,0c0.8-0.7,1.2-1.6,1.2-2.7v-6c0-1-0.4-1.9-1.1-2.5C95.2,108.9,94.4,108.5,93.5,108.4z M94.5,118.1
					c0,0.4-0.1,0.6-0.4,0.9c-0.1,0.1-0.2,0.2-0.3,0.3c-0.2,0.2-0.4,0.3-0.7,0.3h-1.9c-0.4,0-0.7-0.1-1-0.5c-0.3-0.3-0.4-0.6-0.4-1
					v-6c0-0.2,0-0.6,0.4-1c0.1-0.1,0-0.1,0.1-0.2c0.3-0.2,0.6-0.2,0.9-0.2h1.7c0.1,0,0.2,0,0.3,0.1c0.4,0,0.6,0.2,0.8,0.4
					c0.4,0.4,0.5,0.7,0.5,0.9V118.1z"/>
			</g>
			<path class="st1" d="M35.2,103.3c0.6,0,1.2-0.5,1.2-1.2v-11c0-0.5-0.3-0.9-0.7-1.1s-0.9-0.1-1.3,0.3l-2.9,2.9
				c-0.4,0.5-0.4,1.2,0,1.6c0.5,0.4,1.2,0.4,1.6,0l0.9-0.9v8.3C34,102.8,34.5,103.3,35.2,103.3z"/>
			<g>
				<path class="st1" d="M35.5,52.8h-1.8c-0.8,0-1.5,0.2-2.1,0.6c-0.3,0.2-0.5,0.4-0.7,0.7c-0.6,0.7-1,1.5-1,2.4v6.1
					c0,1,0.4,2,1.1,2.6c0.7,0.8,1.6,1.2,2.7,1.2h1.8c1,0,1.8-0.4,2.5-1l0.1-0.1l0,0c0.8-0.7,1.2-1.6,1.2-2.7v-6.1
					c0-1-0.4-1.8-1.2-2.5C37.5,53.2,36.6,52.8,35.5,52.8z M37,62.6c0,0.4-0.1,0.6-0.4,0.9c-0.1,0.1-0.2,0.2-0.3,0.3
					c-0.2,0.2-0.5,0.3-0.8,0.3h-1.8c-0.4,0-0.7-0.1-1-0.5c-0.3-0.3-0.4-0.6-0.4-1v-6.1c0-0.3,0.1-0.6,0.4-0.9
					c0.1-0.1,0.2-0.2,0.2-0.3c0.2-0.2,0.5-0.2,0.8-0.2h1.8c0.4,0,0.7,0.1,0.9,0.4c0,0.1,0.1,0.1,0.1,0.1c0.4,0.3,0.4,0.6,0.4,0.8
					L37,62.6L37,62.6z"/>
			</g>
			<path class="st1" d="M18.9,20.8l0.9-0.9v8.3c0,0.6,0.5,1.2,1.2,1.2c0.6,0,1.2-0.5,1.2-1.2V17.1c0-0.5-0.3-0.9-0.7-1.1
				c-0.4-0.2-0.9-0.1-1.3,0.3l-2.9,3c-0.4,0.5-0.4,1.2,0,1.6C17.8,21.3,18.5,21.3,18.9,20.8z"/>
		</g>
	</g>
</g>
<g>
	
		<linearGradient id="SVGID_3_" gradientUnits="userSpaceOnUse" x1="67.0859" y1="-130.2912" x2="67.0859" y2="-72.2807" gradientTransform="matrix(1 0 0 -1 0 -27.8947)">
		<stop  offset="0" style="stop-color:#2471B9"/>
		<stop  offset="1" style="stop-color:#2FB3A8"/>
	</linearGradient>
	<path class="st4" d="M67.1,103.4c-16.1,0-29.2-13.1-29.2-29.2S51,45,67.1,45s29.2,13.1,29.2,29.2S83.2,103.4,67.1,103.4z
		 M67.1,47.1c-15,0-27.2,12.2-27.2,27.2s12.2,27.2,27.2,27.2s27.2-12.2,27.2-27.2C94.2,59.2,82,47.1,67.1,47.1z"/>
</g>
<g>
	<defs>
		<ellipse id="SVGID_4_" cx="66.7" cy="73.3" rx="27.6" ry="28.8"/>
	</defs>
	<clipPath id="SVGID_5_">
		<use xlink:href="#SVGID_4_"  style="overflow:visible;"/>
	</clipPath>
</g>
<linearGradient id="SVGID_6_" gradientUnits="userSpaceOnUse" x1="77.6988" y1="-178.0702" x2="77.6988" y2="-65.0702" gradientTransform="matrix(1 0 0 -1 0 -27.8947)">
	<stop  offset="0" style="stop-color:#2471B9"/>
	<stop  offset="1" style="stop-color:#2FB3A8"/>
</linearGradient>
<path class="st5" d="M123.9,120.9L98.1,95.1c4.1-6,6.4-13.2,6.4-21c0-20.7-16.8-37.6-37.6-37.6c-20.7,0-37.5,16.8-37.5,37.6
	s17,37.6,37.7,37.6c7.8,0,15-2.4,21-6.4l25.8,25.8c1.4,1.4,3.2,2.1,5.1,2.1c1.9,0,3.7-0.7,5.1-2.1
	C126.7,128.2,126.7,123.7,123.9,120.9z M102.2,74.1c0,19.4-15.8,35.1-35.1,35.1C47.7,109.2,32,93.4,32,74.1S47.7,39,67.1,39
	C86.4,39,102.2,54.7,102.2,74.1z M122.2,129.3c-1.9,1.9-4.9,1.9-6.7,0L90,103.8c2.5-2,4.8-4.2,6.7-6.7l25.5,25.5
	C124.1,124.4,124.1,127.4,122.2,129.3z"/>
<linearGradient id="SVGID_7_" gradientUnits="userSpaceOnUse" x1="15.5143" y1="89.6501" x2="15.5143" y2="86.3567">
	<stop  offset="0" style="stop-color:#2471B9"/>
	<stop  offset="1" style="stop-color:#2FB3A8"/>
</linearGradient>
<path class="st6" d="M20.9,83.4H9.4v2.1h12.2C21.3,84.8,21.1,84.1,20.9,83.4z"/>
<linearGradient id="SVGID_8_" gradientUnits="userSpaceOnUse" x1="14.4806" y1="80.9984" x2="14.4806" y2="77.705">
	<stop  offset="0" style="stop-color:#2471B9"/>
	<stop  offset="1" style="stop-color:#2FB3A8"/>
</linearGradient>
<path class="st7" d="M19.4,74.8H9.4v2.1h10.1C19.5,76.2,19.4,75.5,19.4,74.8z"/>
<linearGradient id="SVGID_9_" gradientUnits="userSpaceOnUse" x1="14.7119" y1="72.3465" x2="14.7119" y2="69.0531">
	<stop  offset="0" style="stop-color:#2471B9"/>
	<stop  offset="1" style="stop-color:#2FB3A8"/>
</linearGradient>
<path class="st8" d="M20,66.1H9.4v2.1h10.2C19.7,67.5,19.9,66.8,20,66.1z"/>
<linearGradient id="SVGID_10_" gradientUnits="userSpaceOnUse" x1="16.1697" y1="63.6947" x2="16.1697" y2="60.4013">
	<stop  offset="0" style="stop-color:#2471B9"/>
	<stop  offset="1" style="stop-color:#2FB3A8"/>
</linearGradient>
<path class="st9" d="M22.9,57.5H9.4v2.1H22C22.3,58.8,22.6,58.1,22.9,57.5z"/>
<linearGradient id="SVGID_11_" gradientUnits="userSpaceOnUse" x1="15.1583" y1="95.0241" x2="15.1583" y2="43.9584">
	<stop  offset="0" style="stop-color:#2170B8"/>
	<stop  offset="1" style="stop-color:#30B3A8"/>
</linearGradient>
<path class="st10" d="M26,93.7H6.6c-1.2,0-2.4-0.4-3.2-1.2S2,90.5,2,89.4V53.8c0-1.2,0.5-2.4,1.2-3.1c0.9-0.7,2-1.2,3.2-1.2h21.8
	c0.7-0.7,1.3-1.4,2-2.1H6.4c-1.7,0-3.3,0.6-4.6,1.9C0.6,50.5,0,52.1,0,53.8v35.5c0,1.6,0.6,3.2,1.9,4.5c1.2,1.2,2.8,1.9,4.6,1.9
	h21.1C27,95,26.5,94.4,26,93.7z"/>
<g>
	<linearGradient id="SVGID_12_" gradientUnits="userSpaceOnUse" x1="34.3635" y1="27.8799" x2="34.3635" y2="18.6451">
		<stop  offset="0" style="stop-color:#2471B9"/>
		<stop  offset="1" style="stop-color:#2FB3A8"/>
	</linearGradient>
	<path class="st11" d="M34.8,19l-2.4,2.4c-0.2,0.2-0.3,0.4-0.3,0.8v4.6c0,0.7,0.4,1.1,1.1,1.1c0.6,0,1.1-0.4,1.1-1.1v-4.1l2.1-2.1
		c0.4-0.4,0.4-1.1,0-1.6C35.9,18.5,35.3,18.5,34.8,19z"/>
	<linearGradient id="SVGID_13_" gradientUnits="userSpaceOnUse" x1="34.141" y1="32.4417" x2="34.141" y2="8.8539">
		<stop  offset="0" style="stop-color:#2471B9"/>
		<stop  offset="1" style="stop-color:#2FB3A8"/>
	</linearGradient>
	<path class="st12" d="M45,14.4l-1-1l0,0l0,0l-1.1-1.1c-0.4-0.4-1.1-0.4-1.6,0c-0.4,0.4-0.4,1.1,0,1.6l0.3,0.3l-1.1,1.1
		c-1.6-1.8-3.9-2.9-6.4-3.2V10c0-0.7-0.4-1.1-1.1-1.1C32.5,8.9,32,9.3,32,10V12c-5.1,0.6-9.1,4.9-9.1,10.2c0,5.7,4.6,10.2,10.2,10.2
		c5.7,0,10.2-4.6,10.2-10.2c0-1.9-0.5-3.7-1.4-5.2l1.3-1.3l0.2,0.2c0.2,0.2,0.4,0.3,0.8,0.3c0.3,0,0.7-0.1,0.8-0.3
		C45.5,15.5,45.5,14.9,45,14.4z M33.1,31c-4.9,0-8.8-3.9-8.8-8.8s3.9-8.8,8.8-8.8s8.8,3.9,8.8,8.8S38,31,33.1,31z"/>
</g>
<linearGradient id="SVGID_14_" gradientUnits="userSpaceOnUse" x1="66.3558" y1="22.5248" x2="66.3558" y2="0">
	<stop  offset="0" style="stop-color:#2471B9"/>
	<stop  offset="1" style="stop-color:#2FB3A8"/>
</linearGradient>
<path class="st13" d="M66.4,0c-6.2,0-11.3,5-11.3,11.3s5,11.3,11.3,11.3s11.3-5,11.3-11.3C77.6,5,72.6,0,66.4,0z M61.7,19.4v-0.6
	c0-2.6,2.1-4.7,4.7-4.7c2.6,0,4.7,2.1,4.7,4.7v0.6C68.1,21.1,64.6,21.1,61.7,19.4z M63.5,9.4c0-1.6,1.3-2.8,2.8-2.8
	c1.6,0,2.8,1.3,2.8,2.8s-1.3,2.8-2.8,2.8C64.8,12.2,63.5,10.9,63.5,9.4z M72.9,18c-0.3-2.2-1.6-4.1-3.5-5.1c2-1.7,2.2-4.6,0.6-6.6
	c-1.7-2-4.6-2.2-6.6-0.6c-2,1.7-2.2,4.6-0.6,6.6c0.2,0.2,0.4,0.4,0.6,0.6c-1.9,1-3.2,2.9-3.5,5.1c-3.7-3.6-3.8-9.5-0.2-13.3
	s9.5-3.8,13.3-0.2c3.7,3.6,3.8,9.5,0.2,13.3C73,17.8,73,17.9,72.9,18z"/>
<g>
	<linearGradient id="SVGID_15_" gradientUnits="userSpaceOnUse" x1="57.0765" y1="85.1538" x2="73.1558" y2="57.3036">
		<stop  offset="0" style="stop-color:#2471B9"/>
		<stop  offset="1" style="stop-color:#2FB3A8"/>
	</linearGradient>
	<path class="st14" d="M52.9,64.3l10.3,13.6v9.8c0,0.4,0.2,0.9,0.6,1.1L69,92c0.2,0.1,0.4,0.2,0.7,0.2c0.2,0,0.4,0,0.6-0.2
		c0.4-0.2,0.6-0.6,0.6-1.1V77.9l10.3-13.6c0,0,0,0,0.1-0.1c0.3-0.6,0.4-1.2,0-1.8c-0.3-0.6-0.9-0.9-1.6-0.9H54.3
		c-0.6,0-1.3,0.3-1.6,0.9C52.4,62.9,52.4,63.6,52.9,64.3C52.8,64.2,52.8,64.2,52.9,64.3z M78.2,64l-9.6,12.6
		c-0.2,0.2-0.3,0.5-0.3,0.8v11.2L65.7,87v-9.5c0-0.3-0.1-0.6-0.3-0.8L55.9,64H78.2z"/>
</g>
</svg>
