<?xml version="1.0" encoding="utf-8"?>
<!-- Generator: Adobe Illustrator 16.0.0, SVG Export Plug-In . SVG Version: 6.00 Build 0)  -->
<!DOCTYPE svg PUBLIC "-//W3C//DTD SVG 1.1//EN" "http://www.w3.org/Graphics/SVG/1.1/DTD/svg11.dtd">
<svg version="1.1" id="Layer_1" xmlns="http://www.w3.org/2000/svg" xmlns:xlink="http://www.w3.org/1999/xlink" x="0px" y="0px"
	 width="19px" height="18px" viewBox="0 0 19 18" enable-background="new 0 0 19 18" xml:space="preserve">
<g id="code_1_">
	<path id="code" fill="#5C637C" d="M7.875,14.815v-2.407h8.75v2.407H7.875z M7.875,7.595h8.75v2.408h-8.75V7.595z M7.875,2.782h8.75
		v2.408h-8.75V2.782z M2.375,13.813L3.5,12.68l0.796,0.8l1.59-1.603l1.125,1.134L4.296,15.75L2.375,13.813z M2.375,9.001L3.5,7.864
		l0.796,0.803l1.59-1.603l1.125,1.134l-2.716,2.739L2.375,9.001z M2.375,4.187L3.5,3.051l0.796,0.803l1.59-1.604l1.125,1.134
		L4.296,6.121L2.375,4.187z"/>
</g>
</svg>
