<?xml version="1.0" encoding="utf-8"?>
<!-- Generator: Adobe Illustrator 22.0.1, SVG Export Plug-In . SVG Version: 6.00 Build 0)  -->
<svg version="1.1" id="Layer_1" xmlns="http://www.w3.org/2000/svg" xmlns:xlink="http://www.w3.org/1999/xlink" x="0px" y="0px"
	 viewBox="0 0 19 18" style="enable-background:new 0 0 19 18;" xml:space="preserve">
<style type="text/css">
	.st0{fill:#FFFFFF;}
</style>
<g id="code_1_">
	<path id="code" class="st0" d="M7.9,14.8v-2.4h8.8v2.4C16.6,14.8,7.9,14.8,7.9,14.8z M7.9,7.6h8.8V10H7.9V7.6z M7.9,2.8h8.8v2.4
		H7.9V2.8z M2.4,13.8l1.1-1.1l0.8,0.8l1.6-1.6L7,13l-2.7,2.7L2.4,13.8z M2.4,9l1.1-1.1l0.8,0.8l1.6-1.6L7,8.2l-2.7,2.7L2.4,9z
		 M2.4,4.2l1.1-1.1l0.8,0.8l1.6-1.6L7,3.4L4.3,6.1L2.4,4.2z"/>
</g>
</svg>
