<?xml version="1.0" encoding="utf-8"?>
<!-- Generator: Adobe Illustrator 22.0.1, SVG Export Plug-In . SVG Version: 6.00 Build 0)  -->
<svg version="1.1" id="Layer_1" xmlns="http://www.w3.org/2000/svg" xmlns:xlink="http://www.w3.org/1999/xlink" x="0px" y="0px"
	 viewBox="0 0 22 22" style="enable-background:new 0 0 22 22;" xml:space="preserve">
<style type="text/css">
	.st0{fill:#FFFFFF;}
</style>
<g id="Date_x2F_Time-_1_">
	<g>
		<path id="Date_x2F_Time-_10_" class="st0" d="M7.8,3.4c-0.3,0-0.5,0.2-0.5,0.5v1.5c0,0.3,0.2,0.5,0.5,0.5h0.7
			c0.3,0,0.5-0.2,0.5-0.5V3.9c0-0.3-0.2-0.5-0.5-0.5H7.8z M13.7,3.4c-0.3,0-0.5,0.2-0.5,0.5v1.5c0,0.3,0.2,0.5,0.5,0.5h0.7
			c0.3,0,0.5-0.2,0.5-0.5V3.9c0-0.3-0.2-0.5-0.5-0.5H13.7z M13.2,15.7H5.6V7.5h11v4.8h1.4V6.1c0-0.6-0.5-1.4-1.1-1.4h-1.4v0.6
			c0,0.6-0.5,1.1-1.1,1.1h-0.7c-0.6,0-1.1-0.5-1.1-1.1V4.7H9.5v0.6C9.5,6,9,6.4,8.4,6.4H7.8C7.2,6.4,6.7,6,6.7,5.3V4.7H5.3
			c-0.6,0-1,0.5-1,1.1V16c0,0.6,0.8,1.1,1.4,1.1h7.5v-0.7V15.7L13.2,15.7z M20,15.9c0,1.7-1.4,3.2-3.1,3.2s-3.1-1.4-3.1-3.2
			c0-1.7,1.4-3.2,3.1-3.2C18.6,12.7,20,14.2,20,15.9z M18.1,16.8l-0.8-0.9c0,0,0-0.1,0-0.1l-0.1-1.7c0-0.1-0.1-0.3-0.3-0.3
			s-0.3,0.1-0.3,0.3v0L16.4,16c0,0,0,0,0,0c0,0,0,0,0,0c0,0.1,0,0.2,0.1,0.3c0,0,0,0,0,0l1,0.9c0,0,0.1,0.1,0.2,0.1
			c0.1,0,0.2,0,0.2-0.1C18.2,17.1,18.2,17,18.1,16.8z"/>
	</g>
</g>
</svg>
