<?xml version="1.0" encoding="utf-8"?>
<!-- Generator: Adobe Illustrator 16.0.0, SVG Export Plug-In . SVG Version: 6.00 Build 0)  -->
<!DOCTYPE svg PUBLIC "-//W3C//DTD SVG 1.1//EN" "http://www.w3.org/Graphics/SVG/1.1/DTD/svg11.dtd">
<svg version="1.1" id="Layer_1" xmlns="http://www.w3.org/2000/svg" xmlns:xlink="http://www.w3.org/1999/xlink" x="0px" y="0px"
	 width="24px" height="17px" viewBox="0 0 24 17" enable-background="new 0 0 24 17" xml:space="preserve">
<g id="id-icon_1_">
	<g>
		<path id="id-icon_10_" fill="#5D637D" d="M19.887,14.989H3.857c-0.63,0-1.146-0.544-1.146-1.211l0-10.555
			c0-0.666,0.515-1.211,1.145-1.211l16.031,0c0.629,0,1.145,0.546,1.145,1.212v10.555C21.031,14.445,20.516,14.989,19.887,14.989z
			 M19.887,3.224H3.856l0.001,10.555h16.03V3.224z M8.437,8.928c1.894,0,3.434,1.632,3.434,3.638H5.002
			C5.002,10.56,6.543,8.928,8.437,8.928z M18.746,5.658H13.02V4.447h5.727V5.658z M18.746,8.084H13.02V6.872h5.727V8.084z
			 M15.313,12.565H13.02v-1.212h2.293V12.565z M18.746,12.565h-2.295v-1.212h2.295V12.565z M8.437,8.449
			c-1.081,0-1.961-0.932-1.961-2.077c0-1.144,0.88-2.075,1.961-2.075c1.082,0,1.961,0.931,1.961,2.075
			C10.398,7.518,9.519,8.449,8.437,8.449z"/>
	</g>
</g>
</svg>
