<?xml version="1.0" encoding="utf-8"?>
<!-- Generator: Adobe Illustrator 22.0.1, SVG Export Plug-In . SVG Version: 6.00 Build 0)  -->
<svg version="1.1" id="Layer_1" xmlns="http://www.w3.org/2000/svg" xmlns:xlink="http://www.w3.org/1999/xlink" x="0px" y="0px"
	 viewBox="0 0 24 17" style="enable-background:new 0 0 24 17;" xml:space="preserve">
<style type="text/css">
	.st0{fill:#FFFFFF;}
</style>
<g id="id-icon_1_">
	<g>
		<path id="id-icon_10_" class="st0" d="M19.9,15h-16c-0.6,0-1.1-0.5-1.1-1.2V3.2C2.7,2.6,3.2,2,3.9,2h16C20.5,2,21,2.6,21,3.2v10.6
			C21,14.4,20.5,15,19.9,15z M19.9,3.2h-16l0,10.6h16C19.9,13.8,19.9,3.2,19.9,3.2z M8.4,8.9c1.9,0,3.4,1.6,3.4,3.6H5
			C5,10.6,6.5,8.9,8.4,8.9z M18.7,5.7H13V4.4h5.7L18.7,5.7L18.7,5.7z M18.7,8.1H13V6.9h5.7L18.7,8.1L18.7,8.1z M15.3,12.6H13v-1.2
			h2.3C15.3,11.4,15.3,12.6,15.3,12.6z M18.7,12.6h-2.3v-1.2h2.3V12.6z M8.4,8.4c-1.1,0-2-0.9-2-2.1c0-1.1,0.9-2.1,2-2.1
			c1.1,0,2,0.9,2,2.1C10.4,7.5,9.5,8.4,8.4,8.4z"/>
	</g>
</g>
</svg>
