<?xml version="1.0" encoding="utf-8"?>
<!-- Generator: Adobe Illustrator 22.0.1, SVG Export Plug-In . SVG Version: 6.00 Build 0)  -->
<svg version="1.1" id="Layer_1" xmlns="http://www.w3.org/2000/svg" xmlns:xlink="http://www.w3.org/1999/xlink" x="0px" y="0px"
	 viewBox="0 0 20.2 18.2" style="enable-background:new 0 0 20.2 18.2;" xml:space="preserve">
<style type="text/css">
	.st0{fill:#FFFFFF;}
</style>
<g transform="translate(-210 -560)">
	<g>
		<g>
			<path class="st0" d="M220.4,576.2h4.9c1.1,0,2-0.9,2-2v-4.9h-6.8V576.2L220.4,576.2z M221.8,571.3h3.9v1h-3.9V571.3z
				 M225.7,573.3v1h-3.9v-1H225.7z"/>
			<path class="st0" d="M227.2,568.9V564c0-1.1-0.9-2-2-2h-4.9v6.8H227.2z M225.7,565v1h-3.9v-1H225.7z"/>
			<path class="st0" d="M213,569.4v4.9c0,1.1,0.9,2,2,2h4.9v-6.8H213z M217.5,574.5l-1-1l-1,1l-0.7-0.7l1-1l-1-1l0.7-0.7l1,1l1-1
				l0.7,0.7l-1,1l1,1L217.5,574.5z"/>
			<path class="st0" d="M219.9,562H215c-1.1,0-2,0.9-2,2v4.9h6.8V562z M216.9,567.4h-1v-1.5h-1.5v-1h1.5v-1.5h1v1.5h1.5v1h-1.5
				V567.4z"/>
		</g>
	</g>
</g>
</svg>
