<?xml version="1.0" encoding="utf-8"?>
<!-- Generator: Adobe Illustrator 22.0.1, SVG Export Plug-In . SVG Version: 6.00 Build 0)  -->
<svg version="1.1" id="Layer_1" xmlns="http://www.w3.org/2000/svg" xmlns:xlink="http://www.w3.org/1999/xlink" x="0px" y="0px"
	 viewBox="0 0 20 17" style="enable-background:new 0 0 20 17;" xml:space="preserve">
<style type="text/css">
	.st0{fill:#FFFFFF;}
</style>
<path class="st0" d="M3.8,13c0.3,0.1,0.6-0.1,0.7-0.3l0.8-2.4h3.8l0.8,2.4c0.1,0.2,0.3,0.4,0.5,0.4c0.1,0,0.1,0,0.2,0
	c0.3-0.1,0.4-0.4,0.3-0.7L7.7,2.7C7.6,2.4,7.4,2.3,7.2,2.3S6.7,2.4,6.7,2.7l-3.2,9.6C3.4,12.6,3.5,12.9,3.8,13z M7.2,4.6l1.5,4.6h-3
	L7.2,4.6z"/>
<path class="st0" d="M16.7,13.5H3.3v1.2h13.4L16.7,13.5L16.7,13.5z"/>
<g>
	<g>
		<path class="st0" d="M15.5,13c-0.1-0.1-0.1-0.4-0.2-0.7c-0.5,0.5-1.1,0.8-1.9,0.8c-0.6,0-1.2-0.2-1.6-0.6
			c-0.4-0.4-0.6-0.8-0.6-1.4c0-0.7,0.3-1.2,0.8-1.6C12.5,9.2,13.3,9,14.2,9h1.1V8.4c0-0.4-0.1-0.7-0.4-0.9c-0.2-0.2-0.6-0.4-1-0.4
			c-0.4,0-0.7,0.1-1,0.3c-0.3,0.2-0.4,0.4-0.4,0.7h-1.1c0-0.3,0.1-0.6,0.4-1c0.2-0.3,0.6-0.5,1-0.7c0.4-0.2,0.8-0.3,1.3-0.3
			c0.8,0,1.4,0.2,1.8,0.6c0.4,0.4,0.7,0.9,0.7,1.6v3c0,0.6,0.1,1.1,0.2,1.4V13L15.5,13L15.5,13z M13.6,12.1c0.4,0,0.7-0.1,1-0.3
			c0.3-0.2,0.5-0.4,0.7-0.7V9.8h-0.9c-1.4,0-2.1,0.4-2.1,1.2c0,0.4,0.1,0.6,0.4,0.8C12.9,12,13.2,12.1,13.6,12.1z"/>
	</g>
</g>
</svg>
