<?xml version="1.0" encoding="utf-8"?>
<!-- Generator: Adobe Illustrator 16.0.0, SVG Export Plug-In . SVG Version: 6.00 Build 0)  -->
<!DOCTYPE svg PUBLIC "-//W3C//DTD SVG 1.1//EN" "http://www.w3.org/Graphics/SVG/1.1/DTD/svg11.dtd">
<svg version="1.1" id="Layer_1" xmlns="http://www.w3.org/2000/svg" xmlns:xlink="http://www.w3.org/1999/xlink" x="0px" y="0px"
	 width="20px" height="17px" viewBox="0 0 20 17" enable-background="new 0 0 20 17" xml:space="preserve">
<path fill="#5D637D" d="M3.799,12.969c0.288,0.096,0.599-0.061,0.694-0.349l0.797-2.392h3.77l0.797,2.392
	c0.078,0.231,0.291,0.376,0.521,0.376c0.057,0,0.116-0.009,0.173-0.027c0.288-0.097,0.442-0.408,0.347-0.695L7.695,2.664
	C7.622,2.44,7.413,2.29,7.176,2.29S6.729,2.44,6.654,2.664l-3.203,9.609C3.355,12.561,3.511,12.872,3.799,12.969z M7.176,4.575
	l1.519,4.556H5.658L7.176,4.575z"/>
<path fill="#5D637D" d="M16.721,13.522H3.278v1.188h13.442V13.522z"/>
<g>
	<g>
		<path fill="#5D637D" d="M15.48,12.965c-0.064-0.131-0.117-0.361-0.158-0.697c-0.523,0.547-1.15,0.818-1.878,0.818
			c-0.649,0-1.185-0.185-1.601-0.553c-0.417-0.367-0.625-0.833-0.625-1.399c0-0.686,0.262-1.221,0.783-1.6
			c0.523-0.381,1.258-0.57,2.205-0.57h1.098V8.446c0-0.396-0.118-0.71-0.354-0.942c-0.236-0.235-0.584-0.351-1.043-0.351
			c-0.402,0-0.74,0.101-1.012,0.305c-0.273,0.202-0.409,0.448-0.409,0.738h-1.134c0-0.331,0.116-0.649,0.35-0.956
			c0.234-0.307,0.551-0.548,0.951-0.729c0.4-0.179,0.841-0.268,1.32-0.268c0.76,0,1.356,0.191,1.787,0.569
			c0.432,0.381,0.654,0.903,0.671,1.571v3.037c0,0.604,0.077,1.088,0.231,1.444v0.099H15.48z M13.609,12.104
			c0.354,0,0.689-0.091,1.006-0.274c0.317-0.183,0.547-0.422,0.689-0.714V9.763H14.42c-1.382,0-2.072,0.405-2.072,1.213
			c0,0.354,0.117,0.631,0.354,0.829C12.936,12.005,13.239,12.104,13.609,12.104z"/>
	</g>
</g>
</svg>
