<?xml version="1.0" encoding="utf-8"?>
<!-- Generator: Adobe Illustrator 22.0.1, SVG Export Plug-In . SVG Version: 6.00 Build 0)  -->
<svg version="1.1" id="Layer_1" xmlns="http://www.w3.org/2000/svg" xmlns:xlink="http://www.w3.org/1999/xlink" x="0px" y="0px"
	 viewBox="0 0 22.4 22.2" style="enable-background:new 0 0 22.4 22.2;" xml:space="preserve">
<style type="text/css">
	.st0{fill:#5C637C;}
</style>
<g>
	<g>
		<path class="st0" d="M8.5,0.8l0.4,0 M21.3,13.8c0-0.3,0-0.6,0-0.9c0-1-0.1-1.9-0.3-2.8l1.1-0.3L22,9.4l-1.1,0.3
			c-0.3-1.3-0.8-2.4-1.5-3.5l0.9-0.6l-0.2-0.3L19.2,6c-0.7-1-1.6-2-2.6-2.7l0.7-0.8l-0.3-0.2L16.4,3c-1-0.7-2-1.3-3.2-1.7l0.3-1.3
			L13.1,0l-0.3,1.3c-1.1-0.3-2.3-0.5-3.5-0.5c-0.3,0-0.6,0-0.8,0v2.1c0.3,0,0.6,0,0.8,0c5,0,10.2,3.9,10.2,10.1c0,3-1,5.6-2.9,7.3
			l1.4,1.3c0,0,0,0,0,0l0.8,0.7L19,22l-0.8-0.7c0.7-0.8,1.4-1.7,1.9-2.7l1,0.5l0.1-0.3l-0.9-0.5c0.6-1.2,1-2.6,1.1-4.1l1.1,0.1
			l0-0.4L21.3,13.8z"/>
	</g>
</g>
<g>
	<g>
		<path class="st0" d="M12.7,16.2l-3.4-3.1V9.3c0-0.4-0.3-0.7-0.7-0.7c-0.4,0-0.7,0.3-0.7,0.7v3.9c0,0.1,0,0.3,0.1,0.4
			c0,0.3,3.8,3.6,3.8,3.6c0.3,0.3,0.7,0.3,1,0C13,16.9,13,16.4,12.7,16.2z"/>
	</g>
</g>
<g>
	<path class="st0" d="M8.9,22.1c-4.9,0-8.9-4-8.9-8.9c0-4.9,4-8.9,8.9-8.9s8.9,4,8.9,8.9C17.7,18.1,13.7,22.1,8.9,22.1z M8.9,6.3
		c-3.8,0-6.9,3.1-6.9,6.9c0,3.8,3.1,6.9,6.9,6.9s6.9-3.1,6.9-6.9C15.8,9.4,12.7,6.3,8.9,6.3z"/>
</g>
</svg>
