<?xml version="1.0" encoding="utf-8"?>
<!-- Generator: Adobe Illustrator 22.0.1, SVG Export Plug-In . SVG Version: 6.00 Build 0)  -->
<svg version="1.1" id="Layer_1" xmlns="http://www.w3.org/2000/svg" xmlns:xlink="http://www.w3.org/1999/xlink" x="0px" y="0px"
	 viewBox="0 0 14.7 14.5" style="enable-background:new 0 0 14.7 14.5;" xml:space="preserve">
<style type="text/css">
	.st0{fill:#FFFFFF;}
</style>
<g>
	<g>
		<path class="st0" d="M5.5,0.5h0.3 M13.9,9c0-0.2,0-0.4,0-0.6c0-0.7-0.1-1.2-0.2-1.8l0.7-0.2l-0.1-0.3l-0.7,0.2
			c-0.2-0.8-0.5-1.6-1-2.3l0.6-0.4l-0.1-0.2l-0.6,0.5c-0.5-0.7-1-1.3-1.7-1.8l0.5-0.5l-0.2-0.1L10.7,2C10,1.5,9.4,1.1,8.6,0.8L8.8,0
			H8.5L8.3,0.8C7.6,0.7,6.8,0.5,6.1,0.5c-0.2,0-0.4,0-0.5,0v1.4c0.2,0,0.4,0,0.5,0c3.3,0,6.7,2.5,6.7,6.6c0,2-0.7,3.7-1.9,4.8
			l0.9,0.8l0,0l0.5,0.5l0.1-0.2l-0.5-0.5c0.5-0.5,0.9-1.1,1.2-1.8l0.7,0.3l0.1-0.2l-0.6-0.3c0.4-0.8,0.7-1.7,0.7-2.7l0.7,0.1V9.1
			L13.9,9z"/>
	</g>
</g>
<g>
	<g>
		<path class="st0" d="M8.3,10.6l-2.2-2V6.1c0-0.3-0.2-0.5-0.5-0.5S5.2,5.8,5.2,6.1v2.5c0,0.1,0,0.2,0.1,0.3c0,0.2,2.5,2.3,2.5,2.3
			c0.2,0.2,0.5,0.2,0.7,0C8.5,11,8.5,10.7,8.3,10.6z"/>
	</g>
</g>
<g>
	<path class="st0" d="M5.8,14.4C2.6,14.4,0,11.8,0,8.6s2.6-5.8,5.8-5.8s5.8,2.6,5.8,5.8C11.5,11.8,8.9,14.4,5.8,14.4z M5.8,4.1
		c-2.5,0-4.5,2-4.5,4.5s2,4.5,4.5,4.5s4.5-2,4.5-4.5C10.3,6.1,8.3,4.1,5.8,4.1z"/>
</g>
</svg>
