<?xml version="1.0" encoding="utf-8"?>
<!-- Generator: Adobe Illustrator 21.1.0, SVG Export Plug-In . SVG Version: 6.00 Build 0)  -->
<svg version="1.1" id="Layer_1" xmlns="http://www.w3.org/2000/svg" xmlns:xlink="http://www.w3.org/1999/xlink" x="0px" y="0px"
	 viewBox="0 0 19.5 19.5" style="enable-background:new 0 0 19.5 19.5;" xml:space="preserve">
<style type="text/css">
	.st0{fill:#FFFFFF;}
</style>
<g>
	<path class="st0" d="M9.8,5.5c-0.4,0-0.7,0.3-0.7,0.8v4l-2.4,1.6c-0.3,0.2-0.5,0.7-0.3,1c0.2,0.3,0.6,0.5,1,0.3l2.6-1.7
		c0.2-0.1,0.4-0.3,0.4-0.5c0-0.1,0.1-0.2,0.1-0.3V6.2C10.4,5.8,10.2,5.5,9.8,5.5z"/>
	<path class="st0" d="M9.8,0C4.4,0,0,4.4,0,9.8s4.4,9.8,9.8,9.8s9.8-4.4,9.8-9.8S15.1,0,9.8,0z M9.8,18c-4.5,0-8.3-3.7-8.3-8.3
		s3.7-8.3,8.3-8.3S18,5.2,18,9.8S14.3,18,9.8,18z"/>
</g>
</svg>
