<?xml version="1.0" encoding="utf-8"?>
<!-- Generator: Adobe Illustrator 21.1.0, SVG Export Plug-In . SVG Version: 6.00 Build 0)  -->
<svg version="1.1" id="Layer_1" xmlns="http://www.w3.org/2000/svg" xmlns:xlink="http://www.w3.org/1999/xlink" x="0px" y="0px"
	 viewBox="0 0 15.5 15.5" style="enable-background:new 0 0 15.5 15.5;" xml:space="preserve">
<style type="text/css">
	.st0{fill:#1D2937;}
</style>
<path class="st0" d="M15.2,14.1L8.9,7.7l6.3-6.3c0.2-0.2,0.2-0.4,0.2-0.6c0-0.2-0.1-0.4-0.2-0.6c-0.3-0.3-0.8-0.3-1.2,0L7.7,6.6
	L1.4,0.2c-0.3-0.3-0.8-0.3-1.2,0C0.1,0.4,0,0.6,0,0.8C0,1,0.1,1.2,0.2,1.4l6.3,6.3l-6.3,6.3C0.1,14.2,0,14.4,0,14.7
	c0,0.2,0.1,0.4,0.2,0.6c0.3,0.3,0.9,0.3,1.2,0l6.3-6.3l6.3,6.3c0.2,0.2,0.4,0.2,0.6,0.2c0.2,0,0.4-0.1,0.6-0.2
	c0.2-0.2,0.2-0.4,0.2-0.6C15.5,14.4,15.4,14.2,15.2,14.1z"/>
</svg>
