<?xml version="1.0" encoding="utf-8"?>
<!-- Generator: Adobe Illustrator 21.1.0, SVG Export Plug-In . SVG Version: 6.00 Build 0)  -->
<svg version="1.1" id="Layer_1" xmlns="http://www.w3.org/2000/svg" xmlns:xlink="http://www.w3.org/1999/xlink" x="0px" y="0px"
	 viewBox="0 0 16 14.4" style="enable-background:new 0 0 16 14.4;" xml:space="preserve">
<style type="text/css">
	.st0{fill:#FFFFFF;}
</style>
<path class="st0" d="M15.5,0.3c-0.3-0.2-0.6-0.4-1-0.3l0,0c-0.3,0-0.6,0.2-0.8,0.5L4.8,11.1L2.3,8.3C1.8,7.8,1,7.7,0.4,8.2
	C-0.1,8.7-0.1,9.5,0.3,10l3.6,4c0.3,0.3,0.6,0.4,1,0.4c0.3,0,0.6-0.1,0.8-0.3c0,0,0.1-0.1,0.1-0.1l9.8-11.8
	C16.1,1.6,16.1,0.8,15.5,0.3z"/>
</svg>
