<?xml version="1.0" encoding="utf-8"?>
<!-- Generator: Adobe Illustrator 21.1.0, SVG Export Plug-In . SVG Version: 6.00 Build 0)  -->
<svg version="1.1" id="Layer_1" xmlns="http://www.w3.org/2000/svg" xmlns:xlink="http://www.w3.org/1999/xlink" x="0px" y="0px"
	 viewBox="0 0 17 18.9" style="enable-background:new 0 0 17 18.9;" xml:space="preserve">
<style type="text/css">
	.st0{fill:#FFFFFF;}
</style>
<g>
	<path class="st0" d="M16.2,9.5c-0.5,0-0.8,0.4-0.8,0.8c0,3.8-3.1,6.9-6.9,6.9c-2.3,0-4.5-1.2-5.8-3.1h2.4c0.5,0,0.8-0.4,0.8-0.8
		c0-0.5-0.4-0.8-0.8-0.8H1l-0.1-0.2v0.2H0.2v4.9c0,0.5,0.4,0.8,0.8,0.8s0.8-0.4,0.8-0.8v-1.6c1.6,1.9,4,3.1,6.6,3.1
		c4.7,0,8.6-3.9,8.6-8.6C17,9.9,16.7,9.5,16.2,9.5z"/>
	<path class="st0" d="M0.8,9.4c0.5,0,0.8-0.4,0.8-0.8c0-3.8,3.1-6.9,6.9-6.9c2.3,0,4.5,1.2,5.8,3.1H12c-0.5,0-0.8,0.4-0.8,0.8
		c0,0.5,0.4,0.8,0.8,0.8h4.1l0.1,0.2V6.4h0.7V1.5c0-0.5-0.4-0.8-0.8-0.8c-0.5,0-0.8,0.4-0.8,0.8v1.6C13.6,1.2,11.2,0,8.6,0
		C3.9,0,0,3.9,0,8.6C0,9.1,0.4,9.4,0.8,9.4z"/>
</g>
</svg>
