<?xml version="1.0" encoding="utf-8"?>
<!-- Generator: Adobe Illustrator 21.1.0, SVG Export Plug-In . SVG Version: 6.00 Build 0)  -->
<svg version="1.1" id="Layer_1" xmlns="http://www.w3.org/2000/svg" xmlns:xlink="http://www.w3.org/1999/xlink" x="0px" y="0px"
	 viewBox="0 0 19.2 17" style="enable-background:new 0 0 19.2 17;" xml:space="preserve">
<style type="text/css">
	.st0{fill:#FFFFFF;}
</style>
<g>
	<path class="st0" d="M19,14.5L11.1,0.8C10.8,0.3,10.2,0,9.6,0C9,0,8.5,0.3,8.2,0.8L0.2,14.5c-0.3,0.5-0.3,1.1,0,1.7
		C0.5,16.7,1.1,17,1.7,17h15.8c0.6,0,1.1-0.3,1.5-0.8C19.3,15.6,19.3,15,19,14.5z M17.6,15.6H1.7c-0.1,0-0.2-0.1-0.2-0.1
		c0,0,0,0,0,0l0-0.1c0,0-0.1-0.1,0-0.2L9.4,1.6c0.1-0.1,0.2-0.1,0.2-0.1c0,0,0.1,0,0.2,0.1l7.9,13.7c0.1,0.1,0,0.2,0,0.2
		C17.7,15.5,17.7,15.6,17.6,15.6z"/>
	<rect x="8.8" y="5.9" class="st0" width="1.7" height="5.8"/>
	<rect x="8.8" y="12.3" class="st0" width="1.7" height="1.9"/>
</g>
</svg>
