<?xml version="1.0" encoding="utf-8"?>
<!-- Generator: Adobe Illustrator 21.1.0, SVG Export Plug-In . SVG Version: 6.00 Build 0)  -->
<svg version="1.1" id="Layer_1" xmlns="http://www.w3.org/2000/svg" xmlns:xlink="http://www.w3.org/1999/xlink" x="0px" y="0px"
	 viewBox="0 0 23 23" style="enable-background:new 0 0 23 23;" xml:space="preserve">
<style type="text/css">
	.st0{fill-rule:evenodd;clip-rule:evenodd;fill:#FFCB00;}
	.st1{fill:#1D2937;}
</style>
<path class="st0" d="M11.5,0C17.9,0,23,5.1,23,11.5C23,17.9,17.9,23,11.5,23S0,17.9,0,11.5C0,5.1,5.1,0,11.5,0z"/>
<path class="st1" d="M16.7,15.9l-4.4-4.4l4.4-4.4c0.1-0.1,0.2-0.3,0.2-0.4c0-0.2-0.1-0.3-0.2-0.4c-0.2-0.2-0.6-0.2-0.8,0l-4.4,4.4
	L7.1,6.3C6.8,6,6.5,6,6.3,6.3C6.1,6.4,6.1,6.5,6.1,6.7c0,0.2,0.1,0.3,0.2,0.4l4.4,4.4l-4.4,4.4c-0.1,0.1-0.2,0.3-0.2,0.4
	c0,0.2,0.1,0.3,0.2,0.4c0.2,0.2,0.6,0.2,0.8,0l4.4-4.4l4.4,4.4c0.1,0.1,0.3,0.2,0.4,0.2c0.2,0,0.3-0.1,0.4-0.2
	c0.1-0.1,0.2-0.3,0.2-0.4C16.9,16.2,16.9,16,16.7,15.9z"/>
</svg>
