<?xml version="1.0" encoding="utf-8"?>
<!-- Generator: Adobe Illustrator 21.1.0, SVG Export Plug-In . SVG Version: 6.00 Build 0)  -->
<svg version="1.1" id="Layer_1" xmlns="http://www.w3.org/2000/svg" xmlns:xlink="http://www.w3.org/1999/xlink" x="0px" y="0px"
	 viewBox="0 0 23 23" style="enable-background:new 0 0 23 23;" xml:space="preserve">
<style type="text/css">
	.st0{fill-rule:evenodd;clip-rule:evenodd;fill:#FF0000;}
	.st1{fill:#FFFFFF;}
</style>
<path class="st0" d="M11.5,0C17.9,0,23,5.1,23,11.5C23,17.9,17.9,23,11.5,23S0,17.9,0,11.5C0,5.1,5.1,0,11.5,0z"/>
<g>
	<path class="st1" d="M18.7,15.1L12.6,4.7C12.4,4.3,12,4,11.5,4c-0.5,0-0.9,0.2-1.1,0.6L4.3,15.1c-0.2,0.4-0.2,0.9,0,1.3
		c0.2,0.4,0.6,0.6,1.1,0.6h12.2c0.5,0,0.9-0.2,1.1-0.6C18.9,16,18.9,15.5,18.7,15.1z M17.6,16H5.4c-0.1,0-0.1-0.1-0.1-0.1
		c0,0,0,0,0,0l0,0c0,0,0-0.1,0-0.2l6.1-10.5c0-0.1,0.1-0.1,0.2-0.1c0,0,0.1,0,0.2,0.1l6.1,10.5c0.1,0.1,0,0.2,0,0.2
		C17.7,15.9,17.7,16,17.6,16z"/>
	<rect x="10.9" y="8.5" class="st1" width="1.3" height="4.4"/>
	<rect x="10.9" y="13.5" class="st1" width="1.3" height="1.5"/>
</g>
</svg>
