<?xml version="1.0" encoding="utf-8"?>
<!-- Generator: Adobe Illustrator 21.1.0, SVG Export Plug-In . SVG Version: 6.00 Build 0)  -->
<svg version="1.1" id="Layer_1" xmlns="http://www.w3.org/2000/svg" xmlns:xlink="http://www.w3.org/1999/xlink" x="0px" y="0px"
	 viewBox="0 0 23 23" style="enable-background:new 0 0 23 23;" xml:space="preserve">
<style type="text/css">
	.st0{fill-rule:evenodd;clip-rule:evenodd;fill:#21C364;}
	.st1{fill:#FFFFFF;}
</style>
<path class="st0" d="M11.5,0C17.9,0,23,5.1,23,11.5C23,17.9,17.9,23,11.5,23S0,17.9,0,11.5C0,5.1,5.1,0,11.5,0z"/>
<path class="st1" d="M16.5,6.9c-0.2-0.1-0.4-0.3-0.7-0.2l0,0c-0.2,0-0.4,0.1-0.5,0.3l-6,7.1l-1.7-1.9c-0.3-0.3-0.9-0.4-1.3-0.1
	c-0.3,0.3-0.3,0.9-0.1,1.2l2.4,2.7c0.2,0.2,0.4,0.3,0.7,0.3c0.2,0,0.4-0.1,0.5-0.2l0.1-0.1l6.6-7.9C16.9,7.8,16.9,7.3,16.5,6.9z"/>
</svg>
