<?xml version="1.0" encoding="utf-8"?>
<!-- Generator: Adobe Illustrator 21.1.0, SVG Export Plug-In . SVG Version: 6.00 Build 0)  -->
<svg version="1.1" id="Layer_1" xmlns="http://www.w3.org/2000/svg" xmlns:xlink="http://www.w3.org/1999/xlink" x="0px" y="0px"
	 viewBox="0 0 23 23" style="enable-background:new 0 0 23 23;" xml:space="preserve">
<style type="text/css">
	.st0{fill-rule:evenodd;clip-rule:evenodd;fill:#FC7D29;}
	.st1{fill:#FFFFFF;}
</style>
<path class="st0" d="M11.5,0C17.9,0,23,5.1,23,11.5C23,17.9,17.9,23,11.5,23S0,17.9,0,11.5C0,5.1,5.1,0,11.5,0z"/>
<path class="st1" d="M18.5,11.6c-0.6-0.6-1.4-0.7-2.2-0.3l-0.9,0.5v-5c0-0.9-0.8-1.7-1.7-1.7c-0.2,0-0.4,0-0.5,0.1
	c-0.1-0.8-0.8-1.4-1.6-1.4c-0.7,0-1.4,0.5-1.6,1.1C9.7,4.9,9.5,4.9,9.3,4.9c-0.9,0-1.6,0.7-1.7,1.6C7.5,6.4,7.3,6.4,7.2,6.4
	c-0.9,0-1.7,0.8-1.7,1.7v5.3c0,3.2,2.6,5.7,5.7,5.7c1.5,0,3-0.6,4-1.7c0,0,0,0,1-1c0.9-1,2.3-2.4,2.3-2.5
	C19.1,13.3,19.1,12.3,18.5,11.6z M8.2,12.6c0.3,0,0.6-0.3,0.6-0.6V6.6c0-0.3,0.2-0.5,0.5-0.5c0.3,0,0.5,0.2,0.5,0.5V12
	c0,0.3,0.3,0.6,0.6,0.6c0.3,0,0.6-0.3,0.6-0.6V5.5C11,5.3,11.2,5,11.5,5S12,5.3,12,5.5V12c0,0.3,0.3,0.6,0.6,0.6
	c0.3,0,0.6-0.3,0.6-0.6V6.8c0-0.3,0.2-0.5,0.5-0.5c0.3,0,0.5,0.2,0.5,0.5v6.9c0,0.3,0.3,0.6,0.6,0.6c0.3,0,0.6-0.3,0.6-0.6v-0.6
	l1.4-0.7c0.4-0.2,0.7-0.2,0.9,0c0.2,0.2,0.2,0.5,0,0.7l-3.3,3.5c-0.9,0.9-2,1.3-3.2,1.3c-2.5,0-4.5-2-4.5-4.5V8.1
	c0-0.3,0.2-0.5,0.5-0.5c0.3,0,0.5,0.2,0.5,0.5V12C7.6,12.3,7.9,12.6,8.2,12.6z"/>
</svg>
