<?xml version="1.0" encoding="UTF-8"?>
<svg width="16px" height="16px" viewBox="0 0 16 16" version="1.1" xmlns="http://www.w3.org/2000/svg" xmlns:xlink="http://www.w3.org/1999/xlink">
    <!-- Generator: Sketch 53.2 (72643) - https://sketchapp.com -->
    <title>Fill 1</title>
    <desc>Created with Sketch.</desc>
    <g id="Page-2" stroke="none" stroke-width="1" fill="none" fill-rule="evenodd">
        <g id="Data-Container-44" transform="translate(-440.000000, -420.000000)" fill="#0F76C7">
            <g id="Group-7" transform="translate(440.000000, 418.000000)">
                <path d="M12.2947368,10.2357895 C12.2947368,10.7240421 11.8905263,11.1284211 11.4021053,11.1284211 L9.12842105,11.1284211 L9.12842105,13.4021053 C9.12842105,13.8903579 8.72421053,14.2947368 8.23578947,14.2947368 L7.76421053,14.2947368 C7.27578947,14.2947368 6.87157895,13.8903579 6.87157895,13.4021053 L6.87157895,11.1284211 L4.59789474,11.1284211 C4.10947368,11.1284211 3.70526316,10.7240421 3.70526316,10.2357895 L3.70526316,9.76404211 C3.70526316,9.27578947 4.10947368,8.87141053 4.59789474,8.87141053 L6.87157895,8.87141053 L6.87157895,6.59772632 C6.87157895,6.10947368 7.27578947,5.70526316 7.76421053,5.70526316 L8.23578947,5.70526316 C8.72421053,5.70526316 9.12842105,6.10947368 9.12842105,6.59772632 L9.12842105,8.87141053 L11.4021053,8.87141053 C11.8905263,8.87141053 12.2947368,9.27578947 12.2947368,9.76404211 L12.2947368,10.2357895 Z M8,2 C3.58736842,2 0,5.5872 0,10 C0,14.4126316 3.58736842,18 8,18 C12.4126316,18 16,14.4126316 16,10 C16,5.5872 12.4126316,2 8,2 L8,2 Z" id="Fill-1"></path>
            </g>
        </g>
    </g>
</svg>