<?xml version="1.0" encoding="UTF-8"?>
<svg width="20px" height="20px" viewBox="0 0 20 20" version="1.1" xmlns="http://www.w3.org/2000/svg" xmlns:xlink="http://www.w3.org/1999/xlink">
    <!-- Generator: Sketch 53.2 (72643) - https://sketchapp.com -->
    <title>Group 3 Copy</title>
    <desc>Created with Sketch.</desc>
    <defs>
        <polygon id="path-1" points="0 0 20 0 20 20 0 20"></polygon>
    </defs>
    <g id="Page-2" stroke="none" stroke-width="1" fill="none" fill-rule="evenodd">
        <g id="Alert-Definition/1" transform="translate(-355.000000, -926.000000)">
            <g id="Group-3-Copy" transform="translate(355.000000, 926.000000)">
                <mask id="mask-2" fill="white">
                    <use xlink:href="#path-1"></use>
                </mask>
                <g id="Clip-2"></g>
                <path d="M9.77272727,5.68181818 C10.0756818,5.68181818 10.3745455,5.69659091 10.6677273,5.73159091 L8.31681818,8.0825 C8.21204545,8.18590909 8.16272727,8.34227273 8.18886364,8.48727273 L8.64340909,10.9872727 C8.67545455,11.1697727 8.83022727,11.3245455 9.01272727,11.3565909 L11.5127273,11.8111364 C11.6554545,11.835 11.8084091,11.7856818 11.9104545,11.6831818 L14.2827273,9.31113636 C14.3093182,9.53431818 14.3181818,9.76795455 14.3181818,10 C14.3181818,11.1297727 13.9222727,12.2495455 13.0895455,13.0825 C12.2659091,13.9061364 11.1147727,14.3181818 10,14.3181818 C9.48545455,14.3181818 9.005,14.2645455 8.55113636,14.1122727 C8.39363636,14.0595455 8.20818182,14.1025 8.08954545,14.2188636 L3.99159091,18.3097727 C3.93795455,18.3631818 3.80545455,18.4090909 3.75,18.4090909 C3.71909091,18.4090909 3.53022727,18.3384091 3.50136364,18.3097727 L1.6975,16.5056818 C1.67136364,16.4777273 1.59090909,16.245 1.59090909,16.1363636 C1.59090909,15.9909091 1.66136364,15.7995455 1.6975,15.76 L5.76704545,11.9175 C5.89340909,11.7995455 5.9425,11.6056818 5.88772727,11.4418182 C5.73272727,10.9795455 5.67522727,10.5120455 5.68181818,10 C5.69613636,8.88840909 6.09318182,7.72772727 6.91045455,6.91045455 C7.75022727,6.07090909 8.74,5.68181818 9.77272727,5.68181818 L9.77272727,5.68181818 Z M8.99863636,0.909090909 L11.0013636,0.909090909 L11.3920455,2.59227273 C11.4288636,2.75568182 11.5634091,2.89295455 11.7259091,2.93318182 C12.4563636,3.11090909 13.1377273,3.41636364 13.7713636,3.78545455 C13.9534091,3.89136364 14.0918182,3.87954545 14.2543182,3.77840909 L15.7243182,2.86227273 L17.1377273,4.27568182 L16.2215909,5.74568182 C16.1068182,5.92977273 16.1354545,6.08772727 16.2304545,6.255 C16.5875,6.88409091 16.8915909,7.55409091 17.0668182,8.27409091 C17.1070455,8.43659091 17.2443182,8.57090909 17.4077273,8.60795455 L19.0909091,8.99863636 L19.0909091,11.0013636 L17.4077273,11.3920455 C17.2443182,11.4288636 17.1070455,11.5634091 17.0668182,11.7259091 C16.8890909,12.4563636 16.5836364,13.1375 16.2145455,13.7713636 C16.1086364,13.9531818 16.1204545,14.0918182 16.2215909,14.2543182 L17.1377273,15.7245455 L15.7243182,17.1377273 L14.2543182,16.2215909 C14.0720455,16.1079545 13.9409091,16.1222727 13.7713636,16.2145455 C13.1268182,16.5645455 12.4563636,16.8890909 11.7259091,17.0668182 C11.5634091,17.1070455 11.4288636,17.2443182 11.3920455,17.4077273 L11.0013636,19.0909091 L8.99863636,19.0909091 L8.60795455,17.4077273 C8.57090909,17.2443182 8.43659091,17.1070455 8.27409091,17.0668182 C7.82409091,16.9570455 7.39363636,16.7979545 6.98159091,16.6052273 L8.55818182,15.0354545 C9.04022727,15.1604545 9.52159091,15.2272727 10,15.2272727 C11.3347727,15.2272727 12.7136364,14.7436364 13.7286364,13.7286364 C14.7486364,12.7090909 15.2272727,11.3440909 15.2272727,10 C15.2272727,9.42863636 15.1702273,8.83090909 14.9786364,8.26 C14.8813636,7.9675 14.4438636,7.86431818 14.2259091,8.0825 L11.4345455,10.8736364 L9.48159091,10.5184091 L9.12636364,8.55818182 L11.9104545,5.77409091 C12.1352273,5.55477273 12.0259091,5.10590909 11.7259091,5.01409091 C11.0809091,4.81909091 10.4090909,4.77272727 9.77272727,4.77272727 C8.505,4.77272727 7.26704545,5.26863636 6.27136364,6.26431818 C5.25613636,7.27931818 4.78977273,8.67431818 4.77272727,9.99295455 C4.76659091,10.4775 4.82545455,10.9565909 4.95022727,11.4345455 L3.35227273,12.9475 C3.17681818,12.5575 3.03613636,12.1484091 2.93318182,11.7259091 C2.89295455,11.5634091 2.75568182,11.4288636 2.59227273,11.3920455 L0.909090909,11.0013636 L0.909090909,8.99863636 L2.59227273,8.60795455 C2.75568182,8.57090909 2.89295455,8.43659091 2.93318182,8.27409091 C3.11090909,7.54386364 3.41613636,6.86227273 3.78545455,6.22863636 C3.88068182,6.06545455 3.88181818,5.91136364 3.77840909,5.74568182 L2.86227273,4.27568182 L4.27568182,2.86227273 L5.74568182,3.77840909 C5.92795455,3.89204545 6.05909091,3.87772727 6.22863636,3.78545455 C6.87318182,3.43545455 7.54386364,3.11090909 8.27409091,2.93318182 C8.43659091,2.89295455 8.57090909,2.75568182 8.60795455,2.59227273 L8.99863636,0.909090909 Z M8.19613636,0.355227273 L7.78409091,2.14477273 C7.15772727,2.32181818 6.56340909,2.56431818 6.00863636,2.87636364 L4.45318182,1.90340909 C4.28068182,1.79613636 4.03590909,1.82386364 3.89204545,1.96727273 L1.96727273,3.89204545 C1.82386364,4.03590909 1.79613636,4.28068182 1.90340909,4.45318182 L2.87636364,6.00840909 C2.56454545,6.56340909 2.32181818,7.15772727 2.14477273,7.78409091 L0.355,8.19613636 C0.156363636,8.24045455 0.00136363636,8.43272727 0,8.63636364 L0,11.3636364 C0.00136363636,11.5672727 0.156363636,11.7593182 0.355,11.8038636 L2.14477273,12.2159091 C2.28045455,12.6959091 2.45590909,13.1545455 2.67045455,13.5938636 L1.05113636,15.1206818 C0.772045455,15.3838636 0.683409091,15.8034091 0.681818182,16.1363636 C0.680454545,16.4365909 0.730681818,16.8013636 1.02977273,17.1236364 C1.03454545,17.1284091 1.03909091,17.1331818 1.04409091,17.1377273 L2.86227273,18.9559091 C3.13318182,19.2268182 3.44227273,19.3181818 3.75,19.3181818 C4.03431818,19.3181818 4.35818182,19.2284091 4.63068182,18.9559091 L6.30681818,17.2797727 C6.77545455,17.5170455 7.26772727,17.7093182 7.78409091,17.8552273 L8.19613636,19.645 C8.24045455,19.8436364 8.43272727,19.9984091 8.63636364,20 L11.3636364,20 C11.5672727,19.9984091 11.7593182,19.8436364 11.8040909,19.645 L12.2159091,17.8552273 C12.8422727,17.6781818 13.4365909,17.4356818 13.9913636,17.1236364 L15.5468182,18.0965909 C15.7193182,18.2038636 15.9640909,18.1761364 16.1079545,18.0327273 L18.0327273,16.1079545 C18.1761364,15.9640909 18.2040909,15.7193182 18.0965909,15.5468182 L17.1236364,13.9915909 C17.4356818,13.4365909 17.6781818,12.8422727 17.8552273,12.2159091 L19.645,11.8038636 C19.8436364,11.7593182 19.9984091,11.5672727 20,11.3636364 L20,8.63636364 C19.9984091,8.43272727 19.8436364,8.24045455 19.645,8.19613636 L17.8552273,7.78409091 C17.6781818,7.15772727 17.4356818,6.56340909 17.1236364,6.00840909 L18.0965909,4.45318182 C18.2040909,4.28068182 18.1761364,4.03590909 18.0327273,3.89204545 L16.1079545,1.96727273 C15.9640909,1.82386364 15.7193182,1.79613636 15.5468182,1.90340909 L13.9913636,2.87636364 C13.4365909,2.56431818 12.8422727,2.32181818 12.2159091,2.14477273 L11.8040909,0.355227273 C11.7593182,0.156363636 11.5672727,0.00136363636 11.3636364,0 L8.63636364,0 C8.39477273,0 8.23386364,0.190681818 8.19613636,0.355227273 L8.19613636,0.355227273 Z" id="Fill-1" fill="#F4F4F4" mask="url(#mask-2)"></path>
            </g>
        </g>
    </g>
</svg>