<?xml version="1.0" encoding="UTF-8"?>
<svg width="20px" height="18px" viewBox="0 0 20 18" version="1.1" xmlns="http://www.w3.org/2000/svg" xmlns:xlink="http://www.w3.org/1999/xlink">
    <!-- Generator: Sketch 53.2 (72643) - https://sketchapp.com -->
    <title>Group 9 Copy</title>
    <desc>Created with Sketch.</desc>
    <defs>
        <polygon id="path-1" points="0 0.235875 4.82997619 0.235875 4.82997619 17 0 17"></polygon>
        <polygon id="path-3" points="0.0170714286 0.235875 4.84707143 0.235875 4.84707143 16.9999764 0.0170714286 16.9999764"></polygon>
    </defs>
    <g id="Page-2" stroke="none" stroke-width="1" fill="none" fill-rule="evenodd">
        <g id="Alert-Definition/1" transform="translate(-354.000000, -208.000000)">
            <g id="Group-9-Copy" transform="translate(354.000000, 208.000000)">
                <path d="M17.5,5.24994014 C18.1977719,5.24994014 18.7501232,5.78651005 18.7501232,6.46434557 C18.7501232,7.1421811 18.1977719,7.67851157 17.5,7.67851157 C16.8022281,7.67851157 16.2501232,7.1421811 16.2501232,6.46434557 C16.2501232,5.78651005 16.8022281,5.24994014 17.5,5.24994014 L17.5,5.24994014 Z M16.8749384,1 L16.8749384,4.12340671 C15.8027704,4.39660005 15,5.34092478 15,6.46410614 C15,7.58752694 15.8027704,8.53185166 16.8749384,8.805045 L16.8749384,18 L18.1250616,18 L18.1250616,8.805045 C19.1974761,8.5320911 20,7.58752694 20,6.46410614 C20,5.34068534 19.1974761,4.39660005 18.1250616,4.12340671 L18.1250616,1 L16.8749384,1 Z" id="Fill-1" fill="#F4F4F4"></path>
                <g id="Group-5">
                    <mask id="mask-2" fill="white">
                        <use xlink:href="#path-1"></use>
                    </mask>
                    <g id="Clip-4"></g>
                    <path d="M2.41497619,4.42684722 C3.08902381,4.42684722 3.62259524,4.95597222 3.62259524,5.62440278 C3.62259524,6.29283333 3.08902381,6.82172222 2.41497619,6.82172222 C1.74092857,6.82172222 1.20759524,6.29283333 1.20759524,5.62440278 C1.20759524,4.95597222 1.74092857,4.42684722 2.41497619,4.42684722 L2.41497619,4.42684722 Z M1.81116667,0.235875 L1.81116667,3.31594444 C0.775452381,3.58534722 -2.38095238e-05,4.51656944 -2.38095238e-05,5.62416667 C-2.38095238e-05,6.732 0.775452381,7.66322222 1.81116667,7.932625 L1.81116667,17 L3.01878571,17 L3.01878571,7.932625 C4.0547381,7.66345833 4.82997619,6.732 4.82997619,5.62416667 C4.82997619,4.51633333 4.0547381,3.58534722 3.01878571,3.31594444 L3.01878571,0.235875 L1.81116667,0.235875 Z" id="Fill-3" fill="#F4F4F4" mask="url(#mask-2)"></path>
                </g>
                <g id="Group-8" transform="translate(8.000000, 0.000000)">
                    <mask id="mask-4" fill="white">
                        <use xlink:href="#path-3"></use>
                    </mask>
                    <g id="Clip-7"></g>
                    <path d="M2.43207143,10.4141292 C3.10611905,10.4141292 3.63945238,10.9432542 3.63945238,11.6114486 C3.63945238,12.2798792 3.10611905,12.8090042 2.43207143,12.8090042 C1.75802381,12.8090042 1.22445238,12.2798792 1.22445238,11.6114486 C1.22445238,10.9432542 1.75802381,10.4141292 2.43207143,10.4141292 L2.43207143,10.4141292 Z M1.8282619,0.235851389 L1.8282619,9.30322639 C0.792309524,9.57262917 0.0170714286,10.5036153 0.0170714286,11.6114486 C0.0170714286,12.7192819 0.792309524,13.6505042 1.8282619,13.9199069 L1.8282619,16.9999764 L3.03588095,16.9999764 L3.03588095,13.9199069 C4.07159524,13.6505042 4.84707143,12.7192819 4.84707143,11.6114486 C4.84707143,10.5036153 4.07159524,9.57262917 3.03588095,9.30322639 L3.03588095,0.235851389 L1.8282619,0.235851389 Z" id="Fill-6" fill="#F4F4F4" mask="url(#mask-4)"></path>
                </g>
            </g>
        </g>
    </g>
</svg>