<?xml version="1.0" encoding="utf-8"?>
<!-- Generator: Adobe Illustrator 22.0.1, SVG Export Plug-In . SVG Version: 6.00 Build 0)  -->
<svg version="1.1" id="Layer_1" xmlns="http://www.w3.org/2000/svg" xmlns:xlink="http://www.w3.org/1999/xlink" x="0px" y="0px"
	 viewBox="0 0 29.4 28.8" style="enable-background:new 0 0 29.4 28.8;" xml:space="preserve">
<style type="text/css">
	.st0{fill:#21313F;}
</style>
<g>
	<path class="st0" d="M28.9,27.7H1.1V0.6C1.1,0.2,0.9,0,0.6,0C0.2,0,0,0.3,0,0.6v27.6c0,0.3,0.3,0.6,0.6,0.6h28.3
		c0.3,0,0.6-0.3,0.6-0.6C29.4,27.9,29.2,27.7,28.9,27.7z"/>
	<path class="st0" d="M22.8,24.7h2.7c0.3,0,0.6-0.3,0.6-0.6v-9.1c0-0.3-0.3-0.6-0.6-0.6h-2.7c-0.4,0-0.6,0.3-0.6,0.6v9.1
		C22.3,24.5,22.5,24.7,22.8,24.7z M23.4,23.6v-8h1.6v8H23.4z"/>
	<path class="st0" d="M4.6,24.7h2.7c0.3,0,0.6-0.3,0.6-0.6v-8.8c0-0.3-0.3-0.6-0.6-0.6H4.6c-0.4,0-0.6,0.3-0.6,0.6v8.8
		C4.1,24.5,4.3,24.7,4.6,24.7z M5.2,23.6V16h1.6v7.7H5.2z"/>
	<path class="st0" d="M10.7,24.7h2.7c0.3,0,0.6-0.3,0.6-0.6v-8.8c0-0.3-0.3-0.6-0.6-0.6h-2.7c-0.4,0-0.6,0.3-0.6,0.6v8.8
		C10.1,24.5,10.4,24.7,10.7,24.7z M11.2,23.6V16h1.6v7.7H11.2z"/>
	<path class="st0" d="M16.7,24.7h2.7c0.3,0,0.6-0.3,0.6-0.6V4.6C20,4.3,19.7,4,19.4,4h-2.7l0,0c-0.4,0-0.5,0.3-0.5,0.6v19.6
		C16.2,24.5,16.4,24.7,16.7,24.7z M18.9,5.2v18.4h-1.6V5.2H18.9z"/>
</g>
</svg>
