<?xml version="1.0" encoding="utf-8"?>
<!-- Generator: Adobe Illustrator 22.0.1, SVG Export Plug-In . SVG Version: 6.00 Build 0)  -->
<svg version="1.1" id="Layer_1" xmlns="http://www.w3.org/2000/svg" xmlns:xlink="http://www.w3.org/1999/xlink" x="0px" y="0px"
	 viewBox="0 0 16.7 16.7" style="enable-background:new 0 0 16.7 16.7;" xml:space="preserve">
<style type="text/css">
	.st0{fill:#FFFFFF;}
</style>
<g>
	<path class="st0" d="M14.7,16.7H2c-1.1,0-2-0.9-2-2V2c0-1.1,0.9-2,2-2h12.7c1.1,0,2,0.9,2,2v12.7C16.7,15.8,15.8,16.7,14.7,16.7z
		 M2,1.3C1.6,1.3,1.3,1.6,1.3,2v12.7c0,0.4,0.3,0.7,0.7,0.7h12.7c0.4,0,0.7-0.3,0.7-0.7V2c0-0.4-0.3-0.7-0.7-0.7H2z"/>
</g>
<g>
	<g>
		<g>
			<path class="st0" d="M15.2,9.4h-1.7L11.7,3c-0.1-0.2-0.4-0.4-0.7-0.4c-0.3,0-0.6,0.2-0.7,0.4l-2.3,7.9L5.8,7
				C5.7,6.8,5.4,6.6,5,6.6C4.7,6.7,4.4,6.8,4.3,7l-1,2.3H1.5c-0.4,0-0.8,0.2-0.8,0.5c0,0.3,0.3,0.5,0.8,0.5H4c0.3,0,0.6-0.2,0.7-0.4
				l0.5-1.2l2.1,3.9c0.1,0.2,0.4,0.3,0.8,0.3c0.3,0,0.6-0.2,0.7-0.4L11,5.1l1.1,4.9c0.1,0.2,0.4,0.4,0.7,0.4h2.3
				c0.4,0,0.8-0.2,0.8-0.5C16,9.6,15.6,9.4,15.2,9.4L15.2,9.4z"/>
		</g>
	</g>
</g>
</svg>
