<?xml version="1.0" encoding="UTF-8"?>
<svg width="15px" height="15px" viewBox="0 0 15 15" version="1.1" xmlns="http://www.w3.org/2000/svg" xmlns:xlink="http://www.w3.org/1999/xlink">
    <!-- Generator: Sketch 53.2 (72643) - https://sketchapp.com -->
    <title>Fill 1</title>
    <desc>Created with Sketch.</desc>
    <g id="Page-2" stroke="none" stroke-width="1" fill="none" fill-rule="evenodd">
        <g id="Data-Container-6-Copy" transform="translate(-353.000000, -210.000000)" fill="#FFFFFF">
            <g id="Group-2" transform="translate(353.000000, 207.000000)">
                <path d="M14.1666088,9.66668981 L2.84415584,9.66668981 L8.08868671,4.42266881 C8.41454268,4.09684453 8.41454268,3.57019249 8.08868671,3.24436821 C7.76283075,2.91854393 7.23612751,2.91854393 6.91027155,3.24436821 L0.243141885,9.9108497 C0.166469894,9.98751424 0.105632336,10.0800117 0.063129384,10.1816755 C-0.021043128,10.3850032 -0.021043128,10.6149968 0.063129384,10.8183245 C0.105632336,10.9199883 0.166469894,11.0124858 0.243141885,11.0891503 L6.91027155,17.7556318 C7.23612751,18.0814561 7.76283075,18.0814561 8.08868671,17.7556318 C8.41454268,17.4298075 8.41454268,16.9031555 8.08868671,16.5773312 L2.84415584,11.3333102 L14.1666088,11.3333102 C14.6274741,11.3333102 15,10.9599872 15,10.5 C15,10.0400128 14.6274741,9.66668981 14.1666088,9.66668981" id="Fill-1"></path>
            </g>
        </g>
    </g>
</svg>