<?xml version="1.0" encoding="UTF-8"?>
<svg width="22px" height="16px" viewBox="0 0 22 16" version="1.1" xmlns="http://www.w3.org/2000/svg" xmlns:xlink="http://www.w3.org/1999/xlink">
    <!-- Generator: Sketch 53.2 (72643) - https://sketchapp.com -->
    <title>Group 5</title>
    <desc>Created with Sketch.</desc>
    <g id="Page-2" stroke="none" stroke-width="1" fill="none" fill-rule="evenodd">
        <g id="Alert-Definition/5" transform="translate(-397.000000, -671.000000)" fill="#E9A523">
            <g id="Group-5" transform="translate(397.000000, 671.000000)">
                <path d="M22,1.95102816 C22,1.08271894 21.1719617,0.40005786 20.2316964,0.589051006 C19.6818999,0.699436383 19.2385156,1.12648284 19.1245441,1.65387964 C18.9710313,2.36525208 19.3838875,3.00498551 20.0089866,3.24387508 L16.8416239,6.92171515 C16.4747053,7.34792535 15.7966908,7.35712413 15.4172702,6.94150646 L11.6146323,2.77724598 C11.5849765,2.74491087 11.5512502,2.71870828 11.5178147,2.69222694 C12.1516361,2.4594699 12.5743775,1.81834271 12.4223185,1.10167401 C12.3100915,0.572325949 11.8664165,0.142770731 11.3148755,0.0318278518 C10.3743194,-0.157722796 9.54599038,0.525217038 9.54599038,1.39352626 C9.54599038,1.98838079 9.93645927,2.49236251 10.4833483,2.69250569 C10.449622,2.71926579 10.4158958,2.74574713 10.3862399,2.77836099 L6.61878205,6.9231089 C6.24081514,7.33872657 5.56483586,7.33203655 5.1964635,6.9088926 L2.00118941,3.24080882 C2.60302902,3.00554301 3.00454618,2.39675093 2.88679495,1.71353235 C2.79143099,1.16104796 2.33932442,0.703617647 1.76772215,0.589051006 C0.827747529,0.400615362 0,1.08327644 0,1.95130691 C0,2.54616144 0.390759634,3.05042192 0.93793942,3.2505651 C1.08069461,3.91594362 2.82893694,10.5279162 3.16329228,11.791773 C3.19614632,11.9155385 3.3115716,12 3.44444151,12 L18.554977,12 C18.6881377,12 18.8038537,11.9152597 18.836417,11.7914943 C19.1117513,10.7428332 20.3584606,5.98789946 21.0539198,3.25335261 C21.60517,3.05488193 22,2.54894895 22,1.95102816" id="Fill-1"></path>
                <path d="M18.1724138,16 L3.82758621,16 C3.37048276,16 3,15.5523333 3,15 C3,14.4476667 3.37048276,14 3.82758621,14 L18.1724138,14 C18.6295172,14 19,14.4476667 19,15 C19,15.5523333 18.6295172,16 18.1724138,16" id="Fill-3"></path>
            </g>
        </g>
    </g>
</svg>