<?xml version="1.0" encoding="utf-8"?>
<!-- Generator: Adobe Illustrator 22.1.0, SVG Export Plug-In . SVG Version: 6.00 Build 0)  -->
<svg version="1.1" id="Layer_1" xmlns="http://www.w3.org/2000/svg" xmlns:xlink="http://www.w3.org/1999/xlink" x="0px" y="0px"
	 viewBox="0 0 19 18" style="enable-background:new 0 0 19 18;" xml:space="preserve">
<style type="text/css">
	.st0{fill:#F4F4F4;}
</style>
<title>Group 3 Copy 2</title>
<desc>Created with Sketch.</desc>
<g id="Clip-2">
</g>
<g>
	<g>
		<path class="st0" d="M18.4,12.8C18.4,12.8,18.4,12.8,18.4,12.8h-2.8v-4c0-0.3-0.3-0.6-0.6-0.6h-4.9v-3h2.7c0.3,0,0.6-0.3,0.6-0.6
			v-4c0-0.3-0.3-0.6-0.6-0.6H6.1c0,0,0,0-0.1,0C5.7,0,5.5,0.3,5.5,0.6v4c0,0.3,0.3,0.6,0.6,0.6h2.7v3H4c0,0,0,0-0.1,0
			c-0.3,0-0.6,0.3-0.6,0.6v4H0.6c0,0,0,0-0.1,0c-0.3,0-0.6,0.3-0.6,0.6v4C0,17.7,0.3,18,0.6,18h6.8C7.7,18,8,17.7,8,17.4v-4
			c0-0.3-0.3-0.6-0.6-0.6H4.6V9.4h9.7v3.4h-2.7c-0.3,0-0.6,0.3-0.6,0.6v4c0,0.3,0.3,0.6,0.6,0.6h6.8c0.3,0,0.6-0.3,0.6-0.6v-4
			C19,13.1,18.8,12.8,18.4,12.8z M6.8,14v2.8H1.3V14H6.8z M6.8,4V1.2h5.5V4H6.8z M17.7,16.8h-5.5V14h5.5V16.8z"/>
	</g>
</g>
</svg>
