<?xml version="1.0" encoding="UTF-8"?>
<svg width="27px" height="27px" viewBox="0 0 27 27" version="1.1" xmlns="http://www.w3.org/2000/svg" xmlns:xlink="http://www.w3.org/1999/xlink">
    <!-- Generator: Sketch 53.2 (72643) - https://sketchapp.com -->
    <title>Data Container </title>
    <desc>Created with Sketch.</desc>
    <defs>
        <polygon id="path-1" points="0 0 16 0 16 15 0 15"></polygon>
    </defs>
    <g id="Page-2" stroke="none" stroke-width="1" fill="none" fill-rule="evenodd">
        <g id="Data-Container-6-Copy-2" transform="translate(-392.000000, -305.000000)">
            <g id="Data-Container-" transform="translate(392.000000, 305.000000)">
                <circle id="Oval" fill="#6A69BF" cx="13.5" cy="13.5" r="13.5"></circle>
                <g id="Group-3-Copy-3" transform="translate(6.000000, 5.000000)">
                    <mask id="mask-2" fill="white">
                        <use xlink:href="#path-1"></use>
                    </mask>
                    <g id="Clip-2"></g>
                    <path d="M10.311109,13.9999972 L14.933327,13.9999972 L14.933327,11.6668241 L10.311109,11.6668241 L10.311109,13.9999972 Z M1.06667299,13.9999972 L5.688891,13.9999972 L5.688891,11.6668241 L1.06667299,11.6668241 L1.06667299,13.9999972 Z M5.688891,3.33380093 L10.311109,3.33380093 L10.311109,1.00062778 L5.688891,1.00062778 L5.688891,3.33380093 Z M5.10009153,0.000625001736 C4.82738067,0.0274584096 4.62080308,0.243625677 4.6222253,0.500626391 L4.6222253,3.83380232 C4.6222253,4.10996975 4.86098064,4.33380371 5.15555815,4.33380371 L7.46666715,4.33380371 L7.46666715,6.83364398 L3.377782,6.83364398 C3.35929312,6.83281065 3.34080425,6.83281065 3.32231538,6.83364398 C3.04960452,6.86047739 2.84302693,7.07664466 2.84444915,7.33364537 L2.84444915,10.6668213 L0.533340146,10.6668213 C0.514851274,10.665988 0.496362402,10.665988 0.47787353,10.6668213 C0.205162667,10.6936547 -0.00141492181,10.909822 7.29911952e-06,11.1668227 L7.29911952e-06,14.4999986 C7.29911952e-06,14.776166 0.238762637,15 0.533340146,15 L6.22222384,15 C6.51680135,15 6.75555669,14.776166 6.75555669,14.4999986 L6.75555669,11.1668227 C6.75555669,10.8906553 6.51680135,10.6668213 6.22222384,10.6668213 L3.91111484,10.6668213 L3.91111484,7.83364676 L12.0888852,7.83364676 L12.0888852,10.6668213 L9.77777616,10.6668213 C9.48319865,10.6668213 9.24444331,10.8906553 9.24444331,11.1668227 L9.24444331,14.4999986 C9.24444331,14.776166 9.48319865,15 9.77777616,15 L15.4666599,15 C15.7612374,15 15.9999927,14.776166 15.9999927,14.4999986 L15.9999927,11.1668227 C16.0014149,10.909822 15.7948373,10.6936547 15.5223042,10.6668213 C15.5036376,10.6658213 15.4853265,10.6658213 15.4666599,10.6668213 L13.1555509,10.6668213 L13.1555509,7.33364537 C13.1555509,7.05747794 12.9167955,6.83381065 12.622218,6.83364398 L8.53333285,6.83364398 L8.53333285,4.33380371 L10.8444418,4.33380371 C11.1390194,4.33380371 11.3777747,4.10996975 11.3777747,3.83380232 L11.3777747,0.500626391 C11.3777747,0.224458957 11.1390194,0.000625001736 10.8444418,0.000625001736 L5.15555815,0.000625001736 C5.13706928,-0.000208333912 5.11858041,-0.000208333912 5.10009153,0.000625001736 L5.10009153,0.000625001736 Z" id="Fill-1" fill="#F4F4F4" mask="url(#mask-2)"></path>
                </g>
            </g>
        </g>
    </g>
</svg>