<?xml version="1.0" encoding="UTF-8"?>
<svg width="15px" height="19px" viewBox="0 0 15 19" version="1.1" xmlns="http://www.w3.org/2000/svg" xmlns:xlink="http://www.w3.org/1999/xlink">
    <!-- Generator: Sketch 53.2 (72643) - https://sketchapp.com -->
    <title>Combined Shape</title>
    <desc>Created with Sketch.</desc>
    <g id="SG" stroke="none" stroke-width="1" fill="none" fill-rule="evenodd">
        <g id="SG-Alert-Definition/1" transform="translate(-131.000000, -1022.000000)" fill="#7C838F">
            <path d="M144.958437,1022.95 C145.534062,1022.95 146,1023.4231 146,1024.00545 L146,1024.85 L131,1024.85 L131,1024.00545 C131,1023.4231 131.466875,1022.95 132.0425,1022.95 L134.7575,1022.95 C134.796875,1022.5491 135.063125,1022.19 135.464375,1022.05415 C135.570312,1022.01805 135.681875,1022 135.794375,1022 L141.206562,1022 C141.746562,1022 142.190937,1022.4161 142.243437,1022.95 L144.958437,1022.95 Z M135.219031,1027.7 C134.970594,1027.7 134.769969,1027.90425 134.769969,1028.15505 C134.769969,1028.1617 134.769969,1028.16835 134.769969,1028.175 L135.199344,1038.625 C135.210594,1038.89005 135.425281,1039.1 135.687781,1039.1 C135.936219,1039.1 136.136844,1038.89575 136.136844,1038.64495 C136.136844,1038.6383 136.136844,1038.63165 136.136844,1038.625 L135.707469,1028.175 C135.696219,1027.909 135.481531,1027.7 135.219031,1027.7 Z M138.031531,1028.175 L138.031531,1038.625 C138.031531,1038.8872 138.241531,1039.1 138.500281,1039.1 C138.759031,1039.1 138.969031,1038.8872 138.969031,1038.625 L138.969031,1028.175 C138.969031,1027.9128 138.759031,1027.7 138.500281,1027.7 C138.241531,1027.7 138.031531,1027.9128 138.031531,1028.175 Z M141.293094,1028.175 L140.863719,1038.625 C140.853406,1038.87675 141.046531,1039.0886 141.294031,1039.09905 C141.299656,1039.1 141.306219,1039.1 141.312781,1039.1 C141.574344,1039.1 141.789969,1038.89005 141.801219,1038.625 L142.230594,1028.175 C142.240906,1027.92325 142.047781,1027.71045 141.800281,1027.7 C141.794656,1027.7 141.788094,1027.7 141.781531,1027.7 C141.519969,1027.7 141.304344,1027.909 141.293094,1028.175 Z M132.624969,1039.91415 L131.937781,1025.8 L145.062781,1025.8 L144.408406,1039.91415 C144.408406,1039.91415 144.160906,1041 143.229031,1041 L138.909031,1041 L138.123406,1041 L133.803406,1041 C132.871531,1041 132.624969,1039.91415 132.624969,1039.91415 Z" id="Combined-Shape"></path>
        </g>
    </g>
</svg>