<?xml version="1.0" encoding="utf-8"?>
<!-- Generator: Adobe Illustrator 22.0.1, SVG Export Plug-In . SVG Version: 6.00 Build 0)  -->
<svg version="1.1" id="Layer_1" xmlns="http://www.w3.org/2000/svg" xmlns:xlink="http://www.w3.org/1999/xlink" x="0px" y="0px"
	 viewBox="0 0 24.5 28.2" style="enable-background:new 0 0 24.5 28.2;" xml:space="preserve">
<style type="text/css">
	.st0{fill:#22323F;}
</style>
<g>
	<path class="st0" d="M24.4,5.1l-4.9-4.9C19.3,0.1,19.2,0,19.1,0H3.6C3.3,0,3.1,0.2,3.1,0.5v1.6H0.5C0.2,2.1,0,2.3,0,2.6v25
		c0,0.3,0.2,0.5,0.5,0.5h21.4c0.3,0,0.5-0.2,0.5-0.5v-2.6H24c0.3,0,0.5-0.2,0.5-0.5V5.4C24.5,5.3,24.5,5.2,24.4,5.1z M21.4,27.1H1
		v-24h2v21.4c0,0.3,0.2,0.5,0.5,0.5h17.8V27.1z M23.5,24h-1h-1H4.1V3.1v-1V1h14.1v4.7c0,0.3,0.2,0.5,0.5,0.5h4.7V24z"/>
	<path class="st0" d="M6.2,9.9c0,0.3,0.2,0.5,0.5,0.5h14.1c0.3,0,0.5-0.2,0.5-0.5s-0.2-0.5-0.5-0.5H6.7C6.5,9.4,6.2,9.6,6.2,9.9z"/>
	<path class="st0" d="M14.6,18.8H6.7c-0.3,0-0.5,0.2-0.5,0.5c0,0.3,0.2,0.5,0.5,0.5h7.8c0.3,0,0.5-0.2,0.5-0.5
		C15.1,19,14.9,18.8,14.6,18.8z"/>
	<path class="st0" d="M6.7,13.6h9.9c0.3,0,0.5-0.2,0.5-0.5s-0.2-0.5-0.5-0.5H6.7c-0.3,0-0.5,0.2-0.5,0.5S6.5,13.6,6.7,13.6z"/>
	<path class="st0" d="M18.8,15.7h-12c-0.3,0-0.5,0.2-0.5,0.5c0,0.3,0.2,0.5,0.5,0.5h12c0.3,0,0.5-0.2,0.5-0.5
		C19.3,15.9,19,15.7,18.8,15.7z"/>
</g>
</svg>
