<?xml version="1.0" encoding="UTF-8"?>
<svg width="15px" height="15px" viewBox="0 0 15 15" version="1.1" xmlns="http://www.w3.org/2000/svg" xmlns:xlink="http://www.w3.org/1999/xlink">
    <!-- Generator: Sketch 53.2 (72643) - https://sketchapp.com -->
    <title>Group 3</title>
    <desc>Created with Sketch.</desc>
    <g id="Page-2" stroke="none" stroke-width="1" fill="none" fill-rule="evenodd">
        <g id="Alert-Definition/5" transform="translate(-541.000000, -878.000000)" fill="#A6D0F7">
            <g id="Group-3" transform="translate(541.000000, 878.000000)">
                <path d="M14.9121378,7.29475742 L12.5114312,5.3396443 C12.3224457,5.15063034 12.0005798,5.28353078 12.0005798,5.552285 L12.0005798,6.75429564 L8.2503986,6.75429564 L8.2503986,3.00354992 L9.45222831,3.00354992 C9.71798918,3.00354992 9.85086962,2.68163552 9.66483701,2.49262156 L7.71592395,0.0886002926 C7.59780801,-0.0295334309 7.4088225,-0.0295334309 7.29365946,0.0886002926 L5.33884061,2.48966822 C5.1498551,2.67868218 5.28273554,3.00059658 5.55144931,3.00059658 L6.75327902,3.00059658 L6.75327902,6.75134229 L3.00309784,6.75134229 L3.00309784,5.54933166 C3.00309784,5.28353078 2.6812319,5.15063034 2.49224639,5.33669096 L0.088586957,7.28589739 C-0.0295289857,7.40403112 -0.0295289857,7.59304507 0.088586957,7.70822545 L2.48929349,9.66333858 C2.678279,9.85235253 3.00014494,9.7194521 3.00014494,9.45069787 L3.00014494,8.24868724 L6.75032612,8.24868724 L6.75032612,11.999433 L5.54849641,11.999433 C5.28273554,11.999433 5.1498551,12.3213474 5.33588771,12.5103613 L7.28184787,14.9113997 C7.39996381,15.0295334 7.58894932,15.0295334 7.70411236,14.9113997 L9.65893121,12.5103613 C9.84791672,12.3213474 9.71503628,11.999433 9.44632252,11.999433 L8.2444928,11.999433 L8.2444928,8.24868724 L11.994674,8.24868724 L11.994674,9.45069787 C11.994674,9.71649875 12.3165399,9.84939919 12.5055254,9.66333858 L14.906232,7.71708548 C15.0302537,7.59895176 15.0302537,7.4099378 14.9121378,7.29475742" id="Fill-1"></path>
            </g>
        </g>
    </g>
</svg>