<?xml version="1.0" encoding="UTF-8"?>
<svg width="10px" height="16px" viewBox="0 0 10 16" version="1.1" xmlns="http://www.w3.org/2000/svg" xmlns:xlink="http://www.w3.org/1999/xlink">
    <!-- Generator: Sketch 53.2 (72643) - https://sketchapp.com -->
    <title>Group 19 Copy 3</title>
    <desc>Created with Sketch.</desc>
    <defs>
        <polygon id="path-1" points="0 0.000263157895 3.99926491 0.000263157895 3.99926491 3.9999959 0 3.9999959"></polygon>
        <polygon id="path-3" points="0 0.00898312425 3.99926491 0.00898312425 3.99926491 3.99126229 0 3.99126229"></polygon>
        <polygon id="path-5" points="0 0.000258987643 3.99926491 0.000258987643 3.99926491 3.99999867 0 3.99999867"></polygon>
        <polygon id="path-7" points="-1.00412502e-06 0.000263157895 3.99926316 0.000263157895 3.99926316 3.9999959 -1.00412502e-06 3.9999959"></polygon>
        <polygon id="path-9" points="-1.00412502e-06 0.00898312425 3.99926316 0.00898312425 3.99926316 3.99126229 -1.00412502e-06 3.99126229"></polygon>
        <polygon id="path-11" points="-1.00412502e-06 0.000258987643 3.99926316 0.000258987643 3.99926316 3.99999867 -1.00412502e-06 3.99999867"></polygon>
    </defs>
    <g id="Page-2" stroke="none" stroke-width="1" fill="none" fill-rule="evenodd">
        <g id="Alert-Tab/5" transform="translate(-389.000000, -851.000000)">
            <g id="Group-19-Copy-3" transform="translate(389.000000, 851.000000)">
                <g id="Group-3">
                    <mask id="mask-2" fill="white">
                        <use xlink:href="#path-1"></use>
                    </mask>
                    <g id="Clip-2"></g>
                    <path d="M2.67821228,0.118831579 C1.9010193,-0.168887719 0.983475439,0.0802350877 0.458914035,0.722340351 C-0.0744192982,1.37497193 -0.156875439,2.31181404 0.285229825,3.03812982 C0.723826316,3.75918246 1.58172105,4.12584912 2.40628246,3.96093684 C3.32733509,3.77497193 3.99224737,2.93286667 3.99926491,2.00128772 C3.99926491,1.99051579 3.99824737,1.98041053 3.99672105,1.97067368 C3.97894912,1.1444807 3.4545807,0.408235088 2.67821228,0.118831579" id="Fill-1" fill="#A6D0F7" mask="url(#mask-2)"></path>
                </g>
                <g id="Group-6" transform="translate(0.000000, 6.000000)">
                    <mask id="mask-4" fill="white">
                        <use xlink:href="#path-3"></use>
                    </mask>
                    <g id="Clip-5"></g>
                    <path d="M2.67821228,0.127046288 C1.9010193,-0.159416594 0.983475439,0.0886183406 0.458914035,0.727919651 C-0.0744192982,1.37770131 -0.156875439,2.3104524 0.285229825,3.03359651 C0.723826316,3.75150044 1.58172105,4.11656594 2.40628246,3.9523738 C3.32733509,3.76722096 3.99224737,2.92879301 3.99926491,2.0012821 C3.99926491,1.99055721 3.99824737,1.98049607 3.99672105,1.97080175 C3.97894912,1.14821659 3.4545807,0.415186026 2.67821228,0.127046288" id="Fill-4" fill="#A6D0F7" mask="url(#mask-4)"></path>
                </g>
                <g id="Group-9" transform="translate(0.000000, 12.000000)">
                    <mask id="mask-6" fill="white">
                        <use xlink:href="#path-5"></use>
                    </mask>
                    <g id="Clip-8"></g>
                    <path d="M2.67821228,0.118840351 C1.9010193,-0.168878947 0.983475439,0.0802438596 0.458914035,0.722331579 C-0.0744192982,1.3749807 -0.156875439,2.31182281 0.285229825,3.03812105 C0.723826316,3.75919123 1.58172105,4.12584035 2.40628246,3.96094561 C3.32733509,3.77496316 3.99224737,2.93285789 3.99926491,2.00129649 C3.99926491,1.99052456 3.99824737,1.9804193 3.99672105,1.97068246 C3.97894912,1.14448947 3.4545807,0.40824386 2.67821228,0.118840351" id="Fill-7" fill="#A6D0F7" mask="url(#mask-6)"></path>
                </g>
                <g id="Group-12" transform="translate(6.000000, 0.000000)">
                    <mask id="mask-8" fill="white">
                        <use xlink:href="#path-7"></use>
                    </mask>
                    <g id="Clip-11"></g>
                    <path d="M2.40629123,3.96093684 C3.32734386,3.77497193 3.9922386,2.93286667 3.99927368,2.00128772 C3.99927368,1.99051579 3.9982386,1.98041053 3.99671228,1.97067368 C3.97895789,1.1444807 3.45457193,0.408235088 2.67822105,0.118831579 C1.90101053,-0.168887719 0.983466667,0.0802350877 0.458922807,0.722340351 C-0.0744105263,1.37497193 -0.156884211,2.31181404 0.285238596,3.03812982 C0.723835088,3.75918246 1.58172982,4.12584912 2.40629123,3.96093684" id="Fill-10" fill="#A6D0F7" mask="url(#mask-8)"></path>
                </g>
                <g id="Group-15" transform="translate(6.000000, 6.000000)">
                    <mask id="mask-10" fill="white">
                        <use xlink:href="#path-9"></use>
                    </mask>
                    <g id="Clip-14"></g>
                    <path d="M2.67822105,0.127046288 C1.90101053,-0.159416594 0.983466667,0.0886183406 0.458922807,0.727919651 C-0.0744105263,1.37770131 -0.156884211,2.3104524 0.285238596,3.03359651 C0.723835088,3.75150044 1.58172982,4.11656594 2.40629123,3.9523738 C3.32734386,3.76722096 3.9922386,2.92879301 3.99927368,2.0012821 C3.99927368,1.99055721 3.9982386,1.98049607 3.99671228,1.97080175 C3.97895789,1.14821659 3.45457193,0.415186026 2.67822105,0.127046288" id="Fill-13" fill="#A6D0F7" mask="url(#mask-10)"></path>
                </g>
                <g id="Group-18" transform="translate(6.000000, 12.000000)">
                    <mask id="mask-12" fill="white">
                        <use xlink:href="#path-11"></use>
                    </mask>
                    <g id="Clip-17"></g>
                    <path d="M2.67822105,0.118840351 C1.90101053,-0.168878947 0.983466667,0.0802438596 0.458922807,0.722331579 C-0.0744105263,1.3749807 -0.156884211,2.31182281 0.285238596,3.03812105 C0.723835088,3.75919123 1.58172982,4.12584035 2.40629123,3.96094561 C3.32734386,3.77496316 3.9922386,2.93285789 3.99927368,2.00129649 C3.99927368,1.99052456 3.9982386,1.9804193 3.99671228,1.97068246 C3.97895789,1.14448947 3.45457193,0.40824386 2.67822105,0.118840351" id="Fill-16" fill="#A6D0F7" mask="url(#mask-12)"></path>
                </g>
            </g>
        </g>
    </g>
</svg>