<?xml version="1.0" encoding="UTF-8"?>
<svg width="17px" height="17px" viewBox="0 0 17 17" version="1.1" xmlns="http://www.w3.org/2000/svg" xmlns:xlink="http://www.w3.org/1999/xlink">
    <!-- Generator: Sketch 53.2 (72643) - https://sketchapp.com -->
    <title>Group 8</title>
    <desc>Created with Sketch.</desc>
    <g id="SG" stroke="none" stroke-width="1" fill="none" fill-rule="evenodd">
        <g id="SG-Alert-Definition/1" transform="translate(-1158.000000, -1235.000000)" fill="#FA364D">
            <g id="Group-8" transform="translate(1158.000000, 1235.000000)">
                <path d="M8.49187623,11.0125661 C8.17234142,11.0078287 7.91711976,10.7452412 7.92185862,10.4264817 L7.92185862,4.20221145 C7.91711976,3.90443186 8.13849239,3.65199598 8.43365591,3.61815739 C8.45396532,3.61477353 8.47359776,3.61274321 8.49390718,3.61206644 C8.5,3.61138967 8.50609282,3.61138967 8.51218565,3.61206644 C8.83104348,3.61883416 9.08491118,3.88277516 9.07814138,4.20221145 L9.07814138,10.4264817 C9.07814138,10.4318959 9.07814138,10.43731 9.07814138,10.4427242 C9.07340251,10.7614837 8.81141105,11.0166267 8.49187623,11.0125661 Z M13.6968411,13.6951541 C16.5713004,10.8209043 16.5773932,6.17892652 13.7029339,3.30467669 C12.2657042,1.86789016 10.3803134,1.14848174 8.50033849,1.14983529 C6.62036355,1.15051206 4.74106558,1.87398111 3.30315893,3.31076764 C0.428699582,6.18434069 0.428699582,10.8209043 3.30315893,13.6951541 C6.17829526,16.5687272 10.8217047,16.5687272 13.6968411,13.6951541 Z M14.5153105,2.48578282 C17.8318382,5.80128786 17.8264223,11.198543 14.5098947,14.5133712 C11.1933671,17.8288763 5.80663294,17.8288763 2.49010531,14.5133712 C-0.826422329,11.198543 -0.831838173,5.80128786 2.48468946,2.48578282 C4.14261479,0.828368681 6.32113815,9.59232693e-14 8.50033849,9.59232693e-14 C10.6788618,9.59232693e-14 12.8573852,0.828368681 14.5153105,2.48578282 Z M8.50020309,11.8529136 C8.91790008,11.8529136 9.26451412,12.1933298 9.26451412,12.6115748 C9.26451412,13.029143 8.91790008,13.3756501 8.50020309,13.3756501 C8.08182912,13.3756501 7.73521509,13.029143 7.73521509,12.6115748 C7.73521509,12.1933298 8.08182912,11.8529136 8.50020309,11.8529136 Z" id="Combined-Shape"></path>
            </g>
        </g>
    </g>
</svg>