<?xml version="1.0" encoding="UTF-8"?>
<svg width="18px" height="18px" viewBox="0 0 18 18" version="1.1" xmlns="http://www.w3.org/2000/svg" xmlns:xlink="http://www.w3.org/1999/xlink">
    <!-- Generator: Sketch 53.2 (72643) - https://sketchapp.com -->
    <title>icons/details copy 4</title>
    <desc>Created with Sketch.</desc>
    <g id="Page-2" stroke="none" stroke-width="1" fill="none" fill-rule="evenodd">
        <g id="--Additional-Settings/Resolution-Codes4" transform="translate(-856.000000, -132.000000)" fill="#FFFFFF">
            <g id="icons/details-copy-4" transform="translate(856.000000, 132.000000)">
                <g id="Group">
                    <path d="M9,16.3636364 C4.93322727,16.3636364 1.63636364,13.0667727 1.63636364,9 C1.63636364,4.93322727 4.93322727,1.63636364 9,1.63636364 C13.0667727,1.63636364 16.3636364,4.93322727 16.3636364,9 C16.3636364,13.0667727 13.0667727,16.3636364 9,16.3636364 M9,0 C4.02934091,0 0,4.02934091 0,9 C0,13.9706591 4.02934091,18 9,18 C13.9706591,18 18,13.9706591 18,9 C18,4.02934091 13.9706591,0 9,0" id="Fill-5"></path>
                    <path d="M10.5967614,5.12697452 C10.3281792,5.36946207 10.0043222,5.49059846 9.62616424,5.49059846 C9.24630182,5.49059846 8.92195775,5.36946207 8.64996652,5.12697452 C8.37894929,4.88556087 8.24307542,4.59195548 8.24307542,4.24809138 C8.24307542,3.90465684 8.37894929,3.61040711 8.64996652,3.36598653 C8.92122725,3.12156595 9.24630182,3 9.62616424,3 C10.0043222,3 10.3281792,3.12221029 10.5967614,3.36598653 C10.8658306,3.61040711 11,3.90465684 11,4.24809138 C11,4.59195548 10.8658306,4.88556087 10.5967614,5.12697452 M9.89742497,13.8655472 C9.65684544,13.9553256 9.37657515,14 9.05783162,14 C8.5683935,14 8.18731357,13.8713463 7.91580934,13.6157571 C7.64430511,13.3595236 7.50818774,13.0339158 7.50818774,12.6395782 C7.50818774,12.4866543 7.5181713,12.3296495 7.53886894,12.1698526 C7.55932307,12.0096261 7.59195227,11.8287806 7.63700006,11.6271014 L8.14250928,9.70824954 C8.18731357,9.52439715 8.22578681,9.3502099 8.25622451,9.18525823 C8.28739271,9.02159524 8.3022463,8.87124866 8.3022463,8.73550718 C8.3022463,8.49065703 8.255007,8.31926193 8.1610154,8.22282534 C8.0665368,8.12638875 7.88707616,8.07763351 7.62019845,8.07763351 C7.48943812,8.07763351 7.35526876,8.10040027 7.21842089,8.143786 C7.08084252,8.18717173 7,7.67685248 7,7.67685248 C7.33091861,7.53230499 7.64747063,7.40859123 7.95014306,7.30571122 C8.25305899,7.2028312 8.53892981,7.15085424 8.80946004,7.15085424 C9.29573264,7.15085424 9.67096853,7.27714537 9.93443721,7.52929806 C10.1976624,7.78145075 10.3296402,8.10856194 10.3296402,8.51192034 C10.3296402,8.5952553 10.3208742,8.74216538 10.3026116,8.95200625 C10.2843489,9.16270624 10.2505022,9.35536464 10.2010714,9.53084057 L9.6977537,11.4428195 C9.65684544,11.5963878 9.6193462,11.7716489 9.58720399,11.9692473 C9.55408778,12.165557 9.53801668,12.3152592 9.53801668,12.4159914 C9.53801668,12.6700771 9.59061302,12.8429757 9.69677969,12.9351167 C9.80294637,13.0274724 9.98654654,13.0732207 10.2470932,13.0732207 C10.3695745,13.0732207 10.5088574,13.0500244 10.6634809,13.0040613 C10.8181043,12.958313 10.8653436,13.4742165 10.8653436,13.4742165 C10.4611311,13.6456116 10.137761,13.7757688 9.89742497,13.8655472" id="Fill-8"></path>
                </g>
            </g>
        </g>
    </g>
</svg>