<?xml version="1.0" encoding="UTF-8"?>
<svg width="16px" height="16px" viewBox="0 0 16 16" version="1.1" xmlns="http://www.w3.org/2000/svg" xmlns:xlink="http://www.w3.org/1999/xlink">
    <!-- Generator: Sketch 53.2 (72643) - https://sketchapp.com -->
    <title>Fill 1 Copy</title>
    <desc>Created with Sketch.</desc>
    <g id="Page-2" stroke="none" stroke-width="1" fill="none" fill-rule="evenodd">
        <g id="--Additional-Settings/Resolution-Codes4" transform="translate(-579.000000, -416.000000)" fill="#A6D0F7">
            <path d="M591.294737,424.235789 C591.294737,424.724042 590.890526,425.128421 590.402105,425.128421 L588.128421,425.128421 L588.128421,427.402105 C588.128421,427.890358 587.724211,428.294737 587.235789,428.294737 L586.764211,428.294737 C586.275789,428.294737 585.871579,427.890358 585.871579,427.402105 L585.871579,425.128421 L583.597895,425.128421 C583.109474,425.128421 582.705263,424.724042 582.705263,424.235789 L582.705263,423.764042 C582.705263,423.275789 583.109474,422.871411 583.597895,422.871411 L585.871579,422.871411 L585.871579,420.597726 C585.871579,420.109474 586.275789,419.705263 586.764211,419.705263 L587.235789,419.705263 C587.724211,419.705263 588.128421,420.109474 588.128421,420.597726 L588.128421,422.871411 L590.402105,422.871411 C590.890526,422.871411 591.294737,423.275789 591.294737,423.764042 L591.294737,424.235789 Z M587,416 C582.587368,416 579,419.5872 579,424 C579,428.412632 582.587368,432 587,432 C591.412632,432 595,428.412632 595,424 C595,419.5872 591.412632,416 587,416 L587,416 Z" id="Fill-1-Copy"></path>
        </g>
    </g>
</svg>