<?xml version="1.0" encoding="utf-8"?>
<!-- Generator: Adobe Illustrator 22.0.1, SVG Export Plug-In . SVG Version: 6.00 Build 0)  -->
<svg version="1.1" id="Layer_1" xmlns="http://www.w3.org/2000/svg" xmlns:xlink="http://www.w3.org/1999/xlink" x="0px" y="0px"
	 viewBox="0 0 28.8 26.1" style="enable-background:new 0 0 28.8 26.1;" xml:space="preserve">
<style type="text/css">
	.st0{fill:#21313F;}
</style>
<path class="st0" d="M0,8.1l0,17.4c0,0.3,0.3,0.6,0.6,0.6h27.7c0.3,0,0.6-0.3,0.6-0.6V9.4c0-0.3-0.3-0.6-0.6-0.6h-1.9V5.5
	c0-0.3-0.3-0.6-0.6-0.6h-1.9V2.3c0-0.3-0.3-0.6-0.6-0.6H11.7V1.4c0-0.8-0.6-1.4-1.4-1.4L6.4,0C5.6,0,5,0.6,5,1.4v1.3H4.2
	c-0.9,0-1.6,0.7-1.6,1.6v1.8H1.9C0.8,6.2,0,7,0,8.1z M9.3,9.9h18.3v15H1.1V8c0-0.4,0.3-0.7,0.7-0.7H8c0.4,0,0.7,0.3,0.7,0.7v1.3
	C8.8,9.6,9,9.9,9.3,9.9z M10.3,6h14.9v2.7H9.9V8c0-1-0.8-1.9-1.9-1.9H3.6V4.4c0-0.3,0.2-0.5,0.5-0.5h5.1c0.3,0,0.5,0.2,0.5,0.5v1
	C9.7,5.8,10,6,10.3,6z M6.3,1.2h4c0.1,0,0.3,0.1,0.3,0.3v0.8c0,0.3,0.3,0.6,0.6,0.6h11.4v2.1H10.8V4.4c0-0.9-0.7-1.6-1.6-1.6H6.1
	V1.4C6.1,1.3,6.2,1.2,6.3,1.2z"/>
</svg>
