<?xml version="1.0" encoding="UTF-8"?>
<svg width="17px" height="18px" viewBox="0 0 17 18" version="1.1" xmlns="http://www.w3.org/2000/svg" xmlns:xlink="http://www.w3.org/1999/xlink">
    <!-- Generator: Sketch 53.2 (72643) - https://sketchapp.com -->
    <title>Combined Shape</title>
    <desc>Created with Sketch.</desc>
    <g id="Page-2" stroke="none" stroke-width="1" fill="none" fill-rule="evenodd">
        <g id="Alert-Definition/4" transform="translate(-1328.000000, -655.000000)" fill="#0E66B9">
            <path d="M1339.33285,666.936226 C1341.65176,664.494812 1341.65176,660.522381 1339.33285,658.080967 C1338.19475,656.902614 1336.69683,656.252824 1335.11703,656.252824 C1333.54153,656.252824 1332.00503,656.919253 1330.90141,658.080967 C1329.77828,659.263642 1329.15966,660.835932 1329.15966,662.508704 C1329.15966,664.181477 1329.77828,665.753767 1330.90141,666.936226 C1332.02453,668.118684 1333.52183,668.769987 1335.11703,668.769987 C1336.71243,668.769987 1338.20952,668.118684 1339.33285,666.936226 Z M1340.13764,667.805134 C1340.01305,667.936302 1339.84351,668.109176 1339.64771,668.279025 L1342.90851,671.712088 C1343.03412,671.843689 1343.23034,671.843689 1343.35575,671.711872 L1343.74223,671.325931 C1343.85491,671.188928 1343.84773,670.959654 1343.72499,670.83043 L1340.47712,667.411197 C1340.37388,667.541285 1340.26325,667.672885 1340.13764,667.805134 Z M1344.54845,669.981186 C1344.836,670.272263 1345.00041,670.677221 1345,671.093847 C1344.99959,671.490593 1344.84873,671.869187 1344.58622,672.132604 L1344.20158,672.537562 C1343.88529,672.843333 1343.5222,673 1343.14249,673 C1342.74841,673 1342.36213,672.831232 1342.08299,672.537562 L1338.68242,668.957556 C1337.59624,669.623769 1336.36885,669.974704 1335.11703,669.974704 C1333.20821,669.974704 1331.41802,669.196554 1330.07589,667.783525 C1328.73726,666.374169 1328,664.493083 1328,662.487095 C1328,660.480892 1328.73726,658.599806 1330.07589,657.19045 C1332.85005,654.269742 1337.36348,654.269958 1340.13764,657.19045 C1342.44895,659.645478 1342.86684,663.480473 1341.17374,666.407231 L1344.54845,669.981186 Z M1333.75624,666.165531 C1333.91367,666.21372 1334.04359,666.326304 1334.11482,666.477353 C1334.18727,666.631427 1334.19199,666.810352 1334.12754,666.968964 C1334.03969,667.199967 1333.81761,667.359875 1333.57768,667.359875 C1333.51118,667.359875 1333.44406,667.356202 1333.35519,667.313199 C1332.70783,667.061019 1332.14524,666.677455 1331.63581,666.141329 C1330.17279,664.600805 1329.79411,662.24626 1330.69372,660.282411 C1330.75324,660.135468 1330.87618,660.018994 1331.03443,659.967564 C1331.17154,659.923265 1331.32322,659.933205 1331.46176,659.995656 C1331.61385,660.064373 1331.72468,660.193813 1331.77333,660.36042 C1331.8154,660.50477 1331.80596,660.664462 1331.74665,660.810325 C1331.05495,662.328159 1331.34354,664.115461 1332.45948,665.27026 C1332.83549,665.666141 1333.27103,665.966726 1333.75624,666.165531 Z" id="Combined-Shape"></path>
        </g>
    </g>
</svg>