<?xml version="1.0" encoding="UTF-8"?>
<svg width="22px" height="15px" viewBox="0 0 22 15" version="1.1" xmlns="http://www.w3.org/2000/svg" xmlns:xlink="http://www.w3.org/1999/xlink">
    <!-- Generator: Sketch 53.2 (72643) - https://sketchapp.com -->
    <title>Group 6</title>
    <desc>Created with Sketch.</desc>
    <g id="Page-2" stroke="none" stroke-width="1" fill="none" fill-rule="evenodd">
        <g id="Alert-Definition/4" transform="translate(-1411.000000, -657.000000)" fill="#0E66B9">
            <g id="Group-6" transform="translate(1411.000000, 657.000000)">
                <path d="M8.15432794,6.08205722 L7.20530742,6.08205722 C7.20530742,3.83143708 8.91391488,2.00127336 11.0150528,2.00127336 L11.0150528,3.01781048 C9.43775198,3.01781048 8.15432794,4.39254176 8.15432794,6.08205722 Z M11.3824567,13.9819745 C16.3158349,13.9819745 20.0354951,8.76335373 20.8640933,7.49975194 C20.2740239,6.59930544 18.2152654,3.69257483 15.2964136,2.09459236 C16.1646123,3.16297338 16.6923862,4.55680503 16.6923862,6.0811146 C16.6923862,9.43633207 14.1454542,12.1659501 11.0151686,12.1659501 C7.884883,12.1659501 5.33818251,9.43633207 5.33818251,6.0811146 C5.33818251,4.82842732 5.6941231,3.66330412 6.30248739,2.69489003 C3.7458289,4.32412767 1.83088243,6.66950554 1.19773892,7.49975194 C2.20627586,8.81916653 6.46598385,13.9819745 11.3824567,13.9819745 Z M9.80492426,1.19116917 C7.78345035,1.76591698 6.2874346,3.73697701 6.2874346,6.08086655 C6.2874346,8.87497933 8.40825693,11.1479246 11.0151686,11.1479246 C13.6213855,11.1479246 15.7419762,8.87497933 15.7419762,6.08086655 C15.7419762,3.33785348 13.6945652,1.10286092 11.1522648,1.02422689 C10.696281,1.0391103 10.24655,1.0966595 9.80492426,1.19116917 Z M21.8388194,7.22763354 L22,7.49975194 L21.8388194,7.77162229 C21.6639754,8.06680999 17.4934262,15 11.3824567,15 C5.29487679,15 0.416151749,8.09732099 0.211433805,7.80362163 L0,7.49975194 L0.211433805,7.19538614 C0.395541006,6.93194973 4.34122464,1.35364644 9.54624786,0.207871672 C10.0149686,0.0731767819 10.5073106,0.000248056888 11.0151686,0.000248056888 C11.0830219,0.000248056888 11.1504121,0.00322473954 11.2178023,0.00570530842 C11.2726871,0.00471308087 11.3271087,2.27373675e-13 11.3824567,2.27373675e-13 C17.4934262,2.27373675e-13 21.6637438,6.93219778 21.8388194,7.22763354 Z" id="Combined-Shape"></path>
            </g>
        </g>
    </g>
</svg>