<?xml version="1.0" encoding="UTF-8"?>
<svg width="1243px" height="361px" viewBox="0 0 1243 361" version="1.1" xmlns="http://www.w3.org/2000/svg" xmlns:xlink="http://www.w3.org/1999/xlink">
    <!-- Generator: Sketch 58 (84663) - https://sketch.com -->
    <title>Group 20</title>
    <desc>Created with Sketch.</desc>
    <g id="Page-1" stroke="none" stroke-width="1" fill="none" fill-rule="evenodd">
        <g id="Group-20">
            <rect id="Rectangle-Copy" fill="#FFFFFF" x="0" y="0" width="1243" height="40"></rect>
            <rect id="Rectangle-Copy-2" fill="#FFFFFF" x="0" y="40" width="1243" height="40"></rect>
            <rect id="Rectangle-Copy-4" fill="#FFFFFF" x="0" y="80" width="1243" height="40"></rect>
            <rect id="Rectangle-Copy-6" fill="#FFFFFF" x="0" y="121" width="1243" height="40"></rect>
            <rect id="Rectangle-Copy-8" fill="#FFFFFF" x="0" y="161" width="1243" height="40"></rect>
            <rect id="Rectangle-Copy-9" fill="#FFFFFF" x="0" y="202" width="1243" height="40"></rect>
            <rect id="Rectangle-Copy-21" fill="#FFFFFF" x="0" y="242" width="1243" height="40"></rect>
            <rect id="Rectangle-Copy-23" fill="#FFFFFF" x="0" y="282" width="1243" height="40"></rect>
            <rect id="Rectangle-Copy-25" fill="#FFFFFF" x="0" y="321" width="1243" height="40"></rect>
            <g id="Group-Copy-3" transform="translate(18.000000, 6.000000)" fill="#E6E6E6" opacity="0.804129464">
                <rect id="Rectangle-Copy-21" x="0" y="0" width="119.14" height="29"></rect>
                <rect id="Rectangle-Copy-25" x="259" y="0" width="119.14" height="29"></rect>
                <rect id="Rectangle-Copy-26" x="493" y="0" width="62.16" height="29"></rect>
            </g>
            <g id="Group-Copy-6" transform="translate(18.000000, 126.000000)" fill="#E6E6E6" opacity="0.804129464">
                <rect id="Rectangle-Copy-21" x="0" y="0" width="119.14" height="29"></rect>
                <rect id="Rectangle-Copy-25" x="259" y="0" width="78" height="29"></rect>
                <rect id="Rectangle-Copy-26" x="493" y="0" width="78" height="29"></rect>
            </g>
            <g id="Group-Copy-9" transform="translate(18.000000, 248.000000)" fill="#E6E6E6" opacity="0.804129464">
                <rect id="Rectangle-Copy-21" x="0" y="0" width="119.14" height="29"></rect>
                <rect id="Rectangle-Copy-25" x="259" y="0" width="119.14" height="29"></rect>
                <rect id="Rectangle-Copy-26" x="491" y="0" width="62.16" height="29"></rect>
            </g>
            <g id="Group-Copy-5" transform="translate(17.000000, 86.000000)" fill="#E6E6E6" opacity="0.804129464">
                <rect id="Rectangle-Copy-21" x="0" y="0" width="89" height="29"></rect>
                <rect id="Rectangle-Copy-25" x="259.009009" y="0" width="119.144144" height="29"></rect>
                <rect id="Rectangle-Copy-26" x="494" y="0" width="119.144144" height="29"></rect>
            </g>
            <g id="Group-Copy-7" transform="translate(17.000000, 207.000000)" fill="#E6E6E6" opacity="0.804129464">
                <rect id="Rectangle-Copy-21" x="0" y="0" width="119.144144" height="29"></rect>
                <rect id="Rectangle-Copy-25" x="259.009009" y="0" width="119.144144" height="29"></rect>
                <rect id="Rectangle-Copy-26" x="493" y="0" width="119.144144" height="29"></rect>
            </g>
            <g id="Group-Copy-10" transform="translate(17.000000, 326.000000)" fill="#E6E6E6" opacity="0.804129464">
                <rect id="Rectangle-Copy-21" x="0" y="0" width="119.144144" height="29"></rect>
                <rect id="Rectangle-Copy-25" x="259.009009" y="0" width="119.144144" height="29"></rect>
                <rect id="Rectangle-Copy-26" x="494" y="0" width="119.144144" height="29"></rect>
            </g>
            <g id="Group-Copy-4" transform="translate(18.000000, 46.000000)" fill="#E6E6E6" opacity="0.804129464">
                <rect id="Rectangle-Copy-21" x="0" y="0" width="147.100189" height="29"></rect>
                <rect id="Rectangle-Copy-25" x="258.979206" y="0" width="92.1965974" height="29"></rect>
                <rect id="Rectangle-Copy-26" x="493" y="0" width="92.1965974" height="29"></rect>
            </g>
            <g id="Group-Copy-8" transform="translate(18.000000, 167.000000)" fill="#E6E6E6" opacity="0.804129464">
                <rect id="Rectangle-Copy-21" x="0" y="0" width="163" height="29"></rect>
                <rect id="Rectangle-Copy-25" x="258.979206" y="0" width="92.1965974" height="29"></rect>
                <rect id="Rectangle-Copy-26" x="492" y="0" width="92.1965974" height="29"></rect>
            </g>
            <g id="Group-Copy-11" transform="translate(18.000000, 287.000000)" fill="#E6E6E6" opacity="0.804129464">
                <rect id="Rectangle-Copy-21" x="0" y="0" width="147.100189" height="29"></rect>
                <rect id="Rectangle-Copy-25" x="258.979206" y="0" width="92.1965974" height="29"></rect>
                <rect id="Rectangle-Copy-26" x="491" y="0" width="92.1965974" height="29"></rect>
            </g>
            <rect id="Rectangle" fill="#D8D8D8" x="0" y="40" width="1243" height="1"></rect>
            <rect id="Rectangle-Copy-3" fill="#D8D8D8" x="0" y="80" width="1243" height="1"></rect>
            <rect id="Rectangle-Copy-5" fill="#D8D8D8" x="0" y="120" width="1243" height="1"></rect>
            <rect id="Rectangle-Copy-13" fill="#D8D8D8" x="0" y="160" width="1243" height="1"></rect>
            <rect id="Rectangle-Copy-18" fill="#D8D8D8" x="0" y="201" width="1243" height="1"></rect>
            <rect id="Rectangle-Copy-20" fill="#D8D8D8" x="0" y="242" width="1243" height="1"></rect>
            <rect id="Rectangle-Copy-22" fill="#D8D8D8" x="0" y="282" width="1243" height="1"></rect>
            <rect id="Rectangle-Copy-24" fill="#D8D8D8" x="0" y="320" width="1243" height="1"></rect>
        </g>
    </g>
</svg>