<?xml version="1.0" encoding="utf-8"?>
<!-- Generator: Adobe Illustrator 22.0.1, SVG Export Plug-In . SVG Version: 6.00 Build 0)  -->
<svg version="1.1" id="Layer_1" xmlns="http://www.w3.org/2000/svg" xmlns:xlink="http://www.w3.org/1999/xlink" x="0px" y="0px"
	 viewBox="0 0 27.5 27.5" style="enable-background:new 0 0 27.5 27.5;" xml:space="preserve">
<style type="text/css">
	.st0{fill:#21313F;}
</style>
<g>
	<circle class="st0" cx="3.3" cy="3.3" r="1"/>
	<circle class="st0" cx="7.4" cy="3.3" r="1"/>
	<circle class="st0" cx="11.5" cy="3.3" r="1"/>
	<path class="st0" d="M0,0v27.5h27.5V0H0z M26.4,26.4H1.1V6.6l25.4-0.1L26.4,26.4z M26.5,5.6H1V1h25.4V5.6z"/>
	<path class="st0" d="M9,8.2H2.7v6.6H9V8.2z M7.9,13.6h-4V9.3h4V13.6z"/>
	<path class="st0" d="M9,17.3H2.7v6.6H9V17.3z M7.9,22.7h-4v-4.3h4V22.7z"/>
	<path class="st0" d="M17,17.3h-6.3v6.6H17V17.3z M15.8,22.7h-4v-4.3h4V22.7z"/>
	<path class="st0" d="M24.9,17.3h-6.3v6.6h6.3V17.3z M23.7,22.7h-4v-4.3h4V22.7z"/>
	<path class="st0" d="M17,8.2h-6.3v6.6H17V8.2z M15.8,13.6h-4V9.3h4V13.6z"/>
	<path class="st0" d="M25,8.2h-6.3v6.6H25V8.2z M23.8,13.6h-4V9.3h4V13.6z"/>
</g>
</svg>
