<?xml version="1.0" encoding="UTF-8"?>
<svg width="15px" height="21px" viewBox="0 0 15 21" version="1.1" xmlns="http://www.w3.org/2000/svg" xmlns:xlink="http://www.w3.org/1999/xlink">
    <!-- Generator: Sketch 53.2 (72643) - https://sketchapp.com -->
    <title>Combined Shape</title>
    <desc>Created with Sketch.</desc>
    <g id="Page-2" stroke="none" stroke-width="1" fill="none" fill-rule="evenodd">
        <g id="Alert-Definition/4" transform="translate(-1372.000000, -654.000000)" fill="#0E66B9">
            <path d="M1386.4281,668.302556 L1386.97346,670.223756 C1387.06964,670.563095 1386.89606,670.924369 1386.5876,671.031461 C1386.52896,671.050815 1386.46915,671.059846 1386.41168,671.059846 C1386.16069,671.059846 1385.92965,670.88308 1385.85224,670.606964 L1385.31039,668.693506 C1384.3346,665.340114 1384.11645,661.696414 1384.07423,659.822953 C1384.07423,657.317264 1382.23406,655.291552 1379.97049,655.291552 C1377.70693,655.291552 1375.86676,657.357262 1375.86676,659.897788 C1375.87028,660.963545 1375.67794,664.709176 1373.06722,668.849627 C1372.88425,669.141227 1372.51716,669.213481 1372.2521,669.01091 C1371.98704,668.808339 1371.91902,668.405777 1372.1055,668.112888 C1374.58134,664.182749 1374.69628,660.59711 1374.69393,659.918433 C1374.69393,656.645037 1377.0607,654 1379.97049,654 C1382.88029,654 1385.24706,656.605039 1385.24706,659.80618 C1385.2799,661.242242 1385.46051,664.978841 1386.4281,668.302556 Z M1382.90163,659.80618 C1382.91922,660.558403 1382.93213,667.48711 1378.09889,674.392594 C1377.98513,674.557747 1377.81038,674.644195 1377.63445,674.644195 C1377.51013,674.644195 1377.38464,674.600326 1377.27791,674.510007 C1377.01989,674.293243 1376.97298,673.888101 1377.17001,673.605534 C1381.74991,667.061324 1381.74639,660.542919 1381.7288,659.820373 C1381.72763,658.739133 1380.93831,657.870786 1379.96956,657.870786 C1378.99845,657.870786 1378.21031,658.739133 1378.21031,659.80618 C1378.21618,660.013912 1378.35926,665.532363 1374.37985,671.230161 C1374.18281,671.511438 1373.81572,671.566919 1373.55769,671.348865 C1373.30084,671.132101 1373.25276,670.726959 1373.44979,670.444391 C1377.1747,665.111738 1377.04452,660.043588 1377.03748,659.830695 C1377.03748,658.028198 1378.35457,656.580524 1379.96956,656.580524 C1381.58572,656.580524 1382.90163,658.028198 1382.90163,659.80618 Z M1379.68374,663.021126 C1379.36473,662.964354 1379.14658,662.632757 1379.19701,662.280515 C1379.41516,660.787682 1379.38232,659.84321 1379.38232,659.834178 C1379.36942,659.478066 1379.62041,659.177435 1379.94293,659.161952 C1380.2854,659.140017 1380.53873,659.422585 1380.55398,659.777407 C1380.55632,659.819986 1380.59503,660.849615 1380.35577,662.486957 C1380.31003,662.803072 1380.06022,663.028868 1379.77756,663.028868 C1379.74707,663.028868 1379.7154,663.026287 1379.68374,663.021126 Z M1379.40367,664.366869 C1379.71447,664.46751 1379.89156,664.827493 1379.80008,665.169412 C1379.0225,668.053148 1377.73356,670.748506 1375.96845,673.18065 C1375.85234,673.340643 1375.68228,673.421929 1375.50987,673.421929 C1375.38086,673.421929 1375.25185,673.37677 1375.14395,673.282581 C1374.89062,673.058075 1374.84957,672.652933 1375.05129,672.375527 C1376.7214,670.072409 1377.94115,667.525431 1378.67417,664.801688 C1378.76682,664.461059 1379.09169,664.264939 1379.40367,664.366869 Z M1383.72666,670.247663 L1384.36348,672.587783 C1384.45114,672.910389 1384.29589,673.252548 1384.01709,673.353973 C1383.73722,673.456621 1383.44257,673.275766 1383.35492,672.954381 L1382.72338,670.62526 C1382.69381,670.5275 1382.66635,670.427297 1382.63889,670.329537 C1382.1552,671.51976 1381.41382,673.228108 1380.59747,674.715275 C1380.49608,674.899796 1380.32711,675 1380.1518,675 C1380.05358,675 1379.95642,674.968228 1379.86877,674.904684 C1379.6227,674.722607 1379.54877,674.346233 1379.70613,674.060286 C1381.05475,671.604077 1382.23124,668.404896 1382.24286,668.371902 C1382.32945,668.134835 1382.53011,667.982086 1382.75928,668.001637 C1382.98212,668.015079 1383.17221,668.189825 1383.23452,668.439111 C1383.23558,668.441555 1383.4732,669.370271 1383.72666,670.247663 Z" id="Combined-Shape"></path>
        </g>
    </g>
</svg>