<?xml version="1.0" encoding="UTF-8"?>
<svg width="12px" height="12px" viewBox="0 0 12 12" version="1.1" xmlns="http://www.w3.org/2000/svg" xmlns:xlink="http://www.w3.org/1999/xlink">
    <!-- Generator: Sketch 53.2 (72643) - https://sketchapp.com -->
    <title>Group 3</title>
    <desc>Created with Sketch.</desc>
    <g id="Page-2" stroke="none" stroke-width="1" fill="none" fill-rule="evenodd">
        <g id="--Additional-Settings/Auto-text-templates2" transform="translate(-1198.000000, -644.000000)" fill="#0063C7">
            <g id="Group-3" transform="translate(1198.000000, 644.000000)">
                <path d="M9,11.25 L9,5.62513043 C9,5.418 9.168,5.25 9.37486957,5.25 C9.582,5.25 9.75,5.418 9.75,5.62513043 L9.75,11.6248696 C9.75,11.832 9.582,12 9.37486957,12 L0.374869565,12 C0.168,12 0,11.832 0,11.6248696 L0,2.62486957 C0,2.418 0.168,2.25 0.374869565,2.25 L6.37486957,2.25 C6.582,2.25 6.75,2.418 6.75,2.62486957 C6.75,2.832 6.582,3 6.37486957,3 L0.75,3 L0.75,11.25 L9,11.25 Z M10.7196522,0.75 L7.12513043,0.75 C6.918,0.75 6.75,0.582 6.75,0.374869565 C6.75,0.168 6.918,0 7.12513043,0 L11.6251304,0 C11.832,0 12,0.168 12,0.374869565 L12,4.87513043 C12,5.082 11.832,5.25 11.6251304,5.25 C11.418,5.25 11.25,5.082 11.25,4.87513043 L11.25,1.28034783 L4.39017391,8.14017391 C4.24382609,8.28678261 4.00617391,8.28678261 3.85982609,8.14017391 C3.71347826,7.99382609 3.71347826,7.75617391 3.85982609,7.60982609 L10.7196522,0.75 Z" id="Fill-1"></path>
            </g>
        </g>
    </g>
</svg>