<?xml version="1.0" encoding="utf-8"?>
<!-- Generator: Adobe Illustrator 22.1.0, SVG Export Plug-In . SVG Version: 6.00 Build 0)  -->
<svg version="1.1" id="Layer_1" xmlns="http://www.w3.org/2000/svg" xmlns:xlink="http://www.w3.org/1999/xlink" x="0px" y="0px"
	 viewBox="0 0 4 18" style="enable-background:new 0 0 4 18;" xml:space="preserve">
<style type="text/css">
	.st0{fill-rule:evenodd;clip-rule:evenodd;fill:#FFFFFF;}
</style>
<g>
	<g>
		<path class="st0" d="M2,14c-1.1,0-2,0.9-2,2s0.9,2,2,2s2-0.9,2-2S3.1,14,2,14z M2,7C0.9,7,0,7.9,0,9s0.9,2,2,2s2-0.9,2-2
			S3.1,7,2,7z M2,4c1.1,0,2-0.9,2-2S3.1,0,2,0S0,0.9,0,2S0.9,4,2,4z"/>
	</g>
</g>
</svg>
