<?xml version="1.0" encoding="UTF-8"?>
<svg width="86px" height="76px" viewBox="0 0 86 76" version="1.1" xmlns="http://www.w3.org/2000/svg" xmlns:xlink="http://www.w3.org/1999/xlink">
    <!-- Generator: Sketch 58 (84663) - https://sketch.com -->
    <title>Icon Edit Rules</title>
    <desc>Created with Sketch.</desc>
    <defs>
        <linearGradient x1="67.8576778%" y1="113.320313%" x2="50%" y2="23.5351562%" id="linearGradient-1">
            <stop stop-color="#2170B8" offset="0%"></stop>
            <stop stop-color="#30B3A8" offset="100%"></stop>
        </linearGradient>
        <linearGradient x1="67.8588867%" y1="76.1053776%" x2="50%" y2="39.0892083%" id="linearGradient-2">
            <stop stop-color="#2170B8" offset="0%"></stop>
            <stop stop-color="#30B3A8" offset="100%"></stop>
        </linearGradient>
        <linearGradient x1="67.8588867%" y1="93.6589113%" x2="50%" y2="31.7526759%" id="linearGradient-3">
            <stop stop-color="#2170B8" offset="0%"></stop>
            <stop stop-color="#30B3A8" offset="100%"></stop>
        </linearGradient>
        <linearGradient x1="50.257168%" y1="113.320313%" x2="50%" y2="23.5351562%" id="linearGradient-4">
            <stop stop-color="#2170B8" offset="0%"></stop>
            <stop stop-color="#30B3A8" offset="100%"></stop>
        </linearGradient>
    </defs>
    <g id="screens" stroke="none" stroke-width="1" fill="none" fill-rule="evenodd">
        <g id="2" transform="translate(-918.000000, -237.000000)">
            <g id="Icon-Edit-Rules" transform="translate(918.541500, 237.456100)">
                <path d="M14.772,73.02 C7.728,73.02 2,67.291 2,60.248 C2,53.205 7.728,47.476 14.772,47.476 C21.815,47.476 27.543,53.205 27.543,60.248 C27.543,67.291 21.815,73.02 14.772,73.02 M14.772,45.475 C6.626,45.475 -1.66977543e-13,52.102 -1.66977543e-13,60.247 C-1.66977543e-13,68.392 6.626,75.019 14.772,75.019 C22.917,75.019 29.543,68.392 29.543,60.247 C29.543,52.102 22.918,45.475 14.772,45.475" id="Fill-1" fill="url(#linearGradient-1)"></path>
                <path d="M15.2305,27.545 C8.1865,27.545 2.4585,21.816 2.4585,14.773 C2.4585,7.73 8.1865,2.001 15.2305,2.001 C22.2735,2.001 28.0015,7.73 28.0015,14.773 C28.0015,21.816 22.2735,27.545 15.2305,27.545 M15.2305,-6.57252031e-14 C7.0845,-6.57252031e-14 0.4585,6.627 0.4585,14.772 C0.4585,22.917 7.0845,29.544 15.2305,29.544 C23.3755,29.544 30.0015,22.917 30.0015,14.772 C30.0015,6.627 23.3765,-6.57252031e-14 15.2305,-6.57252031e-14" id="Fill-1" fill="url(#linearGradient-1)"></path>
                <path d="M21.2180768,56.6634288 C21.4455242,56.9892659 21.3956299,57.4287615 21.1178108,57.6935842 L21.036428,57.7612612 L12.160374,64.1886136 C12.0281955,64.2853424 11.8712819,64.3341 11.7120494,64.3341 C11.6672169,64.3341 11.6231574,64.3301679 11.5798709,64.3230902 C11.4172373,64.2941502 11.2694448,64.2133699 11.1558857,64.0944391 L11.0774382,63.9983017 L8.50034474,60.2416074 C8.2568581,59.884576 8.34188518,59.3946407 8.69204215,59.1461343 C9.01443649,58.9197784 9.44594891,58.9742648 9.70317551,59.2581057 L9.76879416,59.3411647 L11.8998819,62.4467091 L20.1413248,56.4801946 C20.4891628,56.2277561 20.9722712,56.3111159 21.2180768,56.6634288 Z M1.4585,36.227 L83.9585,36.227 C84.5115,36.227 84.9585,36.675 84.9585,37.227 C84.9585,37.7395714 84.5730765,38.1624694 84.0752533,38.2202682 L83.9585,38.227 L1.4585,38.227 C0.9065,38.227 0.4585,37.779 0.4585,37.227 C0.4585,36.7144286 0.844785714,36.2915306 1.34193149,36.2337318 L1.4585,36.227 L83.9585,36.227 Z M18.8851317,10.3174397 C19.1938612,10.0059081 19.7041112,9.99731954 20.0249319,10.2963586 C20.3457526,10.5953976 20.3554255,11.0896318 20.0466961,11.4003826 L20.0466961,11.4003826 L16.8900784,14.5781604 L20.0466961,17.7559381 C20.3554255,18.0666889 20.3457526,18.5609231 20.0249319,18.8599622 C19.8677458,19.0051874 19.6670314,19.0778 19.4655108,19.0778 C19.2543173,19.0778 19.0431238,18.9973796 18.8851317,18.8381003 L18.8851317,18.8381003 L15.7720424,15.7040463 L12.6589532,18.8381003 C12.500155,18.9973796 12.2897676,19.0778 12.0777679,19.0778 C11.8762474,19.0778 11.675533,19.0059682 11.519153,18.8599622 C11.1983323,18.5609231 11.1886593,18.0666889 11.4973888,17.7559381 L11.4973888,17.7559381 L14.6540065,14.5781604 L11.4973888,11.4003826 C11.1886593,11.0896318 11.1983323,10.5953976 11.519153,10.2963586 C11.8391676,9.99731954 12.3502237,10.0059081 12.6589532,10.3174397 L12.6589532,10.3174397 L15.7720424,13.4514937 Z" id="Combined-Shape" fill="url(#linearGradient-2)"></path>
                <g id="Group-3" transform="translate(57.458500, 37.043900) rotate(-270.000000) translate(-57.458500, -37.043900) translate(29.458500, 13.543900)" fill="url(#linearGradient-3)">
                    <path d="M50.3786733,6.07166453 C50.501452,6.11703489 50.6134395,6.18531956 50.7084011,6.27216483 L55.704436,11.045905 C56.0962725,11.4173461 56.0989103,12.0218259 55.7099515,12.3962459 L55.704436,12.4017453 C55.315717,12.7761653 54.6831193,12.7786859 54.2912828,12.4072447 L54.2855276,12.4017453 L50.9983217,9.25102637 L50.9983217,46.0453894 C50.9983217,46.5726479 50.5508512,47 49.9990668,47 C49.4472824,47 48.9998118,46.5726479 48.9998118,46.0453894 L48.9998118,9.25102637 L45.712606,12.4017453 C45.3207695,12.7761653 44.685534,12.7761653 44.2936975,12.4017453 C43.9021008,12.0273253 43.9021008,11.420325 44.2936975,11.045905 L49.2894926,6.27216483 C49.384694,6.18531956 49.4966816,6.11703489 49.6192204,6.07166453 C49.8626194,5.97611182 50.1355141,5.97611182 50.3786733,6.07166453 Z M6.37867335,0.571664534 C6.50145197,0.617034887 6.61343951,0.685319559 6.7084011,0.77216483 L11.704436,5.54590502 C12.0962725,5.91734614 12.0989103,6.52182589 11.7099515,6.89624587 L11.704436,6.90174531 C11.315717,7.27616529 10.6831193,7.27868586 10.2912828,6.90724474 L10.2855276,6.90174531 L6.99832173,3.75102637 L6.99832173,45.5453894 C6.99832173,46.0726479 6.55085119,46.5 5.99906678,46.5 C5.44728237,46.5 4.99981183,46.0726479 4.99981183,45.5453894 L4.99981183,3.75102637 L1.71260596,6.90174531 C1.32076949,7.27616529 0.685533978,7.27616529 0.293697504,6.90174531 C-0.097899168,6.52732533 -0.097899168,5.920325 0.293697504,5.54590502 L5.28949265,0.77216483 C5.38469404,0.685319559 5.49668158,0.617034887 5.6192204,0.571664534 C5.86261944,0.476111822 6.13551412,0.476111822 6.37867335,0.571664534 Z" id="Combined-Shape"></path>
                </g>
                <rect id="Rectangle" fill="url(#linearGradient-4)" x="78.4585" y="46.5439" width="3" height="25"></rect>
            </g>
        </g>
    </g>
</svg>