<?xml version="1.0" encoding="utf-8"?>
<!-- Generator: Adobe Illustrator 22.0.1, SVG Export Plug-In . SVG Version: 6.00 Build 0)  -->
<svg version="1.1" id="Layer_1" xmlns="http://www.w3.org/2000/svg" xmlns:xlink="http://www.w3.org/1999/xlink" x="0px" y="0px"
	 viewBox="0 0 85.8 86.6" style="enable-background:new 0 0 85.8 86.6;" xml:space="preserve">
<style type="text/css">
	.st0{fill:none;}
	.st1{fill:url(#SVGID_1_);}
	.st2{fill:url(#SVGID_2_);}
	.st3{fill:url(#SVGID_3_);}
	.st4{fill:url(#SVGID_4_);}
	.st5{fill:url(#SVGID_5_);}
	.st6{fill:url(#SVGID_6_);}
	.st7{fill:url(#SVGID_7_);}
</style>
<g>
	<g>
		<path class="st0" d="M52.3,17.8c0.1,0.1,0.2,0.2,0.2,0.3c0,0,0,0,0,0l2.1,5.1c1.1-0.2,2.2-0.3,3.4-0.3c2.6,0,5,0.6,7.4,1.7
			l0.4,0.2v7.3l17.3-14.2L65.7,3.6V12l-0.6,0.1c-0.1,0-6.5,1.4-13.1,5.6c0,0,0,0,0.1,0C52.2,17.8,52.2,17.8,52.3,17.8z"/>
	</g>
	<g>
		<path class="st0" d="M22.9,52.9h14.8c0.7,0,1.2-0.5,1.2-1.2s-0.5-1.2-1.2-1.2H22.9c-0.7,0-1.2,0.5-1.2,1.2S22.2,52.9,22.9,52.9z"
			/>
	</g>
	<g>
		<path class="st0" d="M39.3,34.3l-2.2,2.5l0.9-3.2c1.8-6.1,5.3-10.7,9.3-14.1H31.6v18.9h27.3L53.3,25
			C45.4,27.3,39.3,34.2,39.3,34.3z"/>
	</g>
	<g>
		<path class="st0" d="M49.6,19.5c-3.6,2.8-7,6.5-9.1,11.5c2.5-2.3,6.9-5.8,12.2-7.3L51,19.5H49.6z"/>
	</g>
	<g>
		<polygon class="st0" points="29.7,19.5 10.3,19.5 2.4,38.4 29.7,38.4 		"/>
	</g>
	<g>
		<path class="st0" d="M1.9,84.7h57.4V40.3H1.9V84.7z M22.9,48.5h14.8c1.7,0,3.1,1.4,3.1,3.1c0,1.7-1.4,3.1-3.1,3.1H22.9
			c-1.7,0-3.1-1.4-3.1-3.1C19.7,49.9,21.1,48.5,22.9,48.5z"/>
	</g>
	<g>
		<linearGradient id="SVGID_1_" gradientUnits="userSpaceOnUse" x1="30.281" y1="56.7521" x2="30.281" y2="27.0686">
			<stop  offset="0" style="stop-color:#2170B8"/>
			<stop  offset="1" style="stop-color:#30B3A8"/>
		</linearGradient>
		<path class="st1" d="M22.9,54.8h14.8c1.7,0,3.1-1.4,3.1-3.1c0-1.7-1.4-3.1-3.1-3.1H22.9c-1.7,0-3.1,1.4-3.1,3.1
			C19.7,53.4,21.1,54.8,22.9,54.8z M22.9,50.5h14.8c0.7,0,1.2,0.5,1.2,1.2s-0.5,1.2-1.2,1.2H22.9c-0.7,0-1.2-0.5-1.2-1.2
			S22.2,50.5,22.9,50.5z"/>
	</g>
	<g>
		<path d="M85.4,17.9L64.3,0.5v10.3c-2,0.5-8.4,2.3-14.6,6.7h1.9h0c0.1,0,0.3,0,0.4,0.1c0,0,0.1,0,0.1,0.1c6.5-4.2,13-5.6,13.1-5.6
			l0.6-0.1V3.6l17.3,14.2L65.7,32.1v-7.3l-0.4-0.2c-2.3-1.2-4.8-1.7-7.4-1.7c-1.2,0-2.3,0.1-3.4,0.3l0.6,1.4
			c0.9-0.2,1.9-0.3,2.8-0.3c2.2,0,4.3,0.5,6.3,1.4v9.5L85.4,17.9z"/>
		<linearGradient id="SVGID_2_" gradientUnits="userSpaceOnUse" x1="67.3542" y1="50.4604" x2="67.3542" y2="32.4496">
			<stop  offset="0" style="stop-color:#2170B8"/>
			<stop  offset="1" style="stop-color:#30B3A8"/>
		</linearGradient>
		<path class="st2" d="M64,35.7v-9.8c-2.8-1.2-5.7-1.6-8.8-1.1l-0.2,0L54.2,23l0.3-0.1c1.2-0.2,2.3-0.3,3.4-0.3
			c2.6,0,5.1,0.6,7.5,1.8l0.5,0.3v6.9l16.7-13.7L66,4.2v8l-0.8,0.2c-0.1,0-6.4,1.3-13,5.5L52.1,18l-0.2-0.1c-0.1,0-0.2-0.1-0.3-0.1
			h-2.7l0.6-0.5c6-4.3,12.4-6.2,14.5-6.7V0l21.8,17.9l-0.2,0.2L64,35.7z"/>
	</g>
	<g>
		<linearGradient id="SVGID_3_" gradientUnits="userSpaceOnUse" x1="37.0649" y1="28.1299" x2="53.2725" y2="28.1299">
			<stop  offset="0" style="stop-color:#2170B8"/>
			<stop  offset="1" style="stop-color:#30B3A8"/>
		</linearGradient>
		<path class="st3" d="M49.6,19.5h-2.3c-3.9,3.4-7.5,8-9.3,14.1l-0.9,3.2l2.2-2.5c0.1-0.1,6.1-7,14-9.2l-0.6-1.4
			c-5.3,1.5-9.7,4.9-12.2,7.3C42.6,26,46,22.2,49.6,19.5z"/>
		<linearGradient id="SVGID_4_" gradientUnits="userSpaceOnUse" x1="45.0605" y1="76.7104" x2="45.0605" y2="55.781">
			<stop  offset="0" style="stop-color:#2170B8"/>
			<stop  offset="1" style="stop-color:#30B3A8"/>
		</linearGradient>
		<path class="st4" d="M36.5,37.8l1.2-4.3c1.6-5.5,4.7-10.3,9.3-14.2l0.1-0.1h3.1l-0.6,0.4c-3.8,2.9-6.6,6.4-8.5,10.3
			c2.7-2.4,6.7-5.2,11.4-6.6l0.2-0.1l0.8,1.8l-0.3,0.1c-7.9,2.2-13.8,9.1-13.9,9.2L36.5,37.8z"/>
	</g>
	<linearGradient id="SVGID_5_" gradientUnits="userSpaceOnUse" x1="47.2554" y1="18.5042" x2="52.0808" y2="18.5042">
		<stop  offset="0" style="stop-color:#2170B8"/>
		<stop  offset="1" style="stop-color:#30B3A8"/>
	</linearGradient>
	<path class="st5" d="M49.6,19.5c0.8-0.6,1.7-1.2,2.5-1.8c0,0-0.1-0.1-0.1-0.1c-0.1,0-0.2-0.1-0.4-0.1h0h-1.9
		c-0.8,0.6-1.6,1.2-2.4,1.9H49.6z"/>
	<g>
		<linearGradient id="SVGID_6_" gradientUnits="userSpaceOnUse" x1="52.7005" y1="24.1061" x2="55.1713" y2="24.1061">
			<stop  offset="0" style="stop-color:#2170B8"/>
			<stop  offset="1" style="stop-color:#30B3A8"/>
		</linearGradient>
		<path class="st6" d="M52.7,23.6l0.6,1.4c0.6-0.2,1.3-0.3,1.9-0.4l-0.6-1.4C54,23.3,53.3,23.5,52.7,23.6z"/>
		<linearGradient id="SVGID_7_" gradientUnits="userSpaceOnUse" x1="30.6135" y1="85.4604" x2="30.6135" y2="19.946">
			<stop  offset="0" style="stop-color:#2170B8"/>
			<stop  offset="1" style="stop-color:#30B3A8"/>
		</linearGradient>
		<path class="st7" d="M61.2,39.1C61.2,39,61.2,39,61.2,39.1L61.2,39.1c0-0.1,0-0.1,0-0.1l-5.9-14.1l0.3,0l-0.8-1.9l-0.2,0
			c-0.7,0.1-1.3,0.3-1.9,0.5l-0.3,0.1l0.8,1.8l0.2-0.1c0,0,0,0,0,0l5.5,13.1H31.6V19.5h15.3l-0.3,0.3h3.1l0.1-0.1
			c0.8-0.6,1.7-1.2,2.5-1.8l0.3-0.2l-0.3-0.2c0,0-0.1-0.1-0.1-0.1c-0.1-0.1-0.3-0.1-0.5-0.1h-2l-0.1,0c-0.1,0.1-0.2,0.1-0.3,0.2H9.6
			c0,0,0,0,0,0c-0.1,0-0.3,0-0.4,0.1c0,0-0.1,0.1-0.1,0.1c-0.1,0-0.1,0.1-0.2,0.1c-0.1,0.1-0.2,0.2-0.2,0.3c0,0,0,0,0,0L0.1,39
			c0,0,0,0,0,0l0,0c0,0.1,0,0.1,0,0.2c0,0.1,0,0.1,0,0.2v0c0,0,0,0,0,0v46.3c0,0.5,0.4,1,1,1h59.3c0.5,0,1-0.4,1-1V39.3c0,0,0,0,0,0
			v0C61.2,39.2,61.2,39.1,61.2,39.1z M10.3,19.5h19.4v18.9H2.4L10.3,19.5z M59.3,84.7H1.9V40.3h57.4V84.7z"/>
	</g>
</g>
</svg>
