<?xml version="1.0" encoding="utf-8"?>
<!-- Generator: Adobe Illustrator 21.1.0, SVG Export Plug-In . SVG Version: 6.00 Build 0)  -->
<svg version="1.1" id="Layer_1" xmlns="http://www.w3.org/2000/svg" xmlns:xlink="http://www.w3.org/1999/xlink" x="0px" y="0px"
	 viewBox="0 0 85.3 65.5" style="enable-background:new 0 0 85.3 65.5;" xml:space="preserve">
<style type="text/css">
	.st0{fill:url(#SVGID_1_);}
	.st1{fill:url(#SVGID_2_);}
</style>
<g>
	<g>
		
			<linearGradient id="SVGID_1_" gradientUnits="userSpaceOnUse" x1="51.5" y1="6.6369" x2="51.5" y2="63.1221" gradientTransform="matrix(1 0 0 -1 0 68)">
			<stop  offset="0" style="stop-color:#2170B8"/>
			<stop  offset="1" style="stop-color:#30B3A8"/>
		</linearGradient>
		<path class="st0" d="M56.2,44.1H42.3C31.7,44.1,23,35.4,23,24.8c0-10.7,8.7-19.4,19.4-19.4h18.2C71.3,5.4,80,14,80,24.6
			c0,8.6-5.5,16.1-13.8,18.6L65.5,41c7.3-2.2,12.1-8.8,12.1-16.4c0-9.3-7.7-16.9-17.1-16.9H42.3c-9.4,0-17.1,7.7-17.1,17.1
			s7.7,17.1,17.1,17.1h13.9C56.2,41.9,56.2,44.1,56.2,44.1z"/>
	</g>
	<g>
		
			<linearGradient id="SVGID_2_" gradientUnits="userSpaceOnUse" x1="33.9" y1="6.6369" x2="33.9" y2="63.1221" gradientTransform="matrix(1 0 0 -1 0 68)">
			<stop  offset="0" style="stop-color:#2170B8"/>
			<stop  offset="1" style="stop-color:#30B3A8"/>
		</linearGradient>
		<path class="st1" d="M42.9,60.1H24.7C14,60.1,5.4,51.4,5.4,40.7c0-8.4,5.7-16,13.8-18.4l0.6,2.2c-7.2,2.1-12.1,8.8-12.1,16.2
			c0,9.4,7.7,17.1,17.1,17.1H43c9.4,0,17.1-7.7,17.1-17.1S52.4,23.6,43,23.6H29.1v-2.3H43c10.7,0,19.4,8.7,19.4,19.4
			C62.3,51.4,53.6,60.1,42.9,60.1z"/>
	</g>
</g>
</svg>
