<?xml version="1.0" encoding="utf-8"?>
<!-- Generator: Adobe Illustrator 22.1.0, SVG Export Plug-In . SVG Version: 6.00 Build 0)  -->
<svg version="1.1" id="Layer_1" xmlns="http://www.w3.org/2000/svg" x="0px" y="0px"
     viewBox="0 0 18.5 18.5" style="enable-background:new 0 0 18.5 18.5;" xml:space="preserve">
<style type="text/css">
	.st0{fill-rule:evenodd;clip-rule:evenodd;fill:none;stroke:#47B063;stroke-miterlimit:10;}
	.st1{fill:#47B063;stroke:#47B063;stroke-width:0.5;stroke-miterlimit:10;}
</style>
<path class="st0" d="M9.3,0.5c4.8,0,8.8,3.9,8.8,8.7c0,4.8-3.9,8.7-8.8,8.7c-4.8,0-8.8-3.9-8.8-8.7C0.5,4.4,4.4,0.5,9.3,0.5z"/>
<g transform="translate(0,-952.36218)">
	<path class="st1" d="M12.9,957.9c-0.1,0-0.2,0.1-0.3,0.2l-5.1,6.2l-1.6-1.8c-0.2-0.2-0.4-0.2-0.6,0c-0.2,0.2-0.2,0.4,0,0.6
		c0,0,0,0,0,0l2,2.2c0.2,0.2,0.4,0.2,0.6,0c0,0,0,0,0,0l5.5-6.6c0.2-0.2,0.1-0.5,0-0.6C13.2,957.9,13,957.9,12.9,957.9z"/>
</g>
</svg>
