<?xml version="1.0" encoding="utf-8"?>
<!-- Generator: Adobe Illustrator 22.0.1, SVG Export Plug-In . SVG Version: 6.00 Build 0)  -->
<svg version="1.1" id="Layer_1" xmlns="http://www.w3.org/2000/svg" xmlns:xlink="http://www.w3.org/1999/xlink" x="0px" y="0px"
	 viewBox="8.7 -12 34.6 36.4" style="enable-background:new 8.7 -12 34.6 36.4;" xml:space="preserve">
<style type="text/css">
	.st0{fill:#818181;}
</style>
<path class="st0" d="M43.1,1.2c0.6-1.4,0-3-1.3-3.6c-0.8-0.4-1.7-0.3-2.4,0.2L33-8c0,0,0.1-0.1,0.1-0.1c0.6-1.4,0-3-1.3-3.6
	c-1.4-0.6-2.9,0-3.6,1.3C28-9.9,28-9.4,28-9L13.5-1.8c-0.3-0.3-0.6-0.6-1-0.8c-1.4-0.6-2.9,0-3.6,1.3c-0.6,1.4,0,2.9,1.3,3.6
	c1.1,0.5,2.4,0.2,3.2-0.8l9.1,3c0.1,0.7,0.5,1.3,1.1,1.7l0.8,13c-0.6,0.3-1.1,0.7-1.4,1.3c-0.6,1.4,0,2.9,1.3,3.6
	c1.4,0.6,3,0,3.6-1.3c0.4-0.9,0.2-2-0.4-2.8L40.2,2.7C41.4,2.9,42.6,2.4,43.1,1.2z M14,0.5c0.1-0.4,0.1-0.9,0-1.3l14.4-7.1
	c0.3,0.4,0.6,0.8,1.1,1c0.9,0.4,2,0.2,2.7-0.3l6.2,5.8c-0.1,0.1-0.2,0.2-0.3,0.4C38-0.5,38,0,38,0.5L27.5,2.8
	c-0.3-0.5-0.7-0.9-1.2-1.2c-1.4-0.6-2.9,0-3.6,1.3c-0.1,0.1-0.1,0.3-0.1,0.4L14,0.5z M26.6,19.3c-0.3-0.2-0.7-0.2-1.1-0.2L24.8,6.7
	c1.1,0.1,2.3-0.4,2.8-1.5c0.2-0.4,0.2-0.9,0.2-1.3l10.6-2.3c0.2,0.3,0.4,0.5,0.7,0.7L26.6,19.3C26.7,19.3,26.7,19.3,26.6,19.3z"/>
</svg>
