<?xml version="1.0" encoding="utf-8"?>
<!-- Generator: Adobe Illustrator 19.2.1, SVG Export Plug-In . SVG Version: 6.00 Build 0)  -->
<svg version="1.1" id="Layer_1" xmlns="http://www.w3.org/2000/svg" xmlns:xlink="http://www.w3.org/1999/xlink" x="0px" y="0px"
	 viewBox="0 0 12.9 12.1" style="enable-background:new 0 0 12.9 12.1;" xml:space="preserve">
<style type="text/css">
	.st0{clip-path:url(#SVGID_2_);fill:#FFFFFF;}
	.st1{clip-path:url(#SVGID_4_);fill:#FFFFFF;}
</style>
<g>
	<defs>
		<rect id="SVGID_1_" x="6.1" y="0" width="6.7" height="12.1"/>
	</defs>
	<clipPath id="SVGID_2_">
		<use xlink:href="#SVGID_1_"  style="overflow:visible;"/>
	</clipPath>
	<path class="st0" d="M12.7,1.1c0.3-0.3,0.3-0.7,0-1c-0.3-0.3-0.7-0.3-1,0L6.3,5.6c-0.3,0.3-0.3,0.7,0,1l5.4,5.4
		c0.3,0.3,0.7,0.3,1,0c0.3-0.3,0.3-0.7,0-1L7.7,6.1L12.7,1.1z"/>
</g>
<g>
	<defs>
		<rect id="SVGID_3_" x="0" y="0" width="6.7" height="12.1"/>
	</defs>
	<clipPath id="SVGID_4_">
		<use xlink:href="#SVGID_3_"  style="overflow:visible;"/>
	</clipPath>
	<path class="st1" d="M6.5,1.1c0.3-0.3,0.3-0.7,0-1c-0.3-0.3-0.7-0.3-1,0L0.2,5.6c-0.3,0.3-0.3,0.7,0,1l5.4,5.4c0.3,0.3,0.7,0.3,1,0
		c0.3-0.3,0.3-0.7,0-1L1.6,6.1L6.5,1.1z"/>
</g>
</svg>
