<?xml version="1.0" encoding="utf-8"?>
<!-- Generator: Adobe Illustrator 22.0.1, SVG Export Plug-In . SVG Version: 6.00 Build 0)  -->
<svg version="1.1" id="Layer_1" xmlns="http://www.w3.org/2000/svg" xmlns:xlink="http://www.w3.org/1999/xlink" x="0px" y="0px"
	 viewBox="0 0 19.1 16.4" style="enable-background:new 0 0 19.1 16.4;" xml:space="preserve">
<style type="text/css">
	.st0{fill:url(#SVGID_1_);}
	.st1{fill:url(#SVGID_2_);}
	.st2{fill:url(#SVGID_3_);}
</style>
<g>
	<linearGradient id="SVGID_1_" gradientUnits="userSpaceOnUse" x1="3.4121" y1="18.0123" x2="1.6967" y2="-13.8957">
		<stop  offset="0" style="stop-color:#2170B8"/>
		<stop  offset="1" style="stop-color:#30B3A8"/>
	</linearGradient>
	<path class="st0" d="M3.4,1.7V0.7C3.4,0.3,3.1,0,2.7,0S2,0.3,2,0.7v1.1C0.9,2.1,0,3.1,0,4.3s0.9,2.3,2,2.6v8.8
		c0,0.4,0.3,0.7,0.7,0.7s0.7-0.3,0.7-0.7V6.9c1.1-0.3,2-1.3,2-2.6C5.4,3.1,4.5,2.1,3.4,1.7z M2.7,5.6C2,5.6,1.4,5,1.4,4.3S2,3,2.7,3
		S4,3.6,4,4.3S3.4,5.6,2.7,5.6z"/>
	<linearGradient id="SVGID_2_" gradientUnits="userSpaceOnUse" x1="9.8727" y1="17.6649" x2="8.1572" y2="-14.243">
		<stop  offset="0" style="stop-color:#2170B8"/>
		<stop  offset="1" style="stop-color:#30B3A8"/>
	</linearGradient>
	<path class="st1" d="M10.3,9.5V0.7C10.3,0.3,9.9,0,9.6,0C9.2,0,8.9,0.3,8.9,0.7v8.8c-1.1,0.3-2,1.3-2,2.6s0.9,2.3,2,2.6v1.1
		c0,0.4,0.3,0.7,0.7,0.7c0.4,0,0.7-0.3,0.7-0.7v-1.1c1.1-0.3,2-1.3,2-2.6C12.2,10.9,11.4,9.8,10.3,9.5z M9.6,13.4
		c-0.7,0-1.3-0.6-1.3-1.3c0-0.7,0.6-1.3,1.3-1.3c0.7,0,1.3,0.6,1.3,1.3C10.9,12.8,10.3,13.4,9.6,13.4z"/>
	<linearGradient id="SVGID_3_" gradientUnits="userSpaceOnUse" x1="17.1649" y1="17.2729" x2="15.4494" y2="-14.6351">
		<stop  offset="0" style="stop-color:#2170B8"/>
		<stop  offset="1" style="stop-color:#30B3A8"/>
	</linearGradient>
	<path class="st2" d="M19.1,4.3c0-1.2-0.9-2.3-2-2.6V0.7c0-0.4-0.3-0.7-0.7-0.7s-0.7,0.3-0.7,0.7v1.1c-1.1,0.3-2,1.3-2,2.6
		s0.9,2.3,2,2.6v8.8c0,0.4,0.3,0.7,0.7,0.7s0.7-0.3,0.7-0.7V6.9C18.3,6.6,19.1,5.6,19.1,4.3z M16.5,5.6c-0.7,0-1.3-0.6-1.3-1.3
		S15.7,3,16.5,3c0.7,0,1.3,0.6,1.3,1.3S17.2,5.6,16.5,5.6z"/>
</g>
</svg>
