<?xml version="1.0" encoding="utf-8"?>
<!-- Generator: Adobe Illustrator 16.0.0, SVG Export Plug-In . SVG Version: 6.00 Build 0)  -->
<!DOCTYPE svg PUBLIC "-//W3C//DTD SVG 1.1//EN" "http://www.w3.org/Graphics/SVG/1.1/DTD/svg11.dtd">
<svg version="1.1" id="Layer_1" xmlns="http://www.w3.org/2000/svg" xmlns:xlink="http://www.w3.org/1999/xlink" x="0px" y="0px"
	 width="22px" height="22px" viewBox="0 0 22 22" enable-background="new 0 0 22 22" xml:space="preserve">
<g id="Date_x2F_Time-_1_">
	<g>
		<path id="Date_x2F_Time-_10_" fill="#5D637D" d="M7.786,3.381c-0.261,0-0.476,0.218-0.476,0.486v1.479
			c0,0.269,0.215,0.486,0.476,0.486H8.44c0.263,0,0.476-0.218,0.476-0.486V3.867c0-0.269-0.213-0.486-0.476-0.486H7.786z
			 M13.697,3.381c-0.263,0-0.476,0.218-0.476,0.486v1.479c0,0.269,0.213,0.486,0.476,0.486h0.654c0.262,0,0.475-0.218,0.475-0.486
			V3.867c0-0.269-0.213-0.486-0.475-0.486H13.697z M13.152,15.706H5.619V7.489h10.957v4.794h1.369V6.12
			c0-0.589-0.516-1.396-1.088-1.396h-1.426v0.639c0,0.604-0.475,1.092-1.064,1.092h-0.654c-0.59,0-1.063-0.488-1.063-1.092V4.708
			H9.506v0.638c0,0.604-0.475,1.092-1.065,1.092H7.786c-0.589,0-1.063-0.488-1.063-1.092V4.708H5.281
			c-0.573,0-1.031,0.47-1.031,1.057v10.259c0,0.589,0.795,1.052,1.369,1.052h7.533v-0.684V15.706L13.152,15.706z M20,15.94
			c0,1.746-1.408,3.19-3.111,3.19s-3.111-1.428-3.111-3.19c0-1.747,1.392-3.191,3.111-3.191C18.592,12.733,20,14.16,20,15.94z
			 M18.084,16.831l-0.754-0.925c-0.031-0.033-0.049-0.101-0.049-0.134l-0.114-1.712c-0.017-0.15-0.146-0.286-0.294-0.286
			c-0.148,0-0.278,0.117-0.295,0.269v0.018l-0.131,1.896c0,0.017,0,0.017,0,0.033c0,0,0,0,0,0.017c0,0.118,0.033,0.235,0.131,0.303
			c0.017,0.017,0.033,0.033,0.049,0.05l1.031,0.89c0.049,0.05,0.131,0.067,0.196,0.067c0.081,0,0.164-0.034,0.212-0.083
			C18.166,17.133,18.166,16.965,18.084,16.831z"/>
	</g>
</g>
</svg>
