<?xml version="1.0" encoding="utf-8"?>
<!-- Generator: Adobe Illustrator 22.0.1, SVG Export Plug-In . SVG Version: 6.00 Build 0)  -->
<svg version="1.1" id="forms" xmlns="http://www.w3.org/2000/svg" xmlns:xlink="http://www.w3.org/1999/xlink" x="0px" y="0px"
	 viewBox="0 0 154.4 159.8" style="enable-background:new 0 0 154.4 159.8;" xml:space="preserve">
<style type="text/css">
	.st0{fill:none;}
	.st1{fill:url(#SVGID_1_);}
	.st2{clip-path:url(#SVGID_3_);}
	.st3{fill:#009444;}
	.st4{fill:#2575B6;}
	.st5{fill:url(#SVGID_4_);}
	.st6{fill:url(#SVGID_5_);}
	.st7{fill-rule:evenodd;clip-rule:evenodd;fill:url(#SVGID_6_);}
	.st8{fill:url(#SVGID_7_);}
	.st9{fill-rule:evenodd;clip-rule:evenodd;fill:url(#SVGID_8_);}
	.st10{fill:url(#SVGID_9_);}
	.st11{fill:url(#SVGID_10_);}
	.st12{fill:url(#SVGID_11_);}
	.st13{fill:url(#SVGID_12_);}
	.st14{fill:url(#SVGID_13_);}
	.st15{enable-background:new    ;}
	.st16{fill:url(#SVGID_14_);}
	.st17{fill:url(#SVGID_15_);}
	.st18{fill:url(#SVGID_16_);}
	.st19{fill:url(#SVGID_17_);}
	.st20{fill:url(#SVGID_18_);}
	.st21{clip-path:url(#SVGID_20_);}
	.st22{fill:url(#SVGID_21_);}
	.st23{fill:url(#SVGID_22_);}
	.st24{fill:url(#SVGID_23_);}
	.st25{fill:url(#SVGID_24_);}
	.st26{fill:url(#SVGID_25_);}
	.st27{fill:url(#SVGID_26_);stroke:url(#SVGID_27_);stroke-width:0.75;stroke-miterlimit:10;}
	.st28{fill:url(#SVGID_28_);}
</style>
<g>
	<path class="st0" d="M52.1,63.3c-0.8,0.8-1.4,2.1-1.4,3.5v49.9c0,1.3,0.6,2.5,1.6,3.5s2.3,1.4,3.7,1.4h1.9
		c-3.7-6.4-5.8-13.8-5.8-21.7c0-16.4,9.2-30.8,22.6-38.1H55.7C54.3,61.9,53.1,62.4,52.1,63.3z"/>
	<linearGradient id="SVGID_1_" gradientUnits="userSpaceOnUse" x1="64.1275" y1="123.0564" x2="64.1275" y2="54.9079">
		<stop  offset="0" style="stop-color:#2170B8"/>
		<stop  offset="1" style="stop-color:#30B3A8"/>
	</linearGradient>
	<path class="st1" d="M55.9,121.7c-1.4,0-2.7-0.4-3.7-1.4s-1.6-2.3-1.6-3.5V66.8c0-1.4,0.6-2.7,1.4-3.5c1-0.8,2.3-1.4,3.7-1.4h18.9
		c1.7-0.9,3.4-1.7,5.2-2.4H55.7c-2,0-3.8,0.7-5.2,2.1c-1.4,1.4-2.1,3.2-2.1,5.2v49.9c0,1.8,0.7,3.7,2.1,5.1c1.4,1.4,3.2,2.1,5.2,2.1
		h3.5c-0.5-0.7-0.9-1.5-1.4-2.3H55.9z"/>
</g>
<g>
	<g>
		<defs>
			<circle id="SVGID_2_" cx="95.1" cy="100.9" r="27.8"/>
		</defs>
		<clipPath id="SVGID_3_">
			<use xlink:href="#SVGID_2_"  style="overflow:visible;"/>
		</clipPath>
		<g class="st2">
			<path class="st3" d="M137.4,43.6c-0.6-0.7-1.3-1-2.2-1.1c-0.2,0-0.3-0.1-0.5-0.1h-1.8c-0.8,0-1.5,0.2-2.1,0.7
				c-0.2,0.2-0.4,0.3-0.5,0.5c-0.7,0.7-1,1.5-1,2.5v6.1c0,1,0.3,1.9,1.1,2.6c0.7,0.7,1.6,1.1,2.6,1.1h2.1c0.1,0,0.2,0,0.2,0
				c0.7-0.1,1.3-0.4,1.9-0.8c0.1-0.1,0.1-0.1,0.2-0.2c0,0,0,0,0.1,0c0.8-0.7,1.2-1.7,1.2-2.7v-6.1C138.5,45.2,138.1,44.3,137.4,43.6
				z M136.2,52.2c0,0.3-0.1,0.6-0.4,0.9c-0.1,0.1-0.2,0.1-0.3,0.2c-0.2,0.1-0.5,0.2-0.7,0.3h-2c-0.4,0-0.7-0.1-1-0.4s-0.4-0.6-0.4-1
				v-6.1c0-0.4,0.1-0.6,0.4-0.9l0.1-0.1c0-0.1,0.1-0.1,0.1-0.1c0.3-0.2,0.5-0.3,0.8-0.3h1.7c0.1,0,0.2,0.1,0.3,0.1
				c0.4,0,0.6,0.2,0.7,0.3c0,0.1,0.1,0.1,0.1,0.2c0.4,0.3,0.4,0.6,0.4,0.8v6.1H136.2z"/>
			<path class="st3" d="M106,148.5c0.6,0,1.2-0.5,1.2-1.2v-11.1c0-0.5-0.3-0.9-0.7-1.1c-0.4-0.2-0.9-0.1-1.3,0.2l-2.9,2.9
				c-0.5,0.5-0.5,1.2,0,1.6c0.5,0.5,1.2,0.5,1.6,0l0.9-0.9v8.4C104.9,148,105.4,148.5,106,148.5z"/>
			<path class="st3" d="M89.8,47.4l0.9-0.9v8.3c0,0.6,0.5,1.2,1.2,1.2s1.2-0.5,1.2-1.2V43.7c0-0.5-0.3-0.9-0.7-1.1
				c-0.4-0.2-0.9-0.1-1.3,0.3l-2.9,3c-0.4,0.5-0.4,1.2,0,1.6C88.7,47.9,89.4,47.9,89.8,47.4z"/>
			<path class="st3" d="M91.9,148.5c0.6,0,1.2-0.5,1.2-1.2v-11.1c0-0.5-0.3-0.9-0.7-1.1c-0.4-0.2-0.9-0.1-1.3,0.3l-2.9,2.9
				c-0.4,0.5-0.4,1.2,0,1.6c0.5,0.4,1.2,0.4,1.6,0l0.9-0.9v8.3C90.7,148,91.2,148.5,91.9,148.5z"/>
			<path class="st3" d="M77.7,74.4c0.6,0,1.2-0.5,1.2-1.2V62.1c0-0.5-0.3-0.9-0.7-1.1c-0.4-0.2-0.9-0.1-1.3,0.3l-2.9,3
				c-0.4,0.5-0.4,1.2,0,1.6c0.5,0.4,1.2,0.4,1.6,0l0.9-1v8.4C76.6,73.9,77.1,74.4,77.7,74.4z"/>
			<path class="st3" d="M135.5,117.7c0-0.5-0.3-0.9-0.7-1.1s-0.9-0.1-1.3,0.3l-2.9,2.9c-0.4,0.5-0.4,1.2,0,1.6
				c0.5,0.4,1.2,0.4,1.6,0l0.9-0.9v8.3c0,0.6,0.5,1.2,1.2,1.2s1.2-0.5,1.2-1.2C135.5,128.8,135.5,117.7,135.5,117.7z"/>
			<path class="st3" d="M118.2,47.4l0.9-0.9v8.3c0,0.6,0.5,1.2,1.2,1.2s1.2-0.5,1.2-1.2V43.7c0-0.5-0.3-0.9-0.7-1.1
				c-0.4-0.2-0.9-0.1-1.3,0.3l-2.9,3c-0.4,0.5-0.4,1.2,0,1.6C117,47.9,117.7,47.9,118.2,47.4z"/>
			<path class="st3" d="M134.4,148.5c0.6,0,1.2-0.5,1.2-1.2v-11.1c0-0.5-0.3-0.9-0.7-1.1c-0.4-0.2-0.9-0.1-1.3,0.3l-2.9,2.9
				c-0.4,0.5-0.4,1.2,0,1.6c0.5,0.4,1.2,0.4,1.6,0l0.9-0.9v8.3C133.2,148,133.8,148.5,134.4,148.5z"/>
			<g>
				<path class="st3" d="M109.1,43.6c-0.7-0.8-1.6-1.2-2.7-1.2h-1.8c-0.8,0-1.5,0.2-2.1,0.7c-0.2,0.2-0.4,0.4-0.5,0.6
					c-0.7,0.7-1,1.5-1,2.4v6.1c0,1,0.4,1.9,1.1,2.6c0.7,0.8,1.6,1.2,2.6,1.2h1.8c0.9,0,1.8-0.3,2.5-1l0.2-0.2c0.7-0.7,1-1.6,1-2.6
					v-6.1C110.1,45.2,109.7,44.3,109.1,43.6z M107.8,52.2c0,0.4-0.1,0.7-0.4,1l-0.1,0.1c-0.3,0.2-0.6,0.3-1,0.3h-1.8
					c-0.4,0-0.7-0.1-1-0.4s-0.4-0.6-0.4-1v-6.1c0-0.3,0.1-0.6,0.4-0.9c0.1-0.1,0.1-0.1,0.2-0.3c0.3-0.2,0.5-0.3,0.8-0.3h1.8
					c0.4,0,0.7,0.1,1.1,0.5c0.3,0.3,0.4,0.5,0.4,0.9V52.2z"/>
			</g>
			<path class="st3" d="M134.4,93c0.6,0,1.2-0.5,1.2-1.2V80.6c0-0.5-0.3-0.9-0.7-1.1c-0.4-0.2-0.9-0.1-1.3,0.3l-2.9,3
				c-0.4,0.5-0.4,1.2,0,1.6c0.5,0.4,1.2,0.4,1.6,0l0.9-0.9v8.4C133.2,92.5,133.8,93,134.4,93z"/>
			<g>
				<path class="st4" d="M122,126.2c0,0.4-0.1,0.7-0.3,0.8c-0.1,0.1-0.3,0.2-0.4,0.3c-0.1,0.1-0.3,0.3-0.8,0.3h-1.8
					c-0.4,0-0.7-0.1-0.9-0.4l-0.1-0.1c-0.3-0.2-0.4-0.5-0.4-0.9v-6.1c0-0.2,0-0.5,0.4-0.8c0.1-0.1,0.2-0.2,0.2-0.3
					c0.2-0.1,0.5-0.2,0.8-0.2h1.8c0.4,0,0.8,0.1,1.1,0.4c0.3,0.3,0.4,0.5,0.4,0.9C122,120.1,122,126.2,122,126.2z"/>
			</g>
			<path class="st3" d="M106.3,60.9h-1.8c-0.7,0-1.4,0.2-2.1,0.6c-0.3,0.2-0.5,0.4-0.7,0.7c-0.6,0.7-1,1.5-1,2.4v6
				c0,1.1,0.4,2,1.1,2.6c0.7,0.7,1.6,1.1,2.6,1.1h1.8c0.9,0,1.7-0.3,2.4-0.8c0.2-0.1,0.3-0.2,0.4-0.4c0.6-0.7,1-1.5,1-2.6v-6
				c0-1-0.4-1.8-1-2.5C108.4,61.4,107.4,60.9,106.3,60.9z M107.8,70.7c0,0.6-0.2,0.8-0.4,1l-0.1,0.1l0,0c-0.3,0.2-0.6,0.3-1,0.3
				h-1.8c-0.4,0-0.7-0.1-0.9-0.4l-0.1-0.1c-0.2-0.2-0.4-0.4-0.4-1v-6c0-0.3,0.1-0.6,0.4-0.9c0.1-0.1,0.2-0.2,0.2-0.3
				c0.2-0.2,0.5-0.2,0.8-0.2h1.8c0.4,0,0.7,0.1,1.1,0.5c0.3,0.3,0.4,0.5,0.4,0.9V70.7z"/>
			<g>
				<path class="st3" d="M123.3,62.1c-0.7-0.8-1.7-1.2-2.7-1.2h-1.8c-0.8,0-1.5,0.2-2.1,0.6c-0.3,0.2-0.5,0.4-0.6,0.6
					c-0.7,0.7-1,1.5-1,2.4v6c0,1.1,0.4,2,1.2,2.7c0.7,0.7,1.6,1.1,2.6,1.1h1.8c1,0,1.8-0.3,2.4-0.9c0.1,0,0.2-0.1,0.3-0.2
					c0.7-0.7,1.1-1.6,1.1-2.7v-6C124.3,63.7,123.9,62.8,123.3,62.1z M122,70.7c0,0.5-0.1,0.7-0.3,0.9c-0.1,0.1-0.3,0.2-0.4,0.3
					s-0.3,0.3-0.8,0.3h-1.8c-0.4,0-0.7-0.1-0.9-0.4l-0.1-0.1c-0.3-0.2-0.4-0.5-0.4-0.9v-6c0-0.2,0-0.5,0.4-0.8
					c0.1-0.1,0.2-0.2,0.3-0.3c0.2-0.2,0.5-0.2,0.8-0.2h1.8c0.4,0,0.7,0.1,1.1,0.5c0.3,0.3,0.4,0.5,0.4,0.9L122,70.7L122,70.7z"/>
				<g>
					<path class="st0" d="M136.4,100.1h-1.8c-0.3,0-0.5,0.1-0.8,0.2c-0.1,0.1-0.2,0.2-0.3,0.3c-0.4,0.3-0.4,0.6-0.4,0.9v6
						c0,0.4,0.1,0.7,0.4,0.9l0.1,0.1c0.3,0.3,0.6,0.4,0.9,0.4h1.8c0.5,0,0.7-0.2,0.8-0.3c0.1-0.1,0.2-0.2,0.4-0.3
						c0.1-0.2,0.3-0.4,0.3-0.9v-6c0-0.4-0.1-0.6-0.4-0.9C137.2,100.2,136.8,100.1,136.4,100.1z"/>
					<path class="st3" d="M136.4,97.8h-1.8c-0.8,0-1.5,0.2-2.1,0.6c-0.3,0.2-0.5,0.4-0.6,0.6c-0.7,0.7-1,1.5-1,2.4v6
						c0,1.1,0.4,2,1.2,2.7c0.7,0.7,1.6,1.1,2.6,1.1h1.8c1,0,1.8-0.3,2.4-0.9c0.1,0,0.2-0.1,0.3-0.2c0.7-0.7,1.1-1.6,1.1-2.7v-6
						c0-1-0.4-1.8-1-2.5C138.4,98.2,137.5,97.8,136.4,97.8z M137.9,107.5c0,0.5-0.1,0.7-0.3,0.9c-0.1,0.1-0.3,0.2-0.4,0.3
						c-0.1,0.1-0.3,0.3-0.8,0.3h-1.8c-0.4,0-0.7-0.1-0.9-0.4l-0.1-0.1c-0.3-0.2-0.4-0.5-0.4-0.9v-6c0-0.2,0.1-0.5,0.4-0.9
						c0.1-0.1,0.2-0.2,0.3-0.3c0.2-0.2,0.5-0.2,0.8-0.2h1.8c0.4,0,0.7,0.1,1.1,0.5c0.3,0.3,0.4,0.6,0.4,0.9L137.9,107.5L137.9,107.5
						z"/>
				</g>
			</g>
			<g>
				<path class="st3" d="M52.4,117.6c-0.6-0.7-1.5-1.1-2.5-1.1h-2.1c-0.8,0-1.4,0.2-2,0.6c-0.3,0.2-0.6,0.4-0.7,0.7
					c-0.7,0.7-1,1.5-1,2.4v6.1c0,1.1,0.4,2,1.1,2.6c0.7,0.8,1.6,1.1,2.6,1.1h1.8h0.3c0.8,0,1.5-0.3,2-0.8c0.1,0,0.1-0.1,0.2-0.1
					c0.1,0,0.1-0.1,0.1-0.1c0.7-0.7,1.1-1.6,1.1-2.6v-6.1C53.5,119.2,53.1,118.3,52.4,117.6z M51.2,126.2c0,0.5-0.2,0.8-0.3,0.9
					s-0.2,0.2-0.3,0.3c-0.1,0.1-0.2,0.2-0.5,0.2H48c-0.4,0-0.7-0.1-1-0.5c-0.3-0.2-0.4-0.5-0.4-0.9v-6.1c0-0.3,0.1-0.6,0.4-0.9
					c0.1-0.1,0.1-0.1,0.2-0.2c0,0,0,0,0.1,0c0.2-0.1,0.4-0.2,0.7-0.2h2c0.3,0,0.6,0.1,0.9,0.4c0.3,0.3,0.4,0.5,0.4,0.9v6.1H51.2z"/>
			</g>
			<path class="st3" d="M49.4,148.5c0.6,0,1.2-0.5,1.2-1.2v-11.1c0-0.5-0.3-0.9-0.7-1.1s-0.9-0.1-1.3,0.3l-2.9,2.9
				c-0.4,0.5-0.4,1.2,0,1.6c0.5,0.4,1.2,0.4,1.6,0l0.9-0.9v8.3C48.2,148,48.7,148.5,49.4,148.5z"/>
			<path class="st3" d="M33.1,47.4l0.9-1v8.3c0,0.6,0.5,1.2,1.2,1.2s1.2-0.5,1.2-1.2v-11c0-0.5-0.3-0.9-0.7-1.1s-0.9-0.1-1.3,0.3
				l-2.9,3c-0.4,0.5-0.4,1.2,0,1.6C31.9,47.9,32.7,47.9,33.1,47.4z"/>
			<path class="st3" d="M49.4,111.4c0.6,0,1.2-0.5,1.2-1.2v-11c0-0.5-0.3-0.9-0.7-1.1S49,98,48.6,98.4l-2.9,2.9
				c-0.4,0.5-0.4,1.2,0,1.6c0.5,0.4,1.2,0.4,1.6,0l0.9-0.9v8.3C48.2,110.9,48.7,111.4,49.4,111.4z"/>
			<path class="st3" d="M50.5,80.6c0-0.5-0.3-0.9-0.7-1.1s-0.9-0.1-1.3,0.3l-2.9,3c-0.4,0.5-0.4,1.2,0,1.6c0.5,0.4,1.2,0.4,1.6,0
				l0.9-0.9v8.4c0,0.6,0.5,1.2,1.2,1.2c0.6,0,1.2-0.5,1.2-1.2L50.5,80.6z"/>
			<g>
				<path class="st3" d="M38.3,80.6c-0.7-0.8-1.6-1.2-2.7-1.2h-1.8c-0.7,0-1.4,0.2-2.1,0.6c-0.3,0.2-0.5,0.4-0.7,0.7
					c-0.6,0.7-1,1.5-1,2.4v6.1c0,1,0.4,1.9,1.1,2.6c0.7,0.8,1.6,1.2,2.6,1.2h1.8c1,0,1.8-0.3,2.5-1l0.1-0.1c0.7-0.7,1.1-1.6,1.1-2.7
					v-6.1C39.3,82.1,38.9,81.3,38.3,80.6z M37,89.2c0,0.4-0.1,0.7-0.5,1v0.1c-0.3,0.3-0.6,0.4-0.9,0.4h-1.8c-0.4,0-0.6-0.1-0.9-0.4
					l-0.1-0.1c-0.3-0.3-0.4-0.6-0.4-1v-6.1c0-0.3,0.1-0.6,0.4-0.9c0.1-0.1,0.2-0.2,0.2-0.3c0.2-0.2,0.5-0.2,0.8-0.2h1.7
					c0.4,0,0.7,0.1,1.1,0.5c0.3,0.3,0.4,0.5,0.4,0.9V89.2z"/>
			</g>
			<g>
				<path class="st3" d="M37.9,136.1c-0.7-0.8-1.6-1.2-2.7-1.2h-1.8c-0.7,0-1.4,0.2-2.1,0.6c-0.3,0.2-0.5,0.4-0.7,0.7
					c-0.6,0.7-1,1.5-1,2.4v6.1c0,1,0.4,1.9,1.1,2.6c0.7,0.8,1.6,1.2,2.6,1.2h1.8c1,0,1.8-0.3,2.5-1l0.1-0.1c0.7-0.7,1.1-1.6,1.1-2.7
					v-6.1C38.9,137.6,38.5,136.7,37.9,136.1z M36.6,144.7c0,0.4-0.1,0.7-0.5,1l-0.1,0.1c-0.3,0.3-0.6,0.4-0.9,0.4h-1.8
					c-0.4,0-0.6-0.1-0.9-0.4l-0.1-0.1c-0.3-0.3-0.4-0.6-0.4-1v-6.1c0-0.3,0.1-0.6,0.4-0.9c0.1-0.1,0.2-0.2,0.2-0.3
					c0.2-0.2,0.5-0.2,0.8-0.2h1.8c0.4,0,0.7,0.1,1.1,0.5c0.3,0.3,0.4,0.5,0.4,0.9V144.7z"/>
			</g>
			<g>
				<path class="st4" d="M66.6,99c-0.7-0.8-1.6-1.2-2.7-1.2h-1.8c-0.7,0-1.4,0.2-2.1,0.6c-0.3,0.2-0.5,0.4-0.7,0.7
					c-0.6,0.7-1,1.5-1,2.4v6.1c0,1,0.4,1.9,1.1,2.6c0.7,0.8,1.6,1.2,2.6,1.2h1.8c1,0,1.8-0.3,2.5-1l0.1-0.1c0.7-0.7,1.1-1.6,1.1-2.7
					v-6.1C67.7,100.5,67.3,99.6,66.6,99z M65.4,107.5c0,0.4-0.1,0.7-0.5,1l-0.1,0.1c-0.3,0.3-0.6,0.4-0.9,0.4h-1.8
					c-0.4,0-0.6-0.1-0.9-0.4l-0.1-0.1c-0.3-0.3-0.4-0.6-0.4-1v-6.1c0-0.3,0.1-0.6,0.4-0.9c0.1-0.1,0.2-0.2,0.2-0.3
					c0.2-0.2,0.5-0.2,0.8-0.2h1.8c0.4,0,0.7,0.1,1.1,0.5c0.3,0.3,0.4,0.5,0.4,0.9V107.5z"/>
			</g>
			<path class="st3" d="M36.4,99.2c0-0.5-0.3-0.9-0.7-1.1c-0.4-0.2-0.9-0.1-1.3,0.2l-2.9,3c-0.5,0.5-0.5,1.2,0,1.6
				c0.5,0.5,1.2,0.5,1.6,0L34,102v8.3c0,0.6,0.5,1.2,1.2,1.2s1.2-0.5,1.2-1.2L36.4,99.2z"/>
			<path class="st3" d="M35.2,129.9c0.6,0,1.2-0.5,1.2-1.2v-11c0-0.5-0.3-0.9-0.7-1.1s-0.9-0.1-1.3,0.2l-2.9,3
				c-0.5,0.5-0.5,1.2,0,1.6c0.5,0.5,1.2,0.5,1.6,0l0.9-0.9v8.3C34.1,129.4,34.6,129.9,35.2,129.9z"/>
			<g>
				<path class="st3" d="M52.5,62.2c-0.7-0.8-1.6-1.2-2.7-1.2H48c-0.8,0-1.4,0.2-2,0.6c-0.3,0.2-0.5,0.4-0.7,0.7
					c-0.7,0.7-1,1.5-1,2.4v6c0,1.1,0.4,2,1.1,2.6c0.7,0.8,1.6,1.1,2.6,1.1h1.9c0.9,0,1.6-0.3,2.2-0.9c0.1,0,0.1-0.1,0.2-0.1
					c0.1,0,0.1-0.1,0.1-0.1c0.7-0.7,1.1-1.6,1.1-2.7v-6C53.5,63.7,53.1,62.8,52.5,62.2z M51.2,70.7c0,0.6-0.2,0.8-0.3,0.9
					c-0.1,0.1-0.2,0.2-0.3,0.3s-0.3,0.2-0.8,0.2H48c-0.4,0-0.7-0.1-1-0.5c-0.2-0.2-0.4-0.4-0.4-1v-6c0-0.3,0.1-0.6,0.4-0.9
					c0.1-0.1,0.1-0.1,0.2-0.2l0.1-0.1c0.1-0.1,0.3-0.2,0.7-0.2h1.9c0.4,0,0.6,0.1,1,0.5c0.3,0.3,0.4,0.5,0.4,0.9v6.1H51.2z"/>
				<path class="st3" d="M35.9,60.9h-2.1c-0.7,0-1.4,0.2-2.1,0.6c-0.3,0.2-0.5,0.4-0.7,0.7c-0.6,0.7-1,1.5-1,2.4v6
					c0,1.1,0.4,2,1.1,2.6c0.7,0.7,1.6,1.1,2.6,1.1h1.8h0.4c0.7-0.1,1.4-0.3,2-0.8c0.1-0.1,0.3-0.2,0.3-0.3c0.7-0.7,1.1-1.5,1.1-2.6
					v-6c0-0.9-0.4-1.8-1.1-2.5C37.6,61.4,36.8,61,35.9,60.9z M37,70.7c0,0.5-0.2,0.8-0.4,1l-0.1,0.1l0,0c-0.3,0.3-0.5,0.3-0.6,0.3
					h-2.1c-0.4,0-0.7-0.1-0.9-0.4l-0.1-0.1c-0.2-0.2-0.4-0.4-0.4-0.9v-6c0-0.3,0.1-0.6,0.4-0.9c0.1-0.1,0.2-0.2,0.2-0.3
					c0.2-0.2,0.5-0.2,0.8-0.2h2.1c0.2,0,0.4,0.1,0.7,0.4l0.1,0.1c0.3,0.3,0.4,0.5,0.4,0.9L37,70.7L37,70.7z"/>
			</g>
			<path class="st3" d="M62.1,56h1.8c1,0,1.8-0.3,2.4-0.9l0.1-0.1c0,0,0,0,0.1,0c0.8-0.7,1.2-1.7,1.2-2.7v-6.1c0-1-0.4-1.8-1.2-2.5
				c-0.7-0.8-1.6-1.2-2.7-1.2H62c-0.8,0-1.5,0.2-2.2,0.7c-0.2,0.2-0.4,0.4-0.5,0.6c-0.7,0.7-1,1.5-1,2.4v6.1c0,1,0.4,1.9,1.1,2.6
				C60.1,55.6,61.1,56,62.1,56z M60.7,46.1c0-0.3,0.1-0.6,0.4-0.9c0.1-0.1,0.1-0.1,0.2-0.3c0.3-0.2,0.5-0.3,0.9-0.3H64
				c0.4,0,0.7,0.1,0.9,0.4c0,0.1,0.1,0.1,0.1,0.1c0.4,0.3,0.4,0.6,0.4,0.8V52c0,0.3-0.1,0.6-0.4,0.9c-0.1,0.1-0.2,0.2-0.3,0.3
				c-0.2,0.2-0.5,0.2-0.8,0.2h-1.8c-0.4,0-0.7-0.1-1-0.4s-0.4-0.6-0.4-1L60.7,46.1z"/>
			<path class="st3" d="M77.1,56h1.8c1,0,1.8-0.3,2.4-0.9l0.1-0.1c0,0,0,0,0.1,0c0.8-0.7,1.2-1.7,1.2-2.7v-6.1c0-1-0.4-1.8-1.2-2.5
				c-0.7-0.8-1.6-1.2-2.7-1.2H77c-0.8,0-1.5,0.2-2.2,0.7c-0.2,0.2-0.4,0.4-0.5,0.6c-0.7,0.7-1,1.5-1,2.4v6.1c0,1,0.4,1.9,1.1,2.6
				C75.1,55.6,76,56,77.1,56z M75.6,46.1c0-0.3,0.1-0.6,0.4-0.9c0.1-0.1,0.1-0.1,0.2-0.3c0.3-0.2,0.5-0.3,0.9-0.3h1.8
				c0.4,0,0.7,0.1,0.9,0.4c0,0.1,0.1,0.1,0.1,0.1c0.4,0.3,0.4,0.6,0.4,0.8V52c0,0.3-0.1,0.6-0.4,0.9c-0.1,0.1-0.2,0.2-0.3,0.3
				c-0.2,0.2-0.5,0.2-0.8,0.2H77c-0.4,0-0.7-0.1-1-0.4c-0.3-0.3-0.4-0.6-0.4-1C75.6,52,75.6,46.1,75.6,46.1z"/>
			<g>
				<path class="st3" d="M137.4,62.1c-0.7-0.8-1.6-1.2-2.7-1.2h-1.8c-0.7,0-1.4,0.2-2.1,0.6c-0.3,0.1-0.5,0.4-0.7,0.6
					c-0.6,0.7-1,1.5-1,2.4v6c0,1.1,0.4,2,1.1,2.6c0.7,0.7,1.6,1.1,2.6,1.1h1.8c1,0,1.8-0.3,2.5-1l0.1-0.1c0.8-0.7,1.3-1.6,1.3-2.7
					v-6C138.5,63.7,138.1,62.8,137.4,62.1z M136.2,70.7c0,0.4-0.1,0.7-0.5,1l-0.1,0.1c-0.2,0.2-0.5,0.3-0.9,0.3h-1.8
					c-0.4,0-0.7-0.1-1-0.5c-0.2-0.1-0.4-0.4-0.4-1v-6c0-0.4,0.1-0.6,0.4-0.9c0.1-0.1,0-0.1,0.1-0.1l0.1-0.1c0.3-0.2,0.5-0.3,0.8-0.3
					h1.8c0.4,0,0.7,0.1,0.9,0.4c0,0.1,0.1,0.1,0.1,0.1c0.4,0.3,0.4,0.6,0.4,0.8L136.2,70.7L136.2,70.7z"/>
			</g>
			<path class="st3" d="M63.6,74.4c0.6,0,1.2-0.5,1.2-1.2V62.1c0-0.5-0.3-0.9-0.7-1.1c-0.4-0.2-0.9-0.1-1.3,0.3l-2.9,3
				c-0.4,0.5-0.4,1.2,0,1.6c0.5,0.4,1.2,0.4,1.6,0l0.9-0.9v8.3C62.4,73.9,62.9,74.4,63.6,74.4z"/>
			<g>
				<path class="st3" d="M80.8,136.1c-0.7-0.7-1.5-1.1-2.6-1.1h-1.9c-0.7,0-1.4,0.2-2.1,0.6c-0.3,0.2-0.6,0.4-0.7,0.7
					c-0.6,0.7-0.9,1.5-0.9,2.4v6c0,1,0.3,1.9,1,2.6c0.8,0.8,1.7,1.2,2.6,1.2h2c0.9-0.1,1.7-0.4,2.2-1c0.1,0,0.1-0.1,0.2-0.2
					c0.8-0.7,1.1-1.6,1.1-2.7v-6C81.8,137.7,81.5,136.8,80.8,136.1z M79.5,144.7c0,0.4-0.1,0.6-0.3,0.9c-0.2,0.1-0.3,0.2-0.4,0.3
					c-0.2,0.2-0.4,0.3-0.7,0.3h-1.9c-0.2,0-0.6-0.1-1-0.5c-0.3-0.3-0.4-0.6-0.4-1v-6c0-0.4,0.1-0.7,0.4-1c0.1-0.1,0.1-0.1,0.1-0.1
					c0.3-0.2,0.5-0.2,0.9-0.2h1.9c0.4,0,0.7,0.2,1,0.4c0.4,0.4,0.4,0.7,0.4,1C79.5,138.8,79.5,144.7,79.5,144.7z"/>
				<path class="st3" d="M64.4,135c-0.2,0-0.3-0.1-0.5-0.1h-1.8c-0.8,0-1.5,0.2-2.2,0.6c-0.2,0.2-0.4,0.4-0.5,0.6
					c-0.7,0.7-1,1.6-1,2.5v6c0,1,0.4,2,1.1,2.6c0.7,0.8,1.6,1.2,2.7,1.2h2c0.1,0,0.2,0,0.2,0c0.7-0.1,1.4-0.5,1.9-0.9
					c0.1,0,0.1-0.1,0.2-0.2l0,0c0.8-0.7,1.2-1.6,1.2-2.7v-6c0-1-0.4-1.9-1.1-2.5C66,135.5,65.3,135.1,64.4,135z M65.4,144.7
					c0,0.4-0.1,0.6-0.4,0.9c-0.1,0.1-0.2,0.2-0.3,0.3c-0.2,0.2-0.4,0.3-0.7,0.3h-1.9c-0.4,0-0.7-0.1-1-0.5c-0.3-0.3-0.4-0.6-0.4-1
					v-6c0-0.2,0-0.6,0.4-1c0.1-0.1,0-0.1,0.1-0.2c0.3-0.2,0.6-0.2,0.9-0.2h1.7c0.1,0,0.2,0,0.3,0.1c0.4,0,0.6,0.2,0.8,0.4
					c0.4,0.4,0.5,0.7,0.5,0.9L65.4,144.7z"/>
			</g>
			<g>
				<path class="st3" d="M121.9,135c-0.2,0-0.3-0.1-0.5-0.1h-1.8c-0.8,0-1.5,0.2-2.2,0.6c-0.2,0.2-0.4,0.4-0.5,0.6
					c-0.7,0.7-1,1.6-1,2.5v6c0,1,0.4,2,1.1,2.6c0.7,0.8,1.6,1.2,2.7,1.2h2c0.1,0,0.2,0,0.2,0c0.7-0.1,1.4-0.5,1.9-0.9
					c0.1,0,0.1-0.1,0.2-0.2l0,0c0.8-0.7,1.2-1.6,1.2-2.7v-6c0-1-0.4-1.9-1.1-2.5C123.6,135.5,122.8,135.1,121.9,135z M122.9,144.7
					c0,0.4-0.1,0.6-0.4,0.9c-0.1,0.1-0.2,0.2-0.3,0.3c-0.2,0.2-0.4,0.3-0.7,0.3h-1.9c-0.4,0-0.7-0.1-1-0.5c-0.3-0.3-0.4-0.6-0.4-1
					v-6c0-0.2,0-0.6,0.4-1c0.1-0.1,0-0.1,0.1-0.2c0.3-0.2,0.6-0.2,0.9-0.2h1.7c0.1,0,0.2,0,0.3,0.1c0.4,0,0.6,0.2,0.8,0.4
					c0.4,0.4,0.5,0.7,0.5,0.9V144.7z"/>
			</g>
			<path class="st3" d="M63.6,129.9c0.6,0,1.2-0.5,1.2-1.2v-11c0-0.5-0.3-0.9-0.7-1.1s-0.9-0.1-1.3,0.3l-2.9,2.9
				c-0.4,0.5-0.4,1.2,0,1.6c0.5,0.4,1.2,0.4,1.6,0l0.9-0.9v8.3C62.4,129.4,62.9,129.9,63.6,129.9z"/>
			<g>
				<path class="st3" d="M63.9,79.4h-1.8c-0.8,0-1.5,0.2-2.1,0.6c-0.3,0.2-0.5,0.4-0.7,0.7c-0.6,0.7-1,1.5-1,2.4v6.1
					c0,1,0.4,2,1.1,2.6c0.7,0.8,1.6,1.2,2.7,1.2h1.8c1,0,1.8-0.4,2.5-1l0.1-0.1l0,0c0.8-0.7,1.2-1.6,1.2-2.7v-6.1
					c0-1-0.4-1.8-1.2-2.5C65.9,79.8,65,79.4,63.9,79.4z M65.4,89.2c0,0.4-0.1,0.6-0.4,0.9c-0.1,0.1-0.2,0.2-0.3,0.3
					c-0.2,0.2-0.5,0.3-0.8,0.3h-1.8c-0.4,0-0.7-0.1-1-0.5c-0.3-0.3-0.4-0.6-0.4-1v-6.1c0-0.3,0.1-0.6,0.4-0.9
					c0.1-0.1,0.2-0.2,0.2-0.3c0.2-0.2,0.5-0.2,0.8-0.2h1.8c0.4,0,0.7,0.1,0.9,0.4c0,0.1,0.1,0.1,0.1,0.1c0.4,0.3,0.4,0.6,0.4,0.8
					L65.4,89.2L65.4,89.2z"/>
			</g>
			<path class="st3" d="M47.3,47.4l0.9-0.9v8.3c0,0.6,0.5,1.2,1.2,1.2c0.6,0,1.2-0.5,1.2-1.2V43.7c0-0.5-0.3-0.9-0.7-1.1
				s-0.9-0.1-1.3,0.3l-2.9,3c-0.4,0.5-0.4,1.2,0,1.6C46.2,47.9,46.9,47.9,47.3,47.4z"/>
		</g>
	</g>
</g>
<g>
	
		<linearGradient id="SVGID_4_" gradientUnits="userSpaceOnUse" x1="95.4558" y1="188.1203" x2="95.4558" y2="246.1308" gradientTransform="matrix(1 0 0 -1 0 317.1695)">
		<stop  offset="0" style="stop-color:#2471B9"/>
		<stop  offset="1" style="stop-color:#2FB3A8"/>
	</linearGradient>
	<path class="st5" d="M95.5,130c-16.1,0-29.2-13.1-29.2-29.2s13.1-29.2,29.2-29.2s29.2,13.1,29.2,29.2S111.6,130,95.5,130z
		 M95.5,73.7c-15,0-27.2,12.2-27.2,27.2s12.2,27.2,27.2,27.2s27.2-12.2,27.2-27.2C122.6,85.8,110.4,73.7,95.5,73.7z"/>
</g>
<g>
	<linearGradient id="SVGID_5_" gradientUnits="userSpaceOnUse" x1="34.7029" y1="20.0926" x2="34.7029" y2="5.0406">
		<stop  offset="0" style="stop-color:#2170B8"/>
		<stop  offset="1" style="stop-color:#30B3A8"/>
	</linearGradient>
	<path class="st6" d="M34.7,0c-5.8,0-10.6,4.7-10.6,10.6c0,5.8,4.7,10.6,10.6,10.6s10.6-4.7,10.6-10.6C45.3,4.7,40.5,0,34.7,0z
		 M34.7,19.9c-5.2,0-9.3-4.2-9.3-9.3s4.2-9.3,9.3-9.3S44,5.4,44,10.6S39.9,19.9,34.7,19.9z"/>
	<linearGradient id="SVGID_6_" gradientUnits="userSpaceOnUse" x1="34.703" y1="21.5388" x2="34.703" y2="9.5829">
		<stop  offset="0" style="stop-color:#2170B8"/>
		<stop  offset="1" style="stop-color:#30B3A8"/>
	</linearGradient>
	<path class="st7" d="M39.2,7.8v5.4h-0.5c-0.1-0.4-0.2-0.7-0.4-1c-0.3-0.4-0.7-0.6-1.1-0.6h-4.2c-0.4,0-1.5,0.2-1.8,0.6
		c-0.2,0.3-0.4,0.6-0.4,1h-0.5V7.8h0.5c0.1,0.4,0.2,0.7,0.4,1c0.3,0.4,1.4,0.6,1.8,0.6h4.2c0.4,0,0.8-0.2,1.1-0.6
		c0.2-0.3,0.4-0.6,0.4-1H39.2z"/>
</g>
<g>
	<linearGradient id="SVGID_7_" gradientUnits="userSpaceOnUse" x1="95.952" y1="41.0973" x2="95.952" y2="26.3305">
		<stop  offset="0" style="stop-color:#2170B8"/>
		<stop  offset="1" style="stop-color:#30B3A8"/>
	</linearGradient>
	<path class="st8" d="M96,21.4c-5.7,0-10.4,4.6-10.4,10.4c0,5.7,4.6,10.4,10.4,10.4s10.4-4.6,10.4-10.4C106.3,26,101.7,21.4,96,21.4
		z M96,40.9c-5.1,0-9.2-4.1-9.2-9.2s4.1-9.2,9.2-9.2s9.2,4.1,9.2,9.2S101,40.9,96,40.9z"/>
	<linearGradient id="SVGID_8_" gradientUnits="userSpaceOnUse" x1="95.952" y1="42.5161" x2="95.952" y2="30.7868">
		<stop  offset="0" style="stop-color:#2170B8"/>
		<stop  offset="1" style="stop-color:#30B3A8"/>
	</linearGradient>
	<path class="st9" d="M100.4,29.1v5.3h-0.5c-0.1-0.4-0.2-0.7-0.4-1c-0.3-0.4-0.7-0.6-1.1-0.6h-4.1c-0.4,0-1.5,0.2-1.8,0.6
		c-0.2,0.3-0.4,0.6-0.4,1h-0.5v-5.3H92c0.1,0.4,0.2,0.7,0.4,0.9c0.3,0.4,1.4,0.6,1.8,0.6h4.1c0.4,0,0.8-0.2,1.1-0.6
		c0.2-0.3,0.4-0.6,0.4-0.9H100.4z"/>
</g>
<g>
	<linearGradient id="SVGID_9_" gradientUnits="userSpaceOnUse" x1="63.3545" y1="42.1291" x2="64.3545" y2="19.1291">
		<stop  offset="0" style="stop-color:#2170B8"/>
		<stop  offset="1" style="stop-color:#30B3A8"/>
	</linearGradient>
	<path class="st10" d="M64.1,9.6c-6.2,0-12.9,1.9-12.9,6v17.6c0,4.1,6.7,6,12.9,6s12.9-1.9,12.9-6V15.6C77,11.4,70.3,9.6,64.1,9.6z
		 M75.2,33c0,2.3-5,4.2-11.1,4.2S53,35.3,53,33v-3.5c1.9,2,6.5,3,11.1,3s9.2-1,11.1-3V33z M75.2,27.5L75.2,27.5L75.2,27.5
		c0,2.3-5,4.2-11.1,4.2S53,29.8,53,27.5l0,0l0,0v-3.5c1.9,2,6.5,3,11.1,3s9.2-1,11.1-3V27.5z M75.2,22L75.2,22
		C75.2,22.1,75.2,22.1,75.2,22c0,2.3-5,4.2-11.1,4.2S53,24.4,53,22.1l0,0l0,0v-3.2c2.4,1.8,6.9,2.7,11.1,2.7s8.7-0.9,11.1-2.7V22z
		 M64.1,19.7C58,19.7,53,17.8,53,15.5s5-4.2,11.1-4.2s11.1,1.9,11.1,4.2C75.2,17.9,70.2,19.7,64.1,19.7z"/>
	<linearGradient id="SVGID_10_" gradientUnits="userSpaceOnUse" x1="71.4132" y1="30.148" x2="71.6642" y2="30.9923">
		<stop  offset="0" style="stop-color:#2170B8"/>
		<stop  offset="1" style="stop-color:#30B3A8"/>
	</linearGradient>
	<circle class="st11" cx="72.4" cy="33.5" r="0.9"/>
	<linearGradient id="SVGID_11_" gradientUnits="userSpaceOnUse" x1="73.6035" y1="36.1403" x2="72.3258" y2="27.3792">
		<stop  offset="0" style="stop-color:#2170B8"/>
		<stop  offset="1" style="stop-color:#30B3A8"/>
	</linearGradient>
	<circle class="st12" cx="72.4" cy="28" r="0.9"/>
	<linearGradient id="SVGID_12_" gradientUnits="userSpaceOnUse" x1="73.0396" y1="27.9963" x2="72.4352" y2="22.5566">
		<stop  offset="0" style="stop-color:#2170B8"/>
		<stop  offset="1" style="stop-color:#30B3A8"/>
	</linearGradient>
	<circle class="st13" cx="72.4" cy="22.5" r="0.9"/>
</g>
<g>
	<linearGradient id="SVGID_13_" gradientUnits="userSpaceOnUse" x1="16.4589" y1="62.0681" x2="16.4589" y2="43.2377">
		<stop  offset="0" style="stop-color:#2471B9"/>
		<stop  offset="1" style="stop-color:#2FB3A8"/>
	</linearGradient>
	<path class="st14" d="M26.1,48.1h-5.4h-1.6h-5.4h-1.6H6.8H5.2v1.6v3.1v1.6v3V59v3v1.6h1.6h5.4h1.6h5.4h1.6h5.4h1.6V62v-3v-1.6v-3
		v-1.6v-3.1v-1.6H26.1z M19.2,49.6v3.1h-5.4v-3.1H19.2z M19.2,54.3v3h-5.4v-3H19.2z M6.8,49.6h5.4v3.1H6.8V49.6z M6.8,54.3h5.4v3
		H6.8V54.3z M6.8,62v-3h5.4v3H6.8z M13.8,62v-3h5.4v3H13.8z M26.1,62h-5.4v-3h5.4V62z M26.1,57.4h-5.4v-3h5.4V57.4z M26.1,52.8h-5.4
		v-3.1h5.4V52.8z"/>
	<g id="A012" class="st15">
		<linearGradient id="SVGID_14_" gradientUnits="userSpaceOnUse" x1="8.7691" y1="58.3026" x2="8.7691" y2="44.6306">
			<stop  offset="0" style="stop-color:#2471B9"/>
			<stop  offset="1" style="stop-color:#2FB3A8"/>
		</linearGradient>
		<path class="st16" d="M11,45.1L10.2,43H7.3l-0.7,2.1H5.2l2.9-7.7h1.4l2.9,7.7H11z M9.9,41.9l-0.7-2.1C9.1,39.7,9,39.5,9,39.2
			c-0.1-0.3-0.2-0.5-0.2-0.7c-0.1,0.4-0.2,0.9-0.4,1.4l-0.7,2H9.9z"/>
		<linearGradient id="SVGID_15_" gradientUnits="userSpaceOnUse" x1="16.2285" y1="57.3612" x2="16.2285" y2="44.5676">
			<stop  offset="0" style="stop-color:#2471B9"/>
			<stop  offset="0.5388" style="stop-color:#2FB3A8"/>
		</linearGradient>
		<path class="st17" d="M18.8,41.3c0,1.3-0.2,2.3-0.6,3c-0.4,0.6-1.1,1-2,1c-0.9,0-1.5-0.3-1.9-1c-0.4-0.7-0.7-1.6-0.7-2.9
			c0-1.3,0.2-2.3,0.6-3c0.4-0.6,1.1-1,2-1c0.9,0,1.5,0.3,1.9,1C18.6,39,18.8,40,18.8,41.3z M14.9,41.3c0,1,0.1,1.8,0.3,2.2
			c0.2,0.4,0.6,0.7,1,0.7c0.5,0,0.8-0.2,1-0.7c0.2-0.5,0.3-1.2,0.3-2.2c0-1-0.1-1.8-0.3-2.2c-0.2-0.5-0.6-0.7-1-0.7
			c-0.5,0-0.8,0.2-1,0.7C15,39.5,14.9,40.3,14.9,41.3z"/>
		<linearGradient id="SVGID_16_" gradientUnits="userSpaceOnUse" x1="22.5903" y1="59.2439" x2="22.5903" y2="47.5687">
			<stop  offset="0" style="stop-color:#2471B9"/>
			<stop  offset="1" style="stop-color:#2FB3A8"/>
		</linearGradient>
		<path class="st18" d="M24.2,45.1H23v-4.9c0-0.6,0-1.1,0-1.4c-0.1,0.1-0.2,0.2-0.3,0.3c-0.1,0.1-0.5,0.4-1.2,1L21,39.3l2.2-1.8h1
			V45.1z"/>
		<linearGradient id="SVGID_17_" gradientUnits="userSpaceOnUse" x1="30.1858" y1="60.656" x2="30.1858" y2="48.3469">
			<stop  offset="0" style="stop-color:#2471B9"/>
			<stop  offset="1" style="stop-color:#2FB3A8"/>
		</linearGradient>
		<path class="st19" d="M32.8,45.1h-5.2v-0.9l2-2c0.6-0.6,1-1,1.2-1.3c0.2-0.3,0.3-0.5,0.4-0.7c0.1-0.2,0.1-0.5,0.1-0.7
			c0-0.3-0.1-0.6-0.3-0.8c-0.2-0.2-0.5-0.3-0.9-0.3c-0.3,0-0.6,0.1-0.8,0.2c-0.3,0.1-0.6,0.3-0.9,0.6l-0.7-0.8
			c0.4-0.4,0.8-0.6,1.2-0.8c0.4-0.1,0.8-0.2,1.3-0.2c0.7,0,1.3,0.2,1.7,0.6c0.4,0.4,0.6,0.9,0.6,1.5c0,0.3-0.1,0.7-0.2,1
			c-0.1,0.3-0.3,0.6-0.6,1c-0.3,0.3-0.7,0.8-1.3,1.3L29.1,44V44h3.6V45.1z"/>
	</g>
	<g>
		<linearGradient id="SVGID_18_" gradientUnits="userSpaceOnUse" x1="16.5894" y1="68.1872" x2="16.5894" y2="26.1029">
			<stop  offset="0" style="stop-color:#2170B8"/>
			<stop  offset="1" style="stop-color:#30B3A8"/>
		</linearGradient>
		<path class="st20" d="M28.5,68.7H4.5c-1.2,0-2.4-0.4-3.2-1.3c-0.9-0.9-1.3-2-1.3-3.1V33.4c0-1.2,0.4-2.4,1.3-3.2
			c0.9-0.9,2-1.3,3.2-1.3h23.9c1.2,0,2.4,0.4,3.2,1.3c0.9,0.9,1.3,2,1.3,3.1v1.5h-1.4v-1.4c0-0.8-0.3-1.6-1-2.2
			c-0.6-0.6-1.4-0.9-2.3-0.9H4.5c-0.9,0-1.7,0.3-2.3,0.9c-0.5,0.5-0.9,1.3-0.9,2.2v30.8c0,0.8,0.3,1.6,1,2.2s1.4,0.9,2.3,0.9h23.9
			c0.9,0,1.7-0.3,2.3-0.9c0.6-0.6,1-1.3,1-2.2V48.6h1.4v15.7c0,1.2-0.4,2.4-1.3,3.1C30.8,68.3,29.7,68.7,28.5,68.7z"/>
	</g>
	<rect id="_x3C_Slice_x3E_" x="31.7" y="47.2" class="st0" width="6" height="0.4"/>
</g>
<g>
	<defs>
		<ellipse id="SVGID_19_" cx="95.1" cy="100" rx="27.6" ry="28.8"/>
	</defs>
	<clipPath id="SVGID_20_">
		<use xlink:href="#SVGID_19_"  style="overflow:visible;"/>
	</clipPath>
	<g class="st21">
		<linearGradient id="SVGID_21_" gradientUnits="userSpaceOnUse" x1="93.6999" y1="122.9413" x2="93.6999" y2="88.5198">
			<stop  offset="0" style="stop-color:#2471B9"/>
			<stop  offset="1" style="stop-color:#2FB3A8"/>
		</linearGradient>
		<path class="st22" d="M111.4,97.4h-9.9h-2.9h-9.9h-2.9H76h-2.9v2.9v5.7v2.9v5.6v2.9v5.6v2.9H76h9.9h2.9h9.9h2.9h9.9h2.9v-2.9v-5.6
			v-2.9v-5.6V106v-5.7v-2.9H111.4z M98.6,100.2v5.7h-9.9v-5.7H98.6z M98.6,108.8v5.6h-9.9v-5.6H98.6z M76,100.2h9.9v5.7H76V100.2z
			 M76,108.8h9.9v5.6H76V108.8z M76,122.8v-5.6h9.9v5.6H76z M88.8,122.8v-5.6h9.9v5.6H88.8z M111.4,122.8h-9.9v-5.6h9.9V122.8z
			 M111.4,114.4h-9.9v-5.6h9.9V114.4z M111.4,106h-9.9v-5.7h9.9V106z"/>
		<g id="A012_1_" class="st15">
			<linearGradient id="SVGID_22_" gradientUnits="userSpaceOnUse" x1="79.6432" y1="116.058" x2="79.6432" y2="91.0661">
				<stop  offset="0" style="stop-color:#2471B9"/>
				<stop  offset="1" style="stop-color:#2FB3A8"/>
			</linearGradient>
			<path class="st23" d="M83.7,92l-1.4-3.9h-5.3L75.6,92h-2.4l5.2-14h2.5l5.2,14H83.7z M81.7,86.1l-1.3-3.8
				c-0.1-0.3-0.2-0.7-0.4-1.2c-0.2-0.5-0.3-0.9-0.3-1.2c-0.2,0.8-0.4,1.6-0.8,2.6l-1.3,3.6H81.7z"/>
			<linearGradient id="SVGID_23_" gradientUnits="userSpaceOnUse" x1="93.2788" y1="114.3371" x2="93.2788" y2="90.9509">
				<stop  offset="0" style="stop-color:#2471B9"/>
				<stop  offset="0.5388" style="stop-color:#2FB3A8"/>
			</linearGradient>
			<path class="st24" d="M98,85c0,2.4-0.4,4.2-1.2,5.4c-0.8,1.2-2,1.8-3.6,1.8c-1.6,0-2.7-0.6-3.5-1.8c-0.8-1.2-1.2-3-1.2-5.4
				c0-2.5,0.4-4.3,1.2-5.4c0.8-1.2,2-1.8,3.6-1.8c1.6,0,2.7,0.6,3.5,1.8C97.6,80.8,98,82.6,98,85z M90.8,85c0,1.9,0.2,3.3,0.6,4.1
				s1,1.2,1.9,1.2c0.9,0,1.5-0.4,1.9-1.2c0.4-0.8,0.6-2.2,0.6-4.1c0-1.9-0.2-3.2-0.6-4.1s-1-1.3-1.9-1.3c-0.9,0-1.5,0.4-1.9,1.2
				C91,81.7,90.8,83.1,90.8,85z"/>
			<linearGradient id="SVGID_24_" gradientUnits="userSpaceOnUse" x1="104.9079" y1="117.7788" x2="104.9079" y2="96.4368">
				<stop  offset="0" style="stop-color:#2471B9"/>
				<stop  offset="1" style="stop-color:#2FB3A8"/>
			</linearGradient>
			<path class="st25" d="M107.9,92h-2.2v-9c0-1.1,0-1.9,0.1-2.6c-0.1,0.2-0.3,0.3-0.5,0.5s-0.9,0.8-2.1,1.8l-1.1-1.4L106,78h1.9V92z
				"/>
			<linearGradient id="SVGID_25_" gradientUnits="userSpaceOnUse" x1="118.7922" y1="120.3601" x2="118.7922" y2="97.8594">
				<stop  offset="0" style="stop-color:#2471B9"/>
				<stop  offset="1" style="stop-color:#2FB3A8"/>
			</linearGradient>
			<path class="st26" d="M123.5,92h-9.5v-1.7l3.6-3.6c1.1-1.1,1.8-1.9,2.1-2.3c0.3-0.5,0.6-0.9,0.8-1.3c0.2-0.4,0.2-0.8,0.2-1.3
				c0-0.6-0.2-1.1-0.6-1.5c-0.4-0.4-0.9-0.5-1.6-0.5c-0.5,0-1.1,0.1-1.6,0.3c-0.5,0.2-1.1,0.6-1.7,1.1l-1.2-1.5
				c0.8-0.7,1.5-1.1,2.3-1.4c0.7-0.3,1.5-0.4,2.3-0.4c1.3,0,2.3,0.3,3.1,1c0.8,0.7,1.2,1.6,1.2,2.7c0,0.6-0.1,1.2-0.3,1.8
				c-0.2,0.6-0.6,1.2-1,1.8c-0.5,0.6-1.2,1.4-2.3,2.4l-2.4,2.3V90h6.6V92z"/>
		</g>
		<g>
			<linearGradient id="SVGID_26_" gradientUnits="userSpaceOnUse" x1="93.9386" y1="134.1268" x2="93.9386" y2="57.198">
				<stop  offset="0" style="stop-color:#2170B8"/>
				<stop  offset="1" style="stop-color:#30B3A8"/>
			</linearGradient>
			<linearGradient id="SVGID_27_" gradientUnits="userSpaceOnUse" x1="63.2386" y1="98.7233" x2="124.6386" y2="98.7233">
				<stop  offset="0" style="stop-color:#2471B9"/>
				<stop  offset="1" style="stop-color:#2FB3A8"/>
			</linearGradient>
			<path class="st27" d="M115.7,135.1H71.9c-2.2,0-4.3-0.8-5.9-2.4s-2.4-3.7-2.4-5.7V70.6c0-2.2,0.8-4.3,2.4-5.9
				c1.6-1.6,3.7-2.4,5.9-2.4h43.8c2.2,0,4.3,0.8,5.9,2.4c1.6,1.6,2.4,3.7,2.4,5.7v2.7h-2.5v-2.5c0-1.4-0.6-2.9-1.8-4
				c-1.1-1.1-2.5-1.6-4.1-1.6H71.9c-1.6,0-3,0.6-4.1,1.6c-1,1-1.6,2.4-1.6,4V127c0,1.4,0.6,2.9,1.8,4c1.1,1.1,2.5,1.6,4.1,1.6h43.8
				c1.6,0,3-0.6,4.1-1.6c1.1-1.1,1.8-2.4,1.8-4V98.3h2.5V127c0,2.2-0.8,4.3-2.4,5.7C120,134.3,117.9,135.1,115.7,135.1z"/>
		</g>
		<rect id="_x3C_Slice_x3E__1_" x="121.6" y="95.8" class="st0" width="11" height="0.8"/>
	</g>
</g>
<linearGradient id="SVGID_28_" gradientUnits="userSpaceOnUse" x1="106.0687" y1="140.3413" x2="106.0687" y2="253.3413" gradientTransform="matrix(1 0 0 -1 0 317.1695)">
	<stop  offset="0" style="stop-color:#2471B9"/>
	<stop  offset="1" style="stop-color:#2FB3A8"/>
</linearGradient>
<path class="st28" d="M152.3,147.5l-25.8-25.8c4.1-6,6.4-13.2,6.4-21c0-20.7-16.8-37.6-37.6-37.6c-20.7,0-37.5,16.8-37.5,37.6
	s17,37.6,37.7,37.6c7.8,0,15-2.4,21-6.4l25.8,25.8c1.4,1.4,3.2,2.1,5.1,2.1c1.9,0,3.7-0.7,5.1-2.1
	C155.1,154.8,155.1,150.3,152.3,147.5z M130.6,100.7c0,19.4-15.8,35.1-35.1,35.1c-19.4,0-35.1-15.8-35.1-35.1s15.7-35.1,35.1-35.1
	C114.8,65.6,130.6,81.3,130.6,100.7z M150.6,155.9c-1.9,1.9-4.9,1.9-6.7,0l-25.5-25.5c2.5-2,4.8-4.2,6.7-6.7l25.5,25.5
	C152.5,151,152.5,154,150.6,155.9z"/>
</svg>
