<svg xmlns="http://www.w3.org/2000/svg" xmlns:xlink="http://www.w3.org/1999/xlink" viewBox="0 0 126.01 133.19"><defs><style>.cls-1{fill:none;}.cls-2{clip-path:url(#clip-path);}.cls-3{fill:#009444;}.cls-4{fill:#2575b6;}.cls-5{fill:url(#linear-gradient);}.cls-6{fill:url(#linear-gradient-2);}.cls-7{fill:url(#New_Gradient_Swatch);}.cls-8{fill:url(#New_Gradient_Swatch-2);}.cls-9{fill:url(#New_Gradient_Swatch-3);}.cls-10{fill:url(#New_Gradient_Swatch-4);}.cls-11{fill:url(#linear-gradient-3);}.cls-12{fill:url(#New_Gradient_Swatch-5);}.cls-13{fill:url(#New_Gradient_Swatch-6);}.cls-14{fill:url(#linear-gradient-4);}.cls-15{fill:url(#linear-gradient-5);}</style><clipPath id="clip-path"><circle class="cls-1" cx="66.69" cy="74.29" r="27.8"/></clipPath><linearGradient id="linear-gradient" x1="67.09" y1="-130.29" x2="67.09" y2="-72.28" gradientTransform="matrix(1, 0, 0, -1, 0, -27.89)" gradientUnits="userSpaceOnUse"><stop offset="0" stop-color="#2471b9"/><stop offset="1" stop-color="#2fb3a8"/></linearGradient><linearGradient id="linear-gradient-2" x1="77.7" y1="-178.07" x2="77.7" y2="-65.07" xlink:href="#linear-gradient"/><linearGradient id="New_Gradient_Swatch" x1="15.51" y1="89.65" x2="15.51" y2="86.36" gradientTransform="matrix(1, 0, 0, 1, 0, 0)" xlink:href="#linear-gradient"/><linearGradient id="New_Gradient_Swatch-2" x1="14.48" y1="81" x2="14.48" y2="77.7" gradientTransform="matrix(1, 0, 0, 1, 0, 0)" xlink:href="#linear-gradient"/><linearGradient id="New_Gradient_Swatch-3" x1="14.71" y1="72.35" x2="14.71" y2="69.05" gradientTransform="matrix(1, 0, 0, 1, 0, 0)" xlink:href="#linear-gradient"/><linearGradient id="New_Gradient_Swatch-4" x1="16.17" y1="63.69" x2="16.17" y2="60.4" gradientTransform="matrix(1, 0, 0, 1, 0, 0)" xlink:href="#linear-gradient"/><linearGradient id="linear-gradient-3" x1="15.16" y1="95.02" x2="15.16" y2="43.96" gradientUnits="userSpaceOnUse"><stop offset="0" stop-color="#2170b8"/><stop offset="1" stop-color="#30b3a8"/></linearGradient><linearGradient id="New_Gradient_Swatch-5" x1="34.36" y1="27.88" x2="34.36" y2="18.65" gradientTransform="matrix(1, 0, 0, 1, 0, 0)" xlink:href="#linear-gradient"/><linearGradient id="New_Gradient_Swatch-6" x1="34.14" y1="32.44" x2="34.14" y2="8.85" gradientTransform="matrix(1, 0, 0, 1, 0, 0)" xlink:href="#linear-gradient"/><linearGradient id="linear-gradient-4" x1="66.36" y1="22.52" x2="66.36" y2="0" gradientTransform="matrix(1, 0, 0, 1, 0, 0)" xlink:href="#linear-gradient"/><linearGradient id="linear-gradient-5" x1="57.08" y1="85.15" x2="73.16" y2="57.3" gradientTransform="matrix(1, 0, 0, 1, 0, 0)" xlink:href="#linear-gradient"/></defs><title>Asset 1</title><g id="Layer_2" data-name="Layer 2"><g id="forms"><g class="cls-2"><path class="cls-3" d="M109,17a3.13,3.13,0,0,0-2.2-1.1c-.2,0-.3-.1-.5-.1h-1.8a3.14,3.14,0,0,0-2.1.7c-.2.2-.4.3-.5.5a3.32,3.32,0,0,0-1,2.5v6.1a3.27,3.27,0,0,0,1.1,2.6,3.63,3.63,0,0,0,2.6,1.1h2.3a4.55,4.55,0,0,0,1.9-.8l.2-.2h.1a3.57,3.57,0,0,0,1.2-2.7v-6.1A5,5,0,0,0,109,17Zm-1.2,8.6a1.22,1.22,0,0,1-.4.9c-.1.1-.2.1-.3.2s-.5.2-.7.3h-2a1.37,1.37,0,0,1-1.4-1.4v-6.1a1.09,1.09,0,0,1,.4-.9l.1-.1a.1.1,0,0,1,.1-.1,1.33,1.33,0,0,1,.8-.3h1.7c.1,0,.2.1.3.1a.91.91,0,0,1,.7.3c0,.1.1.1.1.2a.87.87,0,0,1,.4.8v6.1Z"/><path class="cls-3" d="M77.59,121.89a1.22,1.22,0,0,0,1.2-1.2v-11.1a1.23,1.23,0,0,0-.7-1.1,1.26,1.26,0,0,0-1.3.2l-2.9,2.9a1.13,1.13,0,0,0,1.6,1.6l.9-.9v8.4A1.29,1.29,0,0,0,77.59,121.89Z"/><path class="cls-3" d="M61.39,20.79l.9-.9v8.3a1.22,1.22,0,0,0,1.2,1.2,1.16,1.16,0,0,0,1.2-1.2V17.09A1.23,1.23,0,0,0,64,16a1.12,1.12,0,0,0-1.3.3l-2.9,3a1.21,1.21,0,0,0,0,1.6A1.12,1.12,0,0,0,61.39,20.79Z"/><path class="cls-3" d="M63.49,121.89a1.22,1.22,0,0,0,1.2-1.2v-11.1a1.23,1.23,0,0,0-.7-1.1,1.12,1.12,0,0,0-1.3.3l-2.9,2.9a1.13,1.13,0,1,0,1.6,1.6l.9-.9v8.3A1.16,1.16,0,0,0,63.49,121.89Z"/><path class="cls-3" d="M49.29,47.79a1.22,1.22,0,0,0,1.2-1.2V35.49a1.23,1.23,0,0,0-.7-1.1,1.12,1.12,0,0,0-1.3.3l-2.9,3a1.13,1.13,0,0,0,1.6,1.6l.9-1v8.4A1.28,1.28,0,0,0,49.29,47.79Z"/><path class="cls-3" d="M107.09,91.09a1.23,1.23,0,0,0-.7-1.1,1.12,1.12,0,0,0-1.3.3l-2.9,2.9a1.13,1.13,0,0,0,1.6,1.6l.9-.9v8.3a1.22,1.22,0,0,0,1.2,1.2,1.16,1.16,0,0,0,1.2-1.2Z"/><path class="cls-3" d="M89.79,20.79l.9-.9v8.3a1.22,1.22,0,0,0,1.2,1.2,1.16,1.16,0,0,0,1.2-1.2V17.09a1.23,1.23,0,0,0-.7-1.1,1.12,1.12,0,0,0-1.3.3l-2.9,3a1.21,1.21,0,0,0,0,1.6A1.12,1.12,0,0,0,89.79,20.79Z"/><path class="cls-3" d="M106,121.89a1.22,1.22,0,0,0,1.2-1.2v-11.1a1.23,1.23,0,0,0-.7-1.1,1.12,1.12,0,0,0-1.3.3l-2.9,2.9a1.13,1.13,0,1,0,1.6,1.6l.9-.9v8.3A1.22,1.22,0,0,0,106,121.89Z"/><path class="cls-3" d="M80.69,17a3.42,3.42,0,0,0-2.7-1.2h-1.8a3.14,3.14,0,0,0-2.1.7,2.65,2.65,0,0,0-.5.6,3.25,3.25,0,0,0-1,2.4v6.1a3.63,3.63,0,0,0,1.1,2.6,3.37,3.37,0,0,0,2.6,1.2h1.8a3.47,3.47,0,0,0,2.5-1l.2-.2a3.54,3.54,0,0,0,1-2.6v-6.1A4.72,4.72,0,0,0,80.69,17Zm-1.3,8.6a1.28,1.28,0,0,1-.4,1l-.1.1a1.69,1.69,0,0,1-1,.3h-1.8a1.37,1.37,0,0,1-1.4-1.4v-6.1a1.22,1.22,0,0,1,.4-.9.77.77,0,0,0,.2-.3,1.33,1.33,0,0,1,.8-.3h1.8a1.39,1.39,0,0,1,1.1.5,1.09,1.09,0,0,1,.4.9Z"/><path class="cls-3" d="M106,66.39a1.22,1.22,0,0,0,1.2-1.2V54a1.23,1.23,0,0,0-.7-1.1,1.12,1.12,0,0,0-1.3.3l-2.9,3a1.13,1.13,0,0,0,1.6,1.6l.9-.9v8.4A1.2,1.2,0,0,0,106,66.39Z"/><path class="cls-4" d="M93.59,99.59c0,.4-.1.7-.3.8s-.3.2-.4.3a1,1,0,0,1-.8.3h-1.8a1,1,0,0,1-.9-.4l-.1-.1a1,1,0,0,1-.4-.9v-6.1a.87.87,0,0,1,.4-.8c.1-.1.2-.2.2-.3a1.88,1.88,0,0,1,.8-.2h1.8a1.5,1.5,0,0,1,1.1.4,1.09,1.09,0,0,1,.4.9Z"/><path class="cls-3" d="M77.89,34.29h-1.8a4.2,4.2,0,0,0-2.1.6,2.34,2.34,0,0,0-.7.7,3.69,3.69,0,0,0-1,2.4v6a3.31,3.31,0,0,0,1.1,2.6,3.63,3.63,0,0,0,2.6,1.1h1.8a4.07,4.07,0,0,0,2.4-.8.78.78,0,0,0,.4-.4,3.8,3.8,0,0,0,1-2.6v-6a3.74,3.74,0,0,0-1-2.5A3.93,3.93,0,0,0,77.89,34.29Zm1.5,9.8a1.18,1.18,0,0,1-.4,1l-.1.1h0a1.69,1.69,0,0,1-1,.3h-1.8a1,1,0,0,1-.9-.4l-.1-.1a1.18,1.18,0,0,1-.4-1V38a1.22,1.22,0,0,1,.4-.9c.1-.1.2-.2.2-.3a1.08,1.08,0,0,1,.8-.2h1.8a1.39,1.39,0,0,1,1.1.5,1.09,1.09,0,0,1,.4.9Z"/><path class="cls-3" d="M94.89,35.49a3.57,3.57,0,0,0-2.7-1.2h-1.8a3.7,3.7,0,0,0-2.1.6,1.7,1.7,0,0,0-.6.6,3.25,3.25,0,0,0-1,2.4v6a3.42,3.42,0,0,0,1.2,2.7,3.63,3.63,0,0,0,2.6,1.1h1.8a3.24,3.24,0,0,0,2.4-.9c.1,0,.2-.1.3-.2a3.69,3.69,0,0,0,1.1-2.7v-6A6,6,0,0,0,94.89,35.49Zm-1.3,8.6a1.08,1.08,0,0,1-.3.9c-.1.1-.3.2-.4.3a1,1,0,0,1-.8.3h-1.8a1,1,0,0,1-.9-.4l-.1-.1a1,1,0,0,1-.4-.9v-6a.87.87,0,0,1,.4-.8l.3-.3a1.08,1.08,0,0,1,.8-.2h1.8a1.39,1.39,0,0,1,1.1.5,1.09,1.09,0,0,1,.4.9v5.8Z"/><path class="cls-1" d="M108,73.49h-1.8a2.35,2.35,0,0,0-.8.2l-.3.3a.94.94,0,0,0-.4.9v6a1,1,0,0,0,.4.9l.1.1a1.22,1.22,0,0,0,.9.4h1.8a1,1,0,0,0,.8-.3,1.38,1.38,0,0,1,.4-.3,1.56,1.56,0,0,0,.3-.9v-6a1.09,1.09,0,0,0-.4-.9A1.16,1.16,0,0,0,108,73.49Z"/><path class="cls-3" d="M108,71.19h-1.8a3.7,3.7,0,0,0-2.1.6,1.7,1.7,0,0,0-.6.6,3.25,3.25,0,0,0-1,2.4v6a3.42,3.42,0,0,0,1.2,2.7,3.63,3.63,0,0,0,2.6,1.1h1.8a3.24,3.24,0,0,0,2.4-.9c.1,0,.2-.1.3-.2a3.69,3.69,0,0,0,1.1-2.7v-6a3.74,3.74,0,0,0-1-2.5A4.56,4.56,0,0,0,108,71.19Zm1.5,9.7a1.08,1.08,0,0,1-.3.9c-.1.1-.3.2-.4.3a1,1,0,0,1-.8.3h-1.8a1,1,0,0,1-.9-.4l-.1-.1a1,1,0,0,1-.4-.9V75a1.63,1.63,0,0,1,.4-.9l.3-.3a1.08,1.08,0,0,1,.8-.2h1.8a1.39,1.39,0,0,1,1.1.5,1.22,1.22,0,0,1,.4.9v5.9Z"/><path class="cls-3" d="M24,91a3.25,3.25,0,0,0-2.5-1.1h-2.1a3.38,3.38,0,0,0-2,.6,1.58,1.58,0,0,0-.7.7,3.25,3.25,0,0,0-1,2.4v6.1a3.31,3.31,0,0,0,1.1,2.6,3.27,3.27,0,0,0,2.6,1.1h2.1a2.79,2.79,0,0,0,2-.8c.1,0,.1-.1.2-.1a.1.1,0,0,0,.1-.1,3.63,3.63,0,0,0,1.1-2.6v-6.1A2.94,2.94,0,0,0,24,91Zm-1.2,8.6a1.3,1.3,0,0,1-.3.9l-.3.3a.59.59,0,0,1-.5.2h-2.1a1.11,1.11,0,0,1-1-.5,1,1,0,0,1-.4-.9v-6.1a1.22,1.22,0,0,1,.4-.9l.2-.2h.1a1.45,1.45,0,0,1,.7-.2h2a1.22,1.22,0,0,1,.9.4,1.09,1.09,0,0,1,.4.9v6.1Z"/><path class="cls-3" d="M21,121.89a1.22,1.22,0,0,0,1.2-1.2v-11.1a1.23,1.23,0,0,0-.7-1.1,1.12,1.12,0,0,0-1.3.3l-2.9,2.9a1.13,1.13,0,1,0,1.6,1.6l.9-.9v8.3A1.16,1.16,0,0,0,21,121.89Z"/><path class="cls-3" d="M4.69,20.79l.9-1v8.3a1.22,1.22,0,0,0,1.2,1.2A1.16,1.16,0,0,0,8,28.09v-11a1.23,1.23,0,0,0-.7-1.1,1.12,1.12,0,0,0-1.3.3l-2.9,3a1.21,1.21,0,0,0,0,1.6A1.12,1.12,0,0,0,4.69,20.79Z"/><path class="cls-3" d="M21,84.79a1.22,1.22,0,0,0,1.2-1.2v-11a1.23,1.23,0,0,0-.7-1.1,1.12,1.12,0,0,0-1.3.3l-2.9,2.9a1.13,1.13,0,1,0,1.6,1.6l.9-.9v8.3A1.13,1.13,0,0,0,21,84.79Z"/><path class="cls-3" d="M22.09,54a1.23,1.23,0,0,0-.7-1.1,1.12,1.12,0,0,0-1.3.3l-2.9,3a1.13,1.13,0,0,0,1.6,1.6l.9-.9v8.4a1.2,1.2,0,0,0,2.4,0Z"/><path class="cls-3" d="M9.89,54a3.42,3.42,0,0,0-2.7-1.2H5.39a4.2,4.2,0,0,0-2.1.6,2.34,2.34,0,0,0-.7.7,3.69,3.69,0,0,0-1,2.4v6.1a3.63,3.63,0,0,0,1.1,2.6,3.37,3.37,0,0,0,2.6,1.2h1.8a3.32,3.32,0,0,0,2.5-1l.1-.1a3.69,3.69,0,0,0,1.1-2.7v-6.1A3.24,3.24,0,0,0,9.89,54Zm-1.3,8.6a1.11,1.11,0,0,1-.5,1v.1a1.22,1.22,0,0,1-.9.4H5.39a1.09,1.09,0,0,1-.9-.4l-.1-.1a1.28,1.28,0,0,1-.4-1v-6.1a1.22,1.22,0,0,1,.4-.9c.1-.1.2-.2.2-.3a1.08,1.08,0,0,1,.8-.2h1.7a1.39,1.39,0,0,1,1.1.5,1.09,1.09,0,0,1,.4.9Z"/><path class="cls-3" d="M9.49,109.49a3.42,3.42,0,0,0-2.7-1.2H5a4.2,4.2,0,0,0-2.1.6,2.34,2.34,0,0,0-.7.7,3.69,3.69,0,0,0-1,2.4v6.1a3.63,3.63,0,0,0,1.1,2.6,3.37,3.37,0,0,0,2.6,1.2h1.8a3.32,3.32,0,0,0,2.5-1l.1-.1a3.69,3.69,0,0,0,1.1-2.7V112A3.11,3.11,0,0,0,9.49,109.49Zm-1.3,8.6a1.11,1.11,0,0,1-.5,1l-.1.1a1.22,1.22,0,0,1-.9.4H4.89a1.09,1.09,0,0,1-.9-.4l-.1-.1a1.28,1.28,0,0,1-.4-1V112a1.22,1.22,0,0,1,.4-.9c.1-.1.2-.2.2-.3a1.08,1.08,0,0,1,.8-.2h1.8a1.39,1.39,0,0,1,1.1.5,1.09,1.09,0,0,1,.4.9Z"/><path class="cls-4" d="M38.19,72.39a3.42,3.42,0,0,0-2.7-1.2h-1.8a4.2,4.2,0,0,0-2.1.6,2.34,2.34,0,0,0-.7.7,3.69,3.69,0,0,0-1,2.4V81a3.63,3.63,0,0,0,1.1,2.6,3.37,3.37,0,0,0,2.6,1.2h1.8a3.32,3.32,0,0,0,2.5-1l.1-.1a3.69,3.69,0,0,0,1.1-2.7v-6.1A2.58,2.58,0,0,0,38.19,72.39ZM37,80.89a1.11,1.11,0,0,1-.5,1l-.1.1a1.22,1.22,0,0,1-.9.4h-1.8a1.09,1.09,0,0,1-.9-.4l-.1-.1a1.28,1.28,0,0,1-.4-1v-6.1a1.22,1.22,0,0,1,.4-.9c.1-.1.2-.2.2-.3a1.08,1.08,0,0,1,.8-.2h1.8a1.39,1.39,0,0,1,1.1.5,1.09,1.09,0,0,1,.4.9Z"/><path class="cls-3" d="M8,72.59a1.23,1.23,0,0,0-.7-1.1,1.26,1.26,0,0,0-1.3.2l-2.9,3a1,1,0,0,0,0,1.6,1,1,0,0,0,1.6,0l.9-.9v8.3a1.22,1.22,0,0,0,1.2,1.2A1.16,1.16,0,0,0,8,83.69Z"/><path class="cls-3" d="M6.79,103.29a1.22,1.22,0,0,0,1.2-1.2v-11a1.23,1.23,0,0,0-.7-1.1,1.26,1.26,0,0,0-1.3.2l-2.9,3a1,1,0,0,0,0,1.6,1,1,0,0,0,1.6,0l.9-.9v8.3A1.28,1.28,0,0,0,6.79,103.29Z"/><path class="cls-3" d="M24.09,35.59a3.42,3.42,0,0,0-2.7-1.2h-1.8a3.38,3.38,0,0,0-2,.6,2.34,2.34,0,0,0-.7.7,3.25,3.25,0,0,0-1,2.4v6a3.31,3.31,0,0,0,1.1,2.6,3.27,3.27,0,0,0,2.6,1.1h1.9a2.94,2.94,0,0,0,2.2-.9c.1,0,.1-.1.2-.1a.1.1,0,0,0,.1-.1,3.69,3.69,0,0,0,1.1-2.7V38A3.49,3.49,0,0,0,24.09,35.59Zm-1.3,8.5a1.1,1.1,0,0,1-.3.9l-.3.3c-.1.1-.3.2-.8.2h-1.8a1.11,1.11,0,0,1-1-.5,1.18,1.18,0,0,1-.4-1V38a1.22,1.22,0,0,1,.4-.9l.2-.2.1-.1a1,1,0,0,1,.7-.2h1.9a1.22,1.22,0,0,1,1,.5,1.09,1.09,0,0,1,.4.9v6.1Z"/><path class="cls-3" d="M7.49,34.29H5.39a4.2,4.2,0,0,0-2.1.6,2.34,2.34,0,0,0-.7.7,3.69,3.69,0,0,0-1,2.4v6a3.31,3.31,0,0,0,1.1,2.6,3.63,3.63,0,0,0,2.6,1.1h2.2a3.86,3.86,0,0,0,2-.8c.1-.1.3-.2.3-.3a3.47,3.47,0,0,0,1.1-2.6V38a3.58,3.58,0,0,0-1.1-2.5A3.47,3.47,0,0,0,7.49,34.29Zm1.1,9.8a1.33,1.33,0,0,1-.4,1l-.1.1h0a.78.78,0,0,1-.6.3H5.39a1,1,0,0,1-.9-.4l-.1-.1a1.1,1.1,0,0,1-.4-.9v-6a1.22,1.22,0,0,1,.4-.9c.1-.1.2-.2.2-.3a1.08,1.08,0,0,1,.8-.2h2.1c.2,0,.4.1.7.4l.1.1a1.09,1.09,0,0,1,.4.9v6Z"/><path class="cls-3" d="M33.69,29.39h1.8a3.24,3.24,0,0,0,2.4-.9l.1-.1h.1a3.57,3.57,0,0,0,1.2-2.7v-6.1a3.17,3.17,0,0,0-1.2-2.5,3.42,3.42,0,0,0-2.7-1.2h-1.8a3.6,3.6,0,0,0-2.2.7,2.65,2.65,0,0,0-.5.6,3.25,3.25,0,0,0-1,2.4v6.1a3.63,3.63,0,0,0,1.1,2.6A3.86,3.86,0,0,0,33.69,29.39Zm-1.4-9.9a1.22,1.22,0,0,1,.4-.9.77.77,0,0,0,.2-.3,1.4,1.4,0,0,1,.9-.3h1.8a1,1,0,0,1,.9.4.1.1,0,0,0,.1.1.87.87,0,0,1,.4.8v6.1a1.22,1.22,0,0,1-.4.9l-.3.3a1.08,1.08,0,0,1-.8.2h-1.8a1.37,1.37,0,0,1-1.4-1.4Z"/><path class="cls-3" d="M48.69,29.39h1.8a3.24,3.24,0,0,0,2.4-.9l.1-.1h.1a3.57,3.57,0,0,0,1.2-2.7v-6.1a3.17,3.17,0,0,0-1.2-2.5,3.42,3.42,0,0,0-2.7-1.2h-1.8a3.6,3.6,0,0,0-2.2.7,2.65,2.65,0,0,0-.5.6,3.25,3.25,0,0,0-1,2.4v6.1a3.63,3.63,0,0,0,1.1,2.6A3.69,3.69,0,0,0,48.69,29.39Zm-1.5-9.9a1.22,1.22,0,0,1,.4-.9.77.77,0,0,0,.2-.3,1.4,1.4,0,0,1,.9-.3h1.8a1,1,0,0,1,.9.4.1.1,0,0,0,.1.1.87.87,0,0,1,.4.8v6.1a1.22,1.22,0,0,1-.4.9l-.3.3a1.08,1.08,0,0,1-.8.2h-1.8a1.37,1.37,0,0,1-1.4-1.4Z"/><path class="cls-3" d="M109,35.49a3.42,3.42,0,0,0-2.7-1.2h-1.8a4.2,4.2,0,0,0-2.1.6c-.3.1-.5.4-.7.6a3.69,3.69,0,0,0-1,2.4v6a3.31,3.31,0,0,0,1.1,2.6,3.63,3.63,0,0,0,2.6,1.1h1.8a3.32,3.32,0,0,0,2.5-1l.1-.1a3.51,3.51,0,0,0,1.3-2.7v-6A3.52,3.52,0,0,0,109,35.49Zm-1.2,8.6a1.11,1.11,0,0,1-.5,1l-.1.1a1.22,1.22,0,0,1-.9.3h-1.8a1.11,1.11,0,0,1-1-.5c-.2-.1-.4-.4-.4-1V38a1.09,1.09,0,0,1,.4-.9c.1-.1,0-.1.1-.1l.1-.1a1.33,1.33,0,0,1,.8-.3h1.8a1,1,0,0,1,.9.4.1.1,0,0,0,.1.1.87.87,0,0,1,.4.8v6.2Z"/><path class="cls-3" d="M35.19,47.79a1.22,1.22,0,0,0,1.2-1.2V35.49a1.23,1.23,0,0,0-.7-1.1,1.12,1.12,0,0,0-1.3.3l-2.9,3a1.13,1.13,0,0,0,1.6,1.6l.9-.9v8.3A1.13,1.13,0,0,0,35.19,47.79Z"/><path class="cls-3" d="M52.39,109.49a3.47,3.47,0,0,0-2.6-1.1h-1.9a4.2,4.2,0,0,0-2.1.6,1.58,1.58,0,0,0-.7.7,3.58,3.58,0,0,0-.9,2.4v6a3.54,3.54,0,0,0,1,2.6,3.69,3.69,0,0,0,2.6,1.2h2a3.25,3.25,0,0,0,2.2-1c.1,0,.1-.1.2-.2a3.34,3.34,0,0,0,1.1-2.7v-6A3,3,0,0,0,52.39,109.49Zm-1.3,8.6a1.4,1.4,0,0,1-.3.9,1.38,1.38,0,0,0-.4.3.91.91,0,0,1-.7.3h-1.9a1.52,1.52,0,0,1-1-.5,1.28,1.28,0,0,1-.4-1v-6a1.28,1.28,0,0,1,.4-1l.1-.1a1.34,1.34,0,0,1,.9-.2h1.9a1.78,1.78,0,0,1,1,.4,1.19,1.19,0,0,1,.4,1Z"/><path class="cls-3" d="M36,108.39c-.2,0-.3-.1-.5-.1h-1.8a4.28,4.28,0,0,0-2.2.6,2.65,2.65,0,0,0-.5.6,3.47,3.47,0,0,0-1,2.5v6a3.47,3.47,0,0,0,1.1,2.6,3.42,3.42,0,0,0,2.7,1.2H36a4.2,4.2,0,0,0,1.9-.9c.1,0,.1-.1.2-.2h0a3.42,3.42,0,0,0,1.2-2.7v-6a3.25,3.25,0,0,0-1.1-2.5A3.58,3.58,0,0,0,36,108.39Zm1,9.7a1.09,1.09,0,0,1-.4.9l-.3.3a.91.91,0,0,1-.7.3h-1.9a1.11,1.11,0,0,1-1-.5,1.28,1.28,0,0,1-.4-1v-6a1.29,1.29,0,0,1,.4-1c.1-.1,0-.1.1-.2a1.49,1.49,0,0,1,.9-.2h1.7a.37.37,0,0,1,.3.1,1,1,0,0,1,.8.4,1.35,1.35,0,0,1,.5.9Z"/><path class="cls-3" d="M93.49,108.39c-.2,0-.3-.1-.5-.1h-1.8a4.28,4.28,0,0,0-2.2.6,2.65,2.65,0,0,0-.5.6,3.47,3.47,0,0,0-1,2.5v6a3.47,3.47,0,0,0,1.1,2.6,3.42,3.42,0,0,0,2.7,1.2h2.2a4.2,4.2,0,0,0,1.9-.9c.1,0,.1-.1.2-.2h0a3.42,3.42,0,0,0,1.2-2.7v-6a3.25,3.25,0,0,0-1.1-2.5A3.33,3.33,0,0,0,93.49,108.39Zm1,9.7a1.09,1.09,0,0,1-.4.9l-.3.3a.91.91,0,0,1-.7.3h-1.9a1.11,1.11,0,0,1-1-.5,1.28,1.28,0,0,1-.4-1v-6a1.29,1.29,0,0,1,.4-1c.1-.1,0-.1.1-.2a1.49,1.49,0,0,1,.9-.2h1.7a.37.37,0,0,1,.3.1,1,1,0,0,1,.8.4,1.35,1.35,0,0,1,.5.9Z"/><path class="cls-3" d="M35.19,103.29a1.22,1.22,0,0,0,1.2-1.2v-11a1.23,1.23,0,0,0-.7-1.1,1.12,1.12,0,0,0-1.3.3l-2.9,2.9a1.13,1.13,0,1,0,1.6,1.6l.9-.9v8.3A1.13,1.13,0,0,0,35.19,103.29Z"/><path class="cls-3" d="M35.49,52.79h-1.8a3.7,3.7,0,0,0-2.1.6,2.34,2.34,0,0,0-.7.7,3.69,3.69,0,0,0-1,2.4v6.1a3.47,3.47,0,0,0,1.1,2.6,3.42,3.42,0,0,0,2.7,1.2h1.8a3.74,3.74,0,0,0,2.5-1l.1-.1h0a3.42,3.42,0,0,0,1.2-2.7v-6.1a3.17,3.17,0,0,0-1.2-2.5A3.09,3.09,0,0,0,35.49,52.79Zm1.5,9.8a1.09,1.09,0,0,1-.4.9l-.3.3a1.14,1.14,0,0,1-.8.3h-1.8a1.11,1.11,0,0,1-1-.5,1.28,1.28,0,0,1-.4-1v-6.1a1.22,1.22,0,0,1,.4-.9c.1-.1.2-.2.2-.3a1.08,1.08,0,0,1,.8-.2h1.8a1,1,0,0,1,.9.4.1.1,0,0,0,.1.1.87.87,0,0,1,.4.8v6.2Z"/><path class="cls-3" d="M18.89,20.79l.9-.9v8.3a1.2,1.2,0,1,0,2.4,0V17.09a1.23,1.23,0,0,0-.7-1.1,1.12,1.12,0,0,0-1.3.3l-2.9,3a1.21,1.21,0,0,0,0,1.6A1.12,1.12,0,0,0,18.89,20.79Z"/></g><path class="cls-5" d="M67.09,103.39a29.2,29.2,0,1,1,29.2-29.2A29.23,29.23,0,0,1,67.09,103.39Zm0-56.3a27.2,27.2,0,1,0,27.2,27.2A27.23,27.23,0,0,0,67.09,47.09Z"/><path class="cls-6" d="M123.89,120.89l-25.8-25.8a37,37,0,0,0,6.4-21,37.29,37.29,0,1,0-16.4,31.2l25.8,25.8a7.24,7.24,0,0,0,10.2,0A7.44,7.44,0,0,0,123.89,120.89Zm-21.7-46.8A35.1,35.1,0,1,1,67.09,39,35.15,35.15,0,0,1,102.19,74.09Zm20,55.2a4.65,4.65,0,0,1-6.7,0L90,103.79a38.62,38.62,0,0,0,6.7-6.7l25.5,25.5A4.65,4.65,0,0,1,122.19,129.29Z"/><path class="cls-7" d="M20.88,83.42H9.44V85.5H21.59C21.33,84.81,21.09,84.12,20.88,83.42Z"/><path class="cls-8" d="M19.36,74.77H9.44v2.07H19.53C19.45,76.16,19.39,75.47,19.36,74.77Z"/><path class="cls-9" d="M20,66.12H9.44v2.07H19.65C19.74,67.49,19.85,66.8,20,66.12Z"/><path class="cls-10" d="M22.9,57.47H9.44v2.07H22Q22.41,58.49,22.9,57.47Z"/><path class="cls-11" d="M26,93.69H6.56a4.38,4.38,0,0,1-3.22-1.24A4.47,4.47,0,0,1,2,89.35V53.82a4.41,4.41,0,0,1,1.24-3.1,5,5,0,0,1,3.22-1.24H28.27c.65-.73,1.34-1.43,2.05-2.1H6.44A6.35,6.35,0,0,0,0,53.82V89.35a6.29,6.29,0,0,0,1.86,4.46,6.36,6.36,0,0,0,4.58,1.86h21.1Q26.75,94.71,26,93.69Z"/><path class="cls-12" d="M34.81,19l-2.45,2.45a1,1,0,0,0-.33.78v4.56a1,1,0,0,0,1.11,1.11,1.11,1.11,0,0,0,1.11-1.11V22.65l2.12-2.11a1.09,1.09,0,0,0,0-1.56A1.07,1.07,0,0,0,34.81,19Z"/><path class="cls-13" d="M45,14.42l-1-1h0L42.93,12.3a1.1,1.1,0,0,0-1.56,1.56l.34.33-1.06,1.06A10.18,10.18,0,0,0,34.25,12V10A1.11,1.11,0,1,0,32,10V12A10.24,10.24,0,1,0,42,17l1.28-1.29.23.22a1,1,0,0,0,.78.34A.84.84,0,0,0,45,16,1.06,1.06,0,0,0,45,14.42ZM33.14,31a8.76,8.76,0,1,1,8.75-8.75A8.72,8.72,0,0,1,33.14,31Z"/><path class="cls-14" d="M66.36,0A11.26,11.26,0,1,0,77.62,11.26,11.27,11.27,0,0,0,66.36,0Zm-4.7,19.38v-.61a4.7,4.7,0,0,1,9.39,0v.61A9.33,9.33,0,0,1,61.66,19.38Zm1.88-10a2.82,2.82,0,1,1,2.82,2.81A2.82,2.82,0,0,1,63.54,9.39ZM72.88,18a6.6,6.6,0,0,0-3.5-5.06,4.69,4.69,0,1,0-6.61-.56,4.94,4.94,0,0,0,.56.56A6.57,6.57,0,0,0,59.84,18a9.38,9.38,0,1,1,13.27-.23Z"/><path class="cls-15" d="M52.88,64.29,63.17,77.87v9.82a1.2,1.2,0,0,0,.6,1.07L69,92.05a1.27,1.27,0,0,0,.68.21,1.22,1.22,0,0,0,.65-.17A1.2,1.2,0,0,0,71,91V77.87L81.28,64.29l.09-.09a1.79,1.79,0,0,0,0-1.84,1.86,1.86,0,0,0-1.58-.94H54.33a1.78,1.78,0,0,0-1.58.94,1.88,1.88,0,0,0,0,1.84S52.83,64.24,52.88,64.29ZM78.25,64,68.68,76.63a1.28,1.28,0,0,0-.26.77V88.63L65.73,87V77.44a1.21,1.21,0,0,0-.25-.77L55.87,64Z"/></g></g></svg>