<svg id="Layer_1" data-name="Layer 1" xmlns="http://www.w3.org/2000/svg" viewBox="0 0 20.11 23.51"><defs><style>.cls-1{fill:#fff;}</style></defs><title>filter icon</title><path class="cls-1" d="M26.12,7.8c-0.37,1.56-4.86,6.26-7.71,9.12v8.42L13.77,28V16.92C10.93,14.06,6.44,9.36,6.07,7.8a0.74,0.74,0,0,1,0-.19c0-1.5,4.72-3.09,10.05-3.09s10.05,1.6,10.05,3.09A0.74,0.74,0,0,1,26.12,7.8Zm-10-2.12c-4.7,0-8.89,1.08-8.89,1.93,0.77,1.93,7.73,9.28,7.73,9.28v9.28L17.25,25V16.89s7-7.35,7.73-9.28C25,6.75,20.79,5.67,16.09,5.67Zm4.64,6.19c-2.07,2.3-4.61,5-4.61,5s-2.65-2.78-4.67-5C14.32,11.89,18,11.91,20.74,11.86Z" transform="translate(-6.04 -4.51)"/></svg>