<?xml version="1.0" encoding="utf-8"?>
<!-- Generator: Adobe Illustrator 22.0.1, SVG Export Plug-In . SVG Version: 6.00 Build 0)  -->
<svg version="1.1" id="Layer_1" xmlns="http://www.w3.org/2000/svg" xmlns:xlink="http://www.w3.org/1999/xlink" x="0px" y="0px"
	 viewBox="0 0 17.1 17.1" style="enable-background:new 0 0 17.1 17.1;" xml:space="preserve">
<style type="text/css">
	.st0{fill:url(#SVGID_1_);}
	.st1{fill:url(#SVGID_2_);}
</style>
<g transform="translate(0,-952.36218)">
	<linearGradient id="SVGID_1_" gradientUnits="userSpaceOnUse" x1="8.5317" y1="970.6685" x2="8.5317" y2="952.5901">
		<stop  offset="0" style="stop-color:#2170B8"/>
		<stop  offset="1" style="stop-color:#30B3A8"/>
	</linearGradient>
	<path class="st0" d="M8.5,955.2c-0.8,0-1.4,0.6-1.4,1.4c0,0.8,0.6,1.4,1.4,1.4c0.8,0,1.4-0.6,1.4-1.4C10,955.8,9.3,955.2,8.5,955.2
		z M6.6,959l0.9,0.9v5.7H6.6v0.9h3.8v-0.9H9.5V959H7.6H6.6z"/>
	<linearGradient id="SVGID_2_" gradientUnits="userSpaceOnUse" x1="8.5317" y1="970.6685" x2="8.5317" y2="952.5901">
		<stop  offset="0" style="stop-color:#2170B8"/>
		<stop  offset="1" style="stop-color:#30B3A8"/>
	</linearGradient>
	<path class="st1" d="M4.3,952.4c-2.4,0-4.3,1.9-4.3,4.3v8.5c0,2.4,1.9,4.3,4.3,4.3h8.5c2.4,0,4.3-1.9,4.3-4.3v-8.5
		c0-2.4-1.9-4.3-4.3-4.3H4.3z M4.3,953.3h8.5c1.8,0,3.3,1.5,3.3,3.3v8.5c0,1.8-1.5,3.3-3.3,3.3H4.3c-1.8,0-3.3-1.5-3.3-3.3v-8.5
		C0.9,954.8,2.4,953.3,4.3,953.3z"/>
</g>
</svg>
