<?xml version="1.0" encoding="utf-8"?>
<!-- Generator: Adobe Illustrator 21.1.0, SVG Export Plug-In . SVG Version: 6.00 Build 0)  -->
<svg version="1.1" id="Layer_1" xmlns="http://www.w3.org/2000/svg" xmlns:xlink="http://www.w3.org/1999/xlink" x="0px" y="0px"
	 viewBox="0 0 49.5 36.3" style="enable-background:new 0 0 49.5 36.3;" xml:space="preserve">
<g>
	<g>
		<path d="M28.7,21.9h-4c-3.3,0-6-2.7-6-6c0-3.3,2.7-6,6-6h5.3c3.3,0,6,2.7,6,6c0,2.7-1.7,5-4.3,5.8l-0.4-1.4
			c1.9-0.6,3.2-2.3,3.2-4.3c0-2.5-2-4.5-4.5-4.5h-5.3c-2.5,0-4.5,2-4.5,4.5c0,2.5,2,4.5,4.5,4.5h4V21.9z"/>
	</g>
	<g>
		<path d="M24.8,26.5h-5.3c-3.3,0-6-2.7-6-6c0-2.7,1.7-5,4.3-5.7l0.4,1.4c-1.9,0.6-3.2,2.3-3.2,4.3c0,2.5,2,4.5,4.5,4.5h5.3
			c2.5,0,4.5-2,4.5-4.5c0-2.5-2-4.5-4.5-4.5h-4v-1.5h4c3.3,0,6,2.7,6,6C30.8,23.8,28.2,26.5,24.8,26.5z"/>
	</g>
</g>
</svg>
