<?xml version="1.0" encoding="UTF-8"?>
<svg width="16px" height="16px" viewBox="0 0 16 16" version="1.1" xmlns="http://www.w3.org/2000/svg" xmlns:xlink="http://www.w3.org/1999/xlink">
    <!-- Generator: Sketch 58 (84663) - https://sketch.com -->
    <title>Group 3</title>
    <desc>Created with Sketch.</desc>
    <g id="Symbols" stroke="none" stroke-width="1" fill="none" fill-rule="evenodd">
        <g id="Side_panels/Panel1" transform="translate(-179.000000, -98.000000)" fill="#FFFFFF">
            <g id="Group-3" transform="translate(179.000000, 98.000000)">
                <path d="M8,6.4 C8.88736,6.4 9.6,7.11253333 9.6,8 C9.6,8.88736 8.88736,9.6 8,9.6 C7.11253333,9.6 6.4,8.88736 6.4,8 C6.4,7.11253333 7.11253333,6.4 8,6.4 M8,5.33333333 C6.53168254,5.33333333 5.33333333,6.53180952 5.33333333,8 C5.33333333,9.46819048 6.53168254,10.6666667 8,10.6666667 C9.46831746,10.6666667 10.6666667,9.46819048 10.6666667,8 C10.6666667,6.53180952 9.46831746,5.33333333 8,5.33333333 M8,1.06666667 C8.23377778,1.06666667 8.46097778,1.09386667 8.68888889,1.11662222 L9.08888889,2.49991111 C9.13937778,2.67733333 9.27804444,2.816 9.45564444,2.86666667 C9.8576,2.98044444 10.2412444,3.14382222 10.6,3.34435556 C10.7607111,3.43342222 10.9559111,3.43342222 11.1166222,3.34435556 L12.3832889,2.64995556 C12.5598222,2.79448889 12.7409778,2.92977778 12.9056,3.0944 C13.0702222,3.25902222 13.2053333,3.44017778 13.3500444,3.61671111 L12.6554667,4.88337778 C12.5665778,5.04408889 12.5665778,5.23928889 12.6554667,5.4 C12.8561778,5.75875556 13.0195556,6.14222222 13.1333333,6.54435556 C13.1838222,6.72177778 13.3224889,6.86044444 13.4999111,6.91111111 L14.8833778,7.31111111 C14.9061333,7.53902222 14.9333333,7.76604444 14.9333333,8 C14.9333333,8.23377778 14.9061333,8.46097778 14.8833778,8.68888889 L13.4999111,9.08888889 C13.3224889,9.13937778 13.1838222,9.27804444 13.1333333,9.45546667 C13.0195556,9.8576 12.8561778,10.2412444 12.6554667,10.6 C12.5665778,10.7607111 12.5665778,10.9559111 12.6554667,11.1166222 L13.3500444,12.3832889 C13.2053333,12.5596444 13.0702222,12.7409778 12.9056,12.9056 C12.7409778,13.0702222 12.5598222,13.2053333 12.3832889,13.3500444 L11.1166222,12.6556444 C10.9559111,12.5665778 10.7607111,12.5665778 10.6,12.6556444 C10.2412444,12.8561778 9.8576,13.0195556 9.45564444,13.1333333 C9.27804444,13.1838222 9.13937778,13.3224889 9.08888889,13.5000889 L8.68888889,14.8833778 C8.46097778,14.9061333 8.23377778,14.9333333 8,14.9333333 C7.76604444,14.9333333 7.53902222,14.9061333 7.31111111,14.8833778 L6.91111111,13.5000889 C6.86044444,13.3224889 6.72195556,13.1838222 6.54435556,13.1333333 C6.1424,13.0195556 5.75875556,12.8561778 5.4,12.6556444 C5.23928889,12.5665778 5.04408889,12.5665778 4.88337778,12.6556444 L3.61671111,13.3500444 C3.44017778,13.2053333 3.25902222,13.0702222 3.0944,12.9056 C2.92977778,12.7409778 2.79448889,12.5596444 2.64995556,12.3832889 L3.34453333,11.1166222 C3.43342222,10.9559111 3.43342222,10.7607111 3.34453333,10.6 C3.14382222,10.2412444 2.98044444,9.8576 2.86666667,9.45546667 C2.816,9.27804444 2.67751111,9.13937778 2.50008889,9.08888889 L1.11662222,8.68888889 C1.09386667,8.46097778 1.06666667,8.23377778 1.06666667,8 C1.06666667,7.76604444 1.09386667,7.53902222 1.11662222,7.31111111 L2.50008889,6.91111111 C2.67751111,6.86044444 2.816,6.72177778 2.86666667,6.54435556 C2.98044444,6.14222222 3.14382222,5.75875556 3.34453333,5.4 C3.43342222,5.23928889 3.43342222,5.04408889 3.34453333,4.88337778 L2.64995556,3.61671111 C2.79448889,3.44017778 2.92977778,3.25902222 3.0944,3.0944 C3.25902222,2.92977778 3.44017778,2.79448889 3.61671111,2.64995556 L4.88337778,3.34435556 C5.04408889,3.43342222 5.23928889,3.43342222 5.4,3.34435556 C5.75875556,3.14382222 6.1424,2.98044444 6.54435556,2.86666667 C6.72195556,2.816 6.86044444,2.67733333 6.91111111,2.49991111 L7.31111111,1.11662222 C7.53902222,1.09386667 7.76604444,1.06666667 8,1.06666667 M8,0 C7.60195556,0 7.20977778,0.0272 6.82773333,0.0833777778 C6.62062222,0.114844444 6.45102222,0.264888889 6.39448889,0.466666667 L5.96106667,1.96106667 C5.6896,2.05315556 5.4256,2.16302222 5.17226667,2.28888889 L3.80551111,1.53333333 C3.6224,1.43555556 3.39911111,1.4528 3.23342222,1.57777778 C2.92355556,1.80817778 2.62595556,2.06293333 2.34453333,2.34453333 C2.06293333,2.62595556 1.80817778,2.92355556 1.57777778,3.23324444 C1.4528,3.39911111 1.43555556,3.6224 1.53333333,3.80551111 L2.28888889,5.17226667 C2.16302222,5.4256 2.05315556,5.68942222 1.96106667,5.96106667 L0.466666667,6.39448889 C0.264888889,6.45102222 0.114844444,6.62062222 0.0833777778,6.82773333 C0.0272,7.20977778 0,7.60195556 0,8 C0,8.39786667 0.0272,8.79004444 0.0833777778,9.17226667 C0.114844444,9.37937778 0.264888889,9.54897778 0.466666667,9.60551111 L1.96106667,10.0389333 C2.05315556,10.3104 2.16302222,10.5742222 2.28888889,10.8277333 L1.53333333,12.1944889 C1.43555556,12.3776 1.4528,12.6008889 1.57777778,12.7667556 C1.80817778,13.0764444 2.06293333,13.3740444 2.34453333,13.6556444 C2.62595556,13.9370667 2.92355556,14.1916444 3.23342222,14.4222222 C3.39911111,14.5470222 3.6224,14.5644444 3.80551111,14.4666667 L5.17226667,13.7111111 C5.4256,13.8369778 5.6896,13.9466667 5.96106667,14.0389333 L6.39448889,15.5333333 C6.45102222,15.7351111 6.62062222,15.8851556 6.82773333,15.9166222 C7.20977778,15.9728 7.60195556,16 8,16 C8.39786667,16 8.79004444,15.9728 9.17226667,15.9166222 C9.37955556,15.8851556 9.54897778,15.7351111 9.60551111,15.5333333 L10.0389333,14.0389333 C10.3104,13.9466667 10.5742222,13.8369778 10.8277333,13.7111111 L12.1944889,14.4666667 C12.3776,14.5644444 12.6008889,14.5470222 12.7665778,14.4222222 C13.0764444,14.1916444 13.3740444,13.9370667 13.6554667,13.6556444 C13.9370667,13.3740444 14.1918222,13.0764444 14.4222222,12.7667556 C14.5472,12.6008889 14.5644444,12.3776 14.4666667,12.1944889 L13.7111111,10.8277333 C13.8369778,10.5742222 13.9466667,10.3104 14.0389333,10.0389333 L15.5333333,9.60551111 C15.7351111,9.54897778 15.8851556,9.37937778 15.9166222,9.17226667 C15.9728,8.79004444 16,8.39786667 16,8 C16,7.60195556 15.9728,7.20977778 15.9166222,6.82773333 C15.8851556,6.62062222 15.7351111,6.45102222 15.5333333,6.39448889 L14.0389333,5.96106667 C13.9466667,5.68942222 13.8369778,5.4256 13.7111111,5.17226667 L14.4666667,3.80551111 C14.5644444,3.6224 14.5472,3.39911111 14.4222222,3.23324444 C14.1918222,2.92355556 13.9370667,2.62595556 13.6554667,2.34453333 C13.3740444,2.06293333 13.0764444,1.80817778 12.7665778,1.57777778 C12.6008889,1.4528 12.3776,1.43555556 12.1944889,1.53333333 L10.8277333,2.28888889 C10.5742222,2.16302222 10.3104,2.05315556 10.0389333,1.96106667 L9.60551111,0.466666667 C9.54897778,0.264888889 9.37955556,0.114844444 9.17226667,0.0833777778 C8.79004444,0.0272 8.39786667,0 8,0" id="Fill-1"></path>
            </g>
        </g>
    </g>
</svg>