<?xml version="1.0" encoding="utf-8"?>
<!-- Generator: Adobe Illustrator 21.1.0, SVG Export Plug-In . SVG Version: 6.00 Build 0)  -->
<svg version="1.1" id="Layer_1" xmlns="http://www.w3.org/2000/svg" xmlns:xlink="http://www.w3.org/1999/xlink" x="0px" y="0px"
	 viewBox="0 0 50 50" style="enable-background:new 0 0 50 50;" xml:space="preserve">
<style type="text/css">
	.st0-header{fill:none;stroke:#FFFFFF;stroke-width:2;stroke-miterlimit:10;}
</style>
<g>
	<path class="st0-header" d="M40.4,31.2c5-1.5,8.6-6.1,8.6-11.6l0,0c0-6.6-5.4-12-12.1-12H24.8c-6.7,0-12.1,5.4-12.1,12.1l0,0
		c0,6.7,5.4,12.1,12.1,12.1H34"/>
	<path class="st0-header" d="M9.6,18.8C4.6,20.3,1,24.9,1,30.3l0,0C1,37,6.4,42.4,13.1,42.4h12.1c6.7,0,12.1-5.4,12.1-12.1l0,0
		c0-6.7-5.4-12.1-12.1-12.1H16"/>
</g>
</svg>
