<?xml version="1.0" encoding="utf-8"?>
<!-- Generator: Adobe Illustrator 22.0.1, SVG Export Plug-In . SVG Version: 6.00 Build 0)  -->
<svg version="1.1" id="Layer_1" xmlns="http://www.w3.org/2000/svg" xmlns:xlink="http://www.w3.org/1999/xlink" x="0px" y="0px"
	 viewBox="0 688.2 25.9 25.4" style="enable-background:new 0 688.2 25.9 25.4;" xml:space="preserve">
<style type="text/css">
	.st0{fill:none;}
	.st1{fill:#FFFFFF;}
</style>
<g>
	<path class="st0" d="M15.1,695.2C15,695.2,15,695.2,15.1,695.2c0.4,0.1,0.8,0.2,1.2,0.4v-3.7h-1.5"/>
	<path class="st0" d="M12.8,691.6c0-0.5-0.5-0.9-1.1-0.9h-1.2c-0.2,0-0.3-0.1-0.3-0.3c0-0.9-0.7-1.6-1.6-1.6c-0.9,0-1.6,0.7-1.6,1.6
		c0,0.2-0.1,0.3-0.3,0.3H5.5c-0.6,0-1.1,0.4-1.1,0.9v1.6h8.4V691.6z"/>
	<path class="st0" d="M19.5,704.6c0,0-0.1,0-0.1,0c-0.1,0-0.1,0-0.1,0l-0.4,0.4l-0.4,0.4c0,0,0,0.2,0,0.2l5.5,5.5
		c0.3,0.3,0.8,0.3,1.1,0l0.1-0.1c0.3-0.3,0.3-0.8,0-1L19.5,704.6z"/>
	<path class="st0" d="M17.5,697.2c-0.9-0.9-2-1.4-3.3-1.4c-1.2,0-2.4,0.5-3.3,1.4c-1.8,1.8-1.8,4.7,0,6.6c1.8,1.8,4.7,1.8,6.6,0
		C19.4,702,19.4,699,17.5,697.2z"/>
	<path class="st0" d="M18.3,703.9c-0.1,0.1-0.2,0.2-0.3,0.3c-0.1,0.1-0.2,0.2-0.4,0.2l0.4,0.4l0.3-0.3l0.3-0.3L18.3,703.9z"/>
	<path class="st1" d="M25.5,709.6l-5.6-5.5c-0.2-0.2-0.5-0.3-0.8-0.2l-0.5-0.5c1.3-2,1.1-4.8-0.7-6.7c-0.3-0.3-0.7-0.6-1.1-0.8v-4.3
		c0-0.2-0.1-0.3-0.3-0.3h-2.1h-1.2c-0.2-0.7-0.9-1.2-1.7-1.2h-0.9c-0.1-1-1-1.8-2.1-1.8c-1.1,0-2,0.8-2.2,1.9H5.5
		c-0.8,0-1.5,0.5-1.7,1.2H0.3c-0.2,0-0.3,0.1-0.3,0.3v21.7c0,0.2,0.1,0.3,0.3,0.3h16.3c0.2,0,0.3-0.1,0.3-0.3V705
		c0,0,0.1-0.1,0.2-0.1l0.5,0.5c0,0.2,0,0.5,0.2,0.8l5.5,5.5c0.2,0.2,0.6,0.4,1,0.4c0.4,0,0.7-0.1,1-0.4l0.1-0.1
		C26,711,26,710.2,25.5,709.6z M4.4,691.6c0-0.5,0.5-0.9,1.1-0.9h1.2c0.2,0,0.3-0.1,0.3-0.3c0-0.9,0.7-1.6,1.6-1.6
		c0.9,0,1.6,0.7,1.6,1.6c0,0.2,0.1,0.3,0.3,0.3h1.2c0.6,0,1.1,0.4,1.1,0.9v1.6H4.4V691.6z M16.3,691.8v3.7c-0.4-0.2-0.9-0.3-1.3-0.4
		c-0.4,0-0.6,0-0.7,0v0c-1.4,0-2.7,0.6-3.6,1.5c-2.1,2.1-2.1,5.4,0,7.5c0.7,0.7,2.8,2.3,5.7,1.1v7.6H3.8H0.6v-21.1h3.1h0v1.7
		c0,0.2,0.1,0.3,0.3,0.3l8.9,0c0.2,0,0.3-0.1,0.3-0.3l0-1.7 M11,703.8c-1.8-1.8-1.8-4.7,0-6.6c0.9-0.9,2-1.4,3.3-1.4
		c1.2,0,2.4,0.5,3.3,1.4c1.9,1.8,1.9,4.7,0,6.6C15.7,705.6,12.8,705.6,11,703.8z M18,704.8l-0.4-0.4c0.2,0,0.3-0.1,0.4-0.2
		c0.1-0.1,0.2-0.2,0.3-0.3l0.4,0.4l-0.3,0.3L18,704.8z M25,711.1L25,711.1c-0.4,0.4-0.9,0.4-1.2,0.1l-5.5-5.5c0,0,0-0.2,0-0.2
		l0.4-0.4l0.4-0.4c0,0,0,0,0.1,0c0,0,0.1,0,0.1,0l5.5,5.5C25.3,710.3,25.3,710.8,25,711.1z"/>
</g>
</svg>
