<?xml version="1.0" encoding="utf-8"?>
<!-- Generator: Adobe Illustrator 19.2.1, SVG Export Plug-In . SVG Version: 6.00 Build 0)  -->
<svg version="1.1" id="Layer_1" xmlns="http://www.w3.org/2000/svg" xmlns:xlink="http://www.w3.org/1999/xlink" x="0px" y="0px"
	 viewBox="0 0 100 100" style="enable-background:new 0 0 100 100;" xml:space="preserve">
<style type="text/css">
	.st0{fill:#5C637C;}
</style>
<g>
	<path class="st0" d="M83.3,9.5H55.6c-2,0-4.7,1.1-6,2.5l-38,38c-1.3,1.3-2.1,3.1-2.1,5.1c0,1.9,0.7,3.7,2.1,5.1l28.3,28.3
		c1.3,1.3,3.1,2.1,5.1,2.1s3.7-0.7,5.1-2.1l38-38c1.4-1.4,2.5-4.1,2.5-6V16.7C90.5,12.7,87.3,9.5,83.3,9.5z M82.8,44.7L44.9,82.6
		L17.4,55.1l19.8-19.8c9.1-9.1,14.7-14.7,17.9-18.1h27.8V44.7z"/>
	<circle class="st0" cx="70" cy="30" r="6.7"/>
</g>
</svg>
