<?xml version="1.0" encoding="utf-8"?>
<!-- Generator: Adobe Illustrator 22.0.1, SVG Export Plug-In . SVG Version: 6.00 Build 0)  -->
<svg version="1.1" id="Layer_1" xmlns="http://www.w3.org/2000/svg" xmlns:xlink="http://www.w3.org/1999/xlink" x="0px" y="0px"
	 viewBox="0 0 176.4 23" style="enable-background:new 0 0 176.4 23;" xml:space="preserve">
<style type="text/css">
	.st0{fill-rule:evenodd;clip-rule:evenodd;fill:#FFFFFF;}
	.st1{fill:#FFFFFF;}
	.st2{fill:none;}
</style>
<g>
	<g>
		<rect x="84.6" y="2.3" class="st0" width="15.3" height="3.1"/>
		<path class="st0" d="M90.7,6.5c0.7-0.3,1.7-0.6,3.1-1v15.2h-3.1V6.5z"/>
		<polygon class="st0" points="49.8,2.3 49.8,9.9 59,9.9 59,2.3 62,2.3 62,20.7 59,20.7 59,13 49.8,13 49.8,20.7 46.7,20.7 
			46.7,2.3 		"/>
		<rect x="26.4" y="2.3" class="st0" width="15.3" height="3.1"/>
		<polygon class="st0" points="70.4,10 79.6,10 79.6,13 70.4,13 70.4,17.6 79.6,17.6 79.6,20.7 67.4,20.7 67.4,2.3 79.6,2.3 
			79.6,5.4 70.4,5.4 		"/>
		<polygon class="st0" points="115.9,20.7 110.2,9.2 104.4,20.7 101,20.7 110.2,2.3 119.4,20.7 		"/>
		<path class="st0" d="M35.2,5.6c0.1,0,0.3-0.1,0.4-0.1v15.2h-3.1V6.5c0.5-0.2,1-0.4,1.7-0.6c0.2-0.1,0.4-0.1,0.6-0.2
			C34.9,5.6,35.1,5.6,35.2,5.6"/>
		<polygon class="st0" points="162.2,2.3 167.5,9 172.7,2.3 176.4,2.3 176.4,2.5 169,11.9 169,20.7 166,20.7 166,12.1 158.3,2.3 		
			"/>
		<polygon class="st0" points="155.6,20.7 149.9,9.2 144.1,20.7 140.7,20.7 149.9,2.3 159,20.7 		"/>
		<path class="st0" d="M137,11.9c0.7-1,1.1-2.2,1.1-3.4c0-1.7-0.6-3.1-1.8-4.3c-1.2-1.2-2.6-1.8-4.3-1.8h-9.2v18.4h3v-6.1h5.2
			l3.5,6.1h3.5l-3.8-6.6C135.5,13.6,136.3,12.9,137,11.9 M132,11.5l-6.2-0.1V5.4h6.2c0.8,0,1.5,0.3,2.1,0.9c0.6,0.6,0.9,1.3,0.9,2.2
			c0,0.8-0.3,1.5-0.9,2.2C133.6,11.2,132.9,11.5,132,11.5"/>
		<g>
			<path class="st1" d="M18.9,8.7c-0.1-0.8-0.2-1.6-0.5-2.4c-0.1-0.3-0.2-0.6-0.4-1c-0.5-0.9-1.1-1.7-1.8-2.5h0
				c-0.6-0.6-1.2-1.1-1.9-1.5C12.8,0.4,11.2,0,9.4,0C8,0,6.7,0.3,5.6,0.8c-0.6,0.3-1.2,0.6-1.8,1l0,0c-0.4,0.3-0.7,0.6-1,0.9
				L2.6,2.9l0,0C0.9,4.8,0,6.9,0,9.4v0.2c0,1.2,0.2,2.4,0.7,3.4c0.3,0.9,0.8,1.7,1.5,2.4c0.2,0.2,0.4,0.5,0.6,0.7l0,0L9.5,23
				l6.4-6.6l0.1-0.1l0.2-0.2c0.1-0.1,0.1-0.1,0.2-0.2c1.6-1.7,2.4-3.7,2.5-6l0-0.5C18.9,9.4,18.9,9.2,18.9,8.7z M14.8,10.5
				c0,0.6-0.1,1.1-0.1,1.6l0,0.1v0.1l0,0.1l-0.1,0.5L14,14.2l-0.7,1.1c-0.9,1.1-2,1.7-3.5,1.8H9.2c-1.3,0-2.3-0.5-3.1-1.3
				c-0.2-0.2-0.4-0.4-0.6-0.7l-0.4-0.7l0,0l-0.6-1.6l-0.1-0.5v-0.1l0-0.1v-0.1l0,0v0c-0.1-0.4-0.1-0.9-0.2-1.5V9.9
				c0-0.9,0.1-1.7,0.2-2.5c0.2-1.1,0.6-2,1.2-2.8c0.9-1.2,2.2-1.8,3.8-1.8c1.8,0,3.1,0.6,4,1.9c0.5,0.7,0.8,1.5,1.1,2.5
				c0.2,1,0.3,1.9,0.3,2.9V10.5z"/>
			<path class="st2" d="M12.6,12.7h-0.5v-0.1c0-0.6-0.1-1-0.4-1.3c-0.3-0.3-0.8-0.4-1.5-0.4h-1c-0.7,0-1.2,0.1-1.5,0.4
				c-0.3,0.3-0.4,0.7-0.4,1.3v0.1H6.7V7.3h0.5l0,0.7c0.1,0.3,0.2,0.5,0.4,0.7c0.1,0.1,0.3,0.2,0.5,0.3C8.4,9,8.7,9.1,9.2,9.1h1
				c0.4,0,0.6,0,0.8-0.1c0.3-0.1,0.5-0.2,0.7-0.3c0.2-0.1,0.3-0.4,0.4-0.7l0-0.7h0.5V12.7z"/>
			<path class="st1" d="M12.1,7.9c-0.1,0.4-0.2,0.6-0.4,0.7C11.5,8.8,11.3,8.9,11,9c-0.2,0.1-0.5,0.1-0.8,0.1h-1
				c-0.4,0-0.8,0-1.1-0.1C7.9,8.9,7.7,8.8,7.6,8.7C7.4,8.4,7.3,8.2,7.2,7.9l0-0.7H6.7v5.4h0.5v-0.1c0-0.6,0.1-1,0.4-1.3
				c0.3-0.3,0.8-0.4,1.5-0.4h1c0.8,0,1.3,0.1,1.5,0.4c0.3,0.3,0.4,0.7,0.4,1.3v0.1h0.5V7.3h-0.5L12.1,7.9z"/>
		</g>
	</g>
</g>
</svg>
