<?xml version="1.0" encoding="utf-8"?>
<!-- Generator: Adobe Illustrator 16.0.0, SVG Export Plug-In . SVG Version: 6.00 Build 0)  -->
<!DOCTYPE svg PUBLIC "-//W3C//DTD SVG 1.1//EN" "http://www.w3.org/Graphics/SVG/1.1/DTD/svg11.dtd">
<svg version="1.1" id="Layer_1" xmlns="http://www.w3.org/2000/svg" xmlns:xlink="http://www.w3.org/1999/xlink" x="0px" y="0px"
	 width="595.28px" height="841.89px" viewBox="0 0 595.28 841.89" enable-background="new 0 0 595.28 841.89" xml:space="preserve">
<path fill-rule="evenodd" clip-rule="evenodd" fill="#FFFFFF" d="M307.292,427.347l-4.364-4.364
	c-0.117-0.117-0.247-0.21-0.382-0.292c0.756-1.171,1.2-2.563,1.2-4.061c0-4.142-3.357-7.5-7.5-7.5c-4.142,0-7.5,3.358-7.5,7.5
	c0,4.143,3.358,7.5,7.5,7.5c1.256,0,2.438-0.313,3.478-0.858c0.095,0.194,0.214,0.379,0.375,0.54l4.363,4.364
	c0.781,0.781,2.048,0.781,2.829,0S308.074,428.127,307.292,427.347z M290.747,418.629c0-3.038,2.462-5.5,5.5-5.5
	c3.038,0,5.5,2.462,5.5,5.5c0,3.038-2.462,5.5-5.5,5.5C293.209,424.129,290.747,421.667,290.747,418.629z"/>
</svg>
