<?xml version="1.0" encoding="utf-8"?>
<!-- Generator: Adobe Illustrator 16.0.0, SVG Export Plug-In . SVG Version: 6.00 Build 0)  -->
<!DOCTYPE svg PUBLIC "-//W3C//DTD SVG 1.1//EN" "http://www.w3.org/Graphics/SVG/1.1/DTD/svg11.dtd">
<svg version="1.1" id="Layer_1" xmlns="http://www.w3.org/2000/svg" xmlns:xlink="http://www.w3.org/1999/xlink" x="0px" y="0px"
	 width="20.25px" height="18.25px" viewBox="0 0 20.25 18.25" enable-background="new 0 0 20.25 18.25" xml:space="preserve">
<g transform="translate(-210 -560)">
	<g>
		<g>
			<path fill="#5D637D" d="M220.37,576.208h4.884c1.08,0,1.955-0.875,1.955-1.954v-4.885h-6.839V576.208L220.37,576.208z
				 M221.834,571.322h3.908v0.978h-3.908V571.322z M225.742,573.276v0.978h-3.908v-0.978H225.742z"/>
			<path fill="#5D637D" d="M227.209,568.88v-4.885c0-1.079-0.875-1.953-1.955-1.953h-4.884v6.838H227.209z M225.742,564.974v0.977
				h-3.908v-0.977H225.742z"/>
			<path fill="#5D637D" d="M213.042,569.369v4.885c0,1.079,0.875,1.954,1.955,1.954h4.885v-6.839H213.042z M217.498,574.517
				l-1.036-1.037l-1.036,1.037l-0.69-0.691l1.037-1.036l-1.037-1.035l0.69-0.69l1.036,1.035l1.036-1.035l0.69,0.69l-1.035,1.035
				l1.035,1.036L217.498,574.517z"/>
			<path fill="#5D637D" d="M219.881,562.042h-4.885c-1.08,0-1.955,0.874-1.955,1.953v4.885h6.84V562.042z M216.95,567.415h-0.978
				v-1.466h-1.466v-0.978h1.466v-1.466h0.978v1.466h1.466v0.978h-1.466V567.415z"/>
		</g>
	</g>
</g>
</svg>
