<?xml version="1.0" encoding="utf-8"?>
<!-- Generator: Adobe Illustrator 21.0.0, SVG Export Plug-In . SVG Version: 6.00 Build 0)  -->
<svg version="1.1" id="Layer_1" xmlns="http://www.w3.org/2000/svg" xmlns:xlink="http://www.w3.org/1999/xlink" x="0px" y="0px"
	 viewBox="0 0 24 24" style="enable-background:new 0 0 24 24;" xml:space="preserve">
<style type="text/css">
	.st0{fill:#FFFFFF;}
</style>
<g>
	<path class="st0" d="M15.5,12.7L13,11.4V7.7c0-0.6-0.4-1-1-1s-1,0.4-1,1V12c0,0.4,0.2,0.7,0.6,0.9l3.1,1.5c0.1,0.1,0.3,0.1,0.4,0.1
		c0.4,0,0.7-0.2,0.9-0.6c0.1-0.2,0.1-0.5,0.1-0.8C16,13,15.8,12.8,15.5,12.7z"/>
	<path class="st0" d="M12,2.5c-5.2,0-9.5,4.3-9.5,9.5s4.3,9.5,9.5,9.5s9.5-4.3,9.5-9.5S17.2,2.5,12,2.5z M12,19.5
		c-4.1,0-7.5-3.4-7.5-7.5c0-4.1,3.4-7.5,7.5-7.5s7.5,3.4,7.5,7.5C19.5,16.1,16.1,19.5,12,19.5z"/>
</g>
</svg>
