<?xml version="1.0" encoding="utf-8"?>
<!-- Generator: Adobe Illustrator 22.0.1, SVG Export Plug-In . SVG Version: 6.00 Build 0)  -->
<svg version="1.1" id="Layer_1" xmlns="http://www.w3.org/2000/svg" xmlns:xlink="http://www.w3.org/1999/xlink" x="0px" y="0px"
	 viewBox="0 0 12.6 9" style="enable-background:new 0 0 12.6 9;" xml:space="preserve">
<style type="text/css">
	.st0{fill:#0F76D7;}
</style>
<path class="st0" d="M12.5,0.2C12.3,0,12.1,0,11.9,0c-0.2,0-0.3,0.1-0.4,0.2L4.2,7.5L1.1,5.1C1,5,0.8,5,0.6,5S0.3,5,0.2,5.2
	C0.1,5.3,0,5.5,0,5.7C0,5.8,0.1,6,0.2,6.1l0.1,0.1l3.6,2.8C3.9,9,4.1,9,4.2,9C4.4,9,4.6,9,4.7,8.9l7.7-7.8
	C12.7,0.8,12.7,0.4,12.5,0.2z"/>
</svg>
