<?xml version="1.0" encoding="utf-8"?>
<!-- Generator: Adobe Illustrator 16.0.0, SVG Export Plug-In . SVG Version: 6.00 Build 0)  -->
<!DOCTYPE svg PUBLIC "-//W3C//DTD SVG 1.1//EN" "http://www.w3.org/Graphics/SVG/1.1/DTD/svg11.dtd">
<svg version="1.1" id="done1.svg" xmlns="http://www.w3.org/2000/svg" xmlns:xlink="http://www.w3.org/1999/xlink" x="0px" y="0px"
	 width="24px" height="24px" viewBox="-14 6 24 24" enable-background="new 0 0 24 24" xml:space="preserve">
<circle id="Shape_696_copy_15" fill="#CCD7E0" cx="11.96" cy="12.651" r="9.063"/>
<path fill="#A0212D" d="M18.954,15.776c-0.417-0.677-5.046-8.513-5.404-9.09c-0.19-0.305-0.39-0.444-0.585-0.429V6.256
	c0,0-0.002,0-0.004,0c-0.001,0-0.002,0-0.003,0v0.001c-0.195-0.015-0.396,0.125-0.584,0.429c-0.359,0.577-4.989,8.413-5.406,9.09
	c-0.416,0.676-0.403,1.085,0.449,1.084c1.25,0.006,9.838,0.006,11.089,0C18.356,16.861,18.37,16.452,17.954,15.776z M12.544,15.098
	c-0.162,0.163-0.355,0.245-0.58,0.245c-0.22,0-0.409-0.076-0.565-0.225c-0.169-0.162-0.254-0.362-0.254-0.6
	c0-0.221,0.075-0.406,0.224-0.558c0.167-0.175,0.347-0.258,0.593-0.258c0.219,0,0.433,0.078,0.59,0.243
	c0.156,0.161,0.234,0.352,0.234,0.568C12.786,14.739,12.706,14.934,12.544,15.098z M12.72,12.117
	c-0.089,0.297-0.208,0.562-0.357,0.795c-0.17,0.263-0.292,0.393-0.396,0.393c-0.102,0-0.259-0.167-0.443-0.503
	c-0.137-0.248-0.245-0.514-0.324-0.796c-0.08-0.283-0.12-0.543-0.12-0.778c0-0.288,0.064-0.53,0.194-0.725
	c0.159-0.243,0.39-0.364,0.694-0.364c0.225,0,0.416,0.081,0.572,0.243c0.21,0.212,0.314,0.513,0.314,0.903
	C12.854,11.542,12.811,11.82,12.72,12.117z"/>
</svg>
