<?xml version="1.0" encoding="UTF-8"?>
<svg width="13px" height="13px" viewBox="0 0 13 13" version="1.1" xmlns="http://www.w3.org/2000/svg" xmlns:xlink="http://www.w3.org/1999/xlink">
    <!-- Generator: Sketch 58 (84663) - https://sketch.com -->
    <title>Group 10</title>
    <desc>Created with Sketch.</desc>
    <defs>
        <polygon id="path-1" points="0 0.120148718 12.9257143 0.120148718 12.9257143 7 0 7"></polygon>
    </defs>
    <g id="Symbols" stroke="none" stroke-width="1" fill="none" fill-rule="evenodd">
        <g id="Side_panels/Panel1" transform="translate(-46.000000, -430.000000)">
            <g id="Group-10" transform="translate(46.000000, 430.000000)">
                <path d="M6.5,10 C6.72090105,10 6.90018904,9.82040129 6.90018904,9.59911002 L6.90018904,1.27863858 L9.36539894,3.41538215 C9.54448684,3.54507006 9.79480969,3.50458017 9.92407314,3.3251819 C10.0371286,3.16863437 10.0225215,2.95395779 9.88965624,2.81404718 L6.76212128,0.0980175991 C6.61164743,-0.032672533 6.38833783,-0.032672533 6.23786398,0.0980175991 L3.11032901,2.80803384 C2.95785418,2.96838983 2.96425732,3.22215318 3.12433589,3.37469182 C3.26400444,3.50778729 3.47830962,3.52241977 3.63458631,3.4093688 L6.09979622,1.27863858 L6.09979622,9.59911002 C6.09979622,9.82040129 6.27908421,10 6.5,10" id="Fill-1" fill="#FFFFFF"></path>
                <path d="M6.20850441,1.13637537 L6.20850441,9.50869005 C6.20850441,9.67121538 6.33943805,9.80347602 6.50033273,9.80347602 C6.66122741,9.80347602 6.79216104,9.67121538 6.79216104,9.50869005 L6.79216104,1.13598232 L9.34993895,3.37163914 C9.40635909,3.4123196 9.48417998,3.43039981 9.56044444,3.41841185 C9.63748712,3.40583431 9.70519129,3.36377818 9.7507165,3.29990789 C9.83301209,3.18494136 9.82250627,3.02693608 9.72561927,2.92415403 L6.691383,0.267739371 C6.58243376,0.172228716 6.4182317,0.172228716 6.30908791,0.267739371 L3.26823686,2.92474361 C3.22134978,2.97525027 3.1927506,3.04992938 3.19469612,3.1287355 C3.19664165,3.20754162 3.22874276,3.28064854 3.28535745,3.33488916 C3.38710826,3.43295462 3.54372279,3.44356692 3.65734128,3.36024075 L6.20850441,1.13637537 Z M6.50033273,10 C6.23223978,10 6.0139522,9.77969662 6.0139522,9.50869005 L6.0139522,1.56558375 L3.77796365,3.51431555 C3.58166047,3.65836763 3.32096051,3.64048395 3.15111643,3.47736904 C3.05695316,3.38677149 3.0034513,3.26473009 3.00014391,3.1336486 C2.99703108,3.00237058 3.04450182,2.87777437 3.13419039,2.78265677 L6.18185076,0.119167241 C6.36317342,-0.0396241364 6.63749204,-0.0398206604 6.8188147,0.119167241 L9.85986029,2.78206719 C10.0279534,2.9599214 10.0456577,3.22346006 9.90849835,3.41507094 C9.83242843,3.52139041 9.7197827,3.59154948 9.5915728,3.61238102 C9.46316834,3.63281951 9.33456933,3.6023583 9.22931658,3.52551742 L6.98671325,1.5659768 L6.98671325,9.50869005 C6.98671325,9.77969662 6.76862023,10 6.50033273,10 L6.50033273,10 Z" id="Fill-3" fill="#FFFFFF"></path>
                <path d="M0,7.3126172 L0,11.6873828 C0,12.412135 0.593906706,13 1.32653061,13 L11.6734694,13 C12.4060933,13 13,12.412135 13,11.6873828 L13,7.3126172 C13,6.58767747 12.4060933,6 11.6734694,6 L9.3425656,6 C9.13316327,6 8.96355685,6.16782748 8.96355685,6.37503349 C8.96355685,6.58205197 9.13316327,6.75006697 9.3425656,6.75006697 L11.6734694,6.75006697 C11.9874781,6.75006697 12.2419825,7.00190196 12.2419825,7.3126172 L12.2419825,11.6873828 C12.2419825,11.9979105 11.9874781,12.249933 11.6734694,12.249933 L1.32653061,12.249933 C1.01252187,12.249933 0.758017493,11.9979105 0.758017493,11.6873828 L0.758017493,7.3126172 C0.758017493,7.00190196 1.01252187,6.75006697 1.32653061,6.75006697 L3.6574344,6.75006697 C3.86664723,6.75006697 4.03644315,6.58205197 4.03644315,6.37503349 C4.03644315,6.16782748 3.86664723,6 3.6574344,6 L1.32653061,6 C0.593906706,6 0,6.58767747 0,7.3126172" id="Fill-5" fill="#FFFFFF"></path>
                <g id="Group-9" transform="translate(0.000000, 6.000000)">
                    <mask id="mask-2" fill="white">
                        <use xlink:href="#path-1"></use>
                    </mask>
                    <g id="Clip-8"></g>
                    <path d="M1.39285714,0.299635897 C0.727257143,0.299635897 0.185714286,0.823020513 0.185714286,1.46630256 L0.185714286,5.65391795 C0.185714286,6.2972 0.727257143,6.82058462 1.39285714,6.82058462 L11.5328571,6.82058462 C12.1984571,6.82058462 12.74,6.2972 12.74,5.65391795 L12.74,1.46630256 C12.74,0.823020513 12.1984571,0.299635897 11.5328571,0.299635897 L9.24857143,0.299635897 C9.09498571,0.299635897 8.97,0.420430769 8.97,0.568866667 C8.97,0.717302564 9.09498571,0.838097436 9.24857143,0.838097436 L11.5328571,0.838097436 C11.8911,0.838097436 12.1828571,1.11989231 12.1828571,1.46630256 L12.1828571,5.65391795 C12.1828571,6.00014872 11.8911,6.28212308 11.5328571,6.28212308 L1.39285714,6.28212308 C1.03442857,6.28212308 0.742857143,6.00014872 0.742857143,5.65391795 L0.742857143,1.46630256 C0.742857143,1.11989231 1.03442857,0.838097436 1.39285714,0.838097436 L3.67714286,0.838097436 C3.83072857,0.838097436 3.95571429,0.717302564 3.95571429,0.568866667 C3.95571429,0.420430769 3.83072857,0.299635897 3.67714286,0.299635897 L1.39285714,0.299635897 Z M11.5328571,7.00007179 L1.39285714,7.00007179 C0.624742857,7.00007179 0,6.39609744 0,5.65391795 L0,1.46630256 C0,0.724123077 0.624742857,0.120148718 1.39285714,0.120148718 L3.67714286,0.120148718 C3.93305714,0.120148718 4.14142857,0.321533333 4.14142857,0.568866667 C4.14142857,0.8162 3.93305714,1.01758462 3.67714286,1.01758462 L1.39285714,1.01758462 C1.13694286,1.01758462 0.928571429,1.21896923 0.928571429,1.46630256 L0.928571429,5.65391795 C0.928571429,5.90125128 1.13694286,6.1026359 1.39285714,6.1026359 L11.5328571,6.1026359 C11.7889571,6.1026359 11.9971429,5.90125128 11.9971429,5.65391795 L11.9971429,1.46630256 C11.9971429,1.21896923 11.7889571,1.01758462 11.5328571,1.01758462 L9.24857143,1.01758462 C8.99247143,1.01758462 8.78428571,0.8162 8.78428571,0.568866667 C8.78428571,0.321533333 8.99247143,0.120148718 9.24857143,0.120148718 L11.5328571,0.120148718 C12.3007857,0.120148718 12.9257143,0.724123077 12.9257143,1.46630256 L12.9257143,5.65391795 C12.9257143,6.39609744 12.3007857,7.00007179 11.5328571,7.00007179 L11.5328571,7.00007179 Z" id="Fill-7" fill="#FFFFFF" mask="url(#mask-2)"></path>
                </g>
            </g>
        </g>
    </g>
</svg>