<?xml version="1.0" encoding="UTF-8"?>
<svg width="45px" height="45px" viewBox="0 0 45 45" version="1.1" xmlns="http://www.w3.org/2000/svg" xmlns:xlink="http://www.w3.org/1999/xlink">
  <!-- Generator: Sketch 58 (84663) - https://sketch.com -->
  <title>Group 3 Copy 2</title>
  <desc>Created with Sketch.</desc>
  <defs>
    <linearGradient x1="67.8588867%" y1="113.320313%" x2="50%" y2="23.5351562%" id="linearGradient-1">
      <stop stop-color="#2170B8" offset="0%"></stop>
      <stop stop-color="#30B3A8" offset="100%"></stop>
    </linearGradient>
  </defs>
  <g id="Symbols" stroke="none" stroke-width="1" fill="none" fill-rule="evenodd">
    <g id="KPI" transform="translate(-861.000000, -7.000000)" fill="url(#linearGradient-1)">
      <g id="Group-3-Copy-2" transform="translate(861.000000, 7.000000)">
        <path d="M37.896,22.8 C37.896,22.1472 38.424,21.6192 39.0816,21.6192 C39.7344,21.6192 40.2672,22.1472 40.2672,22.8 L40.2672,31.6704 C40.2672,35.7024 39.9024,37.5792 38.8608,39.5232 C37.9248,41.28 36.5472,42.6576 34.7952,43.5936 C32.8416,44.64 30.9696,45 26.9376,45 L13.3296,45 C9.3024,45 7.4208,44.64 5.472,43.5936 C3.7248,42.6576 2.3424,41.28 1.4064,39.5232 C0.3648,37.5792 0,35.7024 0,31.6704 L0,18.0672 C0,14.0352 0.3648,12.1584 1.4064,10.2096 C2.3424,8.4576 3.7248,7.08 5.472,6.1392 C7.4208,5.0976 9.3024,4.7328 13.3296,4.7328 L22.1952,4.7328 C22.8528,4.7328 23.3856,5.2656 23.3856,5.9184 C23.3856,6.5712 22.8528,7.104 22.1952,7.104 L13.3296,7.104 C9.6576,7.104 8.1504,7.3968 6.5952,8.232 C5.2512,8.9424 4.2096,9.9888 3.4944,11.3232 C2.6592,12.888 2.3712,14.3952 2.3712,18.0672 L2.3712,31.6704 C2.3712,35.3424 2.6592,36.8496 3.4944,38.4096 C4.2096,39.7488 5.2512,40.7904 6.5952,41.5056 C8.1504,42.336 9.6576,42.6336 13.3296,42.6336 L26.9376,42.6336 C30.6048,42.6336 32.1168,42.336 33.6768,41.5056 C35.0112,40.7904 36.0576,39.7488 36.7728,38.4096 C37.6032,36.8496 37.896,35.3424 37.896,31.6704 L37.896,22.8 Z M40.9632,2.3664 L29.6064,2.3664 C28.9536,2.3664 28.4208,1.8384 28.4208,1.1808 C28.4208,0.528 28.9536,0 29.6064,0 L43.8144,0 C44.472,0 45,0.528 45,1.1808 L45,15.3936 C45,16.0512 44.472,16.5792 43.8144,16.5792 C43.1664,16.5792 42.6336,16.0512 42.6336,15.3936 L42.6336,4.0416 L19.7904,26.8896 C19.3248,27.3504 18.576,27.3504 18.1104,26.8896 C17.6496,26.4288 17.6496,25.68 18.1104,25.2144 L40.9632,2.3664 Z" id="Fill-1"></path>
      </g>
    </g>
  </g>
</svg>
