<svg id="Layer_1" data-name="Layer 1" xmlns="http://www.w3.org/2000/svg" viewBox="0 0 24.1 24"><defs><style>.cls-1{fill:#fff;}</style></defs><title>run icon</title><path class="cls-1" d="M8.26,8.35A5.37,5.37,0,0,0,2.9,13.72H8.26V8.35Z" transform="translate(-2.9 -4)"/><path class="cls-1" d="M9.37,8.58a5.73,5.73,0,1,1-5.73,5.73H9.37V8.58h0Z" transform="translate(-2.9 -4)"/><path class="cls-1" d="M9,4V7c1-.14,1-0.25,1-0.34V5H26V27H10V21.07c0-.09,0-0.21-1-0.34V28H27V4H9Z" transform="translate(-2.9 -4)"/><rect class="cls-1" x="15.6" y="2.88" width="6.44" height="1.01"/><rect class="cls-1" x="15.6" y="4.96" width="6.44" height="1.01"/><rect class="cls-1" x="15.6" y="7.03" width="6.44" height="1.01"/></svg>