<svg id="Layer_1" data-name="Layer 1" xmlns="http://www.w3.org/2000/svg" viewBox="0 0 306.71 310.46"><defs><style>.cls-1{fill:#fff;}</style></defs><title>Vector Smart Object11</title><path class="cls-1" d="M381.25,367.46a6,6,0,0,1-6-6V297.71a6,6,0,0,1,6-6H445A6,6,0,0,1,449.24,302L385.5,365.7A6,6,0,0,1,381.25,367.46Z" transform="translate(-144.28 -57.74)"/><path class="cls-1" d="M381.25,368.21H232.77a6,6,0,0,1-6-6v-96a6,6,0,0,1,6-6,47.24,47.24,0,1,0,0-94.49,6,6,0,0,1-6-6v-96a6,6,0,0,1,6-6H445a6,6,0,0,1,6,6V298.46a6,6,0,0,1-1.76,4.24L385.5,366.45A6,6,0,0,1,381.25,368.21Zm-142.48-12h140L439,296V69.74H238.77V154a59.25,59.25,0,0,1,0,117.88v84.29Z" transform="translate(-144.28 -57.74)"/><path class="cls-1" d="M232.77,271.47A59.24,59.24,0,1,1,292,212.22,59.31,59.31,0,0,1,232.77,271.47Zm0-106.49A47.24,47.24,0,1,0,280,212.22,47.3,47.3,0,0,0,232.77,165Z" transform="translate(-144.28 -57.74)"/><path class="cls-1" d="M150.28,301.46A6,6,0,0,1,146,291.22l45-45a6,6,0,0,1,8.49,8.49l-45,45A6,6,0,0,1,150.28,301.46Z" transform="translate(-144.28 -57.74)"/></svg>