<svg id="Layer_1" data-name="Layer 1" xmlns="http://www.w3.org/2000/svg" viewBox="0 0 25.13 20.61"><defs><style>.cls-1{fill:#fff;}</style></defs><title>spotlight icon</title><rect class="cls-1" y="5.05" width="2.47" height="15.56"/><rect class="cls-1" x="4.2" y="9.5" width="2.47" height="11.11"/><rect class="cls-1" x="8.39" y="14.11" width="2.47" height="6.5"/><path class="cls-1" d="M23.24,8.84A5.55,5.55,0,1,0,23.18,17l5,4.74,0.92-1L24,15.94A5.55,5.55,0,0,0,23.24,8.84Zm-0.3,7.35a4.83,4.83,0,1,1-.19-6.83A4.83,4.83,0,0,1,22.94,16.19Z" transform="translate(-3.98 -7.32)"/><path class="cls-1" d="M16.57,27.93H19V20.59a6.45,6.45,0,0,1-2.47-.69v8Z" transform="translate(-3.98 -7.32)"/><path class="cls-1" d="M20.76,27.93h2.47V19.45a6.45,6.45,0,0,1-2.47,1v7.44Z" transform="translate(-3.98 -7.32)"/></svg>