<?xml version="1.0" encoding="UTF-8"?>
<svg width="15px" height="19px" viewBox="0 0 15 19" version="1.1" xmlns="http://www.w3.org/2000/svg" xmlns:xlink="http://www.w3.org/1999/xlink">
    <!-- Generator: Sketch 53.2 (72643) - https://sketchapp.com -->
    <title>Combined Shape Copy 5</title>
    <desc>Created with Sketch.</desc>
    <g id="SG" stroke="none" stroke-width="1" fill="none" fill-rule="evenodd">
        <g id="SG-Alert-Definition/1" transform="translate(-242.000000, -1022.000000)" fill="#3E4043">
            <path d="M255.958437,1022.95 C256.534062,1022.95 257,1023.4231 257,1024.00545 L257,1024.85 L242,1024.85 L242,1024.00545 C242,1023.4231 242.466875,1022.95 243.0425,1022.95 L245.7575,1022.95 C245.796875,1022.5491 246.063125,1022.19 246.464375,1022.05415 C246.570312,1022.01805 246.681875,1022 246.794375,1022 L252.206562,1022 C252.746562,1022 253.190937,1022.4161 253.243437,1022.95 L255.958437,1022.95 Z M246.219031,1027.7 C245.970594,1027.7 245.769969,1027.90425 245.769969,1028.15505 C245.769969,1028.1617 245.769969,1028.16835 245.769969,1028.175 L246.199344,1038.625 C246.210594,1038.89005 246.425281,1039.1 246.687781,1039.1 C246.936219,1039.1 247.136844,1038.89575 247.136844,1038.64495 C247.136844,1038.6383 247.136844,1038.63165 247.136844,1038.625 L246.707469,1028.175 C246.696219,1027.909 246.481531,1027.7 246.219031,1027.7 Z M249.031531,1028.175 L249.031531,1038.625 C249.031531,1038.8872 249.241531,1039.1 249.500281,1039.1 C249.759031,1039.1 249.969031,1038.8872 249.969031,1038.625 L249.969031,1028.175 C249.969031,1027.9128 249.759031,1027.7 249.500281,1027.7 C249.241531,1027.7 249.031531,1027.9128 249.031531,1028.175 Z M252.293094,1028.175 L251.863719,1038.625 C251.853406,1038.87675 252.046531,1039.0886 252.294031,1039.09905 C252.299656,1039.1 252.306219,1039.1 252.312781,1039.1 C252.574344,1039.1 252.789969,1038.89005 252.801219,1038.625 L253.230594,1028.175 C253.240906,1027.92325 253.047781,1027.71045 252.800281,1027.7 C252.794656,1027.7 252.788094,1027.7 252.781531,1027.7 C252.519969,1027.7 252.304344,1027.909 252.293094,1028.175 Z M243.624969,1039.91415 L242.937781,1025.8 L256.062781,1025.8 L255.408406,1039.91415 C255.408406,1039.91415 255.160906,1041 254.229031,1041 L249.909031,1041 L249.123406,1041 L244.803406,1041 C243.871531,1041 243.624969,1039.91415 243.624969,1039.91415 Z" id="Combined-Shape-Copy-5"></path>
        </g>
    </g>
</svg>