<?xml version="1.0" encoding="UTF-8"?>
<svg width="36px" height="36px" viewBox="0 0 36 36" version="1.1" xmlns="http://www.w3.org/2000/svg" xmlns:xlink="http://www.w3.org/1999/xlink">
    <!-- Generator: Sketch 58 (84663) - https://sketch.com -->
    <title>icons/unknown</title>
    <desc>Created with Sketch.</desc>
    <defs>
        <linearGradient x1="49.9997167%" y1="120.408232%" x2="49.9997167%" y2="31.9957865%" id="linearGradient-1">
            <stop stop-color="#2170B8" offset="0%"></stop>
            <stop stop-color="#2FB3A8" offset="100%"></stop>
        </linearGradient>
        <linearGradient x1="49.9997167%" y1="108.795916%" x2="49.9997167%" y2="31.9957865%" id="linearGradient-2">
            <stop stop-color="#2170B8" offset="0%"></stop>
            <stop stop-color="#2FB3A8" offset="100%"></stop>
        </linearGradient>
    </defs>
    <g id="Symbols" stroke="none" stroke-width="1" fill="none" fill-rule="evenodd">
        <g id="Side_panels/Panel1" transform="translate(-34.000000, -480.000000)">
            <g id="icons/unknown" transform="translate(34.000000, 480.000000)">
                <g id="Group-6">
                    <path d="M15.7768421,24.0227403 C15.51613,24.0217694 15.2828074,23.8607015 15.1894737,23.6172666 L12.6631579,17.0387403 L11.3242105,21.0593719 C11.2418439,21.3176241 11.0015945,21.4926994 10.7305263,21.4920035 L1.89473684,21.4920035 C1.54592542,21.4920035 1.26315789,21.2092359 1.26315789,20.8604245 C1.26315789,20.5116131 1.54592542,20.2288456 1.89473684,20.2288456 L10.2757895,20.2288456 L12.0252632,14.9671614 C12.1074942,14.7142438 12.34044,14.5408005 12.6063158,14.5345298 C12.8732733,14.5297806 13.1150553,14.6914723 13.2126316,14.9400035 L15.7326316,21.5185298 L17.0715789,17.4978982 C17.148626,17.2624353 17.3562253,17.0937645 17.6024744,17.0665546 C17.8487235,17.0393448 18.0881402,17.1586216 18.2147368,17.3715824 L19.3578947,19.2991614 L21.48,11.8275824 C21.5569678,11.5563565 21.804381,11.3689925 22.0863158,11.3684211 L22.0863158,11.3684211 C22.3687551,11.367489 22.6169742,11.5554633 22.6926316,11.8275824 L25.0863158,20.2275824 L34.7115789,20.2275824 C35.0603904,20.2275824 35.3431579,20.5103499 35.3431579,20.8591614 C35.3431579,21.2079728 35.0603904,21.4907403 34.7115789,21.4907403 L24.6126316,21.4907403 C24.3301196,21.4918933 24.0817835,21.3038304 24.0063158,21.0315824 L22.0863158,14.3065298 L20.1726316,21.0555824 C20.1031651,21.299843 19.8941592,21.4787421 19.6421053,21.5096877 C19.3934683,21.5421233 19.1495986,21.422428 19.0231579,21.2058982 L17.8357895,19.2056877 L16.3768421,23.5888456 C16.2925501,23.8429809 16.0571743,24.0163491 15.7894737,24.0214772 L15.7768421,24.0214772 L15.7768421,24.0227403 Z" id="Rounded_Rectangle_21_copy-path" fill="url(#linearGradient-1)" fill-rule="nonzero"></path>
                    <rect id="Rectangle" stroke="url(#linearGradient-2)" stroke-width="1.89649123" x="0.948245614" y="0.948245614" width="34.1035088" height="34.1035088" rx="3.29824561"></rect>
                </g>
            </g>
        </g>
    </g>
</svg>