<svg id="Layer_1" data-name="Layer 1" xmlns="http://www.w3.org/2000/svg" viewBox="0 0 263.95 229.41"><defs><style>.cls-1{fill:#fff;}</style></defs><title>Vector Smart Object2</title><path class="cls-1" d="M395.06,113.74V147H290.38L268,113.74H395.06ZM177.52,311.26V113.74h71.26l30.74,45.65a8,8,0,0,0,6.62,3.52H409.58V311.26H177.52ZM284,221.86l-15.27,15.27a8,8,0,0,1-11.27-11.27L292,191.34l34.52,34.52a8,8,0,0,1-11.28,11.27l-15.28-15.28v51.38a8,8,0,1,1-15.95,0V221.86h0Zm127-116.1a8,8,0,0,0-8-8H169.55a8,8,0,0,0-8,8V319.23a8,8,0,0,0,8,8h248a8,8,0,0,0,8-8V154.94a8,8,0,0,0-8-8H411v-41.2Z" transform="translate(-161.58 -97.8)"/></svg>