<?xml version="1.0" encoding="utf-8"?>
<!-- Generator: Adobe Illustrator 16.0.0, SVG Export Plug-In . SVG Version: 6.00 Build 0)  -->
<!DOCTYPE svg PUBLIC "-//W3C//DTD SVG 1.1//EN" "http://www.w3.org/Graphics/SVG/1.1/DTD/svg11.dtd">
<svg version="1.1" id="Layer_1" xmlns="http://www.w3.org/2000/svg" xmlns:xlink="http://www.w3.org/1999/xlink" x="0px" y="0px"
	 width="75px" height="62px" viewBox="0 0 75 62" enable-background="new 0 0 75 62" xml:space="preserve">
<g id="view-rows-range">
	
		<linearGradient id="Shape-54_1_" gradientUnits="userSpaceOnUse" x1="29.0371" y1="-24.8394" x2="29.0371" y2="39.1608" gradientTransform="matrix(1 0 0 -1 8.46 38.1602)">
		<stop  offset="0" style="stop-color:#2170B8"/>
		<stop  offset="1" style="stop-color:#30B3A8"/>
	</linearGradient>
	<path id="Shape-54" fill="url(#Shape-54_1_)" d="M73.227,47.198H22.755c-0.976,0-1.768-0.784-1.768-1.75
		c0-0.968,0.792-1.75,1.768-1.75h50.472c0.976,0,1.768,0.782,1.768,1.75C74.994,46.414,74.202,47.198,73.227,47.198z M73.227,32.74
		H22.755c-0.976,0-1.768-0.784-1.768-1.75c0-0.967,0.792-1.75,1.768-1.75h50.472c0.976,0,1.768,0.783,1.768,1.75
		C74.994,31.956,74.202,32.74,73.227,32.74z M73.227,18.313H22.755c-0.976,0-1.768-0.784-1.768-1.75c0-0.967,0.792-1.75,1.768-1.75
		h50.472c0.976,0,1.768,0.783,1.768,1.75C74.994,17.529,74.202,18.313,73.227,18.313z M73.227,3.875H22.755
		c-0.976,0-1.768-0.783-1.768-1.75c0-0.966,0.792-1.75,1.768-1.75h50.472c0.976,0,1.768,0.784,1.768,1.75
		C74.994,3.092,74.202,3.875,73.227,3.875z M11.283,40.84c0-0.215,0.096-0.431,0.257-0.594c0.16-0.164,0.354-0.245,0.564-0.245
		s0.421,0.081,0.581,0.245l4.07,4.156c0.149,0.152,0.24,0.363,0.24,0.595s-0.091,0.442-0.24,0.594l-4.07,4.157
		c-0.16,0.164-0.371,0.245-0.581,0.245s-0.404-0.081-0.564-0.245c-0.161-0.163-0.257-0.379-0.257-0.593
		c0-0.216,0.097-0.431,0.257-0.595l2.65-2.725h0.826L14.609,46H2H1H0V15h1h1h12.969l-0.219,0.159h-0.56l-2.65-2.725
		c-0.16-0.165-0.257-0.38-0.257-0.594c0-0.215,0.096-0.431,0.257-0.594c0.16-0.164,0.354-0.245,0.564-0.245s0.421,0.081,0.581,0.245
		l4.07,4.157c0.149,0.152,0.24,0.363,0.24,0.594c0,0.232-0.091,0.442-0.24,0.594l-4.07,4.157c-0.16,0.164-0.371,0.245-0.581,0.245
		s-0.404-0.081-0.564-0.245c-0.161-0.163-0.257-0.379-0.257-0.593c0-0.215,0.097-0.43,0.257-0.594l2.65-2.725h1.84L14.188,17H2v27
		h12.734l-0.203,0.159H14.19l-2.65-2.726C11.38,41.27,11.283,41.055,11.283,40.84z M22.755,58.125h50.472
		c0.976,0,1.768,0.783,1.768,1.75c0,0.966-0.792,1.75-1.768,1.75H22.755c-0.976,0-1.768-0.784-1.768-1.75
		C20.987,58.908,21.779,58.125,22.755,58.125z"/>
</g>
</svg>
