<?xml version="1.0" encoding="utf-8"?>
<!-- Generator: Adobe Illustrator 19.2.1, SVG Export Plug-In . SVG Version: 6.00 Build 0)  -->
<svg version="1.1" id="Layer_1" xmlns="http://www.w3.org/2000/svg" xmlns:xlink="http://www.w3.org/1999/xlink" x="0px" y="0px"
	 viewBox="0 0 38.3 38.3" style="enable-background:new 0 0 38.3 38.3;" xml:space="preserve">
<style type="text/css">
	.st0{fill:url(#SVGID_1_);}
	.st1{fill:url(#SVGID_2_);}
	.st2{fill:url(#SVGID_3_);}
	.st3{fill:url(#SVGID_4_);}
	.st4{fill:url(#SVGID_5_);}
	.st5{fill:url(#SVGID_6_);}
	.st6{fill:url(#SVGID_7_);}
	.st7{fill:url(#SVGID_8_);}
	.st8{fill:url(#SVGID_9_);}
	.st9{fill:url(#SVGID_10_);}
	.st10{fill:url(#SVGID_11_);}
	.st11{fill:url(#SVGID_12_);}
</style>
<g>
	<g>
		<linearGradient id="SVGID_1_" gradientUnits="userSpaceOnUse" x1="19.125" y1="38.25" x2="19.125" y2="0.5701">
			<stop  offset="0" style="stop-color:#2170B8"/>
			<stop  offset="0.9949" style="stop-color:#30B3A8"/>
		</linearGradient>
		<path class="st0" d="M36.9,5.5V4.3h-7.1v7.1H31V5.9c3.8,3.4,5.9,8.2,5.9,13.2c0,9.8-8,17.8-17.8,17.8s-17.8-8-17.8-17.8
			s8-17.8,17.8-17.8V0.1c-10.4,0-19,8.5-19,19s8.5,19,19,19s19-8.5,19-19C38.1,14,36,9,32.3,5.5H36.9z"/>
		<linearGradient id="SVGID_2_" gradientUnits="userSpaceOnUse" x1="19.125" y1="38.25" x2="19.125" y2="0.5701">
			<stop  offset="0" style="stop-color:#2170B8"/>
			<stop  offset="0.9949" style="stop-color:#30B3A8"/>
		</linearGradient>
		<path class="st1" d="M19.1,38.3C8.6,38.3,0,29.7,0,19.1C0,8.6,8.6,0,19.1,0h0.1v1.5h-0.1C9.4,1.5,1.5,9.4,1.5,19.1
			s7.9,17.6,17.6,17.6s17.6-7.9,17.6-17.6c0-4.9-2-9.6-5.6-12.9v5.3h-1.5V4.2h7.4v1.5h-4.4c3.6,3.5,5.6,8.4,5.6,13.5
			C38.3,29.7,29.7,38.3,19.1,38.3z M19,0.3C8.7,0.4,0.3,8.8,0.3,19.1C0.3,29.5,8.7,38,19.1,38S38,29.5,38,19.1
			c0-5.1-2.1-10-5.8-13.5l-0.3-0.3h4.8V4.4h-6.8v6.8h0.9V5.6l0.2,0.2c3.8,3.4,6,8.2,6,13.3c0,9.9-8,17.9-17.9,17.9S1.2,29,1.2,19.1
			c0-9.8,8-17.9,17.8-17.9V0.3z"/>
	</g>
	<g>
		<linearGradient id="SVGID_3_" gradientUnits="userSpaceOnUse" x1="19.125" y1="7.4128" x2="19.125" y2="-30.2671">
			<stop  offset="0" style="stop-color:#2170B8"/>
			<stop  offset="0.9949" style="stop-color:#30B3A8"/>
		</linearGradient>
		<rect x="18.5" y="2.5" class="st2" width="1.2" height="2.4"/>
		<linearGradient id="SVGID_4_" gradientUnits="userSpaceOnUse" x1="19.125" y1="7.4128" x2="19.125" y2="-30.2671">
			<stop  offset="0" style="stop-color:#2170B8"/>
			<stop  offset="0.9949" style="stop-color:#30B3A8"/>
		</linearGradient>
		<path class="st3" d="M19.9,5h-1.5V2.4h1.5V5z M18.7,4.7h0.9V2.7h-0.9V4.7z"/>
	</g>
	<g>
		<linearGradient id="SVGID_5_" gradientUnits="userSpaceOnUse" x1="19.125" y1="69.0872" x2="19.125" y2="31.4073">
			<stop  offset="0" style="stop-color:#2170B8"/>
			<stop  offset="0.9949" style="stop-color:#30B3A8"/>
		</linearGradient>
		<rect x="18.5" y="33.4" class="st4" width="1.2" height="2.4"/>
		<linearGradient id="SVGID_6_" gradientUnits="userSpaceOnUse" x1="19.125" y1="69.0872" x2="19.125" y2="31.4073">
			<stop  offset="0" style="stop-color:#2170B8"/>
			<stop  offset="0.9949" style="stop-color:#30B3A8"/>
		</linearGradient>
		<path class="st5" d="M19.9,35.9h-1.5v-2.7h1.5V35.9z M18.7,35.6h0.9v-2.1h-0.9V35.6z"/>
	</g>
	<g>
		<linearGradient id="SVGID_7_" gradientUnits="userSpaceOnUse" x1="3.7064" y1="38.25" x2="3.7064" y2="0.5701">
			<stop  offset="0" style="stop-color:#2170B8"/>
			<stop  offset="0.9949" style="stop-color:#30B3A8"/>
		</linearGradient>
		<rect x="2.5" y="18.5" class="st6" width="2.4" height="1.2"/>
		<linearGradient id="SVGID_8_" gradientUnits="userSpaceOnUse" x1="3.7064" y1="38.25" x2="3.7064" y2="0.5701">
			<stop  offset="0" style="stop-color:#2170B8"/>
			<stop  offset="0.9949" style="stop-color:#30B3A8"/>
		</linearGradient>
		<path class="st7" d="M5,19.9H2.4v-1.5H5V19.9z M2.7,19.6h2.1v-0.9H2.7V19.6z"/>
	</g>
	<g>
		<linearGradient id="SVGID_9_" gradientUnits="userSpaceOnUse" x1="34.5436" y1="38.25" x2="34.5436" y2="0.5701">
			<stop  offset="0" style="stop-color:#2170B8"/>
			<stop  offset="0.9949" style="stop-color:#30B3A8"/>
		</linearGradient>
		<rect x="33.4" y="18.5" class="st8" width="2.4" height="1.2"/>
		<linearGradient id="SVGID_10_" gradientUnits="userSpaceOnUse" x1="34.5436" y1="38.25" x2="34.5436" y2="0.5701">
			<stop  offset="0" style="stop-color:#2170B8"/>
			<stop  offset="0.9949" style="stop-color:#30B3A8"/>
		</linearGradient>
		<path class="st9" d="M35.9,19.9h-2.7v-1.5h2.7V19.9z M33.5,19.6h2.1v-0.9h-2.1V19.6z"/>
	</g>
	<g>
		<linearGradient id="SVGID_11_" gradientUnits="userSpaceOnUse" x1="21.7047" y1="32.1419" x2="21.7047" y2="-5.5381">
			<stop  offset="0" style="stop-color:#2170B8"/>
			<stop  offset="0.9949" style="stop-color:#30B3A8"/>
		</linearGradient>
		<polygon class="st10" points="24.9,24 19.7,18.9 19.7,7.3 18.5,7.3 18.5,19.4 24,24.9 		"/>
		<linearGradient id="SVGID_12_" gradientUnits="userSpaceOnUse" x1="21.7354" y1="32.2034" x2="21.7354" y2="-5.4766">
			<stop  offset="0" style="stop-color:#2170B8"/>
			<stop  offset="0.9949" style="stop-color:#30B3A8"/>
		</linearGradient>
		<path class="st11" d="M24,25.1l-5.7-5.7V7.1h1.5v11.7l5.2,5.2L24,25.1z M18.7,19.3l5.4,5.4l0.6-0.6l-5.1-5.1V7.4h-0.9V19.3z"/>
	</g>
</g>
</svg>
