<?xml version="1.0" encoding="utf-8"?>
<!-- Generator: Adobe Illustrator 19.2.1, SVG Export Plug-In . SVG Version: 6.00 Build 0)  -->
<svg version="1.1" id="Layer_1" xmlns="http://www.w3.org/2000/svg" xmlns:xlink="http://www.w3.org/1999/xlink" x="0px" y="0px"
	 viewBox="0 0 25.7 38.2" style="enable-background:new 0 0 25.7 38.2;" xml:space="preserve">
<style type="text/css">
	.st0{fill:url(#SVGID_1_);}
</style>
<linearGradient id="SVGID_1_" gradientUnits="userSpaceOnUse" x1="12.8599" y1="36.8554" x2="12.8599" y2="1.1378">
	<stop  offset="0" style="stop-color:#2170B8"/>
	<stop  offset="0.9949" style="stop-color:#30B3A8"/>
</linearGradient>
<path class="st0" d="M22.2,11.1V3.7h3c0.3,0,0.5-0.2,0.5-0.5V0.5c0-0.3-0.2-0.5-0.5-0.5H0.5C0.2,0,0,0.2,0,0.5v2.7
	c0,0.3,0.2,0.5,0.5,0.5h3l0,7.4c0,3.8,5.6,6.8,8,8c-2.4,1.1-8,4.2-8,8v7.4h-3C0.2,34.5,0,34.7,0,35v2.7c0,0.3,0.2,0.5,0.5,0.5h24.7
	c0.3,0,0.5-0.2,0.5-0.5V35c0-0.3-0.2-0.5-0.5-0.5h-3V27c0-3.8-5.6-6.8-8-8C16.6,17.9,22.2,14.9,22.2,11.1z M1.1,1.1h23.6v1.6h-3H4.1
	h-3V1.1z M21.1,3.7v6.5c0,0-0.1,0-0.1,0c-0.1,0-0.2-0.1-0.3-0.1c-0.2-0.1-0.5-0.2-0.8-0.3c-0.1,0-0.2-0.1-0.4-0.1
	c-0.3-0.1-0.5-0.1-0.8-0.2c-0.1,0-0.2,0-0.4-0.1c-0.4-0.1-0.8-0.1-1.2-0.1c-1.8,0-3.5,0.5-4.7,1.5C11.5,11.5,10,12,8.5,12
	c-0.4,0-0.7,0-1.1-0.1c-0.1,0-0.2-0.1-0.4-0.1c-0.2,0-0.5-0.1-0.7-0.2c-0.1,0-0.3-0.1-0.4-0.1c-0.2-0.1-0.4-0.1-0.6-0.2
	c-0.1-0.1-0.2-0.1-0.4-0.2c-0.1-0.1-0.3-0.2-0.4-0.2V3.7H21.1z M24.7,37.1H1.1v-1.6h3h17.6h3V37.1z M21.1,27v7.4H4.6V27
	c0-3.6,7-6.8,8.3-7.4C15.3,20.7,21.1,23.8,21.1,27z M12.9,18.5c-1.2-0.5-6.9-3.1-8.1-6.3c0.3,0.2,0.7,0.3,1,0.4
	c0.1,0,0.2,0.1,0.3,0.1c0.3,0.1,0.5,0.1,0.8,0.2c0.1,0,0.2,0,0.3,0.1C7.7,13,8.1,13,8.5,13c1.8,0,3.5-0.5,4.7-1.5
	c1.1-0.8,2.5-1.3,4.1-1.3c0.4,0,0.7,0,1.1,0.1c0.1,0,0.2,0.1,0.3,0.1c0.2,0,0.5,0.1,0.7,0.2c0.1,0,0.3,0.1,0.4,0.1
	c0.2,0.1,0.4,0.1,0.6,0.2c0.1,0.1,0.2,0.1,0.4,0.2c0.1,0.1,0.3,0.2,0.4,0.2C20.8,14.9,14.1,18,12.9,18.5z"/>
</svg>
