<?xml version="1.0" encoding="utf-8"?>
<!-- Generator: Adobe Illustrator 22.0.1, SVG Export Plug-In . SVG Version: 6.00 Build 0)  -->
<svg version="1.1" id="Layer_1" xmlns="http://www.w3.org/2000/svg" xmlns:xlink="http://www.w3.org/1999/xlink" x="0px" y="0px"
	 viewBox="0 0 46.1 40.7" style="enable-background:new 0 0 46.1 40.7;" xml:space="preserve">
<style type="text/css">
	.st0{fill:none;stroke:url(#SVGID_1_);stroke-width:1.5;stroke-miterlimit:10;}
	.st1{fill:url(#SVGID_2_);}
	.st2{fill:url(#SVGID_3_);}
</style>
<linearGradient id="SVGID_1_" gradientUnits="userSpaceOnUse" x1="23.05" y1="40.6598" x2="23.05" y2="13.7598">
	<stop  offset="0" style="stop-color:#2170B8"/>
	<stop  offset="1" style="stop-color:#30B3A8"/>
</linearGradient>
<path class="st0" d="M33,39.9h-20c-6.8,0-12.3-5.7-12.3-12.7s5.5-12.7,12.3-12.7h20c6.8,0,12.3,5.7,12.3,12.7
	C45.4,34.2,39.9,39.9,33,39.9z"/>
<linearGradient id="SVGID_2_" gradientUnits="userSpaceOnUse" x1="13.8491" y1="35.8264" x2="13.8491" y2="19.822">
	<stop  offset="0" style="stop-color:#2170B8"/>
	<stop  offset="0.7186" style="stop-color:#30B3A8"/>
</linearGradient>
<path class="st1" d="M13.8,36.7c-5.1,0-9.2-4.3-9.2-9.6s4.1-9.6,9.2-9.6s9.2,4.3,9.2,9.6C23.1,32.4,18.9,36.7,13.8,36.7z"/>
<linearGradient id="SVGID_3_" gradientUnits="userSpaceOnUse" x1="22.1246" y1="29.9514" x2="22.1246" y2="1.8177">
	<stop  offset="0" style="stop-color:#2170B8"/>
	<stop  offset="1" style="stop-color:#30B3A8"/>
</linearGradient>
<path class="st2" d="M30.1,1.8C30.1,1.8,30.1,1.8,30.1,1.8c0,0.1-0.1,0.1-0.1,0.2c0,0,0,0,0.1-0.1c-0.1,0.7,0.5,1.4,0.8,2
	c0.2,0.5,0.5,1,0.8,1.5c-5.3-3.2-11.5-3.6-16.8-1c-1.8,0.9-3.5,2.1-4.5,4.2c-0.3,0.5-0.6,1.4-0.8,1.8c1.7-3.5,5.5-5,8.7-5.6
	c3.2-0.6,6.6-0.3,9.7,1c0.9,0.4,1.8,0.8,2.7,1.3c-0.8,0.1-1.7,0.1-2.5,0.1c-0.1,0-0.4,0.9-0.4,1c0,0.1-0.3,1-0.4,1
	c2.2-0.1,4.3-0.2,6.5-0.3c0.1,0,0.8-1.9,0.8-1.9c-0.7-1.1-1.5-2.2-2.1-3.4c-0.3-0.5-0.6-1.1-0.9-1.7c-0.3-0.5-0.7-1.2-0.8-1.8
	c0-0.1,0.1-0.1,0.1-0.2c0,0-0.1,0.1-0.1,0.2c0,0,0,0,0,0c0,0,0,0,0,0C30.5,0.6,30.3,1.3,30.1,1.8z M30.8,0.2c0,0.1-0.1,0.2-0.1,0.2
	C30.7,0.4,30.7,0.3,30.8,0.2z"/>
</svg>
